solid CATIA STL
  facet normal  0.000000e+000  0.000000e+000 -9.999999e-001
    outer loop
      vertex  1.905256e-001 -5.684342e-017  1.200000e+000
      vertex  9.526280e-002 -1.650000e-001  1.200000e+000
      vertex  9.526280e-002  1.650000e-001  1.200000e+000
    endloop
  endfacet
  facet normal  -0.000000e+000  -0.000000e+000 -9.999999e-001
    outer loop
      vertex  9.526280e-002  1.650000e-001  1.200000e+000
      vertex  9.526280e-002 -1.650000e-001  1.200000e+000
      vertex -9.526280e-002  1.650000e-001  1.200000e+000
    endloop
  endfacet
  facet normal  0.000000e+000  0.000000e+000 -9.999999e-001
    outer loop
      vertex  9.526280e-002 -1.650000e-001  1.200000e+000
      vertex -9.526280e-002 -1.650000e-001  1.200000e+000
      vertex -9.526280e-002  1.650000e-001  1.200000e+000
    endloop
  endfacet
  facet normal  0.000000e+000  -0.000000e+000 -9.999999e-001
    outer loop
      vertex -9.526280e-002  1.650000e-001  1.200000e+000
      vertex -9.526280e-002 -1.650000e-001  1.200000e+000
      vertex -1.905256e-001 -4.263256e-017  1.200000e+000
    endloop
  endfacet
  facet normal -6.123725e-001  3.535533e-001 -7.071068e-001
    outer loop
      vertex -1.905256e-001 -4.263256e-017  1.200000e+000
      vertex -2.309401e-001  0.000000e+000  1.235000e+000
      vertex -9.526280e-002  1.650000e-001  1.200000e+000
    endloop
  endfacet
  facet normal -6.123725e-001  3.535534e-001 -7.071068e-001
    outer loop
      vertex -9.526280e-002  1.650000e-001  1.200000e+000
      vertex -2.309401e-001  0.000000e+000  1.235000e+000
      vertex -1.154701e-001  2.000000e-001  1.235000e+000
    endloop
  endfacet
  facet normal -6.123725e-001 -3.535534e-001 -7.071068e-001
    outer loop
      vertex -9.526280e-002 -1.650000e-001  1.200000e+000
      vertex -1.154701e-001 -2.000000e-001  1.235000e+000
      vertex -1.905256e-001 -4.263256e-017  1.200000e+000
    endloop
  endfacet
  facet normal -6.123725e-001 -3.535534e-001 -7.071068e-001
    outer loop
      vertex -1.905256e-001 -4.263256e-017  1.200000e+000
      vertex -1.154701e-001 -2.000000e-001  1.235000e+000
      vertex -2.309401e-001  0.000000e+000  1.235000e+000
    endloop
  endfacet
  facet normal  0.000000e+000 -7.071068e-001 -7.071068e-001
    outer loop
      vertex  9.526280e-002 -1.650000e-001  1.200000e+000
      vertex  1.154701e-001 -2.000000e-001  1.235000e+000
      vertex -9.526280e-002 -1.650000e-001  1.200000e+000
    endloop
  endfacet
  facet normal  0.000000e+000 -7.071068e-001 -7.071068e-001
    outer loop
      vertex -9.526280e-002 -1.650000e-001  1.200000e+000
      vertex  1.154701e-001 -2.000000e-001  1.235000e+000
      vertex -1.154701e-001 -2.000000e-001  1.235000e+000
    endloop
  endfacet
  facet normal  6.123725e-001 -3.535533e-001 -7.071068e-001
    outer loop
      vertex  1.905256e-001 -5.684342e-017  1.200000e+000
      vertex  2.309401e-001 -8.526513e-017  1.235000e+000
      vertex  9.526280e-002 -1.650000e-001  1.200000e+000
    endloop
  endfacet
  facet normal  6.123725e-001 -3.535534e-001 -7.071068e-001
    outer loop
      vertex  9.526280e-002 -1.650000e-001  1.200000e+000
      vertex  2.309401e-001 -8.526513e-017  1.235000e+000
      vertex  1.154701e-001 -2.000000e-001  1.235000e+000
    endloop
  endfacet
  facet normal  6.123725e-001  3.535534e-001 -7.071068e-001
    outer loop
      vertex  9.526280e-002  1.650000e-001  1.200000e+000
      vertex  1.154701e-001  2.000000e-001  1.235000e+000
      vertex  1.905256e-001 -5.684342e-017  1.200000e+000
    endloop
  endfacet
  facet normal  6.123725e-001  3.535534e-001 -7.071068e-001
    outer loop
      vertex  1.905256e-001 -5.684342e-017  1.200000e+000
      vertex  1.154701e-001  2.000000e-001  1.235000e+000
      vertex  2.309401e-001 -8.526513e-017  1.235000e+000
    endloop
  endfacet
  facet normal  0.000000e+000  7.071068e-001 -7.071068e-001
    outer loop
      vertex -9.526280e-002  1.650000e-001  1.200000e+000
      vertex -1.154701e-001  2.000000e-001  1.235000e+000
      vertex  9.526280e-002  1.650000e-001  1.200000e+000
    endloop
  endfacet
  facet normal  0.000000e+000  7.071068e-001 -7.071068e-001
    outer loop
      vertex  9.526280e-002  1.650000e-001  1.200000e+000
      vertex -1.154701e-001  2.000000e-001  1.235000e+000
      vertex  1.154701e-001  2.000000e-001  1.235000e+000
    endloop
  endfacet
  facet normal  0.000000e+000  -0.000000e+000  1.000000e+000
    outer loop
      vertex -1.732051e-001 -2.700063e-016  1.500000e+000
      vertex -8.660255e-002 -1.500000e-001  1.500000e+000
      vertex -8.660255e-002  1.500000e-001  1.500000e+000
    endloop
  endfacet
  facet normal  0.000000e+000  0.000000e+000  1.000000e+000
    outer loop
      vertex -8.660255e-002  1.500000e-001  1.500000e+000
      vertex -8.660255e-002 -1.500000e-001  1.500000e+000
      vertex  8.660255e-002  1.500000e-001  1.500000e+000
    endloop
  endfacet
  facet normal  0.000000e+000  0.000000e+000  1.000000e+000
    outer loop
      vertex  8.660255e-002  1.500000e-001  1.500000e+000
      vertex -8.660255e-002 -1.500000e-001  1.500000e+000
      vertex  8.660255e-002 -1.500000e-001  1.500000e+000
    endloop
  endfacet
  facet normal  0.000000e+000  0.000000e+000  1.000000e+000
    outer loop
      vertex  8.660255e-002  1.500000e-001  1.500000e+000
      vertex  8.660255e-002 -1.500000e-001  1.500000e+000
      vertex  1.732051e-001 -2.842171e-017  1.500000e+000
    endloop
  endfacet
  facet normal -6.123724e-001 -3.535534e-001  7.071068e-001
    outer loop
      vertex -1.154701e-001 -2.000000e-001  1.450000e+000
      vertex -8.660255e-002 -1.500000e-001  1.500000e+000
      vertex -2.309401e-001 -4.263256e-017  1.450000e+000
    endloop
  endfacet
  facet normal -6.123724e-001 -3.535534e-001  7.071068e-001
    outer loop
      vertex -2.309401e-001 -4.263256e-017  1.450000e+000
      vertex -8.660255e-002 -1.500000e-001  1.500000e+000
      vertex -1.732051e-001 -2.700063e-016  1.500000e+000
    endloop
  endfacet
  facet normal -8.660254e-001 -5.000001e-001  0.000000e+000
    outer loop
      vertex -2.309401e-001  0.000000e+000  1.235000e+000
      vertex -1.154701e-001 -2.000000e-001  1.235000e+000
      vertex -2.309401e-001 -4.263256e-017  1.450000e+000
    endloop
  endfacet
  facet normal -8.660254e-001 -5.000001e-001  0.000000e+000
    outer loop
      vertex -2.309401e-001 -4.263256e-017  1.450000e+000
      vertex -1.154701e-001 -2.000000e-001  1.235000e+000
      vertex -1.154701e-001 -2.000000e-001  1.450000e+000
    endloop
  endfacet
  facet normal  0.000000e+000  1.000000e+000  0.000000e+000
    outer loop
      vertex  1.154701e-001  2.000000e-001  1.235000e+000
      vertex -1.154701e-001  2.000000e-001  1.235000e+000
      vertex  1.154701e-001  2.000000e-001  1.450000e+000
    endloop
  endfacet
  facet normal  0.000000e+000  1.000000e+000  0.000000e+000
    outer loop
      vertex  1.154701e-001  2.000000e-001  1.450000e+000
      vertex -1.154701e-001  2.000000e-001  1.235000e+000
      vertex -1.154701e-001  2.000000e-001  1.450000e+000
    endloop
  endfacet
  facet normal  0.000000e+000  7.071068e-001  7.071068e-001
    outer loop
      vertex -1.154701e-001  2.000000e-001  1.450000e+000
      vertex -8.660255e-002  1.500000e-001  1.500000e+000
      vertex  1.154701e-001  2.000000e-001  1.450000e+000
    endloop
  endfacet
  facet normal  0.000000e+000  7.071068e-001  7.071068e-001
    outer loop
      vertex  1.154701e-001  2.000000e-001  1.450000e+000
      vertex -8.660255e-002  1.500000e-001  1.500000e+000
      vertex  8.660255e-002  1.500000e-001  1.500000e+000
    endloop
  endfacet
  facet normal -6.123724e-001  3.535534e-001  7.071068e-001
    outer loop
      vertex -2.309401e-001 -4.263256e-017  1.450000e+000
      vertex -1.732051e-001 -2.700063e-016  1.500000e+000
      vertex -1.154701e-001  2.000000e-001  1.450000e+000
    endloop
  endfacet
  facet normal -6.123725e-001  3.535534e-001  7.071068e-001
    outer loop
      vertex -1.154701e-001  2.000000e-001  1.450000e+000
      vertex -1.732051e-001 -2.700063e-016  1.500000e+000
      vertex -8.660255e-002  1.500000e-001  1.500000e+000
    endloop
  endfacet
  facet normal -8.660254e-001  5.000001e-001  0.000000e+000
    outer loop
      vertex -1.154701e-001  2.000000e-001  1.235000e+000
      vertex -2.309401e-001  0.000000e+000  1.235000e+000
      vertex -1.154701e-001  2.000000e-001  1.450000e+000
    endloop
  endfacet
  facet normal -8.660254e-001  5.000001e-001  0.000000e+000
    outer loop
      vertex -1.154701e-001  2.000000e-001  1.450000e+000
      vertex -2.309401e-001  0.000000e+000  1.235000e+000
      vertex -2.309401e-001 -4.263256e-017  1.450000e+000
    endloop
  endfacet
  facet normal  0.000000e+000 -7.071068e-001  7.071068e-001
    outer loop
      vertex  1.154701e-001 -2.000000e-001  1.450000e+000
      vertex  8.660255e-002 -1.500000e-001  1.500000e+000
      vertex -1.154701e-001 -2.000000e-001  1.450000e+000
    endloop
  endfacet
  facet normal  0.000000e+000 -7.071068e-001  7.071068e-001
    outer loop
      vertex -1.154701e-001 -2.000000e-001  1.450000e+000
      vertex  8.660255e-002 -1.500000e-001  1.500000e+000
      vertex -8.660255e-002 -1.500000e-001  1.500000e+000
    endloop
  endfacet
  facet normal  0.000000e+000 -1.000000e+000  0.000000e+000
    outer loop
      vertex -1.154701e-001 -2.000000e-001  1.235000e+000
      vertex  1.154701e-001 -2.000000e-001  1.235000e+000
      vertex -1.154701e-001 -2.000000e-001  1.450000e+000
    endloop
  endfacet
  facet normal  0.000000e+000 -1.000000e+000  0.000000e+000
    outer loop
      vertex -1.154701e-001 -2.000000e-001  1.450000e+000
      vertex  1.154701e-001 -2.000000e-001  1.235000e+000
      vertex  1.154701e-001 -2.000000e-001  1.450000e+000
    endloop
  endfacet
  facet normal  6.123724e-001 -3.535534e-001  7.071068e-001
    outer loop
      vertex  2.309401e-001 -4.263256e-017  1.450000e+000
      vertex  1.732051e-001 -2.842171e-017  1.500000e+000
      vertex  1.154701e-001 -2.000000e-001  1.450000e+000
    endloop
  endfacet
  facet normal  6.123725e-001 -3.535534e-001  7.071068e-001
    outer loop
      vertex  1.154701e-001 -2.000000e-001  1.450000e+000
      vertex  1.732051e-001 -2.842171e-017  1.500000e+000
      vertex  8.660255e-002 -1.500000e-001  1.500000e+000
    endloop
  endfacet
  facet normal  8.660254e-001 -5.000001e-001  0.000000e+000
    outer loop
      vertex  1.154701e-001 -2.000000e-001  1.235000e+000
      vertex  2.309401e-001 -8.526513e-017  1.235000e+000
      vertex  1.154701e-001 -2.000000e-001  1.450000e+000
    endloop
  endfacet
  facet normal  8.660254e-001 -5.000001e-001  0.000000e+000
    outer loop
      vertex  1.154701e-001 -2.000000e-001  1.450000e+000
      vertex  2.309401e-001 -8.526513e-017  1.235000e+000
      vertex  2.309401e-001 -4.263256e-017  1.450000e+000
    endloop
  endfacet
  facet normal  6.123724e-001  3.535534e-001  7.071068e-001
    outer loop
      vertex  1.154701e-001  2.000000e-001  1.450000e+000
      vertex  8.660255e-002  1.500000e-001  1.500000e+000
      vertex  2.309401e-001 -4.263256e-017  1.450000e+000
    endloop
  endfacet
  facet normal  6.123724e-001  3.535534e-001  7.071068e-001
    outer loop
      vertex  2.309401e-001 -4.263256e-017  1.450000e+000
      vertex  8.660255e-002  1.500000e-001  1.500000e+000
      vertex  1.732051e-001 -2.842171e-017  1.500000e+000
    endloop
  endfacet
  facet normal  8.660254e-001  5.000001e-001  0.000000e+000
    outer loop
      vertex  2.309401e-001 -8.526513e-017  1.235000e+000
      vertex  1.154701e-001  2.000000e-001  1.235000e+000
      vertex  2.309401e-001 -4.263256e-017  1.450000e+000
    endloop
  endfacet
  facet normal  8.660254e-001  5.000001e-001  0.000000e+000
    outer loop
      vertex  2.309401e-001 -4.263256e-017  1.450000e+000
      vertex  1.154701e-001  2.000000e-001  1.235000e+000
      vertex  1.154701e-001  2.000000e-001  1.450000e+000
    endloop
  endfacet
endsolid CATIA STL
