solid CATIA STL
  facet normal  0.000000e+000  0.000000e+000 -9.999999e-001
    outer loop
      vertex  1.905256e-001  0.000000e+000  3.000000e-001
      vertex  9.526280e-002 -1.650000e-001  3.000000e-001
      vertex  9.526280e-002  1.650000e-001  3.000000e-001
    endloop
  endfacet
  facet normal  -0.000000e+000  -0.000000e+000 -9.999999e-001
    outer loop
      vertex  9.526280e-002  1.650000e-001  3.000000e-001
      vertex  9.526280e-002 -1.650000e-001  3.000000e-001
      vertex -9.526280e-002  1.650000e-001  3.000000e-001
    endloop
  endfacet
  facet normal  0.000000e+000  0.000000e+000 -9.999999e-001
    outer loop
      vertex  9.526280e-002 -1.650000e-001  3.000000e-001
      vertex -9.526280e-002 -1.650000e-001  3.000000e-001
      vertex -9.526280e-002  1.650000e-001  3.000000e-001
    endloop
  endfacet
  facet normal  0.000000e+000  -0.000000e+000 -9.999999e-001
    outer loop
      vertex -9.526280e-002  1.650000e-001  3.000000e-001
      vertex -9.526280e-002 -1.650000e-001  3.000000e-001
      vertex -1.905256e-001 -2.131628e-016  3.000000e-001
    endloop
  endfacet
  facet normal -8.660254e-001 -5.000000e-001  0.000000e+000
    outer loop
      vertex -1.905256e-001 -2.131628e-016  3.000000e-001
      vertex -9.526280e-002 -1.650000e-001  3.000000e-001
      vertex -1.905256e-001 -4.263256e-017  1.200000e+000
    endloop
  endfacet
  facet normal -8.660254e-001 -5.000000e-001  0.000000e+000
    outer loop
      vertex -1.905256e-001 -4.263256e-017  1.200000e+000
      vertex -9.526280e-002 -1.650000e-001  3.000000e-001
      vertex -9.526280e-002 -1.650000e-001  1.200000e+000
    endloop
  endfacet
  facet normal  0.000000e+000 -1.000000e+000  0.000000e+000
    outer loop
      vertex -9.526280e-002 -1.650000e-001  3.000000e-001
      vertex  9.526280e-002 -1.650000e-001  3.000000e-001
      vertex -9.526280e-002 -1.650000e-001  1.200000e+000
    endloop
  endfacet
  facet normal  0.000000e+000 -1.000000e+000  0.000000e+000
    outer loop
      vertex -9.526280e-002 -1.650000e-001  1.200000e+000
      vertex  9.526280e-002 -1.650000e-001  3.000000e-001
      vertex  9.526280e-002 -1.650000e-001  1.200000e+000
    endloop
  endfacet
  facet normal  8.660254e-001 -5.000000e-001  0.000000e+000
    outer loop
      vertex  9.526280e-002 -1.650000e-001  3.000000e-001
      vertex  1.905256e-001  0.000000e+000  3.000000e-001
      vertex  9.526280e-002 -1.650000e-001  1.200000e+000
    endloop
  endfacet
  facet normal  8.660254e-001 -5.000000e-001  0.000000e+000
    outer loop
      vertex  9.526280e-002 -1.650000e-001  1.200000e+000
      vertex  1.905256e-001  0.000000e+000  3.000000e-001
      vertex  1.905256e-001 -5.684342e-017  1.200000e+000
    endloop
  endfacet
  facet normal  8.660254e-001  5.000000e-001  0.000000e+000
    outer loop
      vertex  1.905256e-001  0.000000e+000  3.000000e-001
      vertex  9.526280e-002  1.650000e-001  3.000000e-001
      vertex  1.905256e-001 -5.684342e-017  1.200000e+000
    endloop
  endfacet
  facet normal  8.660254e-001  5.000000e-001  0.000000e+000
    outer loop
      vertex  1.905256e-001 -5.684342e-017  1.200000e+000
      vertex  9.526280e-002  1.650000e-001  3.000000e-001
      vertex  9.526280e-002  1.650000e-001  1.200000e+000
    endloop
  endfacet
  facet normal  0.000000e+000  1.000000e+000  0.000000e+000
    outer loop
      vertex  9.526280e-002  1.650000e-001  3.000000e-001
      vertex -9.526280e-002  1.650000e-001  3.000000e-001
      vertex  9.526280e-002  1.650000e-001  1.200000e+000
    endloop
  endfacet
  facet normal  0.000000e+000  1.000000e+000  0.000000e+000
    outer loop
      vertex  9.526280e-002  1.650000e-001  1.200000e+000
      vertex -9.526280e-002  1.650000e-001  3.000000e-001
      vertex -9.526280e-002  1.650000e-001  1.200000e+000
    endloop
  endfacet
  facet normal -8.660254e-001  5.000000e-001  0.000000e+000
    outer loop
      vertex -9.526280e-002  1.650000e-001  3.000000e-001
      vertex -1.905256e-001 -2.131628e-016  3.000000e-001
      vertex -9.526280e-002  1.650000e-001  1.200000e+000
    endloop
  endfacet
  facet normal -8.660254e-001  5.000000e-001  0.000000e+000
    outer loop
      vertex -9.526280e-002  1.650000e-001  1.200000e+000
      vertex -1.905256e-001 -2.131628e-016  3.000000e-001
      vertex -1.905256e-001 -4.263256e-017  1.200000e+000
    endloop
  endfacet
  facet normal  0.000000e+000  0.000000e+000  9.999999e-001
    outer loop
      vertex  1.905256e-001 -5.684342e-017  1.200000e+000
      vertex  9.526280e-002  1.650000e-001  1.200000e+000
      vertex  9.526280e-002 -1.650000e-001  1.200000e+000
    endloop
  endfacet
  facet normal  0.000000e+000  -0.000000e+000  9.999999e-001
    outer loop
      vertex  9.526280e-002 -1.650000e-001  1.200000e+000
      vertex  9.526280e-002  1.650000e-001  1.200000e+000
      vertex -9.526280e-002  1.650000e-001  1.200000e+000
    endloop
  endfacet
  facet normal  0.000000e+000  0.000000e+000  9.999999e-001
    outer loop
      vertex  9.526280e-002 -1.650000e-001  1.200000e+000
      vertex -9.526280e-002  1.650000e-001  1.200000e+000
      vertex -9.526280e-002 -1.650000e-001  1.200000e+000
    endloop
  endfacet
  facet normal  0.000000e+000  -0.000000e+000  9.999999e-001
    outer loop
      vertex -9.526280e-002 -1.650000e-001  1.200000e+000
      vertex -9.526280e-002  1.650000e-001  1.200000e+000
      vertex -1.905256e-001 -4.263256e-017  1.200000e+000
    endloop
  endfacet
endsolid CATIA STL
