solid CATIA STL
  facet normal  1.307799e-001  9.305475e-001  3.420202e-001
    outer loop
      vertex -1.710630e-001  8.570809e-002 -2.119117e-001
      vertex -1.926563e-001  9.321510e-002 -2.240796e-001
      vertex -1.933394e-001  8.835468e-002 -2.105945e-001
    endloop
  endfacet
  facet normal  1.307799e-001  9.305478e-001  3.420197e-001
    outer loop
      vertex -1.710630e-001  8.570809e-002 -2.119117e-001
      vertex -1.933394e-001  8.835468e-002 -2.105945e-001
      vertex -1.837115e-001  8.500752e-002 -2.051692e-001
    endloop
  endfacet
  facet normal  1.307802e-001  9.305476e-001  3.420202e-001
    outer loop
      vertex -1.710630e-001  8.570809e-002 -2.119117e-001
      vertex -1.837115e-001  8.500752e-002 -2.051692e-001
      vertex -1.842612e-001  8.109664e-002 -1.943185e-001
    endloop
  endfacet
  facet normal  1.307802e-001  9.305475e-001  3.420202e-001
    outer loop
      vertex -1.710630e-001  8.570809e-002 -2.119117e-001
      vertex -1.842612e-001  8.109664e-002 -1.943185e-001
      vertex -1.722957e-001  7.693680e-002 -1.875760e-001
    endloop
  endfacet
  facet normal  1.307800e-001  9.305477e-001  3.420200e-001
    outer loop
      vertex -2.154824e-001  9.195082e-002 -2.119117e-001
      vertex -2.167151e-001  8.317954e-002 -1.875760e-001
      vertex -2.040666e-001  8.388011e-002 -1.943185e-001
    endloop
  endfacet
  facet normal  1.307797e-001  9.305476e-001  3.420202e-001
    outer loop
      vertex -2.154824e-001  9.195082e-002 -2.119117e-001
      vertex -2.040666e-001  8.388011e-002 -1.943185e-001
      vertex -2.035169e-001  8.779098e-002 -2.051692e-001
    endloop
  endfacet
  facet normal  1.307799e-001  9.305477e-001  3.420198e-001
    outer loop
      vertex -2.154824e-001  9.195082e-002 -2.119117e-001
      vertex -2.035169e-001  8.779098e-002 -2.051692e-001
      vertex -1.933394e-001  8.835468e-002 -2.105945e-001
    endloop
  endfacet
  facet normal  1.307799e-001  9.305476e-001  3.420203e-001
    outer loop
      vertex -2.154824e-001  9.195082e-002 -2.119117e-001
      vertex -1.933394e-001  8.835468e-002 -2.105945e-001
      vertex -1.926563e-001  9.321510e-002 -2.240796e-001
    endloop
  endfacet
  facet normal  1.307802e-001  9.305475e-001  3.420202e-001
    outer loop
      vertex -2.167151e-001  8.317954e-002 -1.875760e-001
      vertex -1.951218e-001  7.567253e-002 -1.754081e-001
      vertex -2.040666e-001  8.388011e-002 -1.943185e-001
    endloop
  endfacet
  facet normal  1.307794e-001  9.305475e-001  3.420206e-001
    outer loop
      vertex -2.040666e-001  8.388011e-002 -1.943185e-001
      vertex -1.951218e-001  7.567253e-002 -1.754081e-001
      vertex -1.944387e-001  8.053294e-002 -1.888932e-001
    endloop
  endfacet
  facet normal  1.307801e-001  9.305474e-001  3.420206e-001
    outer loop
      vertex -1.951218e-001  7.567253e-002 -1.754081e-001
      vertex -1.722957e-001  7.693680e-002 -1.875760e-001
      vertex -1.944387e-001  8.053294e-002 -1.888932e-001
    endloop
  endfacet
  facet normal  1.307802e-001  9.305475e-001  3.420202e-001
    outer loop
      vertex -1.944387e-001  8.053294e-002 -1.888932e-001
      vertex -1.722957e-001  7.693680e-002 -1.875760e-001
      vertex -1.842612e-001  8.109664e-002 -1.943185e-001
    endloop
  endfacet
  facet normal -1.703056e-001 -9.853913e-001  0.000000e+000
    outer loop
      vertex -1.850798e-001  1.705677e-001 -1.785396e-001
      vertex -1.850798e-001  1.705677e-001 -1.938643e-001
      vertex -1.818633e-001  1.700118e-001 -1.805817e-001
    endloop
  endfacet
  facet normal -1.703056e-001 -9.853913e-001  0.000000e+000
    outer loop
      vertex -1.850798e-001  1.705677e-001 -1.579727e-001
      vertex -1.818633e-001  1.700118e-001 -1.560055e-001
      vertex -1.850798e-001  1.705677e-001 -1.338643e-001
    endloop
  endfacet
  facet normal -1.703057e-001 -9.853913e-001 -1.185616e-008
    outer loop
      vertex -1.850798e-001  1.705677e-001 -1.338643e-001
      vertex -1.818633e-001  1.700118e-001 -1.560055e-001
      vertex -1.720044e-001  1.683079e-001 -1.622643e-001
    endloop
  endfacet
  facet normal -1.703058e-001 -9.853913e-001 -8.522109e-008
    outer loop
      vertex -1.850798e-001  1.705677e-001 -1.338643e-001
      vertex -1.720044e-001  1.683079e-001 -1.622643e-001
      vertex -1.696875e-001  1.679074e-001 -1.238642e-001
    endloop
  endfacet
  facet normal -1.703072e-001 -9.853910e-001  0.000000e+000
    outer loop
      vertex -1.696875e-001  1.679074e-001 -1.238642e-001
      vertex -1.720044e-001  1.683079e-001 -1.622643e-001
      vertex -1.720044e-001  1.683079e-001 -1.745524e-001
    endloop
  endfacet
  facet normal -1.703072e-001 -9.853911e-001  0.000000e+000
    outer loop
      vertex -1.696875e-001  1.679074e-001 -1.238642e-001
      vertex -1.720044e-001  1.683079e-001 -1.745524e-001
      vertex -1.696875e-001  1.679074e-001 -2.038642e-001
    endloop
  endfacet
  facet normal -1.703057e-001 -9.853913e-001  1.194261e-007
    outer loop
      vertex -1.696875e-001  1.679074e-001 -2.038642e-001
      vertex -1.720044e-001  1.683079e-001 -1.745524e-001
      vertex -1.818633e-001  1.700118e-001 -1.805817e-001
    endloop
  endfacet
  facet normal -1.703059e-001 -9.853913e-001  6.354567e-008
    outer loop
      vertex -1.696875e-001  1.679074e-001 -2.038642e-001
      vertex -1.818633e-001  1.700118e-001 -1.805817e-001
      vertex -1.850798e-001  1.705677e-001 -1.938643e-001
    endloop
  endfacet
  facet normal -5.544159e-001 -3.200921e-001  7.682213e-001
    outer loop
      vertex -1.871875e-001  1.982183e-001 -1.238642e-001
      vertex -1.925799e-001  1.835580e-001 -1.338643e-001
      vertex -1.696875e-001  1.679074e-001 -1.238642e-001
    endloop
  endfacet
  facet normal -5.544161e-001 -3.200925e-001  7.682211e-001
    outer loop
      vertex -1.696875e-001  1.679074e-001 -1.238642e-001
      vertex -1.925799e-001  1.835580e-001 -1.338643e-001
      vertex -1.850798e-001  1.705677e-001 -1.338643e-001
    endloop
  endfacet
  facet normal -9.385267e-001  3.452067e-001  0.000000e+000
    outer loop
      vertex -1.871875e-001  1.982183e-001 -1.238642e-001
      vertex -1.871875e-001  1.982183e-001 -2.038642e-001
      vertex -1.925799e-001  1.835580e-001 -1.338643e-001
    endloop
  endfacet
  facet normal -9.385267e-001  3.452067e-001  0.000000e+000
    outer loop
      vertex -1.925799e-001  1.835580e-001 -1.338643e-001
      vertex -1.871875e-001  1.982183e-001 -2.038642e-001
      vertex -1.925799e-001  1.835580e-001 -1.938643e-001
    endloop
  endfacet
  facet normal -5.544161e-001 -3.200922e-001 -7.682212e-001
    outer loop
      vertex -1.696875e-001  1.679074e-001 -2.038642e-001
      vertex -1.850798e-001  1.705677e-001 -1.938643e-001
      vertex -1.871875e-001  1.982183e-001 -2.038642e-001
    endloop
  endfacet
  facet normal -5.544157e-001 -3.200923e-001 -7.682214e-001
    outer loop
      vertex -1.871875e-001  1.982183e-001 -2.038642e-001
      vertex -1.850798e-001  1.705677e-001 -1.938643e-001
      vertex -1.925799e-001  1.835580e-001 -1.938643e-001
    endloop
  endfacet
  facet normal -8.660253e-001 -5.000002e-001  -0.000000e+000
    outer loop
      vertex -1.850798e-001  1.705677e-001 -1.579727e-001
      vertex -1.850798e-001  1.705677e-001 -1.338643e-001
      vertex -1.905515e-001  1.800448e-001 -1.589735e-001
    endloop
  endfacet
  facet normal -8.660253e-001 -5.000003e-001 -2.532072e-008
    outer loop
      vertex -1.905515e-001  1.800448e-001 -1.589735e-001
      vertex -1.850798e-001  1.705677e-001 -1.338643e-001
      vertex -1.925799e-001  1.835580e-001 -1.338643e-001
    endloop
  endfacet
  facet normal -8.660251e-001 -5.000004e-001  0.000000e+000
    outer loop
      vertex -1.905515e-001  1.800448e-001 -1.589735e-001
      vertex -1.925799e-001  1.835580e-001 -1.338643e-001
      vertex -1.905515e-001  1.800448e-001 -1.712615e-001
    endloop
  endfacet
  facet normal -8.660252e-001 -5.000004e-001  0.000000e+000
    outer loop
      vertex -1.905515e-001  1.800448e-001 -1.712615e-001
      vertex -1.925799e-001  1.835580e-001 -1.338643e-001
      vertex -1.925799e-001  1.835580e-001 -1.938643e-001
    endloop
  endfacet
  facet normal -8.660251e-001 -5.000002e-001  3.444448e-008
    outer loop
      vertex -1.905515e-001  1.800448e-001 -1.712615e-001
      vertex -1.925799e-001  1.835580e-001 -1.938643e-001
      vertex -1.850798e-001  1.705677e-001 -1.785396e-001
    endloop
  endfacet
  facet normal -8.660252e-001 -5.000002e-001  -0.000000e+000
    outer loop
      vertex -1.850798e-001  1.705677e-001 -1.785396e-001
      vertex -1.925799e-001  1.835580e-001 -1.938643e-001
      vertex -1.850798e-001  1.705677e-001 -1.938643e-001
    endloop
  endfacet
  facet normal -4.539113e-001  3.629021e-001 -8.137977e-001
    outer loop
      vertex -2.035169e-001  8.779098e-002 -2.051692e-001
      vertex -1.905515e-001  1.800448e-001 -1.712615e-001
      vertex -1.933394e-001  8.835468e-002 -2.105945e-001
    endloop
  endfacet
  facet normal -4.539122e-001  3.629020e-001 -8.137971e-001
    outer loop
      vertex -1.933394e-001  8.835468e-002 -2.105945e-001
      vertex -1.905515e-001  1.800448e-001 -1.712615e-001
      vertex -1.850798e-001  1.705677e-001 -1.785396e-001
    endloop
  endfacet
  facet normal -4.539123e-001  3.629020e-001 -8.137971e-001
    outer loop
      vertex -1.933394e-001  8.835468e-002 -2.105945e-001
      vertex -1.850798e-001  1.705677e-001 -1.785396e-001
      vertex -1.818633e-001  1.700118e-001 -1.805817e-001
    endloop
  endfacet
  facet normal  5.363568e-001  2.237289e-001 -8.137977e-001
    outer loop
      vertex -1.818633e-001  1.700118e-001 -1.805817e-001
      vertex -1.720044e-001  1.683079e-001 -1.745524e-001
      vertex -1.933394e-001  8.835468e-002 -2.105945e-001
    endloop
  endfacet
  facet normal  5.363569e-001  2.237289e-001 -8.137977e-001
    outer loop
      vertex -1.933394e-001  8.835468e-002 -2.105945e-001
      vertex -1.720044e-001  1.683079e-001 -1.745524e-001
      vertex -1.837115e-001  8.500752e-002 -2.051692e-001
    endloop
  endfacet
  facet normal  9.902680e-001 -1.391730e-001  0.000000e+000
    outer loop
      vertex -1.720044e-001  1.683079e-001 -1.622643e-001
      vertex -1.842612e-001  8.109664e-002 -1.943185e-001
      vertex -1.720044e-001  1.683079e-001 -1.745524e-001
    endloop
  endfacet
  facet normal  9.902681e-001 -1.391730e-001  0.000000e+000
    outer loop
      vertex -1.720044e-001  1.683079e-001 -1.745524e-001
      vertex -1.842612e-001  8.109664e-002 -1.943185e-001
      vertex -1.837115e-001  8.500752e-002 -2.051692e-001
    endloop
  endfacet
  facet normal  4.539113e-001 -3.629020e-001  8.137976e-001
    outer loop
      vertex -1.720044e-001  1.683079e-001 -1.622643e-001
      vertex -1.818633e-001  1.700118e-001 -1.560055e-001
      vertex -1.842612e-001  8.109664e-002 -1.943185e-001
    endloop
  endfacet
  facet normal  4.539113e-001 -3.629020e-001  8.137976e-001
    outer loop
      vertex -1.842612e-001  8.109664e-002 -1.943185e-001
      vertex -1.818633e-001  1.700118e-001 -1.560055e-001
      vertex -1.944387e-001  8.053294e-002 -1.888932e-001
    endloop
  endfacet
  facet normal -5.363564e-001 -2.237293e-001  8.137980e-001
    outer loop
      vertex -1.905515e-001  1.800448e-001 -1.589735e-001
      vertex -2.040666e-001  8.388011e-002 -1.943185e-001
      vertex -1.850798e-001  1.705677e-001 -1.579727e-001
    endloop
  endfacet
  facet normal -5.363570e-001 -2.237289e-001  8.137976e-001
    outer loop
      vertex -1.850798e-001  1.705677e-001 -1.579727e-001
      vertex -2.040666e-001  8.388011e-002 -1.943185e-001
      vertex -1.944387e-001  8.053294e-002 -1.888932e-001
    endloop
  endfacet
  facet normal -5.363572e-001 -2.237289e-001  8.137974e-001
    outer loop
      vertex -1.850798e-001  1.705677e-001 -1.579727e-001
      vertex -1.944387e-001  8.053294e-002 -1.888932e-001
      vertex -1.818633e-001  1.700118e-001 -1.560055e-001
    endloop
  endfacet
  facet normal -9.902681e-001  1.391732e-001  7.331076e-008
    outer loop
      vertex -2.035169e-001  8.779098e-002 -2.051692e-001
      vertex -2.040666e-001  8.388011e-002 -1.943185e-001
      vertex -1.905515e-001  1.800448e-001 -1.712615e-001
    endloop
  endfacet
  facet normal -9.902681e-001  1.391732e-001  0.000000e+000
    outer loop
      vertex -1.905515e-001  1.800448e-001 -1.712615e-001
      vertex -2.040666e-001  8.388011e-002 -1.943185e-001
      vertex -1.905515e-001  1.800448e-001 -1.589735e-001
    endloop
  endfacet
  facet normal  8.660254e-001  4.999999e-001  0.000000e+000
    outer loop
      vertex -1.871875e-001  1.982183e-001 -2.038642e-001
      vertex -1.871875e-001  1.982183e-001 -1.238642e-001
      vertex -1.696875e-001  1.679074e-001 -2.038642e-001
    endloop
  endfacet
  facet normal  8.660254e-001  4.999999e-001  -0.000000e+000
    outer loop
      vertex -1.696875e-001  1.679074e-001 -2.038642e-001
      vertex -1.871875e-001  1.982183e-001 -1.238642e-001
      vertex -1.696875e-001  1.679074e-001 -1.238642e-001
    endloop
  endfacet
  facet normal  9.902680e-001 -1.391731e-001  1.571195e-007
    outer loop
      vertex -1.722957e-001  7.693680e-002 -1.875760e-001
      vertex -1.840659e-001 -6.812484e-003 -2.183578e-001
      vertex -1.710630e-001  8.570809e-002 -2.119117e-001
    endloop
  endfacet
  facet normal  9.902680e-001 -1.391731e-001  1.571195e-007
    outer loop
      vertex -1.710630e-001  8.570809e-002 -2.119117e-001
      vertex -1.840659e-001 -6.812484e-003 -2.183578e-001
      vertex -1.828332e-001  1.958801e-003 -2.426935e-001
    endloop
  endfacet
  facet normal  4.539110e-001 -3.629021e-001  8.137978e-001
    outer loop
      vertex -1.722957e-001  7.693680e-002 -1.875760e-001
      vertex -1.951218e-001  7.567253e-002 -1.754081e-001
      vertex -1.840659e-001 -6.812484e-003 -2.183578e-001
    endloop
  endfacet
  facet normal  4.539115e-001 -3.629020e-001  8.137977e-001
    outer loop
      vertex -1.840659e-001 -6.812484e-003 -2.183578e-001
      vertex -1.951218e-001  7.567253e-002 -1.754081e-001
      vertex -2.068920e-001 -8.076762e-003 -2.061899e-001
    endloop
  endfacet
  facet normal -5.363567e-001 -2.237290e-001  8.137977e-001
    outer loop
      vertex -1.951218e-001  7.567253e-002 -1.754081e-001
      vertex -2.167151e-001  8.317954e-002 -1.875760e-001
      vertex -2.068920e-001 -8.076762e-003 -2.061899e-001
    endloop
  endfacet
  facet normal -5.363571e-001 -2.237290e-001  8.137975e-001
    outer loop
      vertex -2.068920e-001 -8.076762e-003 -2.061899e-001
      vertex -2.167151e-001  8.317954e-002 -1.875760e-001
      vertex -2.284853e-001 -5.697525e-004 -2.183578e-001
    endloop
  endfacet
  facet normal -9.902680e-001  1.391730e-001  4.615385e-007
    outer loop
      vertex -2.272526e-001  8.201533e-003 -2.426935e-001
      vertex -2.284853e-001 -5.697525e-004 -2.183578e-001
      vertex -2.154824e-001  9.195082e-002 -2.119117e-001
    endloop
  endfacet
  facet normal -9.902680e-001  1.391731e-001 -1.800328e-007
    outer loop
      vertex -2.154824e-001  9.195082e-002 -2.119117e-001
      vertex -2.284853e-001 -5.697525e-004 -2.183578e-001
      vertex -2.167151e-001  8.317954e-002 -1.875760e-001
    endloop
  endfacet
  facet normal -4.539115e-001  3.629021e-001 -8.137975e-001
    outer loop
      vertex -2.154824e-001  9.195082e-002 -2.119117e-001
      vertex -1.926563e-001  9.321510e-002 -2.240796e-001
      vertex -2.272526e-001  8.201533e-003 -2.426935e-001
    endloop
  endfacet
  facet normal -4.539114e-001  3.629021e-001 -8.137976e-001
    outer loop
      vertex -2.272526e-001  8.201533e-003 -2.426935e-001
      vertex -1.926563e-001  9.321510e-002 -2.240796e-001
      vertex -2.044265e-001  9.465809e-003 -2.548614e-001
    endloop
  endfacet
  facet normal  5.363572e-001  2.237289e-001 -8.137977e-001
    outer loop
      vertex -1.926563e-001  9.321510e-002 -2.240796e-001
      vertex -1.710630e-001  8.570809e-002 -2.119117e-001
      vertex -2.044265e-001  9.465809e-003 -2.548614e-001
    endloop
  endfacet
  facet normal  5.363568e-001  2.237291e-001 -8.137977e-001
    outer loop
      vertex -2.044265e-001  9.465809e-003 -2.548614e-001
      vertex -1.710630e-001  8.570809e-002 -2.119117e-001
      vertex -1.828332e-001  1.958801e-003 -2.426935e-001
    endloop
  endfacet
  facet normal -1.307800e-001 -9.305476e-001 -3.420200e-001
    outer loop
      vertex -2.284853e-001 -5.697525e-004 -2.183578e-001
      vertex -1.840659e-001 -6.812484e-003 -2.183578e-001
      vertex -2.068920e-001 -8.076762e-003 -2.061899e-001
    endloop
  endfacet
  facet normal -1.307799e-001 -9.305476e-001 -3.420202e-001
    outer loop
      vertex -1.840659e-001 -6.812484e-003 -2.183578e-001
      vertex -2.284853e-001 -5.697525e-004 -2.183578e-001
      vertex -1.828332e-001  1.958801e-003 -2.426935e-001
    endloop
  endfacet
  facet normal -1.307799e-001 -9.305476e-001 -3.420201e-001
    outer loop
      vertex -1.828332e-001  1.958801e-003 -2.426935e-001
      vertex -2.284853e-001 -5.697525e-004 -2.183578e-001
      vertex -2.272526e-001  8.201533e-003 -2.426935e-001
    endloop
  endfacet
  facet normal -1.307799e-001 -9.305478e-001 -3.420199e-001
    outer loop
      vertex -1.828332e-001  1.958801e-003 -2.426935e-001
      vertex -2.272526e-001  8.201533e-003 -2.426935e-001
      vertex -2.044265e-001  9.465809e-003 -2.548614e-001
    endloop
  endfacet
  facet normal -1.307802e-001  9.305475e-001  3.420202e-001
    outer loop
      vertex  1.710630e-001  8.570809e-002 -2.119117e-001
      vertex  1.722957e-001  7.693680e-002 -1.875760e-001
      vertex  1.842612e-001  8.109664e-002 -1.943185e-001
    endloop
  endfacet
  facet normal -1.307802e-001  9.305476e-001  3.420202e-001
    outer loop
      vertex  1.710630e-001  8.570809e-002 -2.119117e-001
      vertex  1.842612e-001  8.109664e-002 -1.943185e-001
      vertex  1.837115e-001  8.500752e-002 -2.051692e-001
    endloop
  endfacet
  facet normal -1.307799e-001  9.305478e-001  3.420197e-001
    outer loop
      vertex  1.710630e-001  8.570809e-002 -2.119117e-001
      vertex  1.837115e-001  8.500752e-002 -2.051692e-001
      vertex  1.933394e-001  8.835468e-002 -2.105945e-001
    endloop
  endfacet
  facet normal -1.307799e-001  9.305475e-001  3.420202e-001
    outer loop
      vertex  1.710630e-001  8.570809e-002 -2.119117e-001
      vertex  1.933394e-001  8.835468e-002 -2.105945e-001
      vertex  1.926563e-001  9.321510e-002 -2.240796e-001
    endloop
  endfacet
  facet normal -1.307799e-001  9.305476e-001  3.420203e-001
    outer loop
      vertex  2.154824e-001  9.195082e-002 -2.119117e-001
      vertex  1.926563e-001  9.321510e-002 -2.240796e-001
      vertex  1.933394e-001  8.835468e-002 -2.105945e-001
    endloop
  endfacet
  facet normal -1.307799e-001  9.305477e-001  3.420198e-001
    outer loop
      vertex  2.154824e-001  9.195082e-002 -2.119117e-001
      vertex  1.933394e-001  8.835468e-002 -2.105945e-001
      vertex  2.035169e-001  8.779098e-002 -2.051692e-001
    endloop
  endfacet
  facet normal -1.307796e-001  9.305476e-001  3.420202e-001
    outer loop
      vertex  2.154824e-001  9.195082e-002 -2.119117e-001
      vertex  2.035169e-001  8.779098e-002 -2.051692e-001
      vertex  2.040666e-001  8.388011e-002 -1.943185e-001
    endloop
  endfacet
  facet normal -1.307800e-001  9.305477e-001  3.420200e-001
    outer loop
      vertex  2.154824e-001  9.195082e-002 -2.119117e-001
      vertex  2.040666e-001  8.388011e-002 -1.943185e-001
      vertex  2.167151e-001  8.317954e-002 -1.875760e-001
    endloop
  endfacet
  facet normal -1.307802e-001  9.305475e-001  3.420202e-001
    outer loop
      vertex  2.167151e-001  8.317954e-002 -1.875760e-001
      vertex  2.040666e-001  8.388011e-002 -1.943185e-001
      vertex  1.951218e-001  7.567253e-002 -1.754081e-001
    endloop
  endfacet
  facet normal -1.307794e-001  9.305475e-001  3.420206e-001
    outer loop
      vertex  1.951218e-001  7.567253e-002 -1.754081e-001
      vertex  2.040666e-001  8.388011e-002 -1.943185e-001
      vertex  1.944387e-001  8.053294e-002 -1.888932e-001
    endloop
  endfacet
  facet normal -1.307801e-001  9.305474e-001  3.420206e-001
    outer loop
      vertex  1.951218e-001  7.567253e-002 -1.754081e-001
      vertex  1.944387e-001  8.053294e-002 -1.888932e-001
      vertex  1.722957e-001  7.693680e-002 -1.875760e-001
    endloop
  endfacet
  facet normal -1.307802e-001  9.305474e-001  3.420202e-001
    outer loop
      vertex  1.722957e-001  7.693680e-002 -1.875760e-001
      vertex  1.944387e-001  8.053294e-002 -1.888932e-001
      vertex  1.842612e-001  8.109664e-002 -1.943185e-001
    endloop
  endfacet
  facet normal  1.703056e-001 -9.853913e-001  0.000000e+000
    outer loop
      vertex  1.818633e-001  1.700118e-001 -1.805817e-001
      vertex  1.850798e-001  1.705677e-001 -1.938643e-001
      vertex  1.850798e-001  1.705677e-001 -1.785396e-001
    endloop
  endfacet
  facet normal  1.703059e-001 -9.853913e-001  6.354567e-008
    outer loop
      vertex  1.850798e-001  1.705677e-001 -1.938643e-001
      vertex  1.818633e-001  1.700118e-001 -1.805817e-001
      vertex  1.696875e-001  1.679074e-001 -2.038642e-001
    endloop
  endfacet
  facet normal  1.703057e-001 -9.853913e-001  1.194261e-007
    outer loop
      vertex  1.696875e-001  1.679074e-001 -2.038642e-001
      vertex  1.818633e-001  1.700118e-001 -1.805817e-001
      vertex  1.720044e-001  1.683079e-001 -1.745524e-001
    endloop
  endfacet
  facet normal  1.703072e-001 -9.853911e-001  0.000000e+000
    outer loop
      vertex  1.696875e-001  1.679074e-001 -2.038642e-001
      vertex  1.720044e-001  1.683079e-001 -1.745524e-001
      vertex  1.696875e-001  1.679074e-001 -1.238642e-001
    endloop
  endfacet
  facet normal  1.703072e-001 -9.853910e-001  0.000000e+000
    outer loop
      vertex  1.696875e-001  1.679074e-001 -1.238642e-001
      vertex  1.720044e-001  1.683079e-001 -1.745524e-001
      vertex  1.720044e-001  1.683079e-001 -1.622643e-001
    endloop
  endfacet
  facet normal  1.703058e-001 -9.853913e-001 -8.522109e-008
    outer loop
      vertex  1.696875e-001  1.679074e-001 -1.238642e-001
      vertex  1.720044e-001  1.683079e-001 -1.622643e-001
      vertex  1.850798e-001  1.705677e-001 -1.338643e-001
    endloop
  endfacet
  facet normal  1.703057e-001 -9.853913e-001 -1.185616e-008
    outer loop
      vertex  1.850798e-001  1.705677e-001 -1.338643e-001
      vertex  1.720044e-001  1.683079e-001 -1.622643e-001
      vertex  1.818633e-001  1.700118e-001 -1.560055e-001
    endloop
  endfacet
  facet normal  1.703056e-001 -9.853913e-001  0.000000e+000
    outer loop
      vertex  1.850798e-001  1.705677e-001 -1.338643e-001
      vertex  1.818633e-001  1.700118e-001 -1.560055e-001
      vertex  1.850798e-001  1.705677e-001 -1.579727e-001
    endloop
  endfacet
  facet normal  5.544159e-001 -3.200921e-001  7.682214e-001
    outer loop
      vertex  1.871875e-001  1.982183e-001 -1.238642e-001
      vertex  1.696875e-001  1.679074e-001 -1.238642e-001
      vertex  1.925799e-001  1.835580e-001 -1.338643e-001
    endloop
  endfacet
  facet normal  5.544161e-001 -3.200925e-001  7.682210e-001
    outer loop
      vertex  1.925799e-001  1.835580e-001 -1.338643e-001
      vertex  1.696875e-001  1.679074e-001 -1.238642e-001
      vertex  1.850798e-001  1.705677e-001 -1.338643e-001
    endloop
  endfacet
  facet normal  9.385267e-001  3.452067e-001  0.000000e+000
    outer loop
      vertex  1.871875e-001  1.982183e-001 -1.238642e-001
      vertex  1.925799e-001  1.835580e-001 -1.338643e-001
      vertex  1.871875e-001  1.982183e-001 -2.038642e-001
    endloop
  endfacet
  facet normal  9.385267e-001  3.452067e-001  0.000000e+000
    outer loop
      vertex  1.871875e-001  1.982183e-001 -2.038642e-001
      vertex  1.925799e-001  1.835580e-001 -1.338643e-001
      vertex  1.925799e-001  1.835580e-001 -1.938643e-001
    endloop
  endfacet
  facet normal  5.544161e-001 -3.200922e-001 -7.682212e-001
    outer loop
      vertex  1.696875e-001  1.679074e-001 -2.038642e-001
      vertex  1.871875e-001  1.982183e-001 -2.038642e-001
      vertex  1.850798e-001  1.705677e-001 -1.938643e-001
    endloop
  endfacet
  facet normal  5.544157e-001 -3.200923e-001 -7.682214e-001
    outer loop
      vertex  1.850798e-001  1.705677e-001 -1.938643e-001
      vertex  1.871875e-001  1.982183e-001 -2.038642e-001
      vertex  1.925799e-001  1.835580e-001 -1.938643e-001
    endloop
  endfacet
  facet normal  8.660253e-001 -5.000002e-001  0.000000e+000
    outer loop
      vertex  1.905515e-001  1.800448e-001 -1.589735e-001
      vertex  1.850798e-001  1.705677e-001 -1.338643e-001
      vertex  1.850798e-001  1.705677e-001 -1.579727e-001
    endloop
  endfacet
  facet normal  8.660253e-001 -5.000003e-001 -2.532072e-008
    outer loop
      vertex  1.850798e-001  1.705677e-001 -1.338643e-001
      vertex  1.905515e-001  1.800448e-001 -1.589735e-001
      vertex  1.925799e-001  1.835580e-001 -1.338643e-001
    endloop
  endfacet
  facet normal  8.660251e-001 -5.000004e-001  0.000000e+000
    outer loop
      vertex  1.925799e-001  1.835580e-001 -1.338643e-001
      vertex  1.905515e-001  1.800448e-001 -1.589735e-001
      vertex  1.905515e-001  1.800448e-001 -1.712615e-001
    endloop
  endfacet
  facet normal  8.660252e-001 -5.000004e-001  0.000000e+000
    outer loop
      vertex  1.925799e-001  1.835580e-001 -1.338643e-001
      vertex  1.905515e-001  1.800448e-001 -1.712615e-001
      vertex  1.925799e-001  1.835580e-001 -1.938643e-001
    endloop
  endfacet
  facet normal  8.660251e-001 -5.000002e-001  3.444448e-008
    outer loop
      vertex  1.925799e-001  1.835580e-001 -1.938643e-001
      vertex  1.905515e-001  1.800448e-001 -1.712615e-001
      vertex  1.850798e-001  1.705677e-001 -1.785396e-001
    endloop
  endfacet
  facet normal  8.660252e-001 -5.000002e-001  0.000000e+000
    outer loop
      vertex  1.925799e-001  1.835580e-001 -1.938643e-001
      vertex  1.850798e-001  1.705677e-001 -1.785396e-001
      vertex  1.850798e-001  1.705677e-001 -1.938643e-001
    endloop
  endfacet
  facet normal  4.539123e-001  3.629020e-001 -8.137971e-001
    outer loop
      vertex  1.818633e-001  1.700118e-001 -1.805817e-001
      vertex  1.850798e-001  1.705677e-001 -1.785396e-001
      vertex  1.933394e-001  8.835468e-002 -2.105945e-001
    endloop
  endfacet
  facet normal  4.539122e-001  3.629020e-001 -8.137971e-001
    outer loop
      vertex  1.933394e-001  8.835468e-002 -2.105945e-001
      vertex  1.850798e-001  1.705677e-001 -1.785396e-001
      vertex  1.905515e-001  1.800448e-001 -1.712615e-001
    endloop
  endfacet
  facet normal  4.539113e-001  3.629021e-001 -8.137977e-001
    outer loop
      vertex  1.933394e-001  8.835468e-002 -2.105945e-001
      vertex  1.905515e-001  1.800448e-001 -1.712615e-001
      vertex  2.035169e-001  8.779098e-002 -2.051692e-001
    endloop
  endfacet
  facet normal -5.363569e-001  2.237290e-001 -8.137977e-001
    outer loop
      vertex  1.818633e-001  1.700118e-001 -1.805817e-001
      vertex  1.933394e-001  8.835468e-002 -2.105945e-001
      vertex  1.720044e-001  1.683079e-001 -1.745524e-001
    endloop
  endfacet
  facet normal -5.363570e-001  2.237289e-001 -8.137977e-001
    outer loop
      vertex  1.720044e-001  1.683079e-001 -1.745524e-001
      vertex  1.933394e-001  8.835468e-002 -2.105945e-001
      vertex  1.837115e-001  8.500752e-002 -2.051692e-001
    endloop
  endfacet
  facet normal -9.902680e-001 -1.391730e-001  0.000000e+000
    outer loop
      vertex  1.720044e-001  1.683079e-001 -1.622643e-001
      vertex  1.720044e-001  1.683079e-001 -1.745524e-001
      vertex  1.842612e-001  8.109664e-002 -1.943185e-001
    endloop
  endfacet
  facet normal -9.902681e-001 -1.391730e-001 -2.583336e-008
    outer loop
      vertex  1.842612e-001  8.109664e-002 -1.943185e-001
      vertex  1.720044e-001  1.683079e-001 -1.745524e-001
      vertex  1.837115e-001  8.500752e-002 -2.051692e-001
    endloop
  endfacet
  facet normal -4.539114e-001 -3.629020e-001  8.137976e-001
    outer loop
      vertex  1.720044e-001  1.683079e-001 -1.622643e-001
      vertex  1.842612e-001  8.109664e-002 -1.943185e-001
      vertex  1.818633e-001  1.700118e-001 -1.560055e-001
    endloop
  endfacet
  facet normal -4.539114e-001 -3.629021e-001  8.137977e-001
    outer loop
      vertex  1.818633e-001  1.700118e-001 -1.560055e-001
      vertex  1.842612e-001  8.109664e-002 -1.943185e-001
      vertex  1.944387e-001  8.053294e-002 -1.888932e-001
    endloop
  endfacet
  facet normal  5.363572e-001 -2.237289e-001  8.137974e-001
    outer loop
      vertex  1.818633e-001  1.700118e-001 -1.560055e-001
      vertex  1.944387e-001  8.053294e-002 -1.888932e-001
      vertex  1.850798e-001  1.705677e-001 -1.579727e-001
    endloop
  endfacet
  facet normal  5.363570e-001 -2.237289e-001  8.137976e-001
    outer loop
      vertex  1.850798e-001  1.705677e-001 -1.579727e-001
      vertex  1.944387e-001  8.053294e-002 -1.888932e-001
      vertex  2.040666e-001  8.388011e-002 -1.943185e-001
    endloop
  endfacet
  facet normal  5.363564e-001 -2.237293e-001  8.137980e-001
    outer loop
      vertex  1.850798e-001  1.705677e-001 -1.579727e-001
      vertex  2.040666e-001  8.388011e-002 -1.943185e-001
      vertex  1.905515e-001  1.800448e-001 -1.589735e-001
    endloop
  endfacet
  facet normal  9.902681e-001  1.391732e-001  0.000000e+000
    outer loop
      vertex  2.035169e-001  8.779098e-002 -2.051692e-001
      vertex  1.905515e-001  1.800448e-001 -1.712615e-001
      vertex  2.040666e-001  8.388011e-002 -1.943185e-001
    endloop
  endfacet
  facet normal  9.902681e-001  1.391732e-001  0.000000e+000
    outer loop
      vertex  2.040666e-001  8.388011e-002 -1.943185e-001
      vertex  1.905515e-001  1.800448e-001 -1.712615e-001
      vertex  1.905515e-001  1.800448e-001 -1.589735e-001
    endloop
  endfacet
  facet normal -8.660254e-001  4.999999e-001  0.000000e+000
    outer loop
      vertex  1.871875e-001  1.982183e-001 -2.038642e-001
      vertex  1.696875e-001  1.679074e-001 -2.038642e-001
      vertex  1.871875e-001  1.982183e-001 -1.238642e-001
    endloop
  endfacet
  facet normal -8.660254e-001  4.999999e-001  0.000000e+000
    outer loop
      vertex  1.871875e-001  1.982183e-001 -1.238642e-001
      vertex  1.696875e-001  1.679074e-001 -2.038642e-001
      vertex  1.696875e-001  1.679074e-001 -1.238642e-001
    endloop
  endfacet
  facet normal -9.902680e-001 -1.391731e-001  1.374796e-007
    outer loop
      vertex  1.722957e-001  7.693680e-002 -1.875760e-001
      vertex  1.710630e-001  8.570809e-002 -2.119117e-001
      vertex  1.840659e-001 -6.812484e-003 -2.183578e-001
    endloop
  endfacet
  facet normal -9.902680e-001 -1.391731e-001  1.440262e-007
    outer loop
      vertex  1.840659e-001 -6.812484e-003 -2.183578e-001
      vertex  1.710630e-001  8.570809e-002 -2.119117e-001
      vertex  1.828332e-001  1.958801e-003 -2.426935e-001
    endloop
  endfacet
  facet normal -4.539110e-001 -3.629021e-001  8.137978e-001
    outer loop
      vertex  1.722957e-001  7.693680e-002 -1.875760e-001
      vertex  1.840659e-001 -6.812484e-003 -2.183578e-001
      vertex  1.951218e-001  7.567253e-002 -1.754081e-001
    endloop
  endfacet
  facet normal -4.539115e-001 -3.629020e-001  8.137977e-001
    outer loop
      vertex  1.951218e-001  7.567253e-002 -1.754081e-001
      vertex  1.840659e-001 -6.812484e-003 -2.183578e-001
      vertex  2.068920e-001 -8.076762e-003 -2.061899e-001
    endloop
  endfacet
  facet normal  5.363567e-001 -2.237290e-001  8.137978e-001
    outer loop
      vertex  1.951218e-001  7.567253e-002 -1.754081e-001
      vertex  2.068920e-001 -8.076762e-003 -2.061899e-001
      vertex  2.167151e-001  8.317954e-002 -1.875760e-001
    endloop
  endfacet
  facet normal  5.363571e-001 -2.237290e-001  8.137975e-001
    outer loop
      vertex  2.167151e-001  8.317954e-002 -1.875760e-001
      vertex  2.068920e-001 -8.076762e-003 -2.061899e-001
      vertex  2.284853e-001 -5.697525e-004 -2.183578e-001
    endloop
  endfacet
  facet normal  9.902680e-001  1.391730e-001  4.713585e-007
    outer loop
      vertex  2.272526e-001  8.201533e-003 -2.426935e-001
      vertex  2.154824e-001  9.195082e-002 -2.119117e-001
      vertex  2.284853e-001 -5.697525e-004 -2.183578e-001
    endloop
  endfacet
  facet normal  9.902680e-001  1.391731e-001 -2.094927e-007
    outer loop
      vertex  2.284853e-001 -5.697525e-004 -2.183578e-001
      vertex  2.154824e-001  9.195082e-002 -2.119117e-001
      vertex  2.167151e-001  8.317954e-002 -1.875760e-001
    endloop
  endfacet
  facet normal  4.539115e-001  3.629021e-001 -8.137975e-001
    outer loop
      vertex  2.154824e-001  9.195082e-002 -2.119117e-001
      vertex  2.272526e-001  8.201533e-003 -2.426935e-001
      vertex  1.926563e-001  9.321510e-002 -2.240796e-001
    endloop
  endfacet
  facet normal  4.539115e-001  3.629021e-001 -8.137975e-001
    outer loop
      vertex  1.926563e-001  9.321510e-002 -2.240796e-001
      vertex  2.272526e-001  8.201533e-003 -2.426935e-001
      vertex  2.044265e-001  9.465809e-003 -2.548614e-001
    endloop
  endfacet
  facet normal -5.363570e-001  2.237289e-001 -8.137976e-001
    outer loop
      vertex  1.926563e-001  9.321510e-002 -2.240796e-001
      vertex  2.044265e-001  9.465809e-003 -2.548614e-001
      vertex  1.710630e-001  8.570809e-002 -2.119117e-001
    endloop
  endfacet
  facet normal -5.363567e-001  2.237291e-001 -8.137977e-001
    outer loop
      vertex  1.710630e-001  8.570809e-002 -2.119117e-001
      vertex  2.044265e-001  9.465809e-003 -2.548614e-001
      vertex  1.828332e-001  1.958801e-003 -2.426935e-001
    endloop
  endfacet
  facet normal  1.307800e-001 -9.305476e-001 -3.420200e-001
    outer loop
      vertex  2.068920e-001 -8.076762e-003 -2.061899e-001
      vertex  1.840659e-001 -6.812484e-003 -2.183578e-001
      vertex  2.284853e-001 -5.697525e-004 -2.183578e-001
    endloop
  endfacet
  facet normal  1.307799e-001 -9.305478e-001 -3.420199e-001
    outer loop
      vertex  2.044265e-001  9.465809e-003 -2.548614e-001
      vertex  2.272526e-001  8.201533e-003 -2.426935e-001
      vertex  1.828332e-001  1.958801e-003 -2.426935e-001
    endloop
  endfacet
  facet normal  1.307799e-001 -9.305476e-001 -3.420201e-001
    outer loop
      vertex  1.828332e-001  1.958801e-003 -2.426935e-001
      vertex  2.272526e-001  8.201533e-003 -2.426935e-001
      vertex  2.284853e-001 -5.697525e-004 -2.183578e-001
    endloop
  endfacet
  facet normal  1.307799e-001 -9.305476e-001 -3.420202e-001
    outer loop
      vertex  1.828332e-001  1.958801e-003 -2.426935e-001
      vertex  2.284853e-001 -5.697525e-004 -2.183578e-001
      vertex  1.840659e-001 -6.812484e-003 -2.183578e-001
    endloop
  endfacet
  facet normal  1.307802e-001  9.305475e-001 -3.420202e-001
    outer loop
      vertex -1.710630e-001  8.570809e-002  2.119117e-001
      vertex -1.722957e-001  7.693680e-002  1.875760e-001
      vertex -1.842612e-001  8.109664e-002  1.943185e-001
    endloop
  endfacet
  facet normal  1.307802e-001  9.305476e-001 -3.420202e-001
    outer loop
      vertex -1.710630e-001  8.570809e-002  2.119117e-001
      vertex -1.842612e-001  8.109664e-002  1.943185e-001
      vertex -1.837115e-001  8.500752e-002  2.051692e-001
    endloop
  endfacet
  facet normal  1.307799e-001  9.305478e-001 -3.420197e-001
    outer loop
      vertex -1.710630e-001  8.570809e-002  2.119117e-001
      vertex -1.837115e-001  8.500752e-002  2.051692e-001
      vertex -1.933394e-001  8.835468e-002  2.105945e-001
    endloop
  endfacet
  facet normal  1.307799e-001  9.305475e-001 -3.420202e-001
    outer loop
      vertex -1.710630e-001  8.570809e-002  2.119117e-001
      vertex -1.933394e-001  8.835468e-002  2.105945e-001
      vertex -1.926563e-001  9.321510e-002  2.240796e-001
    endloop
  endfacet
  facet normal  1.307799e-001  9.305476e-001 -3.420203e-001
    outer loop
      vertex -2.154824e-001  9.195082e-002  2.119117e-001
      vertex -1.926563e-001  9.321510e-002  2.240796e-001
      vertex -1.933394e-001  8.835468e-002  2.105945e-001
    endloop
  endfacet
  facet normal  1.307799e-001  9.305477e-001 -3.420198e-001
    outer loop
      vertex -2.154824e-001  9.195082e-002  2.119117e-001
      vertex -1.933394e-001  8.835468e-002  2.105945e-001
      vertex -2.035169e-001  8.779098e-002  2.051692e-001
    endloop
  endfacet
  facet normal  1.307796e-001  9.305476e-001 -3.420202e-001
    outer loop
      vertex -2.154824e-001  9.195082e-002  2.119117e-001
      vertex -2.035169e-001  8.779098e-002  2.051692e-001
      vertex -2.040666e-001  8.388011e-002  1.943185e-001
    endloop
  endfacet
  facet normal  1.307800e-001  9.305477e-001 -3.420200e-001
    outer loop
      vertex -2.154824e-001  9.195082e-002  2.119117e-001
      vertex -2.040666e-001  8.388011e-002  1.943185e-001
      vertex -2.167151e-001  8.317954e-002  1.875760e-001
    endloop
  endfacet
  facet normal  1.307802e-001  9.305475e-001 -3.420202e-001
    outer loop
      vertex -2.167151e-001  8.317954e-002  1.875760e-001
      vertex -2.040666e-001  8.388011e-002  1.943185e-001
      vertex -1.951218e-001  7.567253e-002  1.754081e-001
    endloop
  endfacet
  facet normal  1.307794e-001  9.305475e-001 -3.420206e-001
    outer loop
      vertex -1.951218e-001  7.567253e-002  1.754081e-001
      vertex -2.040666e-001  8.388011e-002  1.943185e-001
      vertex -1.944387e-001  8.053294e-002  1.888932e-001
    endloop
  endfacet
  facet normal  1.307801e-001  9.305474e-001 -3.420206e-001
    outer loop
      vertex -1.951218e-001  7.567253e-002  1.754081e-001
      vertex -1.944387e-001  8.053294e-002  1.888932e-001
      vertex -1.722957e-001  7.693680e-002  1.875760e-001
    endloop
  endfacet
  facet normal  1.307802e-001  9.305474e-001 -3.420202e-001
    outer loop
      vertex -1.722957e-001  7.693680e-002  1.875760e-001
      vertex -1.944387e-001  8.053294e-002  1.888932e-001
      vertex -1.842612e-001  8.109664e-002  1.943185e-001
    endloop
  endfacet
  facet normal -1.703056e-001 -9.853913e-001  0.000000e+000
    outer loop
      vertex -1.850798e-001  1.705677e-001  1.338643e-001
      vertex -1.818633e-001  1.700118e-001  1.560055e-001
      vertex -1.850798e-001  1.705677e-001  1.579727e-001
    endloop
  endfacet
  facet normal -1.703056e-001 -9.853913e-001  0.000000e+000
    outer loop
      vertex -1.850798e-001  1.705677e-001  1.785396e-001
      vertex -1.818633e-001  1.700118e-001  1.805817e-001
      vertex -1.850798e-001  1.705677e-001  1.938643e-001
    endloop
  endfacet
  facet normal -1.703057e-001 -9.853913e-001 -2.105975e-008
    outer loop
      vertex -1.850798e-001  1.705677e-001  1.938643e-001
      vertex -1.818633e-001  1.700118e-001  1.805817e-001
      vertex -1.720044e-001  1.683079e-001  1.745524e-001
    endloop
  endfacet
  facet normal -1.703058e-001 -9.853913e-001 -1.130743e-007
    outer loop
      vertex -1.850798e-001  1.705677e-001  1.938643e-001
      vertex -1.720044e-001  1.683079e-001  1.745524e-001
      vertex -1.696875e-001  1.679074e-001  2.038642e-001
    endloop
  endfacet
  facet normal -1.703072e-001 -9.853910e-001  0.000000e+000
    outer loop
      vertex -1.696875e-001  1.679074e-001  2.038642e-001
      vertex -1.720044e-001  1.683079e-001  1.745524e-001
      vertex -1.720044e-001  1.683079e-001  1.622643e-001
    endloop
  endfacet
  facet normal -1.703072e-001 -9.853911e-001  0.000000e+000
    outer loop
      vertex -1.696875e-001  1.679074e-001  2.038642e-001
      vertex -1.720044e-001  1.683079e-001  1.622643e-001
      vertex -1.696875e-001  1.679074e-001  1.238642e-001
    endloop
  endfacet
  facet normal -1.703057e-001 -9.853914e-001  9.204257e-008
    outer loop
      vertex -1.696875e-001  1.679074e-001  1.238642e-001
      vertex -1.720044e-001  1.683079e-001  1.622643e-001
      vertex -1.818633e-001  1.700118e-001  1.560055e-001
    endloop
  endfacet
  facet normal -1.703059e-001 -9.853913e-001  4.031378e-008
    outer loop
      vertex -1.696875e-001  1.679074e-001  1.238642e-001
      vertex -1.818633e-001  1.700118e-001  1.560055e-001
      vertex -1.850798e-001  1.705677e-001  1.338643e-001
    endloop
  endfacet
  facet normal -5.544159e-001 -3.200921e-001 -7.682214e-001
    outer loop
      vertex -1.871875e-001  1.982183e-001  1.238642e-001
      vertex -1.696875e-001  1.679074e-001  1.238642e-001
      vertex -1.925799e-001  1.835580e-001  1.338643e-001
    endloop
  endfacet
  facet normal -5.544161e-001 -3.200925e-001 -7.682210e-001
    outer loop
      vertex -1.925799e-001  1.835580e-001  1.338643e-001
      vertex -1.696875e-001  1.679074e-001  1.238642e-001
      vertex -1.850798e-001  1.705677e-001  1.338643e-001
    endloop
  endfacet
  facet normal -9.385267e-001  3.452067e-001  0.000000e+000
    outer loop
      vertex -1.871875e-001  1.982183e-001  2.038642e-001
      vertex -1.871875e-001  1.982183e-001  1.238642e-001
      vertex -1.925799e-001  1.835580e-001  1.938643e-001
    endloop
  endfacet
  facet normal -9.385267e-001  3.452067e-001  0.000000e+000
    outer loop
      vertex -1.925799e-001  1.835580e-001  1.938643e-001
      vertex -1.871875e-001  1.982183e-001  1.238642e-001
      vertex -1.925799e-001  1.835580e-001  1.338643e-001
    endloop
  endfacet
  facet normal -5.544161e-001 -3.200922e-001  7.682212e-001
    outer loop
      vertex -1.696875e-001  1.679074e-001  2.038642e-001
      vertex -1.871875e-001  1.982183e-001  2.038642e-001
      vertex -1.850798e-001  1.705677e-001  1.938643e-001
    endloop
  endfacet
  facet normal -5.544157e-001 -3.200923e-001  7.682214e-001
    outer loop
      vertex -1.850798e-001  1.705677e-001  1.938643e-001
      vertex -1.871875e-001  1.982183e-001  2.038642e-001
      vertex -1.925799e-001  1.835580e-001  1.938643e-001
    endloop
  endfacet
  facet normal -8.660253e-001 -5.000002e-001  -0.000000e+000
    outer loop
      vertex -1.850798e-001  1.705677e-001  1.338643e-001
      vertex -1.850798e-001  1.705677e-001  1.579727e-001
      vertex -1.925799e-001  1.835580e-001  1.338643e-001
    endloop
  endfacet
  facet normal -8.660253e-001 -5.000002e-001  3.420191e-008
    outer loop
      vertex -1.925799e-001  1.835580e-001  1.338643e-001
      vertex -1.850798e-001  1.705677e-001  1.579727e-001
      vertex -1.905515e-001  1.800448e-001  1.589735e-001
    endloop
  endfacet
  facet normal -8.660252e-001 -5.000004e-001  0.000000e+000
    outer loop
      vertex -1.925799e-001  1.835580e-001  1.338643e-001
      vertex -1.905515e-001  1.800448e-001  1.589735e-001
      vertex -1.925799e-001  1.835580e-001  1.938643e-001
    endloop
  endfacet
  facet normal -8.660251e-001 -5.000004e-001  0.000000e+000
    outer loop
      vertex -1.925799e-001  1.835580e-001  1.938643e-001
      vertex -1.905515e-001  1.800448e-001  1.589735e-001
      vertex -1.905515e-001  1.800448e-001  1.712615e-001
    endloop
  endfacet
  facet normal -8.660253e-001 -5.000003e-001 -2.812861e-008
    outer loop
      vertex -1.925799e-001  1.835580e-001  1.938643e-001
      vertex -1.905515e-001  1.800448e-001  1.712615e-001
      vertex -1.850798e-001  1.705677e-001  1.938643e-001
    endloop
  endfacet
  facet normal -8.660253e-001 -5.000002e-001  -0.000000e+000
    outer loop
      vertex -1.850798e-001  1.705677e-001  1.938643e-001
      vertex -1.905515e-001  1.800448e-001  1.712615e-001
      vertex -1.850798e-001  1.705677e-001  1.785396e-001
    endloop
  endfacet
  facet normal -4.539123e-001  3.629020e-001  8.137971e-001
    outer loop
      vertex -1.818633e-001  1.700118e-001  1.805817e-001
      vertex -1.850798e-001  1.705677e-001  1.785396e-001
      vertex -1.933394e-001  8.835468e-002  2.105945e-001
    endloop
  endfacet
  facet normal -4.539122e-001  3.629020e-001  8.137971e-001
    outer loop
      vertex -1.933394e-001  8.835468e-002  2.105945e-001
      vertex -1.850798e-001  1.705677e-001  1.785396e-001
      vertex -1.905515e-001  1.800448e-001  1.712615e-001
    endloop
  endfacet
  facet normal -4.539113e-001  3.629021e-001  8.137977e-001
    outer loop
      vertex -1.933394e-001  8.835468e-002  2.105945e-001
      vertex -1.905515e-001  1.800448e-001  1.712615e-001
      vertex -2.035169e-001  8.779098e-002  2.051692e-001
    endloop
  endfacet
  facet normal  5.363569e-001  2.237290e-001  8.137977e-001
    outer loop
      vertex -1.818633e-001  1.700118e-001  1.805817e-001
      vertex -1.933394e-001  8.835468e-002  2.105945e-001
      vertex -1.720044e-001  1.683079e-001  1.745524e-001
    endloop
  endfacet
  facet normal  5.363570e-001  2.237289e-001  8.137977e-001
    outer loop
      vertex -1.720044e-001  1.683079e-001  1.745524e-001
      vertex -1.933394e-001  8.835468e-002  2.105945e-001
      vertex -1.837115e-001  8.500752e-002  2.051692e-001
    endloop
  endfacet
  facet normal  9.902680e-001 -1.391730e-001  0.000000e+000
    outer loop
      vertex -1.720044e-001  1.683079e-001  1.745524e-001
      vertex -1.837115e-001  8.500752e-002  2.051692e-001
      vertex -1.720044e-001  1.683079e-001  1.622643e-001
    endloop
  endfacet
  facet normal  9.902681e-001 -1.391730e-001  0.000000e+000
    outer loop
      vertex -1.720044e-001  1.683079e-001  1.622643e-001
      vertex -1.837115e-001  8.500752e-002  2.051692e-001
      vertex -1.842612e-001  8.109664e-002  1.943185e-001
    endloop
  endfacet
  facet normal  4.539114e-001 -3.629020e-001 -8.137976e-001
    outer loop
      vertex -1.720044e-001  1.683079e-001  1.622643e-001
      vertex -1.842612e-001  8.109664e-002  1.943185e-001
      vertex -1.818633e-001  1.700118e-001  1.560055e-001
    endloop
  endfacet
  facet normal  4.539114e-001 -3.629021e-001 -8.137977e-001
    outer loop
      vertex -1.818633e-001  1.700118e-001  1.560055e-001
      vertex -1.842612e-001  8.109664e-002  1.943185e-001
      vertex -1.944387e-001  8.053294e-002  1.888932e-001
    endloop
  endfacet
  facet normal -5.363572e-001 -2.237289e-001 -8.137974e-001
    outer loop
      vertex -1.818633e-001  1.700118e-001  1.560055e-001
      vertex -1.944387e-001  8.053294e-002  1.888932e-001
      vertex -1.850798e-001  1.705677e-001  1.579727e-001
    endloop
  endfacet
  facet normal -5.363570e-001 -2.237289e-001 -8.137976e-001
    outer loop
      vertex -1.850798e-001  1.705677e-001  1.579727e-001
      vertex -1.944387e-001  8.053294e-002  1.888932e-001
      vertex -2.040666e-001  8.388011e-002  1.943185e-001
    endloop
  endfacet
  facet normal -5.363564e-001 -2.237293e-001 -8.137980e-001
    outer loop
      vertex -1.850798e-001  1.705677e-001  1.579727e-001
      vertex -2.040666e-001  8.388011e-002  1.943185e-001
      vertex -1.905515e-001  1.800448e-001  1.589735e-001
    endloop
  endfacet
  facet normal -9.902681e-001  1.391732e-001  0.000000e+000
    outer loop
      vertex -1.905515e-001  1.800448e-001  1.589735e-001
      vertex -2.040666e-001  8.388011e-002  1.943185e-001
      vertex -1.905515e-001  1.800448e-001  1.712615e-001
    endloop
  endfacet
  facet normal -9.902681e-001  1.391732e-001  0.000000e+000
    outer loop
      vertex -1.905515e-001  1.800448e-001  1.712615e-001
      vertex -2.040666e-001  8.388011e-002  1.943185e-001
      vertex -2.035169e-001  8.779098e-002  2.051692e-001
    endloop
  endfacet
  facet normal  8.660254e-001  4.999999e-001  0.000000e+000
    outer loop
      vertex -1.871875e-001  1.982183e-001  1.238642e-001
      vertex -1.871875e-001  1.982183e-001  2.038642e-001
      vertex -1.696875e-001  1.679074e-001  1.238642e-001
    endloop
  endfacet
  facet normal  8.660254e-001  4.999999e-001  -0.000000e+000
    outer loop
      vertex -1.696875e-001  1.679074e-001  1.238642e-001
      vertex -1.871875e-001  1.982183e-001  2.038642e-001
      vertex -1.696875e-001  1.679074e-001  2.038642e-001
    endloop
  endfacet
  facet normal  9.902681e-001 -1.391731e-001 -1.309329e-007
    outer loop
      vertex -1.710630e-001  8.570809e-002  2.119117e-001
      vertex -1.828332e-001  1.958801e-003  2.426935e-001
      vertex -1.722957e-001  7.693680e-002  1.875760e-001
    endloop
  endfacet
  facet normal  9.902681e-001 -1.391731e-001 -1.309329e-007
    outer loop
      vertex -1.722957e-001  7.693680e-002  1.875760e-001
      vertex -1.828332e-001  1.958801e-003  2.426935e-001
      vertex -1.840659e-001 -6.812484e-003  2.183578e-001
    endloop
  endfacet
  facet normal  4.539110e-001 -3.629021e-001 -8.137978e-001
    outer loop
      vertex -1.722957e-001  7.693680e-002  1.875760e-001
      vertex -1.840659e-001 -6.812484e-003  2.183578e-001
      vertex -1.951218e-001  7.567253e-002  1.754081e-001
    endloop
  endfacet
  facet normal  4.539115e-001 -3.629020e-001 -8.137977e-001
    outer loop
      vertex -1.951218e-001  7.567253e-002  1.754081e-001
      vertex -1.840659e-001 -6.812484e-003  2.183578e-001
      vertex -2.068920e-001 -8.076762e-003  2.061899e-001
    endloop
  endfacet
  facet normal -5.363567e-001 -2.237290e-001 -8.137978e-001
    outer loop
      vertex -1.951218e-001  7.567253e-002  1.754081e-001
      vertex -2.068920e-001 -8.076762e-003  2.061899e-001
      vertex -2.167151e-001  8.317954e-002  1.875760e-001
    endloop
  endfacet
  facet normal -5.363571e-001 -2.237290e-001 -8.137975e-001
    outer loop
      vertex -2.167151e-001  8.317954e-002  1.875760e-001
      vertex -2.068920e-001 -8.076762e-003  2.061899e-001
      vertex -2.284853e-001 -5.697525e-004  2.183578e-001
    endloop
  endfacet
  facet normal -9.902680e-001  1.391731e-001  2.094927e-007
    outer loop
      vertex -2.167151e-001  8.317954e-002  1.875760e-001
      vertex -2.284853e-001 -5.697525e-004  2.183578e-001
      vertex -2.154824e-001  9.195082e-002  2.119117e-001
    endloop
  endfacet
  facet normal -9.902680e-001  1.391730e-001 -4.713585e-007
    outer loop
      vertex -2.154824e-001  9.195082e-002  2.119117e-001
      vertex -2.284853e-001 -5.697525e-004  2.183578e-001
      vertex -2.272526e-001  8.201533e-003  2.426935e-001
    endloop
  endfacet
  facet normal -4.539115e-001  3.629021e-001  8.137975e-001
    outer loop
      vertex -2.154824e-001  9.195082e-002  2.119117e-001
      vertex -2.272526e-001  8.201533e-003  2.426935e-001
      vertex -1.926563e-001  9.321510e-002  2.240796e-001
    endloop
  endfacet
  facet normal -4.539115e-001  3.629021e-001  8.137975e-001
    outer loop
      vertex -1.926563e-001  9.321510e-002  2.240796e-001
      vertex -2.272526e-001  8.201533e-003  2.426935e-001
      vertex -2.044265e-001  9.465809e-003  2.548614e-001
    endloop
  endfacet
  facet normal  5.363570e-001  2.237289e-001  8.137976e-001
    outer loop
      vertex -1.926563e-001  9.321510e-002  2.240796e-001
      vertex -2.044265e-001  9.465809e-003  2.548614e-001
      vertex -1.710630e-001  8.570809e-002  2.119117e-001
    endloop
  endfacet
  facet normal  5.363567e-001  2.237291e-001  8.137977e-001
    outer loop
      vertex -1.710630e-001  8.570809e-002  2.119117e-001
      vertex -2.044265e-001  9.465809e-003  2.548614e-001
      vertex -1.828332e-001  1.958801e-003  2.426935e-001
    endloop
  endfacet
  facet normal -1.307800e-001 -9.305476e-001  3.420200e-001
    outer loop
      vertex -2.068920e-001 -8.076762e-003  2.061899e-001
      vertex -1.840659e-001 -6.812484e-003  2.183578e-001
      vertex -2.284853e-001 -5.697525e-004  2.183578e-001
    endloop
  endfacet
  facet normal -1.307799e-001 -9.305478e-001  3.420199e-001
    outer loop
      vertex -2.044265e-001  9.465809e-003  2.548614e-001
      vertex -2.272526e-001  8.201533e-003  2.426935e-001
      vertex -1.828332e-001  1.958801e-003  2.426935e-001
    endloop
  endfacet
  facet normal -1.307799e-001 -9.305476e-001  3.420201e-001
    outer loop
      vertex -1.828332e-001  1.958801e-003  2.426935e-001
      vertex -2.272526e-001  8.201533e-003  2.426935e-001
      vertex -2.284853e-001 -5.697525e-004  2.183578e-001
    endloop
  endfacet
  facet normal -1.307799e-001 -9.305476e-001  3.420202e-001
    outer loop
      vertex -1.828332e-001  1.958801e-003  2.426935e-001
      vertex -2.284853e-001 -5.697525e-004  2.183578e-001
      vertex -1.840659e-001 -6.812484e-003  2.183578e-001
    endloop
  endfacet
  facet normal -1.307799e-001  9.305475e-001 -3.420202e-001
    outer loop
      vertex  1.710630e-001  8.570809e-002  2.119117e-001
      vertex  1.926563e-001  9.321510e-002  2.240796e-001
      vertex  1.933394e-001  8.835468e-002  2.105945e-001
    endloop
  endfacet
  facet normal -1.307799e-001  9.305478e-001 -3.420197e-001
    outer loop
      vertex  1.710630e-001  8.570809e-002  2.119117e-001
      vertex  1.933394e-001  8.835468e-002  2.105945e-001
      vertex  1.837115e-001  8.500752e-002  2.051692e-001
    endloop
  endfacet
  facet normal -1.307802e-001  9.305476e-001 -3.420202e-001
    outer loop
      vertex  1.710630e-001  8.570809e-002  2.119117e-001
      vertex  1.837115e-001  8.500752e-002  2.051692e-001
      vertex  1.842612e-001  8.109664e-002  1.943185e-001
    endloop
  endfacet
  facet normal -1.307802e-001  9.305475e-001 -3.420202e-001
    outer loop
      vertex  1.710630e-001  8.570809e-002  2.119117e-001
      vertex  1.842612e-001  8.109664e-002  1.943185e-001
      vertex  1.722957e-001  7.693680e-002  1.875760e-001
    endloop
  endfacet
  facet normal -1.307800e-001  9.305477e-001 -3.420200e-001
    outer loop
      vertex  2.154824e-001  9.195082e-002  2.119117e-001
      vertex  2.167151e-001  8.317954e-002  1.875760e-001
      vertex  2.040666e-001  8.388011e-002  1.943185e-001
    endloop
  endfacet
  facet normal -1.307797e-001  9.305476e-001 -3.420202e-001
    outer loop
      vertex  2.154824e-001  9.195082e-002  2.119117e-001
      vertex  2.040666e-001  8.388011e-002  1.943185e-001
      vertex  2.035169e-001  8.779098e-002  2.051692e-001
    endloop
  endfacet
  facet normal -1.307799e-001  9.305477e-001 -3.420198e-001
    outer loop
      vertex  2.154824e-001  9.195082e-002  2.119117e-001
      vertex  2.035169e-001  8.779098e-002  2.051692e-001
      vertex  1.933394e-001  8.835468e-002  2.105945e-001
    endloop
  endfacet
  facet normal -1.307799e-001  9.305476e-001 -3.420203e-001
    outer loop
      vertex  2.154824e-001  9.195082e-002  2.119117e-001
      vertex  1.933394e-001  8.835468e-002  2.105945e-001
      vertex  1.926563e-001  9.321510e-002  2.240796e-001
    endloop
  endfacet
  facet normal -1.307802e-001  9.305475e-001 -3.420202e-001
    outer loop
      vertex  2.167151e-001  8.317954e-002  1.875760e-001
      vertex  1.951218e-001  7.567253e-002  1.754081e-001
      vertex  2.040666e-001  8.388011e-002  1.943185e-001
    endloop
  endfacet
  facet normal -1.307794e-001  9.305475e-001 -3.420206e-001
    outer loop
      vertex  2.040666e-001  8.388011e-002  1.943185e-001
      vertex  1.951218e-001  7.567253e-002  1.754081e-001
      vertex  1.944387e-001  8.053294e-002  1.888932e-001
    endloop
  endfacet
  facet normal -1.307801e-001  9.305474e-001 -3.420206e-001
    outer loop
      vertex  1.951218e-001  7.567253e-002  1.754081e-001
      vertex  1.722957e-001  7.693680e-002  1.875760e-001
      vertex  1.944387e-001  8.053294e-002  1.888932e-001
    endloop
  endfacet
  facet normal -1.307802e-001  9.305475e-001 -3.420202e-001
    outer loop
      vertex  1.944387e-001  8.053294e-002  1.888932e-001
      vertex  1.722957e-001  7.693680e-002  1.875760e-001
      vertex  1.842612e-001  8.109664e-002  1.943185e-001
    endloop
  endfacet
  facet normal  8.660253e-001 -5.000002e-001  0.000000e+000
    outer loop
      vertex  1.925799e-001  1.835580e-001  1.338643e-001
      vertex  1.850798e-001  1.705677e-001  1.579727e-001
      vertex  1.850798e-001  1.705677e-001  1.338643e-001
    endloop
  endfacet
  facet normal  8.660253e-001 -5.000002e-001  3.420191e-008
    outer loop
      vertex  1.850798e-001  1.705677e-001  1.579727e-001
      vertex  1.925799e-001  1.835580e-001  1.338643e-001
      vertex  1.905515e-001  1.800448e-001  1.589735e-001
    endloop
  endfacet
  facet normal  8.660252e-001 -5.000004e-001  0.000000e+000
    outer loop
      vertex  1.905515e-001  1.800448e-001  1.589735e-001
      vertex  1.925799e-001  1.835580e-001  1.338643e-001
      vertex  1.925799e-001  1.835580e-001  1.938643e-001
    endloop
  endfacet
  facet normal  8.660251e-001 -5.000004e-001  0.000000e+000
    outer loop
      vertex  1.905515e-001  1.800448e-001  1.589735e-001
      vertex  1.925799e-001  1.835580e-001  1.938643e-001
      vertex  1.905515e-001  1.800448e-001  1.712615e-001
    endloop
  endfacet
  facet normal  8.660253e-001 -5.000003e-001 -2.812861e-008
    outer loop
      vertex  1.905515e-001  1.800448e-001  1.712615e-001
      vertex  1.925799e-001  1.835580e-001  1.938643e-001
      vertex  1.850798e-001  1.705677e-001  1.938643e-001
    endloop
  endfacet
  facet normal  8.660253e-001 -5.000002e-001  0.000000e+000
    outer loop
      vertex  1.905515e-001  1.800448e-001  1.712615e-001
      vertex  1.850798e-001  1.705677e-001  1.938643e-001
      vertex  1.850798e-001  1.705677e-001  1.785396e-001
    endloop
  endfacet
  facet normal  4.539113e-001  3.629021e-001  8.137977e-001
    outer loop
      vertex  2.035169e-001  8.779098e-002  2.051692e-001
      vertex  1.905515e-001  1.800448e-001  1.712615e-001
      vertex  1.933394e-001  8.835468e-002  2.105945e-001
    endloop
  endfacet
  facet normal  4.539122e-001  3.629020e-001  8.137971e-001
    outer loop
      vertex  1.933394e-001  8.835468e-002  2.105945e-001
      vertex  1.905515e-001  1.800448e-001  1.712615e-001
      vertex  1.850798e-001  1.705677e-001  1.785396e-001
    endloop
  endfacet
  facet normal  4.539123e-001  3.629020e-001  8.137971e-001
    outer loop
      vertex  1.933394e-001  8.835468e-002  2.105945e-001
      vertex  1.850798e-001  1.705677e-001  1.785396e-001
      vertex  1.818633e-001  1.700118e-001  1.805817e-001
    endloop
  endfacet
  facet normal -5.363568e-001  2.237289e-001  8.137977e-001
    outer loop
      vertex  1.818633e-001  1.700118e-001  1.805817e-001
      vertex  1.720044e-001  1.683079e-001  1.745524e-001
      vertex  1.933394e-001  8.835468e-002  2.105945e-001
    endloop
  endfacet
  facet normal -5.363569e-001  2.237289e-001  8.137977e-001
    outer loop
      vertex  1.933394e-001  8.835468e-002  2.105945e-001
      vertex  1.720044e-001  1.683079e-001  1.745524e-001
      vertex  1.837115e-001  8.500752e-002  2.051692e-001
    endloop
  endfacet
  facet normal -9.902680e-001 -1.391730e-001  0.000000e+000
    outer loop
      vertex  1.720044e-001  1.683079e-001  1.745524e-001
      vertex  1.720044e-001  1.683079e-001  1.622643e-001
      vertex  1.837115e-001  8.500752e-002  2.051692e-001
    endloop
  endfacet
  facet normal -9.902681e-001 -1.391730e-001  2.114990e-008
    outer loop
      vertex  1.837115e-001  8.500752e-002  2.051692e-001
      vertex  1.720044e-001  1.683079e-001  1.622643e-001
      vertex  1.842612e-001  8.109664e-002  1.943185e-001
    endloop
  endfacet
  facet normal -4.539113e-001 -3.629020e-001 -8.137976e-001
    outer loop
      vertex  1.720044e-001  1.683079e-001  1.622643e-001
      vertex  1.818633e-001  1.700118e-001  1.560055e-001
      vertex  1.842612e-001  8.109664e-002  1.943185e-001
    endloop
  endfacet
  facet normal -4.539113e-001 -3.629020e-001 -8.137976e-001
    outer loop
      vertex  1.842612e-001  8.109664e-002  1.943185e-001
      vertex  1.818633e-001  1.700118e-001  1.560055e-001
      vertex  1.944387e-001  8.053294e-002  1.888932e-001
    endloop
  endfacet
  facet normal  5.363564e-001 -2.237293e-001 -8.137980e-001
    outer loop
      vertex  1.905515e-001  1.800448e-001  1.589735e-001
      vertex  2.040666e-001  8.388011e-002  1.943185e-001
      vertex  1.850798e-001  1.705677e-001  1.579727e-001
    endloop
  endfacet
  facet normal  5.363570e-001 -2.237289e-001 -8.137976e-001
    outer loop
      vertex  1.850798e-001  1.705677e-001  1.579727e-001
      vertex  2.040666e-001  8.388011e-002  1.943185e-001
      vertex  1.944387e-001  8.053294e-002  1.888932e-001
    endloop
  endfacet
  facet normal  5.363572e-001 -2.237289e-001 -8.137974e-001
    outer loop
      vertex  1.850798e-001  1.705677e-001  1.579727e-001
      vertex  1.944387e-001  8.053294e-002  1.888932e-001
      vertex  1.818633e-001  1.700118e-001  1.560055e-001
    endloop
  endfacet
  facet normal -8.660254e-001  4.999999e-001  0.000000e+000
    outer loop
      vertex  1.871875e-001  1.982183e-001  1.238642e-001
      vertex  1.696875e-001  1.679074e-001  1.238642e-001
      vertex  1.871875e-001  1.982183e-001  2.038642e-001
    endloop
  endfacet
  facet normal -8.660254e-001  4.999999e-001  0.000000e+000
    outer loop
      vertex  1.871875e-001  1.982183e-001  2.038642e-001
      vertex  1.696875e-001  1.679074e-001  1.238642e-001
      vertex  1.696875e-001  1.679074e-001  2.038642e-001
    endloop
  endfacet
  facet normal  1.703056e-001 -9.853913e-001  0.000000e+000
    outer loop
      vertex  1.850798e-001  1.705677e-001  1.579727e-001
      vertex  1.818633e-001  1.700118e-001  1.560055e-001
      vertex  1.850798e-001  1.705677e-001  1.338643e-001
    endloop
  endfacet
  facet normal  1.703059e-001 -9.853913e-001  4.031378e-008
    outer loop
      vertex  1.850798e-001  1.705677e-001  1.338643e-001
      vertex  1.818633e-001  1.700118e-001  1.560055e-001
      vertex  1.696875e-001  1.679074e-001  1.238642e-001
    endloop
  endfacet
  facet normal  1.703057e-001 -9.853914e-001  9.204257e-008
    outer loop
      vertex  1.696875e-001  1.679074e-001  1.238642e-001
      vertex  1.818633e-001  1.700118e-001  1.560055e-001
      vertex  1.720044e-001  1.683079e-001  1.622643e-001
    endloop
  endfacet
  facet normal  1.703072e-001 -9.853911e-001  0.000000e+000
    outer loop
      vertex  1.696875e-001  1.679074e-001  1.238642e-001
      vertex  1.720044e-001  1.683079e-001  1.622643e-001
      vertex  1.696875e-001  1.679074e-001  2.038642e-001
    endloop
  endfacet
  facet normal  1.703072e-001 -9.853910e-001  0.000000e+000
    outer loop
      vertex  1.696875e-001  1.679074e-001  2.038642e-001
      vertex  1.720044e-001  1.683079e-001  1.622643e-001
      vertex  1.720044e-001  1.683079e-001  1.745524e-001
    endloop
  endfacet
  facet normal  1.703058e-001 -9.853913e-001 -1.130743e-007
    outer loop
      vertex  1.696875e-001  1.679074e-001  2.038642e-001
      vertex  1.720044e-001  1.683079e-001  1.745524e-001
      vertex  1.850798e-001  1.705677e-001  1.938643e-001
    endloop
  endfacet
  facet normal  1.703057e-001 -9.853913e-001 -2.105975e-008
    outer loop
      vertex  1.850798e-001  1.705677e-001  1.938643e-001
      vertex  1.720044e-001  1.683079e-001  1.745524e-001
      vertex  1.818633e-001  1.700118e-001  1.805817e-001
    endloop
  endfacet
  facet normal  1.703056e-001 -9.853913e-001  0.000000e+000
    outer loop
      vertex  1.850798e-001  1.705677e-001  1.938643e-001
      vertex  1.818633e-001  1.700118e-001  1.805817e-001
      vertex  1.850798e-001  1.705677e-001  1.785396e-001
    endloop
  endfacet
  facet normal  5.544159e-001 -3.200921e-001 -7.682213e-001
    outer loop
      vertex  1.871875e-001  1.982183e-001  1.238642e-001
      vertex  1.925799e-001  1.835580e-001  1.338643e-001
      vertex  1.696875e-001  1.679074e-001  1.238642e-001
    endloop
  endfacet
  facet normal  5.544161e-001 -3.200925e-001 -7.682211e-001
    outer loop
      vertex  1.696875e-001  1.679074e-001  1.238642e-001
      vertex  1.925799e-001  1.835580e-001  1.338643e-001
      vertex  1.850798e-001  1.705677e-001  1.338643e-001
    endloop
  endfacet
  facet normal  9.385267e-001  3.452067e-001  0.000000e+000
    outer loop
      vertex  1.871875e-001  1.982183e-001  2.038642e-001
      vertex  1.925799e-001  1.835580e-001  1.938643e-001
      vertex  1.871875e-001  1.982183e-001  1.238642e-001
    endloop
  endfacet
  facet normal  9.385267e-001  3.452067e-001  0.000000e+000
    outer loop
      vertex  1.871875e-001  1.982183e-001  1.238642e-001
      vertex  1.925799e-001  1.835580e-001  1.938643e-001
      vertex  1.925799e-001  1.835580e-001  1.338643e-001
    endloop
  endfacet
  facet normal  5.544161e-001 -3.200922e-001  7.682212e-001
    outer loop
      vertex  1.696875e-001  1.679074e-001  2.038642e-001
      vertex  1.850798e-001  1.705677e-001  1.938643e-001
      vertex  1.871875e-001  1.982183e-001  2.038642e-001
    endloop
  endfacet
  facet normal  5.544157e-001 -3.200923e-001  7.682214e-001
    outer loop
      vertex  1.871875e-001  1.982183e-001  2.038642e-001
      vertex  1.850798e-001  1.705677e-001  1.938643e-001
      vertex  1.925799e-001  1.835580e-001  1.938643e-001
    endloop
  endfacet
  facet normal  9.902681e-001  1.391732e-001  0.000000e+000
    outer loop
      vertex  1.905515e-001  1.800448e-001  1.589735e-001
      vertex  1.905515e-001  1.800448e-001  1.712615e-001
      vertex  2.040666e-001  8.388011e-002  1.943185e-001
    endloop
  endfacet
  facet normal  9.902681e-001  1.391732e-001 -7.331076e-008
    outer loop
      vertex  2.040666e-001  8.388011e-002  1.943185e-001
      vertex  1.905515e-001  1.800448e-001  1.712615e-001
      vertex  2.035169e-001  8.779098e-002  2.051692e-001
    endloop
  endfacet
  facet normal  1.307800e-001 -9.305476e-001  3.420200e-001
    outer loop
      vertex  2.284853e-001 -5.697525e-004  2.183578e-001
      vertex  1.840659e-001 -6.812484e-003  2.183578e-001
      vertex  2.068920e-001 -8.076762e-003  2.061899e-001
    endloop
  endfacet
  facet normal  1.307799e-001 -9.305476e-001  3.420202e-001
    outer loop
      vertex  1.840659e-001 -6.812484e-003  2.183578e-001
      vertex  2.284853e-001 -5.697525e-004  2.183578e-001
      vertex  1.828332e-001  1.958801e-003  2.426935e-001
    endloop
  endfacet
  facet normal  1.307799e-001 -9.305476e-001  3.420201e-001
    outer loop
      vertex  1.828332e-001  1.958801e-003  2.426935e-001
      vertex  2.284853e-001 -5.697525e-004  2.183578e-001
      vertex  2.272526e-001  8.201533e-003  2.426935e-001
    endloop
  endfacet
  facet normal  1.307799e-001 -9.305478e-001  3.420199e-001
    outer loop
      vertex  1.828332e-001  1.958801e-003  2.426935e-001
      vertex  2.272526e-001  8.201533e-003  2.426935e-001
      vertex  2.044265e-001  9.465809e-003  2.548614e-001
    endloop
  endfacet
  facet normal -5.363572e-001  2.237289e-001  8.137977e-001
    outer loop
      vertex  1.926563e-001  9.321510e-002  2.240796e-001
      vertex  1.710630e-001  8.570809e-002  2.119117e-001
      vertex  2.044265e-001  9.465809e-003  2.548614e-001
    endloop
  endfacet
  facet normal -5.363568e-001  2.237291e-001  8.137977e-001
    outer loop
      vertex  2.044265e-001  9.465809e-003  2.548614e-001
      vertex  1.710630e-001  8.570809e-002  2.119117e-001
      vertex  1.828332e-001  1.958801e-003  2.426935e-001
    endloop
  endfacet
  facet normal  4.539115e-001  3.629021e-001  8.137975e-001
    outer loop
      vertex  2.154824e-001  9.195082e-002  2.119117e-001
      vertex  1.926563e-001  9.321510e-002  2.240796e-001
      vertex  2.272526e-001  8.201533e-003  2.426935e-001
    endloop
  endfacet
  facet normal  4.539114e-001  3.629021e-001  8.137976e-001
    outer loop
      vertex  2.272526e-001  8.201533e-003  2.426935e-001
      vertex  1.926563e-001  9.321510e-002  2.240796e-001
      vertex  2.044265e-001  9.465809e-003  2.548614e-001
    endloop
  endfacet
  facet normal  9.902680e-001  1.391731e-001  1.800328e-007
    outer loop
      vertex  2.167151e-001  8.317954e-002  1.875760e-001
      vertex  2.154824e-001  9.195082e-002  2.119117e-001
      vertex  2.284853e-001 -5.697525e-004  2.183578e-001
    endloop
  endfacet
  facet normal  9.902680e-001  1.391730e-001 -4.615385e-007
    outer loop
      vertex  2.284853e-001 -5.697525e-004  2.183578e-001
      vertex  2.154824e-001  9.195082e-002  2.119117e-001
      vertex  2.272526e-001  8.201533e-003  2.426935e-001
    endloop
  endfacet
  facet normal  5.363567e-001 -2.237290e-001 -8.137977e-001
    outer loop
      vertex  1.951218e-001  7.567253e-002  1.754081e-001
      vertex  2.167151e-001  8.317954e-002  1.875760e-001
      vertex  2.068920e-001 -8.076762e-003  2.061899e-001
    endloop
  endfacet
  facet normal  5.363571e-001 -2.237290e-001 -8.137975e-001
    outer loop
      vertex  2.068920e-001 -8.076762e-003  2.061899e-001
      vertex  2.167151e-001  8.317954e-002  1.875760e-001
      vertex  2.284853e-001 -5.697525e-004  2.183578e-001
    endloop
  endfacet
  facet normal -4.539110e-001 -3.629021e-001 -8.137978e-001
    outer loop
      vertex  1.722957e-001  7.693680e-002  1.875760e-001
      vertex  1.951218e-001  7.567253e-002  1.754081e-001
      vertex  1.840659e-001 -6.812484e-003  2.183578e-001
    endloop
  endfacet
  facet normal -4.539115e-001 -3.629020e-001 -8.137977e-001
    outer loop
      vertex  1.840659e-001 -6.812484e-003  2.183578e-001
      vertex  1.951218e-001  7.567253e-002  1.754081e-001
      vertex  2.068920e-001 -8.076762e-003  2.061899e-001
    endloop
  endfacet
  facet normal -9.902681e-001 -1.391731e-001 -1.407529e-007
    outer loop
      vertex  1.710630e-001  8.570809e-002  2.119117e-001
      vertex  1.722957e-001  7.693680e-002  1.875760e-001
      vertex  1.828332e-001  1.958801e-003  2.426935e-001
    endloop
  endfacet
  facet normal -9.902680e-001 -1.391731e-001 -1.440262e-007
    outer loop
      vertex  1.828332e-001  1.958801e-003  2.426935e-001
      vertex  1.722957e-001  7.693680e-002  1.875760e-001
      vertex  1.840659e-001 -6.812484e-003  2.183578e-001
    endloop
  endfacet
endsolid CATIA STL
