solid CATIA STL
  facet normal  1.000000e+000  0.000000e+000  -0.000000e+000
    outer loop
      vertex  1.905256e-001  2.000000e-001  4.500000e-001
      vertex  1.905256e-001  2.700000e-001  4.200000e-001
      vertex  1.905256e-001  2.700000e-001  4.850000e-001
    endloop
  endfacet
  facet normal  1.000000e+000  0.000000e+000  -0.000000e+000
    outer loop
      vertex  1.905256e-001  2.100000e-001  4.050000e-001
      vertex  1.905256e-001  2.400000e-001  4.050000e-001
      vertex  1.905256e-001  2.700000e-001  4.200000e-001
    endloop
  endfacet
  facet normal  1.000000e+000  0.000000e+000  0.000000e+000
    outer loop
      vertex  1.905256e-001  2.100000e-001  4.050000e-001
      vertex  1.905256e-001  2.700000e-001  4.200000e-001
      vertex  1.905256e-001  2.000000e-001  4.500000e-001
    endloop
  endfacet
  facet normal  1.000000e+000  0.000000e+000  0.000000e+000
    outer loop
      vertex  1.905256e-001  2.100000e-001  4.050000e-001
      vertex  1.905256e-001  2.000000e-001  4.500000e-001
      vertex  1.905256e-001  2.000000e-001 -4.500000e-001
    endloop
  endfacet
  facet normal  1.000000e+000  0.000000e+000  -0.000000e+000
    outer loop
      vertex  1.905256e-001  2.000000e-001 -4.500000e-001
      vertex  1.905256e-001  2.700000e-001 -4.850000e-001
      vertex  1.905256e-001  2.700000e-001 -4.200000e-001
    endloop
  endfacet
  facet normal  9.999999e-001  0.000000e+000  0.000000e+000
    outer loop
      vertex  1.905256e-001  2.000000e-001 -4.500000e-001
      vertex  1.905256e-001  2.700000e-001 -4.200000e-001
      vertex  1.905256e-001  2.400000e-001 -4.050000e-001
    endloop
  endfacet
  facet normal  1.000000e+000  0.000000e+000  0.000000e+000
    outer loop
      vertex  1.905256e-001  2.000000e-001 -4.500000e-001
      vertex  1.905256e-001  2.400000e-001 -4.050000e-001
      vertex  1.905256e-001  2.100000e-001 -4.050000e-001
    endloop
  endfacet
  facet normal  1.000000e+000  0.000000e+000  -0.000000e+000
    outer loop
      vertex  1.905256e-001  2.000000e-001 -4.500000e-001
      vertex  1.905256e-001  2.100000e-001 -4.050000e-001
      vertex  1.905256e-001  2.100000e-001 -3.250000e-001
    endloop
  endfacet
  facet normal  1.000000e+000  0.000000e+000  -0.000000e+000
    outer loop
      vertex  1.905256e-001  2.000000e-001 -4.500000e-001
      vertex  1.905256e-001  2.100000e-001 -3.250000e-001
      vertex  1.905256e-001  2.400000e-001  3.250000e-001
    endloop
  endfacet
  facet normal  1.000000e+000  0.000000e+000  0.000000e+000
    outer loop
      vertex  1.905256e-001  2.000000e-001 -4.500000e-001
      vertex  1.905256e-001  2.400000e-001  3.250000e-001
      vertex  1.905256e-001  2.100000e-001  3.250000e-001
    endloop
  endfacet
  facet normal  1.000000e+000  0.000000e+000  -0.000000e+000
    outer loop
      vertex  1.905256e-001  2.000000e-001 -4.500000e-001
      vertex  1.905256e-001  2.100000e-001  3.250000e-001
      vertex  1.905256e-001  2.100000e-001  4.050000e-001
    endloop
  endfacet
  facet normal  1.000000e+000  0.000000e+000  -0.000000e+000
    outer loop
      vertex  1.905256e-001  2.100000e-001 -3.250000e-001
      vertex  1.905256e-001  2.400000e-001 -3.250000e-001
      vertex  1.905256e-001  2.700000e-001 -3.100000e-001
    endloop
  endfacet
  facet normal  1.000000e+000  0.000000e+000  -0.000000e+000
    outer loop
      vertex  1.905256e-001  2.100000e-001 -3.250000e-001
      vertex  1.905256e-001  2.700000e-001 -3.100000e-001
      vertex  1.905256e-001  2.700000e-001  3.100000e-001
    endloop
  endfacet
  facet normal  1.000000e+000  0.000000e+000  0.000000e+000
    outer loop
      vertex  1.905256e-001  2.100000e-001 -3.250000e-001
      vertex  1.905256e-001  2.700000e-001  3.100000e-001
      vertex  1.905256e-001  2.400000e-001  3.250000e-001
    endloop
  endfacet
  facet normal  8.660254e-001  5.000000e-001  8.054552e-008
    outer loop
      vertex  1.154701e-001  4.000000e-001 -3.000000e-001
      vertex  1.587713e-001  3.250000e-001 -2.250000e-001
      vertex  1.905256e-001  2.700000e-001 -3.100000e-001
    endloop
  endfacet
  facet normal  8.660254e-001  4.999999e-001  9.300594e-007
    outer loop
      vertex  1.154701e-001  4.000000e-001 -3.000000e-001
      vertex  1.905256e-001  2.700000e-001 -3.100000e-001
      vertex  1.380256e-001  3.609327e-001 -3.100000e-001
    endloop
  endfacet
  facet normal  8.660254e-001  5.000001e-001  0.000000e+000
    outer loop
      vertex  1.154701e-001  4.000000e-001 -3.000000e-001
      vertex  1.380256e-001  3.609327e-001 -3.100000e-001
      vertex  1.154701e-001  4.000000e-001 -4.850000e-001
    endloop
  endfacet
  facet normal  8.660253e-001  5.000001e-001  0.000000e+000
    outer loop
      vertex  1.154701e-001  4.000000e-001 -4.850000e-001
      vertex  1.380256e-001  3.609327e-001 -3.100000e-001
      vertex  1.380256e-001  3.609327e-001 -4.200000e-001
    endloop
  endfacet
  facet normal  8.660254e-001  5.000000e-001 -1.073145e-007
    outer loop
      vertex  1.154701e-001  4.000000e-001 -4.850000e-001
      vertex  1.380256e-001  3.609327e-001 -4.200000e-001
      vertex  1.905256e-001  2.700000e-001 -4.200000e-001
    endloop
  endfacet
  facet normal  8.660254e-001  5.000000e-001  0.000000e+000
    outer loop
      vertex  1.154701e-001  4.000000e-001 -4.850000e-001
      vertex  1.905256e-001  2.700000e-001 -4.200000e-001
      vertex  1.905256e-001  2.700000e-001 -4.850000e-001
    endloop
  endfacet
  facet normal  8.660254e-001  5.000000e-001  -0.000000e+000
    outer loop
      vertex  1.905256e-001  2.700000e-001  4.850000e-001
      vertex  1.905256e-001  2.700000e-001  4.200000e-001
      vertex  1.154701e-001  4.000000e-001  4.850000e-001
    endloop
  endfacet
  facet normal  8.660254e-001  5.000000e-001  1.073145e-007
    outer loop
      vertex  1.154701e-001  4.000000e-001  4.850000e-001
      vertex  1.905256e-001  2.700000e-001  4.200000e-001
      vertex  1.380256e-001  3.609327e-001  4.200000e-001
    endloop
  endfacet
  facet normal  8.660254e-001  5.000001e-001  0.000000e+000
    outer loop
      vertex  1.154701e-001  4.000000e-001  4.850000e-001
      vertex  1.380256e-001  3.609327e-001  4.200000e-001
      vertex  1.154701e-001  4.000000e-001  3.000000e-001
    endloop
  endfacet
  facet normal  8.660254e-001  5.000001e-001  0.000000e+000
    outer loop
      vertex  1.154701e-001  4.000000e-001  3.000000e-001
      vertex  1.380256e-001  3.609327e-001  4.200000e-001
      vertex  1.380256e-001  3.609327e-001  3.100000e-001
    endloop
  endfacet
  facet normal  8.660254e-001  5.000001e-001 -1.723607e-007
    outer loop
      vertex  1.154701e-001  4.000000e-001  3.000000e-001
      vertex  1.380256e-001  3.609327e-001  3.100000e-001
      vertex  1.587713e-001  3.250000e-001  2.250000e-001
    endloop
  endfacet
  facet normal  8.660255e-001  5.000000e-001 -1.230961e-007
    outer loop
      vertex  1.587713e-001  3.250000e-001  2.250000e-001
      vertex  1.380256e-001  3.609327e-001  3.100000e-001
      vertex  1.905256e-001  2.700000e-001  3.100000e-001
    endloop
  endfacet
  facet normal  8.660254e-001  5.000001e-001  0.000000e+000
    outer loop
      vertex  1.587713e-001  3.250000e-001  2.250000e-001
      vertex  1.905256e-001  2.700000e-001  3.100000e-001
      vertex  1.587713e-001  3.250000e-001 -2.250000e-001
    endloop
  endfacet
  facet normal  8.660254e-001  5.000001e-001  0.000000e+000
    outer loop
      vertex  1.587713e-001  3.250000e-001 -2.250000e-001
      vertex  1.905256e-001  2.700000e-001  3.100000e-001
      vertex  1.905256e-001  2.700000e-001 -3.100000e-001
    endloop
  endfacet
  facet normal  0.000000e+000  0.000000e+000  1.000000e+000
    outer loop
      vertex  1.905256e-001  2.400000e-001 -4.050000e-001
      vertex  1.325352e-001  3.404423e-001 -4.050000e-001
      vertex  1.905256e-001  2.100000e-001 -4.050000e-001
    endloop
  endfacet
  facet normal  0.000000e+000  0.000000e+000  1.000000e+000
    outer loop
      vertex  1.905256e-001  2.100000e-001 -4.050000e-001
      vertex  1.325352e-001  3.404423e-001 -4.050000e-001
      vertex  1.195448e-001  3.329423e-001 -4.050000e-001
    endloop
  endfacet
  facet normal  0.000000e+000  -0.000000e+000 -1.000000e+000
    outer loop
      vertex  1.195448e-001  3.329423e-001 -3.250000e-001
      vertex  1.325352e-001  3.404423e-001 -3.250000e-001
      vertex  1.905256e-001  2.100000e-001 -3.250000e-001
    endloop
  endfacet
  facet normal  0.000000e+000  0.000000e+000 -9.999999e-001
    outer loop
      vertex  1.905256e-001  2.100000e-001 -3.250000e-001
      vertex  1.325352e-001  3.404423e-001 -3.250000e-001
      vertex  1.905256e-001  2.400000e-001 -3.250000e-001
    endloop
  endfacet
  facet normal  5.000002e-001 -8.660252e-001  0.000000e+000
    outer loop
      vertex  1.195448e-001  3.329423e-001 -3.250000e-001
      vertex  1.195448e-001  3.329423e-001 -4.050000e-001
      vertex  1.325352e-001  3.404423e-001 -3.250000e-001
    endloop
  endfacet
  facet normal  5.000002e-001 -8.660252e-001  0.000000e+000
    outer loop
      vertex  1.325352e-001  3.404423e-001 -3.250000e-001
      vertex  1.195448e-001  3.329423e-001 -4.050000e-001
      vertex  1.325352e-001  3.404423e-001 -4.050000e-001
    endloop
  endfacet
  facet normal -6.123724e-001 -3.535534e-001 -7.071067e-001
    outer loop
      vertex  1.154701e-001  4.000000e-001 -4.850000e-001
      vertex  1.905256e-001  2.700000e-001 -4.850000e-001
      vertex  9.526280e-002  3.650000e-001 -4.500000e-001
    endloop
  endfacet
  facet normal -6.123725e-001 -3.535534e-001 -7.071068e-001
    outer loop
      vertex  9.526280e-002  3.650000e-001 -4.500000e-001
      vertex  1.905256e-001  2.700000e-001 -4.850000e-001
      vertex  1.905256e-001  2.000000e-001 -4.500000e-001
    endloop
  endfacet
  facet normal  6.123725e-001  3.535534e-001  7.071067e-001
    outer loop
      vertex  1.905256e-001  2.700000e-001 -4.200000e-001
      vertex  1.380256e-001  3.609327e-001 -4.200000e-001
      vertex  1.905256e-001  2.400000e-001 -4.050000e-001
    endloop
  endfacet
  facet normal  6.123722e-001  3.535533e-001  7.071069e-001
    outer loop
      vertex  1.905256e-001  2.400000e-001 -4.050000e-001
      vertex  1.380256e-001  3.609327e-001 -4.200000e-001
      vertex  1.325352e-001  3.404423e-001 -4.050000e-001
    endloop
  endfacet
  facet normal  9.659258e-001 -2.588193e-001  0.000000e+000
    outer loop
      vertex  1.380256e-001  3.609327e-001 -3.100000e-001
      vertex  1.325352e-001  3.404423e-001 -3.250000e-001
      vertex  1.380256e-001  3.609327e-001 -4.200000e-001
    endloop
  endfacet
  facet normal  9.659257e-001 -2.588193e-001  0.000000e+000
    outer loop
      vertex  1.380256e-001  3.609327e-001 -4.200000e-001
      vertex  1.325352e-001  3.404423e-001 -3.250000e-001
      vertex  1.325352e-001  3.404423e-001 -4.050000e-001
    endloop
  endfacet
  facet normal  6.123723e-001  3.535532e-001 -7.071069e-001
    outer loop
      vertex  1.380256e-001  3.609327e-001 -3.100000e-001
      vertex  1.905256e-001  2.700000e-001 -3.100000e-001
      vertex  1.325352e-001  3.404423e-001 -3.250000e-001
    endloop
  endfacet
  facet normal  6.123724e-001  3.535534e-001 -7.071068e-001
    outer loop
      vertex  1.325352e-001  3.404423e-001 -3.250000e-001
      vertex  1.905256e-001  2.700000e-001 -3.100000e-001
      vertex  1.905256e-001  2.400000e-001 -3.250000e-001
    endloop
  endfacet
  facet normal  0.000000e+000  0.000000e+000 -9.999999e-001
    outer loop
      vertex  1.905256e-001  2.400000e-001  4.050000e-001
      vertex  1.905256e-001  2.100000e-001  4.050000e-001
      vertex  1.325352e-001  3.404423e-001  4.050000e-001
    endloop
  endfacet
  facet normal  0.000000e+000  -0.000000e+000 -1.000000e+000
    outer loop
      vertex  1.325352e-001  3.404423e-001  4.050000e-001
      vertex  1.905256e-001  2.100000e-001  4.050000e-001
      vertex  1.195448e-001  3.329423e-001  4.050000e-001
    endloop
  endfacet
  facet normal  0.000000e+000  0.000000e+000  1.000000e+000
    outer loop
      vertex  1.195448e-001  3.329423e-001  3.250000e-001
      vertex  1.905256e-001  2.100000e-001  3.250000e-001
      vertex  1.325352e-001  3.404423e-001  3.250000e-001
    endloop
  endfacet
  facet normal  0.000000e+000  0.000000e+000  1.000000e+000
    outer loop
      vertex  1.325352e-001  3.404423e-001  3.250000e-001
      vertex  1.905256e-001  2.100000e-001  3.250000e-001
      vertex  1.905256e-001  2.400000e-001  3.250000e-001
    endloop
  endfacet
  facet normal  5.000002e-001 -8.660252e-001  0.000000e+000
    outer loop
      vertex  1.195448e-001  3.329423e-001  4.050000e-001
      vertex  1.195448e-001  3.329423e-001  3.250000e-001
      vertex  1.325352e-001  3.404423e-001  4.050000e-001
    endloop
  endfacet
  facet normal  5.000002e-001 -8.660252e-001  0.000000e+000
    outer loop
      vertex  1.325352e-001  3.404423e-001  4.050000e-001
      vertex  1.195448e-001  3.329423e-001  3.250000e-001
      vertex  1.325352e-001  3.404423e-001  3.250000e-001
    endloop
  endfacet
  facet normal -6.123724e-001 -3.535534e-001  7.071068e-001
    outer loop
      vertex  1.154701e-001  4.000000e-001  4.850000e-001
      vertex  9.526280e-002  3.650000e-001  4.500000e-001
      vertex  1.905256e-001  2.700000e-001  4.850000e-001
    endloop
  endfacet
  facet normal -6.123725e-001 -3.535534e-001  7.071068e-001
    outer loop
      vertex  1.905256e-001  2.700000e-001  4.850000e-001
      vertex  9.526280e-002  3.650000e-001  4.500000e-001
      vertex  1.905256e-001  2.000000e-001  4.500000e-001
    endloop
  endfacet
  facet normal  6.123723e-001  3.535532e-001  7.071069e-001
    outer loop
      vertex  1.380256e-001  3.609327e-001  3.100000e-001
      vertex  1.325352e-001  3.404423e-001  3.250000e-001
      vertex  1.905256e-001  2.700000e-001  3.100000e-001
    endloop
  endfacet
  facet normal  6.123724e-001  3.535534e-001  7.071068e-001
    outer loop
      vertex  1.905256e-001  2.700000e-001  3.100000e-001
      vertex  1.325352e-001  3.404423e-001  3.250000e-001
      vertex  1.905256e-001  2.400000e-001  3.250000e-001
    endloop
  endfacet
  facet normal  9.659258e-001 -2.588193e-001  0.000000e+000
    outer loop
      vertex  1.380256e-001  3.609327e-001  4.200000e-001
      vertex  1.325352e-001  3.404423e-001  4.050000e-001
      vertex  1.380256e-001  3.609327e-001  3.100000e-001
    endloop
  endfacet
  facet normal  9.659257e-001 -2.588193e-001  0.000000e+000
    outer loop
      vertex  1.380256e-001  3.609327e-001  3.100000e-001
      vertex  1.325352e-001  3.404423e-001  4.050000e-001
      vertex  1.325352e-001  3.404423e-001  3.250000e-001
    endloop
  endfacet
  facet normal  6.123725e-001  3.535534e-001 -7.071067e-001
    outer loop
      vertex  1.905256e-001  2.700000e-001  4.200000e-001
      vertex  1.905256e-001  2.400000e-001  4.050000e-001
      vertex  1.380256e-001  3.609327e-001  4.200000e-001
    endloop
  endfacet
  facet normal  6.123722e-001  3.535533e-001 -7.071070e-001
    outer loop
      vertex  1.380256e-001  3.609327e-001  4.200000e-001
      vertex  1.905256e-001  2.400000e-001  4.050000e-001
      vertex  1.325352e-001  3.404423e-001  4.050000e-001
    endloop
  endfacet
  facet normal -8.660254e-001  5.000000e-001  0.000000e+000
    outer loop
      vertex -1.905256e-001  2.700000e-001  4.200000e-001
      vertex -1.905256e-001  2.700000e-001  4.850000e-001
      vertex -1.380256e-001  3.609327e-001  4.200000e-001
    endloop
  endfacet
  facet normal -8.660254e-001  5.000000e-001  7.506461e-008
    outer loop
      vertex -1.380256e-001  3.609327e-001  4.200000e-001
      vertex -1.905256e-001  2.700000e-001  4.850000e-001
      vertex -1.154701e-001  4.000000e-001  4.850000e-001
    endloop
  endfacet
  facet normal -8.660253e-001  5.000001e-001  0.000000e+000
    outer loop
      vertex -1.380256e-001  3.609327e-001  4.200000e-001
      vertex -1.154701e-001  4.000000e-001  4.850000e-001
      vertex -1.380256e-001  3.609327e-001  3.100000e-001
    endloop
  endfacet
  facet normal -8.660254e-001  5.000001e-001  0.000000e+000
    outer loop
      vertex -1.380256e-001  3.609327e-001  3.100000e-001
      vertex -1.154701e-001  4.000000e-001  4.850000e-001
      vertex -1.154701e-001  4.000000e-001  3.000000e-001
    endloop
  endfacet
  facet normal -8.660254e-001  4.999999e-001 -6.975446e-007
    outer loop
      vertex -1.380256e-001  3.609327e-001  3.100000e-001
      vertex -1.154701e-001  4.000000e-001  3.000000e-001
      vertex -1.905256e-001  2.700000e-001  3.100000e-001
    endloop
  endfacet
  facet normal -8.660254e-001  5.000000e-001 -1.208183e-007
    outer loop
      vertex -1.905256e-001  2.700000e-001  3.100000e-001
      vertex -1.154701e-001  4.000000e-001  3.000000e-001
      vertex -1.587713e-001  3.250000e-001  2.250000e-001
    endloop
  endfacet
  facet normal -8.660254e-001  5.000001e-001  0.000000e+000
    outer loop
      vertex -1.905256e-001  2.700000e-001  3.100000e-001
      vertex -1.587713e-001  3.250000e-001  2.250000e-001
      vertex -1.905256e-001  2.700000e-001 -3.100000e-001
    endloop
  endfacet
  facet normal -8.660254e-001  5.000001e-001  0.000000e+000
    outer loop
      vertex -1.905256e-001  2.700000e-001 -3.100000e-001
      vertex -1.587713e-001  3.250000e-001  2.250000e-001
      vertex -1.587713e-001  3.250000e-001 -2.250000e-001
    endloop
  endfacet
  facet normal -8.660255e-001  5.000000e-001  1.230961e-007
    outer loop
      vertex -1.905256e-001  2.700000e-001 -3.100000e-001
      vertex -1.587713e-001  3.250000e-001 -2.250000e-001
      vertex -1.380256e-001  3.609327e-001 -3.100000e-001
    endloop
  endfacet
  facet normal -8.660254e-001  5.000001e-001  1.723607e-007
    outer loop
      vertex -1.380256e-001  3.609327e-001 -3.100000e-001
      vertex -1.587713e-001  3.250000e-001 -2.250000e-001
      vertex -1.154701e-001  4.000000e-001 -3.000000e-001
    endloop
  endfacet
  facet normal -8.660254e-001  5.000001e-001  0.000000e+000
    outer loop
      vertex -1.380256e-001  3.609327e-001 -3.100000e-001
      vertex -1.154701e-001  4.000000e-001 -3.000000e-001
      vertex -1.380256e-001  3.609327e-001 -4.200000e-001
    endloop
  endfacet
  facet normal -8.660254e-001  5.000001e-001  0.000000e+000
    outer loop
      vertex -1.380256e-001  3.609327e-001 -4.200000e-001
      vertex -1.154701e-001  4.000000e-001 -3.000000e-001
      vertex -1.154701e-001  4.000000e-001 -4.850000e-001
    endloop
  endfacet
  facet normal -8.660254e-001  5.000000e-001 -1.073145e-007
    outer loop
      vertex -1.380256e-001  3.609327e-001 -4.200000e-001
      vertex -1.154701e-001  4.000000e-001 -4.850000e-001
      vertex -1.905256e-001  2.700000e-001 -4.200000e-001
    endloop
  endfacet
  facet normal -8.660254e-001  5.000000e-001  0.000000e+000
    outer loop
      vertex -1.905256e-001  2.700000e-001 -4.200000e-001
      vertex -1.154701e-001  4.000000e-001 -4.850000e-001
      vertex -1.905256e-001  2.700000e-001 -4.850000e-001
    endloop
  endfacet
  facet normal -1.000000e+000  0.000000e+000  0.000000e+000
    outer loop
      vertex -1.905256e-001  2.100000e-001  4.050000e-001
      vertex -1.905256e-001  2.700000e-001  4.200000e-001
      vertex -1.905256e-001  2.400000e-001  4.050000e-001
    endloop
  endfacet
  facet normal -1.000000e+000  0.000000e+000  -0.000000e+000
    outer loop
      vertex -1.905256e-001  2.000000e-001  4.500000e-001
      vertex -1.905256e-001  2.700000e-001  4.850000e-001
      vertex -1.905256e-001  2.700000e-001  4.200000e-001
    endloop
  endfacet
  facet normal -1.000000e+000  -0.000000e+000  0.000000e+000
    outer loop
      vertex -1.905256e-001  2.000000e-001  4.500000e-001
      vertex -1.905256e-001  2.700000e-001  4.200000e-001
      vertex -1.905256e-001  2.100000e-001  4.050000e-001
    endloop
  endfacet
  facet normal -1.000000e+000  -0.000000e+000  0.000000e+000
    outer loop
      vertex -1.905256e-001  2.000000e-001  4.500000e-001
      vertex -1.905256e-001  2.100000e-001  4.050000e-001
      vertex -1.905256e-001  2.000000e-001 -4.500000e-001
    endloop
  endfacet
  facet normal -1.000000e+000  0.000000e+000  -0.000000e+000
    outer loop
      vertex -1.905256e-001  2.000000e-001 -4.500000e-001
      vertex -1.905256e-001  2.100000e-001  4.050000e-001
      vertex -1.905256e-001  2.100000e-001  3.250000e-001
    endloop
  endfacet
  facet normal -1.000000e+000  0.000000e+000  -0.000000e+000
    outer loop
      vertex -1.905256e-001  2.000000e-001 -4.500000e-001
      vertex -1.905256e-001  2.100000e-001  3.250000e-001
      vertex -1.905256e-001  2.400000e-001  3.250000e-001
    endloop
  endfacet
  facet normal -1.000000e+000  0.000000e+000  0.000000e+000
    outer loop
      vertex -1.905256e-001  2.000000e-001 -4.500000e-001
      vertex -1.905256e-001  2.400000e-001  3.250000e-001
      vertex -1.905256e-001  2.100000e-001 -3.250000e-001
    endloop
  endfacet
  facet normal -1.000000e+000  0.000000e+000  -0.000000e+000
    outer loop
      vertex -1.905256e-001  2.000000e-001 -4.500000e-001
      vertex -1.905256e-001  2.100000e-001 -3.250000e-001
      vertex -1.905256e-001  2.100000e-001 -4.050000e-001
    endloop
  endfacet
  facet normal -1.000000e+000  0.000000e+000  -0.000000e+000
    outer loop
      vertex -1.905256e-001  2.000000e-001 -4.500000e-001
      vertex -1.905256e-001  2.100000e-001 -4.050000e-001
      vertex -1.905256e-001  2.400000e-001 -4.050000e-001
    endloop
  endfacet
  facet normal -9.999999e-001  0.000000e+000  -0.000000e+000
    outer loop
      vertex -1.905256e-001  2.000000e-001 -4.500000e-001
      vertex -1.905256e-001  2.400000e-001 -4.050000e-001
      vertex -1.905256e-001  2.700000e-001 -4.200000e-001
    endloop
  endfacet
  facet normal -1.000000e+000  0.000000e+000  -0.000000e+000
    outer loop
      vertex -1.905256e-001  2.000000e-001 -4.500000e-001
      vertex -1.905256e-001  2.700000e-001 -4.200000e-001
      vertex -1.905256e-001  2.700000e-001 -4.850000e-001
    endloop
  endfacet
  facet normal -1.000000e+000  0.000000e+000  -0.000000e+000
    outer loop
      vertex -1.905256e-001  2.100000e-001 -3.250000e-001
      vertex -1.905256e-001  2.400000e-001  3.250000e-001
      vertex -1.905256e-001  2.700000e-001  3.100000e-001
    endloop
  endfacet
  facet normal -1.000000e+000  0.000000e+000  -0.000000e+000
    outer loop
      vertex -1.905256e-001  2.100000e-001 -3.250000e-001
      vertex -1.905256e-001  2.700000e-001  3.100000e-001
      vertex -1.905256e-001  2.700000e-001 -3.100000e-001
    endloop
  endfacet
  facet normal -1.000000e+000  0.000000e+000  0.000000e+000
    outer loop
      vertex -1.905256e-001  2.100000e-001 -3.250000e-001
      vertex -1.905256e-001  2.700000e-001 -3.100000e-001
      vertex -1.905256e-001  2.400000e-001 -3.250000e-001
    endloop
  endfacet
  facet normal  0.000000e+000  0.000000e+000  1.000000e+000
    outer loop
      vertex -1.325352e-001  3.404423e-001 -4.050000e-001
      vertex -1.905256e-001  2.400000e-001 -4.050000e-001
      vertex -1.195448e-001  3.329423e-001 -4.050000e-001
    endloop
  endfacet
  facet normal  0.000000e+000  0.000000e+000  1.000000e+000
    outer loop
      vertex -1.195448e-001  3.329423e-001 -4.050000e-001
      vertex -1.905256e-001  2.400000e-001 -4.050000e-001
      vertex -1.905256e-001  2.100000e-001 -4.050000e-001
    endloop
  endfacet
  facet normal  0.000000e+000  0.000000e+000 -1.000000e+000
    outer loop
      vertex -1.905256e-001  2.400000e-001 -3.250000e-001
      vertex -1.325352e-001  3.404423e-001 -3.250000e-001
      vertex -1.905256e-001  2.100000e-001 -3.250000e-001
    endloop
  endfacet
  facet normal  0.000000e+000  0.000000e+000 -1.000000e+000
    outer loop
      vertex -1.905256e-001  2.100000e-001 -3.250000e-001
      vertex -1.325352e-001  3.404423e-001 -3.250000e-001
      vertex -1.195448e-001  3.329423e-001 -3.250000e-001
    endloop
  endfacet
  facet normal -5.000002e-001 -8.660252e-001  0.000000e+000
    outer loop
      vertex -1.195448e-001  3.329423e-001 -3.250000e-001
      vertex -1.325352e-001  3.404423e-001 -3.250000e-001
      vertex -1.195448e-001  3.329423e-001 -4.050000e-001
    endloop
  endfacet
  facet normal -5.000002e-001 -8.660252e-001  0.000000e+000
    outer loop
      vertex -1.195448e-001  3.329423e-001 -4.050000e-001
      vertex -1.325352e-001  3.404423e-001 -3.250000e-001
      vertex -1.325352e-001  3.404423e-001 -4.050000e-001
    endloop
  endfacet
  facet normal  6.123725e-001 -3.535534e-001 -7.071068e-001
    outer loop
      vertex -1.905256e-001  2.700000e-001 -4.850000e-001
      vertex -1.154701e-001  4.000000e-001 -4.850000e-001
      vertex -1.905256e-001  2.000000e-001 -4.500000e-001
    endloop
  endfacet
  facet normal  6.123725e-001 -3.535534e-001 -7.071068e-001
    outer loop
      vertex -1.905256e-001  2.000000e-001 -4.500000e-001
      vertex -1.154701e-001  4.000000e-001 -4.850000e-001
      vertex -9.526280e-002  3.650000e-001 -4.500000e-001
    endloop
  endfacet
  facet normal  0.000000e+000  1.000000e+000  0.000000e+000
    outer loop
      vertex  1.154701e-001  4.000000e-001 -4.850000e-001
      vertex -1.154701e-001  4.000000e-001 -4.850000e-001
      vertex  1.154701e-001  4.000000e-001 -3.000000e-001
    endloop
  endfacet
  facet normal  0.000000e+000  1.000000e+000  0.000000e+000
    outer loop
      vertex  1.154701e-001  4.000000e-001 -3.000000e-001
      vertex -1.154701e-001  4.000000e-001 -4.850000e-001
      vertex -1.154701e-001  4.000000e-001 -3.000000e-001
    endloop
  endfacet
  facet normal  -0.000000e+000  7.071068e-001  7.071068e-001
    outer loop
      vertex -1.154701e-001  4.000000e-001 -3.000000e-001
      vertex -1.587713e-001  3.250000e-001 -2.250000e-001
      vertex -1.183568e-001  3.250000e-001 -2.250000e-001
    endloop
  endfacet
  facet normal  0.000000e+000  7.071068e-001  7.071068e-001
    outer loop
      vertex -1.154701e-001  4.000000e-001 -3.000000e-001
      vertex -1.183568e-001  3.250000e-001 -2.250000e-001
      vertex -9.526280e-002  3.650000e-001 -2.650000e-001
    endloop
  endfacet
  facet normal  -0.000000e+000  7.071068e-001  7.071068e-001
    outer loop
      vertex -1.154701e-001  4.000000e-001 -3.000000e-001
      vertex -9.526280e-002  3.650000e-001 -2.650000e-001
      vertex  9.526280e-002  3.650000e-001 -2.650000e-001
    endloop
  endfacet
  facet normal  0.000000e+000  7.071068e-001  7.071068e-001
    outer loop
      vertex -1.154701e-001  4.000000e-001 -3.000000e-001
      vertex  9.526280e-002  3.650000e-001 -2.650000e-001
      vertex  1.154701e-001  4.000000e-001 -3.000000e-001
    endloop
  endfacet
  facet normal  0.000000e+000  7.071068e-001  7.071068e-001
    outer loop
      vertex  9.526280e-002  3.650000e-001 -2.650000e-001
      vertex  1.183568e-001  3.250000e-001 -2.250000e-001
      vertex  1.154701e-001  4.000000e-001 -3.000000e-001
    endloop
  endfacet
  facet normal  0.000000e+000  7.071068e-001  7.071068e-001
    outer loop
      vertex  1.154701e-001  4.000000e-001 -3.000000e-001
      vertex  1.183568e-001  3.250000e-001 -2.250000e-001
      vertex  1.587713e-001  3.250000e-001 -2.250000e-001
    endloop
  endfacet
  facet normal -6.123724e-001  3.535534e-001  7.071068e-001
    outer loop
      vertex -1.905256e-001  2.400000e-001 -4.050000e-001
      vertex -1.325352e-001  3.404423e-001 -4.050000e-001
      vertex -1.905256e-001  2.700000e-001 -4.200000e-001
    endloop
  endfacet
  facet normal -6.123723e-001  3.535532e-001  7.071069e-001
    outer loop
      vertex -1.905256e-001  2.700000e-001 -4.200000e-001
      vertex -1.325352e-001  3.404423e-001 -4.050000e-001
      vertex -1.380256e-001  3.609327e-001 -4.200000e-001
    endloop
  endfacet
  facet normal -9.659257e-001 -2.588192e-001  -0.000000e+000
    outer loop
      vertex -1.325352e-001  3.404423e-001 -4.050000e-001
      vertex -1.325352e-001  3.404423e-001 -3.250000e-001
      vertex -1.380256e-001  3.609327e-001 -4.200000e-001
    endloop
  endfacet
  facet normal -9.659258e-001 -2.588192e-001  0.000000e+000
    outer loop
      vertex -1.380256e-001  3.609327e-001 -4.200000e-001
      vertex -1.325352e-001  3.404423e-001 -3.250000e-001
      vertex -1.380256e-001  3.609327e-001 -3.100000e-001
    endloop
  endfacet
  facet normal -6.123722e-001  3.535533e-001 -7.071069e-001
    outer loop
      vertex -1.325352e-001  3.404423e-001 -3.250000e-001
      vertex -1.905256e-001  2.400000e-001 -3.250000e-001
      vertex -1.380256e-001  3.609327e-001 -3.100000e-001
    endloop
  endfacet
  facet normal -6.123725e-001  3.535534e-001 -7.071067e-001
    outer loop
      vertex -1.380256e-001  3.609327e-001 -3.100000e-001
      vertex -1.905256e-001  2.400000e-001 -3.250000e-001
      vertex -1.905256e-001  2.700000e-001 -3.100000e-001
    endloop
  endfacet
  facet normal  -0.000000e+000  0.000000e+000 -1.000000e+000
    outer loop
      vertex -1.325352e-001  3.404423e-001  4.050000e-001
      vertex -1.195448e-001  3.329423e-001  4.050000e-001
      vertex -1.905256e-001  2.400000e-001  4.050000e-001
    endloop
  endfacet
  facet normal  0.000000e+000  0.000000e+000 -1.000000e+000
    outer loop
      vertex -1.905256e-001  2.400000e-001  4.050000e-001
      vertex -1.195448e-001  3.329423e-001  4.050000e-001
      vertex -1.905256e-001  2.100000e-001  4.050000e-001
    endloop
  endfacet
  facet normal  0.000000e+000  0.000000e+000  9.999999e-001
    outer loop
      vertex -1.905256e-001  2.400000e-001  3.250000e-001
      vertex -1.905256e-001  2.100000e-001  3.250000e-001
      vertex -1.325352e-001  3.404423e-001  3.250000e-001
    endloop
  endfacet
  facet normal  0.000000e+000  0.000000e+000  1.000000e+000
    outer loop
      vertex -1.325352e-001  3.404423e-001  3.250000e-001
      vertex -1.905256e-001  2.100000e-001  3.250000e-001
      vertex -1.195448e-001  3.329423e-001  3.250000e-001
    endloop
  endfacet
  facet normal -5.000002e-001 -8.660252e-001  0.000000e+000
    outer loop
      vertex -1.195448e-001  3.329423e-001  4.050000e-001
      vertex -1.325352e-001  3.404423e-001  4.050000e-001
      vertex -1.195448e-001  3.329423e-001  3.250000e-001
    endloop
  endfacet
  facet normal -5.000002e-001 -8.660252e-001  0.000000e+000
    outer loop
      vertex -1.195448e-001  3.329423e-001  3.250000e-001
      vertex -1.325352e-001  3.404423e-001  4.050000e-001
      vertex -1.325352e-001  3.404423e-001  3.250000e-001
    endloop
  endfacet
  facet normal  0.000000e+000  1.000000e+000  0.000000e+000
    outer loop
      vertex  1.154701e-001  4.000000e-001  3.000000e-001
      vertex -1.154701e-001  4.000000e-001  3.000000e-001
      vertex  1.154701e-001  4.000000e-001  4.850000e-001
    endloop
  endfacet
  facet normal  0.000000e+000  1.000000e+000  0.000000e+000
    outer loop
      vertex  1.154701e-001  4.000000e-001  4.850000e-001
      vertex -1.154701e-001  4.000000e-001  3.000000e-001
      vertex -1.154701e-001  4.000000e-001  4.850000e-001
    endloop
  endfacet
  facet normal  0.000000e+000  7.071068e-001 -7.071068e-001
    outer loop
      vertex -1.183568e-001  3.250000e-001  2.250000e-001
      vertex -1.587713e-001  3.250000e-001  2.250000e-001
      vertex -9.526280e-002  3.650000e-001  2.650000e-001
    endloop
  endfacet
  facet normal  0.000000e+000  7.071068e-001 -7.071068e-001
    outer loop
      vertex -9.526280e-002  3.650000e-001  2.650000e-001
      vertex -1.587713e-001  3.250000e-001  2.250000e-001
      vertex -1.154701e-001  4.000000e-001  3.000000e-001
    endloop
  endfacet
  facet normal  0.000000e+000  7.071068e-001 -7.071068e-001
    outer loop
      vertex -9.526280e-002  3.650000e-001  2.650000e-001
      vertex -1.154701e-001  4.000000e-001  3.000000e-001
      vertex  9.526280e-002  3.650000e-001  2.650000e-001
    endloop
  endfacet
  facet normal  0.000000e+000  7.071068e-001 -7.071068e-001
    outer loop
      vertex  9.526280e-002  3.650000e-001  2.650000e-001
      vertex -1.154701e-001  4.000000e-001  3.000000e-001
      vertex  1.154701e-001  4.000000e-001  3.000000e-001
    endloop
  endfacet
  facet normal  0.000000e+000  7.071068e-001 -7.071068e-001
    outer loop
      vertex  9.526280e-002  3.650000e-001  2.650000e-001
      vertex  1.154701e-001  4.000000e-001  3.000000e-001
      vertex  1.183568e-001  3.250000e-001  2.250000e-001
    endloop
  endfacet
  facet normal  0.000000e+000  7.071068e-001 -7.071068e-001
    outer loop
      vertex  1.183568e-001  3.250000e-001  2.250000e-001
      vertex  1.154701e-001  4.000000e-001  3.000000e-001
      vertex  1.587713e-001  3.250000e-001  2.250000e-001
    endloop
  endfacet
  facet normal  6.123724e-001 -3.535534e-001  7.071067e-001
    outer loop
      vertex -1.905256e-001  2.700000e-001  4.850000e-001
      vertex -1.905256e-001  2.000000e-001  4.500000e-001
      vertex -1.154701e-001  4.000000e-001  4.850000e-001
    endloop
  endfacet
  facet normal  6.123725e-001 -3.535534e-001  7.071068e-001
    outer loop
      vertex -1.154701e-001  4.000000e-001  4.850000e-001
      vertex -1.905256e-001  2.000000e-001  4.500000e-001
      vertex -9.526280e-002  3.650000e-001  4.500000e-001
    endloop
  endfacet
  facet normal -6.123722e-001  3.535533e-001  7.071070e-001
    outer loop
      vertex -1.325352e-001  3.404423e-001  3.250000e-001
      vertex -1.380256e-001  3.609327e-001  3.100000e-001
      vertex -1.905256e-001  2.400000e-001  3.250000e-001
    endloop
  endfacet
  facet normal -6.123725e-001  3.535534e-001  7.071067e-001
    outer loop
      vertex -1.905256e-001  2.400000e-001  3.250000e-001
      vertex -1.380256e-001  3.609327e-001  3.100000e-001
      vertex -1.905256e-001  2.700000e-001  3.100000e-001
    endloop
  endfacet
  facet normal -9.659257e-001 -2.588192e-001  -0.000000e+000
    outer loop
      vertex -1.325352e-001  3.404423e-001  3.250000e-001
      vertex -1.325352e-001  3.404423e-001  4.050000e-001
      vertex -1.380256e-001  3.609327e-001  3.100000e-001
    endloop
  endfacet
  facet normal -9.659258e-001 -2.588192e-001  0.000000e+000
    outer loop
      vertex -1.380256e-001  3.609327e-001  3.100000e-001
      vertex -1.325352e-001  3.404423e-001  4.050000e-001
      vertex -1.380256e-001  3.609327e-001  4.200000e-001
    endloop
  endfacet
  facet normal -6.123724e-001  3.535534e-001 -7.071068e-001
    outer loop
      vertex -1.905256e-001  2.400000e-001  4.050000e-001
      vertex -1.905256e-001  2.700000e-001  4.200000e-001
      vertex -1.325352e-001  3.404423e-001  4.050000e-001
    endloop
  endfacet
  facet normal -6.123723e-001  3.535532e-001 -7.071069e-001
    outer loop
      vertex -1.325352e-001  3.404423e-001  4.050000e-001
      vertex -1.905256e-001  2.700000e-001  4.200000e-001
      vertex -1.380256e-001  3.609327e-001  4.200000e-001
    endloop
  endfacet
  facet normal  8.660254e-001  5.000000e-001  0.000000e+000
    outer loop
      vertex  1.195448e-001  3.329423e-001  3.250000e-001
      vertex  1.195448e-001  3.329423e-001  4.050000e-001
      vertex  1.905256e-001  2.100000e-001  3.250000e-001
    endloop
  endfacet
  facet normal  8.660254e-001  5.000000e-001  -0.000000e+000
    outer loop
      vertex  1.905256e-001  2.100000e-001  3.250000e-001
      vertex  1.195448e-001  3.329423e-001  4.050000e-001
      vertex  1.905256e-001  2.100000e-001  4.050000e-001
    endloop
  endfacet
  facet normal  8.660254e-001  5.000000e-001  0.000000e+000
    outer loop
      vertex  1.195448e-001  3.329423e-001 -4.050000e-001
      vertex  1.195448e-001  3.329423e-001 -3.250000e-001
      vertex  1.905256e-001  2.100000e-001 -4.050000e-001
    endloop
  endfacet
  facet normal  8.660254e-001  5.000000e-001  -0.000000e+000
    outer loop
      vertex  1.905256e-001  2.100000e-001 -4.050000e-001
      vertex  1.195448e-001  3.329423e-001 -3.250000e-001
      vertex  1.905256e-001  2.100000e-001 -3.250000e-001
    endloop
  endfacet
  facet normal -8.660254e-001  5.000000e-001  0.000000e+000
    outer loop
      vertex -1.195448e-001  3.329423e-001  3.250000e-001
      vertex -1.905256e-001  2.100000e-001  3.250000e-001
      vertex -1.195448e-001  3.329423e-001  4.050000e-001
    endloop
  endfacet
  facet normal -8.660254e-001  5.000000e-001  0.000000e+000
    outer loop
      vertex -1.195448e-001  3.329423e-001  4.050000e-001
      vertex -1.905256e-001  2.100000e-001  3.250000e-001
      vertex -1.905256e-001  2.100000e-001  4.050000e-001
    endloop
  endfacet
  facet normal -8.660254e-001  5.000000e-001  0.000000e+000
    outer loop
      vertex -1.195448e-001  3.329423e-001 -4.050000e-001
      vertex -1.905256e-001  2.100000e-001 -4.050000e-001
      vertex -1.195448e-001  3.329423e-001 -3.250000e-001
    endloop
  endfacet
  facet normal -8.660254e-001  5.000000e-001  0.000000e+000
    outer loop
      vertex -1.195448e-001  3.329423e-001 -3.250000e-001
      vertex -1.905256e-001  2.100000e-001 -4.050000e-001
      vertex -1.905256e-001  2.100000e-001 -3.250000e-001
    endloop
  endfacet
  facet normal  8.660254e-001 -5.000000e-001  0.000000e+000
    outer loop
      vertex -1.905256e-001  2.000000e-001  4.500000e-001
      vertex -9.526280e-002  3.650000e-001  2.650000e-001
      vertex -9.526280e-002  3.650000e-001  4.500000e-001
    endloop
  endfacet
  facet normal  8.660254e-001 -4.999999e-001  0.000000e+000
    outer loop
      vertex -9.526280e-002  3.650000e-001  2.650000e-001
      vertex -1.905256e-001  2.000000e-001  4.500000e-001
      vertex -1.183568e-001  3.250000e-001  2.250000e-001
    endloop
  endfacet
  facet normal  8.660253e-001 -5.000000e-001  0.000000e+000
    outer loop
      vertex -1.183568e-001  3.250000e-001  2.250000e-001
      vertex -1.905256e-001  2.000000e-001  4.500000e-001
      vertex -1.905256e-001  2.000000e-001 -4.500000e-001
    endloop
  endfacet
  facet normal  8.660253e-001 -5.000000e-001  0.000000e+000
    outer loop
      vertex -1.183568e-001  3.250000e-001  2.250000e-001
      vertex -1.905256e-001  2.000000e-001 -4.500000e-001
      vertex -1.183568e-001  3.250000e-001 -2.250000e-001
    endloop
  endfacet
  facet normal  8.660254e-001 -5.000000e-001 -5.695138e-009
    outer loop
      vertex -1.183568e-001  3.250000e-001 -2.250000e-001
      vertex -1.905256e-001  2.000000e-001 -4.500000e-001
      vertex -9.526280e-002  3.650000e-001 -4.500000e-001
    endloop
  endfacet
  facet normal  8.660254e-001 -5.000000e-001  0.000000e+000
    outer loop
      vertex -1.183568e-001  3.250000e-001 -2.250000e-001
      vertex -9.526280e-002  3.650000e-001 -4.500000e-001
      vertex -9.526280e-002  3.650000e-001 -2.650000e-001
    endloop
  endfacet
  facet normal  0.000000e+000 -1.000000e+000  -0.000000e+000
    outer loop
      vertex  9.526280e-002  3.650000e-001 -4.500000e-001
      vertex  9.526280e-002  3.650000e-001 -2.650000e-001
      vertex -9.526280e-002  3.650000e-001 -4.500000e-001
    endloop
  endfacet
  facet normal  0.000000e+000 -1.000000e+000  0.000000e+000
    outer loop
      vertex -9.526280e-002  3.650000e-001 -4.500000e-001
      vertex  9.526280e-002  3.650000e-001 -2.650000e-001
      vertex -9.526280e-002  3.650000e-001 -2.650000e-001
    endloop
  endfacet
  facet normal  0.000000e+000 -1.000000e+000  -0.000000e+000
    outer loop
      vertex  9.526280e-002  3.650000e-001  2.650000e-001
      vertex  9.526280e-002  3.650000e-001  4.500000e-001
      vertex -9.526280e-002  3.650000e-001  2.650000e-001
    endloop
  endfacet
  facet normal  0.000000e+000 -1.000000e+000  0.000000e+000
    outer loop
      vertex -9.526280e-002  3.650000e-001  2.650000e-001
      vertex  9.526280e-002  3.650000e-001  4.500000e-001
      vertex -9.526280e-002  3.650000e-001  4.500000e-001
    endloop
  endfacet
  facet normal -8.660254e-001 -5.000000e-001  -0.000000e+000
    outer loop
      vertex  1.905256e-001  2.000000e-001 -4.500000e-001
      vertex  9.526280e-002  3.650000e-001 -2.650000e-001
      vertex  9.526280e-002  3.650000e-001 -4.500000e-001
    endloop
  endfacet
  facet normal -8.660254e-001 -4.999999e-001  0.000000e+000
    outer loop
      vertex  9.526280e-002  3.650000e-001 -2.650000e-001
      vertex  1.905256e-001  2.000000e-001 -4.500000e-001
      vertex  1.183568e-001  3.250000e-001 -2.250000e-001
    endloop
  endfacet
  facet normal -8.660253e-001 -5.000000e-001  0.000000e+000
    outer loop
      vertex  1.183568e-001  3.250000e-001 -2.250000e-001
      vertex  1.905256e-001  2.000000e-001 -4.500000e-001
      vertex  1.905256e-001  2.000000e-001  4.500000e-001
    endloop
  endfacet
  facet normal -8.660253e-001 -5.000000e-001  0.000000e+000
    outer loop
      vertex  1.183568e-001  3.250000e-001 -2.250000e-001
      vertex  1.905256e-001  2.000000e-001  4.500000e-001
      vertex  1.183568e-001  3.250000e-001  2.250000e-001
    endloop
  endfacet
  facet normal -8.660254e-001 -5.000000e-001  5.695138e-009
    outer loop
      vertex  1.183568e-001  3.250000e-001  2.250000e-001
      vertex  1.905256e-001  2.000000e-001  4.500000e-001
      vertex  9.526280e-002  3.650000e-001  4.500000e-001
    endloop
  endfacet
  facet normal -8.660254e-001 -5.000000e-001  -0.000000e+000
    outer loop
      vertex  1.183568e-001  3.250000e-001  2.250000e-001
      vertex  9.526280e-002  3.650000e-001  4.500000e-001
      vertex  9.526280e-002  3.650000e-001  2.650000e-001
    endloop
  endfacet
  facet normal  0.000000e+000  1.000000e+000  0.000000e+000
    outer loop
      vertex  1.183568e-001  3.250000e-001  2.250000e-001
      vertex  1.587713e-001  3.250000e-001  2.250000e-001
      vertex  1.183568e-001  3.250000e-001 -2.250000e-001
    endloop
  endfacet
  facet normal  0.000000e+000  1.000000e+000  0.000000e+000
    outer loop
      vertex  1.183568e-001  3.250000e-001 -2.250000e-001
      vertex  1.587713e-001  3.250000e-001  2.250000e-001
      vertex  1.587713e-001  3.250000e-001 -2.250000e-001
    endloop
  endfacet
  facet normal  0.000000e+000  1.000000e+000  0.000000e+000
    outer loop
      vertex -1.587713e-001  3.250000e-001  2.250000e-001
      vertex -1.183568e-001  3.250000e-001  2.250000e-001
      vertex -1.587713e-001  3.250000e-001 -2.250000e-001
    endloop
  endfacet
  facet normal  0.000000e+000  1.000000e+000  0.000000e+000
    outer loop
      vertex -1.587713e-001  3.250000e-001 -2.250000e-001
      vertex -1.183568e-001  3.250000e-001  2.250000e-001
      vertex -1.183568e-001  3.250000e-001 -2.250000e-001
    endloop
  endfacet
  facet normal  -0.000000e+000 -7.071068e-001 -7.071068e-001
    outer loop
      vertex -1.154701e-001  4.000000e-001 -4.850000e-001
      vertex  1.154701e-001  4.000000e-001 -4.850000e-001
      vertex -9.526280e-002  3.650000e-001 -4.500000e-001
    endloop
  endfacet
  facet normal  0.000000e+000 -7.071068e-001 -7.071068e-001
    outer loop
      vertex -9.526280e-002  3.650000e-001 -4.500000e-001
      vertex  1.154701e-001  4.000000e-001 -4.850000e-001
      vertex  9.526280e-002  3.650000e-001 -4.500000e-001
    endloop
  endfacet
  facet normal  0.000000e+000 -7.071068e-001  7.071068e-001
    outer loop
      vertex -1.154701e-001  4.000000e-001  4.850000e-001
      vertex -9.526280e-002  3.650000e-001  4.500000e-001
      vertex  1.154701e-001  4.000000e-001  4.850000e-001
    endloop
  endfacet
  facet normal  0.000000e+000 -7.071068e-001  7.071068e-001
    outer loop
      vertex  1.154701e-001  4.000000e-001  4.850000e-001
      vertex -9.526280e-002  3.650000e-001  4.500000e-001
      vertex  9.526280e-002  3.650000e-001  4.500000e-001
    endloop
  endfacet
endsolid CATIA STL
