solid CATIA STL
  facet normal  0.000000e+000 -1.000000e+000  0.000000e+000
    outer loop
      vertex  2.309401e-001 -5.000000e-002  4.850000e-001
      vertex -2.309401e-001 -5.000000e-002  4.850000e-001
      vertex  2.309401e-001 -5.000000e-002  2.600000e-001
    endloop
  endfacet
  facet normal  0.000000e+000 -1.000000e+000  0.000000e+000
    outer loop
      vertex  2.309401e-001 -5.000000e-002  2.600000e-001
      vertex -2.309401e-001 -5.000000e-002  4.850000e-001
      vertex -2.309401e-001 -5.000000e-002  2.600000e-001
    endloop
  endfacet
  facet normal  0.000000e+000 -1.000000e+000  0.000000e+000
    outer loop
      vertex  2.309401e-001 -5.000000e-002  2.600000e-001
      vertex -2.309401e-001 -5.000000e-002  2.600000e-001
      vertex  2.109401e-001 -5.000000e-002  2.400000e-001
    endloop
  endfacet
  facet normal  0.000000e+000 -1.000000e+000  0.000000e+000
    outer loop
      vertex  2.109401e-001 -5.000000e-002  2.400000e-001
      vertex -2.309401e-001 -5.000000e-002  2.600000e-001
      vertex -2.109401e-001 -5.000000e-002  2.400000e-001
    endloop
  endfacet
  facet normal  0.000000e+000 -1.000000e+000  0.000000e+000
    outer loop
      vertex  2.109401e-001 -5.000000e-002  2.400000e-001
      vertex -2.109401e-001 -5.000000e-002  2.400000e-001
      vertex  2.109401e-001 -5.000000e-002 -2.400000e-001
    endloop
  endfacet
  facet normal  0.000000e+000 -1.000000e+000  0.000000e+000
    outer loop
      vertex  2.109401e-001 -5.000000e-002 -2.400000e-001
      vertex -2.109401e-001 -5.000000e-002  2.400000e-001
      vertex -2.109401e-001 -5.000000e-002 -2.400000e-001
    endloop
  endfacet
  facet normal  0.000000e+000 -1.000000e+000  0.000000e+000
    outer loop
      vertex  2.109401e-001 -5.000000e-002 -2.400000e-001
      vertex -2.109401e-001 -5.000000e-002 -2.400000e-001
      vertex  2.309401e-001 -5.000000e-002 -2.600000e-001
    endloop
  endfacet
  facet normal  0.000000e+000 -1.000000e+000  0.000000e+000
    outer loop
      vertex  2.309401e-001 -5.000000e-002 -2.600000e-001
      vertex -2.109401e-001 -5.000000e-002 -2.400000e-001
      vertex -2.309401e-001 -5.000000e-002 -2.600000e-001
    endloop
  endfacet
  facet normal  0.000000e+000 -1.000000e+000  0.000000e+000
    outer loop
      vertex  2.309401e-001 -5.000000e-002 -2.600000e-001
      vertex -2.309401e-001 -5.000000e-002 -2.600000e-001
      vertex  2.309401e-001 -5.000000e-002 -4.850000e-001
    endloop
  endfacet
  facet normal  0.000000e+000 -1.000000e+000  0.000000e+000
    outer loop
      vertex  2.309401e-001 -5.000000e-002 -4.850000e-001
      vertex -2.309401e-001 -5.000000e-002 -2.600000e-001
      vertex -2.309401e-001 -5.000000e-002 -4.850000e-001
    endloop
  endfacet
  facet normal  1.000000e+000  0.000000e+000  0.000000e+000
    outer loop
      vertex  2.309401e-001  2.000000e-001 -4.850000e-001
      vertex  2.309401e-001  2.000000e-001 -4.200000e-001
      vertex  2.309401e-001 -5.000000e-002 -4.850000e-001
    endloop
  endfacet
  facet normal  9.999999e-001  0.000000e+000  0.000000e+000
    outer loop
      vertex  2.309401e-001 -5.000000e-002 -4.850000e-001
      vertex  2.309401e-001  2.000000e-001 -4.200000e-001
      vertex  2.309401e-001  8.000001e-002 -4.200000e-001
    endloop
  endfacet
  facet normal  9.999999e-001  0.000000e+000  0.000000e+000
    outer loop
      vertex  2.309401e-001 -5.000000e-002 -4.850000e-001
      vertex  2.309401e-001  8.000001e-002 -4.200000e-001
      vertex  2.309401e-001 -5.000000e-002 -2.600000e-001
    endloop
  endfacet
  facet normal  1.000000e+000  0.000000e+000  0.000000e+000
    outer loop
      vertex  2.309401e-001 -5.000000e-002 -2.600000e-001
      vertex  2.309401e-001  8.000001e-002 -4.200000e-001
      vertex  2.309401e-001  8.000001e-002 -3.100000e-001
    endloop
  endfacet
  facet normal  1.000000e+000  0.000000e+000  -0.000000e+000
    outer loop
      vertex  2.309401e-001 -5.000000e-002 -2.600000e-001
      vertex  2.309401e-001  8.000001e-002 -3.100000e-001
      vertex  2.309401e-001  2.000000e-001 -2.600000e-001
    endloop
  endfacet
  facet normal  1.000000e+000  0.000000e+000  0.000000e+000
    outer loop
      vertex  2.309401e-001  2.000000e-001 -2.600000e-001
      vertex  2.309401e-001  8.000001e-002 -3.100000e-001
      vertex  2.309401e-001  2.000000e-001 -3.100000e-001
    endloop
  endfacet
  facet normal  1.000000e+000  0.000000e+000  0.000000e+000
    outer loop
      vertex  2.309401e-001  2.000000e-001  2.600000e-001
      vertex  2.309401e-001  2.000000e-001  3.100000e-001
      vertex  2.309401e-001 -5.000000e-002  2.600000e-001
    endloop
  endfacet
  facet normal  1.000000e+000  0.000000e+000  0.000000e+000
    outer loop
      vertex  2.309401e-001 -5.000000e-002  2.600000e-001
      vertex  2.309401e-001  2.000000e-001  3.100000e-001
      vertex  2.309401e-001  8.000001e-002  3.100000e-001
    endloop
  endfacet
  facet normal  9.999999e-001  0.000000e+000  0.000000e+000
    outer loop
      vertex  2.309401e-001 -5.000000e-002  2.600000e-001
      vertex  2.309401e-001  8.000001e-002  3.100000e-001
      vertex  2.309401e-001 -5.000000e-002  4.850000e-001
    endloop
  endfacet
  facet normal  1.000000e+000  0.000000e+000  0.000000e+000
    outer loop
      vertex  2.309401e-001 -5.000000e-002  4.850000e-001
      vertex  2.309401e-001  8.000001e-002  3.100000e-001
      vertex  2.309401e-001  8.000001e-002  4.200000e-001
    endloop
  endfacet
  facet normal  1.000000e+000  0.000000e+000  -0.000000e+000
    outer loop
      vertex  2.309401e-001 -5.000000e-002  4.850000e-001
      vertex  2.309401e-001  8.000001e-002  4.200000e-001
      vertex  2.309401e-001  2.000000e-001  4.850000e-001
    endloop
  endfacet
  facet normal  9.999999e-001  0.000000e+000  0.000000e+000
    outer loop
      vertex  2.309401e-001  2.000000e-001  4.850000e-001
      vertex  2.309401e-001  8.000001e-002  4.200000e-001
      vertex  2.309401e-001  2.000000e-001  4.200000e-001
    endloop
  endfacet
  facet normal  8.660254e-001  5.000000e-001  -0.000000e+000
    outer loop
      vertex  2.309401e-001  2.000000e-001  3.100000e-001
      vertex  2.309401e-001  2.000000e-001  2.600000e-001
      vertex  1.905256e-001  2.700000e-001  3.100000e-001
    endloop
  endfacet
  facet normal  8.660253e-001  4.999999e-001  6.750592e-008
    outer loop
      vertex  1.905256e-001  2.700000e-001  3.100000e-001
      vertex  2.309401e-001  2.000000e-001  2.600000e-001
      vertex  2.109401e-001  2.346410e-001  2.400000e-001
    endloop
  endfacet
  facet normal  8.660253e-001  5.000001e-001  0.000000e+000
    outer loop
      vertex  1.905256e-001  2.700000e-001  3.100000e-001
      vertex  2.109401e-001  2.346410e-001  2.400000e-001
      vertex  1.905256e-001  2.700000e-001 -3.100000e-001
    endloop
  endfacet
  facet normal  8.660253e-001  5.000001e-001  0.000000e+000
    outer loop
      vertex  1.905256e-001  2.700000e-001 -3.100000e-001
      vertex  2.109401e-001  2.346410e-001  2.400000e-001
      vertex  2.109401e-001  2.346410e-001 -2.400000e-001
    endloop
  endfacet
  facet normal  8.660254e-001  5.000000e-001 -4.314938e-008
    outer loop
      vertex  1.905256e-001  2.700000e-001 -3.100000e-001
      vertex  2.109401e-001  2.346410e-001 -2.400000e-001
      vertex  2.309401e-001  2.000000e-001 -3.100000e-001
    endloop
  endfacet
  facet normal  8.660254e-001  5.000000e-001  -0.000000e+000
    outer loop
      vertex  2.309401e-001  2.000000e-001 -3.100000e-001
      vertex  2.109401e-001  2.346410e-001 -2.400000e-001
      vertex  2.309401e-001  2.000000e-001 -2.600000e-001
    endloop
  endfacet
  facet normal  7.071068e-001  0.000000e+000 -7.071068e-001
    outer loop
      vertex  2.309401e-001 -5.000000e-002  2.600000e-001
      vertex  2.109401e-001 -5.000000e-002  2.400000e-001
      vertex  2.309401e-001  2.000000e-001  2.600000e-001
    endloop
  endfacet
  facet normal  7.071068e-001  0.000000e+000 -7.071068e-001
    outer loop
      vertex  2.309401e-001  2.000000e-001  2.600000e-001
      vertex  2.109401e-001 -5.000000e-002  2.400000e-001
      vertex  2.109401e-001  2.346410e-001  2.400000e-001
    endloop
  endfacet
  facet normal  1.000000e+000  -0.000000e+000  0.000000e+000
    outer loop
      vertex  2.109401e-001  2.346410e-001  2.400000e-001
      vertex  2.109401e-001 -5.000000e-002  2.400000e-001
      vertex  2.109401e-001  2.346410e-001 -2.400000e-001
    endloop
  endfacet
  facet normal  1.000000e+000  0.000000e+000  0.000000e+000
    outer loop
      vertex  2.109401e-001  2.346410e-001 -2.400000e-001
      vertex  2.109401e-001 -5.000000e-002  2.400000e-001
      vertex  2.109401e-001 -5.000000e-002 -2.400000e-001
    endloop
  endfacet
  facet normal  7.071068e-001  0.000000e+000  7.071068e-001
    outer loop
      vertex  2.109401e-001 -5.000000e-002 -2.400000e-001
      vertex  2.309401e-001 -5.000000e-002 -2.600000e-001
      vertex  2.109401e-001  2.346410e-001 -2.400000e-001
    endloop
  endfacet
  facet normal  7.071068e-001  0.000000e+000  7.071068e-001
    outer loop
      vertex  2.109401e-001  2.346410e-001 -2.400000e-001
      vertex  2.309401e-001 -5.000000e-002 -2.600000e-001
      vertex  2.309401e-001  2.000000e-001 -2.600000e-001
    endloop
  endfacet
  facet normal -1.000000e+000  0.000000e+000  0.000000e+000
    outer loop
      vertex -2.309401e-001  2.000000e-001  4.850000e-001
      vertex -2.309401e-001  2.000000e-001  4.200000e-001
      vertex -2.309401e-001 -5.000000e-002  4.850000e-001
    endloop
  endfacet
  facet normal -9.999999e-001  0.000000e+000  0.000000e+000
    outer loop
      vertex -2.309401e-001 -5.000000e-002  4.850000e-001
      vertex -2.309401e-001  2.000000e-001  4.200000e-001
      vertex -2.309401e-001  8.000001e-002  4.200000e-001
    endloop
  endfacet
  facet normal -9.999999e-001  -0.000000e+000  0.000000e+000
    outer loop
      vertex -2.309401e-001 -5.000000e-002  4.850000e-001
      vertex -2.309401e-001  8.000001e-002  4.200000e-001
      vertex -2.309401e-001 -5.000000e-002  2.600000e-001
    endloop
  endfacet
  facet normal -1.000000e+000  0.000000e+000  0.000000e+000
    outer loop
      vertex -2.309401e-001 -5.000000e-002  2.600000e-001
      vertex -2.309401e-001  8.000001e-002  4.200000e-001
      vertex -2.309401e-001  8.000001e-002  3.100000e-001
    endloop
  endfacet
  facet normal -1.000000e+000  0.000000e+000  -0.000000e+000
    outer loop
      vertex -2.309401e-001 -5.000000e-002  2.600000e-001
      vertex -2.309401e-001  8.000001e-002  3.100000e-001
      vertex -2.309401e-001  2.000000e-001  2.600000e-001
    endloop
  endfacet
  facet normal -1.000000e+000  0.000000e+000  0.000000e+000
    outer loop
      vertex -2.309401e-001  2.000000e-001  2.600000e-001
      vertex -2.309401e-001  8.000001e-002  3.100000e-001
      vertex -2.309401e-001  2.000000e-001  3.100000e-001
    endloop
  endfacet
  facet normal -1.000000e+000  0.000000e+000  0.000000e+000
    outer loop
      vertex -2.309401e-001  2.000000e-001 -2.600000e-001
      vertex -2.309401e-001  2.000000e-001 -3.100000e-001
      vertex -2.309401e-001 -5.000000e-002 -2.600000e-001
    endloop
  endfacet
  facet normal -1.000000e+000  0.000000e+000  0.000000e+000
    outer loop
      vertex -2.309401e-001 -5.000000e-002 -2.600000e-001
      vertex -2.309401e-001  2.000000e-001 -3.100000e-001
      vertex -2.309401e-001  8.000001e-002 -3.100000e-001
    endloop
  endfacet
  facet normal -9.999999e-001  -0.000000e+000  0.000000e+000
    outer loop
      vertex -2.309401e-001 -5.000000e-002 -2.600000e-001
      vertex -2.309401e-001  8.000001e-002 -3.100000e-001
      vertex -2.309401e-001 -5.000000e-002 -4.850000e-001
    endloop
  endfacet
  facet normal -1.000000e+000  0.000000e+000  0.000000e+000
    outer loop
      vertex -2.309401e-001 -5.000000e-002 -4.850000e-001
      vertex -2.309401e-001  8.000001e-002 -3.100000e-001
      vertex -2.309401e-001  8.000001e-002 -4.200000e-001
    endloop
  endfacet
  facet normal -1.000000e+000  0.000000e+000  -0.000000e+000
    outer loop
      vertex -2.309401e-001 -5.000000e-002 -4.850000e-001
      vertex -2.309401e-001  8.000001e-002 -4.200000e-001
      vertex -2.309401e-001  2.000000e-001 -4.850000e-001
    endloop
  endfacet
  facet normal -9.999999e-001  0.000000e+000  0.000000e+000
    outer loop
      vertex -2.309401e-001  2.000000e-001 -4.850000e-001
      vertex -2.309401e-001  8.000001e-002 -4.200000e-001
      vertex -2.309401e-001  2.000000e-001 -4.200000e-001
    endloop
  endfacet
  facet normal -8.660254e-001  5.000000e-001  0.000000e+000
    outer loop
      vertex -2.309401e-001  2.000000e-001 -3.100000e-001
      vertex -2.309401e-001  2.000000e-001 -2.600000e-001
      vertex -1.905256e-001  2.700000e-001 -3.100000e-001
    endloop
  endfacet
  facet normal -8.660253e-001  4.999999e-001 -6.750592e-008
    outer loop
      vertex -1.905256e-001  2.700000e-001 -3.100000e-001
      vertex -2.309401e-001  2.000000e-001 -2.600000e-001
      vertex -2.109401e-001  2.346410e-001 -2.400000e-001
    endloop
  endfacet
  facet normal -8.660253e-001  5.000001e-001  0.000000e+000
    outer loop
      vertex -1.905256e-001  2.700000e-001 -3.100000e-001
      vertex -2.109401e-001  2.346410e-001 -2.400000e-001
      vertex -1.905256e-001  2.700000e-001  3.100000e-001
    endloop
  endfacet
  facet normal -8.660253e-001  5.000001e-001  0.000000e+000
    outer loop
      vertex -1.905256e-001  2.700000e-001  3.100000e-001
      vertex -2.109401e-001  2.346410e-001 -2.400000e-001
      vertex -2.109401e-001  2.346410e-001  2.400000e-001
    endloop
  endfacet
  facet normal -8.660254e-001  5.000000e-001  4.314938e-008
    outer loop
      vertex -1.905256e-001  2.700000e-001  3.100000e-001
      vertex -2.109401e-001  2.346410e-001  2.400000e-001
      vertex -2.309401e-001  2.000000e-001  3.100000e-001
    endloop
  endfacet
  facet normal -8.660254e-001  5.000000e-001  0.000000e+000
    outer loop
      vertex -2.309401e-001  2.000000e-001  3.100000e-001
      vertex -2.109401e-001  2.346410e-001  2.400000e-001
      vertex -2.309401e-001  2.000000e-001  2.600000e-001
    endloop
  endfacet
  facet normal -7.071068e-001  -0.000000e+000 -7.071068e-001
    outer loop
      vertex -2.309401e-001 -5.000000e-002  2.600000e-001
      vertex -2.309401e-001  2.000000e-001  2.600000e-001
      vertex -2.109401e-001 -5.000000e-002  2.400000e-001
    endloop
  endfacet
  facet normal -7.071068e-001  0.000000e+000 -7.071068e-001
    outer loop
      vertex -2.109401e-001 -5.000000e-002  2.400000e-001
      vertex -2.309401e-001  2.000000e-001  2.600000e-001
      vertex -2.109401e-001  2.346410e-001  2.400000e-001
    endloop
  endfacet
  facet normal -1.000000e+000  0.000000e+000  0.000000e+000
    outer loop
      vertex -2.109401e-001  2.346410e-001  2.400000e-001
      vertex -2.109401e-001  2.346410e-001 -2.400000e-001
      vertex -2.109401e-001 -5.000000e-002  2.400000e-001
    endloop
  endfacet
  facet normal -1.000000e+000  0.000000e+000  0.000000e+000
    outer loop
      vertex -2.109401e-001 -5.000000e-002  2.400000e-001
      vertex -2.109401e-001  2.346410e-001 -2.400000e-001
      vertex -2.109401e-001 -5.000000e-002 -2.400000e-001
    endloop
  endfacet
  facet normal -7.071068e-001  0.000000e+000  7.071068e-001
    outer loop
      vertex -2.109401e-001 -5.000000e-002 -2.400000e-001
      vertex -2.109401e-001  2.346410e-001 -2.400000e-001
      vertex -2.309401e-001 -5.000000e-002 -2.600000e-001
    endloop
  endfacet
  facet normal -7.071068e-001  0.000000e+000  7.071068e-001
    outer loop
      vertex -2.309401e-001 -5.000000e-002 -2.600000e-001
      vertex -2.109401e-001  2.346410e-001 -2.400000e-001
      vertex -2.309401e-001  2.000000e-001 -2.600000e-001
    endloop
  endfacet
  facet normal -8.660254e-001  5.000001e-001  0.000000e+000
    outer loop
      vertex -2.309401e-001  8.000001e-002  3.100000e-001
      vertex -2.309401e-001  8.000001e-002  4.200000e-001
      vertex -2.159401e-001  1.059808e-001  3.250000e-001
    endloop
  endfacet
  facet normal -8.660254e-001  5.000001e-001  0.000000e+000
    outer loop
      vertex -2.159401e-001  1.059808e-001  3.250000e-001
      vertex -2.309401e-001  8.000001e-002  4.200000e-001
      vertex -2.159401e-001  1.059808e-001  4.050000e-001
    endloop
  endfacet
  facet normal -8.660254e-001  5.000001e-001  0.000000e+000
    outer loop
      vertex -2.309401e-001  8.000001e-002 -4.200000e-001
      vertex -2.309401e-001  8.000001e-002 -3.100000e-001
      vertex -2.159401e-001  1.059808e-001 -4.050000e-001
    endloop
  endfacet
  facet normal -8.660254e-001  5.000001e-001  0.000000e+000
    outer loop
      vertex -2.159401e-001  1.059808e-001 -4.050000e-001
      vertex -2.309401e-001  8.000001e-002 -3.100000e-001
      vertex -2.159401e-001  1.059808e-001 -3.250000e-001
    endloop
  endfacet
  facet normal -6.123723e-001  3.535534e-001 -7.071068e-001
    outer loop
      vertex -2.309401e-001  2.000000e-001  4.200000e-001
      vertex -1.905256e-001  2.700000e-001  4.200000e-001
      vertex -2.159401e-001  1.959808e-001  4.050000e-001
    endloop
  endfacet
  facet normal -6.123725e-001  3.535534e-001 -7.071068e-001
    outer loop
      vertex -2.159401e-001  1.959808e-001  4.050000e-001
      vertex -1.905256e-001  2.700000e-001  4.200000e-001
      vertex -1.905256e-001  2.400000e-001  4.050000e-001
    endloop
  endfacet
  facet normal -8.660254e-001  5.000000e-001  0.000000e+000
    outer loop
      vertex -1.905256e-001  2.700000e-001  4.200000e-001
      vertex -2.309401e-001  2.000000e-001  4.200000e-001
      vertex -1.905256e-001  2.700000e-001  4.500000e-001
    endloop
  endfacet
  facet normal -8.660253e-001  5.000000e-001  0.000000e+000
    outer loop
      vertex -1.905256e-001  2.700000e-001  4.500000e-001
      vertex -2.309401e-001  2.000000e-001  4.200000e-001
      vertex -2.309401e-001  2.000000e-001  4.850000e-001
    endloop
  endfacet
  facet normal -6.123725e-001  3.535534e-001  7.071068e-001
    outer loop
      vertex -2.159401e-001  1.959808e-001  3.250000e-001
      vertex -1.905256e-001  2.400000e-001  3.250000e-001
      vertex -2.309401e-001  2.000000e-001  3.100000e-001
    endloop
  endfacet
  facet normal -6.123724e-001  3.535534e-001  7.071068e-001
    outer loop
      vertex -2.309401e-001  2.000000e-001  3.100000e-001
      vertex -1.905256e-001  2.400000e-001  3.250000e-001
      vertex -1.905256e-001  2.700000e-001  3.100000e-001
    endloop
  endfacet
  facet normal -6.123725e-001  3.535534e-001 -7.071069e-001
    outer loop
      vertex -2.159401e-001  1.959808e-001 -3.250000e-001
      vertex -2.309401e-001  2.000000e-001 -3.100000e-001
      vertex -1.905256e-001  2.400000e-001 -3.250000e-001
    endloop
  endfacet
  facet normal -6.123724e-001  3.535534e-001 -7.071068e-001
    outer loop
      vertex -1.905256e-001  2.400000e-001 -3.250000e-001
      vertex -2.309401e-001  2.000000e-001 -3.100000e-001
      vertex -1.905256e-001  2.700000e-001 -3.100000e-001
    endloop
  endfacet
  facet normal -6.123725e-001  3.535534e-001  7.071068e-001
    outer loop
      vertex -1.905256e-001  2.400000e-001 -4.050000e-001
      vertex -1.905256e-001  2.700000e-001 -4.200000e-001
      vertex -2.159401e-001  1.959808e-001 -4.050000e-001
    endloop
  endfacet
  facet normal -6.123723e-001  3.535534e-001  7.071068e-001
    outer loop
      vertex -2.159401e-001  1.959808e-001 -4.050000e-001
      vertex -1.905256e-001  2.700000e-001 -4.200000e-001
      vertex -2.309401e-001  2.000000e-001 -4.200000e-001
    endloop
  endfacet
  facet normal -8.660254e-001  5.000001e-001  0.000000e+000
    outer loop
      vertex -1.905256e-001  2.700000e-001 -4.500000e-001
      vertex -2.309401e-001  2.000000e-001 -4.850000e-001
      vertex -1.905256e-001  2.700000e-001 -4.200000e-001
    endloop
  endfacet
  facet normal -8.660253e-001  5.000000e-001  0.000000e+000
    outer loop
      vertex -1.905256e-001  2.700000e-001 -4.200000e-001
      vertex -2.309401e-001  2.000000e-001 -4.850000e-001
      vertex -2.309401e-001  2.000000e-001 -4.200000e-001
    endloop
  endfacet
  facet normal -7.071068e-001  0.000000e+000  7.071068e-001
    outer loop
      vertex -2.159401e-001  1.059808e-001  3.250000e-001
      vertex -2.159401e-001  1.659808e-001  3.250000e-001
      vertex -2.309401e-001  8.000001e-002  3.100000e-001
    endloop
  endfacet
  facet normal -7.071068e-001  0.000000e+000  7.071068e-001
    outer loop
      vertex -2.309401e-001  8.000001e-002  3.100000e-001
      vertex -2.159401e-001  1.659808e-001  3.250000e-001
      vertex -2.159401e-001  1.959808e-001  3.250000e-001
    endloop
  endfacet
  facet normal -7.071068e-001  0.000000e+000  7.071068e-001
    outer loop
      vertex -2.309401e-001  8.000001e-002  3.100000e-001
      vertex -2.159401e-001  1.959808e-001  3.250000e-001
      vertex -2.309401e-001  2.000000e-001  3.100000e-001
    endloop
  endfacet
  facet normal -7.071068e-001  0.000000e+000 -7.071068e-001
    outer loop
      vertex -2.309401e-001  2.000000e-001 -3.100000e-001
      vertex -2.159401e-001  1.959808e-001 -3.250000e-001
      vertex -2.309401e-001  8.000001e-002 -3.100000e-001
    endloop
  endfacet
  facet normal -7.071068e-001  0.000000e+000 -7.071068e-001
    outer loop
      vertex -2.309401e-001  8.000001e-002 -3.100000e-001
      vertex -2.159401e-001  1.959808e-001 -3.250000e-001
      vertex -2.159401e-001  1.659808e-001 -3.250000e-001
    endloop
  endfacet
  facet normal -7.071068e-001  -0.000000e+000 -7.071068e-001
    outer loop
      vertex -2.309401e-001  8.000001e-002 -3.100000e-001
      vertex -2.159401e-001  1.659808e-001 -3.250000e-001
      vertex -2.159401e-001  1.059808e-001 -3.250000e-001
    endloop
  endfacet
  facet normal -7.071068e-001  0.000000e+000  7.071068e-001
    outer loop
      vertex -2.309401e-001  8.000001e-002 -4.200000e-001
      vertex -2.159401e-001  1.059808e-001 -4.050000e-001
      vertex -2.309401e-001  2.000000e-001 -4.200000e-001
    endloop
  endfacet
  facet normal -7.071068e-001  0.000000e+000  7.071068e-001
    outer loop
      vertex -2.309401e-001  2.000000e-001 -4.200000e-001
      vertex -2.159401e-001  1.059808e-001 -4.050000e-001
      vertex -2.159401e-001  1.659808e-001 -4.050000e-001
    endloop
  endfacet
  facet normal -7.071068e-001  0.000000e+000  7.071068e-001
    outer loop
      vertex -2.309401e-001  2.000000e-001 -4.200000e-001
      vertex -2.159401e-001  1.659808e-001 -4.050000e-001
      vertex -2.159401e-001  1.959808e-001 -4.050000e-001
    endloop
  endfacet
  facet normal -7.071068e-001  -0.000000e+000 -7.071068e-001
    outer loop
      vertex -2.309401e-001  8.000001e-002  4.200000e-001
      vertex -2.309401e-001  2.000000e-001  4.200000e-001
      vertex -2.159401e-001  1.959808e-001  4.050000e-001
    endloop
  endfacet
  facet normal -7.071068e-001  -0.000000e+000 -7.071068e-001
    outer loop
      vertex -2.309401e-001  8.000001e-002  4.200000e-001
      vertex -2.159401e-001  1.959808e-001  4.050000e-001
      vertex -2.159401e-001  1.659808e-001  4.050000e-001
    endloop
  endfacet
  facet normal -7.071068e-001  -0.000000e+000 -7.071068e-001
    outer loop
      vertex -2.309401e-001  8.000001e-002  4.200000e-001
      vertex -2.159401e-001  1.659808e-001  4.050000e-001
      vertex -2.159401e-001  1.059808e-001  4.050000e-001
    endloop
  endfacet
  facet normal -1.000000e+000  -0.000000e+000  0.000000e+000
    outer loop
      vertex -2.159401e-001  1.059808e-001  4.050000e-001
      vertex -2.159401e-001  1.659808e-001  4.050000e-001
      vertex -2.159401e-001  1.059808e-001  3.250000e-001
    endloop
  endfacet
  facet normal -1.000000e+000  0.000000e+000  0.000000e+000
    outer loop
      vertex -2.159401e-001  1.059808e-001  3.250000e-001
      vertex -2.159401e-001  1.659808e-001  4.050000e-001
      vertex -2.159401e-001  1.659808e-001  3.250000e-001
    endloop
  endfacet
  facet normal -1.000000e+000  -0.000000e+000  0.000000e+000
    outer loop
      vertex -2.159401e-001  1.059808e-001 -3.250000e-001
      vertex -2.159401e-001  1.659808e-001 -3.250000e-001
      vertex -2.159401e-001  1.059808e-001 -4.050000e-001
    endloop
  endfacet
  facet normal -1.000000e+000  0.000000e+000  0.000000e+000
    outer loop
      vertex -2.159401e-001  1.059808e-001 -4.050000e-001
      vertex -2.159401e-001  1.659808e-001 -3.250000e-001
      vertex -2.159401e-001  1.659808e-001 -4.050000e-001
    endloop
  endfacet
  facet normal -8.660254e-001  5.000000e-001  0.000000e+000
    outer loop
      vertex -2.159401e-001  1.659808e-001 -3.250000e-001
      vertex -1.905256e-001  2.100000e-001 -3.250000e-001
      vertex -2.159401e-001  1.659808e-001 -4.050000e-001
    endloop
  endfacet
  facet normal -8.660254e-001  5.000000e-001  0.000000e+000
    outer loop
      vertex -2.159401e-001  1.659808e-001 -4.050000e-001
      vertex -1.905256e-001  2.100000e-001 -3.250000e-001
      vertex -1.905256e-001  2.100000e-001 -4.050000e-001
    endloop
  endfacet
  facet normal -8.660254e-001  5.000000e-001  0.000000e+000
    outer loop
      vertex -2.159401e-001  1.659808e-001  4.050000e-001
      vertex -1.905256e-001  2.100000e-001  4.050000e-001
      vertex -2.159401e-001  1.659808e-001  3.250000e-001
    endloop
  endfacet
  facet normal -8.660254e-001  5.000000e-001  0.000000e+000
    outer loop
      vertex -2.159401e-001  1.659808e-001  3.250000e-001
      vertex -1.905256e-001  2.100000e-001  4.050000e-001
      vertex -1.905256e-001  2.100000e-001  3.250000e-001
    endloop
  endfacet
  facet normal  0.000000e+000  0.000000e+000 -1.000000e+000
    outer loop
      vertex -2.159401e-001  1.959808e-001  4.050000e-001
      vertex -1.905256e-001  2.400000e-001  4.050000e-001
      vertex -2.159401e-001  1.659808e-001  4.050000e-001
    endloop
  endfacet
  facet normal  0.000000e+000  0.000000e+000 -1.000000e+000
    outer loop
      vertex -2.159401e-001  1.659808e-001  4.050000e-001
      vertex -1.905256e-001  2.400000e-001  4.050000e-001
      vertex -1.905256e-001  2.100000e-001  4.050000e-001
    endloop
  endfacet
  facet normal  0.000000e+000  0.000000e+000  9.999999e-001
    outer loop
      vertex -1.905256e-001  2.100000e-001  3.250000e-001
      vertex -1.905256e-001  2.400000e-001  3.250000e-001
      vertex -2.159401e-001  1.659808e-001  3.250000e-001
    endloop
  endfacet
  facet normal  0.000000e+000  0.000000e+000  9.999999e-001
    outer loop
      vertex -2.159401e-001  1.659808e-001  3.250000e-001
      vertex -1.905256e-001  2.400000e-001  3.250000e-001
      vertex -2.159401e-001  1.959808e-001  3.250000e-001
    endloop
  endfacet
  facet normal  0.000000e+000  0.000000e+000 -1.000000e+000
    outer loop
      vertex -1.905256e-001  2.100000e-001 -3.250000e-001
      vertex -2.159401e-001  1.659808e-001 -3.250000e-001
      vertex -1.905256e-001  2.400000e-001 -3.250000e-001
    endloop
  endfacet
  facet normal  0.000000e+000  0.000000e+000 -1.000000e+000
    outer loop
      vertex -1.905256e-001  2.400000e-001 -3.250000e-001
      vertex -2.159401e-001  1.659808e-001 -3.250000e-001
      vertex -2.159401e-001  1.959808e-001 -3.250000e-001
    endloop
  endfacet
  facet normal  0.000000e+000  0.000000e+000  9.999999e-001
    outer loop
      vertex -2.159401e-001  1.959808e-001 -4.050000e-001
      vertex -2.159401e-001  1.659808e-001 -4.050000e-001
      vertex -1.905256e-001  2.400000e-001 -4.050000e-001
    endloop
  endfacet
  facet normal  0.000000e+000  0.000000e+000  9.999999e-001
    outer loop
      vertex -1.905256e-001  2.400000e-001 -4.050000e-001
      vertex -2.159401e-001  1.659808e-001 -4.050000e-001
      vertex -1.905256e-001  2.100000e-001 -4.050000e-001
    endloop
  endfacet
  facet normal  8.660254e-001  5.000001e-001  0.000000e+000
    outer loop
      vertex  2.309401e-001  8.000001e-002 -4.200000e-001
      vertex  2.159401e-001  1.059808e-001 -4.050000e-001
      vertex  2.309401e-001  8.000001e-002 -3.100000e-001
    endloop
  endfacet
  facet normal  8.660254e-001  5.000001e-001  0.000000e+000
    outer loop
      vertex  2.309401e-001  8.000001e-002 -3.100000e-001
      vertex  2.159401e-001  1.059808e-001 -4.050000e-001
      vertex  2.159401e-001  1.059808e-001 -3.250000e-001
    endloop
  endfacet
  facet normal  8.660254e-001  5.000001e-001  0.000000e+000
    outer loop
      vertex  2.309401e-001  8.000001e-002  3.100000e-001
      vertex  2.159401e-001  1.059808e-001  3.250000e-001
      vertex  2.309401e-001  8.000001e-002  4.200000e-001
    endloop
  endfacet
  facet normal  8.660254e-001  5.000001e-001  0.000000e+000
    outer loop
      vertex  2.309401e-001  8.000001e-002  4.200000e-001
      vertex  2.159401e-001  1.059808e-001  3.250000e-001
      vertex  2.159401e-001  1.059808e-001  4.050000e-001
    endloop
  endfacet
  facet normal  6.123725e-001  3.535534e-001 -7.071068e-001
    outer loop
      vertex  2.159401e-001  1.959808e-001  4.050000e-001
      vertex  1.905256e-001  2.400000e-001  4.050000e-001
      vertex  2.309401e-001  2.000000e-001  4.200000e-001
    endloop
  endfacet
  facet normal  6.123724e-001  3.535534e-001 -7.071068e-001
    outer loop
      vertex  2.309401e-001  2.000000e-001  4.200000e-001
      vertex  1.905256e-001  2.400000e-001  4.050000e-001
      vertex  1.905256e-001  2.700000e-001  4.200000e-001
    endloop
  endfacet
  facet normal  8.660253e-001  5.000000e-001  0.000000e+000
    outer loop
      vertex  2.309401e-001  2.000000e-001  4.200000e-001
      vertex  1.905256e-001  2.700000e-001  4.200000e-001
      vertex  2.309401e-001  2.000000e-001  4.850000e-001
    endloop
  endfacet
  facet normal  8.660254e-001  5.000001e-001  0.000000e+000
    outer loop
      vertex  2.309401e-001  2.000000e-001  4.850000e-001
      vertex  1.905256e-001  2.700000e-001  4.200000e-001
      vertex  1.905256e-001  2.700000e-001  4.500000e-001
    endloop
  endfacet
  facet normal  6.123725e-001  3.535534e-001  7.071068e-001
    outer loop
      vertex  1.905256e-001  2.400000e-001  3.250000e-001
      vertex  2.159401e-001  1.959808e-001  3.250000e-001
      vertex  1.905256e-001  2.700000e-001  3.100000e-001
    endloop
  endfacet
  facet normal  6.123723e-001  3.535534e-001  7.071068e-001
    outer loop
      vertex  1.905256e-001  2.700000e-001  3.100000e-001
      vertex  2.159401e-001  1.959808e-001  3.250000e-001
      vertex  2.309401e-001  2.000000e-001  3.100000e-001
    endloop
  endfacet
  facet normal  6.123725e-001  3.535534e-001  7.071069e-001
    outer loop
      vertex  2.159401e-001  1.959808e-001 -4.050000e-001
      vertex  2.309401e-001  2.000000e-001 -4.200000e-001
      vertex  1.905256e-001  2.400000e-001 -4.050000e-001
    endloop
  endfacet
  facet normal  6.123724e-001  3.535534e-001  7.071068e-001
    outer loop
      vertex  1.905256e-001  2.400000e-001 -4.050000e-001
      vertex  2.309401e-001  2.000000e-001 -4.200000e-001
      vertex  1.905256e-001  2.700000e-001 -4.200000e-001
    endloop
  endfacet
  facet normal  8.660253e-001  5.000000e-001  -0.000000e+000
    outer loop
      vertex  2.309401e-001  2.000000e-001 -4.200000e-001
      vertex  2.309401e-001  2.000000e-001 -4.850000e-001
      vertex  1.905256e-001  2.700000e-001 -4.200000e-001
    endloop
  endfacet
  facet normal  8.660254e-001  5.000000e-001  0.000000e+000
    outer loop
      vertex  1.905256e-001  2.700000e-001 -4.200000e-001
      vertex  2.309401e-001  2.000000e-001 -4.850000e-001
      vertex  1.905256e-001  2.700000e-001 -4.500000e-001
    endloop
  endfacet
  facet normal  6.123725e-001  3.535534e-001 -7.071068e-001
    outer loop
      vertex  1.905256e-001  2.400000e-001 -3.250000e-001
      vertex  1.905256e-001  2.700000e-001 -3.100000e-001
      vertex  2.159401e-001  1.959808e-001 -3.250000e-001
    endloop
  endfacet
  facet normal  6.123723e-001  3.535534e-001 -7.071068e-001
    outer loop
      vertex  2.159401e-001  1.959808e-001 -3.250000e-001
      vertex  1.905256e-001  2.700000e-001 -3.100000e-001
      vertex  2.309401e-001  2.000000e-001 -3.100000e-001
    endloop
  endfacet
  facet normal  7.071068e-001  0.000000e+000 -7.071068e-001
    outer loop
      vertex  2.309401e-001  8.000001e-002 -3.100000e-001
      vertex  2.159401e-001  1.059808e-001 -3.250000e-001
      vertex  2.309401e-001  2.000000e-001 -3.100000e-001
    endloop
  endfacet
  facet normal  7.071068e-001  0.000000e+000 -7.071068e-001
    outer loop
      vertex  2.309401e-001  2.000000e-001 -3.100000e-001
      vertex  2.159401e-001  1.059808e-001 -3.250000e-001
      vertex  2.159401e-001  1.659808e-001 -3.250000e-001
    endloop
  endfacet
  facet normal  7.071068e-001  0.000000e+000 -7.071068e-001
    outer loop
      vertex  2.309401e-001  2.000000e-001 -3.100000e-001
      vertex  2.159401e-001  1.659808e-001 -3.250000e-001
      vertex  2.159401e-001  1.959808e-001 -3.250000e-001
    endloop
  endfacet
  facet normal  7.071068e-001  -0.000000e+000  7.071068e-001
    outer loop
      vertex  2.159401e-001  1.959808e-001  3.250000e-001
      vertex  2.159401e-001  1.659808e-001  3.250000e-001
      vertex  2.309401e-001  2.000000e-001  3.100000e-001
    endloop
  endfacet
  facet normal  7.071068e-001  0.000000e+000  7.071068e-001
    outer loop
      vertex  2.309401e-001  2.000000e-001  3.100000e-001
      vertex  2.159401e-001  1.659808e-001  3.250000e-001
      vertex  2.159401e-001  1.059808e-001  3.250000e-001
    endloop
  endfacet
  facet normal  7.071068e-001  0.000000e+000  7.071068e-001
    outer loop
      vertex  2.309401e-001  2.000000e-001  3.100000e-001
      vertex  2.159401e-001  1.059808e-001  3.250000e-001
      vertex  2.309401e-001  8.000001e-002  3.100000e-001
    endloop
  endfacet
  facet normal  7.071068e-001  0.000000e+000 -7.071068e-001
    outer loop
      vertex  2.159401e-001  1.059808e-001  4.050000e-001
      vertex  2.159401e-001  1.659808e-001  4.050000e-001
      vertex  2.309401e-001  8.000001e-002  4.200000e-001
    endloop
  endfacet
  facet normal  7.071068e-001  0.000000e+000 -7.071068e-001
    outer loop
      vertex  2.309401e-001  8.000001e-002  4.200000e-001
      vertex  2.159401e-001  1.659808e-001  4.050000e-001
      vertex  2.159401e-001  1.959808e-001  4.050000e-001
    endloop
  endfacet
  facet normal  7.071068e-001  0.000000e+000 -7.071068e-001
    outer loop
      vertex  2.309401e-001  8.000001e-002  4.200000e-001
      vertex  2.159401e-001  1.959808e-001  4.050000e-001
      vertex  2.309401e-001  2.000000e-001  4.200000e-001
    endloop
  endfacet
  facet normal  7.071068e-001  0.000000e+000  7.071068e-001
    outer loop
      vertex  2.309401e-001  2.000000e-001 -4.200000e-001
      vertex  2.159401e-001  1.959808e-001 -4.050000e-001
      vertex  2.309401e-001  8.000001e-002 -4.200000e-001
    endloop
  endfacet
  facet normal  7.071068e-001  0.000000e+000  7.071068e-001
    outer loop
      vertex  2.309401e-001  8.000001e-002 -4.200000e-001
      vertex  2.159401e-001  1.959808e-001 -4.050000e-001
      vertex  2.159401e-001  1.659808e-001 -4.050000e-001
    endloop
  endfacet
  facet normal  7.071068e-001  0.000000e+000  7.071068e-001
    outer loop
      vertex  2.309401e-001  8.000001e-002 -4.200000e-001
      vertex  2.159401e-001  1.659808e-001 -4.050000e-001
      vertex  2.159401e-001  1.059808e-001 -4.050000e-001
    endloop
  endfacet
  facet normal  1.000000e+000  0.000000e+000  0.000000e+000
    outer loop
      vertex  2.159401e-001  1.059808e-001 -3.250000e-001
      vertex  2.159401e-001  1.059808e-001 -4.050000e-001
      vertex  2.159401e-001  1.659808e-001 -3.250000e-001
    endloop
  endfacet
  facet normal  1.000000e+000  0.000000e+000  0.000000e+000
    outer loop
      vertex  2.159401e-001  1.659808e-001 -3.250000e-001
      vertex  2.159401e-001  1.059808e-001 -4.050000e-001
      vertex  2.159401e-001  1.659808e-001 -4.050000e-001
    endloop
  endfacet
  facet normal  1.000000e+000  0.000000e+000  0.000000e+000
    outer loop
      vertex  2.159401e-001  1.059808e-001  4.050000e-001
      vertex  2.159401e-001  1.059808e-001  3.250000e-001
      vertex  2.159401e-001  1.659808e-001  4.050000e-001
    endloop
  endfacet
  facet normal  1.000000e+000  0.000000e+000  0.000000e+000
    outer loop
      vertex  2.159401e-001  1.659808e-001  4.050000e-001
      vertex  2.159401e-001  1.059808e-001  3.250000e-001
      vertex  2.159401e-001  1.659808e-001  3.250000e-001
    endloop
  endfacet
  facet normal  8.660254e-001  5.000000e-001  -0.000000e+000
    outer loop
      vertex  2.159401e-001  1.659808e-001 -3.250000e-001
      vertex  2.159401e-001  1.659808e-001 -4.050000e-001
      vertex  1.905256e-001  2.100000e-001 -3.250000e-001
    endloop
  endfacet
  facet normal  8.660254e-001  5.000000e-001  0.000000e+000
    outer loop
      vertex  1.905256e-001  2.100000e-001 -3.250000e-001
      vertex  2.159401e-001  1.659808e-001 -4.050000e-001
      vertex  1.905256e-001  2.100000e-001 -4.050000e-001
    endloop
  endfacet
  facet normal  8.660254e-001  5.000000e-001  -0.000000e+000
    outer loop
      vertex  2.159401e-001  1.659808e-001  4.050000e-001
      vertex  2.159401e-001  1.659808e-001  3.250000e-001
      vertex  1.905256e-001  2.100000e-001  4.050000e-001
    endloop
  endfacet
  facet normal  8.660254e-001  5.000000e-001  0.000000e+000
    outer loop
      vertex  1.905256e-001  2.100000e-001  4.050000e-001
      vertex  2.159401e-001  1.659808e-001  3.250000e-001
      vertex  1.905256e-001  2.100000e-001  3.250000e-001
    endloop
  endfacet
  facet normal  0.000000e+000  0.000000e+000 -9.999999e-001
    outer loop
      vertex  1.905256e-001  2.100000e-001  4.050000e-001
      vertex  1.905256e-001  2.400000e-001  4.050000e-001
      vertex  2.159401e-001  1.659808e-001  4.050000e-001
    endloop
  endfacet
  facet normal  0.000000e+000  0.000000e+000 -9.999999e-001
    outer loop
      vertex  2.159401e-001  1.659808e-001  4.050000e-001
      vertex  1.905256e-001  2.400000e-001  4.050000e-001
      vertex  2.159401e-001  1.959808e-001  4.050000e-001
    endloop
  endfacet
  facet normal  0.000000e+000  0.000000e+000  1.000000e+000
    outer loop
      vertex  2.159401e-001  1.959808e-001  3.250000e-001
      vertex  1.905256e-001  2.400000e-001  3.250000e-001
      vertex  2.159401e-001  1.659808e-001  3.250000e-001
    endloop
  endfacet
  facet normal  0.000000e+000  0.000000e+000  1.000000e+000
    outer loop
      vertex  2.159401e-001  1.659808e-001  3.250000e-001
      vertex  1.905256e-001  2.400000e-001  3.250000e-001
      vertex  1.905256e-001  2.100000e-001  3.250000e-001
    endloop
  endfacet
  facet normal  0.000000e+000  0.000000e+000  1.000000e+000
    outer loop
      vertex  1.905256e-001  2.100000e-001 -4.050000e-001
      vertex  2.159401e-001  1.659808e-001 -4.050000e-001
      vertex  1.905256e-001  2.400000e-001 -4.050000e-001
    endloop
  endfacet
  facet normal  0.000000e+000  0.000000e+000  1.000000e+000
    outer loop
      vertex  1.905256e-001  2.400000e-001 -4.050000e-001
      vertex  2.159401e-001  1.659808e-001 -4.050000e-001
      vertex  2.159401e-001  1.959808e-001 -4.050000e-001
    endloop
  endfacet
  facet normal  0.000000e+000  0.000000e+000 -9.999999e-001
    outer loop
      vertex  2.159401e-001  1.959808e-001 -3.250000e-001
      vertex  2.159401e-001  1.659808e-001 -3.250000e-001
      vertex  1.905256e-001  2.400000e-001 -3.250000e-001
    endloop
  endfacet
  facet normal  0.000000e+000  0.000000e+000 -9.999999e-001
    outer loop
      vertex  1.905256e-001  2.400000e-001 -3.250000e-001
      vertex  2.159401e-001  1.659808e-001 -3.250000e-001
      vertex  1.905256e-001  2.100000e-001 -3.250000e-001
    endloop
  endfacet
  facet normal -1.000000e+000  0.000000e+000  0.000000e+000
    outer loop
      vertex  1.905256e-001  2.100000e-001 -3.250000e-001
      vertex  1.905256e-001  2.100000e-001  3.250000e-001
      vertex  1.905256e-001  2.400000e-001  3.250000e-001
    endloop
  endfacet
  facet normal -1.000000e+000  0.000000e+000  -0.000000e+000
    outer loop
      vertex  1.905256e-001  2.100000e-001 -3.250000e-001
      vertex  1.905256e-001  2.400000e-001  3.250000e-001
      vertex  1.905256e-001  2.700000e-001  3.100000e-001
    endloop
  endfacet
  facet normal -1.000000e+000  0.000000e+000  -0.000000e+000
    outer loop
      vertex  1.905256e-001  2.100000e-001 -3.250000e-001
      vertex  1.905256e-001  2.700000e-001  3.100000e-001
      vertex  1.905256e-001  2.700000e-001 -3.100000e-001
    endloop
  endfacet
  facet normal -1.000000e+000  0.000000e+000  0.000000e+000
    outer loop
      vertex  1.905256e-001  2.100000e-001 -3.250000e-001
      vertex  1.905256e-001  2.700000e-001 -3.100000e-001
      vertex  1.905256e-001  2.400000e-001 -3.250000e-001
    endloop
  endfacet
  facet normal -9.999999e-001  -0.000000e+000  0.000000e+000
    outer loop
      vertex  1.905256e-001  2.000000e-001  4.500000e-001
      vertex  1.905256e-001  2.700000e-001  4.500000e-001
      vertex  1.905256e-001  2.100000e-001  4.050000e-001
    endloop
  endfacet
  facet normal -1.000000e+000  -0.000000e+000  -0.000000e+000
    outer loop
      vertex  1.905256e-001  2.000000e-001  4.500000e-001
      vertex  1.905256e-001  2.100000e-001  4.050000e-001
      vertex  1.905256e-001  2.100000e-001  3.250000e-001
    endloop
  endfacet
  facet normal -1.000000e+000  -0.000000e+000  -0.000000e+000
    outer loop
      vertex  1.905256e-001  2.000000e-001  4.500000e-001
      vertex  1.905256e-001  2.100000e-001  3.250000e-001
      vertex  1.905256e-001  2.100000e-001 -3.250000e-001
    endloop
  endfacet
  facet normal -1.000000e+000  -0.000000e+000  -0.000000e+000
    outer loop
      vertex  1.905256e-001  2.000000e-001  4.500000e-001
      vertex  1.905256e-001  2.100000e-001 -3.250000e-001
      vertex  1.905256e-001  2.100000e-001 -4.050000e-001
    endloop
  endfacet
  facet normal -1.000000e+000  -0.000000e+000  0.000000e+000
    outer loop
      vertex  1.905256e-001  2.000000e-001  4.500000e-001
      vertex  1.905256e-001  2.100000e-001 -4.050000e-001
      vertex  1.905256e-001  2.000000e-001 -4.500000e-001
    endloop
  endfacet
  facet normal -1.000000e+000  0.000000e+000  0.000000e+000
    outer loop
      vertex  1.905256e-001  2.100000e-001  4.050000e-001
      vertex  1.905256e-001  2.700000e-001  4.500000e-001
      vertex  1.905256e-001  2.400000e-001  4.050000e-001
    endloop
  endfacet
  facet normal -1.000000e+000  0.000000e+000  0.000000e+000
    outer loop
      vertex  1.905256e-001  2.400000e-001  4.050000e-001
      vertex  1.905256e-001  2.700000e-001  4.500000e-001
      vertex  1.905256e-001  2.700000e-001  4.200000e-001
    endloop
  endfacet
  facet normal -1.000000e+000  0.000000e+000  0.000000e+000
    outer loop
      vertex  1.905256e-001  2.700000e-001 -4.500000e-001
      vertex  1.905256e-001  2.000000e-001 -4.500000e-001
      vertex  1.905256e-001  2.700000e-001 -4.200000e-001
    endloop
  endfacet
  facet normal -1.000000e+000  -0.000000e+000  0.000000e+000
    outer loop
      vertex  1.905256e-001  2.700000e-001 -4.200000e-001
      vertex  1.905256e-001  2.000000e-001 -4.500000e-001
      vertex  1.905256e-001  2.100000e-001 -4.050000e-001
    endloop
  endfacet
  facet normal -1.000000e+000  0.000000e+000  0.000000e+000
    outer loop
      vertex  1.905256e-001  2.700000e-001 -4.200000e-001
      vertex  1.905256e-001  2.100000e-001 -4.050000e-001
      vertex  1.905256e-001  2.400000e-001 -4.050000e-001
    endloop
  endfacet
  facet normal  1.000000e+000  0.000000e+000  0.000000e+000
    outer loop
      vertex -1.905256e-001  2.700000e-001  4.200000e-001
      vertex -1.905256e-001  2.100000e-001  4.050000e-001
      vertex -1.905256e-001  2.400000e-001  4.050000e-001
    endloop
  endfacet
  facet normal  1.000000e+000  0.000000e+000  -0.000000e+000
    outer loop
      vertex -1.905256e-001  2.100000e-001 -3.250000e-001
      vertex -1.905256e-001  2.400000e-001 -3.250000e-001
      vertex -1.905256e-001  2.700000e-001 -3.100000e-001
    endloop
  endfacet
  facet normal  1.000000e+000  0.000000e+000  -0.000000e+000
    outer loop
      vertex -1.905256e-001  2.100000e-001 -3.250000e-001
      vertex -1.905256e-001  2.700000e-001 -3.100000e-001
      vertex -1.905256e-001  2.700000e-001  3.100000e-001
    endloop
  endfacet
  facet normal  1.000000e+000  0.000000e+000  0.000000e+000
    outer loop
      vertex -1.905256e-001  2.100000e-001 -3.250000e-001
      vertex -1.905256e-001  2.700000e-001  3.100000e-001
      vertex -1.905256e-001  2.400000e-001  3.250000e-001
    endloop
  endfacet
  facet normal  1.000000e+000  0.000000e+000  0.000000e+000
    outer loop
      vertex -1.905256e-001  2.100000e-001 -3.250000e-001
      vertex -1.905256e-001  2.400000e-001  3.250000e-001
      vertex -1.905256e-001  2.100000e-001  3.250000e-001
    endloop
  endfacet
  facet normal  1.000000e+000  0.000000e+000  0.000000e+000
    outer loop
      vertex -1.905256e-001  2.000000e-001  4.500000e-001
      vertex -1.905256e-001  2.000000e-001 -4.500000e-001
      vertex -1.905256e-001  2.100000e-001 -4.050000e-001
    endloop
  endfacet
  facet normal  1.000000e+000  0.000000e+000  -0.000000e+000
    outer loop
      vertex -1.905256e-001  2.000000e-001  4.500000e-001
      vertex -1.905256e-001  2.100000e-001 -4.050000e-001
      vertex -1.905256e-001  2.100000e-001 -3.250000e-001
    endloop
  endfacet
  facet normal  1.000000e+000  0.000000e+000  -0.000000e+000
    outer loop
      vertex -1.905256e-001  2.000000e-001  4.500000e-001
      vertex -1.905256e-001  2.100000e-001 -3.250000e-001
      vertex -1.905256e-001  2.100000e-001  3.250000e-001
    endloop
  endfacet
  facet normal  1.000000e+000  0.000000e+000  -0.000000e+000
    outer loop
      vertex -1.905256e-001  2.000000e-001  4.500000e-001
      vertex -1.905256e-001  2.100000e-001  3.250000e-001
      vertex -1.905256e-001  2.100000e-001  4.050000e-001
    endloop
  endfacet
  facet normal  1.000000e+000  0.000000e+000  -0.000000e+000
    outer loop
      vertex -1.905256e-001  2.000000e-001  4.500000e-001
      vertex -1.905256e-001  2.100000e-001  4.050000e-001
      vertex -1.905256e-001  2.700000e-001  4.200000e-001
    endloop
  endfacet
  facet normal  1.000000e+000  0.000000e+000  -0.000000e+000
    outer loop
      vertex -1.905256e-001  2.000000e-001  4.500000e-001
      vertex -1.905256e-001  2.700000e-001  4.200000e-001
      vertex -1.905256e-001  2.700000e-001  4.500000e-001
    endloop
  endfacet
  facet normal  1.000000e+000  0.000000e+000  0.000000e+000
    outer loop
      vertex -1.905256e-001  2.700000e-001 -4.500000e-001
      vertex -1.905256e-001  2.700000e-001 -4.200000e-001
      vertex -1.905256e-001  2.000000e-001 -4.500000e-001
    endloop
  endfacet
  facet normal  9.999999e-001  0.000000e+000  0.000000e+000
    outer loop
      vertex -1.905256e-001  2.000000e-001 -4.500000e-001
      vertex -1.905256e-001  2.700000e-001 -4.200000e-001
      vertex -1.905256e-001  2.400000e-001 -4.050000e-001
    endloop
  endfacet
  facet normal  1.000000e+000  0.000000e+000  0.000000e+000
    outer loop
      vertex -1.905256e-001  2.000000e-001 -4.500000e-001
      vertex -1.905256e-001  2.400000e-001 -4.050000e-001
      vertex -1.905256e-001  2.100000e-001 -4.050000e-001
    endloop
  endfacet
  facet normal  0.000000e+000  0.000000e+000  9.999999e-001
    outer loop
      vertex -2.309401e-001 -5.000000e-002  4.850000e-001
      vertex -1.154701e-001 -1.385558e-016  4.850000e-001
      vertex -2.309401e-001  2.000000e-001  4.850000e-001
    endloop
  endfacet
  facet normal  0.000000e+000  0.000000e+000  1.000000e+000
    outer loop
      vertex -1.154701e-001 -1.385558e-016  4.850000e-001
      vertex -2.309401e-001 -5.000000e-002  4.850000e-001
      vertex  1.154701e-001 -1.525116e-016  4.850000e-001
    endloop
  endfacet
  facet normal  0.000000e+000  0.000000e+000  1.000000e+000
    outer loop
      vertex  1.154701e-001 -1.525116e-016  4.850000e-001
      vertex -2.309401e-001 -5.000000e-002  4.850000e-001
      vertex  2.309401e-001 -5.000000e-002  4.850000e-001
    endloop
  endfacet
  facet normal  0.000000e+000  -0.000000e+000  1.000000e+000
    outer loop
      vertex  1.154701e-001 -1.525116e-016  4.850000e-001
      vertex  2.309401e-001 -5.000000e-002  4.850000e-001
      vertex  2.309401e-001  2.000000e-001  4.850000e-001
    endloop
  endfacet
  facet normal  -0.000000e+000  0.000000e+000 -9.999999e-001
    outer loop
      vertex -2.309401e-001  2.000000e-001 -4.850000e-001
      vertex -1.154701e-001 -1.705303e-016 -4.850000e-001
      vertex -2.309401e-001 -5.000000e-002 -4.850000e-001
    endloop
  endfacet
  facet normal  0.000000e+000  0.000000e+000 -1.000000e+000
    outer loop
      vertex  2.309401e-001  2.000000e-001 -4.850000e-001
      vertex  2.309401e-001 -5.000000e-002 -4.850000e-001
      vertex  1.154701e-001 -1.385558e-016 -4.850000e-001
    endloop
  endfacet
  facet normal  0.000000e+000  -0.000000e+000 -1.000000e+000
    outer loop
      vertex  1.154701e-001 -1.385558e-016 -4.850000e-001
      vertex  2.309401e-001 -5.000000e-002 -4.850000e-001
      vertex -2.309401e-001 -5.000000e-002 -4.850000e-001
    endloop
  endfacet
  facet normal  0.000000e+000  0.000000e+000 -1.000000e+000
    outer loop
      vertex  1.154701e-001 -1.385558e-016 -4.850000e-001
      vertex -2.309401e-001 -5.000000e-002 -4.850000e-001
      vertex -1.154701e-001 -1.705303e-016 -4.850000e-001
    endloop
  endfacet
  facet normal  6.123725e-001  3.535534e-001  7.071068e-001
    outer loop
      vertex -9.526280e-002  3.500000e-002  4.500000e-001
      vertex -1.905256e-001  2.000000e-001  4.500000e-001
      vertex -1.154701e-001 -1.385558e-016  4.850000e-001
    endloop
  endfacet
  facet normal  6.123724e-001  3.535534e-001  7.071069e-001
    outer loop
      vertex -1.154701e-001 -1.385558e-016  4.850000e-001
      vertex -1.905256e-001  2.000000e-001  4.500000e-001
      vertex -2.309401e-001  2.000000e-001  4.850000e-001
    endloop
  endfacet
  facet normal  0.000000e+000  7.071068e-001  7.071068e-001
    outer loop
      vertex -9.526280e-002  3.500000e-002  4.500000e-001
      vertex -1.154701e-001 -1.385558e-016  4.850000e-001
      vertex  9.526280e-002  3.500000e-002  4.500000e-001
    endloop
  endfacet
  facet normal  0.000000e+000  7.071068e-001  7.071068e-001
    outer loop
      vertex  9.526280e-002  3.500000e-002  4.500000e-001
      vertex -1.154701e-001 -1.385558e-016  4.850000e-001
      vertex  1.154701e-001 -1.525116e-016  4.850000e-001
    endloop
  endfacet
  facet normal -6.123725e-001  3.535534e-001  7.071068e-001
    outer loop
      vertex  9.526280e-002  3.500000e-002  4.500000e-001
      vertex  1.154701e-001 -1.525116e-016  4.850000e-001
      vertex  1.905256e-001  2.000000e-001  4.500000e-001
    endloop
  endfacet
  facet normal -6.123725e-001  3.535534e-001  7.071068e-001
    outer loop
      vertex  1.905256e-001  2.000000e-001  4.500000e-001
      vertex  1.154701e-001 -1.525116e-016  4.850000e-001
      vertex  2.309401e-001  2.000000e-001  4.850000e-001
    endloop
  endfacet
  facet normal  6.123725e-001  3.535534e-001 -7.071068e-001
    outer loop
      vertex -9.526280e-002  3.500000e-002 -4.500000e-001
      vertex -1.154701e-001 -1.705303e-016 -4.850000e-001
      vertex -1.905256e-001  2.000000e-001 -4.500000e-001
    endloop
  endfacet
  facet normal  6.123725e-001  3.535534e-001 -7.071068e-001
    outer loop
      vertex -1.905256e-001  2.000000e-001 -4.500000e-001
      vertex -1.154701e-001 -1.705303e-016 -4.850000e-001
      vertex -2.309401e-001  2.000000e-001 -4.850000e-001
    endloop
  endfacet
  facet normal  0.000000e+000  7.071068e-001 -7.071068e-001
    outer loop
      vertex -9.526280e-002  3.500000e-002 -4.500000e-001
      vertex  9.526280e-002  3.500000e-002 -4.500000e-001
      vertex -1.154701e-001 -1.705303e-016 -4.850000e-001
    endloop
  endfacet
  facet normal -9.790128e-017  7.071068e-001 -7.071068e-001
    outer loop
      vertex -1.154701e-001 -1.705303e-016 -4.850000e-001
      vertex  9.526280e-002  3.500000e-002 -4.500000e-001
      vertex  1.154701e-001 -1.385558e-016 -4.850000e-001
    endloop
  endfacet
  facet normal -6.123725e-001  3.535534e-001 -7.071068e-001
    outer loop
      vertex  9.526280e-002  3.500000e-002 -4.500000e-001
      vertex  1.905256e-001  2.000000e-001 -4.500000e-001
      vertex  1.154701e-001 -1.385558e-016 -4.850000e-001
    endloop
  endfacet
  facet normal -6.123724e-001  3.535534e-001 -7.071069e-001
    outer loop
      vertex  1.154701e-001 -1.385558e-016 -4.850000e-001
      vertex  1.905256e-001  2.000000e-001 -4.500000e-001
      vertex  2.309401e-001  2.000000e-001 -4.850000e-001
    endloop
  endfacet
  facet normal  6.546536e-001  -0.000000e+000  7.559289e-001
    outer loop
      vertex -2.309401e-001  2.000000e-001  4.850000e-001
      vertex -1.905256e-001  2.000000e-001  4.500000e-001
      vertex -1.905256e-001  2.700000e-001  4.500000e-001
    endloop
  endfacet
  facet normal  6.546536e-001  0.000000e+000 -7.559289e-001
    outer loop
      vertex -1.905256e-001  2.700000e-001 -4.500000e-001
      vertex -1.905256e-001  2.000000e-001 -4.500000e-001
      vertex -2.309401e-001  2.000000e-001 -4.850000e-001
    endloop
  endfacet
  facet normal -6.546536e-001  0.000000e+000 -7.559289e-001
    outer loop
      vertex  2.309401e-001  2.000000e-001 -4.850000e-001
      vertex  1.905256e-001  2.000000e-001 -4.500000e-001
      vertex  1.905256e-001  2.700000e-001 -4.500000e-001
    endloop
  endfacet
  facet normal -6.546536e-001  0.000000e+000  7.559289e-001
    outer loop
      vertex  1.905256e-001  2.700000e-001  4.500000e-001
      vertex  1.905256e-001  2.000000e-001  4.500000e-001
      vertex  2.309401e-001  2.000000e-001  4.850000e-001
    endloop
  endfacet
  facet normal  8.660254e-001  5.000000e-001  0.000000e+000
    outer loop
      vertex -9.526280e-002  3.500000e-002 -4.500000e-001
      vertex -1.905256e-001  2.000000e-001 -4.500000e-001
      vertex -9.526280e-002  3.500000e-002  4.500000e-001
    endloop
  endfacet
  facet normal  8.660254e-001  5.000000e-001  0.000000e+000
    outer loop
      vertex -9.526280e-002  3.500000e-002  4.500000e-001
      vertex -1.905256e-001  2.000000e-001 -4.500000e-001
      vertex -1.905256e-001  2.000000e-001  4.500000e-001
    endloop
  endfacet
  facet normal  0.000000e+000  1.000000e+000  0.000000e+000
    outer loop
      vertex -9.526280e-002  3.500000e-002 -4.500000e-001
      vertex -9.526280e-002  3.500000e-002  4.500000e-001
      vertex  9.526280e-002  3.500000e-002 -4.500000e-001
    endloop
  endfacet
  facet normal  0.000000e+000  1.000000e+000  -0.000000e+000
    outer loop
      vertex  9.526280e-002  3.500000e-002 -4.500000e-001
      vertex -9.526280e-002  3.500000e-002  4.500000e-001
      vertex  9.526280e-002  3.500000e-002  4.500000e-001
    endloop
  endfacet
  facet normal -8.660254e-001  5.000000e-001  0.000000e+000
    outer loop
      vertex  9.526280e-002  3.500000e-002 -4.500000e-001
      vertex  9.526280e-002  3.500000e-002  4.500000e-001
      vertex  1.905256e-001  2.000000e-001 -4.500000e-001
    endloop
  endfacet
  facet normal -8.660254e-001  5.000000e-001  0.000000e+000
    outer loop
      vertex  1.905256e-001  2.000000e-001 -4.500000e-001
      vertex  9.526280e-002  3.500000e-002  4.500000e-001
      vertex  1.905256e-001  2.000000e-001  4.500000e-001
    endloop
  endfacet
endsolid CATIA STL
