solid CATIA STL
  facet normal  8.656424e-001  4.997789e-001  2.973664e-002
    outer loop
      vertex  2.500000e-001  2.995024e-001  1.686258e+000
      vertex  2.500000e-001  3.469873e-001  8.881862e-001
      vertex  2.114589e-001  3.662575e-001  1.686258e+000
    endloop
  endfacet
  facet normal  -0.000000e+000  9.993908e-001  3.489950e-002
    outer loop
      vertex  1.639732e-001  3.900000e-001  1.006363e+000
      vertex -1.639732e-001  3.900000e-001  1.006363e+000
      vertex  2.114589e-001  3.662575e-001  1.686258e+000
    endloop
  endfacet
  facet normal  0.000000e+000  9.993908e-001  3.489950e-002
    outer loop
      vertex  2.114589e-001  3.662575e-001  1.686258e+000
      vertex -1.639732e-001  3.900000e-001  1.006363e+000
      vertex -2.114589e-001  3.662575e-001  1.686258e+000
    endloop
  endfacet
  facet normal  0.000000e+000  9.396926e-001 -3.420202e-001
    outer loop
      vertex  1.905256e-001  3.300000e-001  5.276766e-001
      vertex -1.905256e-001  3.300000e-001  5.276766e-001
      vertex  1.558846e-001  3.900000e-001  6.925253e-001
    endloop
  endfacet
  facet normal  0.000000e+000  9.396926e-001 -3.420202e-001
    outer loop
      vertex  1.558846e-001  3.900000e-001  6.925253e-001
      vertex -1.905256e-001  3.300000e-001  5.276766e-001
      vertex -1.558846e-001  3.900000e-001  6.925253e-001
    endloop
  endfacet
  facet normal  9.999999e-001  0.000000e+000  0.000000e+000
    outer loop
      vertex  2.500000e-001  2.500813e-001  1.661547e+000
      vertex  2.500000e-001  2.500813e-001  3.684998e-001
      vertex  2.500000e-001  2.995024e-001  1.686258e+000
    endloop
  endfacet
  facet normal  1.000000e+000  0.000000e+000  0.000000e+000
    outer loop
      vertex  2.500000e-001  2.995024e-001  1.686258e+000
      vertex  2.500000e-001  2.500813e-001  3.684998e-001
      vertex  2.500000e-001  3.469873e-001  8.881862e-001
    endloop
  endfacet
  facet normal  5.000002e-001  8.660253e-001  -0.000000e+000
    outer loop
      vertex  2.700000e-001  2.385343e-001  1.673094e+000
      vertex  2.700000e-001  2.385343e-001 -1.730940e-001
      vertex  2.500000e-001  2.500813e-001  1.661547e+000
    endloop
  endfacet
  facet normal  5.000002e-001  8.660253e-001  0.000000e+000
    outer loop
      vertex  2.500000e-001  2.500813e-001  1.661547e+000
      vertex  2.700000e-001  2.385343e-001 -1.730940e-001
      vertex  2.500000e-001  2.500813e-001  3.684998e-001
    endloop
  endfacet
  facet normal  5.000002e-001  8.660253e-001  0.000000e+000
    outer loop
      vertex  2.700000e-001  2.385343e-001 -1.730940e-001
      vertex  2.300000e-001  2.616283e-001 -1.500000e-001
      vertex  2.500000e-001  2.500813e-001  3.684998e-001
    endloop
  endfacet
  facet normal  5.000002e-001  8.660253e-001  0.000000e+000
    outer loop
      vertex  2.500000e-001  2.500813e-001  3.684998e-001
      vertex  2.300000e-001  2.616283e-001 -1.500000e-001
      vertex  2.300000e-001  2.616283e-001  3.398269e-001
    endloop
  endfacet
  facet normal -9.999999e-001  0.000000e+000  0.000000e+000
    outer loop
      vertex -2.500000e-001  2.500813e-001  1.661547e+000
      vertex -2.500000e-001  2.995024e-001  1.686258e+000
      vertex -2.500000e-001  2.500813e-001  3.684998e-001
    endloop
  endfacet
  facet normal -1.000000e+000  0.000000e+000  0.000000e+000
    outer loop
      vertex -2.500000e-001  2.500813e-001  3.684998e-001
      vertex -2.500000e-001  2.995024e-001  1.686258e+000
      vertex -2.500000e-001  3.469873e-001  8.881862e-001
    endloop
  endfacet
  facet normal -5.000002e-001  8.660252e-001  0.000000e+000
    outer loop
      vertex -2.700000e-001  2.385343e-001  1.673094e+000
      vertex -2.500000e-001  2.500813e-001  1.661547e+000
      vertex -2.700000e-001  2.385343e-001 -1.730940e-001
    endloop
  endfacet
  facet normal -5.000002e-001  8.660253e-001  0.000000e+000
    outer loop
      vertex -2.700000e-001  2.385343e-001 -1.730940e-001
      vertex -2.500000e-001  2.500813e-001  1.661547e+000
      vertex -2.500000e-001  2.500813e-001  3.684998e-001
    endloop
  endfacet
  facet normal -5.000002e-001  8.660253e-001  0.000000e+000
    outer loop
      vertex -2.700000e-001  2.385343e-001 -1.730940e-001
      vertex -2.500000e-001  2.500813e-001  3.684998e-001
      vertex -2.300000e-001  2.616283e-001 -1.500000e-001
    endloop
  endfacet
  facet normal -5.000002e-001  8.660253e-001  0.000000e+000
    outer loop
      vertex -2.300000e-001  2.616283e-001 -1.500000e-001
      vertex -2.500000e-001  2.500813e-001  3.684998e-001
      vertex -2.300000e-001  2.616283e-001  3.398269e-001
    endloop
  endfacet
  facet normal -1.000000e+000  0.000000e+000  0.000000e+000
    outer loop
      vertex -2.700000e-001  2.385343e-001 -1.730940e-001
      vertex -2.700000e-001  1.923463e-001 -1.500000e-001
      vertex -2.700000e-001  2.385343e-001  1.673094e+000
    endloop
  endfacet
  facet normal -1.000000e+000  0.000000e+000  0.000000e+000
    outer loop
      vertex -2.700000e-001  2.385343e-001  1.673094e+000
      vertex -2.700000e-001  1.923463e-001 -1.500000e-001
      vertex -2.700000e-001  1.923463e-001  1.650000e+000
    endloop
  endfacet
  facet normal  1.000000e+000  0.000000e+000  0.000000e+000
    outer loop
      vertex  2.700000e-001  2.385343e-001 -1.730940e-001
      vertex  2.700000e-001  2.385343e-001  1.673094e+000
      vertex  2.700000e-001  1.923463e-001 -1.500000e-001
    endloop
  endfacet
  facet normal  1.000000e+000  0.000000e+000  0.000000e+000
    outer loop
      vertex  2.700000e-001  1.923463e-001 -1.500000e-001
      vertex  2.700000e-001  2.385343e-001  1.673094e+000
      vertex  2.700000e-001  1.923463e-001  1.650000e+000
    endloop
  endfacet
  facet normal -8.656424e-001  4.997789e-001  2.973664e-002
    outer loop
      vertex -2.114589e-001  3.662575e-001  1.686258e+000
      vertex -2.500000e-001  3.469873e-001  8.881862e-001
      vertex -2.500000e-001  2.995024e-001  1.686258e+000
    endloop
  endfacet
  facet normal -6.123726e-001  3.535535e-001  7.071066e-001
    outer loop
      vertex -2.300000e-001  2.616283e-001 -1.500000e-001
      vertex -1.905256e-001  3.300000e-001 -1.500000e-001
      vertex -2.700000e-001  2.385343e-001 -1.730940e-001
    endloop
  endfacet
  facet normal -6.123723e-001  3.535534e-001  7.071068e-001
    outer loop
      vertex -2.700000e-001  2.385343e-001 -1.730940e-001
      vertex -1.905256e-001  3.300000e-001 -1.500000e-001
      vertex -2.309401e-001  4.000000e-001 -2.200000e-001
    endloop
  endfacet
  facet normal -6.123724e-001  3.535534e-001  7.071068e-001
    outer loop
      vertex -2.700000e-001  2.385343e-001 -1.730940e-001
      vertex -2.309401e-001  4.000000e-001 -2.200000e-001
      vertex -4.618802e-001 -5.684342e-017 -2.200000e-001
    endloop
  endfacet
  facet normal -6.123724e-001  3.535534e-001  7.071068e-001
    outer loop
      vertex -4.618802e-001 -5.684342e-017 -2.200000e-001
      vertex -3.810512e-001 -5.684342e-017 -1.500000e-001
      vertex -2.700000e-001  2.385343e-001 -1.730940e-001
    endloop
  endfacet
  facet normal -6.123725e-001  3.535534e-001  7.071068e-001
    outer loop
      vertex -2.700000e-001  2.385343e-001 -1.730940e-001
      vertex -3.810512e-001 -5.684342e-017 -1.500000e-001
      vertex -2.700000e-001  1.923463e-001 -1.500000e-001
    endloop
  endfacet
  facet normal -8.660253e-001  5.000000e-001  0.000000e+000
    outer loop
      vertex -1.905256e-001  3.300000e-001 -1.500000e-001
      vertex -2.300000e-001  2.616283e-001 -1.500000e-001
      vertex -1.905256e-001  3.300000e-001  5.276766e-001
    endloop
  endfacet
  facet normal -8.660253e-001  5.000001e-001  0.000000e+000
    outer loop
      vertex -1.905256e-001  3.300000e-001  5.276766e-001
      vertex -2.300000e-001  2.616283e-001 -1.500000e-001
      vertex -2.300000e-001  2.616283e-001  3.398269e-001
    endloop
  endfacet
  facet normal -8.660254e-001  5.000000e-001  0.000000e+000
    outer loop
      vertex -2.700000e-001  1.923463e-001 -1.500000e-001
      vertex -3.810512e-001 -5.684342e-017 -1.500000e-001
      vertex -2.700000e-001  1.923463e-001  1.650000e+000
    endloop
  endfacet
  facet normal -8.660254e-001  5.000000e-001  0.000000e+000
    outer loop
      vertex -2.700000e-001  1.923463e-001  1.650000e+000
      vertex -3.810512e-001 -5.684342e-017 -1.500000e-001
      vertex -3.810512e-001 -5.684342e-016  1.650000e+000
    endloop
  endfacet
  facet normal  6.123725e-001  3.535534e-001  7.071068e-001
    outer loop
      vertex  2.700000e-001  1.923463e-001 -1.500000e-001
      vertex  3.810512e-001 -5.684342e-017 -1.500000e-001
      vertex  2.700000e-001  2.385343e-001 -1.730940e-001
    endloop
  endfacet
  facet normal  6.123724e-001  3.535534e-001  7.071068e-001
    outer loop
      vertex  3.810512e-001 -5.684342e-017 -1.500000e-001
      vertex  4.618802e-001  0.000000e+000 -2.200000e-001
      vertex  2.700000e-001  2.385343e-001 -1.730940e-001
    endloop
  endfacet
  facet normal  6.123724e-001  3.535534e-001  7.071068e-001
    outer loop
      vertex  2.700000e-001  2.385343e-001 -1.730940e-001
      vertex  4.618802e-001  0.000000e+000 -2.200000e-001
      vertex  2.309401e-001  4.000000e-001 -2.200000e-001
    endloop
  endfacet
  facet normal  6.123725e-001  3.535534e-001  7.071067e-001
    outer loop
      vertex  2.700000e-001  2.385343e-001 -1.730940e-001
      vertex  2.309401e-001  4.000000e-001 -2.200000e-001
      vertex  2.300000e-001  2.616283e-001 -1.500000e-001
    endloop
  endfacet
  facet normal  6.123724e-001  3.535534e-001  7.071068e-001
    outer loop
      vertex  2.300000e-001  2.616283e-001 -1.500000e-001
      vertex  2.309401e-001  4.000000e-001 -2.200000e-001
      vertex  1.905256e-001  3.300000e-001 -1.500000e-001
    endloop
  endfacet
  facet normal -6.123724e-001  3.535538e-001 -7.071066e-001
    outer loop
      vertex -2.500000e-001  2.995024e-001  1.686258e+000
      vertex -2.500000e-001  2.500813e-001  1.661547e+000
      vertex -2.700000e-001  2.385343e-001  1.673094e+000
    endloop
  endfacet
  facet normal -6.123729e-001  3.535539e-001 -7.071061e-001
    outer loop
      vertex -2.500000e-001  2.995024e-001  1.686258e+000
      vertex -2.700000e-001  2.385343e-001  1.673094e+000
      vertex -4.618802e-001  0.000000e+000  1.720000e+000
    endloop
  endfacet
  facet normal -6.123722e-001  3.535532e-001 -7.071071e-001
    outer loop
      vertex -2.500000e-001  2.995024e-001  1.686258e+000
      vertex -4.618802e-001  0.000000e+000  1.720000e+000
      vertex -2.309401e-001  4.000000e-001  1.720000e+000
    endloop
  endfacet
  facet normal -6.123722e-001  3.535533e-001 -7.071071e-001
    outer loop
      vertex -2.500000e-001  2.995024e-001  1.686258e+000
      vertex -2.309401e-001  4.000000e-001  1.720000e+000
      vertex -2.114589e-001  3.662575e-001  1.686258e+000
    endloop
  endfacet
  facet normal -6.123722e-001  3.535533e-001 -7.071071e-001
    outer loop
      vertex -2.700000e-001  1.923463e-001  1.650000e+000
      vertex -3.810512e-001 -5.684342e-016  1.650000e+000
      vertex -2.700000e-001  2.385343e-001  1.673094e+000
    endloop
  endfacet
  facet normal -6.123724e-001  3.535533e-001 -7.071068e-001
    outer loop
      vertex -2.700000e-001  2.385343e-001  1.673094e+000
      vertex -3.810512e-001 -5.684342e-016  1.650000e+000
      vertex -4.618802e-001  0.000000e+000  1.720000e+000
    endloop
  endfacet
  facet normal  8.660254e-001  5.000000e-001  0.000000e+000
    outer loop
      vertex  3.810512e-001 -5.684342e-017 -1.500000e-001
      vertex  2.700000e-001  1.923463e-001 -1.500000e-001
      vertex  3.810512e-001  2.842171e-017  1.650000e+000
    endloop
  endfacet
  facet normal  8.660254e-001  5.000000e-001  0.000000e+000
    outer loop
      vertex  3.810512e-001  2.842171e-017  1.650000e+000
      vertex  2.700000e-001  1.923463e-001 -1.500000e-001
      vertex  2.700000e-001  1.923463e-001  1.650000e+000
    endloop
  endfacet
  facet normal  8.660253e-001  5.000001e-001  0.000000e+000
    outer loop
      vertex  2.300000e-001  2.616283e-001 -1.500000e-001
      vertex  1.905256e-001  3.300000e-001 -1.500000e-001
      vertex  2.300000e-001  2.616283e-001  3.398269e-001
    endloop
  endfacet
  facet normal  8.660253e-001  5.000000e-001  0.000000e+000
    outer loop
      vertex  2.300000e-001  2.616283e-001  3.398269e-001
      vertex  1.905256e-001  3.300000e-001 -1.500000e-001
      vertex  1.905256e-001  3.300000e-001  5.276766e-001
    endloop
  endfacet
  facet normal  0.000000e+000  7.071064e-001 -7.071071e-001
    outer loop
      vertex -2.114589e-001  3.662575e-001  1.686258e+000
      vertex -2.309401e-001  4.000000e-001  1.720000e+000
      vertex  2.114589e-001  3.662575e-001  1.686258e+000
    endloop
  endfacet
  facet normal  0.000000e+000  7.071065e-001 -7.071071e-001
    outer loop
      vertex  2.114589e-001  3.662575e-001  1.686258e+000
      vertex -2.309401e-001  4.000000e-001  1.720000e+000
      vertex  2.309401e-001  4.000000e-001  1.720000e+000
    endloop
  endfacet
  facet normal  6.123724e-001  3.535538e-001 -7.071066e-001
    outer loop
      vertex  2.500000e-001  2.995024e-001  1.686258e+000
      vertex  2.700000e-001  2.385343e-001  1.673094e+000
      vertex  2.500000e-001  2.500813e-001  1.661547e+000
    endloop
  endfacet
  facet normal  6.123722e-001  3.535533e-001 -7.071071e-001
    outer loop
      vertex  2.114589e-001  3.662575e-001  1.686258e+000
      vertex  2.309401e-001  4.000000e-001  1.720000e+000
      vertex  2.500000e-001  2.995024e-001  1.686258e+000
    endloop
  endfacet
  facet normal  6.123722e-001  3.535533e-001 -7.071071e-001
    outer loop
      vertex  2.500000e-001  2.995024e-001  1.686258e+000
      vertex  2.309401e-001  4.000000e-001  1.720000e+000
      vertex  4.618802e-001 -2.273737e-016  1.720000e+000
    endloop
  endfacet
  facet normal  6.123729e-001  3.535539e-001 -7.071062e-001
    outer loop
      vertex  2.500000e-001  2.995024e-001  1.686258e+000
      vertex  4.618802e-001 -2.273737e-016  1.720000e+000
      vertex  2.700000e-001  2.385343e-001  1.673094e+000
    endloop
  endfacet
  facet normal  6.123724e-001  3.535533e-001 -7.071068e-001
    outer loop
      vertex  2.700000e-001  2.385343e-001  1.673094e+000
      vertex  4.618802e-001 -2.273737e-016  1.720000e+000
      vertex  3.810512e-001  2.842171e-017  1.650000e+000
    endloop
  endfacet
  facet normal  6.123722e-001  3.535533e-001 -7.071071e-001
    outer loop
      vertex  2.700000e-001  2.385343e-001  1.673094e+000
      vertex  3.810512e-001  2.842171e-017  1.650000e+000
      vertex  2.700000e-001  1.923463e-001  1.650000e+000
    endloop
  endfacet
  facet normal  0.000000e+000  9.999999e-001  0.000000e+000
    outer loop
      vertex  1.905256e-001  3.300000e-001 -1.500000e-001
      vertex -1.905256e-001  3.300000e-001 -1.500000e-001
      vertex  1.905256e-001  3.300000e-001  5.276766e-001
    endloop
  endfacet
  facet normal  0.000000e+000  9.999999e-001  0.000000e+000
    outer loop
      vertex  1.905256e-001  3.300000e-001  5.276766e-001
      vertex -1.905256e-001  3.300000e-001 -1.500000e-001
      vertex -1.905256e-001  3.300000e-001  5.276766e-001
    endloop
  endfacet
  facet normal  6.388376e-001  7.563052e-001 -1.410283e-001
    outer loop
      vertex  2.500000e-001  2.500813e-001  3.684998e-001
      vertex  2.300000e-001  2.616283e-001  3.398269e-001
      vertex  1.905256e-001  3.300000e-001  5.276766e-001
    endloop
  endfacet
  facet normal  6.388375e-001  7.563053e-001 -1.410284e-001
    outer loop
      vertex  2.500000e-001  2.500813e-001  3.684998e-001
      vertex  1.905256e-001  3.300000e-001  5.276766e-001
      vertex  1.558846e-001  3.900000e-001  6.925253e-001
    endloop
  endfacet
  facet normal  6.388373e-001  7.563053e-001 -1.410284e-001
    outer loop
      vertex  2.500000e-001  2.500813e-001  3.684998e-001
      vertex  1.558846e-001  3.900000e-001  6.925253e-001
      vertex  1.639732e-001  3.900000e-001  7.291656e-001
    endloop
  endfacet
  facet normal  6.388375e-001  7.563053e-001 -1.410284e-001
    outer loop
      vertex  2.500000e-001  2.500813e-001  3.684998e-001
      vertex  1.639732e-001  3.900000e-001  7.291656e-001
      vertex  2.500000e-001  3.469873e-001  8.881862e-001
    endloop
  endfacet
  facet normal -6.388375e-001  7.563052e-001 -1.410284e-001
    outer loop
      vertex -2.500000e-001  2.500813e-001  3.684998e-001
      vertex -2.500000e-001  3.469873e-001  8.881862e-001
      vertex -1.639732e-001  3.900000e-001  7.291656e-001
    endloop
  endfacet
  facet normal -6.388373e-001  7.563053e-001 -1.410284e-001
    outer loop
      vertex -2.500000e-001  2.500813e-001  3.684998e-001
      vertex -1.639732e-001  3.900000e-001  7.291656e-001
      vertex -1.558846e-001  3.900000e-001  6.925253e-001
    endloop
  endfacet
  facet normal -6.388374e-001  7.563053e-001 -1.410283e-001
    outer loop
      vertex -2.500000e-001  2.500813e-001  3.684998e-001
      vertex -1.558846e-001  3.900000e-001  6.925253e-001
      vertex -1.905256e-001  3.300000e-001  5.276766e-001
    endloop
  endfacet
  facet normal -6.388377e-001  7.563052e-001 -1.410283e-001
    outer loop
      vertex -2.500000e-001  2.500813e-001  3.684998e-001
      vertex -1.905256e-001  3.300000e-001  5.276766e-001
      vertex -2.300000e-001  2.616283e-001  3.398269e-001
    endloop
  endfacet
  facet normal -4.472080e-001  8.944300e-001  0.000000e+000
    outer loop
      vertex -1.639732e-001  3.900000e-001  1.006363e+000
      vertex -1.639732e-001  3.900000e-001  7.291656e-001
      vertex -2.114589e-001  3.662575e-001  1.686258e+000
    endloop
  endfacet
  facet normal -4.472078e-001  8.944302e-001  9.489845e-009
    outer loop
      vertex -2.114589e-001  3.662575e-001  1.686258e+000
      vertex -1.639732e-001  3.900000e-001  7.291656e-001
      vertex -2.500000e-001  3.469873e-001  8.881862e-001
    endloop
  endfacet
  facet normal  4.472080e-001  8.944300e-001  0.000000e+000
    outer loop
      vertex  1.639732e-001  3.900000e-001  1.006363e+000
      vertex  2.114589e-001  3.662575e-001  1.686258e+000
      vertex  1.639732e-001  3.900000e-001  7.291656e-001
    endloop
  endfacet
  facet normal  4.472078e-001  8.944302e-001  1.021983e-008
    outer loop
      vertex  1.639732e-001  3.900000e-001  7.291656e-001
      vertex  2.114589e-001  3.662575e-001  1.686258e+000
      vertex  2.500000e-001  3.469873e-001  8.881862e-001
    endloop
  endfacet
  facet normal  0.000000e+000  1.000000e+000  0.000000e+000
    outer loop
      vertex -1.639732e-001  3.900000e-001  1.006363e+000
      vertex  1.639732e-001  3.900000e-001  1.006363e+000
      vertex -1.639732e-001  3.900000e-001  7.291656e-001
    endloop
  endfacet
  facet normal  0.000000e+000  1.000000e+000  0.000000e+000
    outer loop
      vertex -1.639732e-001  3.900000e-001  7.291656e-001
      vertex  1.639732e-001  3.900000e-001  1.006363e+000
      vertex  1.639732e-001  3.900000e-001  7.291656e-001
    endloop
  endfacet
  facet normal  0.000000e+000  9.999999e-001  0.000000e+000
    outer loop
      vertex -1.639732e-001  3.900000e-001  7.291656e-001
      vertex  1.639732e-001  3.900000e-001  7.291656e-001
      vertex -1.558846e-001  3.900000e-001  6.925253e-001
    endloop
  endfacet
  facet normal  0.000000e+000  1.000000e+000  0.000000e+000
    outer loop
      vertex -1.558846e-001  3.900000e-001  6.925253e-001
      vertex  1.639732e-001  3.900000e-001  7.291656e-001
      vertex  1.558846e-001  3.900000e-001  6.925253e-001
    endloop
  endfacet
  facet normal  -0.000000e+000  0.000000e+000  1.000000e+000
    outer loop
      vertex  3.547006e-002  6.143594e-002  2.150000e+000
      vertex -3.547006e-002  6.143594e-002  2.150000e+000
      vertex -7.094011e-002 -2.557954e-016  2.150000e+000
    endloop
  endfacet
  facet normal  0.000000e+000  -0.000000e+000  1.000000e+000
    outer loop
      vertex -7.094011e-002 -2.557954e-016  2.150000e+000
      vertex -3.547006e-002  6.143594e-002  2.150000e+000
      vertex -3.286752e-001  2.307180e-001  2.150000e+000
    endloop
  endfacet
  facet normal  0.000000e+000  0.000000e+000  1.000000e+000
    outer loop
      vertex -7.094011e-002 -2.557954e-016  2.150000e+000
      vertex -3.286752e-001  2.307180e-001  2.150000e+000
      vertex -3.641452e-001  1.692820e-001  2.150000e+000
    endloop
  endfacet
  facet normal  0.000000e+000  0.000000e+000  1.000000e+000
    outer loop
      vertex  3.547006e-002  6.143594e-002  2.150000e+000
      vertex  3.641452e-001  1.692820e-001  2.150000e+000
      vertex  3.286752e-001  2.307180e-001  2.150000e+000
    endloop
  endfacet
  facet normal  -0.000000e+000  0.000000e+000  1.000000e+000
    outer loop
      vertex  3.641452e-001  1.692820e-001  2.150000e+000
      vertex  3.547006e-002  6.143594e-002  2.150000e+000
      vertex  7.094011e-002  1.989520e-016  2.150000e+000
    endloop
  endfacet
  facet normal  0.000000e+000  0.000000e+000  1.000000e+000
    outer loop
      vertex  7.094011e-002  1.989520e-016  2.150000e+000
      vertex  3.547006e-002  6.143594e-002  2.150000e+000
      vertex -3.547006e-002 -6.143594e-002  2.150000e+000
    endloop
  endfacet
  facet normal  0.000000e+000  0.000000e+000  1.000000e+000
    outer loop
      vertex  7.094011e-002  1.989520e-016  2.150000e+000
      vertex -3.547006e-002 -6.143594e-002  2.150000e+000
      vertex  3.547006e-002 -6.143594e-002  2.150000e+000
    endloop
  endfacet
  facet normal  0.000000e+000  0.000000e+000  1.000000e+000
    outer loop
      vertex  3.547006e-002 -6.143594e-002  2.150000e+000
      vertex -3.547006e-002 -6.143594e-002  2.150000e+000
      vertex -3.547006e-002 -4.000000e-001  2.150000e+000
    endloop
  endfacet
  facet normal  0.000000e+000  0.000000e+000  1.000000e+000
    outer loop
      vertex  3.547006e-002 -6.143594e-002  2.150000e+000
      vertex -3.547006e-002 -4.000000e-001  2.150000e+000
      vertex  3.547006e-002 -4.000000e-001  2.150000e+000
    endloop
  endfacet
  facet normal  0.000000e+000  0.000000e+000  1.000000e+000
    outer loop
      vertex  3.547006e-002 -6.143594e-002  2.150000e+000
      vertex  3.286752e-001 -2.307180e-001  2.150000e+000
      vertex  7.094011e-002  1.989520e-016  2.150000e+000
    endloop
  endfacet
  facet normal  0.000000e+000  0.000000e+000  9.999999e-001
    outer loop
      vertex  7.094011e-002  1.989520e-016  2.150000e+000
      vertex  3.286752e-001 -2.307180e-001  2.150000e+000
      vertex  3.641452e-001 -1.692820e-001  2.150000e+000
    endloop
  endfacet
  facet normal  0.000000e+000  -0.000000e+000  1.000000e+000
    outer loop
      vertex -3.641452e-001 -1.692820e-001  2.150000e+000
      vertex -3.286752e-001 -2.307180e-001  2.150000e+000
      vertex -7.094011e-002 -2.557954e-016  2.150000e+000
    endloop
  endfacet
  facet normal  0.000000e+000  0.000000e+000  1.000000e+000
    outer loop
      vertex -7.094011e-002 -2.557954e-016  2.150000e+000
      vertex -3.286752e-001 -2.307180e-001  2.150000e+000
      vertex -3.547006e-002 -6.143594e-002  2.150000e+000
    endloop
  endfacet
  facet normal  0.000000e+000  -0.000000e+000  1.000000e+000
    outer loop
      vertex -7.094011e-002 -2.557954e-016  2.150000e+000
      vertex -3.547006e-002 -6.143594e-002  2.150000e+000
      vertex  3.547006e-002  6.143594e-002  2.150000e+000
    endloop
  endfacet
  facet normal  0.000000e+000  0.000000e+000  1.000000e+000
    outer loop
      vertex -3.547006e-002  6.143594e-002  2.150000e+000
      vertex  3.547006e-002  6.143594e-002  2.150000e+000
      vertex -3.547006e-002  4.000000e-001  2.150000e+000
    endloop
  endfacet
  facet normal  -0.000000e+000  0.000000e+000  1.000000e+000
    outer loop
      vertex -3.547006e-002  4.000000e-001  2.150000e+000
      vertex  3.547006e-002  6.143594e-002  2.150000e+000
      vertex  3.547006e-002  4.000000e-001  2.150000e+000
    endloop
  endfacet
  facet normal  -0.000000e+000  0.000000e+000 -1.000000e+000
    outer loop
      vertex  3.286752e-001  2.307180e-001 -6.500000e-001
      vertex  3.641452e-001  1.692820e-001 -6.500000e-001
      vertex  3.547006e-002  6.143594e-002 -6.500000e-001
    endloop
  endfacet
  facet normal  0.000000e+000  0.000000e+000 -1.000000e+000
    outer loop
      vertex  3.547006e-002  6.143594e-002 -6.500000e-001
      vertex  3.641452e-001  1.692820e-001 -6.500000e-001
      vertex  7.094011e-002 -1.705303e-016 -6.500000e-001
    endloop
  endfacet
  facet normal  -0.000000e+000  0.000000e+000 -1.000000e+000
    outer loop
      vertex  3.547006e-002  6.143594e-002 -6.500000e-001
      vertex  7.094011e-002 -1.705303e-016 -6.500000e-001
      vertex -3.547006e-002 -6.143594e-002 -6.500000e-001
    endloop
  endfacet
  facet normal  0.000000e+000  0.000000e+000 -1.000000e+000
    outer loop
      vertex -3.547006e-002 -6.143594e-002 -6.500000e-001
      vertex  7.094011e-002 -1.705303e-016 -6.500000e-001
      vertex  3.547006e-002 -6.143594e-002 -6.500000e-001
    endloop
  endfacet
  facet normal  -0.000000e+000  0.000000e+000 -1.000000e+000
    outer loop
      vertex -3.547006e-002 -6.143594e-002 -6.500000e-001
      vertex  3.547006e-002 -6.143594e-002 -6.500000e-001
      vertex -3.547006e-002 -4.000000e-001 -6.500000e-001
    endloop
  endfacet
  facet normal  0.000000e+000  0.000000e+000 -1.000000e+000
    outer loop
      vertex -3.547006e-002 -4.000000e-001 -6.500000e-001
      vertex  3.547006e-002 -6.143594e-002 -6.500000e-001
      vertex  3.547006e-002 -4.000000e-001 -6.500000e-001
    endloop
  endfacet
  facet normal  -0.000000e+000  0.000000e+000 -1.000000e+000
    outer loop
      vertex -3.547006e-002  4.000000e-001 -6.500000e-001
      vertex  3.547006e-002  4.000000e-001 -6.500000e-001
      vertex -3.547006e-002  6.143594e-002 -6.500000e-001
    endloop
  endfacet
  facet normal  0.000000e+000  0.000000e+000 -1.000000e+000
    outer loop
      vertex -3.547006e-002  6.143594e-002 -6.500000e-001
      vertex  3.547006e-002  4.000000e-001 -6.500000e-001
      vertex  3.547006e-002  6.143594e-002 -6.500000e-001
    endloop
  endfacet
  facet normal  -0.000000e+000  0.000000e+000 -1.000000e+000
    outer loop
      vertex -3.547006e-002  6.143594e-002 -6.500000e-001
      vertex  3.547006e-002  6.143594e-002 -6.500000e-001
      vertex -7.094011e-002 -5.115908e-016 -6.500000e-001
    endloop
  endfacet
  facet normal  0.000000e+000  0.000000e+000 -1.000000e+000
    outer loop
      vertex -7.094011e-002 -5.115908e-016 -6.500000e-001
      vertex  3.547006e-002  6.143594e-002 -6.500000e-001
      vertex -3.547006e-002 -6.143594e-002 -6.500000e-001
    endloop
  endfacet
  facet normal  -0.000000e+000  0.000000e+000 -1.000000e+000
    outer loop
      vertex -7.094011e-002 -5.115908e-016 -6.500000e-001
      vertex -3.547006e-002 -6.143594e-002 -6.500000e-001
      vertex -3.641452e-001 -1.692820e-001 -6.500000e-001
    endloop
  endfacet
  facet normal  0.000000e+000  0.000000e+000 -1.000000e+000
    outer loop
      vertex -3.641452e-001 -1.692820e-001 -6.500000e-001
      vertex -3.547006e-002 -6.143594e-002 -6.500000e-001
      vertex -3.286752e-001 -2.307180e-001 -6.500000e-001
    endloop
  endfacet
  facet normal  0.000000e+000  -0.000000e+000 -1.000000e+000
    outer loop
      vertex  3.547006e-002 -6.143594e-002 -6.500000e-001
      vertex  7.094011e-002 -1.705303e-016 -6.500000e-001
      vertex  3.286752e-001 -2.307180e-001 -6.500000e-001
    endloop
  endfacet
  facet normal  0.000000e+000  0.000000e+000 -1.000000e+000
    outer loop
      vertex  3.286752e-001 -2.307180e-001 -6.500000e-001
      vertex  7.094011e-002 -1.705303e-016 -6.500000e-001
      vertex  3.641452e-001 -1.692820e-001 -6.500000e-001
    endloop
  endfacet
  facet normal  0.000000e+000  -0.000000e+000 -1.000000e+000
    outer loop
      vertex -3.641452e-001  1.692820e-001 -6.500000e-001
      vertex -3.286752e-001  2.307180e-001 -6.500000e-001
      vertex -7.094011e-002 -5.115908e-016 -6.500000e-001
    endloop
  endfacet
  facet normal  0.000000e+000  0.000000e+000 -1.000000e+000
    outer loop
      vertex -7.094011e-002 -5.115908e-016 -6.500000e-001
      vertex -3.286752e-001  2.307180e-001 -6.500000e-001
      vertex -3.547006e-002  6.143594e-002 -6.500000e-001
    endloop
  endfacet
  facet normal -8.660254e-001  0.000000e+000  5.000000e-001
    outer loop
      vertex  9.320508e-002 -3.000000e-001  2.250000e+000
      vertex  9.320508e-002 -1.614359e-001  2.250000e+000
      vertex  3.547006e-002 -4.000000e-001  2.150000e+000
    endloop
  endfacet
  facet normal -8.660254e-001  0.000000e+000  5.000000e-001
    outer loop
      vertex  3.547006e-002 -4.000000e-001  2.150000e+000
      vertex  9.320508e-002 -1.614359e-001  2.250000e+000
      vertex  3.547006e-002 -6.143594e-002  2.150000e+000
    endloop
  endfacet
  facet normal  8.660254e-001  0.000000e+000  5.000000e-001
    outer loop
      vertex -3.547006e-002 -4.000000e-001  2.150000e+000
      vertex -3.547006e-002 -6.143594e-002  2.150000e+000
      vertex -9.320508e-002 -3.000000e-001  2.250000e+000
    endloop
  endfacet
  facet normal  8.660254e-001  -0.000000e+000  5.000000e-001
    outer loop
      vertex -9.320508e-002 -3.000000e-001  2.250000e+000
      vertex -3.547006e-002 -6.143594e-002  2.150000e+000
      vertex -9.320508e-002 -1.614359e-001  2.250000e+000
    endloop
  endfacet
  facet normal  8.660254e-001  0.000000e+000 -5.000000e-001
    outer loop
      vertex -3.547006e-002  6.143594e-002 -6.500000e-001
      vertex -9.320508e-002  1.614359e-001 -7.500001e-001
      vertex -3.547006e-002  4.000000e-001 -6.500000e-001
    endloop
  endfacet
  facet normal  8.660254e-001  0.000000e+000 -5.000000e-001
    outer loop
      vertex -3.547006e-002  4.000000e-001 -6.500000e-001
      vertex -9.320508e-002  1.614359e-001 -7.500001e-001
      vertex -9.320508e-002  3.000000e-001 -7.500001e-001
    endloop
  endfacet
  facet normal -8.660255e-001  0.000000e+000 -5.000000e-001
    outer loop
      vertex  9.320508e-002  1.614359e-001 -7.500001e-001
      vertex  3.547006e-002  6.143594e-002 -6.500000e-001
      vertex  9.320508e-002  3.000000e-001 -7.500001e-001
    endloop
  endfacet
  facet normal -8.660254e-001  0.000000e+000 -5.000000e-001
    outer loop
      vertex  9.320508e-002  3.000000e-001 -7.500001e-001
      vertex  3.547006e-002  6.143594e-002 -6.500000e-001
      vertex  3.547006e-002  4.000000e-001 -6.500000e-001
    endloop
  endfacet
  facet normal  8.660254e-001  0.000000e+000 -5.000000e-001
    outer loop
      vertex -3.547006e-002 -4.000000e-001 -6.500000e-001
      vertex -9.320508e-002 -3.000000e-001 -7.500001e-001
      vertex -3.547006e-002 -6.143594e-002 -6.500000e-001
    endloop
  endfacet
  facet normal  8.660255e-001  0.000000e+000 -5.000000e-001
    outer loop
      vertex -3.547006e-002 -6.143594e-002 -6.500000e-001
      vertex -9.320508e-002 -3.000000e-001 -7.500001e-001
      vertex -9.320508e-002 -1.614359e-001 -7.500001e-001
    endloop
  endfacet
  facet normal -8.660254e-001  0.000000e+000 -5.000000e-001
    outer loop
      vertex  9.320508e-002 -3.000000e-001 -7.500001e-001
      vertex  3.547006e-002 -4.000000e-001 -6.500000e-001
      vertex  9.320508e-002 -1.614359e-001 -7.500001e-001
    endloop
  endfacet
  facet normal -8.660254e-001  0.000000e+000 -5.000000e-001
    outer loop
      vertex  9.320508e-002 -1.614359e-001 -7.500001e-001
      vertex  3.547006e-002 -4.000000e-001 -6.500000e-001
      vertex  3.547006e-002 -6.143594e-002 -6.500000e-001
    endloop
  endfacet
  facet normal -8.660254e-001  0.000000e+000  5.000000e-001
    outer loop
      vertex  9.320508e-002  1.614359e-001  2.250000e+000
      vertex  9.320508e-002  3.000000e-001  2.250000e+000
      vertex  3.547006e-002  6.143594e-002  2.150000e+000
    endloop
  endfacet
  facet normal -8.660254e-001  0.000000e+000  5.000000e-001
    outer loop
      vertex  3.547006e-002  6.143594e-002  2.150000e+000
      vertex  9.320508e-002  3.000000e-001  2.250000e+000
      vertex  3.547006e-002  4.000000e-001  2.150000e+000
    endloop
  endfacet
  facet normal  8.660254e-001  0.000000e+000  5.000000e-001
    outer loop
      vertex -3.547006e-002  6.143594e-002  2.150000e+000
      vertex -3.547006e-002  4.000000e-001  2.150000e+000
      vertex -9.320508e-002  1.614359e-001  2.250000e+000
    endloop
  endfacet
  facet normal  8.660254e-001  -0.000000e+000  5.000000e-001
    outer loop
      vertex -9.320508e-002  1.614359e-001  2.250000e+000
      vertex -3.547006e-002  4.000000e-001  2.150000e+000
      vertex -9.320508e-002  3.000000e-001  2.250000e+000
    endloop
  endfacet
  facet normal  0.000000e+000  7.071067e-001 -7.071067e-001
    outer loop
      vertex -1.732051e-001  3.000000e-001 -7.500001e-001
      vertex -2.309401e-001  4.000000e-001 -6.500000e-001
      vertex -9.320508e-002  3.000000e-001 -7.500001e-001
    endloop
  endfacet
  facet normal  0.000000e+000  7.071068e-001 -7.071068e-001
    outer loop
      vertex -9.320508e-002  3.000000e-001 -7.500001e-001
      vertex -2.309401e-001  4.000000e-001 -6.500000e-001
      vertex -3.547006e-002  4.000000e-001 -6.500000e-001
    endloop
  endfacet
  facet normal  0.000000e+000  7.071068e-001 -7.071068e-001
    outer loop
      vertex  9.320508e-002  3.000000e-001 -7.500001e-001
      vertex  3.547006e-002  4.000000e-001 -6.500000e-001
      vertex  1.732051e-001  3.000000e-001 -7.500001e-001
    endloop
  endfacet
  facet normal  0.000000e+000  7.071067e-001 -7.071067e-001
    outer loop
      vertex  1.732051e-001  3.000000e-001 -7.500001e-001
      vertex  3.547006e-002  4.000000e-001 -6.500000e-001
      vertex  2.309401e-001  4.000000e-001 -6.500000e-001
    endloop
  endfacet
  facet normal  0.000000e+000 -7.071067e-001  7.071067e-001
    outer loop
      vertex  2.309401e-001 -4.000000e-001  2.150000e+000
      vertex  1.732051e-001 -3.000000e-001  2.250000e+000
      vertex  3.547006e-002 -4.000000e-001  2.150000e+000
    endloop
  endfacet
  facet normal  0.000000e+000 -7.071068e-001  7.071068e-001
    outer loop
      vertex  3.547006e-002 -4.000000e-001  2.150000e+000
      vertex  1.732051e-001 -3.000000e-001  2.250000e+000
      vertex  9.320508e-002 -3.000000e-001  2.250000e+000
    endloop
  endfacet
  facet normal  0.000000e+000 -7.071068e-001  7.071068e-001
    outer loop
      vertex -3.547006e-002 -4.000000e-001  2.150000e+000
      vertex -9.320508e-002 -3.000000e-001  2.250000e+000
      vertex -2.309401e-001 -4.000000e-001  2.150000e+000
    endloop
  endfacet
  facet normal  0.000000e+000 -7.071067e-001  7.071067e-001
    outer loop
      vertex -2.309401e-001 -4.000000e-001  2.150000e+000
      vertex -9.320508e-002 -3.000000e-001  2.250000e+000
      vertex -1.732051e-001 -3.000000e-001  2.250000e+000
    endloop
  endfacet
  facet normal  0.000000e+000  7.071067e-001  7.071067e-001
    outer loop
      vertex -2.309401e-001  4.000000e-001  2.150000e+000
      vertex -1.732051e-001  3.000000e-001  2.250000e+000
      vertex -3.547006e-002  4.000000e-001  2.150000e+000
    endloop
  endfacet
  facet normal  0.000000e+000  7.071068e-001  7.071068e-001
    outer loop
      vertex -3.547006e-002  4.000000e-001  2.150000e+000
      vertex -1.732051e-001  3.000000e-001  2.250000e+000
      vertex -9.320508e-002  3.000000e-001  2.250000e+000
    endloop
  endfacet
  facet normal  0.000000e+000  7.071068e-001  7.071068e-001
    outer loop
      vertex  3.547006e-002  4.000000e-001  2.150000e+000
      vertex  9.320508e-002  3.000000e-001  2.250000e+000
      vertex  2.309401e-001  4.000000e-001  2.150000e+000
    endloop
  endfacet
  facet normal  0.000000e+000  7.071067e-001  7.071067e-001
    outer loop
      vertex  2.309401e-001  4.000000e-001  2.150000e+000
      vertex  9.320508e-002  3.000000e-001  2.250000e+000
      vertex  1.732051e-001  3.000000e-001  2.250000e+000
    endloop
  endfacet
  facet normal  0.000000e+000 -7.071067e-001 -7.071067e-001
    outer loop
      vertex  1.732051e-001 -3.000000e-001 -7.500001e-001
      vertex  2.309401e-001 -4.000000e-001 -6.500000e-001
      vertex  9.320508e-002 -3.000000e-001 -7.500001e-001
    endloop
  endfacet
  facet normal  0.000000e+000 -7.071068e-001 -7.071068e-001
    outer loop
      vertex  9.320508e-002 -3.000000e-001 -7.500001e-001
      vertex  2.309401e-001 -4.000000e-001 -6.500000e-001
      vertex  3.547006e-002 -4.000000e-001 -6.500000e-001
    endloop
  endfacet
  facet normal  0.000000e+000 -7.071068e-001 -7.071068e-001
    outer loop
      vertex -9.320508e-002 -3.000000e-001 -7.500001e-001
      vertex -3.547006e-002 -4.000000e-001 -6.500000e-001
      vertex -1.732051e-001 -3.000000e-001 -7.500001e-001
    endloop
  endfacet
  facet normal  0.000000e+000 -7.071067e-001 -7.071067e-001
    outer loop
      vertex -1.732051e-001 -3.000000e-001 -7.500001e-001
      vertex -3.547006e-002 -4.000000e-001 -6.500000e-001
      vertex -2.309401e-001 -4.000000e-001 -6.500000e-001
    endloop
  endfacet
  facet normal  4.330127e-001  7.499999e-001  5.000000e-001
    outer loop
      vertex  9.320508e-002 -1.614359e-001  2.250000e+000
      vertex  2.132051e-001 -2.307180e-001  2.250000e+000
      vertex  3.547006e-002 -6.143594e-002  2.150000e+000
    endloop
  endfacet
  facet normal  4.330128e-001  7.500000e-001  5.000001e-001
    outer loop
      vertex  3.547006e-002 -6.143594e-002  2.150000e+000
      vertex  2.132051e-001 -2.307180e-001  2.250000e+000
      vertex  3.286752e-001 -2.307180e-001  2.150000e+000
    endloop
  endfacet
  facet normal  4.330129e-001  7.500001e-001 -4.999999e-001
    outer loop
      vertex  9.320508e-002 -1.614359e-001 -7.500001e-001
      vertex  3.547006e-002 -6.143594e-002 -6.500000e-001
      vertex  2.132051e-001 -2.307180e-001 -7.500001e-001
    endloop
  endfacet
  facet normal  4.330128e-001  7.500000e-001 -5.000001e-001
    outer loop
      vertex  2.132051e-001 -2.307180e-001 -7.500001e-001
      vertex  3.547006e-002 -6.143594e-002 -6.500000e-001
      vertex  3.286752e-001 -2.307180e-001 -6.500000e-001
    endloop
  endfacet
  facet normal  0.000000e+000  0.000000e+000 -1.000000e+000
    outer loop
      vertex -1.732051e-001 -3.000000e-001 -7.500001e-001
      vertex -2.132051e-001 -2.307180e-001 -7.500001e-001
      vertex -9.320508e-002 -3.000000e-001 -7.500001e-001
    endloop
  endfacet
  facet normal  0.000000e+000  0.000000e+000 -1.000000e+000
    outer loop
      vertex -9.320508e-002 -3.000000e-001 -7.500001e-001
      vertex -2.132051e-001 -2.307180e-001 -7.500001e-001
      vertex -9.320508e-002 -1.614359e-001 -7.500001e-001
    endloop
  endfacet
  facet normal  0.000000e+000  0.000000e+000 -1.000000e+000
    outer loop
      vertex  1.732051e-001 -3.000000e-001 -7.500001e-001
      vertex  9.320508e-002 -3.000000e-001 -7.500001e-001
      vertex  2.132051e-001 -2.307180e-001 -7.500001e-001
    endloop
  endfacet
  facet normal  -0.000000e+000  0.000000e+000 -1.000000e+000
    outer loop
      vertex  2.132051e-001 -2.307180e-001 -7.500001e-001
      vertex  9.320508e-002 -3.000000e-001 -7.500001e-001
      vertex  9.320508e-002 -1.614359e-001 -7.500001e-001
    endloop
  endfacet
  facet normal -4.330128e-001 -7.500000e-001  5.000001e-001
    outer loop
      vertex -3.286752e-001  2.307180e-001  2.150000e+000
      vertex -3.547006e-002  6.143594e-002  2.150000e+000
      vertex -2.132051e-001  2.307180e-001  2.250000e+000
    endloop
  endfacet
  facet normal -4.330127e-001 -7.499999e-001  5.000000e-001
    outer loop
      vertex -2.132051e-001  2.307180e-001  2.250000e+000
      vertex -3.547006e-002  6.143594e-002  2.150000e+000
      vertex -9.320508e-002  1.614359e-001  2.250000e+000
    endloop
  endfacet
  facet normal  -0.000000e+000  0.000000e+000  1.000000e+000
    outer loop
      vertex  1.732051e-001  3.000000e-001  2.250000e+000
      vertex  9.320508e-002  3.000000e-001  2.250000e+000
      vertex  2.132051e-001  2.307180e-001  2.250000e+000
    endloop
  endfacet
  facet normal  0.000000e+000  0.000000e+000  1.000000e+000
    outer loop
      vertex  2.132051e-001  2.307180e-001  2.250000e+000
      vertex  9.320508e-002  3.000000e-001  2.250000e+000
      vertex  9.320508e-002  1.614359e-001  2.250000e+000
    endloop
  endfacet
  facet normal  0.000000e+000  0.000000e+000  1.000000e+000
    outer loop
      vertex -1.732051e-001  3.000000e-001  2.250000e+000
      vertex -2.132051e-001  2.307180e-001  2.250000e+000
      vertex -9.320508e-002  3.000000e-001  2.250000e+000
    endloop
  endfacet
  facet normal  0.000000e+000  0.000000e+000  1.000000e+000
    outer loop
      vertex -9.320508e-002  3.000000e-001  2.250000e+000
      vertex -2.132051e-001  2.307180e-001  2.250000e+000
      vertex -9.320508e-002  1.614359e-001  2.250000e+000
    endloop
  endfacet
  facet normal  -0.000000e+000  0.000000e+000  1.000000e+000
    outer loop
      vertex -9.320508e-002 -1.614359e-001  2.250000e+000
      vertex -2.132051e-001 -2.307180e-001  2.250000e+000
      vertex -9.320508e-002 -3.000000e-001  2.250000e+000
    endloop
  endfacet
  facet normal  0.000000e+000  0.000000e+000  1.000000e+000
    outer loop
      vertex -9.320508e-002 -3.000000e-001  2.250000e+000
      vertex -2.132051e-001 -2.307180e-001  2.250000e+000
      vertex -1.732051e-001 -3.000000e-001  2.250000e+000
    endloop
  endfacet
  facet normal  0.000000e+000  0.000000e+000  1.000000e+000
    outer loop
      vertex  9.320508e-002 -1.614359e-001  2.250000e+000
      vertex  9.320508e-002 -3.000000e-001  2.250000e+000
      vertex  2.132051e-001 -2.307180e-001  2.250000e+000
    endloop
  endfacet
  facet normal  0.000000e+000  0.000000e+000  1.000000e+000
    outer loop
      vertex  2.132051e-001 -2.307180e-001  2.250000e+000
      vertex  9.320508e-002 -3.000000e-001  2.250000e+000
      vertex  1.732051e-001 -3.000000e-001  2.250000e+000
    endloop
  endfacet
  facet normal  0.000000e+000  0.000000e+000 -1.000000e+000
    outer loop
      vertex  9.320508e-002  1.614359e-001 -7.500001e-001
      vertex  9.320508e-002  3.000000e-001 -7.500001e-001
      vertex  2.132051e-001  2.307180e-001 -7.500001e-001
    endloop
  endfacet
  facet normal  0.000000e+000  0.000000e+000 -1.000000e+000
    outer loop
      vertex  2.132051e-001  2.307180e-001 -7.500001e-001
      vertex  9.320508e-002  3.000000e-001 -7.500001e-001
      vertex  1.732051e-001  3.000000e-001 -7.500001e-001
    endloop
  endfacet
  facet normal  0.000000e+000  0.000000e+000 -1.000000e+000
    outer loop
      vertex -9.320508e-002  1.614359e-001 -7.500001e-001
      vertex -2.132051e-001  2.307180e-001 -7.500001e-001
      vertex -9.320508e-002  3.000000e-001 -7.500001e-001
    endloop
  endfacet
  facet normal  -0.000000e+000  0.000000e+000 -1.000000e+000
    outer loop
      vertex -9.320508e-002  3.000000e-001 -7.500001e-001
      vertex -2.132051e-001  2.307180e-001 -7.500001e-001
      vertex -1.732051e-001  3.000000e-001 -7.500001e-001
    endloop
  endfacet
  facet normal -4.330128e-001 -7.500000e-001 -5.000001e-001
    outer loop
      vertex -3.286752e-001  2.307180e-001 -6.500000e-001
      vertex -2.132051e-001  2.307180e-001 -7.500001e-001
      vertex -3.547006e-002  6.143594e-002 -6.500000e-001
    endloop
  endfacet
  facet normal -4.330129e-001 -7.500001e-001 -4.999999e-001
    outer loop
      vertex -3.547006e-002  6.143594e-002 -6.500000e-001
      vertex -2.132051e-001  2.307180e-001 -7.500001e-001
      vertex -9.320508e-002  1.614359e-001 -7.500001e-001
    endloop
  endfacet
  facet normal  4.330127e-001 -7.500000e-001 -5.000000e-001
    outer loop
      vertex  3.547006e-002  6.143594e-002 -6.500000e-001
      vertex  9.320508e-002  1.614359e-001 -7.500001e-001
      vertex  3.286752e-001  2.307180e-001 -6.500000e-001
    endloop
  endfacet
  facet normal  4.330127e-001 -7.499999e-001 -5.000001e-001
    outer loop
      vertex  3.286752e-001  2.307180e-001 -6.500000e-001
      vertex  9.320508e-002  1.614359e-001 -7.500001e-001
      vertex  2.132051e-001  2.307180e-001 -7.500001e-001
    endloop
  endfacet
  facet normal -4.330127e-001  7.499999e-001 -5.000001e-001
    outer loop
      vertex -2.132051e-001 -2.307180e-001 -7.500001e-001
      vertex -3.286752e-001 -2.307180e-001 -6.500000e-001
      vertex -9.320508e-002 -1.614359e-001 -7.500001e-001
    endloop
  endfacet
  facet normal -4.330127e-001  7.500000e-001 -5.000000e-001
    outer loop
      vertex -9.320508e-002 -1.614359e-001 -7.500001e-001
      vertex -3.286752e-001 -2.307180e-001 -6.500000e-001
      vertex -3.547006e-002 -6.143594e-002 -6.500000e-001
    endloop
  endfacet
  facet normal  4.330128e-001 -7.500000e-001  5.000000e-001
    outer loop
      vertex  3.547006e-002  6.143594e-002  2.150000e+000
      vertex  3.286752e-001  2.307180e-001  2.150000e+000
      vertex  9.320508e-002  1.614359e-001  2.250000e+000
    endloop
  endfacet
  facet normal  4.330127e-001 -7.499999e-001  5.000000e-001
    outer loop
      vertex  9.320508e-002  1.614359e-001  2.250000e+000
      vertex  3.286752e-001  2.307180e-001  2.150000e+000
      vertex  2.132051e-001  2.307180e-001  2.250000e+000
    endloop
  endfacet
  facet normal -4.330127e-001  7.499999e-001  5.000000e-001
    outer loop
      vertex -2.132051e-001 -2.307180e-001  2.250000e+000
      vertex -9.320508e-002 -1.614359e-001  2.250000e+000
      vertex -3.286752e-001 -2.307180e-001  2.150000e+000
    endloop
  endfacet
  facet normal -4.330128e-001  7.500000e-001  5.000000e-001
    outer loop
      vertex -3.286752e-001 -2.307180e-001  2.150000e+000
      vertex -9.320508e-002 -1.614359e-001  2.250000e+000
      vertex -3.547006e-002 -6.143594e-002  2.150000e+000
    endloop
  endfacet
  facet normal  4.330127e-001 -7.500001e-001  4.999999e-001
    outer loop
      vertex -3.641452e-001 -1.692820e-001  2.150000e+000
      vertex -7.094011e-002 -2.557954e-016  2.150000e+000
      vertex -3.064102e-001 -6.928204e-002  2.250000e+000
    endloop
  endfacet
  facet normal  4.330128e-001 -7.500001e-001  5.000000e-001
    outer loop
      vertex -3.064102e-001 -6.928204e-002  2.250000e+000
      vertex -7.094011e-002 -2.557954e-016  2.150000e+000
      vertex -1.864102e-001 -5.115908e-016  2.250000e+000
    endloop
  endfacet
  facet normal -4.330128e-001  7.500001e-001  5.000000e-001
    outer loop
      vertex  1.864102e-001 -5.115908e-016  2.250000e+000
      vertex  3.064102e-001  6.928204e-002  2.250000e+000
      vertex  7.094011e-002  1.989520e-016  2.150000e+000
    endloop
  endfacet
  facet normal -4.330127e-001  7.500001e-001  4.999999e-001
    outer loop
      vertex  7.094011e-002  1.989520e-016  2.150000e+000
      vertex  3.064102e-001  6.928204e-002  2.250000e+000
      vertex  3.641452e-001  1.692820e-001  2.150000e+000
    endloop
  endfacet
  facet normal  4.330127e-001 -7.500001e-001 -4.999999e-001
    outer loop
      vertex -3.641452e-001 -1.692820e-001 -6.500000e-001
      vertex -3.064102e-001 -6.928204e-002 -7.500001e-001
      vertex -7.094011e-002 -5.115908e-016 -6.500000e-001
    endloop
  endfacet
  facet normal  4.330128e-001 -7.500000e-001 -5.000000e-001
    outer loop
      vertex -7.094011e-002 -5.115908e-016 -6.500000e-001
      vertex -3.064102e-001 -6.928204e-002 -7.500001e-001
      vertex -1.864102e-001 -2.273737e-016 -7.500001e-001
    endloop
  endfacet
  facet normal -4.330128e-001  7.500000e-001 -5.000000e-001
    outer loop
      vertex  1.864102e-001 -3.979039e-016 -7.500001e-001
      vertex  7.094011e-002 -1.705303e-016 -6.500000e-001
      vertex  3.064102e-001  6.928204e-002 -7.500001e-001
    endloop
  endfacet
  facet normal -4.330127e-001  7.500001e-001 -4.999999e-001
    outer loop
      vertex  3.064102e-001  6.928204e-002 -7.500001e-001
      vertex  7.094011e-002 -1.705303e-016 -6.500000e-001
      vertex  3.641452e-001  1.692820e-001 -6.500000e-001
    endloop
  endfacet
  facet normal -4.330127e-001 -7.500000e-001 -5.000000e-001
    outer loop
      vertex  7.094011e-002 -1.705303e-016 -6.500000e-001
      vertex  1.864102e-001 -3.979039e-016 -7.500001e-001
      vertex  3.641452e-001 -1.692820e-001 -6.500000e-001
    endloop
  endfacet
  facet normal -4.330128e-001 -7.500000e-001 -4.999999e-001
    outer loop
      vertex  3.641452e-001 -1.692820e-001 -6.500000e-001
      vertex  1.864102e-001 -3.979039e-016 -7.500001e-001
      vertex  3.064102e-001 -6.928204e-002 -7.500001e-001
    endloop
  endfacet
  facet normal  0.000000e+000  0.000000e+000 -1.000000e+000
    outer loop
      vertex  3.464102e-001  1.136868e-016 -7.500001e-001
      vertex  3.064102e-001 -6.928204e-002 -7.500001e-001
      vertex  3.064102e-001  6.928204e-002 -7.500001e-001
    endloop
  endfacet
  facet normal  0.000000e+000  -0.000000e+000 -1.000000e+000
    outer loop
      vertex  3.064102e-001  6.928204e-002 -7.500001e-001
      vertex  3.064102e-001 -6.928204e-002 -7.500001e-001
      vertex  1.864102e-001 -3.979039e-016 -7.500001e-001
    endloop
  endfacet
  facet normal  6.123724e-001  3.535534e-001 -7.071067e-001
    outer loop
      vertex  1.732051e-001  3.000000e-001 -7.500001e-001
      vertex  2.309401e-001  4.000000e-001 -6.500000e-001
      vertex  2.132051e-001  2.307180e-001 -7.500001e-001
    endloop
  endfacet
  facet normal  6.123725e-001  3.535534e-001 -7.071068e-001
    outer loop
      vertex  2.132051e-001  2.307180e-001 -7.500001e-001
      vertex  2.309401e-001  4.000000e-001 -6.500000e-001
      vertex  3.286752e-001  2.307180e-001 -6.500000e-001
    endloop
  endfacet
  facet normal  6.123724e-001  3.535534e-001 -7.071068e-001
    outer loop
      vertex  3.064102e-001  6.928204e-002 -7.500001e-001
      vertex  3.641452e-001  1.692820e-001 -6.500000e-001
      vertex  3.464102e-001  1.136868e-016 -7.500001e-001
    endloop
  endfacet
  facet normal  6.123725e-001  3.535533e-001 -7.071068e-001
    outer loop
      vertex  3.464102e-001  1.136868e-016 -7.500001e-001
      vertex  3.641452e-001  1.692820e-001 -6.500000e-001
      vertex  4.618802e-001 -5.684342e-017 -6.500000e-001
    endloop
  endfacet
  facet normal -6.123725e-001 -3.535534e-001  7.071068e-001
    outer loop
      vertex -2.309401e-001 -4.000000e-001  2.150000e+000
      vertex -1.732051e-001 -3.000000e-001  2.250000e+000
      vertex -3.286752e-001 -2.307180e-001  2.150000e+000
    endloop
  endfacet
  facet normal -6.123725e-001 -3.535534e-001  7.071068e-001
    outer loop
      vertex -3.286752e-001 -2.307180e-001  2.150000e+000
      vertex -1.732051e-001 -3.000000e-001  2.250000e+000
      vertex -2.132051e-001 -2.307180e-001  2.250000e+000
    endloop
  endfacet
  facet normal -6.123725e-001 -3.535533e-001  7.071068e-001
    outer loop
      vertex -3.641452e-001 -1.692820e-001  2.150000e+000
      vertex -3.064102e-001 -6.928204e-002  2.250000e+000
      vertex -4.618802e-001 -8.526513e-017  2.150000e+000
    endloop
  endfacet
  facet normal -6.123724e-001 -3.535534e-001  7.071068e-001
    outer loop
      vertex -4.618802e-001 -8.526513e-017  2.150000e+000
      vertex -3.064102e-001 -6.928204e-002  2.250000e+000
      vertex -3.464102e-001 -5.400125e-016  2.250000e+000
    endloop
  endfacet
  facet normal  0.000000e+000  0.000000e+000  1.000000e+000
    outer loop
      vertex -1.864102e-001 -5.115908e-016  2.250000e+000
      vertex -3.064102e-001  6.928204e-002  2.250000e+000
      vertex -3.064102e-001 -6.928204e-002  2.250000e+000
    endloop
  endfacet
  facet normal  0.000000e+000  -0.000000e+000  1.000000e+000
    outer loop
      vertex -3.064102e-001 -6.928204e-002  2.250000e+000
      vertex -3.064102e-001  6.928204e-002  2.250000e+000
      vertex -3.464102e-001 -5.400125e-016  2.250000e+000
    endloop
  endfacet
  facet normal  0.000000e+000  -0.000000e+000  1.000000e+000
    outer loop
      vertex  1.864102e-001 -5.115908e-016  2.250000e+000
      vertex  3.064102e-001 -6.928204e-002  2.250000e+000
      vertex  3.064102e-001  6.928204e-002  2.250000e+000
    endloop
  endfacet
  facet normal  0.000000e+000  0.000000e+000  1.000000e+000
    outer loop
      vertex  3.064102e-001  6.928204e-002  2.250000e+000
      vertex  3.064102e-001 -6.928204e-002  2.250000e+000
      vertex  3.464102e-001 -5.684342e-017  2.250000e+000
    endloop
  endfacet
  facet normal -4.330127e-001 -7.500001e-001  4.999999e-001
    outer loop
      vertex  7.094011e-002  1.989520e-016  2.150000e+000
      vertex  3.641452e-001 -1.692820e-001  2.150000e+000
      vertex  1.864102e-001 -5.115908e-016  2.250000e+000
    endloop
  endfacet
  facet normal -4.330128e-001 -7.500001e-001  4.999999e-001
    outer loop
      vertex  1.864102e-001 -5.115908e-016  2.250000e+000
      vertex  3.641452e-001 -1.692820e-001  2.150000e+000
      vertex  3.064102e-001 -6.928204e-002  2.250000e+000
    endloop
  endfacet
  facet normal  6.123725e-001  3.535534e-001  7.071068e-001
    outer loop
      vertex  2.309401e-001  4.000000e-001  2.150000e+000
      vertex  1.732051e-001  3.000000e-001  2.250000e+000
      vertex  3.286752e-001  2.307180e-001  2.150000e+000
    endloop
  endfacet
  facet normal  6.123725e-001  3.535534e-001  7.071068e-001
    outer loop
      vertex  3.286752e-001  2.307180e-001  2.150000e+000
      vertex  1.732051e-001  3.000000e-001  2.250000e+000
      vertex  2.132051e-001  2.307180e-001  2.250000e+000
    endloop
  endfacet
  facet normal  6.123725e-001  3.535533e-001  7.071068e-001
    outer loop
      vertex  3.641452e-001  1.692820e-001  2.150000e+000
      vertex  3.064102e-001  6.928204e-002  2.250000e+000
      vertex  4.618802e-001 -1.421086e-016  2.150000e+000
    endloop
  endfacet
  facet normal  6.123724e-001  3.535534e-001  7.071068e-001
    outer loop
      vertex  4.618802e-001 -1.421086e-016  2.150000e+000
      vertex  3.064102e-001  6.928204e-002  2.250000e+000
      vertex  3.464102e-001 -5.684342e-017  2.250000e+000
    endloop
  endfacet
  facet normal  0.000000e+000  -0.000000e+000 -1.000000e+000
    outer loop
      vertex -3.464102e-001 -1.989520e-016 -7.500001e-001
      vertex -3.064102e-001  6.928204e-002 -7.500001e-001
      vertex -3.064102e-001 -6.928204e-002 -7.500001e-001
    endloop
  endfacet
  facet normal  0.000000e+000  0.000000e+000 -1.000000e+000
    outer loop
      vertex -3.064102e-001 -6.928204e-002 -7.500001e-001
      vertex -3.064102e-001  6.928204e-002 -7.500001e-001
      vertex -1.864102e-001 -2.273737e-016 -7.500001e-001
    endloop
  endfacet
  facet normal  4.330128e-001  7.500000e-001 -4.999999e-001
    outer loop
      vertex -3.064102e-001  6.928204e-002 -7.500001e-001
      vertex -3.641452e-001  1.692820e-001 -6.500000e-001
      vertex -1.864102e-001 -2.273737e-016 -7.500001e-001
    endloop
  endfacet
  facet normal  4.330127e-001  7.500000e-001 -5.000000e-001
    outer loop
      vertex -1.864102e-001 -2.273737e-016 -7.500001e-001
      vertex -3.641452e-001  1.692820e-001 -6.500000e-001
      vertex -7.094011e-002 -5.115908e-016 -6.500000e-001
    endloop
  endfacet
  facet normal  4.330128e-001  7.500001e-001  4.999999e-001
    outer loop
      vertex -3.064102e-001  6.928204e-002  2.250000e+000
      vertex -1.864102e-001 -5.115908e-016  2.250000e+000
      vertex -3.641452e-001  1.692820e-001  2.150000e+000
    endloop
  endfacet
  facet normal  4.330127e-001  7.500001e-001  4.999999e-001
    outer loop
      vertex -3.641452e-001  1.692820e-001  2.150000e+000
      vertex -1.864102e-001 -5.115908e-016  2.250000e+000
      vertex -7.094011e-002 -2.557954e-016  2.150000e+000
    endloop
  endfacet
  facet normal -6.123724e-001 -3.535534e-001 -7.071067e-001
    outer loop
      vertex -1.732051e-001 -3.000000e-001 -7.500001e-001
      vertex -2.309401e-001 -4.000000e-001 -6.500000e-001
      vertex -2.132051e-001 -2.307180e-001 -7.500001e-001
    endloop
  endfacet
  facet normal -6.123725e-001 -3.535534e-001 -7.071068e-001
    outer loop
      vertex -2.132051e-001 -2.307180e-001 -7.500001e-001
      vertex -2.309401e-001 -4.000000e-001 -6.500000e-001
      vertex -3.286752e-001 -2.307180e-001 -6.500000e-001
    endloop
  endfacet
  facet normal -6.123724e-001 -3.535534e-001 -7.071068e-001
    outer loop
      vertex -3.064102e-001 -6.928204e-002 -7.500001e-001
      vertex -3.641452e-001 -1.692820e-001 -6.500000e-001
      vertex -3.464102e-001 -1.989520e-016 -7.500001e-001
    endloop
  endfacet
  facet normal -6.123725e-001 -3.535533e-001 -7.071068e-001
    outer loop
      vertex -3.464102e-001 -1.989520e-016 -7.500001e-001
      vertex -3.641452e-001 -1.692820e-001 -6.500000e-001
      vertex -4.618802e-001 -2.842171e-017 -6.500000e-001
    endloop
  endfacet
  facet normal  6.123724e-001 -3.535534e-001 -7.071068e-001
    outer loop
      vertex  3.464102e-001  1.136868e-016 -7.500001e-001
      vertex  4.618802e-001 -5.684342e-017 -6.500000e-001
      vertex  3.064102e-001 -6.928204e-002 -7.500001e-001
    endloop
  endfacet
  facet normal  6.123725e-001 -3.535533e-001 -7.071068e-001
    outer loop
      vertex  3.064102e-001 -6.928204e-002 -7.500001e-001
      vertex  4.618802e-001 -5.684342e-017 -6.500000e-001
      vertex  3.641452e-001 -1.692820e-001 -6.500000e-001
    endloop
  endfacet
  facet normal  0.000000e+000  1.000000e+000  0.000000e+000
    outer loop
      vertex -2.309401e-001  4.000000e-001 -2.200000e-001
      vertex  2.309401e-001  4.000000e-001 -2.200000e-001
      vertex  2.309401e-001  4.000000e-001 -6.500000e-001
    endloop
  endfacet
  facet normal  0.000000e+000  1.000000e+000  0.000000e+000
    outer loop
      vertex -2.309401e-001  4.000000e-001 -2.200000e-001
      vertex  2.309401e-001  4.000000e-001 -6.500000e-001
      vertex  3.547006e-002  4.000000e-001 -6.500000e-001
    endloop
  endfacet
  facet normal  0.000000e+000  1.000000e+000  0.000000e+000
    outer loop
      vertex -2.309401e-001  4.000000e-001 -2.200000e-001
      vertex  3.547006e-002  4.000000e-001 -6.500000e-001
      vertex -3.547006e-002  4.000000e-001 -6.500000e-001
    endloop
  endfacet
  facet normal  0.000000e+000  1.000000e+000  0.000000e+000
    outer loop
      vertex -2.309401e-001  4.000000e-001 -2.200000e-001
      vertex -3.547006e-002  4.000000e-001 -6.500000e-001
      vertex -2.309401e-001  4.000000e-001 -6.500000e-001
    endloop
  endfacet
  facet normal -6.123724e-001  3.535534e-001 -7.071068e-001
    outer loop
      vertex -3.464102e-001 -1.989520e-016 -7.500001e-001
      vertex -4.618802e-001 -2.842171e-017 -6.500000e-001
      vertex -3.064102e-001  6.928204e-002 -7.500001e-001
    endloop
  endfacet
  facet normal -6.123725e-001  3.535533e-001 -7.071068e-001
    outer loop
      vertex -3.064102e-001  6.928204e-002 -7.500001e-001
      vertex -4.618802e-001 -2.842171e-017 -6.500000e-001
      vertex -3.641452e-001  1.692820e-001 -6.500000e-001
    endloop
  endfacet
  facet normal  0.000000e+000  7.071068e-001  7.071068e-001
    outer loop
      vertex -2.309401e-001  4.000000e-001 -2.200000e-001
      vertex -1.905256e-001  3.300000e-001 -1.500000e-001
      vertex  2.309401e-001  4.000000e-001 -2.200000e-001
    endloop
  endfacet
  facet normal  0.000000e+000  7.071068e-001  7.071068e-001
    outer loop
      vertex  2.309401e-001  4.000000e-001 -2.200000e-001
      vertex -1.905256e-001  3.300000e-001 -1.500000e-001
      vertex  1.905256e-001  3.300000e-001 -1.500000e-001
    endloop
  endfacet
  facet normal  8.660254e-001 -5.000001e-001  0.000000e+000
    outer loop
      vertex  4.618802e-001  0.000000e+000 -2.200000e-001
      vertex  2.309401e-001 -4.000000e-001 -2.200000e-001
      vertex  2.309401e-001 -4.000000e-001 -6.500000e-001
    endloop
  endfacet
  facet normal  8.660254e-001 -5.000000e-001  0.000000e+000
    outer loop
      vertex  4.618802e-001  0.000000e+000 -2.200000e-001
      vertex  2.309401e-001 -4.000000e-001 -6.500000e-001
      vertex  3.286752e-001 -2.307180e-001 -6.500000e-001
    endloop
  endfacet
  facet normal  8.660254e-001 -5.000001e-001  4.802097e-008
    outer loop
      vertex  4.618802e-001  0.000000e+000 -2.200000e-001
      vertex  3.286752e-001 -2.307180e-001 -6.500000e-001
      vertex  3.641452e-001 -1.692820e-001 -6.500000e-001
    endloop
  endfacet
  facet normal  8.660254e-001 -5.000000e-001  0.000000e+000
    outer loop
      vertex  4.618802e-001  0.000000e+000 -2.200000e-001
      vertex  3.641452e-001 -1.692820e-001 -6.500000e-001
      vertex  4.618802e-001 -5.684342e-017 -6.500000e-001
    endloop
  endfacet
  facet normal  6.123725e-001 -3.535534e-001  7.071068e-001
    outer loop
      vertex  4.618802e-001  0.000000e+000 -2.200000e-001
      vertex  3.810512e-001 -5.684342e-017 -1.500000e-001
      vertex  2.309401e-001 -4.000000e-001 -2.200000e-001
    endloop
  endfacet
  facet normal  6.123725e-001 -3.535534e-001  7.071068e-001
    outer loop
      vertex  2.309401e-001 -4.000000e-001 -2.200000e-001
      vertex  3.810512e-001 -5.684342e-017 -1.500000e-001
      vertex  1.905256e-001 -3.300000e-001 -1.500000e-001
    endloop
  endfacet
  facet normal  8.660254e-001 -5.000000e-001  0.000000e+000
    outer loop
      vertex  1.905256e-001 -3.300000e-001 -1.500000e-001
      vertex  3.810512e-001 -5.684342e-017 -1.500000e-001
      vertex  1.905256e-001 -3.300000e-001  1.650000e+000
    endloop
  endfacet
  facet normal  8.660254e-001 -5.000000e-001  0.000000e+000
    outer loop
      vertex  1.905256e-001 -3.300000e-001  1.650000e+000
      vertex  3.810512e-001 -5.684342e-017 -1.500000e-001
      vertex  3.810512e-001  2.842171e-017  1.650000e+000
    endloop
  endfacet
  facet normal  0.000000e+000  1.000000e+000  0.000000e+000
    outer loop
      vertex  2.309401e-001  4.000000e-001  1.720000e+000
      vertex -2.309401e-001  4.000000e-001  1.720000e+000
      vertex -2.309401e-001  4.000000e-001  2.150000e+000
    endloop
  endfacet
  facet normal  -0.000000e+000  1.000000e+000  0.000000e+000
    outer loop
      vertex  2.309401e-001  4.000000e-001  1.720000e+000
      vertex -2.309401e-001  4.000000e-001  2.150000e+000
      vertex -3.547006e-002  4.000000e-001  2.150000e+000
    endloop
  endfacet
  facet normal  -0.000000e+000  1.000000e+000  0.000000e+000
    outer loop
      vertex  2.309401e-001  4.000000e-001  1.720000e+000
      vertex -3.547006e-002  4.000000e-001  2.150000e+000
      vertex  3.547006e-002  4.000000e-001  2.150000e+000
    endloop
  endfacet
  facet normal  -0.000000e+000  1.000000e+000  0.000000e+000
    outer loop
      vertex  2.309401e-001  4.000000e-001  1.720000e+000
      vertex  3.547006e-002  4.000000e-001  2.150000e+000
      vertex  2.309401e-001  4.000000e-001  2.150000e+000
    endloop
  endfacet
  facet normal  8.660254e-001 -5.000001e-001  9.914550e-017
    outer loop
      vertex  2.309401e-001 -4.000000e-001  1.720000e+000
      vertex  4.618802e-001 -2.273737e-016  1.720000e+000
      vertex  4.618802e-001 -1.421086e-016  2.150000e+000
    endloop
  endfacet
  facet normal  8.660254e-001 -5.000000e-001 -4.647414e-008
    outer loop
      vertex  2.309401e-001 -4.000000e-001  1.720000e+000
      vertex  4.618802e-001 -1.421086e-016  2.150000e+000
      vertex  3.641452e-001 -1.692820e-001  2.150000e+000
    endloop
  endfacet
  facet normal  8.660254e-001 -5.000001e-001  1.600699e-008
    outer loop
      vertex  2.309401e-001 -4.000000e-001  1.720000e+000
      vertex  3.641452e-001 -1.692820e-001  2.150000e+000
      vertex  3.286752e-001 -2.307180e-001  2.150000e+000
    endloop
  endfacet
  facet normal  8.660254e-001 -5.000000e-001  0.000000e+000
    outer loop
      vertex  2.309401e-001 -4.000000e-001  1.720000e+000
      vertex  3.286752e-001 -2.307180e-001  2.150000e+000
      vertex  2.309401e-001 -4.000000e-001  2.150000e+000
    endloop
  endfacet
  facet normal  6.123725e-001 -3.535534e-001  7.071068e-001
    outer loop
      vertex  3.286752e-001 -2.307180e-001  2.150000e+000
      vertex  2.132051e-001 -2.307180e-001  2.250000e+000
      vertex  2.309401e-001 -4.000000e-001  2.150000e+000
    endloop
  endfacet
  facet normal  6.123724e-001 -3.535534e-001  7.071067e-001
    outer loop
      vertex  2.309401e-001 -4.000000e-001  2.150000e+000
      vertex  2.132051e-001 -2.307180e-001  2.250000e+000
      vertex  1.732051e-001 -3.000000e-001  2.250000e+000
    endloop
  endfacet
  facet normal  6.123725e-001 -3.535533e-001  7.071068e-001
    outer loop
      vertex  4.618802e-001 -1.421086e-016  2.150000e+000
      vertex  3.464102e-001 -5.684342e-017  2.250000e+000
      vertex  3.641452e-001 -1.692820e-001  2.150000e+000
    endloop
  endfacet
  facet normal  6.123724e-001 -3.535534e-001  7.071068e-001
    outer loop
      vertex  3.641452e-001 -1.692820e-001  2.150000e+000
      vertex  3.464102e-001 -5.684342e-017  2.250000e+000
      vertex  3.064102e-001 -6.928204e-002  2.250000e+000
    endloop
  endfacet
  facet normal  6.123725e-001 -3.535534e-001 -7.071068e-001
    outer loop
      vertex  2.132051e-001 -2.307180e-001 -7.500001e-001
      vertex  3.286752e-001 -2.307180e-001 -6.500000e-001
      vertex  1.732051e-001 -3.000000e-001 -7.500001e-001
    endloop
  endfacet
  facet normal  6.123725e-001 -3.535534e-001 -7.071068e-001
    outer loop
      vertex  1.732051e-001 -3.000000e-001 -7.500001e-001
      vertex  3.286752e-001 -2.307180e-001 -6.500000e-001
      vertex  2.309401e-001 -4.000000e-001 -6.500000e-001
    endloop
  endfacet
  facet normal  0.000000e+000 -1.000000e+000  0.000000e+000
    outer loop
      vertex -2.309401e-001 -4.000000e-001  1.720000e+000
      vertex  2.309401e-001 -4.000000e-001  1.720000e+000
      vertex  2.309401e-001 -4.000000e-001  2.150000e+000
    endloop
  endfacet
  facet normal  -0.000000e+000 -1.000000e+000  0.000000e+000
    outer loop
      vertex -2.309401e-001 -4.000000e-001  1.720000e+000
      vertex  2.309401e-001 -4.000000e-001  2.150000e+000
      vertex  3.547006e-002 -4.000000e-001  2.150000e+000
    endloop
  endfacet
  facet normal  -0.000000e+000 -1.000000e+000  0.000000e+000
    outer loop
      vertex -2.309401e-001 -4.000000e-001  1.720000e+000
      vertex  3.547006e-002 -4.000000e-001  2.150000e+000
      vertex -3.547006e-002 -4.000000e-001  2.150000e+000
    endloop
  endfacet
  facet normal  -0.000000e+000 -1.000000e+000  0.000000e+000
    outer loop
      vertex -2.309401e-001 -4.000000e-001  1.720000e+000
      vertex -3.547006e-002 -4.000000e-001  2.150000e+000
      vertex -2.309401e-001 -4.000000e-001  2.150000e+000
    endloop
  endfacet
  facet normal  6.123725e-001 -3.535533e-001 -7.071068e-001
    outer loop
      vertex  3.810512e-001  2.842171e-017  1.650000e+000
      vertex  4.618802e-001 -2.273737e-016  1.720000e+000
      vertex  1.905256e-001 -3.300000e-001  1.650000e+000
    endloop
  endfacet
  facet normal  6.123725e-001 -3.535534e-001 -7.071068e-001
    outer loop
      vertex  1.905256e-001 -3.300000e-001  1.650000e+000
      vertex  4.618802e-001 -2.273737e-016  1.720000e+000
      vertex  2.309401e-001 -4.000000e-001  1.720000e+000
    endloop
  endfacet
  facet normal  8.660254e-001  5.000001e-001  -0.000000e+000
    outer loop
      vertex  4.618802e-001 -2.273737e-016  1.720000e+000
      vertex  2.309401e-001  4.000000e-001  1.720000e+000
      vertex  2.309401e-001  4.000000e-001  2.150000e+000
    endloop
  endfacet
  facet normal  8.660254e-001  5.000000e-001  0.000000e+000
    outer loop
      vertex  4.618802e-001 -2.273737e-016  1.720000e+000
      vertex  2.309401e-001  4.000000e-001  2.150000e+000
      vertex  3.286752e-001  2.307180e-001  2.150000e+000
    endloop
  endfacet
  facet normal  8.660254e-001  5.000001e-001 -4.802097e-008
    outer loop
      vertex  4.618802e-001 -2.273737e-016  1.720000e+000
      vertex  3.286752e-001  2.307180e-001  2.150000e+000
      vertex  3.641452e-001  1.692820e-001  2.150000e+000
    endloop
  endfacet
  facet normal  8.660254e-001  5.000000e-001  0.000000e+000
    outer loop
      vertex  4.618802e-001 -2.273737e-016  1.720000e+000
      vertex  3.641452e-001  1.692820e-001  2.150000e+000
      vertex  4.618802e-001 -1.421086e-016  2.150000e+000
    endloop
  endfacet
  facet normal -6.123725e-001  3.535534e-001  7.071068e-001
    outer loop
      vertex -3.286752e-001  2.307180e-001  2.150000e+000
      vertex -2.132051e-001  2.307180e-001  2.250000e+000
      vertex -2.309401e-001  4.000000e-001  2.150000e+000
    endloop
  endfacet
  facet normal -6.123724e-001  3.535534e-001  7.071067e-001
    outer loop
      vertex -2.309401e-001  4.000000e-001  2.150000e+000
      vertex -2.132051e-001  2.307180e-001  2.250000e+000
      vertex -1.732051e-001  3.000000e-001  2.250000e+000
    endloop
  endfacet
  facet normal -6.123725e-001  3.535533e-001  7.071068e-001
    outer loop
      vertex -4.618802e-001 -8.526513e-017  2.150000e+000
      vertex -3.464102e-001 -5.400125e-016  2.250000e+000
      vertex -3.641452e-001  1.692820e-001  2.150000e+000
    endloop
  endfacet
  facet normal -6.123724e-001  3.535534e-001  7.071068e-001
    outer loop
      vertex -3.641452e-001  1.692820e-001  2.150000e+000
      vertex -3.464102e-001 -5.400125e-016  2.250000e+000
      vertex -3.064102e-001  6.928204e-002  2.250000e+000
    endloop
  endfacet
  facet normal -8.660254e-001 -5.000001e-001  0.000000e+000
    outer loop
      vertex -4.618802e-001  0.000000e+000  1.720000e+000
      vertex -2.309401e-001 -4.000000e-001  1.720000e+000
      vertex -2.309401e-001 -4.000000e-001  2.150000e+000
    endloop
  endfacet
  facet normal -8.660254e-001 -5.000000e-001  0.000000e+000
    outer loop
      vertex -4.618802e-001  0.000000e+000  1.720000e+000
      vertex -2.309401e-001 -4.000000e-001  2.150000e+000
      vertex -3.286752e-001 -2.307180e-001  2.150000e+000
    endloop
  endfacet
  facet normal -8.660254e-001 -5.000001e-001 -4.802097e-008
    outer loop
      vertex -4.618802e-001  0.000000e+000  1.720000e+000
      vertex -3.286752e-001 -2.307180e-001  2.150000e+000
      vertex -3.641452e-001 -1.692820e-001  2.150000e+000
    endloop
  endfacet
  facet normal -8.660254e-001 -5.000000e-001  0.000000e+000
    outer loop
      vertex -4.618802e-001  0.000000e+000  1.720000e+000
      vertex -3.641452e-001 -1.692820e-001  2.150000e+000
      vertex -4.618802e-001 -8.526513e-017  2.150000e+000
    endloop
  endfacet
  facet normal  0.000000e+000 -7.071068e-001 -7.071068e-001
    outer loop
      vertex  1.905256e-001 -3.300000e-001  1.650000e+000
      vertex  2.309401e-001 -4.000000e-001  1.720000e+000
      vertex -1.905256e-001 -3.300000e-001  1.650000e+000
    endloop
  endfacet
  facet normal  0.000000e+000 -7.071068e-001 -7.071068e-001
    outer loop
      vertex -1.905256e-001 -3.300000e-001  1.650000e+000
      vertex  2.309401e-001 -4.000000e-001  1.720000e+000
      vertex -2.309401e-001 -4.000000e-001  1.720000e+000
    endloop
  endfacet
  facet normal -8.660254e-001  5.000001e-001  9.914550e-017
    outer loop
      vertex -2.309401e-001  4.000000e-001  1.720000e+000
      vertex -4.618802e-001  0.000000e+000  1.720000e+000
      vertex -4.618802e-001 -8.526513e-017  2.150000e+000
    endloop
  endfacet
  facet normal -8.660254e-001  5.000000e-001 -4.647414e-008
    outer loop
      vertex -2.309401e-001  4.000000e-001  1.720000e+000
      vertex -4.618802e-001 -8.526513e-017  2.150000e+000
      vertex -3.641452e-001  1.692820e-001  2.150000e+000
    endloop
  endfacet
  facet normal -8.660254e-001  5.000001e-001  1.600699e-008
    outer loop
      vertex -2.309401e-001  4.000000e-001  1.720000e+000
      vertex -3.641452e-001  1.692820e-001  2.150000e+000
      vertex -3.286752e-001  2.307180e-001  2.150000e+000
    endloop
  endfacet
  facet normal -8.660254e-001  5.000000e-001  0.000000e+000
    outer loop
      vertex -2.309401e-001  4.000000e-001  1.720000e+000
      vertex -3.286752e-001  2.307180e-001  2.150000e+000
      vertex -2.309401e-001  4.000000e-001  2.150000e+000
    endloop
  endfacet
  facet normal -6.123725e-001 -3.535534e-001 -7.071068e-001
    outer loop
      vertex -1.905256e-001 -3.300000e-001  1.650000e+000
      vertex -2.309401e-001 -4.000000e-001  1.720000e+000
      vertex -3.810512e-001 -5.684342e-016  1.650000e+000
    endloop
  endfacet
  facet normal -6.123725e-001 -3.535534e-001 -7.071068e-001
    outer loop
      vertex -3.810512e-001 -5.684342e-016  1.650000e+000
      vertex -2.309401e-001 -4.000000e-001  1.720000e+000
      vertex -4.618802e-001  0.000000e+000  1.720000e+000
    endloop
  endfacet
  facet normal  0.000000e+000 -1.000000e+000  0.000000e+000
    outer loop
      vertex -1.905256e-001 -3.300000e-001 -1.500000e-001
      vertex  1.905256e-001 -3.300000e-001 -1.500000e-001
      vertex -1.905256e-001 -3.300000e-001  1.650000e+000
    endloop
  endfacet
  facet normal  0.000000e+000 -1.000000e+000  0.000000e+000
    outer loop
      vertex -1.905256e-001 -3.300000e-001  1.650000e+000
      vertex  1.905256e-001 -3.300000e-001 -1.500000e-001
      vertex  1.905256e-001 -3.300000e-001  1.650000e+000
    endloop
  endfacet
  facet normal -8.660254e-001 -5.000000e-001  0.000000e+000
    outer loop
      vertex -3.810512e-001 -5.684342e-017 -1.500000e-001
      vertex -1.905256e-001 -3.300000e-001 -1.500000e-001
      vertex -3.810512e-001 -5.684342e-016  1.650000e+000
    endloop
  endfacet
  facet normal -8.660254e-001 -5.000000e-001  0.000000e+000
    outer loop
      vertex -3.810512e-001 -5.684342e-016  1.650000e+000
      vertex -1.905256e-001 -3.300000e-001 -1.500000e-001
      vertex -1.905256e-001 -3.300000e-001  1.650000e+000
    endloop
  endfacet
  facet normal  0.000000e+000 -7.071068e-001  7.071068e-001
    outer loop
      vertex  2.309401e-001 -4.000000e-001 -2.200000e-001
      vertex  1.905256e-001 -3.300000e-001 -1.500000e-001
      vertex -2.309401e-001 -4.000000e-001 -2.200000e-001
    endloop
  endfacet
  facet normal  0.000000e+000 -7.071068e-001  7.071068e-001
    outer loop
      vertex -2.309401e-001 -4.000000e-001 -2.200000e-001
      vertex  1.905256e-001 -3.300000e-001 -1.500000e-001
      vertex -1.905256e-001 -3.300000e-001 -1.500000e-001
    endloop
  endfacet
  facet normal -6.123725e-001 -3.535534e-001  7.071068e-001
    outer loop
      vertex -2.309401e-001 -4.000000e-001 -2.200000e-001
      vertex -1.905256e-001 -3.300000e-001 -1.500000e-001
      vertex -4.618802e-001 -5.684342e-017 -2.200000e-001
    endloop
  endfacet
  facet normal -6.123725e-001 -3.535533e-001  7.071068e-001
    outer loop
      vertex -4.618802e-001 -5.684342e-017 -2.200000e-001
      vertex -1.905256e-001 -3.300000e-001 -1.500000e-001
      vertex -3.810512e-001 -5.684342e-017 -1.500000e-001
    endloop
  endfacet
  facet normal  0.000000e+000 -1.000000e+000  0.000000e+000
    outer loop
      vertex  2.309401e-001 -4.000000e-001 -2.200000e-001
      vertex -2.309401e-001 -4.000000e-001 -2.200000e-001
      vertex -2.309401e-001 -4.000000e-001 -6.500000e-001
    endloop
  endfacet
  facet normal  0.000000e+000 -1.000000e+000  0.000000e+000
    outer loop
      vertex  2.309401e-001 -4.000000e-001 -2.200000e-001
      vertex -2.309401e-001 -4.000000e-001 -6.500000e-001
      vertex -3.547006e-002 -4.000000e-001 -6.500000e-001
    endloop
  endfacet
  facet normal  0.000000e+000 -1.000000e+000  0.000000e+000
    outer loop
      vertex  2.309401e-001 -4.000000e-001 -2.200000e-001
      vertex -3.547006e-002 -4.000000e-001 -6.500000e-001
      vertex  3.547006e-002 -4.000000e-001 -6.500000e-001
    endloop
  endfacet
  facet normal  0.000000e+000 -1.000000e+000  0.000000e+000
    outer loop
      vertex  2.309401e-001 -4.000000e-001 -2.200000e-001
      vertex  3.547006e-002 -4.000000e-001 -6.500000e-001
      vertex  2.309401e-001 -4.000000e-001 -6.500000e-001
    endloop
  endfacet
  facet normal  8.660254e-001  5.000001e-001 -6.609701e-017
    outer loop
      vertex  2.309401e-001  4.000000e-001 -2.200000e-001
      vertex  4.618802e-001  0.000000e+000 -2.200000e-001
      vertex  4.618802e-001 -5.684342e-017 -6.500000e-001
    endloop
  endfacet
  facet normal  8.660254e-001  5.000000e-001  4.647414e-008
    outer loop
      vertex  2.309401e-001  4.000000e-001 -2.200000e-001
      vertex  4.618802e-001 -5.684342e-017 -6.500000e-001
      vertex  3.641452e-001  1.692820e-001 -6.500000e-001
    endloop
  endfacet
  facet normal  8.660254e-001  5.000001e-001 -1.600699e-008
    outer loop
      vertex  2.309401e-001  4.000000e-001 -2.200000e-001
      vertex  3.641452e-001  1.692820e-001 -6.500000e-001
      vertex  3.286752e-001  2.307180e-001 -6.500000e-001
    endloop
  endfacet
  facet normal  8.660254e-001  5.000000e-001  0.000000e+000
    outer loop
      vertex  2.309401e-001  4.000000e-001 -2.200000e-001
      vertex  3.286752e-001  2.307180e-001 -6.500000e-001
      vertex  2.309401e-001  4.000000e-001 -6.500000e-001
    endloop
  endfacet
  facet normal -8.660254e-001 -5.000001e-001 -3.304850e-017
    outer loop
      vertex -2.309401e-001 -4.000000e-001 -2.200000e-001
      vertex -4.618802e-001 -5.684342e-017 -2.200000e-001
      vertex -4.618802e-001 -2.842171e-017 -6.500000e-001
    endloop
  endfacet
  facet normal -8.660254e-001 -5.000000e-001  4.647414e-008
    outer loop
      vertex -2.309401e-001 -4.000000e-001 -2.200000e-001
      vertex -4.618802e-001 -2.842171e-017 -6.500000e-001
      vertex -3.641452e-001 -1.692820e-001 -6.500000e-001
    endloop
  endfacet
  facet normal -8.660254e-001 -5.000001e-001 -1.600699e-008
    outer loop
      vertex -2.309401e-001 -4.000000e-001 -2.200000e-001
      vertex -3.641452e-001 -1.692820e-001 -6.500000e-001
      vertex -3.286752e-001 -2.307180e-001 -6.500000e-001
    endloop
  endfacet
  facet normal -8.660254e-001 -5.000000e-001  0.000000e+000
    outer loop
      vertex -2.309401e-001 -4.000000e-001 -2.200000e-001
      vertex -3.286752e-001 -2.307180e-001 -6.500000e-001
      vertex -2.309401e-001 -4.000000e-001 -6.500000e-001
    endloop
  endfacet
  facet normal -8.660254e-001  5.000001e-001  0.000000e+000
    outer loop
      vertex -4.618802e-001 -5.684342e-017 -2.200000e-001
      vertex -2.309401e-001  4.000000e-001 -2.200000e-001
      vertex -2.309401e-001  4.000000e-001 -6.500000e-001
    endloop
  endfacet
  facet normal -8.660254e-001  5.000000e-001  0.000000e+000
    outer loop
      vertex -4.618802e-001 -5.684342e-017 -2.200000e-001
      vertex -2.309401e-001  4.000000e-001 -6.500000e-001
      vertex -3.286752e-001  2.307180e-001 -6.500000e-001
    endloop
  endfacet
  facet normal -8.660254e-001  5.000001e-001  4.802097e-008
    outer loop
      vertex -4.618802e-001 -5.684342e-017 -2.200000e-001
      vertex -3.286752e-001  2.307180e-001 -6.500000e-001
      vertex -3.641452e-001  1.692820e-001 -6.500000e-001
    endloop
  endfacet
  facet normal -8.660254e-001  5.000000e-001  0.000000e+000
    outer loop
      vertex -4.618802e-001 -5.684342e-017 -2.200000e-001
      vertex -3.641452e-001  1.692820e-001 -6.500000e-001
      vertex -4.618802e-001 -2.842171e-017 -6.500000e-001
    endloop
  endfacet
  facet normal -6.123725e-001  3.535534e-001 -7.071068e-001
    outer loop
      vertex -2.132051e-001  2.307180e-001 -7.500001e-001
      vertex -3.286752e-001  2.307180e-001 -6.500000e-001
      vertex -1.732051e-001  3.000000e-001 -7.500001e-001
    endloop
  endfacet
  facet normal -6.123725e-001  3.535534e-001 -7.071068e-001
    outer loop
      vertex -1.732051e-001  3.000000e-001 -7.500001e-001
      vertex -3.286752e-001  2.307180e-001 -6.500000e-001
      vertex -2.309401e-001  4.000000e-001 -6.500000e-001
    endloop
  endfacet
endsolid CATIA STL
