solid CATIA STL
  facet normal  -0.000000e+000  0.000000e+000  9.999999e-001
    outer loop
      vertex  1.905256e-001  3.300000e-001  1.100000e+000
      vertex -1.905256e-001  3.300000e-001  1.100000e+000
      vertex  3.810512e-001 -1.136868e-016  1.100000e+000
    endloop
  endfacet
  facet normal  0.000000e+000  0.000000e+000  9.999999e-001
    outer loop
      vertex  3.810512e-001 -1.136868e-016  1.100000e+000
      vertex -1.905256e-001  3.300000e-001  1.100000e+000
      vertex -3.810512e-001 -5.400125e-016  1.100000e+000
    endloop
  endfacet
  facet normal  -0.000000e+000  0.000000e+000  9.999999e-001
    outer loop
      vertex  3.810512e-001 -1.136868e-016  1.100000e+000
      vertex -3.810512e-001 -5.400125e-016  1.100000e+000
      vertex  1.905256e-001 -3.300000e-001  1.100000e+000
    endloop
  endfacet
  facet normal  0.000000e+000  0.000000e+000  9.999999e-001
    outer loop
      vertex  1.905256e-001 -3.300000e-001  1.100000e+000
      vertex -3.810512e-001 -5.400125e-016  1.100000e+000
      vertex -1.905256e-001 -3.300000e-001  1.100000e+000
    endloop
  endfacet
  facet normal  0.000000e+000  0.000000e+000 -1.000000e+000
    outer loop
      vertex  1.905256e-001  3.300000e-001 -9.000000e-001
      vertex  3.810512e-001 -1.136868e-016 -9.000000e-001
      vertex -1.905256e-001  3.300000e-001 -9.000000e-001
    endloop
  endfacet
  facet normal  0.000000e+000  -0.000000e+000 -9.999999e-001
    outer loop
      vertex -1.905256e-001  3.300000e-001 -9.000000e-001
      vertex  3.810512e-001 -1.136868e-016 -9.000000e-001
      vertex -3.810512e-001 -5.400125e-016 -9.000000e-001
    endloop
  endfacet
  facet normal  0.000000e+000  0.000000e+000 -9.999999e-001
    outer loop
      vertex  3.810512e-001 -1.136868e-016 -9.000000e-001
      vertex  1.905256e-001 -3.300000e-001 -9.000000e-001
      vertex -3.810512e-001 -5.400125e-016 -9.000000e-001
    endloop
  endfacet
  facet normal  0.000000e+000  0.000000e+000 -1.000000e+000
    outer loop
      vertex -3.810512e-001 -5.400125e-016 -9.000000e-001
      vertex  1.905256e-001 -3.300000e-001 -9.000000e-001
      vertex -1.905256e-001 -3.300000e-001 -9.000000e-001
    endloop
  endfacet
  facet normal  0.000000e+000 -1.000000e+000  0.000000e+000
    outer loop
      vertex -1.905256e-001 -3.300000e-001 -9.000000e-001
      vertex  1.905256e-001 -3.300000e-001 -9.000000e-001
      vertex -1.905256e-001 -3.300000e-001  1.100000e+000
    endloop
  endfacet
  facet normal  0.000000e+000 -1.000000e+000  0.000000e+000
    outer loop
      vertex -1.905256e-001 -3.300000e-001  1.100000e+000
      vertex  1.905256e-001 -3.300000e-001 -9.000000e-001
      vertex  1.905256e-001 -3.300000e-001  1.100000e+000
    endloop
  endfacet
  facet normal -8.660254e-001 -5.000000e-001  0.000000e+000
    outer loop
      vertex -3.810512e-001 -5.400125e-016 -9.000000e-001
      vertex -1.905256e-001 -3.300000e-001 -9.000000e-001
      vertex -3.810512e-001 -5.400125e-016  1.100000e+000
    endloop
  endfacet
  facet normal -8.660254e-001 -5.000000e-001  0.000000e+000
    outer loop
      vertex -3.810512e-001 -5.400125e-016  1.100000e+000
      vertex -1.905256e-001 -3.300000e-001 -9.000000e-001
      vertex -1.905256e-001 -3.300000e-001  1.100000e+000
    endloop
  endfacet
  facet normal -8.660254e-001  5.000000e-001  0.000000e+000
    outer loop
      vertex -1.905256e-001  3.300000e-001 -9.000000e-001
      vertex -3.810512e-001 -5.400125e-016 -9.000000e-001
      vertex -1.905256e-001  3.300000e-001  1.100000e+000
    endloop
  endfacet
  facet normal -8.660254e-001  5.000000e-001  0.000000e+000
    outer loop
      vertex -1.905256e-001  3.300000e-001  1.100000e+000
      vertex -3.810512e-001 -5.400125e-016 -9.000000e-001
      vertex -3.810512e-001 -5.400125e-016  1.100000e+000
    endloop
  endfacet
  facet normal  0.000000e+000  1.000000e+000  0.000000e+000
    outer loop
      vertex  1.905256e-001  3.300000e-001 -9.000000e-001
      vertex -1.905256e-001  3.300000e-001 -9.000000e-001
      vertex  1.905256e-001  3.300000e-001  1.100000e+000
    endloop
  endfacet
  facet normal  0.000000e+000  1.000000e+000  0.000000e+000
    outer loop
      vertex  1.905256e-001  3.300000e-001  1.100000e+000
      vertex -1.905256e-001  3.300000e-001 -9.000000e-001
      vertex -1.905256e-001  3.300000e-001  1.100000e+000
    endloop
  endfacet
  facet normal  8.660254e-001  5.000000e-001  0.000000e+000
    outer loop
      vertex  3.810512e-001 -1.136868e-016 -9.000000e-001
      vertex  1.905256e-001  3.300000e-001 -9.000000e-001
      vertex  3.810512e-001 -1.136868e-016  1.100000e+000
    endloop
  endfacet
  facet normal  8.660254e-001  5.000000e-001  0.000000e+000
    outer loop
      vertex  3.810512e-001 -1.136868e-016  1.100000e+000
      vertex  1.905256e-001  3.300000e-001 -9.000000e-001
      vertex  1.905256e-001  3.300000e-001  1.100000e+000
    endloop
  endfacet
  facet normal  8.660254e-001 -5.000000e-001  0.000000e+000
    outer loop
      vertex  1.905256e-001 -3.300000e-001 -9.000000e-001
      vertex  3.810512e-001 -1.136868e-016 -9.000000e-001
      vertex  1.905256e-001 -3.300000e-001  1.100000e+000
    endloop
  endfacet
  facet normal  8.660254e-001 -5.000000e-001  0.000000e+000
    outer loop
      vertex  1.905256e-001 -3.300000e-001  1.100000e+000
      vertex  3.810512e-001 -1.136868e-016 -9.000000e-001
      vertex  3.810512e-001 -1.136868e-016  1.100000e+000
    endloop
  endfacet
endsolid CATIA STL
