solid CATIA STL
  facet normal  1.000000e+000  0.000000e+000  0.000000e+000
    outer loop
      vertex  2.500000e-001  2.000000e-001  9.700000e-001
      vertex  2.500000e-001  2.000000e-001 -5.794955e-001
      vertex  2.500000e-001  3.650793e-001  9.700000e-001
    endloop
  endfacet
  facet normal  9.999999e-001  0.000000e+000  0.000000e+000
    outer loop
      vertex  2.500000e-001  3.650793e-001  9.700000e-001
      vertex  2.500000e-001  2.000000e-001 -5.794955e-001
      vertex  2.500000e-001  4.000000e-001 -3.000000e-002
    endloop
  endfacet
  facet normal -1.000000e+000  0.000000e+000  0.000000e+000
    outer loop
      vertex -2.500000e-001  2.000000e-001 -5.794955e-001
      vertex -2.500000e-001  2.000000e-001  9.700000e-001
      vertex -2.500000e-001  4.000000e-001 -3.000000e-002
    endloop
  endfacet
  facet normal -1.000000e+000  0.000000e+000  0.000000e+000
    outer loop
      vertex -2.500000e-001  4.000000e-001 -3.000000e-002
      vertex -2.500000e-001  2.000000e-001  9.700000e-001
      vertex -2.500000e-001  3.650793e-001  9.700000e-001
    endloop
  endfacet
  facet normal  0.000000e+000 -1.000000e+000  0.000000e+000
    outer loop
      vertex  2.500000e-001  2.000000e-001  9.700000e-001
      vertex -2.500000e-001  2.000000e-001  9.700000e-001
      vertex  2.500000e-001  2.000000e-001 -5.794955e-001
    endloop
  endfacet
  facet normal  0.000000e+000 -1.000000e+000  0.000000e+000
    outer loop
      vertex  2.500000e-001  2.000000e-001 -5.794955e-001
      vertex -2.500000e-001  2.000000e-001  9.700000e-001
      vertex -2.500000e-001  2.000000e-001 -5.794955e-001
    endloop
  endfacet
  facet normal  0.000000e+000  0.000000e+000  1.000000e+000
    outer loop
      vertex -2.500000e-001  3.650793e-001  9.700000e-001
      vertex -2.500000e-001  2.000000e-001  9.700000e-001
      vertex  2.500000e-001  3.650793e-001  9.700000e-001
    endloop
  endfacet
  facet normal  0.000000e+000  0.000000e+000  1.000000e+000
    outer loop
      vertex  2.500000e-001  3.650793e-001  9.700000e-001
      vertex -2.500000e-001  2.000000e-001  9.700000e-001
      vertex  2.500000e-001  2.000000e-001  9.700000e-001
    endloop
  endfacet
  facet normal  -0.000000e+000  9.993908e-001  3.489951e-002
    outer loop
      vertex  2.500000e-001  4.000000e-001 -3.000000e-002
      vertex -2.500000e-001  4.000000e-001 -3.000000e-002
      vertex  2.500000e-001  3.650793e-001  9.700000e-001
    endloop
  endfacet
  facet normal  0.000000e+000  9.993908e-001  3.489951e-002
    outer loop
      vertex  2.500000e-001  3.650793e-001  9.700000e-001
      vertex -2.500000e-001  4.000000e-001 -3.000000e-002
      vertex -2.500000e-001  3.650793e-001  9.700000e-001
    endloop
  endfacet
  facet normal  0.000000e+000  9.396927e-001 -3.420202e-001
    outer loop
      vertex  2.500000e-001  2.000000e-001 -5.794955e-001
      vertex -2.500000e-001  2.000000e-001 -5.794955e-001
      vertex  2.500000e-001  4.000000e-001 -3.000000e-002
    endloop
  endfacet
  facet normal  0.000000e+000  9.396927e-001 -3.420202e-001
    outer loop
      vertex  2.500000e-001  4.000000e-001 -3.000000e-002
      vertex -2.500000e-001  2.000000e-001 -5.794955e-001
      vertex -2.500000e-001  4.000000e-001 -3.000000e-002
    endloop
  endfacet
endsolid CATIA STL
