solid CATIA STL
  facet normal  -0.000000e+000  0.000000e+000  1.000000e+000
    outer loop
      vertex  1.587713e-001  2.750000e-001  1.400000e+000
      vertex -1.587713e-001  2.750000e-001  1.400000e+000
      vertex  3.175426e-001  2.842171e-017  1.400000e+000
    endloop
  endfacet
  facet normal  0.000000e+000  0.000000e+000  1.000000e+000
    outer loop
      vertex  3.175426e-001  2.842171e-017  1.400000e+000
      vertex -1.587713e-001  2.750000e-001  1.400000e+000
      vertex -3.175426e-001  8.526513e-017  1.400000e+000
    endloop
  endfacet
  facet normal  0.000000e+000  0.000000e+000  1.000000e+000
    outer loop
      vertex  3.175426e-001  2.842171e-017  1.400000e+000
      vertex -3.175426e-001  8.526513e-017  1.400000e+000
      vertex  1.587713e-001 -2.750000e-001  1.400000e+000
    endloop
  endfacet
  facet normal  0.000000e+000  0.000000e+000  1.000000e+000
    outer loop
      vertex  1.587713e-001 -2.750000e-001  1.400000e+000
      vertex -3.175426e-001  8.526513e-017  1.400000e+000
      vertex -1.587713e-001 -2.750000e-001  1.400000e+000
    endloop
  endfacet
  facet normal  -0.000000e+000  0.000000e+000 -1.000000e+000
    outer loop
      vertex -1.141408e-001  1.976977e-001  8.600324e-001
      vertex  1.141408e-001  1.976977e-001  8.600324e-001
      vertex -2.282816e-001  5.684342e-017  8.600324e-001
    endloop
  endfacet
  facet normal  0.000000e+000  0.000000e+000 -1.000000e+000
    outer loop
      vertex -2.282816e-001  5.684342e-017  8.600324e-001
      vertex  1.141408e-001  1.976977e-001  8.600324e-001
      vertex  2.282816e-001  2.842171e-017  8.600324e-001
    endloop
  endfacet
  facet normal  -0.000000e+000  0.000000e+000 -1.000000e+000
    outer loop
      vertex -2.282816e-001  5.684342e-017  8.600324e-001
      vertex  2.282816e-001  2.842171e-017  8.600324e-001
      vertex -1.141408e-001 -1.976977e-001  8.600324e-001
    endloop
  endfacet
  facet normal  0.000000e+000  0.000000e+000 -1.000000e+000
    outer loop
      vertex -1.141408e-001 -1.976977e-001  8.600324e-001
      vertex  2.282816e-001  2.842171e-017  8.600324e-001
      vertex  1.141408e-001 -1.976977e-001  8.600324e-001
    endloop
  endfacet
  facet normal  7.499999e-001  4.330126e-001 -5.000002e-001
    outer loop
      vertex  1.276866e-001  2.211597e-001  9.006698e-001
      vertex  2.553732e-001  5.684342e-017  9.006698e-001
      vertex  1.141408e-001  1.976977e-001  8.600324e-001
    endloop
  endfacet
  facet normal  7.499999e-001  4.330126e-001 -5.000002e-001
    outer loop
      vertex  1.141408e-001  1.976977e-001  8.600324e-001
      vertex  2.553732e-001  5.684342e-017  9.006698e-001
      vertex  2.282816e-001  2.842171e-017  8.600324e-001
    endloop
  endfacet
  facet normal  8.242772e-001  4.758967e-001 -3.067399e-001
    outer loop
      vertex  1.542511e-001  2.671707e-001  1.043439e+000
      vertex  3.085021e-001 -1.136868e-016  1.043439e+000
      vertex  1.276866e-001  2.211597e-001  9.006698e-001
    endloop
  endfacet
  facet normal  8.242773e-001  4.758967e-001 -3.067400e-001
    outer loop
      vertex  1.276866e-001  2.211597e-001  9.006698e-001
      vertex  3.085021e-001 -1.136868e-016  1.043439e+000
      vertex  2.553732e-001  5.684342e-017  9.006698e-001
    endloop
  endfacet
  facet normal  8.660254e-001  5.000000e-001  -0.000000e+000
    outer loop
      vertex  3.175426e-001  2.842171e-017  1.400000e+000
      vertex  3.175426e-001  2.842171e-017  1.200000e+000
      vertex  1.587713e-001  2.750000e-001  1.400000e+000
    endloop
  endfacet
  facet normal  8.660254e-001  5.000000e-001  0.000000e+000
    outer loop
      vertex  1.587713e-001  2.750000e-001  1.400000e+000
      vertex  3.175426e-001  2.842171e-017  1.200000e+000
      vertex  1.587713e-001  2.750000e-001  1.200000e+000
    endloop
  endfacet
  facet normal  8.649445e-001  4.993759e-001 -4.994548e-002
    outer loop
      vertex  1.587713e-001  2.750000e-001  1.200000e+000
      vertex  3.175426e-001  2.842171e-017  1.200000e+000
      vertex  1.542511e-001  2.671707e-001  1.043439e+000
    endloop
  endfacet
  facet normal  8.649445e-001  4.993759e-001 -4.994547e-002
    outer loop
      vertex  1.542511e-001  2.671707e-001  1.043439e+000
      vertex  3.175426e-001  2.842171e-017  1.200000e+000
      vertex  3.085021e-001 -1.136868e-016  1.043439e+000
    endloop
  endfacet
  facet normal  0.000000e+000 -8.660253e-001 -5.000002e-001
    outer loop
      vertex  1.276866e-001 -2.211597e-001  9.006698e-001
      vertex -1.276866e-001 -2.211597e-001  9.006698e-001
      vertex  1.141408e-001 -1.976977e-001  8.600324e-001
    endloop
  endfacet
  facet normal  -0.000000e+000 -8.660252e-001 -5.000002e-001
    outer loop
      vertex  1.141408e-001 -1.976977e-001  8.600324e-001
      vertex -1.276866e-001 -2.211597e-001  9.006698e-001
      vertex -1.141408e-001 -1.976977e-001  8.600324e-001
    endloop
  endfacet
  facet normal  0.000000e+000 -9.999999e-001  0.000000e+000
    outer loop
      vertex -1.587713e-001 -2.750000e-001  1.400000e+000
      vertex -1.587713e-001 -2.750000e-001  1.200000e+000
      vertex  1.587713e-001 -2.750000e-001  1.400000e+000
    endloop
  endfacet
  facet normal  0.000000e+000 -9.999999e-001  -0.000000e+000
    outer loop
      vertex  1.587713e-001 -2.750000e-001  1.400000e+000
      vertex -1.587713e-001 -2.750000e-001  1.200000e+000
      vertex  1.587713e-001 -2.750000e-001  1.200000e+000
    endloop
  endfacet
  facet normal  0.000000e+000 -9.517933e-001 -3.067398e-001
    outer loop
      vertex  1.542511e-001 -2.671707e-001  1.043439e+000
      vertex -1.542511e-001 -2.671707e-001  1.043439e+000
      vertex  1.276866e-001 -2.211597e-001  9.006698e-001
    endloop
  endfacet
  facet normal  -0.000000e+000 -9.517934e-001 -3.067399e-001
    outer loop
      vertex  1.276866e-001 -2.211597e-001  9.006698e-001
      vertex -1.542511e-001 -2.671707e-001  1.043439e+000
      vertex -1.276866e-001 -2.211597e-001  9.006698e-001
    endloop
  endfacet
  facet normal  0.000000e+000 -9.987519e-001 -4.994557e-002
    outer loop
      vertex  1.587713e-001 -2.750000e-001  1.200000e+000
      vertex -1.587713e-001 -2.750000e-001  1.200000e+000
      vertex  1.542511e-001 -2.671707e-001  1.043439e+000
    endloop
  endfacet
  facet normal  -0.000000e+000 -9.987519e-001 -4.994558e-002
    outer loop
      vertex  1.542511e-001 -2.671707e-001  1.043439e+000
      vertex -1.587713e-001 -2.750000e-001  1.200000e+000
      vertex -1.542511e-001 -2.671707e-001  1.043439e+000
    endloop
  endfacet
  facet normal  8.242772e-001 -4.758967e-001 -3.067399e-001
    outer loop
      vertex  3.085021e-001 -1.136868e-016  1.043439e+000
      vertex  1.542511e-001 -2.671707e-001  1.043439e+000
      vertex  2.553732e-001  5.684342e-017  9.006698e-001
    endloop
  endfacet
  facet normal  8.242773e-001 -4.758967e-001 -3.067399e-001
    outer loop
      vertex  2.553732e-001  5.684342e-017  9.006698e-001
      vertex  1.542511e-001 -2.671707e-001  1.043439e+000
      vertex  1.276866e-001 -2.211597e-001  9.006698e-001
    endloop
  endfacet
  facet normal  7.500001e-001 -4.330127e-001 -5.000001e-001
    outer loop
      vertex  2.553732e-001  5.684342e-017  9.006698e-001
      vertex  1.276866e-001 -2.211597e-001  9.006698e-001
      vertex  2.282816e-001  2.842171e-017  8.600324e-001
    endloop
  endfacet
  facet normal  7.500000e-001 -4.330127e-001 -5.000002e-001
    outer loop
      vertex  2.282816e-001  2.842171e-017  8.600324e-001
      vertex  1.276866e-001 -2.211597e-001  9.006698e-001
      vertex  1.141408e-001 -1.976977e-001  8.600324e-001
    endloop
  endfacet
  facet normal  8.660254e-001 -5.000000e-001  0.000000e+000
    outer loop
      vertex  1.587713e-001 -2.750000e-001  1.400000e+000
      vertex  1.587713e-001 -2.750000e-001  1.200000e+000
      vertex  3.175426e-001  2.842171e-017  1.400000e+000
    endloop
  endfacet
  facet normal  8.660254e-001 -5.000000e-001  0.000000e+000
    outer loop
      vertex  3.175426e-001  2.842171e-017  1.400000e+000
      vertex  1.587713e-001 -2.750000e-001  1.200000e+000
      vertex  3.175426e-001  2.842171e-017  1.200000e+000
    endloop
  endfacet
  facet normal  8.649445e-001 -4.993759e-001 -4.994548e-002
    outer loop
      vertex  3.175426e-001  2.842171e-017  1.200000e+000
      vertex  1.587713e-001 -2.750000e-001  1.200000e+000
      vertex  3.085021e-001 -1.136868e-016  1.043439e+000
    endloop
  endfacet
  facet normal  8.649445e-001 -4.993759e-001 -4.994547e-002
    outer loop
      vertex  3.085021e-001 -1.136868e-016  1.043439e+000
      vertex  1.587713e-001 -2.750000e-001  1.200000e+000
      vertex  1.542511e-001 -2.671707e-001  1.043439e+000
    endloop
  endfacet
  facet normal  0.000000e+000  8.660253e-001 -5.000002e-001
    outer loop
      vertex -1.276866e-001  2.211597e-001  9.006698e-001
      vertex  1.276866e-001  2.211597e-001  9.006698e-001
      vertex -1.141408e-001  1.976977e-001  8.600324e-001
    endloop
  endfacet
  facet normal  0.000000e+000  8.660252e-001 -5.000002e-001
    outer loop
      vertex -1.141408e-001  1.976977e-001  8.600324e-001
      vertex  1.276866e-001  2.211597e-001  9.006698e-001
      vertex  1.141408e-001  1.976977e-001  8.600324e-001
    endloop
  endfacet
  facet normal  0.000000e+000  9.517933e-001 -3.067398e-001
    outer loop
      vertex -1.542511e-001  2.671707e-001  1.043439e+000
      vertex  1.542511e-001  2.671707e-001  1.043439e+000
      vertex -1.276866e-001  2.211597e-001  9.006698e-001
    endloop
  endfacet
  facet normal  0.000000e+000  9.517934e-001 -3.067399e-001
    outer loop
      vertex -1.276866e-001  2.211597e-001  9.006698e-001
      vertex  1.542511e-001  2.671707e-001  1.043439e+000
      vertex  1.276866e-001  2.211597e-001  9.006698e-001
    endloop
  endfacet
  facet normal  0.000000e+000  9.999999e-001  -0.000000e+000
    outer loop
      vertex  1.587713e-001  2.750000e-001  1.400000e+000
      vertex  1.587713e-001  2.750000e-001  1.200000e+000
      vertex -1.587713e-001  2.750000e-001  1.400000e+000
    endloop
  endfacet
  facet normal  0.000000e+000  9.999999e-001  0.000000e+000
    outer loop
      vertex -1.587713e-001  2.750000e-001  1.400000e+000
      vertex  1.587713e-001  2.750000e-001  1.200000e+000
      vertex -1.587713e-001  2.750000e-001  1.200000e+000
    endloop
  endfacet
  facet normal  0.000000e+000  9.987519e-001 -4.994557e-002
    outer loop
      vertex -1.587713e-001  2.750000e-001  1.200000e+000
      vertex  1.587713e-001  2.750000e-001  1.200000e+000
      vertex -1.542511e-001  2.671707e-001  1.043439e+000
    endloop
  endfacet
  facet normal  0.000000e+000  9.987519e-001 -4.994558e-002
    outer loop
      vertex -1.542511e-001  2.671707e-001  1.043439e+000
      vertex  1.587713e-001  2.750000e-001  1.200000e+000
      vertex  1.542511e-001  2.671707e-001  1.043439e+000
    endloop
  endfacet
  facet normal -7.500001e-001  4.330127e-001 -5.000001e-001
    outer loop
      vertex -2.553732e-001  2.842171e-017  9.006698e-001
      vertex -1.276866e-001  2.211597e-001  9.006698e-001
      vertex -2.282816e-001  5.684342e-017  8.600324e-001
    endloop
  endfacet
  facet normal -7.500000e-001  4.330127e-001 -5.000002e-001
    outer loop
      vertex -2.282816e-001  5.684342e-017  8.600324e-001
      vertex -1.276866e-001  2.211597e-001  9.006698e-001
      vertex -1.141408e-001  1.976977e-001  8.600324e-001
    endloop
  endfacet
  facet normal -8.242772e-001  4.758967e-001 -3.067399e-001
    outer loop
      vertex -3.085021e-001  2.842171e-017  1.043439e+000
      vertex -1.542511e-001  2.671707e-001  1.043439e+000
      vertex -2.553732e-001  2.842171e-017  9.006698e-001
    endloop
  endfacet
  facet normal -8.242773e-001  4.758967e-001 -3.067399e-001
    outer loop
      vertex -2.553732e-001  2.842171e-017  9.006698e-001
      vertex -1.542511e-001  2.671707e-001  1.043439e+000
      vertex -1.276866e-001  2.211597e-001  9.006698e-001
    endloop
  endfacet
  facet normal -8.660254e-001  5.000000e-001  0.000000e+000
    outer loop
      vertex -1.587713e-001  2.750000e-001  1.400000e+000
      vertex -1.587713e-001  2.750000e-001  1.200000e+000
      vertex -3.175426e-001  8.526513e-017  1.400000e+000
    endloop
  endfacet
  facet normal -8.660254e-001  5.000000e-001  0.000000e+000
    outer loop
      vertex -3.175426e-001  8.526513e-017  1.400000e+000
      vertex -1.587713e-001  2.750000e-001  1.200000e+000
      vertex -3.175426e-001  8.526513e-017  1.200000e+000
    endloop
  endfacet
  facet normal -8.649445e-001  4.993759e-001 -4.994548e-002
    outer loop
      vertex -3.175426e-001  8.526513e-017  1.200000e+000
      vertex -1.587713e-001  2.750000e-001  1.200000e+000
      vertex -3.085021e-001  2.842171e-017  1.043439e+000
    endloop
  endfacet
  facet normal -8.649445e-001  4.993759e-001 -4.994547e-002
    outer loop
      vertex -3.085021e-001  2.842171e-017  1.043439e+000
      vertex -1.587713e-001  2.750000e-001  1.200000e+000
      vertex -1.542511e-001  2.671707e-001  1.043439e+000
    endloop
  endfacet
  facet normal -7.499999e-001 -4.330126e-001 -5.000002e-001
    outer loop
      vertex -1.276866e-001 -2.211597e-001  9.006698e-001
      vertex -2.553732e-001  2.842171e-017  9.006698e-001
      vertex -1.141408e-001 -1.976977e-001  8.600324e-001
    endloop
  endfacet
  facet normal -7.499999e-001 -4.330126e-001 -5.000002e-001
    outer loop
      vertex -1.141408e-001 -1.976977e-001  8.600324e-001
      vertex -2.553732e-001  2.842171e-017  9.006698e-001
      vertex -2.282816e-001  5.684342e-017  8.600324e-001
    endloop
  endfacet
  facet normal -8.242772e-001 -4.758967e-001 -3.067399e-001
    outer loop
      vertex -1.542511e-001 -2.671707e-001  1.043439e+000
      vertex -3.085021e-001  2.842171e-017  1.043439e+000
      vertex -1.276866e-001 -2.211597e-001  9.006698e-001
    endloop
  endfacet
  facet normal -8.242773e-001 -4.758967e-001 -3.067400e-001
    outer loop
      vertex -1.276866e-001 -2.211597e-001  9.006698e-001
      vertex -3.085021e-001  2.842171e-017  1.043439e+000
      vertex -2.553732e-001  2.842171e-017  9.006698e-001
    endloop
  endfacet
  facet normal -8.660254e-001 -5.000000e-001  0.000000e+000
    outer loop
      vertex -3.175426e-001  8.526513e-017  1.400000e+000
      vertex -3.175426e-001  8.526513e-017  1.200000e+000
      vertex -1.587713e-001 -2.750000e-001  1.400000e+000
    endloop
  endfacet
  facet normal -8.660254e-001 -5.000000e-001  -0.000000e+000
    outer loop
      vertex -1.587713e-001 -2.750000e-001  1.400000e+000
      vertex -3.175426e-001  8.526513e-017  1.200000e+000
      vertex -1.587713e-001 -2.750000e-001  1.200000e+000
    endloop
  endfacet
  facet normal -8.649445e-001 -4.993759e-001 -4.994548e-002
    outer loop
      vertex -1.587713e-001 -2.750000e-001  1.200000e+000
      vertex -3.175426e-001  8.526513e-017  1.200000e+000
      vertex -1.542511e-001 -2.671707e-001  1.043439e+000
    endloop
  endfacet
  facet normal -8.649445e-001 -4.993759e-001 -4.994547e-002
    outer loop
      vertex -1.542511e-001 -2.671707e-001  1.043439e+000
      vertex -3.175426e-001  8.526513e-017  1.200000e+000
      vertex -3.085021e-001  2.842171e-017  1.043439e+000
    endloop
  endfacet
endsolid CATIA STL
