solid CATIA STL
  facet normal -6.123725e-001 -3.535534e-001 -7.071068e-001
    outer loop
      vertex -8.660255e-002 -1.500000e-001 -1.400000e+000
      vertex -1.154701e-001 -2.000000e-001 -1.350000e+000
      vertex -1.732051e-001 -1.421086e-017 -1.400000e+000
    endloop
  endfacet
  facet normal -6.123724e-001 -3.535534e-001 -7.071068e-001
    outer loop
      vertex -1.732051e-001 -1.421086e-017 -1.400000e+000
      vertex -1.154701e-001 -2.000000e-001 -1.350000e+000
      vertex -2.309401e-001 -3.552714e-016 -1.350000e+000
    endloop
  endfacet
  facet normal  0.000000e+000 -7.071068e-001 -7.071068e-001
    outer loop
      vertex  8.660255e-002 -1.500000e-001 -1.400000e+000
      vertex  1.154701e-001 -2.000000e-001 -1.350000e+000
      vertex -8.660255e-002 -1.500000e-001 -1.400000e+000
    endloop
  endfacet
  facet normal  0.000000e+000 -7.071068e-001 -7.071068e-001
    outer loop
      vertex -8.660255e-002 -1.500000e-001 -1.400000e+000
      vertex  1.154701e-001 -2.000000e-001 -1.350000e+000
      vertex -1.154701e-001 -2.000000e-001 -1.350000e+000
    endloop
  endfacet
  facet normal  0.000000e+000  0.000000e+000 -1.000000e+000
    outer loop
      vertex  8.660255e-002  1.500000e-001 -1.400000e+000
      vertex  1.732051e-001 -4.263256e-017 -1.400000e+000
      vertex -8.660255e-002  1.500000e-001 -1.400000e+000
    endloop
  endfacet
  facet normal  0.000000e+000  -0.000000e+000 -1.000000e+000
    outer loop
      vertex -8.660255e-002  1.500000e-001 -1.400000e+000
      vertex  1.732051e-001 -4.263256e-017 -1.400000e+000
      vertex -1.732051e-001 -1.421086e-017 -1.400000e+000
    endloop
  endfacet
  facet normal  0.000000e+000  0.000000e+000 -1.000000e+000
    outer loop
      vertex  1.732051e-001 -4.263256e-017 -1.400000e+000
      vertex  8.660255e-002 -1.500000e-001 -1.400000e+000
      vertex -1.732051e-001 -1.421086e-017 -1.400000e+000
    endloop
  endfacet
  facet normal  0.000000e+000  0.000000e+000 -1.000000e+000
    outer loop
      vertex -1.732051e-001 -1.421086e-017 -1.400000e+000
      vertex  8.660255e-002 -1.500000e-001 -1.400000e+000
      vertex -8.660255e-002 -1.500000e-001 -1.400000e+000
    endloop
  endfacet
  facet normal -8.660544e-001 -4.999499e-001 -1.158027e-004
    outer loop
      vertex -1.154778e-001 -1.999865e-001 -4.403867e-001
      vertex -2.309289e-001 -1.948338e-005 -3.249356e-001
      vertex -2.309401e-001 -3.694822e-016 -3.249469e-001
    endloop
  endfacet
  facet normal -8.660254e-001 -5.000000e-001  0.000000e+000
    outer loop
      vertex -2.309401e-001 -3.552714e-016 -1.350000e+000
      vertex -1.154701e-001 -2.000000e-001 -1.350000e+000
      vertex -2.309401e-001 -3.694822e-016 -3.249469e-001
    endloop
  endfacet
  facet normal -8.660254e-001 -5.000000e-001  0.000000e+000
    outer loop
      vertex -2.309401e-001 -3.694822e-016 -3.249469e-001
      vertex -1.154701e-001 -2.000000e-001 -1.350000e+000
      vertex -1.154701e-001 -2.000000e-001 -4.404100e-001
    endloop
  endfacet
  facet normal -8.659452e-001 -5.001388e-001  3.207264e-004
    outer loop
      vertex -2.309401e-001 -3.694822e-016 -3.249469e-001
      vertex -1.154701e-001 -2.000000e-001 -4.404100e-001
      vertex -1.154778e-001 -1.999865e-001 -4.403867e-001
    endloop
  endfacet
  facet normal -6.123724e-001  3.535534e-001 -7.071068e-001
    outer loop
      vertex -1.732051e-001 -1.421086e-017 -1.400000e+000
      vertex -2.309401e-001 -3.552714e-016 -1.350000e+000
      vertex -8.660255e-002  1.500000e-001 -1.400000e+000
    endloop
  endfacet
  facet normal -6.123724e-001  3.535534e-001 -7.071068e-001
    outer loop
      vertex -8.660255e-002  1.500000e-001 -1.400000e+000
      vertex -2.309401e-001 -3.552714e-016 -1.350000e+000
      vertex -1.154701e-001  2.000000e-001 -1.350000e+000
    endloop
  endfacet
  facet normal -8.660254e-001  5.000000e-001  0.000000e+000
    outer loop
      vertex -1.154701e-001  2.000000e-001 -1.350000e+000
      vertex -2.309401e-001 -3.552714e-016 -1.350000e+000
      vertex -1.154701e-001  2.000000e-001 -2.845324e-001
    endloop
  endfacet
  facet normal -8.660254e-001  5.000001e-001  0.000000e+000
    outer loop
      vertex -1.154701e-001  2.000000e-001 -2.845324e-001
      vertex -2.309401e-001 -3.552714e-016 -1.350000e+000
      vertex -2.309401e-001 -3.694822e-016 -3.249469e-001
    endloop
  endfacet
  facet normal -8.660254e-001  5.000000e-001  8.048592e-008
    outer loop
      vertex -1.154701e-001  2.000000e-001 -2.845324e-001
      vertex -2.309401e-001 -3.694822e-016 -3.249469e-001
      vertex -1.905256e-001  7.000000e-002 -2.845324e-001
    endloop
  endfacet
  facet normal  -0.000000e+000 -1.000000e+000  -0.000000e+000
    outer loop
      vertex  1.154701e-001 -2.000000e-001 -1.350000e+000
      vertex  1.154701e-001 -2.000000e-001 -4.404100e-001
      vertex  1.154631e-001 -2.000000e-001 -4.404100e-001
    endloop
  endfacet
  facet normal  -0.000000e+000 -1.000000e+000  -0.000000e+000
    outer loop
      vertex  1.154701e-001 -2.000000e-001 -1.350000e+000
      vertex  1.154631e-001 -2.000000e-001 -4.404100e-001
      vertex -1.154631e-001 -2.000000e-001 -4.404100e-001
    endloop
  endfacet
  facet normal  -0.000000e+000 -1.000000e+000  -0.000000e+000
    outer loop
      vertex  1.154701e-001 -2.000000e-001 -1.350000e+000
      vertex -1.154631e-001 -2.000000e-001 -4.404100e-001
      vertex -1.154701e-001 -2.000000e-001 -4.404100e-001
    endloop
  endfacet
  facet normal  0.000000e+000 -1.000000e+000  0.000000e+000
    outer loop
      vertex  1.154701e-001 -2.000000e-001 -1.350000e+000
      vertex -1.154701e-001 -2.000000e-001 -4.404100e-001
      vertex -1.154701e-001 -2.000000e-001 -1.350000e+000
    endloop
  endfacet
  facet normal  0.000000e+000  7.071068e-001 -7.071068e-001
    outer loop
      vertex -8.660255e-002  1.500000e-001 -1.400000e+000
      vertex -1.154701e-001  2.000000e-001 -1.350000e+000
      vertex  8.660255e-002  1.500000e-001 -1.400000e+000
    endloop
  endfacet
  facet normal  0.000000e+000  7.071068e-001 -7.071068e-001
    outer loop
      vertex  8.660255e-002  1.500000e-001 -1.400000e+000
      vertex -1.154701e-001  2.000000e-001 -1.350000e+000
      vertex  1.154701e-001  2.000000e-001 -1.350000e+000
    endloop
  endfacet
  facet normal  0.000000e+000  1.000000e+000  -0.000000e+000
    outer loop
      vertex  1.154701e-001  2.000000e-001 -2.845324e-001
      vertex  1.154701e-001  2.000000e-001 -1.350000e+000
      vertex -1.154701e-001  2.000000e-001 -2.845324e-001
    endloop
  endfacet
  facet normal  0.000000e+000  1.000000e+000  0.000000e+000
    outer loop
      vertex -1.154701e-001  2.000000e-001 -2.845324e-001
      vertex  1.154701e-001  2.000000e-001 -1.350000e+000
      vertex -1.154701e-001  2.000000e-001 -1.350000e+000
    endloop
  endfacet
  facet normal  6.123725e-001  3.535534e-001 -7.071068e-001
    outer loop
      vertex  8.660255e-002  1.500000e-001 -1.400000e+000
      vertex  1.154701e-001  2.000000e-001 -1.350000e+000
      vertex  1.732051e-001 -4.263256e-017 -1.400000e+000
    endloop
  endfacet
  facet normal  6.123724e-001  3.535534e-001 -7.071068e-001
    outer loop
      vertex  1.732051e-001 -4.263256e-017 -1.400000e+000
      vertex  1.154701e-001  2.000000e-001 -1.350000e+000
      vertex  2.309401e-001 -5.684342e-017 -1.350000e+000
    endloop
  endfacet
  facet normal  8.660254e-001  5.000000e-001  0.000000e+000
    outer loop
      vertex  2.309401e-001 -5.684342e-017 -1.350000e+000
      vertex  1.154701e-001  2.000000e-001 -1.350000e+000
      vertex  2.309401e-001 -1.989520e-016 -3.249469e-001
    endloop
  endfacet
  facet normal  8.660254e-001  5.000000e-001  0.000000e+000
    outer loop
      vertex  2.309401e-001 -1.989520e-016 -3.249469e-001
      vertex  1.154701e-001  2.000000e-001 -1.350000e+000
      vertex  1.154701e-001  2.000000e-001 -2.845324e-001
    endloop
  endfacet
  facet normal  8.660254e-001  5.000000e-001  1.609718e-007
    outer loop
      vertex  2.309401e-001 -1.989520e-016 -3.249469e-001
      vertex  1.154701e-001  2.000000e-001 -2.845324e-001
      vertex  1.905256e-001  7.000000e-002 -2.845324e-001
    endloop
  endfacet
  facet normal  6.123724e-001 -3.535534e-001 -7.071068e-001
    outer loop
      vertex  1.732051e-001 -4.263256e-017 -1.400000e+000
      vertex  2.309401e-001 -5.684342e-017 -1.350000e+000
      vertex  8.660255e-002 -1.500000e-001 -1.400000e+000
    endloop
  endfacet
  facet normal  6.123724e-001 -3.535534e-001 -7.071068e-001
    outer loop
      vertex  8.660255e-002 -1.500000e-001 -1.400000e+000
      vertex  2.309401e-001 -5.684342e-017 -1.350000e+000
      vertex  1.154701e-001 -2.000000e-001 -1.350000e+000
    endloop
  endfacet
  facet normal  8.660544e-001 -4.999499e-001 -1.158027e-004
    outer loop
      vertex  2.309401e-001 -1.989520e-016 -3.249469e-001
      vertex  2.309289e-001 -1.948338e-005 -3.249356e-001
      vertex  1.154778e-001 -1.999865e-001 -4.403867e-001
    endloop
  endfacet
  facet normal  8.659452e-001 -5.001388e-001  3.207264e-004
    outer loop
      vertex  2.309401e-001 -1.989520e-016 -3.249469e-001
      vertex  1.154778e-001 -1.999865e-001 -4.403867e-001
      vertex  1.154701e-001 -2.000000e-001 -4.404100e-001
    endloop
  endfacet
  facet normal  8.660254e-001 -5.000000e-001  0.000000e+000
    outer loop
      vertex  2.309401e-001 -1.989520e-016 -3.249469e-001
      vertex  1.154701e-001 -2.000000e-001 -4.404100e-001
      vertex  1.154701e-001 -2.000000e-001 -1.350000e+000
    endloop
  endfacet
  facet normal  8.660254e-001 -5.000000e-001  0.000000e+000
    outer loop
      vertex  2.309401e-001 -1.989520e-016 -3.249469e-001
      vertex  1.154701e-001 -2.000000e-001 -1.350000e+000
      vertex  2.309401e-001 -5.684342e-017 -1.350000e+000
    endloop
  endfacet
  facet normal -7.071067e-001  0.000000e+000  7.071067e-001
    outer loop
      vertex -1.905256e-001  7.000000e-002 -2.845324e-001
      vertex -2.309332e-001 -3.418535e-012 -3.249400e-001
      vertex -1.905256e-001 -1.037392e-014 -2.845324e-001
    endloop
  endfacet
  facet normal -7.071067e-001  0.000000e+000  7.071067e-001
    outer loop
      vertex -1.905256e-001  7.000000e-002 -2.845324e-001
      vertex -2.309401e-001 -3.694822e-016 -3.249469e-001
      vertex -2.309332e-001 -3.418535e-012 -3.249400e-001
    endloop
  endfacet
  facet normal -7.071066e-001 -5.537847e-004  7.071066e-001
    outer loop
      vertex -2.309332e-001 -3.418535e-012 -3.249400e-001
      vertex -2.309401e-001 -3.694822e-016 -3.249469e-001
      vertex -2.309289e-001 -1.948338e-005 -3.249356e-001
    endloop
  endfacet
  facet normal  8.768408e-001  2.810200e-001  3.900999e-001
    outer loop
      vertex -1.154778e-001 -1.999865e-001 -4.403867e-001
      vertex -1.154631e-001 -2.000000e-001 -4.404100e-001
      vertex -2.309289e-001 -1.948338e-005 -3.249356e-001
    endloop
  endfacet
  facet normal  8.767094e-001  2.805986e-001  3.906984e-001
    outer loop
      vertex -2.309289e-001 -1.948338e-005 -3.249356e-001
      vertex -1.154631e-001 -2.000000e-001 -4.404100e-001
      vertex -2.309332e-001 -3.418535e-012 -3.249400e-001
    endloop
  endfacet
  facet normal -5.477225e-001 -6.324555e-001  5.477225e-001
    outer loop
      vertex -1.154631e-001 -2.000000e-001 -4.404100e-001
      vertex -9.525934e-002 -1.650060e-001 -3.797986e-001
      vertex -2.309332e-001 -3.418535e-012 -3.249400e-001
    endloop
  endfacet
  facet normal -5.477225e-001 -6.324556e-001  5.477225e-001
    outer loop
      vertex -2.309332e-001 -3.418535e-012 -3.249400e-001
      vertex -9.525934e-002 -1.650060e-001 -3.797986e-001
      vertex -1.905256e-001 -1.037392e-014 -2.845324e-001
    endloop
  endfacet
  facet normal  0.000000e+000  -0.000000e+000  1.000000e+000
    outer loop
      vertex  1.154701e-001  2.000000e-001 -2.845324e-001
      vertex  1.905256e-001 -1.037392e-014 -2.845324e-001
      vertex  1.905256e-001  7.000000e-002 -2.845324e-001
    endloop
  endfacet
  facet normal  0.000000e+000  0.000000e+000  1.000000e+000
    outer loop
      vertex  1.905256e-001 -1.037392e-014 -2.845324e-001
      vertex  1.154701e-001  2.000000e-001 -2.845324e-001
      vertex -1.905256e-001 -1.037392e-014 -2.845324e-001
    endloop
  endfacet
  facet normal  0.000000e+000  0.000000e+000  1.000000e+000
    outer loop
      vertex -1.905256e-001 -1.037392e-014 -2.845324e-001
      vertex  1.154701e-001  2.000000e-001 -2.845324e-001
      vertex -1.154701e-001  2.000000e-001 -2.845324e-001
    endloop
  endfacet
  facet normal  0.000000e+000  0.000000e+000  1.000000e+000
    outer loop
      vertex -1.905256e-001 -1.037392e-014 -2.845324e-001
      vertex -1.154701e-001  2.000000e-001 -2.845324e-001
      vertex -1.905256e-001  7.000000e-002 -2.845324e-001
    endloop
  endfacet
  facet normal  0.000000e+000 -5.000001e-001  8.660254e-001
    outer loop
      vertex  9.525934e-002 -1.650060e-001 -3.797986e-001
      vertex  1.905256e-001 -1.037392e-014 -2.845324e-001
      vertex -9.525934e-002 -1.650060e-001 -3.797986e-001
    endloop
  endfacet
  facet normal  0.000000e+000 -5.000001e-001  8.660253e-001
    outer loop
      vertex -9.525934e-002 -1.650060e-001 -3.797986e-001
      vertex  1.905256e-001 -1.037392e-014 -2.845324e-001
      vertex -1.905256e-001 -1.037392e-014 -2.845324e-001
    endloop
  endfacet
  facet normal  7.071066e-001 -5.537847e-004  7.071066e-001
    outer loop
      vertex  2.309332e-001 -3.418862e-012 -3.249400e-001
      vertex  2.309289e-001 -1.948338e-005 -3.249356e-001
      vertex  2.309401e-001 -1.989520e-016 -3.249469e-001
    endloop
  endfacet
  facet normal  7.071067e-001  0.000000e+000  7.071067e-001
    outer loop
      vertex  2.309332e-001 -3.418862e-012 -3.249400e-001
      vertex  2.309401e-001 -1.989520e-016 -3.249469e-001
      vertex  1.905256e-001  7.000000e-002 -2.845324e-001
    endloop
  endfacet
  facet normal  7.071067e-001  0.000000e+000  7.071067e-001
    outer loop
      vertex  2.309332e-001 -3.418862e-012 -3.249400e-001
      vertex  1.905256e-001  7.000000e-002 -2.845324e-001
      vertex  1.905256e-001 -1.037392e-014 -2.845324e-001
    endloop
  endfacet
  facet normal  5.477225e-001 -6.324555e-001  5.477226e-001
    outer loop
      vertex  1.154631e-001 -2.000000e-001 -4.404100e-001
      vertex  2.309332e-001 -3.418862e-012 -3.249400e-001
      vertex  9.525934e-002 -1.650060e-001 -3.797986e-001
    endloop
  endfacet
  facet normal  5.477225e-001 -6.324555e-001  5.477226e-001
    outer loop
      vertex  9.525934e-002 -1.650060e-001 -3.797986e-001
      vertex  2.309332e-001 -3.418862e-012 -3.249400e-001
      vertex  1.905256e-001 -1.037392e-014 -2.845324e-001
    endloop
  endfacet
  facet normal -8.766654e-001  2.811166e-001  3.904245e-001
    outer loop
      vertex  1.154778e-001 -1.999865e-001 -4.403867e-001
      vertex  2.309289e-001 -1.948338e-005 -3.249356e-001
      vertex  1.154631e-001 -2.000000e-001 -4.404100e-001
    endloop
  endfacet
  facet normal -8.769282e-001  2.804739e-001  3.902964e-001
    outer loop
      vertex  1.154631e-001 -2.000000e-001 -4.404100e-001
      vertex  2.309289e-001 -1.948338e-005 -3.249356e-001
      vertex  2.309332e-001 -3.418862e-012 -3.249400e-001
    endloop
  endfacet
  facet normal  0.000000e+000 -8.660254e-001  5.000001e-001
    outer loop
      vertex  1.154631e-001 -2.000000e-001 -4.404100e-001
      vertex  9.525934e-002 -1.650060e-001 -3.797986e-001
      vertex -1.154631e-001 -2.000000e-001 -4.404100e-001
    endloop
  endfacet
  facet normal  0.000000e+000 -8.660254e-001  5.000000e-001
    outer loop
      vertex -1.154631e-001 -2.000000e-001 -4.404100e-001
      vertex  9.525934e-002 -1.650060e-001 -3.797986e-001
      vertex -9.525934e-002 -1.650060e-001 -3.797986e-001
    endloop
  endfacet
  facet normal  0.000000e+000 -8.658651e-001  5.002776e-001
    outer loop
      vertex -1.154778e-001 -1.999865e-001 -4.403867e-001
      vertex -1.154701e-001 -2.000000e-001 -4.404100e-001
      vertex -1.154631e-001 -2.000000e-001 -4.404100e-001
    endloop
  endfacet
  facet normal  0.000000e+000 -8.658651e-001  5.002776e-001
    outer loop
      vertex  1.154631e-001 -2.000000e-001 -4.404100e-001
      vertex  1.154701e-001 -2.000000e-001 -4.404100e-001
      vertex  1.154778e-001 -1.999865e-001 -4.403867e-001
    endloop
  endfacet
endsolid CATIA STL
