solid CATIA STL
  facet normal  0.000000e+000  0.000000e+000 -1.000000e+000
    outer loop
      vertex  1.773503e-002 -3.071797e-002 -5.000000e-002
      vertex  1.773503e-002 -1.900000e-001 -5.000000e-002
      vertex -1.773503e-002 -1.900000e-001 -5.000000e-002
    endloop
  endfacet
  facet normal  0.000000e+000  0.000000e+000 -1.000000e+000
    outer loop
      vertex  1.773503e-002 -3.071797e-002 -5.000000e-002
      vertex -1.773503e-002 -1.900000e-001 -5.000000e-002
      vertex -1.773503e-002 -3.071797e-002 -5.000000e-002
    endloop
  endfacet
  facet normal  0.000000e+000  0.000000e+000 -1.000000e+000
    outer loop
      vertex  1.773503e-002 -3.071797e-002 -5.000000e-002
      vertex -1.773503e-002 -3.071797e-002 -5.000000e-002
      vertex -3.547006e-002 -4.263256e-017 -5.000000e-002
    endloop
  endfacet
  facet normal  0.000000e+000  0.000000e+000 -1.000000e+000
    outer loop
      vertex  1.773503e-002 -3.071797e-002 -5.000000e-002
      vertex -3.547006e-002 -4.263256e-017 -5.000000e-002
      vertex  3.547006e-002 -5.329071e-017 -5.000000e-002
    endloop
  endfacet
  facet normal  0.000000e+000  -0.000000e+000 -1.000000e+000
    outer loop
      vertex  1.773503e-002 -3.071797e-002 -5.000000e-002
      vertex  3.547006e-002 -5.329071e-017 -5.000000e-002
      vertex  1.734124e-001 -7.964101e-002 -5.000000e-002
    endloop
  endfacet
  facet normal  -0.000000e+000  0.000000e+000 -1.000000e+000
    outer loop
      vertex  1.773503e-002 -3.071797e-002 -5.000000e-002
      vertex  1.734124e-001 -7.964101e-002 -5.000000e-002
      vertex  1.556773e-001 -1.103590e-001 -5.000000e-002
    endloop
  endfacet
  facet normal  0.000000e+000  0.000000e+000 -1.000000e+000
    outer loop
      vertex -1.734124e-001 -7.964101e-002 -5.000000e-002
      vertex -3.547006e-002 -4.263256e-017 -5.000000e-002
      vertex -1.556773e-001 -1.103590e-001 -5.000000e-002
    endloop
  endfacet
  facet normal  0.000000e+000  0.000000e+000 -9.999999e-001
    outer loop
      vertex -1.556773e-001 -1.103590e-001 -5.000000e-002
      vertex -3.547006e-002 -4.263256e-017 -5.000000e-002
      vertex -1.773503e-002 -3.071797e-002 -5.000000e-002
    endloop
  endfacet
  facet normal  0.000000e+000  -0.000000e+000 -1.000000e+000
    outer loop
      vertex  3.547006e-002 -5.329071e-017 -5.000000e-002
      vertex  1.556773e-001  1.103590e-001 -5.000000e-002
      vertex  1.734124e-001  7.964101e-002 -5.000000e-002
    endloop
  endfacet
  facet normal  0.000000e+000  0.000000e+000 -1.000000e+000
    outer loop
      vertex  1.556773e-001  1.103590e-001 -5.000000e-002
      vertex  3.547006e-002 -5.329071e-017 -5.000000e-002
      vertex  1.773503e-002  3.071797e-002 -5.000000e-002
    endloop
  endfacet
  facet normal  0.000000e+000  -0.000000e+000 -1.000000e+000
    outer loop
      vertex  1.773503e-002  3.071797e-002 -5.000000e-002
      vertex  3.547006e-002 -5.329071e-017 -5.000000e-002
      vertex -3.547006e-002 -4.263256e-017 -5.000000e-002
    endloop
  endfacet
  facet normal  0.000000e+000  0.000000e+000 -1.000000e+000
    outer loop
      vertex  1.773503e-002  3.071797e-002 -5.000000e-002
      vertex -3.547006e-002 -4.263256e-017 -5.000000e-002
      vertex -1.773503e-002  3.071797e-002 -5.000000e-002
    endloop
  endfacet
  facet normal  -0.000000e+000  0.000000e+000 -1.000000e+000
    outer loop
      vertex -1.773503e-002  3.071797e-002 -5.000000e-002
      vertex -3.547006e-002 -4.263256e-017 -5.000000e-002
      vertex -1.734124e-001  7.964101e-002 -5.000000e-002
    endloop
  endfacet
  facet normal  0.000000e+000  0.000000e+000 -1.000000e+000
    outer loop
      vertex -1.773503e-002  3.071797e-002 -5.000000e-002
      vertex -1.734124e-001  7.964101e-002 -5.000000e-002
      vertex -1.556773e-001  1.103590e-001 -5.000000e-002
    endloop
  endfacet
  facet normal  0.000000e+000  0.000000e+000 -1.000000e+000
    outer loop
      vertex -1.773503e-002  3.071797e-002 -5.000000e-002
      vertex -1.773503e-002  1.900000e-001 -5.000000e-002
      vertex  1.773503e-002  3.071797e-002 -5.000000e-002
    endloop
  endfacet
  facet normal  0.000000e+000  0.000000e+000 -1.000000e+000
    outer loop
      vertex  1.773503e-002  3.071797e-002 -5.000000e-002
      vertex -1.773503e-002  1.900000e-001 -5.000000e-002
      vertex  1.773503e-002  1.900000e-001 -5.000000e-002
    endloop
  endfacet
  facet normal -8.660254e-001  4.999999e-001  0.000000e+000
    outer loop
      vertex -1.154701e-001  2.000000e-001  1.600000e-001
      vertex -1.154701e-001  2.000000e-001  1.414100e-017
      vertex -1.499038e-001  1.403590e-001 -3.659295e-016
    endloop
  endfacet
  facet normal -8.660253e-001  5.000000e-001 -4.911360e-008
    outer loop
      vertex -1.154701e-001  2.000000e-001  1.600000e-001
      vertex -1.499038e-001  1.403590e-001 -3.659295e-016
      vertex -1.965064e-001  5.964102e-002  2.406509e-017
    endloop
  endfacet
  facet normal -8.660254e-001  5.000001e-001 -4.431346e-008
    outer loop
      vertex -1.154701e-001  2.000000e-001  1.600000e-001
      vertex -1.965064e-001  5.964102e-002  2.406509e-017
      vertex -2.309401e-001 -3.410605e-016  2.828201e-017
    endloop
  endfacet
  facet normal -8.660254e-001  5.000001e-001 -3.451208e-016
    outer loop
      vertex -2.309401e-001 -3.410605e-016  2.828201e-017
      vertex -2.309401e-001 -9.947599e-017  3.500000e-001
      vertex -1.732051e-001  1.000000e-001  2.500000e-001
    endloop
  endfacet
  facet normal -8.660254e-001  5.000001e-001  0.000000e+000
    outer loop
      vertex -2.309401e-001 -3.410605e-016  2.828201e-017
      vertex -1.732051e-001  1.000000e-001  2.500000e-001
      vertex -1.732051e-001  1.000000e-001  1.600000e-001
    endloop
  endfacet
  facet normal -8.660254e-001  4.999999e-001  2.642900e-008
    outer loop
      vertex -2.309401e-001 -3.410605e-016  2.828201e-017
      vertex -1.732051e-001  1.000000e-001  1.600000e-001
      vertex -1.154701e-001  2.000000e-001  1.600000e-001
    endloop
  endfacet
  facet normal -4.330128e-001 -7.500001e-001 -5.000000e-001
    outer loop
      vertex -1.965064e-001  5.964102e-002  2.406509e-017
      vertex -1.734124e-001  7.964101e-002 -5.000000e-002
      vertex -9.320508e-002 -6.394885e-017  1.141433e-017
    endloop
  endfacet
  facet normal -4.330127e-001 -7.500000e-001 -4.999999e-001
    outer loop
      vertex -9.320508e-002 -6.394885e-017  1.141433e-017
      vertex -1.734124e-001  7.964101e-002 -5.000000e-002
      vertex -3.547006e-002 -4.263256e-017 -5.000000e-002
    endloop
  endfacet
  facet normal  4.330128e-001  7.500001e-001 -4.999999e-001
    outer loop
      vertex -1.556773e-001  1.103590e-001 -5.000000e-002
      vertex -1.499038e-001  1.403590e-001 -3.659295e-016
      vertex -1.773503e-002  3.071797e-002 -5.000000e-002
    endloop
  endfacet
  facet normal  4.330127e-001  7.500001e-001 -5.000000e-001
    outer loop
      vertex -1.773503e-002  3.071797e-002 -5.000000e-002
      vertex -1.499038e-001  1.403590e-001 -3.659295e-016
      vertex -4.660254e-002  8.071797e-002 -3.623768e-016
    endloop
  endfacet
  facet normal -8.492078e-001  4.902903e-001 -1.961162e-001
    outer loop
      vertex -1.965064e-001  5.964102e-002  2.406509e-017
      vertex -1.499038e-001  1.403590e-001 -3.659295e-016
      vertex -1.734124e-001  7.964101e-002 -5.000000e-002
    endloop
  endfacet
  facet normal -8.492076e-001  4.902903e-001 -1.961161e-001
    outer loop
      vertex -1.734124e-001  7.964101e-002 -5.000000e-002
      vertex -1.499038e-001  1.403590e-001 -3.659295e-016
      vertex -1.556773e-001  1.103590e-001 -5.000000e-002
    endloop
  endfacet
  facet normal -8.660254e-001  0.000000e+000 -5.000000e-001
    outer loop
      vertex -1.773503e-002  3.071797e-002 -5.000000e-002
      vertex -4.660254e-002  8.071797e-002 -3.623768e-016
      vertex -1.773503e-002  1.900000e-001 -5.000000e-002
    endloop
  endfacet
  facet normal -8.660254e-001  0.000000e+000 -5.000000e-001
    outer loop
      vertex -1.773503e-002  1.900000e-001 -5.000000e-002
      vertex -4.660254e-002  8.071797e-002 -3.623768e-016
      vertex -4.660254e-002  2.000000e-001 -3.659295e-016
    endloop
  endfacet
  facet normal  8.660254e-001  0.000000e+000 -5.000000e-001
    outer loop
      vertex  4.660254e-002  8.071797e-002 -5.707166e-018
      vertex  1.773503e-002  3.071797e-002 -5.000000e-002
      vertex  4.660254e-002  2.000000e-001 -5.707166e-018
    endloop
  endfacet
  facet normal  8.660254e-001  0.000000e+000 -4.999999e-001
    outer loop
      vertex  4.660254e-002  2.000000e-001 -5.707166e-018
      vertex  1.773503e-002  3.071797e-002 -5.000000e-002
      vertex  1.773503e-002  1.900000e-001 -5.000000e-002
    endloop
  endfacet
  facet normal  0.000000e+000  1.000000e+000  0.000000e+000
    outer loop
      vertex -1.154701e-001  2.000000e-001  1.600000e-001
      vertex  1.154701e-001  2.000000e-001  1.600000e-001
      vertex  1.154701e-001  2.000000e-001 -1.414100e-017
    endloop
  endfacet
  facet normal  0.000000e+000  1.000000e+000  0.000000e+000
    outer loop
      vertex -1.154701e-001  2.000000e-001  1.600000e-001
      vertex  1.154701e-001  2.000000e-001 -1.414100e-017
      vertex  4.660254e-002  2.000000e-001 -5.707166e-018
    endloop
  endfacet
  facet normal  0.000000e+000  1.000000e+000  0.000000e+000
    outer loop
      vertex -1.154701e-001  2.000000e-001  1.600000e-001
      vertex  4.660254e-002  2.000000e-001 -5.707166e-018
      vertex -4.660254e-002  2.000000e-001 -3.659295e-016
    endloop
  endfacet
  facet normal  0.000000e+000  1.000000e+000  0.000000e+000
    outer loop
      vertex -1.154701e-001  2.000000e-001  1.600000e-001
      vertex -4.660254e-002  2.000000e-001 -3.659295e-016
      vertex -1.154701e-001  2.000000e-001  1.414100e-017
    endloop
  endfacet
  facet normal  2.785226e-015  4.764585e-015 -1.000000e+000
    outer loop
      vertex -1.499038e-001  1.403590e-001 -3.659295e-016
      vertex -1.154701e-001  2.000000e-001  1.414100e-017
      vertex -4.660254e-002  8.071797e-002 -3.623768e-016
    endloop
  endfacet
  facet normal -5.518865e-015 -2.978415e-017 -1.000000e+000
    outer loop
      vertex -4.660254e-002  8.071797e-002 -3.623768e-016
      vertex -1.154701e-001  2.000000e-001  1.414100e-017
      vertex -4.660254e-002  2.000000e-001 -3.659295e-016
    endloop
  endfacet
  facet normal  0.000000e+000  9.805807e-001 -1.961161e-001
    outer loop
      vertex  4.660254e-002  2.000000e-001 -5.707166e-018
      vertex  1.773503e-002  1.900000e-001 -5.000000e-002
      vertex -4.660254e-002  2.000000e-001 -3.659295e-016
    endloop
  endfacet
  facet normal  0.000000e+000  9.805807e-001 -1.961162e-001
    outer loop
      vertex -4.660254e-002  2.000000e-001 -3.659295e-016
      vertex  1.773503e-002  1.900000e-001 -5.000000e-002
      vertex -1.773503e-002  1.900000e-001 -5.000000e-002
    endloop
  endfacet
  facet normal  8.660253e-001  5.000000e-001 -4.911360e-008
    outer loop
      vertex  1.965064e-001  5.964102e-002 -3.659295e-016
      vertex  1.499038e-001  1.403590e-001 -1.835792e-017
      vertex  1.154701e-001  2.000000e-001  1.600000e-001
    endloop
  endfacet
  facet normal  8.660254e-001  4.999999e-001  -0.000000e+000
    outer loop
      vertex  1.499038e-001  1.403590e-001 -1.835792e-017
      vertex  1.154701e-001  2.000000e-001 -1.414100e-017
      vertex  1.154701e-001  2.000000e-001  1.600000e-001
    endloop
  endfacet
  facet normal  8.660254e-001  5.000001e-001 -4.431346e-008
    outer loop
      vertex  2.309401e-001  0.000000e+000 -2.828201e-017
      vertex  1.965064e-001  5.964102e-002 -3.659295e-016
      vertex  1.154701e-001  2.000000e-001  1.600000e-001
    endloop
  endfacet
  facet normal  8.660254e-001  4.999999e-001  5.285800e-008
    outer loop
      vertex  2.309401e-001  0.000000e+000 -2.828201e-017
      vertex  1.154701e-001  2.000000e-001  1.600000e-001
      vertex  1.732051e-001  1.000000e-001  1.600000e-001
    endloop
  endfacet
  facet normal  8.660254e-001  5.000001e-001  -0.000000e+000
    outer loop
      vertex  2.309401e-001  0.000000e+000 -2.828201e-017
      vertex  1.732051e-001  1.000000e-001  1.600000e-001
      vertex  1.732051e-001  1.000000e-001  2.500000e-001
    endloop
  endfacet
  facet normal  8.660254e-001  5.000001e-001  0.000000e+000
    outer loop
      vertex  2.309401e-001  0.000000e+000 -2.828201e-017
      vertex  1.732051e-001  1.000000e-001  2.500000e-001
      vertex  2.309401e-001 -1.421086e-017  3.500000e-001
    endloop
  endfacet
  facet normal  4.330127e-001 -7.500001e-001 -5.000000e-001
    outer loop
      vertex  1.734124e-001  7.964101e-002 -5.000000e-002
      vertex  1.965064e-001  5.964102e-002 -3.659295e-016
      vertex  3.547006e-002 -5.329071e-017 -5.000000e-002
    endloop
  endfacet
  facet normal  4.330127e-001 -7.500000e-001 -5.000000e-001
    outer loop
      vertex  3.547006e-002 -5.329071e-017 -5.000000e-002
      vertex  1.965064e-001  5.964102e-002 -3.659295e-016
      vertex  9.320508e-002  0.000000e+000 -3.623768e-016
    endloop
  endfacet
  facet normal -4.330127e-001  7.500001e-001 -4.999999e-001
    outer loop
      vertex  1.499038e-001  1.403590e-001 -1.835792e-017
      vertex  1.556773e-001  1.103590e-001 -5.000000e-002
      vertex  4.660254e-002  8.071797e-002 -5.707166e-018
    endloop
  endfacet
  facet normal -4.330128e-001  7.500001e-001 -5.000000e-001
    outer loop
      vertex  4.660254e-002  8.071797e-002 -5.707166e-018
      vertex  1.556773e-001  1.103590e-001 -5.000000e-002
      vertex  1.773503e-002  3.071797e-002 -5.000000e-002
    endloop
  endfacet
  facet normal -1.224647e-016  -0.000000e+000 -1.000000e+000
    outer loop
      vertex  4.660254e-002  8.071797e-002 -5.707166e-018
      vertex  4.660254e-002  2.000000e-001 -5.707166e-018
      vertex  1.499038e-001  1.403590e-001 -1.835792e-017
    endloop
  endfacet
  facet normal -1.224647e-016  2.639677e-023 -1.000000e+000
    outer loop
      vertex  1.499038e-001  1.403590e-001 -1.835792e-017
      vertex  4.660254e-002  2.000000e-001 -5.707166e-018
      vertex  1.154701e-001  2.000000e-001 -1.414100e-017
    endloop
  endfacet
  facet normal  8.492078e-001  4.902903e-001 -1.961161e-001
    outer loop
      vertex  1.499038e-001  1.403590e-001 -1.835792e-017
      vertex  1.965064e-001  5.964102e-002 -3.659295e-016
      vertex  1.556773e-001  1.103590e-001 -5.000000e-002
    endloop
  endfacet
  facet normal  8.492076e-001  4.902903e-001 -1.961161e-001
    outer loop
      vertex  1.556773e-001  1.103590e-001 -5.000000e-002
      vertex  1.965064e-001  5.964102e-002 -3.659295e-016
      vertex  1.734124e-001  7.964101e-002 -5.000000e-002
    endloop
  endfacet
  facet normal  8.660254e-001  0.000000e+000 -5.000000e-001
    outer loop
      vertex  4.660254e-002 -2.000000e-001 -5.707166e-018
      vertex  1.773503e-002 -1.900000e-001 -5.000000e-002
      vertex  4.660254e-002 -8.071797e-002 -5.707166e-018
    endloop
  endfacet
  facet normal  8.660254e-001  0.000000e+000 -5.000000e-001
    outer loop
      vertex  4.660254e-002 -8.071797e-002 -5.707166e-018
      vertex  1.773503e-002 -1.900000e-001 -5.000000e-002
      vertex  1.773503e-002 -3.071797e-002 -5.000000e-002
    endloop
  endfacet
  facet normal  0.000000e+000 -1.000000e+000  0.000000e+000
    outer loop
      vertex -1.154701e-001 -2.000000e-001  1.600000e-001
      vertex -1.154701e-001 -2.000000e-001  1.414100e-017
      vertex -4.660254e-002 -2.000000e-001 -3.659295e-016
    endloop
  endfacet
  facet normal  0.000000e+000 -1.000000e+000  0.000000e+000
    outer loop
      vertex -1.154701e-001 -2.000000e-001  1.600000e-001
      vertex -4.660254e-002 -2.000000e-001 -3.659295e-016
      vertex  4.660254e-002 -2.000000e-001 -5.707166e-018
    endloop
  endfacet
  facet normal  0.000000e+000 -1.000000e+000  0.000000e+000
    outer loop
      vertex -1.154701e-001 -2.000000e-001  1.600000e-001
      vertex  4.660254e-002 -2.000000e-001 -5.707166e-018
      vertex  1.154701e-001 -2.000000e-001 -1.414100e-017
    endloop
  endfacet
  facet normal  0.000000e+000 -1.000000e+000  0.000000e+000
    outer loop
      vertex -1.154701e-001 -2.000000e-001  1.600000e-001
      vertex  1.154701e-001 -2.000000e-001 -1.414100e-017
      vertex  1.154701e-001 -2.000000e-001  1.600000e-001
    endloop
  endfacet
  facet normal -8.660254e-001  0.000000e+000 -4.999999e-001
    outer loop
      vertex -1.773503e-002 -1.900000e-001 -5.000000e-002
      vertex -4.660254e-002 -2.000000e-001 -3.659295e-016
      vertex -1.773503e-002 -3.071797e-002 -5.000000e-002
    endloop
  endfacet
  facet normal -8.660254e-001  0.000000e+000 -5.000000e-001
    outer loop
      vertex -1.773503e-002 -3.071797e-002 -5.000000e-002
      vertex -4.660254e-002 -2.000000e-001 -3.659295e-016
      vertex -4.660254e-002 -8.071797e-002 -3.481660e-016
    endloop
  endfacet
  facet normal  7.579567e-016 -9.805807e-001 -1.961161e-001
    outer loop
      vertex  4.660254e-002 -2.000000e-001 -5.707166e-018
      vertex -4.660254e-002 -2.000000e-001 -3.659295e-016
      vertex  1.773503e-002 -1.900000e-001 -5.000000e-002
    endloop
  endfacet
  facet normal  -0.000000e+000 -9.805806e-001 -1.961161e-001
    outer loop
      vertex  1.773503e-002 -1.900000e-001 -5.000000e-002
      vertex -4.660254e-002 -2.000000e-001 -3.659295e-016
      vertex -1.773503e-002 -1.900000e-001 -5.000000e-002
    endloop
  endfacet
  facet normal  8.660253e-001 -5.000000e-001 -4.911360e-008
    outer loop
      vertex  1.154701e-001 -2.000000e-001  1.600000e-001
      vertex  1.499038e-001 -1.403590e-001 -1.835792e-017
      vertex  1.965064e-001 -5.964102e-002 -3.659295e-016
    endloop
  endfacet
  facet normal  8.660254e-001 -4.999999e-001  0.000000e+000
    outer loop
      vertex  1.154701e-001 -2.000000e-001  1.600000e-001
      vertex  1.154701e-001 -2.000000e-001 -1.414100e-017
      vertex  1.499038e-001 -1.403590e-001 -1.835792e-017
    endloop
  endfacet
  facet normal  8.660254e-001 -5.000000e-001  4.228640e-008
    outer loop
      vertex  2.309401e-001 -1.421086e-017  3.500000e-001
      vertex  1.732051e-001 -1.000000e-001  4.500000e-001
      vertex  1.154701e-001 -2.000000e-001  4.500000e-001
    endloop
  endfacet
  facet normal  8.660254e-001 -5.000000e-001  0.000000e+000
    outer loop
      vertex  2.309401e-001 -1.421086e-017  3.500000e-001
      vertex  1.154701e-001 -2.000000e-001  4.500000e-001
      vertex  1.154701e-001 -2.000000e-001  3.000000e-001
    endloop
  endfacet
  facet normal  8.660254e-001 -5.000000e-001 -1.691456e-007
    outer loop
      vertex  2.309401e-001 -1.421086e-017  3.500000e-001
      vertex  1.154701e-001 -2.000000e-001  3.000000e-001
      vertex  1.732051e-001 -1.000000e-001  3.000000e-001
    endloop
  endfacet
  facet normal  8.660254e-001 -5.000001e-001  0.000000e+000
    outer loop
      vertex  2.309401e-001 -1.421086e-017  3.500000e-001
      vertex  1.732051e-001 -1.000000e-001  3.000000e-001
      vertex  2.309401e-001  0.000000e+000 -2.828201e-017
    endloop
  endfacet
  facet normal  8.660254e-001 -5.000000e-001  0.000000e+000
    outer loop
      vertex  2.309401e-001  0.000000e+000 -2.828201e-017
      vertex  1.732051e-001 -1.000000e-001  3.000000e-001
      vertex  1.732051e-001 -1.000000e-001  1.600000e-001
    endloop
  endfacet
  facet normal  8.660254e-001 -4.999999e-001  2.642900e-008
    outer loop
      vertex  2.309401e-001  0.000000e+000 -2.828201e-017
      vertex  1.732051e-001 -1.000000e-001  1.600000e-001
      vertex  1.154701e-001 -2.000000e-001  1.600000e-001
    endloop
  endfacet
  facet normal  8.660254e-001 -5.000001e-001  0.000000e+000
    outer loop
      vertex  2.309401e-001  0.000000e+000 -2.828201e-017
      vertex  1.154701e-001 -2.000000e-001  1.600000e-001
      vertex  1.965064e-001 -5.964102e-002 -3.659295e-016
    endloop
  endfacet
  facet normal  4.330127e-001  7.500000e-001 -4.999999e-001
    outer loop
      vertex  3.547006e-002 -5.329071e-017 -5.000000e-002
      vertex  9.320508e-002  0.000000e+000 -3.623768e-016
      vertex  1.734124e-001 -7.964101e-002 -5.000000e-002
    endloop
  endfacet
  facet normal  4.330128e-001  7.500001e-001 -5.000000e-001
    outer loop
      vertex  1.734124e-001 -7.964101e-002 -5.000000e-002
      vertex  9.320508e-002  0.000000e+000 -3.623768e-016
      vertex  1.965064e-001 -5.964102e-002 -3.659295e-016
    endloop
  endfacet
  facet normal -4.330127e-001 -7.500001e-001 -5.000000e-001
    outer loop
      vertex  4.660254e-002 -8.071797e-002 -5.707166e-018
      vertex  1.773503e-002 -3.071797e-002 -5.000000e-002
      vertex  1.499038e-001 -1.403590e-001 -1.835792e-017
    endloop
  endfacet
  facet normal -4.330128e-001 -7.500001e-001 -4.999999e-001
    outer loop
      vertex  1.499038e-001 -1.403590e-001 -1.835792e-017
      vertex  1.773503e-002 -3.071797e-002 -5.000000e-002
      vertex  1.556773e-001 -1.103590e-001 -5.000000e-002
    endloop
  endfacet
  facet normal  2.425634e-015  4.260890e-015 -1.000000e+000
    outer loop
      vertex  1.965064e-001 -5.964102e-002 -3.659295e-016
      vertex  9.320508e-002  0.000000e+000 -3.623768e-016
      vertex  2.309401e-001  0.000000e+000 -2.828201e-017
    endloop
  endfacet
  facet normal  2.425634e-015 -4.260890e-015 -1.000000e+000
    outer loop
      vertex  2.309401e-001  0.000000e+000 -2.828201e-017
      vertex  9.320508e-002  0.000000e+000 -3.623768e-016
      vertex  1.965064e-001  5.964102e-002 -3.659295e-016
    endloop
  endfacet
  facet normal -1.224647e-016  -0.000000e+000 -1.000000e+000
    outer loop
      vertex  4.660254e-002 -2.000000e-001 -5.707166e-018
      vertex  4.660254e-002 -8.071797e-002 -5.707166e-018
      vertex  1.154701e-001 -2.000000e-001 -1.414100e-017
    endloop
  endfacet
  facet normal -1.224647e-016 -9.898789e-024 -1.000000e+000
    outer loop
      vertex  1.154701e-001 -2.000000e-001 -1.414100e-017
      vertex  4.660254e-002 -8.071797e-002 -5.707166e-018
      vertex  1.499038e-001 -1.403590e-001 -1.835792e-017
    endloop
  endfacet
  facet normal  8.492078e-001 -4.902903e-001 -1.961161e-001
    outer loop
      vertex  1.499038e-001 -1.403590e-001 -1.835792e-017
      vertex  1.556773e-001 -1.103590e-001 -5.000000e-002
      vertex  1.965064e-001 -5.964102e-002 -3.659295e-016
    endloop
  endfacet
  facet normal  8.492077e-001 -4.902903e-001 -1.961161e-001
    outer loop
      vertex  1.965064e-001 -5.964102e-002 -3.659295e-016
      vertex  1.556773e-001 -1.103590e-001 -5.000000e-002
      vertex  1.734124e-001 -7.964101e-002 -5.000000e-002
    endloop
  endfacet
  facet normal -8.660254e-001 -4.999999e-001  2.642900e-008
    outer loop
      vertex -1.154701e-001 -2.000000e-001  1.600000e-001
      vertex -1.732051e-001 -1.000000e-001  1.600000e-001
      vertex -2.309401e-001 -3.410605e-016  2.828201e-017
    endloop
  endfacet
  facet normal -8.660254e-001 -5.000001e-001 -8.862693e-008
    outer loop
      vertex -1.154701e-001 -2.000000e-001  1.600000e-001
      vertex -2.309401e-001 -3.410605e-016  2.828201e-017
      vertex -1.965064e-001 -5.964102e-002  2.406509e-017
    endloop
  endfacet
  facet normal -8.660253e-001 -5.000000e-001 -6.548480e-008
    outer loop
      vertex -1.154701e-001 -2.000000e-001  1.600000e-001
      vertex -1.965064e-001 -5.964102e-002  2.406509e-017
      vertex -1.499038e-001 -1.403590e-001 -3.659295e-016
    endloop
  endfacet
  facet normal -8.660254e-001 -4.999999e-001  0.000000e+000
    outer loop
      vertex -1.154701e-001 -2.000000e-001  1.600000e-001
      vertex -1.499038e-001 -1.403590e-001 -3.659295e-016
      vertex -1.154701e-001 -2.000000e-001  1.414100e-017
    endloop
  endfacet
  facet normal -8.660254e-001 -5.000000e-001  0.000000e+000
    outer loop
      vertex -1.154701e-001 -2.000000e-001  4.500000e-001
      vertex -1.732051e-001 -1.000000e-001  4.500000e-001
      vertex -1.154701e-001 -2.000000e-001  3.000000e-001
    endloop
  endfacet
  facet normal -8.660254e-001 -5.000000e-001  3.382912e-008
    outer loop
      vertex -1.154701e-001 -2.000000e-001  3.000000e-001
      vertex -1.732051e-001 -1.000000e-001  4.500000e-001
      vertex -2.309401e-001 -9.947599e-017  3.500000e-001
    endloop
  endfacet
  facet normal -8.660254e-001 -5.000000e-001  0.000000e+000
    outer loop
      vertex -1.154701e-001 -2.000000e-001  3.000000e-001
      vertex -2.309401e-001 -9.947599e-017  3.500000e-001
      vertex -1.732051e-001 -1.000000e-001  3.000000e-001
    endloop
  endfacet
  facet normal -8.660254e-001 -5.000001e-001  0.000000e+000
    outer loop
      vertex -2.309401e-001 -3.410605e-016  2.828201e-017
      vertex -1.732051e-001 -1.000000e-001  1.600000e-001
      vertex -2.309401e-001 -9.947599e-017  3.500000e-001
    endloop
  endfacet
  facet normal -8.660254e-001 -5.000001e-001  0.000000e+000
    outer loop
      vertex -2.309401e-001 -9.947599e-017  3.500000e-001
      vertex -1.732051e-001 -1.000000e-001  1.600000e-001
      vertex -1.732051e-001 -1.000000e-001  3.000000e-001
    endloop
  endfacet
  facet normal  4.330128e-001 -7.500001e-001 -5.000000e-001
    outer loop
      vertex -1.773503e-002 -3.071797e-002 -5.000000e-002
      vertex -4.660254e-002 -8.071797e-002 -3.481660e-016
      vertex -1.556773e-001 -1.103590e-001 -5.000000e-002
    endloop
  endfacet
  facet normal  4.330127e-001 -7.500001e-001 -4.999999e-001
    outer loop
      vertex -1.556773e-001 -1.103590e-001 -5.000000e-002
      vertex -4.660254e-002 -8.071797e-002 -3.481660e-016
      vertex -1.499038e-001 -1.403590e-001 -3.659295e-016
    endloop
  endfacet
  facet normal -4.330127e-001  7.500000e-001 -5.000000e-001
    outer loop
      vertex -9.320508e-002 -6.394885e-017  1.141433e-017
      vertex -3.547006e-002 -4.263256e-017 -5.000000e-002
      vertex -1.965064e-001 -5.964102e-002  2.406509e-017
    endloop
  endfacet
  facet normal -4.330127e-001  7.500001e-001 -5.000000e-001
    outer loop
      vertex -1.965064e-001 -5.964102e-002  2.406509e-017
      vertex -3.547006e-002 -4.263256e-017 -5.000000e-002
      vertex -1.734124e-001 -7.964101e-002 -5.000000e-002
    endloop
  endfacet
  facet normal -1.224647e-016  6.599193e-024 -1.000000e+000
    outer loop
      vertex -1.965064e-001 -5.964102e-002  2.406509e-017
      vertex -2.309401e-001 -3.410605e-016  2.828201e-017
      vertex -9.320508e-002 -6.394885e-017  1.141433e-017
    endloop
  endfacet
  facet normal -1.224647e-016  1.319839e-023 -1.000000e+000
    outer loop
      vertex -9.320508e-002 -6.394885e-017  1.141433e-017
      vertex -2.309401e-001 -3.410605e-016  2.828201e-017
      vertex -1.965064e-001  5.964102e-002  2.406509e-017
    endloop
  endfacet
  facet normal  2.888402e-015 -4.705017e-015 -1.000000e+000
    outer loop
      vertex -1.499038e-001 -1.403590e-001 -3.659295e-016
      vertex -4.660254e-002 -8.071797e-002 -3.481660e-016
      vertex -1.154701e-001 -2.000000e-001  1.414100e-017
    endloop
  endfacet
  facet normal -5.518865e-015  1.489207e-016 -1.000000e+000
    outer loop
      vertex -1.154701e-001 -2.000000e-001  1.414100e-017
      vertex -4.660254e-002 -8.071797e-002 -3.481660e-016
      vertex -4.660254e-002 -2.000000e-001 -3.659295e-016
    endloop
  endfacet
  facet normal -8.492078e-001 -4.902903e-001 -1.961161e-001
    outer loop
      vertex -1.965064e-001 -5.964102e-002  2.406509e-017
      vertex -1.734124e-001 -7.964101e-002 -5.000000e-002
      vertex -1.499038e-001 -1.403590e-001 -3.659295e-016
    endloop
  endfacet
  facet normal -8.492076e-001 -4.902903e-001 -1.961161e-001
    outer loop
      vertex -1.499038e-001 -1.403590e-001 -3.659295e-016
      vertex -1.734124e-001 -7.964101e-002 -5.000000e-002
      vertex -1.556773e-001 -1.103590e-001 -5.000000e-002
    endloop
  endfacet
  facet normal  0.000000e+000  7.071068e-001  7.071068e-001
    outer loop
      vertex -1.501111e-001 -1.000000e-001  4.500000e-001
      vertex -2.078461e-001 -1.421086e-017  3.500000e-001
      vertex -1.732051e-001 -1.000000e-001  4.500000e-001
    endloop
  endfacet
  facet normal  0.000000e+000  7.071068e-001  7.071068e-001
    outer loop
      vertex -1.732051e-001 -1.000000e-001  4.500000e-001
      vertex -2.078461e-001 -1.421086e-017  3.500000e-001
      vertex -2.309401e-001 -9.947599e-017  3.500000e-001
    endloop
  endfacet
  facet normal  0.000000e+000  7.071068e-001  7.071068e-001
    outer loop
      vertex -2.078461e-001 -1.421086e-017  3.500000e-001
      vertex -1.558846e-001  9.000000e-002  2.600000e-001
      vertex -2.309401e-001 -9.947599e-017  3.500000e-001
    endloop
  endfacet
  facet normal  0.000000e+000  7.071068e-001  7.071068e-001
    outer loop
      vertex -2.309401e-001 -9.947599e-017  3.500000e-001
      vertex -1.558846e-001  9.000000e-002  2.600000e-001
      vertex -1.732051e-001  1.000000e-001  2.500000e-001
    endloop
  endfacet
  facet normal  0.000000e+000  -0.000000e+000 -1.000000e+000
    outer loop
      vertex  1.154701e-001 -2.000000e-001  3.000000e-001
      vertex  1.558846e-001 -9.000000e-002  3.000000e-001
      vertex  1.732051e-001 -1.000000e-001  3.000000e-001
    endloop
  endfacet
  facet normal  0.000000e+000  0.000000e+000 -1.000000e+000
    outer loop
      vertex  1.558846e-001 -9.000000e-002  3.000000e-001
      vertex  1.154701e-001 -2.000000e-001  3.000000e-001
      vertex  1.039231e-001 -1.800000e-001  3.000000e-001
    endloop
  endfacet
  facet normal  0.000000e+000  -0.000000e+000 -1.000000e+000
    outer loop
      vertex  1.039231e-001 -1.800000e-001  3.000000e-001
      vertex  1.154701e-001 -2.000000e-001  3.000000e-001
      vertex -1.154701e-001 -2.000000e-001  3.000000e-001
    endloop
  endfacet
  facet normal  0.000000e+000  0.000000e+000 -1.000000e+000
    outer loop
      vertex  1.039231e-001 -1.800000e-001  3.000000e-001
      vertex -1.154701e-001 -2.000000e-001  3.000000e-001
      vertex -1.039231e-001 -1.800000e-001  3.000000e-001
    endloop
  endfacet
  facet normal  -0.000000e+000  0.000000e+000 -1.000000e+000
    outer loop
      vertex -1.039231e-001 -1.800000e-001  3.000000e-001
      vertex -1.154701e-001 -2.000000e-001  3.000000e-001
      vertex -1.732051e-001 -1.000000e-001  3.000000e-001
    endloop
  endfacet
  facet normal  0.000000e+000  0.000000e+000 -1.000000e+000
    outer loop
      vertex -1.039231e-001 -1.800000e-001  3.000000e-001
      vertex -1.732051e-001 -1.000000e-001  3.000000e-001
      vertex -1.558846e-001 -9.000000e-002  3.000000e-001
    endloop
  endfacet
  facet normal  0.000000e+000 -1.000000e+000  0.000000e+000
    outer loop
      vertex  1.154701e-001 -2.000000e-001  4.500000e-001
      vertex -1.154701e-001 -2.000000e-001  4.500000e-001
      vertex  1.154701e-001 -2.000000e-001  3.000000e-001
    endloop
  endfacet
  facet normal  0.000000e+000 -1.000000e+000  0.000000e+000
    outer loop
      vertex  1.154701e-001 -2.000000e-001  3.000000e-001
      vertex -1.154701e-001 -2.000000e-001  4.500000e-001
      vertex -1.154701e-001 -2.000000e-001  3.000000e-001
    endloop
  endfacet
  facet normal  0.000000e+000  0.000000e+000  1.000000e+000
    outer loop
      vertex -1.154701e-001 -2.000000e-001  4.500000e-001
      vertex -1.501111e-001 -1.000000e-001  4.500000e-001
      vertex -1.732051e-001 -1.000000e-001  4.500000e-001
    endloop
  endfacet
  facet normal  0.000000e+000  -0.000000e+000  1.000000e+000
    outer loop
      vertex -1.501111e-001 -1.000000e-001  4.500000e-001
      vertex -1.154701e-001 -2.000000e-001  4.500000e-001
      vertex -1.039231e-001 -1.800000e-001  4.500000e-001
    endloop
  endfacet
  facet normal  0.000000e+000  0.000000e+000  1.000000e+000
    outer loop
      vertex -1.039231e-001 -1.800000e-001  4.500000e-001
      vertex -1.154701e-001 -2.000000e-001  4.500000e-001
      vertex  1.154701e-001 -2.000000e-001  4.500000e-001
    endloop
  endfacet
  facet normal  0.000000e+000  0.000000e+000  1.000000e+000
    outer loop
      vertex -1.039231e-001 -1.800000e-001  4.500000e-001
      vertex  1.154701e-001 -2.000000e-001  4.500000e-001
      vertex  1.039231e-001 -1.800000e-001  4.500000e-001
    endloop
  endfacet
  facet normal  -0.000000e+000  0.000000e+000  1.000000e+000
    outer loop
      vertex  1.039231e-001 -1.800000e-001  4.500000e-001
      vertex  1.154701e-001 -2.000000e-001  4.500000e-001
      vertex  1.732051e-001 -1.000000e-001  4.500000e-001
    endloop
  endfacet
  facet normal  0.000000e+000  0.000000e+000  1.000000e+000
    outer loop
      vertex  1.039231e-001 -1.800000e-001  4.500000e-001
      vertex  1.732051e-001 -1.000000e-001  4.500000e-001
      vertex  1.501111e-001 -1.000000e-001  4.500000e-001
    endloop
  endfacet
  facet normal  0.000000e+000  7.071068e-001  7.071068e-001
    outer loop
      vertex  1.732051e-001 -1.000000e-001  4.500000e-001
      vertex  2.309401e-001 -1.421086e-017  3.500000e-001
      vertex  1.501111e-001 -1.000000e-001  4.500000e-001
    endloop
  endfacet
  facet normal  0.000000e+000  7.071068e-001  7.071068e-001
    outer loop
      vertex  1.501111e-001 -1.000000e-001  4.500000e-001
      vertex  2.309401e-001 -1.421086e-017  3.500000e-001
      vertex  2.078461e-001  2.842171e-017  3.500000e-001
    endloop
  endfacet
  facet normal  0.000000e+000  7.071068e-001  7.071068e-001
    outer loop
      vertex  2.309401e-001 -1.421086e-017  3.500000e-001
      vertex  1.732051e-001  1.000000e-001  2.500000e-001
      vertex  2.078461e-001  2.842171e-017  3.500000e-001
    endloop
  endfacet
  facet normal  0.000000e+000  7.071067e-001  7.071067e-001
    outer loop
      vertex  2.078461e-001  2.842171e-017  3.500000e-001
      vertex  1.732051e-001  1.000000e-001  2.500000e-001
      vertex  1.558846e-001  9.000000e-002  2.600000e-001
    endloop
  endfacet
  facet normal -8.660254e-001 -5.000001e-001  0.000000e+000
    outer loop
      vertex  1.558846e-001  9.000000e-002  2.000000e-001
      vertex  2.078461e-001  2.842171e-017  2.000000e-001
      vertex  1.558846e-001  9.000000e-002  2.600000e-001
    endloop
  endfacet
  facet normal -8.660254e-001 -5.000001e-001  0.000000e+000
    outer loop
      vertex  1.558846e-001  9.000000e-002  2.600000e-001
      vertex  2.078461e-001  2.842171e-017  2.000000e-001
      vertex  2.078461e-001  2.842171e-017  3.500000e-001
    endloop
  endfacet
  facet normal -4.999999e-001  8.660254e-001  0.000000e+000
    outer loop
      vertex  1.732051e-001  1.000000e-001  1.600000e-001
      vertex  1.558846e-001  9.000000e-002  2.000000e-001
      vertex  1.732051e-001  1.000000e-001  2.500000e-001
    endloop
  endfacet
  facet normal -4.999999e-001  8.660254e-001  0.000000e+000
    outer loop
      vertex  1.732051e-001  1.000000e-001  2.500000e-001
      vertex  1.558846e-001  9.000000e-002  2.000000e-001
      vertex  1.558846e-001  9.000000e-002  2.600000e-001
    endloop
  endfacet
  facet normal  8.660254e-001 -5.000001e-001  0.000000e+000
    outer loop
      vertex -1.558846e-001  9.000000e-002  2.000000e-001
      vertex -1.558846e-001  9.000000e-002  2.600000e-001
      vertex -2.078461e-001 -1.421086e-017  2.000000e-001
    endloop
  endfacet
  facet normal  8.660254e-001 -5.000001e-001  0.000000e+000
    outer loop
      vertex -2.078461e-001 -1.421086e-017  2.000000e-001
      vertex -1.558846e-001  9.000000e-002  2.600000e-001
      vertex -2.078461e-001 -1.421086e-017  3.500000e-001
    endloop
  endfacet
  facet normal  4.999999e-001  8.660254e-001  0.000000e+000
    outer loop
      vertex -1.732051e-001  1.000000e-001  1.600000e-001
      vertex -1.732051e-001  1.000000e-001  2.500000e-001
      vertex -1.558846e-001  9.000000e-002  2.000000e-001
    endloop
  endfacet
  facet normal  4.999999e-001  8.660254e-001  -0.000000e+000
    outer loop
      vertex -1.558846e-001  9.000000e-002  2.000000e-001
      vertex -1.732051e-001  1.000000e-001  2.500000e-001
      vertex -1.558846e-001  9.000000e-002  2.600000e-001
    endloop
  endfacet
  facet normal  5.000000e-001 -8.660254e-001  0.000000e+000
    outer loop
      vertex -1.558846e-001 -9.000000e-002  2.000000e-001
      vertex -1.558846e-001 -9.000000e-002  3.000000e-001
      vertex -1.732051e-001 -1.000000e-001  1.600000e-001
    endloop
  endfacet
  facet normal  4.999999e-001 -8.660255e-001  0.000000e+000
    outer loop
      vertex -1.732051e-001 -1.000000e-001  1.600000e-001
      vertex -1.558846e-001 -9.000000e-002  3.000000e-001
      vertex -1.732051e-001 -1.000000e-001  3.000000e-001
    endloop
  endfacet
  facet normal  8.660254e-001  4.999999e-001  3.758791e-007
    outer loop
      vertex -1.558846e-001 -9.000000e-002  3.000000e-001
      vertex -2.078461e-001 -1.421086e-017  3.500000e-001
      vertex -1.039231e-001 -1.800000e-001  3.000000e-001
    endloop
  endfacet
  facet normal  8.660254e-001  5.000000e-001  0.000000e+000
    outer loop
      vertex -1.039231e-001 -1.800000e-001  3.000000e-001
      vertex -2.078461e-001 -1.421086e-017  3.500000e-001
      vertex -1.501111e-001 -1.000000e-001  4.500000e-001
    endloop
  endfacet
  facet normal  8.660254e-001  4.999999e-001  0.000000e+000
    outer loop
      vertex -1.039231e-001 -1.800000e-001  3.000000e-001
      vertex -1.501111e-001 -1.000000e-001  4.500000e-001
      vertex -1.039231e-001 -1.800000e-001  4.500000e-001
    endloop
  endfacet
  facet normal  8.660254e-001  5.000001e-001  0.000000e+000
    outer loop
      vertex -2.078461e-001 -1.421086e-017  2.000000e-001
      vertex -2.078461e-001 -1.421086e-017  3.500000e-001
      vertex -1.558846e-001 -9.000000e-002  2.000000e-001
    endloop
  endfacet
  facet normal  8.660253e-001  5.000001e-001  -0.000000e+000
    outer loop
      vertex -1.558846e-001 -9.000000e-002  2.000000e-001
      vertex -2.078461e-001 -1.421086e-017  3.500000e-001
      vertex -1.558846e-001 -9.000000e-002  3.000000e-001
    endloop
  endfacet
  facet normal -4.999999e-001 -8.660254e-001  0.000000e+000
    outer loop
      vertex  1.558846e-001 -9.000000e-002  2.000000e-001
      vertex  1.732051e-001 -1.000000e-001  1.600000e-001
      vertex  1.558846e-001 -9.000000e-002  3.000000e-001
    endloop
  endfacet
  facet normal -4.999999e-001 -8.660255e-001  0.000000e+000
    outer loop
      vertex  1.558846e-001 -9.000000e-002  3.000000e-001
      vertex  1.732051e-001 -1.000000e-001  1.600000e-001
      vertex  1.732051e-001 -1.000000e-001  3.000000e-001
    endloop
  endfacet
  facet normal -8.660254e-001  4.999999e-001  0.000000e+000
    outer loop
      vertex  1.039231e-001 -1.800000e-001  4.500000e-001
      vertex  1.501111e-001 -1.000000e-001  4.500000e-001
      vertex  1.039231e-001 -1.800000e-001  3.000000e-001
    endloop
  endfacet
  facet normal -8.660254e-001  5.000000e-001  0.000000e+000
    outer loop
      vertex  1.039231e-001 -1.800000e-001  3.000000e-001
      vertex  1.501111e-001 -1.000000e-001  4.500000e-001
      vertex  2.078461e-001  2.842171e-017  3.500000e-001
    endloop
  endfacet
  facet normal -8.660254e-001  4.999999e-001  3.758791e-007
    outer loop
      vertex  1.039231e-001 -1.800000e-001  3.000000e-001
      vertex  2.078461e-001  2.842171e-017  3.500000e-001
      vertex  1.558846e-001 -9.000000e-002  3.000000e-001
    endloop
  endfacet
  facet normal -8.660254e-001  5.000001e-001  0.000000e+000
    outer loop
      vertex  2.078461e-001  2.842171e-017  2.000000e-001
      vertex  1.558846e-001 -9.000000e-002  2.000000e-001
      vertex  2.078461e-001  2.842171e-017  3.500000e-001
    endloop
  endfacet
  facet normal -8.660253e-001  5.000001e-001  0.000000e+000
    outer loop
      vertex  2.078461e-001  2.842171e-017  3.500000e-001
      vertex  1.558846e-001 -9.000000e-002  2.000000e-001
      vertex  1.558846e-001 -9.000000e-002  3.000000e-001
    endloop
  endfacet
  facet normal  7.745967e-001  4.472136e-001  4.472136e-001
    outer loop
      vertex  1.154701e-001  2.000000e-001  1.600000e-001
      vertex  1.039231e-001  1.800000e-001  2.000000e-001
      vertex  1.732051e-001  1.000000e-001  1.600000e-001
    endloop
  endfacet
  facet normal  7.745966e-001  4.472136e-001  4.472136e-001
    outer loop
      vertex  1.732051e-001  1.000000e-001  1.600000e-001
      vertex  1.039231e-001  1.800000e-001  2.000000e-001
      vertex  1.558846e-001  9.000000e-002  2.000000e-001
    endloop
  endfacet
  facet normal  7.745967e-001 -4.472136e-001  4.472136e-001
    outer loop
      vertex  1.154701e-001 -2.000000e-001  1.600000e-001
      vertex  1.732051e-001 -1.000000e-001  1.600000e-001
      vertex  1.039231e-001 -1.800000e-001  2.000000e-001
    endloop
  endfacet
  facet normal  7.745966e-001 -4.472135e-001  4.472136e-001
    outer loop
      vertex  1.039231e-001 -1.800000e-001  2.000000e-001
      vertex  1.732051e-001 -1.000000e-001  1.600000e-001
      vertex  1.558846e-001 -9.000000e-002  2.000000e-001
    endloop
  endfacet
  facet normal -7.745967e-001  4.472136e-001  4.472137e-001
    outer loop
      vertex -1.732051e-001  1.000000e-001  1.600000e-001
      vertex -1.558846e-001  9.000000e-002  2.000000e-001
      vertex -1.154701e-001  2.000000e-001  1.600000e-001
    endloop
  endfacet
  facet normal -7.745966e-001  4.472135e-001  4.472136e-001
    outer loop
      vertex -1.154701e-001  2.000000e-001  1.600000e-001
      vertex -1.558846e-001  9.000000e-002  2.000000e-001
      vertex -1.039231e-001  1.800000e-001  2.000000e-001
    endloop
  endfacet
  facet normal -7.745967e-001 -4.472136e-001  4.472137e-001
    outer loop
      vertex -1.732051e-001 -1.000000e-001  1.600000e-001
      vertex -1.154701e-001 -2.000000e-001  1.600000e-001
      vertex -1.558846e-001 -9.000000e-002  2.000000e-001
    endloop
  endfacet
  facet normal -7.745966e-001 -4.472135e-001  4.472136e-001
    outer loop
      vertex -1.558846e-001 -9.000000e-002  2.000000e-001
      vertex -1.154701e-001 -2.000000e-001  1.600000e-001
      vertex -1.039231e-001 -1.800000e-001  2.000000e-001
    endloop
  endfacet
  facet normal  0.000000e+000  0.000000e+000  1.000000e+000
    outer loop
      vertex  1.732051e-001 -9.947599e-017  2.000000e-001
      vertex  2.078461e-001  2.842171e-017  2.000000e-001
      vertex  1.558846e-001  9.000000e-002  2.000000e-001
    endloop
  endfacet
  facet normal  0.000000e+000  0.000000e+000  9.999999e-001
    outer loop
      vertex  1.039231e-001 -1.800000e-001  2.000000e-001
      vertex  8.660255e-002 -1.500000e-001  2.000000e-001
      vertex -1.039231e-001 -1.800000e-001  2.000000e-001
    endloop
  endfacet
  facet normal  0.000000e+000  0.000000e+000  1.000000e+000
    outer loop
      vertex -1.039231e-001 -1.800000e-001  2.000000e-001
      vertex  8.660255e-002 -1.500000e-001  2.000000e-001
      vertex -8.660255e-002 -1.500000e-001  2.000000e-001
    endloop
  endfacet
  facet normal  0.000000e+000  0.000000e+000  1.000000e+000
    outer loop
      vertex -1.039231e-001 -1.800000e-001  2.000000e-001
      vertex -8.660255e-002 -1.500000e-001  2.000000e-001
      vertex -1.558846e-001 -9.000000e-002  2.000000e-001
    endloop
  endfacet
  facet normal  0.000000e+000  0.000000e+000  1.000000e+000
    outer loop
      vertex  1.732051e-001 -9.947599e-017  2.000000e-001
      vertex  1.558846e-001  9.000000e-002  2.000000e-001
      vertex  8.660255e-002  1.500000e-001  2.000000e-001
    endloop
  endfacet
  facet normal  -0.000000e+000  0.000000e+000  1.000000e+000
    outer loop
      vertex  8.660255e-002  1.500000e-001  2.000000e-001
      vertex  1.558846e-001  9.000000e-002  2.000000e-001
      vertex  1.039231e-001  1.800000e-001  2.000000e-001
    endloop
  endfacet
  facet normal  0.000000e+000  0.000000e+000  1.000000e+000
    outer loop
      vertex  8.660255e-002  1.500000e-001  2.000000e-001
      vertex  1.039231e-001  1.800000e-001  2.000000e-001
      vertex -8.660255e-002  1.500000e-001  2.000000e-001
    endloop
  endfacet
  facet normal  0.000000e+000  -0.000000e+000  9.999999e-001
    outer loop
      vertex -8.660255e-002  1.500000e-001  2.000000e-001
      vertex  1.039231e-001  1.800000e-001  2.000000e-001
      vertex -1.039231e-001  1.800000e-001  2.000000e-001
    endloop
  endfacet
  facet normal  0.000000e+000  0.000000e+000  9.999999e-001
    outer loop
      vertex -8.660255e-002  1.500000e-001  2.000000e-001
      vertex -1.039231e-001  1.800000e-001  2.000000e-001
      vertex -1.558846e-001  9.000000e-002  2.000000e-001
    endloop
  endfacet
  facet normal  -0.000000e+000  0.000000e+000  1.000000e+000
    outer loop
      vertex -8.660255e-002  1.500000e-001  2.000000e-001
      vertex -1.558846e-001  9.000000e-002  2.000000e-001
      vertex -1.732051e-001  0.000000e+000  2.000000e-001
    endloop
  endfacet
  facet normal  0.000000e+000  -0.000000e+000  1.000000e+000
    outer loop
      vertex -1.732051e-001  0.000000e+000  2.000000e-001
      vertex -1.558846e-001  9.000000e-002  2.000000e-001
      vertex -2.078461e-001 -1.421086e-017  2.000000e-001
    endloop
  endfacet
  facet normal  -0.000000e+000  0.000000e+000  1.000000e+000
    outer loop
      vertex -1.732051e-001  0.000000e+000  2.000000e-001
      vertex -2.078461e-001 -1.421086e-017  2.000000e-001
      vertex -8.660255e-002 -1.500000e-001  2.000000e-001
    endloop
  endfacet
  facet normal  0.000000e+000  0.000000e+000  1.000000e+000
    outer loop
      vertex -8.660255e-002 -1.500000e-001  2.000000e-001
      vertex -2.078461e-001 -1.421086e-017  2.000000e-001
      vertex -1.558846e-001 -9.000000e-002  2.000000e-001
    endloop
  endfacet
  facet normal  -0.000000e+000  0.000000e+000  1.000000e+000
    outer loop
      vertex  2.078461e-001  2.842171e-017  2.000000e-001
      vertex  1.732051e-001 -9.947599e-017  2.000000e-001
      vertex  1.558846e-001 -9.000000e-002  2.000000e-001
    endloop
  endfacet
  facet normal  0.000000e+000  -0.000000e+000  1.000000e+000
    outer loop
      vertex  1.558846e-001 -9.000000e-002  2.000000e-001
      vertex  1.732051e-001 -9.947599e-017  2.000000e-001
      vertex  8.660255e-002 -1.500000e-001  2.000000e-001
    endloop
  endfacet
  facet normal  -0.000000e+000  0.000000e+000  1.000000e+000
    outer loop
      vertex  1.558846e-001 -9.000000e-002  2.000000e-001
      vertex  8.660255e-002 -1.500000e-001  2.000000e-001
      vertex  1.039231e-001 -1.800000e-001  2.000000e-001
    endloop
  endfacet
  facet normal  0.000000e+000  1.000000e+000  0.000000e+000
    outer loop
      vertex -1.039231e-001 -1.800000e-001  4.500000e-001
      vertex  1.039231e-001 -1.800000e-001  4.500000e-001
      vertex -1.039231e-001 -1.800000e-001  3.000000e-001
    endloop
  endfacet
  facet normal  0.000000e+000  1.000000e+000  0.000000e+000
    outer loop
      vertex -1.039231e-001 -1.800000e-001  3.000000e-001
      vertex  1.039231e-001 -1.800000e-001  4.500000e-001
      vertex  1.039231e-001 -1.800000e-001  3.000000e-001
    endloop
  endfacet
  facet normal -2.961982e-001 -1.710101e-001  9.396926e-001
    outer loop
      vertex  5.777596e-002  1.000709e-001  1.818273e-001
      vertex  1.155519e-001 -5.684342e-017  1.818273e-001
      vertex  8.660255e-002  1.500000e-001  2.000000e-001
    endloop
  endfacet
  facet normal -2.961982e-001 -1.710101e-001  9.396926e-001
    outer loop
      vertex  8.660255e-002  1.500000e-001  2.000000e-001
      vertex  1.155519e-001 -5.684342e-017  1.818273e-001
      vertex  1.732051e-001 -9.947599e-017  2.000000e-001
    endloop
  endfacet
  facet normal -2.961982e-001  1.710101e-001  9.396926e-001
    outer loop
      vertex  1.155519e-001 -5.684342e-017  1.818273e-001
      vertex  5.777596e-002 -1.000709e-001  1.818273e-001
      vertex  1.732051e-001 -9.947599e-017  2.000000e-001
    endloop
  endfacet
  facet normal -2.961982e-001  1.710101e-001  9.396926e-001
    outer loop
      vertex  1.732051e-001 -9.947599e-017  2.000000e-001
      vertex  5.777596e-002 -1.000709e-001  1.818273e-001
      vertex  8.660255e-002 -1.500000e-001  2.000000e-001
    endloop
  endfacet
  facet normal  -0.000000e+000  3.420202e-001  9.396926e-001
    outer loop
      vertex  5.777596e-002 -1.000709e-001  1.818273e-001
      vertex -5.777596e-002 -1.000709e-001  1.818273e-001
      vertex  8.660255e-002 -1.500000e-001  2.000000e-001
    endloop
  endfacet
  facet normal  0.000000e+000  3.420202e-001  9.396926e-001
    outer loop
      vertex  8.660255e-002 -1.500000e-001  2.000000e-001
      vertex -5.777596e-002 -1.000709e-001  1.818273e-001
      vertex -8.660255e-002 -1.500000e-001  2.000000e-001
    endloop
  endfacet
  facet normal  2.961982e-001  1.710101e-001  9.396926e-001
    outer loop
      vertex -5.777596e-002 -1.000709e-001  1.818273e-001
      vertex -1.155519e-001 -2.131628e-017  1.818273e-001
      vertex -8.660255e-002 -1.500000e-001  2.000000e-001
    endloop
  endfacet
  facet normal  2.961982e-001  1.710101e-001  9.396926e-001
    outer loop
      vertex -8.660255e-002 -1.500000e-001  2.000000e-001
      vertex -1.155519e-001 -2.131628e-017  1.818273e-001
      vertex -1.732051e-001  0.000000e+000  2.000000e-001
    endloop
  endfacet
  facet normal  2.961982e-001 -1.710101e-001  9.396926e-001
    outer loop
      vertex -1.155519e-001 -2.131628e-017  1.818273e-001
      vertex -5.777596e-002  1.000709e-001  1.818273e-001
      vertex -1.732051e-001  0.000000e+000  2.000000e-001
    endloop
  endfacet
  facet normal  2.961982e-001 -1.710101e-001  9.396926e-001
    outer loop
      vertex -1.732051e-001  0.000000e+000  2.000000e-001
      vertex -5.777596e-002  1.000709e-001  1.818273e-001
      vertex -8.660255e-002  1.500000e-001  2.000000e-001
    endloop
  endfacet
  facet normal  0.000000e+000 -3.420202e-001  9.396926e-001
    outer loop
      vertex -5.777596e-002  1.000709e-001  1.818273e-001
      vertex  5.777596e-002  1.000709e-001  1.818273e-001
      vertex -8.660255e-002  1.500000e-001  2.000000e-001
    endloop
  endfacet
  facet normal  0.000000e+000 -3.420202e-001  9.396926e-001
    outer loop
      vertex -8.660255e-002  1.500000e-001  2.000000e-001
      vertex  5.777596e-002  1.000709e-001  1.818273e-001
      vertex  8.660255e-002  1.500000e-001  2.000000e-001
    endloop
  endfacet
  facet normal  5.566704e-001 -3.213938e-001  7.660444e-001
    outer loop
      vertex  2.886751e-002 -5.000000e-002  1.879752e-001
      vertex  5.773503e-002 -1.776357e-017  1.879752e-001
      vertex -9.954149e-033 -9.947599e-017  2.299302e-001
    endloop
  endfacet
  facet normal  1.055420e-001 -6.093470e-002  9.925462e-001
    outer loop
      vertex  5.773503e-002 -1.776357e-017  1.879752e-001
      vertex  2.886751e-002 -5.000000e-002  1.879752e-001
      vertex  1.155519e-001 -5.684342e-017  1.818273e-001
    endloop
  endfacet
  facet normal  1.055420e-001 -6.093470e-002  9.925461e-001
    outer loop
      vertex  1.155519e-001 -5.684342e-017  1.818273e-001
      vertex  2.886751e-002 -5.000000e-002  1.879752e-001
      vertex  5.777596e-002 -1.000709e-001  1.818273e-001
    endloop
  endfacet
  facet normal  0.000000e+000 -6.427876e-001  7.660444e-001
    outer loop
      vertex -2.886751e-002 -5.000000e-002  1.879752e-001
      vertex  2.886751e-002 -5.000000e-002  1.879752e-001
      vertex -9.954149e-033 -9.947599e-017  2.299302e-001
    endloop
  endfacet
  facet normal -5.566704e-001 -3.213938e-001  7.660444e-001
    outer loop
      vertex -5.773503e-002  3.552714e-018  1.879752e-001
      vertex -2.886751e-002 -5.000000e-002  1.879752e-001
      vertex -9.954149e-033 -9.947599e-017  2.299302e-001
    endloop
  endfacet
  facet normal -5.566704e-001  3.213938e-001  7.660444e-001
    outer loop
      vertex -2.886751e-002  5.000000e-002  1.879752e-001
      vertex -5.773503e-002  3.552714e-018  1.879752e-001
      vertex -9.954149e-033 -9.947599e-017  2.299302e-001
    endloop
  endfacet
  facet normal  0.000000e+000  1.218694e-001  9.925462e-001
    outer loop
      vertex -2.886751e-002  5.000000e-002  1.879752e-001
      vertex  2.886751e-002  5.000000e-002  1.879752e-001
      vertex -5.777596e-002  1.000709e-001  1.818273e-001
    endloop
  endfacet
  facet normal  -0.000000e+000  1.218694e-001  9.925462e-001
    outer loop
      vertex -5.777596e-002  1.000709e-001  1.818273e-001
      vertex  2.886751e-002  5.000000e-002  1.879752e-001
      vertex  5.777596e-002  1.000709e-001  1.818273e-001
    endloop
  endfacet
  facet normal  -0.000000e+000  6.427876e-001  7.660444e-001
    outer loop
      vertex  2.886751e-002  5.000000e-002  1.879752e-001
      vertex -2.886751e-002  5.000000e-002  1.879752e-001
      vertex -9.954149e-033 -9.947599e-017  2.299302e-001
    endloop
  endfacet
  facet normal  1.055420e-001  6.093470e-002  9.925462e-001
    outer loop
      vertex  2.886751e-002  5.000000e-002  1.879752e-001
      vertex  5.773503e-002 -1.776357e-017  1.879752e-001
      vertex  5.777596e-002  1.000709e-001  1.818273e-001
    endloop
  endfacet
  facet normal  1.055420e-001  6.093470e-002  9.925462e-001
    outer loop
      vertex  5.777596e-002  1.000709e-001  1.818273e-001
      vertex  5.773503e-002 -1.776357e-017  1.879752e-001
      vertex  1.155519e-001 -5.684342e-017  1.818273e-001
    endloop
  endfacet
  facet normal  5.566704e-001  3.213938e-001  7.660444e-001
    outer loop
      vertex  5.773503e-002 -1.776357e-017  1.879752e-001
      vertex  2.886751e-002  5.000000e-002  1.879752e-001
      vertex -9.954149e-033 -9.947599e-017  2.299302e-001
    endloop
  endfacet
  facet normal  0.000000e+000 -1.218694e-001  9.925462e-001
    outer loop
      vertex  2.886751e-002 -5.000000e-002  1.879752e-001
      vertex -2.886751e-002 -5.000000e-002  1.879752e-001
      vertex  5.777596e-002 -1.000709e-001  1.818273e-001
    endloop
  endfacet
  facet normal  0.000000e+000 -1.218694e-001  9.925462e-001
    outer loop
      vertex  5.777596e-002 -1.000709e-001  1.818273e-001
      vertex -2.886751e-002 -5.000000e-002  1.879752e-001
      vertex -5.777596e-002 -1.000709e-001  1.818273e-001
    endloop
  endfacet
  facet normal -1.055420e-001 -6.093470e-002  9.925462e-001
    outer loop
      vertex -2.886751e-002 -5.000000e-002  1.879752e-001
      vertex -5.773503e-002  3.552714e-018  1.879752e-001
      vertex -5.777596e-002 -1.000709e-001  1.818273e-001
    endloop
  endfacet
  facet normal -1.055420e-001 -6.093470e-002  9.925462e-001
    outer loop
      vertex -5.777596e-002 -1.000709e-001  1.818273e-001
      vertex -5.773503e-002  3.552714e-018  1.879752e-001
      vertex -1.155519e-001 -2.131628e-017  1.818273e-001
    endloop
  endfacet
  facet normal -1.055420e-001  6.093470e-002  9.925462e-001
    outer loop
      vertex -5.773503e-002  3.552714e-018  1.879752e-001
      vertex -2.886751e-002  5.000000e-002  1.879752e-001
      vertex -1.155519e-001 -2.131628e-017  1.818273e-001
    endloop
  endfacet
  facet normal -1.055420e-001  6.093470e-002  9.925461e-001
    outer loop
      vertex -1.155519e-001 -2.131628e-017  1.818273e-001
      vertex -2.886751e-002  5.000000e-002  1.879752e-001
      vertex -5.777596e-002  1.000709e-001  1.818273e-001
    endloop
  endfacet
  facet normal  0.000000e+000 -8.944272e-001  4.472136e-001
    outer loop
      vertex  1.154701e-001 -2.000000e-001  1.600000e-001
      vertex  1.039231e-001 -1.800000e-001  2.000000e-001
      vertex -1.154701e-001 -2.000000e-001  1.600000e-001
    endloop
  endfacet
  facet normal  0.000000e+000 -8.944272e-001  4.472136e-001
    outer loop
      vertex -1.154701e-001 -2.000000e-001  1.600000e-001
      vertex  1.039231e-001 -1.800000e-001  2.000000e-001
      vertex -1.039231e-001 -1.800000e-001  2.000000e-001
    endloop
  endfacet
  facet normal  -0.000000e+000  8.944272e-001  4.472136e-001
    outer loop
      vertex  1.154701e-001  2.000000e-001  1.600000e-001
      vertex -1.154701e-001  2.000000e-001  1.600000e-001
      vertex  1.039231e-001  1.800000e-001  2.000000e-001
    endloop
  endfacet
  facet normal  0.000000e+000  8.944272e-001  4.472136e-001
    outer loop
      vertex  1.039231e-001  1.800000e-001  2.000000e-001
      vertex -1.154701e-001  2.000000e-001  1.600000e-001
      vertex -1.039231e-001  1.800000e-001  2.000000e-001
    endloop
  endfacet
endsolid CATIA STL
