solid CATIA STL
  facet normal -5.467860e-001 -6.331730e-001 -5.478294e-001
    outer loop
      vertex -1.154661e-001 -2.000000e-001  4.404100e-001
      vertex -1.154701e-001 -2.000000e-001  4.404140e-001
      vertex -9.526054e-002 -1.650039e-001  3.797950e-001
    endloop
  endfacet
  facet normal -5.477251e-001 -6.324507e-001 -5.477255e-001
    outer loop
      vertex -9.526054e-002 -1.650039e-001  3.797950e-001
      vertex -1.154701e-001 -2.000000e-001  4.404140e-001
      vertex -2.309401e-001  0.000000e+000  3.249469e-001
    endloop
  endfacet
  facet normal -5.477253e-001 -6.324508e-001 -5.477253e-001
    outer loop
      vertex -9.526054e-002 -1.650039e-001  3.797950e-001
      vertex -2.309401e-001  0.000000e+000  3.249469e-001
      vertex -1.905256e-001  0.000000e+000  2.845324e-001
    endloop
  endfacet
  facet normal  0.000000e+000 -8.660253e-001 -5.000001e-001
    outer loop
      vertex  1.154661e-001 -2.000000e-001  4.404100e-001
      vertex -1.154661e-001 -2.000000e-001  4.404100e-001
      vertex  9.526054e-002 -1.650039e-001  3.797950e-001
    endloop
  endfacet
  facet normal  -0.000000e+000 -8.660253e-001 -5.000002e-001
    outer loop
      vertex  9.526054e-002 -1.650039e-001  3.797950e-001
      vertex -1.154661e-001 -2.000000e-001  4.404100e-001
      vertex -9.526054e-002 -1.650039e-001  3.797950e-001
    endloop
  endfacet
  facet normal  0.000000e+000 -1.000000e+000  0.000000e+000
    outer loop
      vertex -1.154701e-001 -2.000000e-001  4.404140e-001
      vertex -1.154661e-001 -2.000000e-001  4.404100e-001
      vertex  1.154661e-001 -2.000000e-001  4.404100e-001
    endloop
  endfacet
  facet normal  -0.000000e+000 -1.000000e+000  0.000000e+000
    outer loop
      vertex  1.154661e-001 -2.000000e-001  4.404100e-001
      vertex  1.154701e-001 -2.000000e-001  4.404140e-001
      vertex -1.154701e-001 -2.000000e-001  4.404140e-001
    endloop
  endfacet
  facet normal  0.000000e+000 -9.999999e-001  0.000000e+000
    outer loop
      vertex -1.154701e-001 -2.000000e-001  4.404140e-001
      vertex  1.154701e-001 -2.000000e-001  4.404140e-001
      vertex  1.154701e-001 -2.000000e-001  8.600324e-001
    endloop
  endfacet
  facet normal  -0.000000e+000 -9.999999e-001  0.000000e+000
    outer loop
      vertex -1.154701e-001 -2.000000e-001  4.404140e-001
      vertex  1.154701e-001 -2.000000e-001  8.600324e-001
      vertex -1.154701e-001 -2.000000e-001  8.600324e-001
    endloop
  endfacet
  facet normal -8.660254e-001 -5.000000e-001  0.000000e+000
    outer loop
      vertex -1.154701e-001 -2.000000e-001  8.600324e-001
      vertex -2.309401e-001 -1.421086e-016  8.600324e-001
      vertex -1.154701e-001 -2.000000e-001  4.404140e-001
    endloop
  endfacet
  facet normal -8.660254e-001 -5.000000e-001  0.000000e+000
    outer loop
      vertex -1.154701e-001 -2.000000e-001  4.404140e-001
      vertex -2.309401e-001 -1.421086e-016  8.600324e-001
      vertex -2.309401e-001  0.000000e+000  3.249469e-001
    endloop
  endfacet
  facet normal  0.000000e+000 -4.999906e-001 -8.660308e-001
    outer loop
      vertex -9.526054e-002 -1.650039e-001  3.797950e-001
      vertex -1.905256e-001  0.000000e+000  2.845324e-001
      vertex  9.526054e-002 -1.650039e-001  3.797950e-001
    endloop
  endfacet
  facet normal  0.000000e+000 -4.999906e-001 -8.660308e-001
    outer loop
      vertex  9.526054e-002 -1.650039e-001  3.797950e-001
      vertex -1.905256e-001  0.000000e+000  2.845324e-001
      vertex  1.905256e-001 -2.842171e-017  2.845324e-001
    endloop
  endfacet
  facet normal -8.660254e-001  5.000001e-001  1.327905e-016
    outer loop
      vertex -2.309401e-001  0.000000e+000  3.249469e-001
      vertex -2.309401e-001 -1.421086e-016  8.600324e-001
      vertex -1.905256e-001  7.000000e-002  2.845324e-001
    endloop
  endfacet
  facet normal -8.660254e-001  5.000000e-001 -3.673883e-009
    outer loop
      vertex -1.905256e-001  7.000000e-002  2.845324e-001
      vertex -2.309401e-001 -1.421086e-016  8.600324e-001
      vertex -1.154701e-001  2.000000e-001  8.600324e-001
    endloop
  endfacet
  facet normal -8.660254e-001  5.000000e-001  0.000000e+000
    outer loop
      vertex -1.905256e-001  7.000000e-002  2.845324e-001
      vertex -1.154701e-001  2.000000e-001  8.600324e-001
      vertex -1.154701e-001  2.000000e-001  2.845324e-001
    endloop
  endfacet
  facet normal -7.071068e-001  0.000000e+000 -7.071068e-001
    outer loop
      vertex -1.905256e-001  7.000000e-002  2.845324e-001
      vertex -1.905256e-001  0.000000e+000  2.845324e-001
      vertex -2.309401e-001  0.000000e+000  3.249469e-001
    endloop
  endfacet
  facet normal  0.000000e+000  0.000000e+000 -1.000000e+000
    outer loop
      vertex  1.905256e-001 -2.842171e-017  2.845324e-001
      vertex  1.154701e-001  2.000000e-001  2.845324e-001
      vertex  1.905256e-001  7.000000e-002  2.845324e-001
    endloop
  endfacet
  facet normal  0.000000e+000  0.000000e+000 -1.000000e+000
    outer loop
      vertex -1.905256e-001  7.000000e-002  2.845324e-001
      vertex -1.154701e-001  2.000000e-001  2.845324e-001
      vertex -1.905256e-001  0.000000e+000  2.845324e-001
    endloop
  endfacet
  facet normal  0.000000e+000  0.000000e+000 -1.000000e+000
    outer loop
      vertex -1.905256e-001  0.000000e+000  2.845324e-001
      vertex -1.154701e-001  2.000000e-001  2.845324e-001
      vertex  1.154701e-001  2.000000e-001  2.845324e-001
    endloop
  endfacet
  facet normal  0.000000e+000  -0.000000e+000 -1.000000e+000
    outer loop
      vertex -1.905256e-001  0.000000e+000  2.845324e-001
      vertex  1.154701e-001  2.000000e-001  2.845324e-001
      vertex  1.905256e-001 -2.842171e-017  2.845324e-001
    endloop
  endfacet
  facet normal  5.467507e-001 -6.331049e-001 -5.479434e-001
    outer loop
      vertex  1.154661e-001 -2.000000e-001  4.404100e-001
      vertex  9.526054e-002 -1.650039e-001  3.797950e-001
      vertex  1.154701e-001 -2.000000e-001  4.404140e-001
    endloop
  endfacet
  facet normal  5.477251e-001 -6.324508e-001 -5.477256e-001
    outer loop
      vertex  1.154701e-001 -2.000000e-001  4.404140e-001
      vertex  9.526054e-002 -1.650039e-001  3.797950e-001
      vertex  1.905256e-001 -2.842171e-017  2.845324e-001
    endloop
  endfacet
  facet normal  5.477253e-001 -6.324507e-001 -5.477253e-001
    outer loop
      vertex  1.154701e-001 -2.000000e-001  4.404140e-001
      vertex  1.905256e-001 -2.842171e-017  2.845324e-001
      vertex  2.309401e-001  0.000000e+000  3.249469e-001
    endloop
  endfacet
  facet normal  8.660254e-001 -5.000000e-001 -1.593486e-016
    outer loop
      vertex  2.309401e-001  0.000000e+000  3.249469e-001
      vertex  2.309401e-001 -1.705303e-016  8.600324e-001
      vertex  1.154701e-001 -2.000000e-001  4.404140e-001
    endloop
  endfacet
  facet normal  8.660254e-001 -5.000000e-001  0.000000e+000
    outer loop
      vertex  1.154701e-001 -2.000000e-001  4.404140e-001
      vertex  2.309401e-001 -1.705303e-016  8.600324e-001
      vertex  1.154701e-001 -2.000000e-001  8.600324e-001
    endloop
  endfacet
  facet normal  8.660254e-001  5.000000e-001 -1.609718e-007
    outer loop
      vertex  1.905256e-001  7.000000e-002  2.845324e-001
      vertex  1.154701e-001  2.000000e-001  2.845324e-001
      vertex  2.309401e-001  0.000000e+000  3.249469e-001
    endloop
  endfacet
  facet normal  8.660254e-001  5.000000e-001  0.000000e+000
    outer loop
      vertex  2.309401e-001  0.000000e+000  3.249469e-001
      vertex  1.154701e-001  2.000000e-001  2.845324e-001
      vertex  1.154701e-001  2.000000e-001  8.600324e-001
    endloop
  endfacet
  facet normal  8.660254e-001  5.000000e-001  0.000000e+000
    outer loop
      vertex  2.309401e-001  0.000000e+000  3.249469e-001
      vertex  1.154701e-001  2.000000e-001  8.600324e-001
      vertex  2.309401e-001 -1.705303e-016  8.600324e-001
    endloop
  endfacet
  facet normal  7.071068e-001  0.000000e+000 -7.071068e-001
    outer loop
      vertex  2.309401e-001  0.000000e+000  3.249469e-001
      vertex  1.905256e-001 -2.842171e-017  2.845324e-001
      vertex  1.905256e-001  7.000000e-002  2.845324e-001
    endloop
  endfacet
  facet normal  0.000000e+000  1.000000e+000  0.000000e+000
    outer loop
      vertex -1.154701e-001  2.000000e-001  2.845324e-001
      vertex -1.154701e-001  2.000000e-001  8.600324e-001
      vertex  1.154701e-001  2.000000e-001  2.845324e-001
    endloop
  endfacet
  facet normal  0.000000e+000  1.000000e+000  -0.000000e+000
    outer loop
      vertex  1.154701e-001  2.000000e-001  2.845324e-001
      vertex -1.154701e-001  2.000000e-001  8.600324e-001
      vertex  1.154701e-001  2.000000e-001  8.600324e-001
    endloop
  endfacet
  facet normal  0.000000e+000  0.000000e+000  1.000000e+000
    outer loop
      vertex  1.154701e-001 -2.000000e-001  8.600324e-001
      vertex  2.309401e-001 -1.705303e-016  8.600324e-001
      vertex -1.154701e-001 -2.000000e-001  8.600324e-001
    endloop
  endfacet
  facet normal  0.000000e+000  -0.000000e+000  1.000000e+000
    outer loop
      vertex -1.154701e-001 -2.000000e-001  8.600324e-001
      vertex  2.309401e-001 -1.705303e-016  8.600324e-001
      vertex -2.309401e-001 -1.421086e-016  8.600324e-001
    endloop
  endfacet
  facet normal  0.000000e+000  0.000000e+000  1.000000e+000
    outer loop
      vertex  2.309401e-001 -1.705303e-016  8.600324e-001
      vertex  1.154701e-001  2.000000e-001  8.600324e-001
      vertex -2.309401e-001 -1.421086e-016  8.600324e-001
    endloop
  endfacet
  facet normal  0.000000e+000  0.000000e+000  1.000000e+000
    outer loop
      vertex -2.309401e-001 -1.421086e-016  8.600324e-001
      vertex  1.154701e-001  2.000000e-001  8.600324e-001
      vertex -1.154701e-001  2.000000e-001  8.600324e-001
    endloop
  endfacet
endsolid CATIA STL
