solid CATIA STL
  facet normal  0.000000e+000  1.000000e+000  0.000000e+000
    outer loop
      vertex  1.154701e-001  2.000000e-001  0.000000e+000
      vertex -1.154701e-001  2.000000e-001  0.000000e+000
      vertex  1.154701e-001  2.000000e-001  1.500000e-001
    endloop
  endfacet
  facet normal  0.000000e+000  1.000000e+000  0.000000e+000
    outer loop
      vertex  1.154701e-001  2.000000e-001  1.500000e-001
      vertex -1.154701e-001  2.000000e-001  0.000000e+000
      vertex -1.154701e-001  2.000000e-001  1.500000e-001
    endloop
  endfacet
  facet normal -8.660254e-001  5.000000e-001  0.000000e+000
    outer loop
      vertex -1.154701e-001  2.000000e-001  0.000000e+000
      vertex -2.309401e-001 -1.136868e-016  0.000000e+000
      vertex -1.154701e-001  2.000000e-001  1.500000e-001
    endloop
  endfacet
  facet normal -8.660254e-001  5.000000e-001  0.000000e+000
    outer loop
      vertex -1.154701e-001  2.000000e-001  1.500000e-001
      vertex -2.309401e-001 -1.136868e-016  0.000000e+000
      vertex -2.309401e-001 -8.526513e-017  3.500000e-001
    endloop
  endfacet
  facet normal -8.660254e-001 -5.000000e-001  0.000000e+000
    outer loop
      vertex -2.309401e-001 -1.136868e-016  0.000000e+000
      vertex -1.154701e-001 -2.000000e-001  0.000000e+000
      vertex -2.309401e-001 -8.526513e-017  3.500000e-001
    endloop
  endfacet
  facet normal -8.660254e-001 -5.000000e-001  0.000000e+000
    outer loop
      vertex -2.309401e-001 -8.526513e-017  3.500000e-001
      vertex -1.154701e-001 -2.000000e-001  0.000000e+000
      vertex -1.154701e-001 -2.000000e-001  5.500000e-001
    endloop
  endfacet
  facet normal  0.000000e+000 -1.000000e+000  0.000000e+000
    outer loop
      vertex -1.154701e-001 -2.000000e-001  0.000000e+000
      vertex  1.154701e-001 -2.000000e-001  0.000000e+000
      vertex -1.154701e-001 -2.000000e-001  5.500000e-001
    endloop
  endfacet
  facet normal  0.000000e+000 -1.000000e+000  0.000000e+000
    outer loop
      vertex -1.154701e-001 -2.000000e-001  5.500000e-001
      vertex  1.154701e-001 -2.000000e-001  0.000000e+000
      vertex  1.154701e-001 -2.000000e-001  5.500000e-001
    endloop
  endfacet
  facet normal  8.660254e-001 -5.000000e-001  0.000000e+000
    outer loop
      vertex  1.154701e-001 -2.000000e-001  0.000000e+000
      vertex  2.309401e-001 -9.947599e-017  0.000000e+000
      vertex  1.154701e-001 -2.000000e-001  5.500000e-001
    endloop
  endfacet
  facet normal  8.660254e-001 -5.000000e-001  0.000000e+000
    outer loop
      vertex  1.154701e-001 -2.000000e-001  5.500000e-001
      vertex  2.309401e-001 -9.947599e-017  0.000000e+000
      vertex  2.309401e-001 -5.684342e-017  3.500000e-001
    endloop
  endfacet
  facet normal  8.660254e-001  5.000000e-001  0.000000e+000
    outer loop
      vertex  2.309401e-001 -9.947599e-017  0.000000e+000
      vertex  1.154701e-001  2.000000e-001  0.000000e+000
      vertex  2.309401e-001 -5.684342e-017  3.500000e-001
    endloop
  endfacet
  facet normal  8.660254e-001  5.000000e-001  0.000000e+000
    outer loop
      vertex  2.309401e-001 -5.684342e-017  3.500000e-001
      vertex  1.154701e-001  2.000000e-001  0.000000e+000
      vertex  1.154701e-001  2.000000e-001  1.500000e-001
    endloop
  endfacet
  facet normal  -0.000000e+000  7.071068e-001  7.071068e-001
    outer loop
      vertex  1.154701e-001  2.000000e-001  1.500000e-001
      vertex -1.154701e-001  2.000000e-001  1.500000e-001
      vertex  2.309401e-001 -5.684342e-017  3.500000e-001
    endloop
  endfacet
  facet normal -4.351168e-017  7.071068e-001  7.071068e-001
    outer loop
      vertex  2.309401e-001 -5.684342e-017  3.500000e-001
      vertex -1.154701e-001  2.000000e-001  1.500000e-001
      vertex -2.309401e-001 -8.526513e-017  3.500000e-001
    endloop
  endfacet
  facet normal -4.351168e-017  7.071068e-001  7.071068e-001
    outer loop
      vertex  2.309401e-001 -5.684342e-017  3.500000e-001
      vertex -2.309401e-001 -8.526513e-017  3.500000e-001
      vertex  1.154701e-001 -2.000000e-001  5.500000e-001
    endloop
  endfacet
  facet normal  0.000000e+000  7.071068e-001  7.071068e-001
    outer loop
      vertex  1.154701e-001 -2.000000e-001  5.500000e-001
      vertex -2.309401e-001 -8.526513e-017  3.500000e-001
      vertex -1.154701e-001 -2.000000e-001  5.500000e-001
    endloop
  endfacet
  facet normal  0.000000e+000  0.000000e+000 -1.000000e+000
    outer loop
      vertex  1.154701e-001  2.000000e-001  0.000000e+000
      vertex  2.309401e-001 -9.947599e-017  0.000000e+000
      vertex -1.154701e-001  2.000000e-001  0.000000e+000
    endloop
  endfacet
  facet normal  0.000000e+000  -0.000000e+000 -1.000000e+000
    outer loop
      vertex -1.154701e-001  2.000000e-001  0.000000e+000
      vertex  2.309401e-001 -9.947599e-017  0.000000e+000
      vertex -2.309401e-001 -1.136868e-016  0.000000e+000
    endloop
  endfacet
  facet normal  0.000000e+000  0.000000e+000 -1.000000e+000
    outer loop
      vertex  2.309401e-001 -9.947599e-017  0.000000e+000
      vertex  1.154701e-001 -2.000000e-001  0.000000e+000
      vertex -2.309401e-001 -1.136868e-016  0.000000e+000
    endloop
  endfacet
  facet normal  0.000000e+000  0.000000e+000 -1.000000e+000
    outer loop
      vertex -2.309401e-001 -1.136868e-016  0.000000e+000
      vertex  1.154701e-001 -2.000000e-001  0.000000e+000
      vertex -1.154701e-001 -2.000000e-001  0.000000e+000
    endloop
  endfacet
endsolid CATIA STL
