solid CATIA STL
  facet normal  0.000000e+000  0.000000e+000  1.000000e+000
    outer loop
      vertex -2.309401e-001 -1.500000e-002  3.645101e-001
      vertex  2.309401e-001 -1.500000e-002  3.645101e-001
      vertex -2.309401e-001  3.500000e-002  3.645101e-001
    endloop
  endfacet
  facet normal  -0.000000e+000  0.000000e+000  1.000000e+000
    outer loop
      vertex -2.309401e-001  3.500000e-002  3.645101e-001
      vertex  2.309401e-001 -1.500000e-002  3.645101e-001
      vertex  2.309401e-001  3.500000e-002  3.645101e-001
    endloop
  endfacet
  facet normal  0.000000e+000  1.000000e+000  0.000000e+000
    outer loop
      vertex -2.309401e-001  3.500000e-002 -3.645101e-001
      vertex -2.309401e-001  3.500000e-002  3.645101e-001
      vertex  2.309401e-001  3.500000e-002 -3.645101e-001
    endloop
  endfacet
  facet normal  0.000000e+000  1.000000e+000  -0.000000e+000
    outer loop
      vertex  2.309401e-001  3.500000e-002 -3.645101e-001
      vertex -2.309401e-001  3.500000e-002  3.645101e-001
      vertex  2.309401e-001  3.500000e-002  3.645101e-001
    endloop
  endfacet
  facet normal -1.000000e+000  0.000000e+000  0.000000e+000
    outer loop
      vertex -2.309401e-001 -1.500000e-002 -3.645101e-001
      vertex -2.309401e-001 -1.500000e-002  3.645101e-001
      vertex -2.309401e-001  3.500000e-002 -3.645101e-001
    endloop
  endfacet
  facet normal -1.000000e+000  0.000000e+000  0.000000e+000
    outer loop
      vertex -2.309401e-001  3.500000e-002 -3.645101e-001
      vertex -2.309401e-001 -1.500000e-002  3.645101e-001
      vertex -2.309401e-001  3.500000e-002  3.645101e-001
    endloop
  endfacet
  facet normal  0.000000e+000 -1.000000e+000  -0.000000e+000
    outer loop
      vertex  2.309401e-001 -1.500000e-002 -3.645101e-001
      vertex  2.309401e-001 -1.500000e-002  3.645101e-001
      vertex -2.309401e-001 -1.500000e-002 -3.645101e-001
    endloop
  endfacet
  facet normal  0.000000e+000 -1.000000e+000  0.000000e+000
    outer loop
      vertex -2.309401e-001 -1.500000e-002 -3.645101e-001
      vertex  2.309401e-001 -1.500000e-002  3.645101e-001
      vertex -2.309401e-001 -1.500000e-002  3.645101e-001
    endloop
  endfacet
  facet normal  1.000000e+000  0.000000e+000  0.000000e+000
    outer loop
      vertex  2.309401e-001  3.500000e-002 -3.645101e-001
      vertex  2.309401e-001  3.500000e-002  3.645101e-001
      vertex  2.309401e-001 -1.500000e-002 -3.645101e-001
    endloop
  endfacet
  facet normal  1.000000e+000  0.000000e+000  0.000000e+000
    outer loop
      vertex  2.309401e-001 -1.500000e-002 -3.645101e-001
      vertex  2.309401e-001  3.500000e-002  3.645101e-001
      vertex  2.309401e-001 -1.500000e-002  3.645101e-001
    endloop
  endfacet
  facet normal  0.000000e+000  0.000000e+000 -1.000000e+000
    outer loop
      vertex -2.309401e-001 -1.500000e-002 -3.645101e-001
      vertex -2.309401e-001  3.500000e-002 -3.645101e-001
      vertex  2.309401e-001 -1.500000e-002 -3.645101e-001
    endloop
  endfacet
  facet normal  0.000000e+000  0.000000e+000 -1.000000e+000
    outer loop
      vertex  2.309401e-001 -1.500000e-002 -3.645101e-001
      vertex -2.309401e-001  3.500000e-002 -3.645101e-001
      vertex  2.309401e-001  3.500000e-002 -3.645101e-001
    endloop
  endfacet
endsolid CATIA STL
