solid CATIA STL
  facet normal -9.902681e-001  1.391731e-001  0.000000e+000
    outer loop
      vertex -1.658846e-001  1.400000e-001  2.383013e-001
      vertex -1.658846e-001  1.400000e-001  1.183013e-001
      vertex -1.841549e-001  1.000000e-002  3.133568e-001
    endloop
  endfacet
  facet normal -9.902681e-001  1.391732e-001  6.265395e-008
    outer loop
      vertex -1.841549e-001  1.000000e-002  3.133568e-001
      vertex -1.658846e-001  1.400000e-001  1.183013e-001
      vertex -1.764251e-001  6.500001e-002  7.500000e-002
    endloop
  endfacet
  facet normal -9.902682e-001  1.391729e-001  0.000000e+000
    outer loop
      vertex -1.841549e-001  1.000000e-002  3.133568e-001
      vertex -1.764251e-001  6.500001e-002  7.500000e-002
      vertex -1.841549e-001  1.000000e-002 -3.133568e-001
    endloop
  endfacet
  facet normal -9.902681e-001  1.391729e-001  0.000000e+000
    outer loop
      vertex -1.841549e-001  1.000000e-002 -3.133568e-001
      vertex -1.764251e-001  6.500001e-002  7.500000e-002
      vertex -1.764251e-001  6.500001e-002 -7.500000e-002
    endloop
  endfacet
  facet normal -9.902681e-001  1.391731e-001 -4.725775e-008
    outer loop
      vertex -1.841549e-001  1.000000e-002 -3.133568e-001
      vertex -1.764251e-001  6.500001e-002 -7.500000e-002
      vertex -1.658846e-001  1.400000e-001 -2.383013e-001
    endloop
  endfacet
  facet normal -9.902681e-001  1.391732e-001  0.000000e+000
    outer loop
      vertex -1.658846e-001  1.400000e-001 -2.383013e-001
      vertex -1.764251e-001  6.500001e-002 -7.500000e-002
      vertex -1.658846e-001  1.400000e-001 -1.183013e-001
    endloop
  endfacet
  facet normal  0.000000e+000  5.000001e-001  8.660254e-001
    outer loop
      vertex -1.841549e-001  1.000000e-002  3.133568e-001
      vertex -1.558846e-001  1.400000e-001  2.383013e-001
      vertex -1.658846e-001  1.400000e-001  2.383013e-001
    endloop
  endfacet
  facet normal  1.948823e-007  5.000000e-001  8.660254e-001
    outer loop
      vertex -1.558846e-001  1.400000e-001  2.383013e-001
      vertex -1.841549e-001  1.000000e-002  3.133568e-001
      vertex -9.526280e-002  3.500000e-002  2.989230e-001
    endloop
  endfacet
  facet normal  0.000000e+000  5.000005e-001  8.660250e-001
    outer loop
      vertex -9.526280e-002  3.500000e-002  2.989230e-001
      vertex -1.841549e-001  1.000000e-002  3.133568e-001
      vertex  1.841549e-001  1.000000e-002  3.133568e-001
    endloop
  endfacet
  facet normal  0.000000e+000  5.000005e-001  8.660251e-001
    outer loop
      vertex -9.526280e-002  3.500000e-002  2.989230e-001
      vertex  1.841549e-001  1.000000e-002  3.133568e-001
      vertex  9.526280e-002  3.500000e-002  2.989230e-001
    endloop
  endfacet
  facet normal -1.904928e-007  5.000000e-001  8.660253e-001
    outer loop
      vertex  9.526280e-002  3.500000e-002  2.989230e-001
      vertex  1.841549e-001  1.000000e-002  3.133568e-001
      vertex  1.658846e-001  1.400000e-001  2.383013e-001
    endloop
  endfacet
  facet normal  0.000000e+000  4.999999e-001  8.660254e-001
    outer loop
      vertex  9.526280e-002  3.500000e-002  2.989230e-001
      vertex  1.658846e-001  1.400000e-001  2.383013e-001
      vertex  1.558846e-001  1.400000e-001  2.383013e-001
    endloop
  endfacet
  facet normal  9.902681e-001  1.391731e-001  -0.000000e+000
    outer loop
      vertex  1.841549e-001  1.000000e-002  3.133568e-001
      vertex  1.658846e-001  1.400000e-001  1.183013e-001
      vertex  1.658846e-001  1.400000e-001  2.383013e-001
    endloop
  endfacet
  facet normal  9.902681e-001  1.391732e-001  6.265395e-008
    outer loop
      vertex  1.658846e-001  1.400000e-001  1.183013e-001
      vertex  1.841549e-001  1.000000e-002  3.133568e-001
      vertex  1.764251e-001  6.500001e-002  7.500000e-002
    endloop
  endfacet
  facet normal  9.902682e-001  1.391729e-001  0.000000e+000
    outer loop
      vertex  1.764251e-001  6.500001e-002  7.500000e-002
      vertex  1.841549e-001  1.000000e-002  3.133568e-001
      vertex  1.841549e-001  1.000000e-002 -3.133568e-001
    endloop
  endfacet
  facet normal  9.902681e-001  1.391729e-001  0.000000e+000
    outer loop
      vertex  1.764251e-001  6.500001e-002  7.500000e-002
      vertex  1.841549e-001  1.000000e-002 -3.133568e-001
      vertex  1.764251e-001  6.500001e-002 -7.500000e-002
    endloop
  endfacet
  facet normal  9.902681e-001  1.391731e-001 -4.725775e-008
    outer loop
      vertex  1.764251e-001  6.500001e-002 -7.500000e-002
      vertex  1.841549e-001  1.000000e-002 -3.133568e-001
      vertex  1.658846e-001  1.400000e-001 -2.383013e-001
    endloop
  endfacet
  facet normal  9.902681e-001  1.391732e-001  -0.000000e+000
    outer loop
      vertex  1.764251e-001  6.500001e-002 -7.500000e-002
      vertex  1.658846e-001  1.400000e-001 -2.383013e-001
      vertex  1.658846e-001  1.400000e-001 -1.183013e-001
    endloop
  endfacet
  facet normal  0.000000e+000  4.999999e-001 -8.660254e-001
    outer loop
      vertex -9.526280e-002  3.500000e-002 -2.989230e-001
      vertex -1.658846e-001  1.400000e-001 -2.383013e-001
      vertex -1.558846e-001  1.400000e-001 -2.383013e-001
    endloop
  endfacet
  facet normal  1.904928e-007  5.000000e-001 -8.660253e-001
    outer loop
      vertex -1.658846e-001  1.400000e-001 -2.383013e-001
      vertex -9.526280e-002  3.500000e-002 -2.989230e-001
      vertex -1.841549e-001  1.000000e-002 -3.133568e-001
    endloop
  endfacet
  facet normal  0.000000e+000  5.000005e-001 -8.660251e-001
    outer loop
      vertex -1.841549e-001  1.000000e-002 -3.133568e-001
      vertex -9.526280e-002  3.500000e-002 -2.989230e-001
      vertex  9.526280e-002  3.500000e-002 -2.989230e-001
    endloop
  endfacet
  facet normal  0.000000e+000  5.000005e-001 -8.660250e-001
    outer loop
      vertex -1.841549e-001  1.000000e-002 -3.133568e-001
      vertex  9.526280e-002  3.500000e-002 -2.989230e-001
      vertex  1.841549e-001  1.000000e-002 -3.133568e-001
    endloop
  endfacet
  facet normal -1.948823e-007  5.000000e-001 -8.660254e-001
    outer loop
      vertex  1.841549e-001  1.000000e-002 -3.133568e-001
      vertex  9.526280e-002  3.500000e-002 -2.989230e-001
      vertex  1.558846e-001  1.400000e-001 -2.383013e-001
    endloop
  endfacet
  facet normal  0.000000e+000  5.000001e-001 -8.660254e-001
    outer loop
      vertex  1.841549e-001  1.000000e-002 -3.133568e-001
      vertex  1.558846e-001  1.400000e-001 -2.383013e-001
      vertex  1.658846e-001  1.400000e-001 -2.383013e-001
    endloop
  endfacet
  facet normal  0.000000e+000  1.000000e+000  0.000000e+000
    outer loop
      vertex -2.309401e-001  1.000000e-002  3.645101e-001
      vertex -1.841549e-001  1.000000e-002 -3.133568e-001
      vertex -2.309401e-001  1.000000e-002 -3.645101e-001
    endloop
  endfacet
  facet normal  0.000000e+000  1.000000e+000  0.000000e+000
    outer loop
      vertex -2.309401e-001  1.000000e-002 -3.645101e-001
      vertex -1.841549e-001  1.000000e-002 -3.133568e-001
      vertex  1.841549e-001  1.000000e-002 -3.133568e-001
    endloop
  endfacet
  facet normal  0.000000e+000  1.000000e+000  0.000000e+000
    outer loop
      vertex -2.309401e-001  1.000000e-002 -3.645101e-001
      vertex  1.841549e-001  1.000000e-002 -3.133568e-001
      vertex  2.309401e-001  1.000000e-002 -3.645101e-001
    endloop
  endfacet
  facet normal  0.000000e+000  1.000000e+000  0.000000e+000
    outer loop
      vertex -1.841549e-001  1.000000e-002 -3.133568e-001
      vertex -2.309401e-001  1.000000e-002  3.645101e-001
      vertex -1.841549e-001  1.000000e-002  3.133568e-001
    endloop
  endfacet
  facet normal  0.000000e+000  1.000000e+000  -0.000000e+000
    outer loop
      vertex -1.841549e-001  1.000000e-002  3.133568e-001
      vertex -2.309401e-001  1.000000e-002  3.645101e-001
      vertex  2.309401e-001  1.000000e-002  3.645101e-001
    endloop
  endfacet
  facet normal  0.000000e+000  1.000000e+000  0.000000e+000
    outer loop
      vertex -1.841549e-001  1.000000e-002  3.133568e-001
      vertex  2.309401e-001  1.000000e-002  3.645101e-001
      vertex  1.841549e-001  1.000000e-002  3.133568e-001
    endloop
  endfacet
  facet normal  -0.000000e+000  1.000000e+000  0.000000e+000
    outer loop
      vertex  1.841549e-001  1.000000e-002  3.133568e-001
      vertex  2.309401e-001  1.000000e-002  3.645101e-001
      vertex  2.309401e-001  1.000000e-002 -3.645101e-001
    endloop
  endfacet
  facet normal  0.000000e+000  1.000000e+000  0.000000e+000
    outer loop
      vertex  1.841549e-001  1.000000e-002  3.133568e-001
      vertex  2.309401e-001  1.000000e-002 -3.645101e-001
      vertex  1.841549e-001  1.000000e-002 -3.133568e-001
    endloop
  endfacet
  facet normal  0.000000e+000 -1.000000e+000  0.000000e+000
    outer loop
      vertex -2.309401e-001 -3.000000e-002 -3.645101e-001
      vertex  2.309401e-001 -3.000000e-002 -3.645101e-001
      vertex -2.309401e-001 -3.000000e-002  3.645101e-001
    endloop
  endfacet
  facet normal  0.000000e+000 -1.000000e+000  0.000000e+000
    outer loop
      vertex -2.309401e-001 -3.000000e-002  3.645101e-001
      vertex  2.309401e-001 -3.000000e-002 -3.645101e-001
      vertex  2.309401e-001 -3.000000e-002  3.645101e-001
    endloop
  endfacet
  facet normal  0.000000e+000  0.000000e+000  1.000000e+000
    outer loop
      vertex -2.309401e-001 -3.000000e-002  3.645101e-001
      vertex  2.309401e-001 -3.000000e-002  3.645101e-001
      vertex -2.309401e-001  1.000000e-002  3.645101e-001
    endloop
  endfacet
  facet normal  -0.000000e+000  0.000000e+000  1.000000e+000
    outer loop
      vertex -2.309401e-001  1.000000e-002  3.645101e-001
      vertex  2.309401e-001 -3.000000e-002  3.645101e-001
      vertex  2.309401e-001  1.000000e-002  3.645101e-001
    endloop
  endfacet
  facet normal  1.000000e+000  0.000000e+000  0.000000e+000
    outer loop
      vertex  2.309401e-001 -3.000000e-002 -3.645101e-001
      vertex  2.309401e-001  1.000000e-002 -3.645101e-001
      vertex  2.309401e-001 -3.000000e-002  3.645101e-001
    endloop
  endfacet
  facet normal  1.000000e+000  -0.000000e+000  0.000000e+000
    outer loop
      vertex  2.309401e-001 -3.000000e-002  3.645101e-001
      vertex  2.309401e-001  1.000000e-002 -3.645101e-001
      vertex  2.309401e-001  1.000000e-002  3.645101e-001
    endloop
  endfacet
  facet normal  0.000000e+000  0.000000e+000 -1.000000e+000
    outer loop
      vertex  2.309401e-001 -3.000000e-002 -3.645101e-001
      vertex -2.309401e-001 -3.000000e-002 -3.645101e-001
      vertex  2.309401e-001  1.000000e-002 -3.645101e-001
    endloop
  endfacet
  facet normal  -0.000000e+000  0.000000e+000 -1.000000e+000
    outer loop
      vertex  2.309401e-001  1.000000e-002 -3.645101e-001
      vertex -2.309401e-001 -3.000000e-002 -3.645101e-001
      vertex -2.309401e-001  1.000000e-002 -3.645101e-001
    endloop
  endfacet
  facet normal -1.000000e+000  -0.000000e+000  0.000000e+000
    outer loop
      vertex -2.309401e-001 -3.000000e-002  3.645101e-001
      vertex -2.309401e-001  1.000000e-002  3.645101e-001
      vertex -2.309401e-001 -3.000000e-002 -3.645101e-001
    endloop
  endfacet
  facet normal -1.000000e+000  0.000000e+000  0.000000e+000
    outer loop
      vertex -2.309401e-001 -3.000000e-002 -3.645101e-001
      vertex -2.309401e-001  1.000000e-002  3.645101e-001
      vertex -2.309401e-001  1.000000e-002 -3.645101e-001
    endloop
  endfacet
  facet normal  0.000000e+000  1.000000e+000  -0.000000e+000
    outer loop
      vertex -1.558846e-001  1.400000e-001 -1.183013e-001
      vertex -1.558846e-001  1.400000e-001 -2.383013e-001
      vertex -1.658846e-001  1.400000e-001 -1.183013e-001
    endloop
  endfacet
  facet normal  0.000000e+000  1.000000e+000  0.000000e+000
    outer loop
      vertex -1.658846e-001  1.400000e-001 -1.183013e-001
      vertex -1.558846e-001  1.400000e-001 -2.383013e-001
      vertex -1.658846e-001  1.400000e-001 -2.383013e-001
    endloop
  endfacet
  facet normal  0.000000e+000  5.000000e-001  8.660254e-001
    outer loop
      vertex -1.764251e-001  6.500001e-002 -7.500000e-002
      vertex -1.125833e-001  6.500001e-002 -7.500000e-002
      vertex -1.658846e-001  1.400000e-001 -1.183013e-001
    endloop
  endfacet
  facet normal  -0.000000e+000  5.000000e-001  8.660254e-001
    outer loop
      vertex -1.658846e-001  1.400000e-001 -1.183013e-001
      vertex -1.125833e-001  6.500001e-002 -7.500000e-002
      vertex -1.558846e-001  1.400000e-001 -1.183013e-001
    endloop
  endfacet
  facet normal  0.000000e+000  1.000000e+000  -0.000000e+000
    outer loop
      vertex -1.558846e-001  1.400000e-001  2.383013e-001
      vertex -1.558846e-001  1.400000e-001  1.183013e-001
      vertex -1.658846e-001  1.400000e-001  2.383013e-001
    endloop
  endfacet
  facet normal  0.000000e+000  1.000000e+000  0.000000e+000
    outer loop
      vertex -1.658846e-001  1.400000e-001  2.383013e-001
      vertex -1.558846e-001  1.400000e-001  1.183013e-001
      vertex -1.658846e-001  1.400000e-001  1.183013e-001
    endloop
  endfacet
  facet normal  0.000000e+000  5.000000e-001 -8.660254e-001
    outer loop
      vertex -1.658846e-001  1.400000e-001  1.183013e-001
      vertex -1.558846e-001  1.400000e-001  1.183013e-001
      vertex -1.764251e-001  6.500001e-002  7.500000e-002
    endloop
  endfacet
  facet normal  0.000000e+000  5.000000e-001 -8.660254e-001
    outer loop
      vertex -1.764251e-001  6.500001e-002  7.500000e-002
      vertex -1.558846e-001  1.400000e-001  1.183013e-001
      vertex -1.125833e-001  6.500001e-002  7.500000e-002
    endloop
  endfacet
  facet normal  0.000000e+000  1.000000e+000  0.000000e+000
    outer loop
      vertex -1.764251e-001  6.500001e-002  7.500000e-002
      vertex -1.125833e-001  6.500001e-002  7.500000e-002
      vertex -1.764251e-001  6.500001e-002 -7.500000e-002
    endloop
  endfacet
  facet normal  0.000000e+000  1.000000e+000  0.000000e+000
    outer loop
      vertex -1.764251e-001  6.500001e-002 -7.500000e-002
      vertex -1.125833e-001  6.500001e-002  7.500000e-002
      vertex -1.125833e-001  6.500001e-002 -7.500000e-002
    endloop
  endfacet
  facet normal  0.000000e+000  5.000000e-001 -8.660254e-001
    outer loop
      vertex  1.658846e-001  1.400000e-001  1.183013e-001
      vertex  1.764251e-001  6.500001e-002  7.500000e-002
      vertex  1.558846e-001  1.400000e-001  1.183013e-001
    endloop
  endfacet
  facet normal  0.000000e+000  5.000000e-001 -8.660254e-001
    outer loop
      vertex  1.558846e-001  1.400000e-001  1.183013e-001
      vertex  1.764251e-001  6.500001e-002  7.500000e-002
      vertex  1.125833e-001  6.500001e-002  7.500000e-002
    endloop
  endfacet
  facet normal  0.000000e+000  1.000000e+000  0.000000e+000
    outer loop
      vertex  1.125833e-001  6.500001e-002  7.500000e-002
      vertex  1.764251e-001  6.500001e-002  7.500000e-002
      vertex  1.125833e-001  6.500001e-002 -7.500000e-002
    endloop
  endfacet
  facet normal  0.000000e+000  1.000000e+000  0.000000e+000
    outer loop
      vertex  1.125833e-001  6.500001e-002 -7.500000e-002
      vertex  1.764251e-001  6.500001e-002  7.500000e-002
      vertex  1.764251e-001  6.500001e-002 -7.500000e-002
    endloop
  endfacet
  facet normal  0.000000e+000  5.000000e-001  8.660254e-001
    outer loop
      vertex  1.125833e-001  6.500001e-002 -7.500000e-002
      vertex  1.764251e-001  6.500001e-002 -7.500000e-002
      vertex  1.558846e-001  1.400000e-001 -1.183013e-001
    endloop
  endfacet
  facet normal  -0.000000e+000  5.000000e-001  8.660254e-001
    outer loop
      vertex  1.558846e-001  1.400000e-001 -1.183013e-001
      vertex  1.764251e-001  6.500001e-002 -7.500000e-002
      vertex  1.658846e-001  1.400000e-001 -1.183013e-001
    endloop
  endfacet
  facet normal  0.000000e+000  1.000000e+000  -0.000000e+000
    outer loop
      vertex  1.658846e-001  1.400000e-001 -1.183013e-001
      vertex  1.658846e-001  1.400000e-001 -2.383013e-001
      vertex  1.558846e-001  1.400000e-001 -1.183013e-001
    endloop
  endfacet
  facet normal  0.000000e+000  1.000000e+000  0.000000e+000
    outer loop
      vertex  1.558846e-001  1.400000e-001 -1.183013e-001
      vertex  1.658846e-001  1.400000e-001 -2.383013e-001
      vertex  1.558846e-001  1.400000e-001 -2.383013e-001
    endloop
  endfacet
  facet normal  0.000000e+000  1.000000e+000  -0.000000e+000
    outer loop
      vertex  1.658846e-001  1.400000e-001  2.383013e-001
      vertex  1.658846e-001  1.400000e-001  1.183013e-001
      vertex  1.558846e-001  1.400000e-001  2.383013e-001
    endloop
  endfacet
  facet normal  0.000000e+000  1.000000e+000  0.000000e+000
    outer loop
      vertex  1.558846e-001  1.400000e-001  2.383013e-001
      vertex  1.658846e-001  1.400000e-001  1.183013e-001
      vertex  1.558846e-001  1.400000e-001  1.183013e-001
    endloop
  endfacet
  facet normal -8.660254e-001  4.999999e-001  0.000000e+000
    outer loop
      vertex  1.558846e-001  1.400000e-001  2.383013e-001
      vertex  1.558846e-001  1.400000e-001  1.183013e-001
      vertex  9.526280e-002  3.500000e-002  2.989230e-001
    endloop
  endfacet
  facet normal -8.660254e-001  5.000000e-001 -2.337135e-008
    outer loop
      vertex  9.526280e-002  3.500000e-002  2.989230e-001
      vertex  1.558846e-001  1.400000e-001  1.183013e-001
      vertex  1.125833e-001  6.500001e-002  7.500000e-002
    endloop
  endfacet
  facet normal -8.660254e-001  5.000001e-001  0.000000e+000
    outer loop
      vertex  9.526280e-002  3.500000e-002  2.989230e-001
      vertex  1.125833e-001  6.500001e-002  7.500000e-002
      vertex  9.526280e-002  3.500000e-002 -2.989230e-001
    endloop
  endfacet
  facet normal -8.660254e-001  5.000001e-001  0.000000e+000
    outer loop
      vertex  9.526280e-002  3.500000e-002 -2.989230e-001
      vertex  1.125833e-001  6.500001e-002  7.500000e-002
      vertex  1.125833e-001  6.500001e-002 -7.500000e-002
    endloop
  endfacet
  facet normal -8.660254e-001  5.000000e-001  1.949287e-008
    outer loop
      vertex  9.526280e-002  3.500000e-002 -2.989230e-001
      vertex  1.125833e-001  6.500001e-002 -7.500000e-002
      vertex  1.558846e-001  1.400000e-001 -2.383013e-001
    endloop
  endfacet
  facet normal -8.660254e-001  4.999999e-001  0.000000e+000
    outer loop
      vertex  1.558846e-001  1.400000e-001 -2.383013e-001
      vertex  1.125833e-001  6.500001e-002 -7.500000e-002
      vertex  1.558846e-001  1.400000e-001 -1.183013e-001
    endloop
  endfacet
  facet normal  8.660254e-001  4.999999e-001  0.000000e+000
    outer loop
      vertex -1.558846e-001  1.400000e-001  1.183013e-001
      vertex -1.558846e-001  1.400000e-001  2.383013e-001
      vertex -1.125833e-001  6.500001e-002  7.500000e-002
    endloop
  endfacet
  facet normal  8.660254e-001  5.000000e-001 -1.949287e-008
    outer loop
      vertex -1.125833e-001  6.500001e-002  7.500000e-002
      vertex -1.558846e-001  1.400000e-001  2.383013e-001
      vertex -9.526280e-002  3.500000e-002  2.989230e-001
    endloop
  endfacet
  facet normal  8.660254e-001  5.000001e-001  0.000000e+000
    outer loop
      vertex -1.125833e-001  6.500001e-002  7.500000e-002
      vertex -9.526280e-002  3.500000e-002  2.989230e-001
      vertex -1.125833e-001  6.500001e-002 -7.500000e-002
    endloop
  endfacet
  facet normal  8.660254e-001  5.000001e-001  0.000000e+000
    outer loop
      vertex -1.125833e-001  6.500001e-002 -7.500000e-002
      vertex -9.526280e-002  3.500000e-002  2.989230e-001
      vertex -9.526280e-002  3.500000e-002 -2.989230e-001
    endloop
  endfacet
  facet normal  8.660254e-001  5.000000e-001  2.337135e-008
    outer loop
      vertex -1.125833e-001  6.500001e-002 -7.500000e-002
      vertex -9.526280e-002  3.500000e-002 -2.989230e-001
      vertex -1.558846e-001  1.400000e-001 -1.183013e-001
    endloop
  endfacet
  facet normal  8.660254e-001  4.999999e-001  0.000000e+000
    outer loop
      vertex -1.558846e-001  1.400000e-001 -1.183013e-001
      vertex -9.526280e-002  3.500000e-002 -2.989230e-001
      vertex -1.558846e-001  1.400000e-001 -2.383013e-001
    endloop
  endfacet
  facet normal  0.000000e+000  1.000000e+000  0.000000e+000
    outer loop
      vertex -9.526280e-002  3.500000e-002  2.989230e-001
      vertex  9.526280e-002  3.500000e-002  2.989230e-001
      vertex -9.526280e-002  3.500000e-002 -2.989230e-001
    endloop
  endfacet
  facet normal  0.000000e+000  1.000000e+000  0.000000e+000
    outer loop
      vertex -9.526280e-002  3.500000e-002 -2.989230e-001
      vertex  9.526280e-002  3.500000e-002  2.989230e-001
      vertex  9.526280e-002  3.500000e-002 -2.989230e-001
    endloop
  endfacet
endsolid CATIA STL
