solid CATIA STL
  facet normal  1.503836e-001  8.682404e-002 -9.848077e-001
    outer loop
      vertex  3.411474e-002  5.908847e-002 -3.395811e-001
      vertex  6.822949e-002  7.105428e-018 -3.395811e-001
      vertex -8.526513e-017 -1.618944e-016 -3.500000e-001
    endloop
  endfacet
  facet normal  4.330128e-001  2.500000e-001 -8.660253e-001
    outer loop
      vertex  6.822949e-002  7.105428e-018 -3.395811e-001
      vertex  3.411474e-002  5.908847e-002 -3.395811e-001
      vertex  1.482295e-001  5.684342e-017 -2.995811e-001
    endloop
  endfacet
  facet normal  4.330128e-001  2.500000e-001 -8.660254e-001
    outer loop
      vertex  1.482295e-001  5.684342e-017 -2.995811e-001
      vertex  3.411474e-002  5.908847e-002 -3.395811e-001
      vertex  7.411474e-002  1.283705e-001 -2.995811e-001
    endloop
  endfacet
  facet normal  7.848855e-001  4.531538e-001 -4.226184e-001
    outer loop
      vertex  1.482295e-001  5.684342e-017 -2.995811e-001
      vertex  7.411474e-002  1.283705e-001 -2.995811e-001
      vertex  1.962441e-001  1.563194e-016 -2.104085e-001
    endloop
  endfacet
  facet normal  7.848856e-001  4.531539e-001 -4.226183e-001
    outer loop
      vertex  1.962441e-001  1.563194e-016 -2.104085e-001
      vertex  7.411474e-002  1.283705e-001 -2.995811e-001
      vertex  9.812207e-002  1.699524e-001 -2.104085e-001
    endloop
  endfacet
  facet normal  8.528686e-001  4.924039e-001 -1.736482e-001
    outer loop
      vertex  1.962441e-001  1.563194e-016 -2.104085e-001
      vertex  9.812207e-002  1.699524e-001 -2.104085e-001
      vertex  2.309401e-001 -2.842171e-017 -4.000000e-002
    endloop
  endfacet
  facet normal  8.528685e-001  4.924039e-001 -1.736482e-001
    outer loop
      vertex  2.309401e-001 -2.842171e-017 -4.000000e-002
      vertex  9.812207e-002  1.699524e-001 -2.104085e-001
      vertex  1.154701e-001  2.000000e-001 -4.000000e-002
    endloop
  endfacet
  facet normal  0.000000e+000  9.848078e-001 -1.736482e-001
    outer loop
      vertex  9.812207e-002  1.699524e-001 -2.104085e-001
      vertex -9.812207e-002  1.699524e-001 -2.104085e-001
      vertex  1.154701e-001  2.000000e-001 -4.000000e-002
    endloop
  endfacet
  facet normal  0.000000e+000  9.848077e-001 -1.736482e-001
    outer loop
      vertex  1.154701e-001  2.000000e-001 -4.000000e-002
      vertex -9.812207e-002  1.699524e-001 -2.104085e-001
      vertex -1.154701e-001  2.000000e-001 -4.000000e-002
    endloop
  endfacet
  facet normal  0.000000e+000  9.063078e-001 -4.226183e-001
    outer loop
      vertex  7.411474e-002  1.283705e-001 -2.995811e-001
      vertex -7.411474e-002  1.283705e-001 -2.995811e-001
      vertex  9.812207e-002  1.699524e-001 -2.104085e-001
    endloop
  endfacet
  facet normal  0.000000e+000  9.063078e-001 -4.226182e-001
    outer loop
      vertex  9.812207e-002  1.699524e-001 -2.104085e-001
      vertex -7.411474e-002  1.283705e-001 -2.995811e-001
      vertex -9.812207e-002  1.699524e-001 -2.104085e-001
    endloop
  endfacet
  facet normal  0.000000e+000  1.736481e-001 -9.848077e-001
    outer loop
      vertex -8.526513e-017 -1.618944e-016 -3.500000e-001
      vertex -3.411474e-002  5.908847e-002 -3.395811e-001
      vertex  3.411474e-002  5.908847e-002 -3.395811e-001
    endloop
  endfacet
  facet normal  0.000000e+000  5.000001e-001 -8.660254e-001
    outer loop
      vertex  3.411474e-002  5.908847e-002 -3.395811e-001
      vertex -3.411474e-002  5.908847e-002 -3.395811e-001
      vertex  7.411474e-002  1.283705e-001 -2.995811e-001
    endloop
  endfacet
  facet normal  0.000000e+000  5.000001e-001 -8.660254e-001
    outer loop
      vertex  7.411474e-002  1.283705e-001 -2.995811e-001
      vertex -3.411474e-002  5.908847e-002 -3.395811e-001
      vertex -7.411474e-002  1.283705e-001 -2.995811e-001
    endloop
  endfacet
  facet normal  8.660254e-001  4.999999e-001  0.000000e+000
    outer loop
      vertex  1.154701e-001  2.000000e-001 -4.000000e-002
      vertex  1.154701e-001  2.000000e-001  0.000000e+000
      vertex  1.499038e-001  1.403590e-001  0.000000e+000
    endloop
  endfacet
  facet normal  8.660253e-001  5.000000e-001  1.964544e-007
    outer loop
      vertex  1.154701e-001  2.000000e-001 -4.000000e-002
      vertex  1.499038e-001  1.403590e-001  0.000000e+000
      vertex  1.965064e-001  5.964102e-002 -7.105428e-018
    endloop
  endfacet
  facet normal  8.660254e-001  5.000001e-001  1.772539e-007
    outer loop
      vertex  1.154701e-001  2.000000e-001 -4.000000e-002
      vertex  1.965064e-001  5.964102e-002 -7.105428e-018
      vertex  2.309401e-001 -8.526513e-017  0.000000e+000
    endloop
  endfacet
  facet normal  8.660254e-001  5.000000e-001  7.105427e-016
    outer loop
      vertex  1.154701e-001  2.000000e-001 -4.000000e-002
      vertex  2.309401e-001 -8.526513e-017  0.000000e+000
      vertex  2.309401e-001 -2.842171e-017 -4.000000e-002
    endloop
  endfacet
  facet normal  8.660254e-001  5.000000e-001 -1.720751e-007
    outer loop
      vertex  1.820726e-001  8.464102e-002  5.000000e-002
      vertex  1.965064e-001  5.964102e-002 -7.105428e-018
      vertex  1.643376e-001  1.153590e-001  5.000000e-002
    endloop
  endfacet
  facet normal  8.660254e-001  5.000001e-001 -1.440666e-007
    outer loop
      vertex  1.643376e-001  1.153590e-001  5.000000e-002
      vertex  1.965064e-001  5.964102e-002 -7.105428e-018
      vertex  1.499038e-001  1.403590e-001  0.000000e+000
    endloop
  endfacet
  facet normal  8.528686e-001 -4.924039e-001 -1.736482e-001
    outer loop
      vertex  9.812207e-002 -1.699524e-001 -2.104085e-001
      vertex  1.962441e-001  1.563194e-016 -2.104085e-001
      vertex  1.154701e-001 -2.000000e-001 -4.000000e-002
    endloop
  endfacet
  facet normal  8.528685e-001 -4.924039e-001 -1.736482e-001
    outer loop
      vertex  1.154701e-001 -2.000000e-001 -4.000000e-002
      vertex  1.962441e-001  1.563194e-016 -2.104085e-001
      vertex  2.309401e-001 -2.842171e-017 -4.000000e-002
    endloop
  endfacet
  facet normal  7.848855e-001 -4.531538e-001 -4.226183e-001
    outer loop
      vertex  7.411474e-002 -1.283705e-001 -2.995811e-001
      vertex  1.482295e-001  5.684342e-017 -2.995811e-001
      vertex  9.812207e-002 -1.699524e-001 -2.104085e-001
    endloop
  endfacet
  facet normal  7.848855e-001 -4.531539e-001 -4.226183e-001
    outer loop
      vertex  9.812207e-002 -1.699524e-001 -2.104085e-001
      vertex  1.482295e-001  5.684342e-017 -2.995811e-001
      vertex  1.962441e-001  1.563194e-016 -2.104085e-001
    endloop
  endfacet
  facet normal  4.330127e-001 -2.500000e-001 -8.660254e-001
    outer loop
      vertex  3.411474e-002 -5.908847e-002 -3.395811e-001
      vertex  6.822949e-002  7.105428e-018 -3.395811e-001
      vertex  7.411474e-002 -1.283705e-001 -2.995811e-001
    endloop
  endfacet
  facet normal  4.330128e-001 -2.500000e-001 -8.660254e-001
    outer loop
      vertex  7.411474e-002 -1.283705e-001 -2.995811e-001
      vertex  6.822949e-002  7.105428e-018 -3.395811e-001
      vertex  1.482295e-001  5.684342e-017 -2.995811e-001
    endloop
  endfacet
  facet normal  1.503836e-001 -8.682404e-002 -9.848077e-001
    outer loop
      vertex  6.822949e-002  7.105428e-018 -3.395811e-001
      vertex  3.411474e-002 -5.908847e-002 -3.395811e-001
      vertex -8.526513e-017 -1.618944e-016 -3.500000e-001
    endloop
  endfacet
  facet normal  8.660254e-001 -5.000001e-001 -7.105429e-016
    outer loop
      vertex  2.309401e-001 -2.842171e-017 -4.000000e-002
      vertex  2.309401e-001 -8.526513e-017  0.000000e+000
      vertex  1.965064e-001 -5.964102e-002 -7.105428e-018
    endloop
  endfacet
  facet normal  8.660253e-001 -5.000000e-001  0.000000e+000
    outer loop
      vertex  2.309401e-001 -2.842171e-017 -4.000000e-002
      vertex  1.965064e-001 -5.964102e-002 -7.105428e-018
      vertex  1.499038e-001 -1.403590e-001 -6.785684e-016
    endloop
  endfacet
  facet normal  8.660254e-001 -4.999999e-001  5.317615e-007
    outer loop
      vertex  2.309401e-001 -2.842171e-017 -4.000000e-002
      vertex  1.499038e-001 -1.403590e-001 -6.785684e-016
      vertex  1.154701e-001 -2.000000e-001  0.000000e+000
    endloop
  endfacet
  facet normal  8.660254e-001 -5.000000e-001  0.000000e+000
    outer loop
      vertex  2.309401e-001 -2.842171e-017 -4.000000e-002
      vertex  1.154701e-001 -2.000000e-001  0.000000e+000
      vertex  1.154701e-001 -2.000000e-001 -4.000000e-002
    endloop
  endfacet
  facet normal  8.660253e-001 -5.000001e-001 -1.376601e-007
    outer loop
      vertex  1.643376e-001 -1.153590e-001  5.000000e-002
      vertex  1.499038e-001 -1.403590e-001 -6.785684e-016
      vertex  1.820726e-001 -8.464102e-002  5.000000e-002
    endloop
  endfacet
  facet normal  8.660254e-001 -5.000001e-001 -1.571635e-007
    outer loop
      vertex  1.820726e-001 -8.464102e-002  5.000000e-002
      vertex  1.499038e-001 -1.403590e-001 -6.785684e-016
      vertex  1.965064e-001 -5.964102e-002 -7.105428e-018
    endloop
  endfacet
  facet normal  0.000000e+000 -1.736481e-001 -9.848077e-001
    outer loop
      vertex  3.411474e-002 -5.908847e-002 -3.395811e-001
      vertex -3.411474e-002 -5.908847e-002 -3.395811e-001
      vertex -8.526513e-017 -1.618944e-016 -3.500000e-001
    endloop
  endfacet
  facet normal -1.503836e-001 -8.682404e-002 -9.848077e-001
    outer loop
      vertex -3.411474e-002 -5.908847e-002 -3.395811e-001
      vertex -6.822949e-002 -7.460699e-017 -3.395811e-001
      vertex -8.526513e-017 -1.618944e-016 -3.500000e-001
    endloop
  endfacet
  facet normal -1.503836e-001  8.682404e-002 -9.848077e-001
    outer loop
      vertex -6.822949e-002 -7.460699e-017 -3.395811e-001
      vertex -3.411474e-002  5.908847e-002 -3.395811e-001
      vertex -8.526513e-017 -1.618944e-016 -3.500000e-001
    endloop
  endfacet
  facet normal  -0.000000e+000  1.000000e+000  0.000000e+000
    outer loop
      vertex -1.154701e-001  2.000000e-001 -4.000000e-002
      vertex -1.154701e-001  2.000000e-001  0.000000e+000
      vertex -4.660254e-002  2.000000e-001  0.000000e+000
    endloop
  endfacet
  facet normal  -0.000000e+000  1.000000e+000  0.000000e+000
    outer loop
      vertex -1.154701e-001  2.000000e-001 -4.000000e-002
      vertex -4.660254e-002  2.000000e-001  0.000000e+000
      vertex  4.660254e-002  2.000000e-001  0.000000e+000
    endloop
  endfacet
  facet normal  -0.000000e+000  1.000000e+000  0.000000e+000
    outer loop
      vertex -1.154701e-001  2.000000e-001 -4.000000e-002
      vertex  4.660254e-002  2.000000e-001  0.000000e+000
      vertex  1.154701e-001  2.000000e-001  0.000000e+000
    endloop
  endfacet
  facet normal  0.000000e+000  1.000000e+000  0.000000e+000
    outer loop
      vertex -1.154701e-001  2.000000e-001 -4.000000e-002
      vertex  1.154701e-001  2.000000e-001  0.000000e+000
      vertex  1.154701e-001  2.000000e-001 -4.000000e-002
    endloop
  endfacet
  facet normal  0.000000e+000  9.999999e-001  0.000000e+000
    outer loop
      vertex  1.773503e-002  2.000000e-001  5.000000e-002
      vertex  4.660254e-002  2.000000e-001  0.000000e+000
      vertex -1.773503e-002  2.000000e-001  5.000000e-002
    endloop
  endfacet
  facet normal  0.000000e+000  1.000000e+000  0.000000e+000
    outer loop
      vertex -1.773503e-002  2.000000e-001  5.000000e-002
      vertex  4.660254e-002  2.000000e-001  0.000000e+000
      vertex -4.660254e-002  2.000000e-001  0.000000e+000
    endloop
  endfacet
  facet normal  -0.000000e+000 -9.848078e-001 -1.736482e-001
    outer loop
      vertex -9.812207e-002 -1.699524e-001 -2.104085e-001
      vertex  9.812207e-002 -1.699524e-001 -2.104085e-001
      vertex -1.154701e-001 -2.000000e-001 -4.000000e-002
    endloop
  endfacet
  facet normal  0.000000e+000 -9.848077e-001 -1.736482e-001
    outer loop
      vertex -1.154701e-001 -2.000000e-001 -4.000000e-002
      vertex  9.812207e-002 -1.699524e-001 -2.104085e-001
      vertex  1.154701e-001 -2.000000e-001 -4.000000e-002
    endloop
  endfacet
  facet normal  -0.000000e+000 -9.063078e-001 -4.226183e-001
    outer loop
      vertex -7.411474e-002 -1.283705e-001 -2.995811e-001
      vertex  7.411474e-002 -1.283705e-001 -2.995811e-001
      vertex -9.812207e-002 -1.699524e-001 -2.104085e-001
    endloop
  endfacet
  facet normal  0.000000e+000 -9.063078e-001 -4.226182e-001
    outer loop
      vertex -9.812207e-002 -1.699524e-001 -2.104085e-001
      vertex  7.411474e-002 -1.283705e-001 -2.995811e-001
      vertex  9.812207e-002 -1.699524e-001 -2.104085e-001
    endloop
  endfacet
  facet normal  -0.000000e+000 -5.000001e-001 -8.660254e-001
    outer loop
      vertex -3.411474e-002 -5.908847e-002 -3.395811e-001
      vertex  3.411474e-002 -5.908847e-002 -3.395811e-001
      vertex -7.411474e-002 -1.283705e-001 -2.995811e-001
    endloop
  endfacet
  facet normal  0.000000e+000 -5.000001e-001 -8.660254e-001
    outer loop
      vertex -7.411474e-002 -1.283705e-001 -2.995811e-001
      vertex  3.411474e-002 -5.908847e-002 -3.395811e-001
      vertex  7.411474e-002 -1.283705e-001 -2.995811e-001
    endloop
  endfacet
  facet normal  -0.000000e+000 -1.000000e+000  -0.000000e+000
    outer loop
      vertex  1.154701e-001 -2.000000e-001 -4.000000e-002
      vertex  1.154701e-001 -2.000000e-001  0.000000e+000
      vertex  4.660254e-002 -2.000000e-001  0.000000e+000
    endloop
  endfacet
  facet normal  -0.000000e+000 -1.000000e+000  -0.000000e+000
    outer loop
      vertex  1.154701e-001 -2.000000e-001 -4.000000e-002
      vertex  4.660254e-002 -2.000000e-001  0.000000e+000
      vertex -4.660254e-002 -2.000000e-001  0.000000e+000
    endloop
  endfacet
  facet normal  -0.000000e+000 -1.000000e+000  -0.000000e+000
    outer loop
      vertex  1.154701e-001 -2.000000e-001 -4.000000e-002
      vertex -4.660254e-002 -2.000000e-001  0.000000e+000
      vertex -1.154701e-001 -2.000000e-001  0.000000e+000
    endloop
  endfacet
  facet normal  0.000000e+000 -1.000000e+000  0.000000e+000
    outer loop
      vertex  1.154701e-001 -2.000000e-001 -4.000000e-002
      vertex -1.154701e-001 -2.000000e-001  0.000000e+000
      vertex -1.154701e-001 -2.000000e-001 -4.000000e-002
    endloop
  endfacet
  facet normal  0.000000e+000 -9.999999e-001  0.000000e+000
    outer loop
      vertex -1.773503e-002 -2.000000e-001  5.000000e-002
      vertex -4.660254e-002 -2.000000e-001  0.000000e+000
      vertex  1.773503e-002 -2.000000e-001  5.000000e-002
    endloop
  endfacet
  facet normal  0.000000e+000 -1.000000e+000  -0.000000e+000
    outer loop
      vertex  1.773503e-002 -2.000000e-001  5.000000e-002
      vertex -4.660254e-002 -2.000000e-001  0.000000e+000
      vertex  4.660254e-002 -2.000000e-001  0.000000e+000
    endloop
  endfacet
  facet normal -8.528686e-001 -4.924039e-001 -1.736482e-001
    outer loop
      vertex -1.962441e-001  5.684342e-017 -2.104085e-001
      vertex -9.812207e-002 -1.699524e-001 -2.104085e-001
      vertex -2.309401e-001 -2.842171e-017 -4.000000e-002
    endloop
  endfacet
  facet normal -8.528685e-001 -4.924039e-001 -1.736482e-001
    outer loop
      vertex -2.309401e-001 -2.842171e-017 -4.000000e-002
      vertex -9.812207e-002 -1.699524e-001 -2.104085e-001
      vertex -1.154701e-001 -2.000000e-001 -4.000000e-002
    endloop
  endfacet
  facet normal -7.848855e-001 -4.531538e-001 -4.226184e-001
    outer loop
      vertex -1.482295e-001 -7.105428e-017 -2.995811e-001
      vertex -7.411474e-002 -1.283705e-001 -2.995811e-001
      vertex -1.962441e-001  5.684342e-017 -2.104085e-001
    endloop
  endfacet
  facet normal -7.848856e-001 -4.531539e-001 -4.226183e-001
    outer loop
      vertex -1.962441e-001  5.684342e-017 -2.104085e-001
      vertex -7.411474e-002 -1.283705e-001 -2.995811e-001
      vertex -9.812207e-002 -1.699524e-001 -2.104085e-001
    endloop
  endfacet
  facet normal -4.330128e-001 -2.500000e-001 -8.660253e-001
    outer loop
      vertex -6.822949e-002 -7.460699e-017 -3.395811e-001
      vertex -3.411474e-002 -5.908847e-002 -3.395811e-001
      vertex -1.482295e-001 -7.105428e-017 -2.995811e-001
    endloop
  endfacet
  facet normal -4.330128e-001 -2.500000e-001 -8.660254e-001
    outer loop
      vertex -1.482295e-001 -7.105428e-017 -2.995811e-001
      vertex -3.411474e-002 -5.908847e-002 -3.395811e-001
      vertex -7.411474e-002 -1.283705e-001 -2.995811e-001
    endloop
  endfacet
  facet normal -8.660254e-001 -4.999999e-001  -0.000000e+000
    outer loop
      vertex -1.154701e-001 -2.000000e-001 -4.000000e-002
      vertex -1.154701e-001 -2.000000e-001  0.000000e+000
      vertex -1.499038e-001 -1.403590e-001 -7.105428e-018
    endloop
  endfacet
  facet normal -8.660253e-001 -5.000000e-001  1.964544e-007
    outer loop
      vertex -1.154701e-001 -2.000000e-001 -4.000000e-002
      vertex -1.499038e-001 -1.403590e-001 -7.105428e-018
      vertex -1.965064e-001 -5.964102e-002  0.000000e+000
    endloop
  endfacet
  facet normal -8.660254e-001 -5.000001e-001  1.772539e-007
    outer loop
      vertex -1.154701e-001 -2.000000e-001 -4.000000e-002
      vertex -1.965064e-001 -5.964102e-002  0.000000e+000
      vertex -2.309401e-001  1.421086e-017  0.000000e+000
    endloop
  endfacet
  facet normal -8.660254e-001 -5.000000e-001  5.329070e-016
    outer loop
      vertex -1.154701e-001 -2.000000e-001 -4.000000e-002
      vertex -2.309401e-001  1.421086e-017  0.000000e+000
      vertex -2.309401e-001 -2.842171e-017 -4.000000e-002
    endloop
  endfacet
  facet normal -8.660254e-001 -5.000000e-001 -1.720751e-007
    outer loop
      vertex -1.820726e-001 -8.464102e-002  5.000000e-002
      vertex -1.965064e-001 -5.964102e-002  0.000000e+000
      vertex -1.643376e-001 -1.153590e-001  5.000000e-002
    endloop
  endfacet
  facet normal -8.660254e-001 -5.000001e-001 -1.440666e-007
    outer loop
      vertex -1.643376e-001 -1.153590e-001  5.000000e-002
      vertex -1.965064e-001 -5.964102e-002  0.000000e+000
      vertex -1.499038e-001 -1.403590e-001 -7.105428e-018
    endloop
  endfacet
  facet normal -8.528686e-001  4.924039e-001 -1.736482e-001
    outer loop
      vertex -9.812207e-002  1.699524e-001 -2.104085e-001
      vertex -1.962441e-001  5.684342e-017 -2.104085e-001
      vertex -1.154701e-001  2.000000e-001 -4.000000e-002
    endloop
  endfacet
  facet normal -8.528685e-001  4.924039e-001 -1.736482e-001
    outer loop
      vertex -1.154701e-001  2.000000e-001 -4.000000e-002
      vertex -1.962441e-001  5.684342e-017 -2.104085e-001
      vertex -2.309401e-001 -2.842171e-017 -4.000000e-002
    endloop
  endfacet
  facet normal -7.848855e-001  4.531538e-001 -4.226183e-001
    outer loop
      vertex -7.411474e-002  1.283705e-001 -2.995811e-001
      vertex -1.482295e-001 -7.105428e-017 -2.995811e-001
      vertex -9.812207e-002  1.699524e-001 -2.104085e-001
    endloop
  endfacet
  facet normal -7.848855e-001  4.531539e-001 -4.226183e-001
    outer loop
      vertex -9.812207e-002  1.699524e-001 -2.104085e-001
      vertex -1.482295e-001 -7.105428e-017 -2.995811e-001
      vertex -1.962441e-001  5.684342e-017 -2.104085e-001
    endloop
  endfacet
  facet normal -4.330127e-001  2.500000e-001 -8.660254e-001
    outer loop
      vertex -3.411474e-002  5.908847e-002 -3.395811e-001
      vertex -6.822949e-002 -7.460699e-017 -3.395811e-001
      vertex -7.411474e-002  1.283705e-001 -2.995811e-001
    endloop
  endfacet
  facet normal -4.330128e-001  2.500000e-001 -8.660254e-001
    outer loop
      vertex -7.411474e-002  1.283705e-001 -2.995811e-001
      vertex -6.822949e-002 -7.460699e-017 -3.395811e-001
      vertex -1.482295e-001 -7.105428e-017 -2.995811e-001
    endloop
  endfacet
  facet normal -8.660254e-001  5.000001e-001 -5.329072e-016
    outer loop
      vertex -2.309401e-001 -2.842171e-017 -4.000000e-002
      vertex -2.309401e-001  1.421086e-017  0.000000e+000
      vertex -1.965064e-001  5.964102e-002  0.000000e+000
    endloop
  endfacet
  facet normal -8.660253e-001  5.000000e-001  0.000000e+000
    outer loop
      vertex -2.309401e-001 -2.842171e-017 -4.000000e-002
      vertex -1.965064e-001  5.964102e-002  0.000000e+000
      vertex -1.499038e-001  1.403590e-001 -7.105428e-018
    endloop
  endfacet
  facet normal -8.660254e-001  4.999999e-001  5.317615e-007
    outer loop
      vertex -2.309401e-001 -2.842171e-017 -4.000000e-002
      vertex -1.499038e-001  1.403590e-001 -7.105428e-018
      vertex -1.154701e-001  2.000000e-001  0.000000e+000
    endloop
  endfacet
  facet normal -8.660254e-001  5.000000e-001  0.000000e+000
    outer loop
      vertex -2.309401e-001 -2.842171e-017 -4.000000e-002
      vertex -1.154701e-001  2.000000e-001  0.000000e+000
      vertex -1.154701e-001  2.000000e-001 -4.000000e-002
    endloop
  endfacet
  facet normal -8.660253e-001  5.000001e-001 -1.376601e-007
    outer loop
      vertex -1.643376e-001  1.153590e-001  5.000000e-002
      vertex -1.499038e-001  1.403590e-001 -7.105428e-018
      vertex -1.820726e-001  8.464102e-002  5.000000e-002
    endloop
  endfacet
  facet normal -8.660254e-001  5.000001e-001 -1.571635e-007
    outer loop
      vertex -1.820726e-001  8.464102e-002  5.000000e-002
      vertex -1.499038e-001  1.403590e-001 -7.105428e-018
      vertex -1.965064e-001  5.964102e-002  0.000000e+000
    endloop
  endfacet
  facet normal  0.000000e+000  0.000000e+000  1.000000e+000
    outer loop
      vertex -1.773503e-002 -2.000000e-001  5.000000e-002
      vertex  1.773503e-002 -2.000000e-001  5.000000e-002
      vertex -1.773503e-002 -3.071797e-002  5.000000e-002
    endloop
  endfacet
  facet normal  -0.000000e+000  0.000000e+000  1.000000e+000
    outer loop
      vertex -1.773503e-002 -3.071797e-002  5.000000e-002
      vertex  1.773503e-002 -2.000000e-001  5.000000e-002
      vertex  1.773503e-002 -3.071797e-002  5.000000e-002
    endloop
  endfacet
  facet normal  0.000000e+000  -0.000000e+000  1.000000e+000
    outer loop
      vertex -1.773503e-002 -3.071797e-002  5.000000e-002
      vertex  1.773503e-002 -3.071797e-002  5.000000e-002
      vertex  3.547006e-002 -2.842171e-017  5.000000e-002
    endloop
  endfacet
  facet normal  0.000000e+000  0.000000e+000  1.000000e+000
    outer loop
      vertex  1.820726e-001  8.464102e-002  5.000000e-002
      vertex  1.643376e-001  1.153590e-001  5.000000e-002
      vertex  3.547006e-002 -2.842171e-017  5.000000e-002
    endloop
  endfacet
  facet normal  0.000000e+000  -0.000000e+000  1.000000e+000
    outer loop
      vertex  3.547006e-002 -2.842171e-017  5.000000e-002
      vertex  1.643376e-001  1.153590e-001  5.000000e-002
      vertex  1.773503e-002  3.071797e-002  5.000000e-002
    endloop
  endfacet
  facet normal  0.000000e+000  0.000000e+000  1.000000e+000
    outer loop
      vertex  3.547006e-002 -2.842171e-017  5.000000e-002
      vertex  1.773503e-002  3.071797e-002  5.000000e-002
      vertex -3.547006e-002  1.723066e-016  5.000000e-002
    endloop
  endfacet
  facet normal  0.000000e+000  0.000000e+000  1.000000e+000
    outer loop
      vertex -3.547006e-002  1.723066e-016  5.000000e-002
      vertex  1.773503e-002  3.071797e-002  5.000000e-002
      vertex -1.773503e-002  3.071797e-002  5.000000e-002
    endloop
  endfacet
  facet normal  0.000000e+000  0.000000e+000  1.000000e+000
    outer loop
      vertex -3.547006e-002  1.723066e-016  5.000000e-002
      vertex -1.773503e-002  3.071797e-002  5.000000e-002
      vertex -1.820726e-001  8.464102e-002  5.000000e-002
    endloop
  endfacet
  facet normal  -0.000000e+000  0.000000e+000  1.000000e+000
    outer loop
      vertex -1.820726e-001  8.464102e-002  5.000000e-002
      vertex -1.773503e-002  3.071797e-002  5.000000e-002
      vertex -1.643376e-001  1.153590e-001  5.000000e-002
    endloop
  endfacet
  facet normal  0.000000e+000  0.000000e+000  1.000000e+000
    outer loop
      vertex -1.773503e-002  3.071797e-002  5.000000e-002
      vertex  1.773503e-002  3.071797e-002  5.000000e-002
      vertex -1.773503e-002  2.000000e-001  5.000000e-002
    endloop
  endfacet
  facet normal  -0.000000e+000  0.000000e+000  1.000000e+000
    outer loop
      vertex -1.773503e-002  2.000000e-001  5.000000e-002
      vertex  1.773503e-002  3.071797e-002  5.000000e-002
      vertex  1.773503e-002  2.000000e-001  5.000000e-002
    endloop
  endfacet
  facet normal  0.000000e+000  0.000000e+000  1.000000e+000
    outer loop
      vertex  3.547006e-002 -2.842171e-017  5.000000e-002
      vertex -3.547006e-002  1.723066e-016  5.000000e-002
      vertex -1.773503e-002 -3.071797e-002  5.000000e-002
    endloop
  endfacet
  facet normal  0.000000e+000  0.000000e+000  1.000000e+000
    outer loop
      vertex -1.773503e-002 -3.071797e-002  5.000000e-002
      vertex -3.547006e-002  1.723066e-016  5.000000e-002
      vertex -1.820726e-001 -8.464102e-002  5.000000e-002
    endloop
  endfacet
  facet normal  -0.000000e+000  0.000000e+000  1.000000e+000
    outer loop
      vertex -1.773503e-002 -3.071797e-002  5.000000e-002
      vertex -1.820726e-001 -8.464102e-002  5.000000e-002
      vertex -1.643376e-001 -1.153590e-001  5.000000e-002
    endloop
  endfacet
  facet normal  0.000000e+000  0.000000e+000  1.000000e+000
    outer loop
      vertex  1.773503e-002 -3.071797e-002  5.000000e-002
      vertex  1.643376e-001 -1.153590e-001  5.000000e-002
      vertex  3.547006e-002 -2.842171e-017  5.000000e-002
    endloop
  endfacet
  facet normal  0.000000e+000  0.000000e+000  9.999999e-001
    outer loop
      vertex  3.547006e-002 -2.842171e-017  5.000000e-002
      vertex  1.643376e-001 -1.153590e-001  5.000000e-002
      vertex  1.820726e-001 -8.464102e-002  5.000000e-002
    endloop
  endfacet
  facet normal  4.330127e-001  7.500001e-001  4.999999e-001
    outer loop
      vertex  3.547006e-002 -2.842171e-017  5.000000e-002
      vertex  1.820726e-001 -8.464102e-002  5.000000e-002
      vertex  9.320508e-002  2.842171e-017 -7.105428e-018
    endloop
  endfacet
  facet normal  4.330127e-001  7.500001e-001  4.999999e-001
    outer loop
      vertex  9.320508e-002  2.842171e-017 -7.105428e-018
      vertex  1.820726e-001 -8.464102e-002  5.000000e-002
      vertex  1.965064e-001 -5.964102e-002 -7.105428e-018
    endloop
  endfacet
  facet normal -4.330127e-001 -7.500001e-001  4.999999e-001
    outer loop
      vertex  4.660254e-002 -8.071797e-002 -6.754916e-016
      vertex  1.499038e-001 -1.403590e-001 -6.785684e-016
      vertex  1.773503e-002 -3.071797e-002  5.000000e-002
    endloop
  endfacet
  facet normal -4.330128e-001 -7.500001e-001  4.999999e-001
    outer loop
      vertex  1.773503e-002 -3.071797e-002  5.000000e-002
      vertex  1.499038e-001 -1.403590e-001 -6.785684e-016
      vertex  1.643376e-001 -1.153590e-001  5.000000e-002
    endloop
  endfacet
  facet normal  4.330128e-001  7.500001e-001  4.999999e-001
    outer loop
      vertex -1.643376e-001  1.153590e-001  5.000000e-002
      vertex -1.773503e-002  3.071797e-002  5.000000e-002
      vertex -1.499038e-001  1.403590e-001 -7.105428e-018
    endloop
  endfacet
  facet normal  4.330127e-001  7.500001e-001  4.999999e-001
    outer loop
      vertex -1.499038e-001  1.403590e-001 -7.105428e-018
      vertex -1.773503e-002  3.071797e-002  5.000000e-002
      vertex -4.660254e-002  8.071797e-002 -7.105428e-018
    endloop
  endfacet
  facet normal -4.330127e-001 -7.500001e-001  4.999999e-001
    outer loop
      vertex -1.965064e-001  5.964102e-002  0.000000e+000
      vertex -9.320508e-002 -7.105428e-018 -6.785684e-016
      vertex -1.820726e-001  8.464102e-002  5.000000e-002
    endloop
  endfacet
  facet normal -4.330127e-001 -7.500001e-001  4.999999e-001
    outer loop
      vertex -1.820726e-001  8.464102e-002  5.000000e-002
      vertex -9.320508e-002 -7.105428e-018 -6.785684e-016
      vertex -3.547006e-002  1.723066e-016  5.000000e-002
    endloop
  endfacet
  facet normal  4.330127e-001 -7.500001e-001  4.999999e-001
    outer loop
      vertex  1.820726e-001  8.464102e-002  5.000000e-002
      vertex  3.547006e-002 -2.842171e-017  5.000000e-002
      vertex  1.965064e-001  5.964102e-002 -7.105428e-018
    endloop
  endfacet
  facet normal  4.330127e-001 -7.500000e-001  5.000000e-001
    outer loop
      vertex  1.965064e-001  5.964102e-002 -7.105428e-018
      vertex  3.547006e-002 -2.842171e-017  5.000000e-002
      vertex  9.320508e-002  2.842171e-017 -7.105428e-018
    endloop
  endfacet
  facet normal -4.330127e-001  7.500001e-001  4.999999e-001
    outer loop
      vertex  1.499038e-001  1.403590e-001  0.000000e+000
      vertex  4.660254e-002  8.071797e-002 -6.785684e-016
      vertex  1.643376e-001  1.153590e-001  5.000000e-002
    endloop
  endfacet
  facet normal -4.330128e-001  7.500000e-001  5.000000e-001
    outer loop
      vertex  1.643376e-001  1.153590e-001  5.000000e-002
      vertex  4.660254e-002  8.071797e-002 -6.785684e-016
      vertex  1.773503e-002  3.071797e-002  5.000000e-002
    endloop
  endfacet
  facet normal -5.158766e-017 -8.935244e-017  1.000000e+000
    outer loop
      vertex  1.965064e-001 -5.964102e-002 -7.105428e-018
      vertex  2.309401e-001 -8.526513e-017  0.000000e+000
      vertex  9.320508e-002  2.842171e-017 -7.105428e-018
    endloop
  endfacet
  facet normal -5.158766e-017  8.935244e-017  1.000000e+000
    outer loop
      vertex  9.320508e-002  2.842171e-017 -7.105428e-018
      vertex  2.309401e-001 -8.526513e-017  0.000000e+000
      vertex  1.965064e-001  5.964102e-002 -7.105428e-018
    endloop
  endfacet
  facet normal -3.284414e-015 -5.688772e-015  1.000000e+000
    outer loop
      vertex  4.660254e-002  8.071797e-002 -6.785684e-016
      vertex  1.499038e-001  1.403590e-001  0.000000e+000
      vertex  4.660254e-002  2.000000e-001  0.000000e+000
    endloop
  endfacet
  facet normal  -0.000000e+000  0.000000e+000  1.000000e+000
    outer loop
      vertex  4.660254e-002  2.000000e-001  0.000000e+000
      vertex  1.499038e-001  1.403590e-001  0.000000e+000
      vertex  1.154701e-001  2.000000e-001  0.000000e+000
    endloop
  endfacet
  facet normal  0.000000e+000  5.662979e-015  1.000000e+000
    outer loop
      vertex  4.660254e-002 -2.000000e-001  0.000000e+000
      vertex  1.154701e-001 -2.000000e-001  0.000000e+000
      vertex  4.660254e-002 -8.071797e-002 -6.754916e-016
    endloop
  endfacet
  facet normal  4.948960e-015  8.520261e-015  1.000000e+000
    outer loop
      vertex  4.660254e-002 -8.071797e-002 -6.754916e-016
      vertex  1.154701e-001 -2.000000e-001  0.000000e+000
      vertex  1.499038e-001 -1.403590e-001 -6.785684e-016
    endloop
  endfacet
  facet normal  4.330128e-001 -7.500000e-001  5.000000e-001
    outer loop
      vertex -1.773503e-002 -3.071797e-002  5.000000e-002
      vertex -1.643376e-001 -1.153590e-001  5.000000e-002
      vertex -4.660254e-002 -8.071797e-002 -7.105428e-018
    endloop
  endfacet
  facet normal  4.330127e-001 -7.500001e-001  4.999999e-001
    outer loop
      vertex -4.660254e-002 -8.071797e-002 -7.105428e-018
      vertex -1.643376e-001 -1.153590e-001  5.000000e-002
      vertex -1.499038e-001 -1.403590e-001 -7.105428e-018
    endloop
  endfacet
  facet normal -4.330127e-001  7.500000e-001  5.000000e-001
    outer loop
      vertex -9.320508e-002 -7.105428e-018 -6.785684e-016
      vertex -1.965064e-001 -5.964102e-002  0.000000e+000
      vertex -3.547006e-002  1.723066e-016  5.000000e-002
    endloop
  endfacet
  facet normal -4.330127e-001  7.500001e-001  4.999999e-001
    outer loop
      vertex -3.547006e-002  1.723066e-016  5.000000e-002
      vertex -1.965064e-001 -5.964102e-002  0.000000e+000
      vertex -1.820726e-001 -8.464102e-002  5.000000e-002
    endloop
  endfacet
  facet normal -5.158766e-017 -8.935245e-017  1.000000e+000
    outer loop
      vertex -1.499038e-001  1.403590e-001 -7.105428e-018
      vertex -4.660254e-002  8.071797e-002 -7.105428e-018
      vertex -1.154701e-001  2.000000e-001  0.000000e+000
    endloop
  endfacet
  facet normal  0.000000e+000 -5.956829e-017  1.000000e+000
    outer loop
      vertex -1.154701e-001  2.000000e-001  0.000000e+000
      vertex -4.660254e-002  8.071797e-002 -7.105428e-018
      vertex -4.660254e-002  2.000000e-001  0.000000e+000
    endloop
  endfacet
  facet normal -5.158765e-017  8.935244e-017  1.000000e+000
    outer loop
      vertex -1.499038e-001 -1.403590e-001 -7.105428e-018
      vertex -1.154701e-001 -2.000000e-001  0.000000e+000
      vertex -4.660254e-002 -8.071797e-002 -7.105428e-018
    endloop
  endfacet
  facet normal  0.000000e+000  5.956829e-017  1.000000e+000
    outer loop
      vertex -4.660254e-002 -8.071797e-002 -7.105428e-018
      vertex -1.154701e-001 -2.000000e-001  0.000000e+000
      vertex -4.660254e-002 -2.000000e-001  0.000000e+000
    endloop
  endfacet
  facet normal  4.926621e-015 -2.844386e-015  1.000000e+000
    outer loop
      vertex -1.965064e-001  5.964102e-002  0.000000e+000
      vertex -2.309401e-001  1.421086e-017  0.000000e+000
      vertex -9.320508e-002 -7.105428e-018 -6.785684e-016
    endloop
  endfacet
  facet normal  4.926621e-015  2.844386e-015  1.000000e+000
    outer loop
      vertex -9.320508e-002 -7.105428e-018 -6.785684e-016
      vertex -2.309401e-001  1.421086e-017  0.000000e+000
      vertex -1.965064e-001 -5.964102e-002  0.000000e+000
    endloop
  endfacet
  facet normal -8.660254e-001  0.000000e+000  5.000000e-001
    outer loop
      vertex -1.773503e-002  3.071797e-002  5.000000e-002
      vertex -1.773503e-002  2.000000e-001  5.000000e-002
      vertex -4.660254e-002  8.071797e-002 -7.105428e-018
    endloop
  endfacet
  facet normal -8.660254e-001 -2.978415e-017  5.000000e-001
    outer loop
      vertex -4.660254e-002  8.071797e-002 -7.105428e-018
      vertex -1.773503e-002  2.000000e-001  5.000000e-002
      vertex -4.660254e-002  2.000000e-001  0.000000e+000
    endloop
  endfacet
  facet normal  8.660254e-001  2.831489e-015  5.000000e-001
    outer loop
      vertex  4.660254e-002 -2.000000e-001  0.000000e+000
      vertex  4.660254e-002 -8.071797e-002 -6.754916e-016
      vertex  1.773503e-002 -2.000000e-001  5.000000e-002
    endloop
  endfacet
  facet normal  8.660254e-001  -0.000000e+000  5.000000e-001
    outer loop
      vertex  1.773503e-002 -2.000000e-001  5.000000e-002
      vertex  4.660254e-002 -8.071797e-002 -6.754916e-016
      vertex  1.773503e-002 -3.071797e-002  5.000000e-002
    endloop
  endfacet
  facet normal -8.660254e-001  0.000000e+000  5.000000e-001
    outer loop
      vertex -1.773503e-002 -2.000000e-001  5.000000e-002
      vertex -1.773503e-002 -3.071797e-002  5.000000e-002
      vertex -4.660254e-002 -2.000000e-001  0.000000e+000
    endloop
  endfacet
  facet normal -8.660254e-001  2.978415e-017  5.000000e-001
    outer loop
      vertex -4.660254e-002 -2.000000e-001  0.000000e+000
      vertex -1.773503e-002 -3.071797e-002  5.000000e-002
      vertex -4.660254e-002 -8.071797e-002 -7.105428e-018
    endloop
  endfacet
  facet normal  8.660254e-001 -2.844386e-015  5.000000e-001
    outer loop
      vertex  4.660254e-002  8.071797e-002 -6.785684e-016
      vertex  4.660254e-002  2.000000e-001  0.000000e+000
      vertex  1.773503e-002  3.071797e-002  5.000000e-002
    endloop
  endfacet
  facet normal  8.660254e-001  -0.000000e+000  5.000000e-001
    outer loop
      vertex  1.773503e-002  3.071797e-002  5.000000e-002
      vertex  4.660254e-002  2.000000e-001  0.000000e+000
      vertex  1.773503e-002  2.000000e-001  5.000000e-002
    endloop
  endfacet
endsolid CATIA STL
