solid CATIA STL
  facet normal  0.000000e+000  0.000000e+000 -1.000000e+000
    outer loop
      vertex  1.773503e-002 -3.071797e-002 -5.000000e-002
      vertex  1.773503e-002 -1.900000e-001 -5.000000e-002
      vertex -1.773503e-002 -1.900000e-001 -5.000000e-002
    endloop
  endfacet
  facet normal  0.000000e+000  0.000000e+000 -1.000000e+000
    outer loop
      vertex  1.773503e-002 -3.071797e-002 -5.000000e-002
      vertex -1.773503e-002 -1.900000e-001 -5.000000e-002
      vertex -1.773503e-002 -3.071797e-002 -5.000000e-002
    endloop
  endfacet
  facet normal  0.000000e+000  0.000000e+000 -1.000000e+000
    outer loop
      vertex  1.773503e-002 -3.071797e-002 -5.000000e-002
      vertex -1.773503e-002 -3.071797e-002 -5.000000e-002
      vertex -3.547006e-002 -1.065814e-017 -5.000000e-002
    endloop
  endfacet
  facet normal  0.000000e+000  0.000000e+000 -1.000000e+000
    outer loop
      vertex  1.773503e-002 -3.071797e-002 -5.000000e-002
      vertex -3.547006e-002 -1.065814e-017 -5.000000e-002
      vertex  3.547006e-002 -2.664535e-017 -5.000000e-002
    endloop
  endfacet
  facet normal  0.000000e+000  -0.000000e+000 -1.000000e+000
    outer loop
      vertex  1.773503e-002 -3.071797e-002 -5.000000e-002
      vertex  3.547006e-002 -2.664535e-017 -5.000000e-002
      vertex  1.734124e-001 -7.964101e-002 -5.000000e-002
    endloop
  endfacet
  facet normal  -0.000000e+000  0.000000e+000 -1.000000e+000
    outer loop
      vertex  1.773503e-002 -3.071797e-002 -5.000000e-002
      vertex  1.734124e-001 -7.964101e-002 -5.000000e-002
      vertex  1.556773e-001 -1.103590e-001 -5.000000e-002
    endloop
  endfacet
  facet normal  0.000000e+000  0.000000e+000 -1.000000e+000
    outer loop
      vertex -1.734124e-001 -7.964101e-002 -5.000000e-002
      vertex -3.547006e-002 -1.065814e-017 -5.000000e-002
      vertex -1.556773e-001 -1.103590e-001 -5.000000e-002
    endloop
  endfacet
  facet normal  0.000000e+000  0.000000e+000 -9.999999e-001
    outer loop
      vertex -1.556773e-001 -1.103590e-001 -5.000000e-002
      vertex -3.547006e-002 -1.065814e-017 -5.000000e-002
      vertex -1.773503e-002 -3.071797e-002 -5.000000e-002
    endloop
  endfacet
  facet normal  0.000000e+000  -0.000000e+000 -1.000000e+000
    outer loop
      vertex  3.547006e-002 -2.664535e-017 -5.000000e-002
      vertex  1.556773e-001  1.103590e-001 -5.000000e-002
      vertex  1.734124e-001  7.964101e-002 -5.000000e-002
    endloop
  endfacet
  facet normal  0.000000e+000  0.000000e+000 -1.000000e+000
    outer loop
      vertex  1.556773e-001  1.103590e-001 -5.000000e-002
      vertex  3.547006e-002 -2.664535e-017 -5.000000e-002
      vertex  1.773503e-002  3.071797e-002 -5.000000e-002
    endloop
  endfacet
  facet normal  0.000000e+000  -0.000000e+000 -1.000000e+000
    outer loop
      vertex  1.773503e-002  3.071797e-002 -5.000000e-002
      vertex  3.547006e-002 -2.664535e-017 -5.000000e-002
      vertex -3.547006e-002 -1.065814e-017 -5.000000e-002
    endloop
  endfacet
  facet normal  0.000000e+000  0.000000e+000 -1.000000e+000
    outer loop
      vertex  1.773503e-002  3.071797e-002 -5.000000e-002
      vertex -3.547006e-002 -1.065814e-017 -5.000000e-002
      vertex -1.773503e-002  3.071797e-002 -5.000000e-002
    endloop
  endfacet
  facet normal  -0.000000e+000  0.000000e+000 -1.000000e+000
    outer loop
      vertex -1.773503e-002  3.071797e-002 -5.000000e-002
      vertex -3.547006e-002 -1.065814e-017 -5.000000e-002
      vertex -1.734124e-001  7.964101e-002 -5.000000e-002
    endloop
  endfacet
  facet normal  0.000000e+000  0.000000e+000 -1.000000e+000
    outer loop
      vertex -1.773503e-002  3.071797e-002 -5.000000e-002
      vertex -1.734124e-001  7.964101e-002 -5.000000e-002
      vertex -1.556773e-001  1.103590e-001 -5.000000e-002
    endloop
  endfacet
  facet normal  0.000000e+000  0.000000e+000 -1.000000e+000
    outer loop
      vertex -1.773503e-002  3.071797e-002 -5.000000e-002
      vertex -1.773503e-002  1.900000e-001 -5.000000e-002
      vertex  1.773503e-002  3.071797e-002 -5.000000e-002
    endloop
  endfacet
  facet normal  0.000000e+000  0.000000e+000 -1.000000e+000
    outer loop
      vertex  1.773503e-002  3.071797e-002 -5.000000e-002
      vertex -1.773503e-002  1.900000e-001 -5.000000e-002
      vertex  1.773503e-002  1.900000e-001 -5.000000e-002
    endloop
  endfacet
  facet normal  4.330127e-001  7.500000e-001 -4.999999e-001
    outer loop
      vertex  3.547006e-002 -2.664535e-017 -5.000000e-002
      vertex  9.320508e-002 -4.973799e-017 -3.623768e-016
      vertex  1.734124e-001 -7.964101e-002 -5.000000e-002
    endloop
  endfacet
  facet normal  4.330128e-001  7.500001e-001 -5.000000e-001
    outer loop
      vertex  1.734124e-001 -7.964101e-002 -5.000000e-002
      vertex  9.320508e-002 -4.973799e-017 -3.623768e-016
      vertex  1.965064e-001 -5.964102e-002 -3.659295e-016
    endloop
  endfacet
  facet normal -4.330127e-001 -7.500001e-001 -5.000000e-001
    outer loop
      vertex  4.660254e-002 -8.071797e-002 -5.707166e-018
      vertex  1.773503e-002 -3.071797e-002 -5.000000e-002
      vertex  1.499038e-001 -1.403590e-001 -1.835792e-017
    endloop
  endfacet
  facet normal -4.330128e-001 -7.500001e-001 -4.999999e-001
    outer loop
      vertex  1.499038e-001 -1.403590e-001 -1.835792e-017
      vertex  1.773503e-002 -3.071797e-002 -5.000000e-002
      vertex  1.556773e-001 -1.103590e-001 -5.000000e-002
    endloop
  endfacet
  facet normal  8.660254e-001 -5.000000e-001  0.000000e+000
    outer loop
      vertex  2.309401e-001 -1.563194e-016  1.500000e-001
      vertex  1.154701e-001 -2.000000e-001  1.500000e-001
      vertex  1.154701e-001 -2.000000e-001 -1.414100e-017
    endloop
  endfacet
  facet normal  8.660254e-001 -4.999999e-001 -9.453537e-008
    outer loop
      vertex  2.309401e-001 -1.563194e-016  1.500000e-001
      vertex  1.154701e-001 -2.000000e-001 -1.414100e-017
      vertex  1.499038e-001 -1.403590e-001 -1.835792e-017
    endloop
  endfacet
  facet normal  8.660254e-001 -5.000001e-001  3.492523e-008
    outer loop
      vertex  2.309401e-001 -1.563194e-016  1.500000e-001
      vertex  1.499038e-001 -1.403590e-001 -1.835792e-017
      vertex  1.965064e-001 -5.964102e-002 -3.659295e-016
    endloop
  endfacet
  facet normal  8.660254e-001 -5.000001e-001  0.000000e+000
    outer loop
      vertex  2.309401e-001 -1.563194e-016  1.500000e-001
      vertex  1.965064e-001 -5.964102e-002 -3.659295e-016
      vertex  2.309401e-001 -4.263256e-017 -2.828201e-017
    endloop
  endfacet
  facet normal  8.492077e-001 -4.902903e-001 -1.961161e-001
    outer loop
      vertex  1.734124e-001 -7.964101e-002 -5.000000e-002
      vertex  1.965064e-001 -5.964102e-002 -3.659295e-016
      vertex  1.556773e-001 -1.103590e-001 -5.000000e-002
    endloop
  endfacet
  facet normal  8.492078e-001 -4.902903e-001 -1.961161e-001
    outer loop
      vertex  1.556773e-001 -1.103590e-001 -5.000000e-002
      vertex  1.965064e-001 -5.964102e-002 -3.659295e-016
      vertex  1.499038e-001 -1.403590e-001 -1.835792e-017
    endloop
  endfacet
  facet normal  8.660254e-001  0.000000e+000 -5.000000e-001
    outer loop
      vertex  4.660254e-002 -2.000000e-001 -5.707166e-018
      vertex  1.773503e-002 -1.900000e-001 -5.000000e-002
      vertex  4.660254e-002 -8.071797e-002 -5.707166e-018
    endloop
  endfacet
  facet normal  8.660254e-001  0.000000e+000 -5.000000e-001
    outer loop
      vertex  4.660254e-002 -8.071797e-002 -5.707166e-018
      vertex  1.773503e-002 -1.900000e-001 -5.000000e-002
      vertex  1.773503e-002 -3.071797e-002 -5.000000e-002
    endloop
  endfacet
  facet normal  0.000000e+000 -1.000000e+000  0.000000e+000
    outer loop
      vertex -1.154701e-001 -2.000000e-001  1.500000e-001
      vertex -1.154701e-001 -2.000000e-001  1.414100e-017
      vertex -4.660254e-002 -2.000000e-001 -3.659295e-016
    endloop
  endfacet
  facet normal  0.000000e+000 -1.000000e+000  0.000000e+000
    outer loop
      vertex -1.154701e-001 -2.000000e-001  1.500000e-001
      vertex -4.660254e-002 -2.000000e-001 -3.659295e-016
      vertex  4.660254e-002 -2.000000e-001 -5.707166e-018
    endloop
  endfacet
  facet normal  0.000000e+000 -1.000000e+000  0.000000e+000
    outer loop
      vertex -1.154701e-001 -2.000000e-001  1.500000e-001
      vertex  4.660254e-002 -2.000000e-001 -5.707166e-018
      vertex  1.154701e-001 -2.000000e-001 -1.414100e-017
    endloop
  endfacet
  facet normal  0.000000e+000 -1.000000e+000  0.000000e+000
    outer loop
      vertex -1.154701e-001 -2.000000e-001  1.500000e-001
      vertex  1.154701e-001 -2.000000e-001 -1.414100e-017
      vertex  1.154701e-001 -2.000000e-001  1.500000e-001
    endloop
  endfacet
  facet normal -8.660254e-001  0.000000e+000 -4.999999e-001
    outer loop
      vertex -1.773503e-002 -1.900000e-001 -5.000000e-002
      vertex -4.660254e-002 -2.000000e-001 -3.659295e-016
      vertex -1.773503e-002 -3.071797e-002 -5.000000e-002
    endloop
  endfacet
  facet normal -8.660254e-001  0.000000e+000 -5.000000e-001
    outer loop
      vertex -1.773503e-002 -3.071797e-002 -5.000000e-002
      vertex -4.660254e-002 -2.000000e-001 -3.659295e-016
      vertex -4.660254e-002 -8.071797e-002 -3.481660e-016
    endloop
  endfacet
  facet normal -1.224647e-016  -0.000000e+000 -1.000000e+000
    outer loop
      vertex  4.660254e-002 -2.000000e-001 -5.707166e-018
      vertex  4.660254e-002 -8.071797e-002 -5.707166e-018
      vertex  1.154701e-001 -2.000000e-001 -1.414100e-017
    endloop
  endfacet
  facet normal -1.224647e-016 -9.898789e-024 -1.000000e+000
    outer loop
      vertex  1.154701e-001 -2.000000e-001 -1.414100e-017
      vertex  4.660254e-002 -8.071797e-002 -5.707166e-018
      vertex  1.499038e-001 -1.403590e-001 -1.835792e-017
    endloop
  endfacet
  facet normal  -0.000000e+000 -9.805806e-001 -1.961161e-001
    outer loop
      vertex -1.773503e-002 -1.900000e-001 -5.000000e-002
      vertex  1.773503e-002 -1.900000e-001 -5.000000e-002
      vertex -4.660254e-002 -2.000000e-001 -3.659295e-016
    endloop
  endfacet
  facet normal  7.579567e-016 -9.805807e-001 -1.961161e-001
    outer loop
      vertex -4.660254e-002 -2.000000e-001 -3.659295e-016
      vertex  1.773503e-002 -1.900000e-001 -5.000000e-002
      vertex  4.660254e-002 -2.000000e-001 -5.707166e-018
    endloop
  endfacet
  facet normal  4.330128e-001 -7.500001e-001 -5.000000e-001
    outer loop
      vertex -1.773503e-002 -3.071797e-002 -5.000000e-002
      vertex -4.660254e-002 -8.071797e-002 -3.481660e-016
      vertex -1.556773e-001 -1.103590e-001 -5.000000e-002
    endloop
  endfacet
  facet normal  4.330127e-001 -7.500001e-001 -4.999999e-001
    outer loop
      vertex -1.556773e-001 -1.103590e-001 -5.000000e-002
      vertex -4.660254e-002 -8.071797e-002 -3.481660e-016
      vertex -1.499038e-001 -1.403590e-001 -3.659295e-016
    endloop
  endfacet
  facet normal -8.660254e-001 -5.000000e-001 -7.579123e-016
    outer loop
      vertex -1.154701e-001 -2.000000e-001  1.500000e-001
      vertex -2.309401e-001 -2.842171e-016  1.500000e-001
      vertex -2.309401e-001 -5.684342e-017  2.828201e-017
    endloop
  endfacet
  facet normal -8.660254e-001 -5.000001e-001 -9.453538e-008
    outer loop
      vertex -1.154701e-001 -2.000000e-001  1.500000e-001
      vertex -2.309401e-001 -5.684342e-017  2.828201e-017
      vertex -1.965064e-001 -5.964102e-002  2.406509e-017
    endloop
  endfacet
  facet normal -8.660254e-001 -5.000001e-001 -6.985046e-008
    outer loop
      vertex -1.154701e-001 -2.000000e-001  1.500000e-001
      vertex -1.965064e-001 -5.964102e-002  2.406509e-017
      vertex -1.499038e-001 -1.403590e-001 -3.659295e-016
    endloop
  endfacet
  facet normal -8.660254e-001 -4.999999e-001  0.000000e+000
    outer loop
      vertex -1.154701e-001 -2.000000e-001  1.500000e-001
      vertex -1.499038e-001 -1.403590e-001 -3.659295e-016
      vertex -1.154701e-001 -2.000000e-001  1.414100e-017
    endloop
  endfacet
  facet normal -4.330127e-001  7.500000e-001 -5.000000e-001
    outer loop
      vertex -9.320508e-002  7.105428e-018  1.141433e-017
      vertex -3.547006e-002 -1.065814e-017 -5.000000e-002
      vertex -1.965064e-001 -5.964102e-002  2.406509e-017
    endloop
  endfacet
  facet normal -4.330127e-001  7.500001e-001 -5.000000e-001
    outer loop
      vertex -1.965064e-001 -5.964102e-002  2.406509e-017
      vertex -3.547006e-002 -1.065814e-017 -5.000000e-002
      vertex -1.734124e-001 -7.964101e-002 -5.000000e-002
    endloop
  endfacet
  facet normal  2.888402e-015 -4.705017e-015 -1.000000e+000
    outer loop
      vertex -1.499038e-001 -1.403590e-001 -3.659295e-016
      vertex -4.660254e-002 -8.071797e-002 -3.481660e-016
      vertex -1.154701e-001 -2.000000e-001  1.414100e-017
    endloop
  endfacet
  facet normal -5.518865e-015  1.489207e-016 -1.000000e+000
    outer loop
      vertex -1.154701e-001 -2.000000e-001  1.414100e-017
      vertex -4.660254e-002 -8.071797e-002 -3.481660e-016
      vertex -4.660254e-002 -2.000000e-001 -3.659295e-016
    endloop
  endfacet
  facet normal -8.492076e-001 -4.902903e-001 -1.961161e-001
    outer loop
      vertex -1.556773e-001 -1.103590e-001 -5.000000e-002
      vertex -1.499038e-001 -1.403590e-001 -3.659295e-016
      vertex -1.734124e-001 -7.964101e-002 -5.000000e-002
    endloop
  endfacet
  facet normal -8.492078e-001 -4.902903e-001 -1.961161e-001
    outer loop
      vertex -1.734124e-001 -7.964101e-002 -5.000000e-002
      vertex -1.499038e-001 -1.403590e-001 -3.659295e-016
      vertex -1.965064e-001 -5.964102e-002  2.406509e-017
    endloop
  endfacet
  facet normal -4.330128e-001 -7.500001e-001 -5.000000e-001
    outer loop
      vertex -1.965064e-001  5.964102e-002  2.406509e-017
      vertex -1.734124e-001  7.964101e-002 -5.000000e-002
      vertex -9.320508e-002  7.105428e-018  1.141433e-017
    endloop
  endfacet
  facet normal -4.330127e-001 -7.500000e-001 -4.999999e-001
    outer loop
      vertex -9.320508e-002  7.105428e-018  1.141433e-017
      vertex -1.734124e-001  7.964101e-002 -5.000000e-002
      vertex -3.547006e-002 -1.065814e-017 -5.000000e-002
    endloop
  endfacet
  facet normal  4.330128e-001  7.500001e-001 -4.999999e-001
    outer loop
      vertex -1.556773e-001  1.103590e-001 -5.000000e-002
      vertex -1.499038e-001  1.403590e-001 -3.659295e-016
      vertex -1.773503e-002  3.071797e-002 -5.000000e-002
    endloop
  endfacet
  facet normal  4.330127e-001  7.500001e-001 -5.000000e-001
    outer loop
      vertex -1.773503e-002  3.071797e-002 -5.000000e-002
      vertex -1.499038e-001  1.403590e-001 -3.659295e-016
      vertex -4.660254e-002  8.071797e-002 -3.623768e-016
    endloop
  endfacet
  facet normal -8.660254e-001  4.999999e-001  0.000000e+000
    outer loop
      vertex -1.154701e-001  2.000000e-001  1.500000e-001
      vertex -1.154701e-001  2.000000e-001  1.414100e-017
      vertex -1.499038e-001  1.403590e-001 -3.659295e-016
    endloop
  endfacet
  facet normal -8.660254e-001  5.000001e-001 -5.238784e-008
    outer loop
      vertex -1.154701e-001  2.000000e-001  1.500000e-001
      vertex -1.499038e-001  1.403590e-001 -3.659295e-016
      vertex -1.965064e-001  5.964102e-002  2.406509e-017
    endloop
  endfacet
  facet normal -8.660254e-001  5.000001e-001 -4.726769e-008
    outer loop
      vertex -1.154701e-001  2.000000e-001  1.500000e-001
      vertex -1.965064e-001  5.964102e-002  2.406509e-017
      vertex -2.309401e-001 -5.684342e-017  2.828201e-017
    endloop
  endfacet
  facet normal -8.660254e-001  5.000000e-001  7.579123e-016
    outer loop
      vertex -1.154701e-001  2.000000e-001  1.500000e-001
      vertex -2.309401e-001 -5.684342e-017  2.828201e-017
      vertex -2.309401e-001 -2.842171e-016  1.500000e-001
    endloop
  endfacet
  facet normal -1.224647e-016  1.319839e-023 -1.000000e+000
    outer loop
      vertex -1.965064e-001  5.964102e-002  2.406509e-017
      vertex -9.320508e-002  7.105428e-018  1.141433e-017
      vertex -2.309401e-001 -5.684342e-017  2.828201e-017
    endloop
  endfacet
  facet normal -1.224647e-016  6.599193e-024 -1.000000e+000
    outer loop
      vertex -2.309401e-001 -5.684342e-017  2.828201e-017
      vertex -9.320508e-002  7.105428e-018  1.141433e-017
      vertex -1.965064e-001 -5.964102e-002  2.406509e-017
    endloop
  endfacet
  facet normal -8.492076e-001  4.902903e-001 -1.961161e-001
    outer loop
      vertex -1.556773e-001  1.103590e-001 -5.000000e-002
      vertex -1.734124e-001  7.964101e-002 -5.000000e-002
      vertex -1.499038e-001  1.403590e-001 -3.659295e-016
    endloop
  endfacet
  facet normal -8.492078e-001  4.902903e-001 -1.961162e-001
    outer loop
      vertex -1.499038e-001  1.403590e-001 -3.659295e-016
      vertex -1.734124e-001  7.964101e-002 -5.000000e-002
      vertex -1.965064e-001  5.964102e-002  2.406509e-017
    endloop
  endfacet
  facet normal -8.660254e-001  0.000000e+000 -5.000000e-001
    outer loop
      vertex -1.773503e-002  3.071797e-002 -5.000000e-002
      vertex -4.660254e-002  8.071797e-002 -3.623768e-016
      vertex -1.773503e-002  1.900000e-001 -5.000000e-002
    endloop
  endfacet
  facet normal -8.660254e-001  0.000000e+000 -5.000000e-001
    outer loop
      vertex -1.773503e-002  1.900000e-001 -5.000000e-002
      vertex -4.660254e-002  8.071797e-002 -3.623768e-016
      vertex -4.660254e-002  2.000000e-001 -3.659295e-016
    endloop
  endfacet
  facet normal  8.660254e-001  0.000000e+000 -5.000000e-001
    outer loop
      vertex  4.660254e-002  8.071797e-002 -5.707166e-018
      vertex  1.773503e-002  3.071797e-002 -5.000000e-002
      vertex  4.660254e-002  2.000000e-001 -5.707166e-018
    endloop
  endfacet
  facet normal  8.660254e-001  0.000000e+000 -4.999999e-001
    outer loop
      vertex  4.660254e-002  2.000000e-001 -5.707166e-018
      vertex  1.773503e-002  3.071797e-002 -5.000000e-002
      vertex  1.773503e-002  1.900000e-001 -5.000000e-002
    endloop
  endfacet
  facet normal  0.000000e+000  1.000000e+000  0.000000e+000
    outer loop
      vertex -1.154701e-001  2.000000e-001  1.500000e-001
      vertex  1.154701e-001  2.000000e-001  1.500000e-001
      vertex  1.154701e-001  2.000000e-001 -1.414100e-017
    endloop
  endfacet
  facet normal  0.000000e+000  1.000000e+000  0.000000e+000
    outer loop
      vertex -1.154701e-001  2.000000e-001  1.500000e-001
      vertex  1.154701e-001  2.000000e-001 -1.414100e-017
      vertex  4.660254e-002  2.000000e-001 -5.707166e-018
    endloop
  endfacet
  facet normal  0.000000e+000  1.000000e+000  0.000000e+000
    outer loop
      vertex -1.154701e-001  2.000000e-001  1.500000e-001
      vertex  4.660254e-002  2.000000e-001 -5.707166e-018
      vertex -4.660254e-002  2.000000e-001 -3.659295e-016
    endloop
  endfacet
  facet normal  0.000000e+000  1.000000e+000  0.000000e+000
    outer loop
      vertex -1.154701e-001  2.000000e-001  1.500000e-001
      vertex -4.660254e-002  2.000000e-001 -3.659295e-016
      vertex -1.154701e-001  2.000000e-001  1.414100e-017
    endloop
  endfacet
  facet normal  2.785226e-015  4.764585e-015 -1.000000e+000
    outer loop
      vertex -1.499038e-001  1.403590e-001 -3.659295e-016
      vertex -1.154701e-001  2.000000e-001  1.414100e-017
      vertex -4.660254e-002  8.071797e-002 -3.623768e-016
    endloop
  endfacet
  facet normal -5.518865e-015 -2.978415e-017 -1.000000e+000
    outer loop
      vertex -4.660254e-002  8.071797e-002 -3.623768e-016
      vertex -1.154701e-001  2.000000e-001  1.414100e-017
      vertex -4.660254e-002  2.000000e-001 -3.659295e-016
    endloop
  endfacet
  facet normal  0.000000e+000  9.805807e-001 -1.961162e-001
    outer loop
      vertex -1.773503e-002  1.900000e-001 -5.000000e-002
      vertex -4.660254e-002  2.000000e-001 -3.659295e-016
      vertex  1.773503e-002  1.900000e-001 -5.000000e-002
    endloop
  endfacet
  facet normal  0.000000e+000  9.805807e-001 -1.961161e-001
    outer loop
      vertex  1.773503e-002  1.900000e-001 -5.000000e-002
      vertex -4.660254e-002  2.000000e-001 -3.659295e-016
      vertex  4.660254e-002  2.000000e-001 -5.707166e-018
    endloop
  endfacet
  facet normal  4.330127e-001 -7.500001e-001 -5.000000e-001
    outer loop
      vertex  1.734124e-001  7.964101e-002 -5.000000e-002
      vertex  1.965064e-001  5.964102e-002 -3.659295e-016
      vertex  3.547006e-002 -2.664535e-017 -5.000000e-002
    endloop
  endfacet
  facet normal  4.330127e-001 -7.500000e-001 -5.000000e-001
    outer loop
      vertex  3.547006e-002 -2.664535e-017 -5.000000e-002
      vertex  1.965064e-001  5.964102e-002 -3.659295e-016
      vertex  9.320508e-002 -4.973799e-017 -3.623768e-016
    endloop
  endfacet
  facet normal -4.330127e-001  7.500001e-001 -4.999999e-001
    outer loop
      vertex  1.499038e-001  1.403590e-001 -1.835792e-017
      vertex  1.556773e-001  1.103590e-001 -5.000000e-002
      vertex  4.660254e-002  8.071797e-002 -5.707166e-018
    endloop
  endfacet
  facet normal -4.330128e-001  7.500001e-001 -5.000000e-001
    outer loop
      vertex  4.660254e-002  8.071797e-002 -5.707166e-018
      vertex  1.556773e-001  1.103590e-001 -5.000000e-002
      vertex  1.773503e-002  3.071797e-002 -5.000000e-002
    endloop
  endfacet
  facet normal  8.660254e-001  5.000001e-001  3.789562e-016
    outer loop
      vertex  2.309401e-001 -1.563194e-016  1.500000e-001
      vertex  2.309401e-001 -4.263256e-017 -2.828201e-017
      vertex  1.965064e-001  5.964102e-002 -3.659295e-016
    endloop
  endfacet
  facet normal  8.660254e-001  5.000001e-001  0.000000e+000
    outer loop
      vertex  2.309401e-001 -1.563194e-016  1.500000e-001
      vertex  1.965064e-001  5.964102e-002 -3.659295e-016
      vertex  1.499038e-001  1.403590e-001 -1.835792e-017
    endloop
  endfacet
  facet normal  8.660254e-001  4.999999e-001 -1.418031e-007
    outer loop
      vertex  2.309401e-001 -1.563194e-016  1.500000e-001
      vertex  1.499038e-001  1.403590e-001 -1.835792e-017
      vertex  1.154701e-001  2.000000e-001 -1.414100e-017
    endloop
  endfacet
  facet normal  8.660254e-001  5.000000e-001  -0.000000e+000
    outer loop
      vertex  2.309401e-001 -1.563194e-016  1.500000e-001
      vertex  1.154701e-001  2.000000e-001 -1.414100e-017
      vertex  1.154701e-001  2.000000e-001  1.500000e-001
    endloop
  endfacet
  facet normal  2.425634e-015  4.260890e-015 -1.000000e+000
    outer loop
      vertex  1.965064e-001 -5.964102e-002 -3.659295e-016
      vertex  9.320508e-002 -4.973799e-017 -3.623768e-016
      vertex  2.309401e-001 -4.263256e-017 -2.828201e-017
    endloop
  endfacet
  facet normal  2.425634e-015 -4.260890e-015 -1.000000e+000
    outer loop
      vertex  2.309401e-001 -4.263256e-017 -2.828201e-017
      vertex  9.320508e-002 -4.973799e-017 -3.623768e-016
      vertex  1.965064e-001  5.964102e-002 -3.659295e-016
    endloop
  endfacet
  facet normal -1.224647e-016  -0.000000e+000 -1.000000e+000
    outer loop
      vertex  4.660254e-002  8.071797e-002 -5.707166e-018
      vertex  4.660254e-002  2.000000e-001 -5.707166e-018
      vertex  1.499038e-001  1.403590e-001 -1.835792e-017
    endloop
  endfacet
  facet normal -1.224647e-016  2.639677e-023 -1.000000e+000
    outer loop
      vertex  1.499038e-001  1.403590e-001 -1.835792e-017
      vertex  4.660254e-002  2.000000e-001 -5.707166e-018
      vertex  1.154701e-001  2.000000e-001 -1.414100e-017
    endloop
  endfacet
  facet normal  8.492076e-001  4.902903e-001 -1.961161e-001
    outer loop
      vertex  1.734124e-001  7.964101e-002 -5.000000e-002
      vertex  1.556773e-001  1.103590e-001 -5.000000e-002
      vertex  1.965064e-001  5.964102e-002 -3.659295e-016
    endloop
  endfacet
  facet normal  8.492078e-001  4.902903e-001 -1.961161e-001
    outer loop
      vertex  1.965064e-001  5.964102e-002 -3.659295e-016
      vertex  1.556773e-001  1.103590e-001 -5.000000e-002
      vertex  1.499038e-001  1.403590e-001 -1.835792e-017
    endloop
  endfacet
  facet normal  0.000000e+000  1.000000e+000  0.000000e+000
    outer loop
      vertex  9.814955e-002 -1.700000e-001  1.000000e-002
      vertex -9.814955e-002 -1.700000e-001  1.000000e-002
      vertex  9.814955e-002 -1.700000e-001  2.000000e-001
    endloop
  endfacet
  facet normal  0.000000e+000  1.000000e+000  0.000000e+000
    outer loop
      vertex  9.814955e-002 -1.700000e-001  2.000000e-001
      vertex -9.814955e-002 -1.700000e-001  1.000000e-002
      vertex -9.814955e-002 -1.700000e-001  2.000000e-001
    endloop
  endfacet
  facet normal  8.660254e-001  5.000000e-001  5.839144e-016
    outer loop
      vertex -1.962991e-001  9.658941e-017  1.000000e-002
      vertex -1.962991e-001 -1.252981e-016  2.000000e-001
      vertex -9.814955e-002 -1.700000e-001  1.000000e-002
    endloop
  endfacet
  facet normal  8.660254e-001  5.000000e-001  -0.000000e+000
    outer loop
      vertex -9.814955e-002 -1.700000e-001  1.000000e-002
      vertex -1.962991e-001 -1.252981e-016  2.000000e-001
      vertex -9.814955e-002 -1.700000e-001  2.000000e-001
    endloop
  endfacet
  facet normal  8.660254e-001 -5.000000e-001  0.000000e+000
    outer loop
      vertex -1.962991e-001  9.658941e-017  1.000000e-002
      vertex -9.814955e-002  1.700000e-001  1.000000e-002
      vertex -1.962991e-001 -1.252981e-016  2.000000e-001
    endloop
  endfacet
  facet normal  8.660254e-001 -5.000000e-001  0.000000e+000
    outer loop
      vertex -1.962991e-001 -1.252981e-016  2.000000e-001
      vertex -9.814955e-002  1.700000e-001  1.000000e-002
      vertex -9.814955e-002  1.700000e-001  2.000000e-001
    endloop
  endfacet
  facet normal -8.660254e-001  5.000000e-001  0.000000e+000
    outer loop
      vertex  9.814955e-002 -1.700000e-001  1.000000e-002
      vertex  9.814955e-002 -1.700000e-001  2.000000e-001
      vertex  1.962991e-001 -1.822015e-016  1.000000e-002
    endloop
  endfacet
  facet normal -8.660254e-001  5.000000e-001 -3.071373e-017
    outer loop
      vertex  1.962991e-001 -1.822015e-016  1.000000e-002
      vertex  9.814955e-002 -1.700000e-001  2.000000e-001
      vertex  1.962991e-001 -1.705303e-016  2.000000e-001
    endloop
  endfacet
  facet normal  0.000000e+000 -1.000000e+000  -0.000000e+000
    outer loop
      vertex  9.814955e-002  1.700000e-001  1.000000e-002
      vertex  9.814955e-002  1.700000e-001  2.000000e-001
      vertex -9.814955e-002  1.700000e-001  1.000000e-002
    endloop
  endfacet
  facet normal  0.000000e+000 -1.000000e+000  0.000000e+000
    outer loop
      vertex -9.814955e-002  1.700000e-001  1.000000e-002
      vertex  9.814955e-002  1.700000e-001  2.000000e-001
      vertex -9.814955e-002  1.700000e-001  2.000000e-001
    endloop
  endfacet
  facet normal -8.660254e-001 -5.000000e-001  0.000000e+000
    outer loop
      vertex  9.814955e-002  1.700000e-001  1.000000e-002
      vertex  1.962991e-001 -1.822015e-016  1.000000e-002
      vertex  9.814955e-002  1.700000e-001  2.000000e-001
    endloop
  endfacet
  facet normal -8.660254e-001 -5.000000e-001  0.000000e+000
    outer loop
      vertex  9.814955e-002  1.700000e-001  2.000000e-001
      vertex  1.962991e-001 -1.822015e-016  1.000000e-002
      vertex  1.962991e-001 -1.705303e-016  2.000000e-001
    endloop
  endfacet
  facet normal -8.582690e-001  4.955218e-001  1.335381e-001
    outer loop
      vertex -1.000000e-001 -1.000000e-001  1.000000e+000
      vertex -9.814955e-002  1.700000e-001  1.000000e-002
      vertex -1.962991e-001  9.658941e-017  1.000000e-002
    endloop
  endfacet
  facet normal  -0.000000e+000  9.647638e-001  2.631174e-001
    outer loop
      vertex  9.814955e-002  1.700000e-001  1.000000e-002
      vertex -9.814955e-002  1.700000e-001  1.000000e-002
      vertex  1.000000e-001 -1.000000e-001  1.000000e+000
    endloop
  endfacet
  facet normal  0.000000e+000  9.647638e-001  2.631174e-001
    outer loop
      vertex  1.000000e-001 -1.000000e-001  1.000000e+000
      vertex -9.814955e-002  1.700000e-001  1.000000e-002
      vertex -1.000000e-001 -1.000000e-001  1.000000e+000
    endloop
  endfacet
  facet normal -8.655331e-001 -4.997157e-001  3.371562e-002
    outer loop
      vertex -9.814955e-002 -1.700000e-001  1.000000e-002
      vertex -1.000000e-001 -1.000000e-001  1.000000e+000
      vertex -1.962991e-001  9.658941e-017  1.000000e-002
    endloop
  endfacet
  facet normal  0.000000e+000 -9.975095e-001  7.053097e-002
    outer loop
      vertex  1.000000e-001 -1.000000e-001  1.000000e+000
      vertex -1.000000e-001 -1.000000e-001  1.000000e+000
      vertex  9.814955e-002 -1.700000e-001  1.000000e-002
    endloop
  endfacet
  facet normal  0.000000e+000 -9.975095e-001  7.053098e-002
    outer loop
      vertex  9.814955e-002 -1.700000e-001  1.000000e-002
      vertex -1.000000e-001 -1.000000e-001  1.000000e+000
      vertex -9.814955e-002 -1.700000e-001  1.000000e-002
    endloop
  endfacet
  facet normal  8.655331e-001 -4.997157e-001  3.371562e-002
    outer loop
      vertex  1.000000e-001 -1.000000e-001  1.000000e+000
      vertex  9.814955e-002 -1.700000e-001  1.000000e-002
      vertex  1.962991e-001 -1.822015e-016  1.000000e-002
    endloop
  endfacet
  facet normal  8.582690e-001  4.955218e-001  1.335381e-001
    outer loop
      vertex  1.962991e-001 -1.822015e-016  1.000000e-002
      vertex  9.814955e-002  1.700000e-001  1.000000e-002
      vertex  1.000000e-001 -1.000000e-001  1.000000e+000
    endloop
  endfacet
  facet normal  0.000000e+000 -8.574930e-001  5.144958e-001
    outer loop
      vertex  1.154701e-001 -2.000000e-001  1.500000e-001
      vertex  9.814955e-002 -1.700000e-001  2.000000e-001
      vertex -1.154701e-001 -2.000000e-001  1.500000e-001
    endloop
  endfacet
  facet normal  0.000000e+000 -8.574929e-001  5.144957e-001
    outer loop
      vertex -1.154701e-001 -2.000000e-001  1.500000e-001
      vertex  9.814955e-002 -1.700000e-001  2.000000e-001
      vertex -9.814955e-002 -1.700000e-001  2.000000e-001
    endloop
  endfacet
  facet normal -7.426106e-001 -4.287464e-001  5.144958e-001
    outer loop
      vertex -2.309401e-001 -2.842171e-016  1.500000e-001
      vertex -1.154701e-001 -2.000000e-001  1.500000e-001
      vertex -1.962991e-001 -1.252981e-016  2.000000e-001
    endloop
  endfacet
  facet normal -7.426106e-001 -4.287464e-001  5.144957e-001
    outer loop
      vertex -1.962991e-001 -1.252981e-016  2.000000e-001
      vertex -1.154701e-001 -2.000000e-001  1.500000e-001
      vertex -9.814955e-002 -1.700000e-001  2.000000e-001
    endloop
  endfacet
  facet normal -7.426106e-001  4.287465e-001  5.144958e-001
    outer loop
      vertex -2.309401e-001 -2.842171e-016  1.500000e-001
      vertex -1.962991e-001 -1.252981e-016  2.000000e-001
      vertex -1.154701e-001  2.000000e-001  1.500000e-001
    endloop
  endfacet
  facet normal -7.426106e-001  4.287464e-001  5.144958e-001
    outer loop
      vertex -1.154701e-001  2.000000e-001  1.500000e-001
      vertex -1.962991e-001 -1.252981e-016  2.000000e-001
      vertex -9.814955e-002  1.700000e-001  2.000000e-001
    endloop
  endfacet
  facet normal  -0.000000e+000  8.574929e-001  5.144957e-001
    outer loop
      vertex  1.154701e-001  2.000000e-001  1.500000e-001
      vertex -1.154701e-001  2.000000e-001  1.500000e-001
      vertex  9.814955e-002  1.700000e-001  2.000000e-001
    endloop
  endfacet
  facet normal  0.000000e+000  8.574929e-001  5.144957e-001
    outer loop
      vertex  9.814955e-002  1.700000e-001  2.000000e-001
      vertex -1.154701e-001  2.000000e-001  1.500000e-001
      vertex -9.814955e-002  1.700000e-001  2.000000e-001
    endloop
  endfacet
  facet normal  7.426106e-001  4.287464e-001  5.144958e-001
    outer loop
      vertex  1.154701e-001  2.000000e-001  1.500000e-001
      vertex  9.814955e-002  1.700000e-001  2.000000e-001
      vertex  2.309401e-001 -1.563194e-016  1.500000e-001
    endloop
  endfacet
  facet normal  7.426106e-001  4.287464e-001  5.144958e-001
    outer loop
      vertex  2.309401e-001 -1.563194e-016  1.500000e-001
      vertex  9.814955e-002  1.700000e-001  2.000000e-001
      vertex  1.962991e-001 -1.705303e-016  2.000000e-001
    endloop
  endfacet
  facet normal  7.426107e-001 -4.287465e-001  5.144957e-001
    outer loop
      vertex  1.154701e-001 -2.000000e-001  1.500000e-001
      vertex  2.309401e-001 -1.563194e-016  1.500000e-001
      vertex  9.814955e-002 -1.700000e-001  2.000000e-001
    endloop
  endfacet
  facet normal  7.426106e-001 -4.287464e-001  5.144957e-001
    outer loop
      vertex  9.814955e-002 -1.700000e-001  2.000000e-001
      vertex  2.309401e-001 -1.563194e-016  1.500000e-001
      vertex  1.962991e-001 -1.705303e-016  2.000000e-001
    endloop
  endfacet
endsolid CATIA STL
