solid CATIA STL
  facet normal  8.660254e-001  5.000000e-001  0.000000e+000
    outer loop
      vertex  2.309401e-001 -1.989520e-016  0.000000e+000
      vertex  1.154701e-001  2.000000e-001  0.000000e+000
      vertex  2.309401e-001 -1.705303e-016  1.500000e-001
    endloop
  endfacet
  facet normal  8.660254e-001  5.000000e-001  0.000000e+000
    outer loop
      vertex  2.309401e-001 -1.705303e-016  1.500000e-001
      vertex  1.154701e-001  2.000000e-001  0.000000e+000
      vertex  1.154701e-001  2.000000e-001  1.500000e-001
    endloop
  endfacet
  facet normal  8.660254e-001  5.000000e-001  4.974870e-009
    outer loop
      vertex  2.309401e-001 -1.705303e-016  1.500000e-001
      vertex  1.154701e-001  2.000000e-001  1.500000e-001
      vertex  1.732051e-001  1.000000e-001  1.000000e+000
    endloop
  endfacet
  facet normal  8.660254e-001 -5.000000e-001  0.000000e+000
    outer loop
      vertex  1.154701e-001 -2.000000e-001  0.000000e+000
      vertex  2.309401e-001 -1.989520e-016  0.000000e+000
      vertex  1.154701e-001 -2.000000e-001  1.500000e-001
    endloop
  endfacet
  facet normal  8.660254e-001 -5.000000e-001  0.000000e+000
    outer loop
      vertex  1.154701e-001 -2.000000e-001  1.500000e-001
      vertex  2.309401e-001 -1.989520e-016  0.000000e+000
      vertex  2.309401e-001 -1.705303e-016  1.500000e-001
    endloop
  endfacet
  facet normal  0.000000e+000 -9.429904e-001  3.328201e-001
    outer loop
      vertex -1.732051e-001  1.000000e-001  1.000000e+000
      vertex -1.154701e-001 -2.000000e-001  1.500000e-001
      vertex  1.732051e-001  1.000000e-001  1.000000e+000
    endloop
  endfacet
  facet normal  0.000000e+000 -9.429903e-001  3.328201e-001
    outer loop
      vertex  1.732051e-001  1.000000e-001  1.000000e+000
      vertex -1.154701e-001 -2.000000e-001  1.500000e-001
      vertex  1.154701e-001 -2.000000e-001  1.500000e-001
    endloop
  endfacet
  facet normal  8.600937e-001 -4.965753e-001  1.168412e-001
    outer loop
      vertex  2.309401e-001 -1.705303e-016  1.500000e-001
      vertex  1.732051e-001  1.000000e-001  1.000000e+000
      vertex  1.154701e-001 -2.000000e-001  1.500000e-001
    endloop
  endfacet
  facet normal  0.000000e+000  9.931506e-001  1.168412e-001
    outer loop
      vertex -1.154701e-001  2.000000e-001  1.500000e-001
      vertex -1.732051e-001  1.000000e-001  1.000000e+000
      vertex  1.154701e-001  2.000000e-001  1.500000e-001
    endloop
  endfacet
  facet normal  0.000000e+000  9.931507e-001  1.168412e-001
    outer loop
      vertex  1.154701e-001  2.000000e-001  1.500000e-001
      vertex -1.732051e-001  1.000000e-001  1.000000e+000
      vertex  1.732051e-001  1.000000e-001  1.000000e+000
    endloop
  endfacet
  facet normal  0.000000e+000 -1.000000e+000  0.000000e+000
    outer loop
      vertex -1.154701e-001 -2.000000e-001  0.000000e+000
      vertex  1.154701e-001 -2.000000e-001  0.000000e+000
      vertex -1.154701e-001 -2.000000e-001  1.500000e-001
    endloop
  endfacet
  facet normal  0.000000e+000 -1.000000e+000  0.000000e+000
    outer loop
      vertex -1.154701e-001 -2.000000e-001  1.500000e-001
      vertex  1.154701e-001 -2.000000e-001  0.000000e+000
      vertex  1.154701e-001 -2.000000e-001  1.500000e-001
    endloop
  endfacet
  facet normal -8.660254e-001 -5.000000e-001  0.000000e+000
    outer loop
      vertex -2.309401e-001 -2.273737e-016  0.000000e+000
      vertex -1.154701e-001 -2.000000e-001  0.000000e+000
      vertex -2.309401e-001 -2.273737e-016  1.500000e-001
    endloop
  endfacet
  facet normal -8.660254e-001 -5.000000e-001  0.000000e+000
    outer loop
      vertex -2.309401e-001 -2.273737e-016  1.500000e-001
      vertex -1.154701e-001 -2.000000e-001  0.000000e+000
      vertex -1.154701e-001 -2.000000e-001  1.500000e-001
    endloop
  endfacet
  facet normal -8.660254e-001  5.000000e-001  0.000000e+000
    outer loop
      vertex -1.154701e-001  2.000000e-001  0.000000e+000
      vertex -2.309401e-001 -2.273737e-016  0.000000e+000
      vertex -1.154701e-001  2.000000e-001  1.500000e-001
    endloop
  endfacet
  facet normal -8.660254e-001  5.000000e-001  0.000000e+000
    outer loop
      vertex -1.154701e-001  2.000000e-001  1.500000e-001
      vertex -2.309401e-001 -2.273737e-016  0.000000e+000
      vertex -2.309401e-001 -2.273737e-016  1.500000e-001
    endloop
  endfacet
  facet normal -8.660254e-001  5.000000e-001  0.000000e+000
    outer loop
      vertex -1.154701e-001  2.000000e-001  1.500000e-001
      vertex -2.309401e-001 -2.273737e-016  1.500000e-001
      vertex -1.732051e-001  1.000000e-001  1.000000e+000
    endloop
  endfacet
  facet normal -8.600937e-001 -4.965753e-001  1.168412e-001
    outer loop
      vertex -1.732051e-001  1.000000e-001  1.000000e+000
      vertex -2.309401e-001 -2.273737e-016  1.500000e-001
      vertex -1.154701e-001 -2.000000e-001  1.500000e-001
    endloop
  endfacet
  facet normal  0.000000e+000  1.000000e+000  0.000000e+000
    outer loop
      vertex  1.154701e-001  2.000000e-001  0.000000e+000
      vertex -1.154701e-001  2.000000e-001  0.000000e+000
      vertex  1.154701e-001  2.000000e-001  1.500000e-001
    endloop
  endfacet
  facet normal  0.000000e+000  1.000000e+000  0.000000e+000
    outer loop
      vertex  1.154701e-001  2.000000e-001  1.500000e-001
      vertex -1.154701e-001  2.000000e-001  0.000000e+000
      vertex -1.154701e-001  2.000000e-001  1.500000e-001
    endloop
  endfacet
  facet normal  0.000000e+000  0.000000e+000 -1.000000e+000
    outer loop
      vertex  1.154701e-001  2.000000e-001  0.000000e+000
      vertex  2.309401e-001 -1.989520e-016  0.000000e+000
      vertex -1.154701e-001  2.000000e-001  0.000000e+000
    endloop
  endfacet
  facet normal  0.000000e+000  -0.000000e+000 -1.000000e+000
    outer loop
      vertex -1.154701e-001  2.000000e-001  0.000000e+000
      vertex  2.309401e-001 -1.989520e-016  0.000000e+000
      vertex -2.309401e-001 -2.273737e-016  0.000000e+000
    endloop
  endfacet
  facet normal  0.000000e+000  0.000000e+000 -1.000000e+000
    outer loop
      vertex  2.309401e-001 -1.989520e-016  0.000000e+000
      vertex  1.154701e-001 -2.000000e-001  0.000000e+000
      vertex -2.309401e-001 -2.273737e-016  0.000000e+000
    endloop
  endfacet
  facet normal  0.000000e+000  0.000000e+000 -1.000000e+000
    outer loop
      vertex -2.309401e-001 -2.273737e-016  0.000000e+000
      vertex  1.154701e-001 -2.000000e-001  0.000000e+000
      vertex -1.154701e-001 -2.000000e-001  0.000000e+000
    endloop
  endfacet
endsolid CATIA STL
