solid CATIA STL
  facet normal  0.000000e+000  0.000000e+000  1.000000e+000
    outer loop
      vertex -1.773503e-002 -1.700000e-001  1.037500e-001
      vertex -1.773503e-002 -2.000000e-001  1.037500e-001
      vertex  1.773503e-002 -1.700000e-001  1.037500e-001
    endloop
  endfacet
  facet normal  0.000000e+000  0.000000e+000  1.000000e+000
    outer loop
      vertex  1.773503e-002 -1.700000e-001  1.037500e-001
      vertex -1.773503e-002 -2.000000e-001  1.037500e-001
      vertex  1.773503e-002 -2.000000e-001  1.037500e-001
    endloop
  endfacet
  facet normal  0.000000e+000  -0.000000e+000  1.000000e+000
    outer loop
      vertex -1.820726e-001 -8.464102e-002  1.037500e-001
      vertex -1.643376e-001 -1.153590e-001  1.037500e-001
      vertex -1.560918e-001 -6.964102e-002  1.037500e-001
    endloop
  endfacet
  facet normal  0.000000e+000  0.000000e+000  1.000000e+000
    outer loop
      vertex -1.560918e-001 -6.964102e-002  1.037500e-001
      vertex -1.643376e-001 -1.153590e-001  1.037500e-001
      vertex -1.383568e-001 -1.003590e-001  1.037500e-001
    endloop
  endfacet
  facet normal  0.000000e+000  0.000000e+000  1.000000e+000
    outer loop
      vertex -1.820726e-001  8.464102e-002  1.037500e-001
      vertex -1.560918e-001  6.964102e-002  1.037500e-001
      vertex -1.643376e-001  1.153590e-001  1.037500e-001
    endloop
  endfacet
  facet normal  0.000000e+000  0.000000e+000  1.000000e+000
    outer loop
      vertex -1.643376e-001  1.153590e-001  1.037500e-001
      vertex -1.560918e-001  6.964102e-002  1.037500e-001
      vertex -1.383568e-001  1.003590e-001  1.037500e-001
    endloop
  endfacet
  facet normal  0.000000e+000  0.000000e+000  1.000000e+000
    outer loop
      vertex -1.773503e-002  2.000000e-001  1.037500e-001
      vertex -1.773503e-002  1.700000e-001  1.037500e-001
      vertex  1.773503e-002  2.000000e-001  1.037500e-001
    endloop
  endfacet
  facet normal  0.000000e+000  0.000000e+000  1.000000e+000
    outer loop
      vertex  1.773503e-002  2.000000e-001  1.037500e-001
      vertex -1.773503e-002  1.700000e-001  1.037500e-001
      vertex  1.773503e-002  1.700000e-001  1.037500e-001
    endloop
  endfacet
  facet normal  0.000000e+000  -0.000000e+000  1.000000e+000
    outer loop
      vertex  1.383568e-001  1.003590e-001  1.037500e-001
      vertex  1.560918e-001  6.964102e-002  1.037500e-001
      vertex  1.643376e-001  1.153590e-001  1.037500e-001
    endloop
  endfacet
  facet normal  0.000000e+000  0.000000e+000  1.000000e+000
    outer loop
      vertex  1.643376e-001  1.153590e-001  1.037500e-001
      vertex  1.560918e-001  6.964102e-002  1.037500e-001
      vertex  1.820726e-001  8.464102e-002  1.037500e-001
    endloop
  endfacet
  facet normal  0.000000e+000  0.000000e+000  1.000000e+000
    outer loop
      vertex  1.383568e-001 -1.003590e-001  1.037500e-001
      vertex  1.643376e-001 -1.153590e-001  1.037500e-001
      vertex  1.560918e-001 -6.964102e-002  1.037500e-001
    endloop
  endfacet
  facet normal  0.000000e+000  0.000000e+000  1.000000e+000
    outer loop
      vertex  1.560918e-001 -6.964102e-002  1.037500e-001
      vertex  1.643376e-001 -1.153590e-001  1.037500e-001
      vertex  1.820726e-001 -8.464102e-002  1.037500e-001
    endloop
  endfacet
  facet normal -8.660254e-001  0.000000e+000  4.999999e-001
    outer loop
      vertex -1.773503e-002  2.000000e-001  1.037500e-001
      vertex -4.660254e-002  1.936508e-001  5.375000e-002
      vertex -1.773503e-002  1.700000e-001  1.037500e-001
    endloop
  endfacet
  facet normal -8.660254e-001  0.000000e+000  5.000000e-001
    outer loop
      vertex -1.773503e-002  1.700000e-001  1.037500e-001
      vertex -4.660254e-002  1.936508e-001  5.375000e-002
      vertex -4.660254e-002  1.700000e-001  5.375000e-002
    endloop
  endfacet
  facet normal  8.660254e-001  -0.000000e+000  4.999999e-001
    outer loop
      vertex  1.773503e-002  2.000000e-001  1.037500e-001
      vertex  1.773503e-002  1.700000e-001  1.037500e-001
      vertex  4.660254e-002  1.936508e-001  5.375000e-002
    endloop
  endfacet
  facet normal  8.660254e-001  0.000000e+000  5.000000e-001
    outer loop
      vertex  4.660254e-002  1.936508e-001  5.375000e-002
      vertex  1.773503e-002  1.700000e-001  1.037500e-001
      vertex  4.660254e-002  1.700000e-001  5.375000e-002
    endloop
  endfacet
  facet normal  0.000000e+000  -0.000000e+000  1.000000e+000
    outer loop
      vertex -1.444052e-001  1.371844e-001  5.375000e-002
      vertex -1.239231e-001  1.253590e-001  5.375000e-002
      vertex -1.118043e-001  1.936508e-001  5.375000e-002
    endloop
  endfacet
  facet normal  0.000000e+000  0.000000e+000  1.000000e+000
    outer loop
      vertex -1.118043e-001  1.936508e-001  5.375000e-002
      vertex -1.239231e-001  1.253590e-001  5.375000e-002
      vertex -9.814955e-002  1.700000e-001  5.375000e-002
    endloop
  endfacet
  facet normal  0.000000e+000  -0.000000e+000  1.000000e+000
    outer loop
      vertex -1.118043e-001  1.936508e-001  5.375000e-002
      vertex -9.814955e-002  1.700000e-001  5.375000e-002
      vertex -4.660254e-002  1.936508e-001  5.375000e-002
    endloop
  endfacet
  facet normal  0.000000e+000  0.000000e+000  1.000000e+000
    outer loop
      vertex -4.660254e-002  1.936508e-001  5.375000e-002
      vertex -9.814955e-002  1.700000e-001  5.375000e-002
      vertex -4.660254e-002  1.700000e-001  5.375000e-002
    endloop
  endfacet
  facet normal  4.330128e-001  7.500000e-001  5.000001e-001
    outer loop
      vertex -1.643376e-001  1.153590e-001  1.037500e-001
      vertex -1.383568e-001  1.003590e-001  1.037500e-001
      vertex -1.444052e-001  1.371844e-001  5.375000e-002
    endloop
  endfacet
  facet normal  4.330128e-001  7.500000e-001  5.000001e-001
    outer loop
      vertex -1.444052e-001  1.371844e-001  5.375000e-002
      vertex -1.383568e-001  1.003590e-001  1.037500e-001
      vertex -1.239231e-001  1.253590e-001  5.375000e-002
    endloop
  endfacet
  facet normal -4.330126e-001 -7.500001e-001  5.000000e-001
    outer loop
      vertex -1.820726e-001  8.464102e-002  1.037500e-001
      vertex -1.910078e-001  5.646642e-002  5.375000e-002
      vertex -1.560918e-001  6.964102e-002  1.037500e-001
    endloop
  endfacet
  facet normal -4.330125e-001 -7.500001e-001  5.000000e-001
    outer loop
      vertex -1.560918e-001  6.964102e-002  1.037500e-001
      vertex -1.910078e-001  5.646642e-002  5.375000e-002
      vertex -1.705256e-001  4.464102e-002  5.375000e-002
    endloop
  endfacet
  facet normal  0.000000e+000  0.000000e+000  1.000000e+000
    outer loop
      vertex -1.705256e-001  4.464102e-002  5.375000e-002
      vertex -1.910078e-001  5.646642e-002  5.375000e-002
      vertex -1.962991e-001  5.684342e-017  5.375000e-002
    endloop
  endfacet
  facet normal  0.000000e+000  -0.000000e+000  1.000000e+000
    outer loop
      vertex -1.962991e-001  5.684342e-017  5.375000e-002
      vertex -1.910078e-001  5.646642e-002  5.375000e-002
      vertex -2.236087e-001  2.842171e-017  5.375000e-002
    endloop
  endfacet
  facet normal  -0.000000e+000  0.000000e+000  1.000000e+000
    outer loop
      vertex -1.962991e-001  5.684342e-017  5.375000e-002
      vertex -2.236087e-001  2.842171e-017  5.375000e-002
      vertex -1.705256e-001 -4.464102e-002  5.375000e-002
    endloop
  endfacet
  facet normal  0.000000e+000  0.000000e+000  1.000000e+000
    outer loop
      vertex -1.705256e-001 -4.464102e-002  5.375000e-002
      vertex -2.236087e-001  2.842171e-017  5.375000e-002
      vertex -1.910078e-001 -5.646642e-002  5.375000e-002
    endloop
  endfacet
  facet normal -4.330126e-001  7.500001e-001  5.000000e-001
    outer loop
      vertex -1.820726e-001 -8.464102e-002  1.037500e-001
      vertex -1.560918e-001 -6.964102e-002  1.037500e-001
      vertex -1.910078e-001 -5.646642e-002  5.375000e-002
    endloop
  endfacet
  facet normal -4.330125e-001  7.500001e-001  5.000000e-001
    outer loop
      vertex -1.910078e-001 -5.646642e-002  5.375000e-002
      vertex -1.560918e-001 -6.964102e-002  1.037500e-001
      vertex -1.705256e-001 -4.464102e-002  5.375000e-002
    endloop
  endfacet
  facet normal  4.330128e-001 -7.499999e-001  5.000001e-001
    outer loop
      vertex -1.643376e-001 -1.153590e-001  1.037500e-001
      vertex -1.444052e-001 -1.371844e-001  5.375000e-002
      vertex -1.383568e-001 -1.003590e-001  1.037500e-001
    endloop
  endfacet
  facet normal  4.330127e-001 -7.499999e-001  5.000001e-001
    outer loop
      vertex -1.383568e-001 -1.003590e-001  1.037500e-001
      vertex -1.444052e-001 -1.371844e-001  5.375000e-002
      vertex -1.239231e-001 -1.253590e-001  5.375000e-002
    endloop
  endfacet
  facet normal  -0.000000e+000  0.000000e+000  1.000000e+000
    outer loop
      vertex -1.239231e-001 -1.253590e-001  5.375000e-002
      vertex -1.444052e-001 -1.371844e-001  5.375000e-002
      vertex -9.814955e-002 -1.700000e-001  5.375000e-002
    endloop
  endfacet
  facet normal  0.000000e+000  0.000000e+000  1.000000e+000
    outer loop
      vertex -9.814955e-002 -1.700000e-001  5.375000e-002
      vertex -1.444052e-001 -1.371844e-001  5.375000e-002
      vertex -1.118043e-001 -1.936508e-001  5.375000e-002
    endloop
  endfacet
  facet normal  0.000000e+000  0.000000e+000  1.000000e+000
    outer loop
      vertex -9.814955e-002 -1.700000e-001  5.375000e-002
      vertex -1.118043e-001 -1.936508e-001  5.375000e-002
      vertex -4.660254e-002 -1.700000e-001  5.375000e-002
    endloop
  endfacet
  facet normal  0.000000e+000  0.000000e+000  9.999999e-001
    outer loop
      vertex -4.660254e-002 -1.700000e-001  5.375000e-002
      vertex -1.118043e-001 -1.936508e-001  5.375000e-002
      vertex -4.660254e-002 -1.936508e-001  5.375000e-002
    endloop
  endfacet
  facet normal  8.660254e-001  -0.000000e+000  4.999999e-001
    outer loop
      vertex  1.773503e-002 -1.700000e-001  1.037500e-001
      vertex  1.773503e-002 -2.000000e-001  1.037500e-001
      vertex  4.660254e-002 -1.700000e-001  5.375000e-002
    endloop
  endfacet
  facet normal  8.660254e-001  0.000000e+000  5.000000e-001
    outer loop
      vertex  4.660254e-002 -1.700000e-001  5.375000e-002
      vertex  1.773503e-002 -2.000000e-001  1.037500e-001
      vertex  4.660254e-002 -1.936508e-001  5.375000e-002
    endloop
  endfacet
  facet normal -8.660254e-001  0.000000e+000  4.999999e-001
    outer loop
      vertex -1.773503e-002 -1.700000e-001  1.037500e-001
      vertex -4.660254e-002 -1.700000e-001  5.375000e-002
      vertex -1.773503e-002 -2.000000e-001  1.037500e-001
    endloop
  endfacet
  facet normal -8.660254e-001  0.000000e+000  5.000000e-001
    outer loop
      vertex -1.773503e-002 -2.000000e-001  1.037500e-001
      vertex -4.660254e-002 -1.700000e-001  5.375000e-002
      vertex -4.660254e-002 -1.936508e-001  5.375000e-002
    endloop
  endfacet
  facet normal  0.000000e+000  0.000000e+000  1.000000e+000
    outer loop
      vertex  1.444052e-001 -1.371844e-001  5.375000e-002
      vertex  1.239231e-001 -1.253590e-001  5.375000e-002
      vertex  1.118043e-001 -1.936508e-001  5.375000e-002
    endloop
  endfacet
  facet normal  0.000000e+000  -0.000000e+000  1.000000e+000
    outer loop
      vertex  1.118043e-001 -1.936508e-001  5.375000e-002
      vertex  1.239231e-001 -1.253590e-001  5.375000e-002
      vertex  9.814955e-002 -1.700000e-001  5.375000e-002
    endloop
  endfacet
  facet normal  0.000000e+000  0.000000e+000  1.000000e+000
    outer loop
      vertex  1.118043e-001 -1.936508e-001  5.375000e-002
      vertex  9.814955e-002 -1.700000e-001  5.375000e-002
      vertex  4.660254e-002 -1.936508e-001  5.375000e-002
    endloop
  endfacet
  facet normal  0.000000e+000  0.000000e+000  1.000000e+000
    outer loop
      vertex  4.660254e-002 -1.936508e-001  5.375000e-002
      vertex  9.814955e-002 -1.700000e-001  5.375000e-002
      vertex  4.660254e-002 -1.700000e-001  5.375000e-002
    endloop
  endfacet
  facet normal  4.330126e-001  7.500001e-001  5.000000e-001
    outer loop
      vertex  1.560918e-001 -6.964102e-002  1.037500e-001
      vertex  1.820726e-001 -8.464102e-002  1.037500e-001
      vertex  1.705256e-001 -4.464102e-002  5.375000e-002
    endloop
  endfacet
  facet normal  4.330125e-001  7.500001e-001  5.000000e-001
    outer loop
      vertex  1.705256e-001 -4.464102e-002  5.375000e-002
      vertex  1.820726e-001 -8.464102e-002  1.037500e-001
      vertex  1.910078e-001 -5.646642e-002  5.375000e-002
    endloop
  endfacet
  facet normal -4.330128e-001 -7.500000e-001  5.000001e-001
    outer loop
      vertex  1.383568e-001 -1.003590e-001  1.037500e-001
      vertex  1.239231e-001 -1.253590e-001  5.375000e-002
      vertex  1.643376e-001 -1.153590e-001  1.037500e-001
    endloop
  endfacet
  facet normal -4.330127e-001 -7.499999e-001  5.000000e-001
    outer loop
      vertex  1.643376e-001 -1.153590e-001  1.037500e-001
      vertex  1.239231e-001 -1.253590e-001  5.375000e-002
      vertex  1.444052e-001 -1.371844e-001  5.375000e-002
    endloop
  endfacet
  facet normal  -0.000000e+000  0.000000e+000  1.000000e+000
    outer loop
      vertex  1.910078e-001  5.646642e-002  5.375000e-002
      vertex  1.705256e-001  4.464102e-002  5.375000e-002
      vertex  2.236087e-001 -7.105428e-017  5.375000e-002
    endloop
  endfacet
  facet normal  0.000000e+000  0.000000e+000  1.000000e+000
    outer loop
      vertex  2.236087e-001 -7.105428e-017  5.375000e-002
      vertex  1.705256e-001  4.464102e-002  5.375000e-002
      vertex  1.962991e-001 -8.526513e-017  5.375000e-002
    endloop
  endfacet
  facet normal  -0.000000e+000  0.000000e+000  1.000000e+000
    outer loop
      vertex  2.236087e-001 -7.105428e-017  5.375000e-002
      vertex  1.962991e-001 -8.526513e-017  5.375000e-002
      vertex  1.910078e-001 -5.646642e-002  5.375000e-002
    endloop
  endfacet
  facet normal  0.000000e+000  -0.000000e+000  1.000000e+000
    outer loop
      vertex  1.910078e-001 -5.646642e-002  5.375000e-002
      vertex  1.962991e-001 -8.526513e-017  5.375000e-002
      vertex  1.705256e-001 -4.464102e-002  5.375000e-002
    endloop
  endfacet
  facet normal  9.030233e-014 -5.213607e-014 -1.000000e+000
    outer loop
      vertex -2.193931e-001  1.421086e-017 -2.085443e-015
      vertex -1.096966e-001  1.900000e-001 -2.085443e-015
      vertex -9.814955e-002  1.700000e-001  0.000000e+000
    endloop
  endfacet
  facet normal  9.030232e-014 -5.213606e-014 -1.000000e+000
    outer loop
      vertex -2.193931e-001  1.421086e-017 -2.085443e-015
      vertex -9.814955e-002  1.700000e-001  0.000000e+000
      vertex -1.962991e-001  2.842171e-017  0.000000e+000
    endloop
  endfacet
  facet normal  9.030234e-014  5.213608e-014 -1.000000e+000
    outer loop
      vertex -2.193931e-001  1.421086e-017 -2.085443e-015
      vertex -1.962991e-001  2.842171e-017  0.000000e+000
      vertex -9.814955e-002 -1.700000e-001  0.000000e+000
    endloop
  endfacet
  facet normal  9.030233e-014  5.213607e-014 -1.000000e+000
    outer loop
      vertex -2.193931e-001  1.421086e-017 -2.085443e-015
      vertex -9.814955e-002 -1.700000e-001  0.000000e+000
      vertex -1.096966e-001 -1.900000e-001 -2.085443e-015
    endloop
  endfacet
  facet normal -9.030233e-014 -5.213607e-014 -1.000000e+000
    outer loop
      vertex  2.193931e-001 -2.842171e-017 -2.085443e-015
      vertex  9.814955e-002  1.700000e-001  0.000000e+000
      vertex  1.096966e-001  1.900000e-001 -2.085443e-015
    endloop
  endfacet
  facet normal  0.000000e+000 -1.042722e-013 -1.000000e+000
    outer loop
      vertex  1.096966e-001  1.900000e-001 -2.085443e-015
      vertex  9.814955e-002  1.700000e-001  0.000000e+000
      vertex -9.814955e-002  1.700000e-001  0.000000e+000
    endloop
  endfacet
  facet normal  0.000000e+000 -1.042722e-013 -1.000000e+000
    outer loop
      vertex  1.096966e-001  1.900000e-001 -2.085443e-015
      vertex -9.814955e-002  1.700000e-001  0.000000e+000
      vertex -1.096966e-001  1.900000e-001 -2.085443e-015
    endloop
  endfacet
  facet normal -9.030234e-014 -5.213608e-014 -1.000000e+000
    outer loop
      vertex  9.814955e-002  1.700000e-001  0.000000e+000
      vertex  2.193931e-001 -2.842171e-017 -2.085443e-015
      vertex  1.962991e-001  4.263256e-017  0.000000e+000
    endloop
  endfacet
  facet normal -9.030233e-014  5.213607e-014 -1.000000e+000
    outer loop
      vertex  1.962991e-001  4.263256e-017  0.000000e+000
      vertex  2.193931e-001 -2.842171e-017 -2.085443e-015
      vertex  1.096966e-001 -1.900000e-001 -2.085443e-015
    endloop
  endfacet
  facet normal -9.030234e-014  5.213608e-014 -1.000000e+000
    outer loop
      vertex  1.962991e-001  4.263256e-017  0.000000e+000
      vertex  1.096966e-001 -1.900000e-001 -2.085443e-015
      vertex  9.814955e-002 -1.700000e-001  0.000000e+000
    endloop
  endfacet
  facet normal  0.000000e+000  1.042722e-013 -1.000000e+000
    outer loop
      vertex  9.814955e-002 -1.700000e-001  0.000000e+000
      vertex  1.096966e-001 -1.900000e-001 -2.085443e-015
      vertex -1.096966e-001 -1.900000e-001 -2.085443e-015
    endloop
  endfacet
  facet normal  0.000000e+000  1.042722e-013 -1.000000e+000
    outer loop
      vertex  9.814955e-002 -1.700000e-001  0.000000e+000
      vertex -1.096966e-001 -1.900000e-001 -2.085443e-015
      vertex -9.814955e-002 -1.700000e-001  0.000000e+000
    endloop
  endfacet
  facet normal -4.330128e-001  7.500000e-001  5.000001e-001
    outer loop
      vertex  1.383568e-001  1.003590e-001  1.037500e-001
      vertex  1.643376e-001  1.153590e-001  1.037500e-001
      vertex  1.239231e-001  1.253590e-001  5.375000e-002
    endloop
  endfacet
  facet normal -4.330128e-001  7.499999e-001  5.000001e-001
    outer loop
      vertex  1.239231e-001  1.253590e-001  5.375000e-002
      vertex  1.643376e-001  1.153590e-001  1.037500e-001
      vertex  1.444052e-001  1.371844e-001  5.375000e-002
    endloop
  endfacet
  facet normal  0.000000e+000  0.000000e+000  9.999999e-001
    outer loop
      vertex  4.660254e-002  1.936508e-001  5.375000e-002
      vertex  4.660254e-002  1.700000e-001  5.375000e-002
      vertex  1.118043e-001  1.936508e-001  5.375000e-002
    endloop
  endfacet
  facet normal  0.000000e+000  0.000000e+000  1.000000e+000
    outer loop
      vertex  1.118043e-001  1.936508e-001  5.375000e-002
      vertex  4.660254e-002  1.700000e-001  5.375000e-002
      vertex  9.814955e-002  1.700000e-001  5.375000e-002
    endloop
  endfacet
  facet normal  -0.000000e+000  0.000000e+000  1.000000e+000
    outer loop
      vertex  1.118043e-001  1.936508e-001  5.375000e-002
      vertex  9.814955e-002  1.700000e-001  5.375000e-002
      vertex  1.444052e-001  1.371844e-001  5.375000e-002
    endloop
  endfacet
  facet normal  0.000000e+000  0.000000e+000  1.000000e+000
    outer loop
      vertex  1.444052e-001  1.371844e-001  5.375000e-002
      vertex  9.814955e-002  1.700000e-001  5.375000e-002
      vertex  1.239231e-001  1.253590e-001  5.375000e-002
    endloop
  endfacet
  facet normal  4.330126e-001 -7.500001e-001  5.000000e-001
    outer loop
      vertex  1.560918e-001  6.964102e-002  1.037500e-001
      vertex  1.705256e-001  4.464102e-002  5.375000e-002
      vertex  1.820726e-001  8.464102e-002  1.037500e-001
    endloop
  endfacet
  facet normal  4.330125e-001 -7.500001e-001  5.000000e-001
    outer loop
      vertex  1.820726e-001  8.464102e-002  1.037500e-001
      vertex  1.705256e-001  4.464102e-002  5.375000e-002
      vertex  1.910078e-001  5.646642e-002  5.375000e-002
    endloop
  endfacet
  facet normal  -0.000000e+000  9.999999e-001  0.000000e+000
    outer loop
      vertex -9.814955e-002 -1.700000e-001  0.000000e+000
      vertex -9.814955e-002 -1.700000e-001  5.375000e-002
      vertex -4.660254e-002 -1.700000e-001  5.375000e-002
    endloop
  endfacet
  facet normal  -0.000000e+000  1.000000e+000  0.000000e+000
    outer loop
      vertex -9.814955e-002 -1.700000e-001  0.000000e+000
      vertex -4.660254e-002 -1.700000e-001  5.375000e-002
      vertex  4.660254e-002 -1.700000e-001  5.375000e-002
    endloop
  endfacet
  facet normal  -0.000000e+000  9.999999e-001  0.000000e+000
    outer loop
      vertex -9.814955e-002 -1.700000e-001  0.000000e+000
      vertex  4.660254e-002 -1.700000e-001  5.375000e-002
      vertex  9.814955e-002 -1.700000e-001  5.375000e-002
    endloop
  endfacet
  facet normal  0.000000e+000  1.000000e+000  0.000000e+000
    outer loop
      vertex -9.814955e-002 -1.700000e-001  0.000000e+000
      vertex  9.814955e-002 -1.700000e-001  5.375000e-002
      vertex  9.814955e-002 -1.700000e-001  0.000000e+000
    endloop
  endfacet
  facet normal  0.000000e+000  1.000000e+000  0.000000e+000
    outer loop
      vertex -1.773503e-002 -1.700000e-001  1.037500e-001
      vertex  1.773503e-002 -1.700000e-001  1.037500e-001
      vertex -4.660254e-002 -1.700000e-001  5.375000e-002
    endloop
  endfacet
  facet normal  0.000000e+000  1.000000e+000  0.000000e+000
    outer loop
      vertex -4.660254e-002 -1.700000e-001  5.375000e-002
      vertex  1.773503e-002 -1.700000e-001  1.037500e-001
      vertex  4.660254e-002 -1.700000e-001  5.375000e-002
    endloop
  endfacet
  facet normal  8.660254e-001  4.999999e-001 -2.643879e-016
    outer loop
      vertex -1.962991e-001  2.842171e-017  0.000000e+000
      vertex -1.962991e-001  5.684342e-017  5.375000e-002
      vertex -1.705256e-001 -4.464102e-002  5.375000e-002
    endloop
  endfacet
  facet normal  8.660254e-001  5.000000e-001  4.873287e-008
    outer loop
      vertex -1.962991e-001  2.842171e-017  0.000000e+000
      vertex -1.705256e-001 -4.464102e-002  5.375000e-002
      vertex -1.239231e-001 -1.253590e-001  5.375000e-002
    endloop
  endfacet
  facet normal  8.660253e-001  5.000000e-001  3.524667e-007
    outer loop
      vertex -1.962991e-001  2.842171e-017  0.000000e+000
      vertex -1.239231e-001 -1.253590e-001  5.375000e-002
      vertex -9.814955e-002 -1.700000e-001  5.375000e-002
    endloop
  endfacet
  facet normal  8.660254e-001  5.000000e-001  0.000000e+000
    outer loop
      vertex -1.962991e-001  2.842171e-017  0.000000e+000
      vertex -9.814955e-002 -1.700000e-001  5.375000e-002
      vertex -9.814955e-002 -1.700000e-001  0.000000e+000
    endloop
  endfacet
  facet normal  8.660256e-001  4.999997e-001 -3.097354e-007
    outer loop
      vertex -1.560918e-001 -6.964102e-002  1.037500e-001
      vertex -1.383568e-001 -1.003590e-001  1.037500e-001
      vertex -1.705256e-001 -4.464102e-002  5.375000e-002
    endloop
  endfacet
  facet normal  8.660254e-001  4.999999e-001  1.047757e-007
    outer loop
      vertex -1.705256e-001 -4.464102e-002  5.375000e-002
      vertex -1.383568e-001 -1.003590e-001  1.037500e-001
      vertex -1.239231e-001 -1.253590e-001  5.375000e-002
    endloop
  endfacet
  facet normal  8.660253e-001 -5.000000e-001  0.000000e+000
    outer loop
      vertex -9.814955e-002  1.700000e-001  0.000000e+000
      vertex -9.814955e-002  1.700000e-001  5.375000e-002
      vertex -1.239231e-001  1.253590e-001  5.375000e-002
    endloop
  endfacet
  facet normal  8.660254e-001 -5.000000e-001  1.461986e-007
    outer loop
      vertex -9.814955e-002  1.700000e-001  0.000000e+000
      vertex -1.239231e-001  1.253590e-001  5.375000e-002
      vertex -1.705256e-001  4.464102e-002  5.375000e-002
    endloop
  endfacet
  facet normal  8.660254e-001 -4.999999e-001  3.524667e-007
    outer loop
      vertex -9.814955e-002  1.700000e-001  0.000000e+000
      vertex -1.705256e-001  4.464102e-002  5.375000e-002
      vertex -1.962991e-001  5.684342e-017  5.375000e-002
    endloop
  endfacet
  facet normal  8.660254e-001 -5.000000e-001  2.643880e-016
    outer loop
      vertex -9.814955e-002  1.700000e-001  0.000000e+000
      vertex -1.962991e-001  5.684342e-017  5.375000e-002
      vertex -1.962991e-001  2.842171e-017  0.000000e+000
    endloop
  endfacet
  facet normal  8.660256e-001 -4.999997e-001  2.753203e-007
    outer loop
      vertex -1.383568e-001  1.003590e-001  1.037500e-001
      vertex -1.560918e-001  6.964102e-002  1.037500e-001
      vertex -1.239231e-001  1.253590e-001  5.375000e-002
    endloop
  endfacet
  facet normal  8.660254e-001 -4.999999e-001 -1.047757e-007
    outer loop
      vertex -1.239231e-001  1.253590e-001  5.375000e-002
      vertex -1.560918e-001  6.964102e-002  1.037500e-001
      vertex -1.705256e-001  4.464102e-002  5.375000e-002
    endloop
  endfacet
  facet normal  -0.000000e+000 -9.999999e-001  -0.000000e+000
    outer loop
      vertex  9.814955e-002  1.700000e-001  0.000000e+000
      vertex  9.814955e-002  1.700000e-001  5.375000e-002
      vertex  4.660254e-002  1.700000e-001  5.375000e-002
    endloop
  endfacet
  facet normal  -0.000000e+000 -1.000000e+000  -0.000000e+000
    outer loop
      vertex  9.814955e-002  1.700000e-001  0.000000e+000
      vertex  4.660254e-002  1.700000e-001  5.375000e-002
      vertex -4.660254e-002  1.700000e-001  5.375000e-002
    endloop
  endfacet
  facet normal  -0.000000e+000 -9.999999e-001  -0.000000e+000
    outer loop
      vertex  9.814955e-002  1.700000e-001  0.000000e+000
      vertex -4.660254e-002  1.700000e-001  5.375000e-002
      vertex -9.814955e-002  1.700000e-001  5.375000e-002
    endloop
  endfacet
  facet normal  0.000000e+000 -1.000000e+000  0.000000e+000
    outer loop
      vertex  9.814955e-002  1.700000e-001  0.000000e+000
      vertex -9.814955e-002  1.700000e-001  5.375000e-002
      vertex -9.814955e-002  1.700000e-001  0.000000e+000
    endloop
  endfacet
  facet normal  0.000000e+000 -1.000000e+000  0.000000e+000
    outer loop
      vertex  1.773503e-002  1.700000e-001  1.037500e-001
      vertex -1.773503e-002  1.700000e-001  1.037500e-001
      vertex  4.660254e-002  1.700000e-001  5.375000e-002
    endloop
  endfacet
  facet normal  0.000000e+000 -1.000000e+000  0.000000e+000
    outer loop
      vertex  4.660254e-002  1.700000e-001  5.375000e-002
      vertex -1.773503e-002  1.700000e-001  1.037500e-001
      vertex -4.660254e-002  1.700000e-001  5.375000e-002
    endloop
  endfacet
  facet normal -8.660254e-001 -4.999999e-001 -1.189746e-015
    outer loop
      vertex  1.962991e-001  4.263256e-017  0.000000e+000
      vertex  1.962991e-001 -8.526513e-017  5.375000e-002
      vertex  1.705256e-001  4.464102e-002  5.375000e-002
    endloop
  endfacet
  facet normal -8.660254e-001 -5.000000e-001  4.873287e-008
    outer loop
      vertex  1.962991e-001  4.263256e-017  0.000000e+000
      vertex  1.705256e-001  4.464102e-002  5.375000e-002
      vertex  1.239231e-001  1.253590e-001  5.375000e-002
    endloop
  endfacet
  facet normal -8.660253e-001 -5.000000e-001  3.524667e-007
    outer loop
      vertex  1.962991e-001  4.263256e-017  0.000000e+000
      vertex  1.239231e-001  1.253590e-001  5.375000e-002
      vertex  9.814955e-002  1.700000e-001  5.375000e-002
    endloop
  endfacet
  facet normal -8.660254e-001 -5.000000e-001  -0.000000e+000
    outer loop
      vertex  1.962991e-001  4.263256e-017  0.000000e+000
      vertex  9.814955e-002  1.700000e-001  5.375000e-002
      vertex  9.814955e-002  1.700000e-001  0.000000e+000
    endloop
  endfacet
  facet normal -8.660256e-001 -4.999997e-001 -3.097354e-007
    outer loop
      vertex  1.560918e-001  6.964102e-002  1.037500e-001
      vertex  1.383568e-001  1.003590e-001  1.037500e-001
      vertex  1.705256e-001  4.464102e-002  5.375000e-002
    endloop
  endfacet
  facet normal -8.660254e-001 -4.999999e-001  1.047757e-007
    outer loop
      vertex  1.705256e-001  4.464102e-002  5.375000e-002
      vertex  1.383568e-001  1.003590e-001  1.037500e-001
      vertex  1.239231e-001  1.253590e-001  5.375000e-002
    endloop
  endfacet
  facet normal -8.660253e-001  5.000000e-001  0.000000e+000
    outer loop
      vertex  9.814955e-002 -1.700000e-001  0.000000e+000
      vertex  9.814955e-002 -1.700000e-001  5.375000e-002
      vertex  1.239231e-001 -1.253590e-001  5.375000e-002
    endloop
  endfacet
  facet normal -8.660254e-001  5.000000e-001  1.461986e-007
    outer loop
      vertex  9.814955e-002 -1.700000e-001  0.000000e+000
      vertex  1.239231e-001 -1.253590e-001  5.375000e-002
      vertex  1.705256e-001 -4.464102e-002  5.375000e-002
    endloop
  endfacet
  facet normal -8.660254e-001  4.999999e-001  3.524667e-007
    outer loop
      vertex  9.814955e-002 -1.700000e-001  0.000000e+000
      vertex  1.705256e-001 -4.464102e-002  5.375000e-002
      vertex  1.962991e-001 -8.526513e-017  5.375000e-002
    endloop
  endfacet
  facet normal -8.660254e-001  5.000000e-001  1.189746e-015
    outer loop
      vertex  9.814955e-002 -1.700000e-001  0.000000e+000
      vertex  1.962991e-001 -8.526513e-017  5.375000e-002
      vertex  1.962991e-001  4.263256e-017  0.000000e+000
    endloop
  endfacet
  facet normal -8.660256e-001  4.999997e-001  2.753203e-007
    outer loop
      vertex  1.383568e-001 -1.003590e-001  1.037500e-001
      vertex  1.560918e-001 -6.964102e-002  1.037500e-001
      vertex  1.239231e-001 -1.253590e-001  5.375000e-002
    endloop
  endfacet
  facet normal -8.660254e-001  4.999999e-001 -1.047757e-007
    outer loop
      vertex  1.239231e-001 -1.253590e-001  5.375000e-002
      vertex  1.560918e-001 -6.964102e-002  1.037500e-001
      vertex  1.705256e-001 -4.464102e-002  5.375000e-002
    endloop
  endfacet
  facet normal  8.660254e-001  5.000000e-001  -0.000000e+000
    outer loop
      vertex  2.193931e-001 -2.842171e-017  2.500000e-002
      vertex  2.193931e-001 -2.842171e-017 -2.085443e-015
      vertex  1.096966e-001  1.900000e-001  2.500000e-002
    endloop
  endfacet
  facet normal  8.660254e-001  5.000000e-001  0.000000e+000
    outer loop
      vertex  1.096966e-001  1.900000e-001  2.500000e-002
      vertex  2.193931e-001 -2.842171e-017 -2.085443e-015
      vertex  1.096966e-001  1.900000e-001 -2.085443e-015
    endloop
  endfacet
  facet normal  8.591263e-001  4.960170e-001 -1.259725e-001
    outer loop
      vertex  1.096966e-001  1.900000e-001  2.500000e-002
      vertex  1.118043e-001  1.936508e-001  5.375000e-002
      vertex  1.444052e-001  1.371844e-001  5.375000e-002
    endloop
  endfacet
  facet normal  8.591264e-001  4.960168e-001 -1.259730e-001
    outer loop
      vertex  1.096966e-001  1.900000e-001  2.500000e-002
      vertex  1.444052e-001  1.371844e-001  5.375000e-002
      vertex  1.910078e-001  5.646642e-002  5.375000e-002
    endloop
  endfacet
  facet normal  8.591264e-001  4.960167e-001 -1.259732e-001
    outer loop
      vertex  1.096966e-001  1.900000e-001  2.500000e-002
      vertex  1.910078e-001  5.646642e-002  5.375000e-002
      vertex  2.236087e-001 -7.105428e-017  5.375000e-002
    endloop
  endfacet
  facet normal  8.591264e-001  4.960169e-001 -1.259726e-001
    outer loop
      vertex  1.096966e-001  1.900000e-001  2.500000e-002
      vertex  2.236087e-001 -7.105428e-017  5.375000e-002
      vertex  2.193931e-001 -2.842171e-017  2.500000e-002
    endloop
  endfacet
  facet normal  8.591263e-001  4.960169e-001 -1.259724e-001
    outer loop
      vertex  1.643376e-001  1.153590e-001  1.037500e-001
      vertex  1.820726e-001  8.464102e-002  1.037500e-001
      vertex  1.444052e-001  1.371844e-001  5.375000e-002
    endloop
  endfacet
  facet normal  8.591264e-001  4.960168e-001 -1.259725e-001
    outer loop
      vertex  1.444052e-001  1.371844e-001  5.375000e-002
      vertex  1.820726e-001  8.464102e-002  1.037500e-001
      vertex  1.910078e-001  5.646642e-002  5.375000e-002
    endloop
  endfacet
  facet normal  0.000000e+000  9.920338e-001 -1.259723e-001
    outer loop
      vertex -1.096966e-001  1.900000e-001  2.500000e-002
      vertex -1.118043e-001  1.936508e-001  5.375000e-002
      vertex -4.660254e-002  1.936508e-001  5.375000e-002
    endloop
  endfacet
  facet normal  0.000000e+000  9.920338e-001 -1.259723e-001
    outer loop
      vertex -1.096966e-001  1.900000e-001  2.500000e-002
      vertex -4.660254e-002  1.936508e-001  5.375000e-002
      vertex  4.660254e-002  1.936508e-001  5.375000e-002
    endloop
  endfacet
  facet normal  0.000000e+000  9.920338e-001 -1.259723e-001
    outer loop
      vertex -1.096966e-001  1.900000e-001  2.500000e-002
      vertex  4.660254e-002  1.936508e-001  5.375000e-002
      vertex  1.118043e-001  1.936508e-001  5.375000e-002
    endloop
  endfacet
  facet normal  0.000000e+000  9.920337e-001 -1.259723e-001
    outer loop
      vertex -1.096966e-001  1.900000e-001  2.500000e-002
      vertex  1.118043e-001  1.936508e-001  5.375000e-002
      vertex  1.096966e-001  1.900000e-001  2.500000e-002
    endloop
  endfacet
  facet normal  0.000000e+000  9.920337e-001 -1.259727e-001
    outer loop
      vertex -1.773503e-002  2.000000e-001  1.037500e-001
      vertex  1.773503e-002  2.000000e-001  1.037500e-001
      vertex -4.660254e-002  1.936508e-001  5.375000e-002
    endloop
  endfacet
  facet normal  0.000000e+000  9.920337e-001 -1.259727e-001
    outer loop
      vertex -4.660254e-002  1.936508e-001  5.375000e-002
      vertex  1.773503e-002  2.000000e-001  1.037500e-001
      vertex  4.660254e-002  1.936508e-001  5.375000e-002
    endloop
  endfacet
  facet normal  0.000000e+000  1.000000e+000  -0.000000e+000
    outer loop
      vertex  1.096966e-001  1.900000e-001  2.500000e-002
      vertex  1.096966e-001  1.900000e-001 -2.085443e-015
      vertex -1.096966e-001  1.900000e-001  2.500000e-002
    endloop
  endfacet
  facet normal  0.000000e+000  1.000000e+000  0.000000e+000
    outer loop
      vertex -1.096966e-001  1.900000e-001  2.500000e-002
      vertex  1.096966e-001  1.900000e-001 -2.085443e-015
      vertex -1.096966e-001  1.900000e-001 -2.085443e-015
    endloop
  endfacet
  facet normal  8.591263e-001 -4.960169e-001 -1.259726e-001
    outer loop
      vertex  1.910078e-001 -5.646642e-002  5.375000e-002
      vertex  1.820726e-001 -8.464102e-002  1.037500e-001
      vertex  1.643376e-001 -1.153590e-001  1.037500e-001
    endloop
  endfacet
  facet normal  8.591264e-001 -4.960168e-001 -1.259725e-001
    outer loop
      vertex  1.910078e-001 -5.646642e-002  5.375000e-002
      vertex  1.643376e-001 -1.153590e-001  1.037500e-001
      vertex  1.444052e-001 -1.371844e-001  5.375000e-002
    endloop
  endfacet
  facet normal  8.591264e-001 -4.960169e-001 -1.259727e-001
    outer loop
      vertex  1.910078e-001 -5.646642e-002  5.375000e-002
      vertex  1.444052e-001 -1.371844e-001  5.375000e-002
      vertex  2.193931e-001 -2.842171e-017  2.500000e-002
    endloop
  endfacet
  facet normal  8.591264e-001 -4.960168e-001 -1.259726e-001
    outer loop
      vertex  1.910078e-001 -5.646642e-002  5.375000e-002
      vertex  2.193931e-001 -2.842171e-017  2.500000e-002
      vertex  2.236087e-001 -7.105428e-017  5.375000e-002
    endloop
  endfacet
  facet normal  8.591262e-001 -4.960169e-001 -1.259742e-001
    outer loop
      vertex  1.444052e-001 -1.371844e-001  5.375000e-002
      vertex  1.118043e-001 -1.936508e-001  5.375000e-002
      vertex  2.193931e-001 -2.842171e-017  2.500000e-002
    endloop
  endfacet
  facet normal  8.591264e-001 -4.960169e-001 -1.259722e-001
    outer loop
      vertex  2.193931e-001 -2.842171e-017  2.500000e-002
      vertex  1.118043e-001 -1.936508e-001  5.375000e-002
      vertex  1.096966e-001 -1.900000e-001  2.500000e-002
    endloop
  endfacet
  facet normal  8.660254e-001 -5.000000e-001  0.000000e+000
    outer loop
      vertex  1.096966e-001 -1.900000e-001  2.500000e-002
      vertex  1.096966e-001 -1.900000e-001 -2.085443e-015
      vertex  2.193931e-001 -2.842171e-017  2.500000e-002
    endloop
  endfacet
  facet normal  8.660254e-001 -5.000000e-001  0.000000e+000
    outer loop
      vertex  2.193931e-001 -2.842171e-017  2.500000e-002
      vertex  1.096966e-001 -1.900000e-001 -2.085443e-015
      vertex  2.193931e-001 -2.842171e-017 -2.085443e-015
    endloop
  endfacet
  facet normal  -0.000000e+000 -9.920337e-001 -1.259727e-001
    outer loop
      vertex  4.660254e-002 -1.936508e-001  5.375000e-002
      vertex  1.773503e-002 -2.000000e-001  1.037500e-001
      vertex -1.773503e-002 -2.000000e-001  1.037500e-001
    endloop
  endfacet
  facet normal  0.000000e+000 -9.920337e-001 -1.259727e-001
    outer loop
      vertex  4.660254e-002 -1.936508e-001  5.375000e-002
      vertex -1.773503e-002 -2.000000e-001  1.037500e-001
      vertex -4.660254e-002 -1.936508e-001  5.375000e-002
    endloop
  endfacet
  facet normal  0.000000e+000 -9.920338e-001 -1.259723e-001
    outer loop
      vertex  4.660254e-002 -1.936508e-001  5.375000e-002
      vertex -4.660254e-002 -1.936508e-001  5.375000e-002
      vertex  1.096966e-001 -1.900000e-001  2.500000e-002
    endloop
  endfacet
  facet normal  0.000000e+000 -9.920338e-001 -1.259723e-001
    outer loop
      vertex  4.660254e-002 -1.936508e-001  5.375000e-002
      vertex  1.096966e-001 -1.900000e-001  2.500000e-002
      vertex  1.118043e-001 -1.936508e-001  5.375000e-002
    endloop
  endfacet
  facet normal  0.000000e+000 -9.920338e-001 -1.259723e-001
    outer loop
      vertex -4.660254e-002 -1.936508e-001  5.375000e-002
      vertex -1.118043e-001 -1.936508e-001  5.375000e-002
      vertex  1.096966e-001 -1.900000e-001  2.500000e-002
    endloop
  endfacet
  facet normal  -0.000000e+000 -9.920338e-001 -1.259723e-001
    outer loop
      vertex  1.096966e-001 -1.900000e-001  2.500000e-002
      vertex -1.118043e-001 -1.936508e-001  5.375000e-002
      vertex -1.096966e-001 -1.900000e-001  2.500000e-002
    endloop
  endfacet
  facet normal  0.000000e+000 -1.000000e+000  0.000000e+000
    outer loop
      vertex -1.096966e-001 -1.900000e-001  2.500000e-002
      vertex -1.096966e-001 -1.900000e-001 -2.085443e-015
      vertex  1.096966e-001 -1.900000e-001  2.500000e-002
    endloop
  endfacet
  facet normal  0.000000e+000 -1.000000e+000  -0.000000e+000
    outer loop
      vertex  1.096966e-001 -1.900000e-001  2.500000e-002
      vertex -1.096966e-001 -1.900000e-001 -2.085443e-015
      vertex  1.096966e-001 -1.900000e-001 -2.085443e-015
    endloop
  endfacet
  facet normal -8.591263e-001 -4.960169e-001 -1.259724e-001
    outer loop
      vertex -1.444052e-001 -1.371844e-001  5.375000e-002
      vertex -1.643376e-001 -1.153590e-001  1.037500e-001
      vertex -1.820726e-001 -8.464102e-002  1.037500e-001
    endloop
  endfacet
  facet normal -8.591264e-001 -4.960168e-001 -1.259725e-001
    outer loop
      vertex -1.444052e-001 -1.371844e-001  5.375000e-002
      vertex -1.820726e-001 -8.464102e-002  1.037500e-001
      vertex -1.910078e-001 -5.646642e-002  5.375000e-002
    endloop
  endfacet
  facet normal -8.591264e-001 -4.960168e-001 -1.259730e-001
    outer loop
      vertex -1.444052e-001 -1.371844e-001  5.375000e-002
      vertex -1.910078e-001 -5.646642e-002  5.375000e-002
      vertex -1.096966e-001 -1.900000e-001  2.500000e-002
    endloop
  endfacet
  facet normal -8.591263e-001 -4.960170e-001 -1.259725e-001
    outer loop
      vertex -1.444052e-001 -1.371844e-001  5.375000e-002
      vertex -1.096966e-001 -1.900000e-001  2.500000e-002
      vertex -1.118043e-001 -1.936508e-001  5.375000e-002
    endloop
  endfacet
  facet normal -8.591264e-001 -4.960167e-001 -1.259732e-001
    outer loop
      vertex -1.910078e-001 -5.646642e-002  5.375000e-002
      vertex -2.236087e-001  2.842171e-017  5.375000e-002
      vertex -1.096966e-001 -1.900000e-001  2.500000e-002
    endloop
  endfacet
  facet normal -8.591264e-001 -4.960169e-001 -1.259725e-001
    outer loop
      vertex -1.096966e-001 -1.900000e-001  2.500000e-002
      vertex -2.236087e-001  2.842171e-017  5.375000e-002
      vertex -2.193931e-001  2.842171e-017  2.500000e-002
    endloop
  endfacet
  facet normal -8.660254e-001 -5.000000e-001  2.842171e-016
    outer loop
      vertex -2.193931e-001  2.842171e-017  2.500000e-002
      vertex -2.193931e-001  1.421086e-017 -2.085443e-015
      vertex -1.096966e-001 -1.900000e-001  2.500000e-002
    endloop
  endfacet
  facet normal -8.660254e-001 -5.000000e-001  -0.000000e+000
    outer loop
      vertex -1.096966e-001 -1.900000e-001  2.500000e-002
      vertex -2.193931e-001  1.421086e-017 -2.085443e-015
      vertex -1.096966e-001 -1.900000e-001 -2.085443e-015
    endloop
  endfacet
  facet normal -8.591263e-001  4.960169e-001 -1.259726e-001
    outer loop
      vertex -1.910078e-001  5.646642e-002  5.375000e-002
      vertex -1.820726e-001  8.464102e-002  1.037500e-001
      vertex -1.643376e-001  1.153590e-001  1.037500e-001
    endloop
  endfacet
  facet normal -8.591264e-001  4.960168e-001 -1.259725e-001
    outer loop
      vertex -1.910078e-001  5.646642e-002  5.375000e-002
      vertex -1.643376e-001  1.153590e-001  1.037500e-001
      vertex -1.444052e-001  1.371844e-001  5.375000e-002
    endloop
  endfacet
  facet normal -8.591264e-001  4.960169e-001 -1.259727e-001
    outer loop
      vertex -1.910078e-001  5.646642e-002  5.375000e-002
      vertex -1.444052e-001  1.371844e-001  5.375000e-002
      vertex -2.193931e-001  2.842171e-017  2.500000e-002
    endloop
  endfacet
  facet normal -8.591264e-001  4.960168e-001 -1.259726e-001
    outer loop
      vertex -1.910078e-001  5.646642e-002  5.375000e-002
      vertex -2.193931e-001  2.842171e-017  2.500000e-002
      vertex -2.236087e-001  2.842171e-017  5.375000e-002
    endloop
  endfacet
  facet normal -8.591262e-001  4.960169e-001 -1.259742e-001
    outer loop
      vertex -1.444052e-001  1.371844e-001  5.375000e-002
      vertex -1.118043e-001  1.936508e-001  5.375000e-002
      vertex -2.193931e-001  2.842171e-017  2.500000e-002
    endloop
  endfacet
  facet normal -8.591264e-001  4.960169e-001 -1.259722e-001
    outer loop
      vertex -2.193931e-001  2.842171e-017  2.500000e-002
      vertex -1.118043e-001  1.936508e-001  5.375000e-002
      vertex -1.096966e-001  1.900000e-001  2.500000e-002
    endloop
  endfacet
  facet normal -8.660254e-001  5.000000e-001  0.000000e+000
    outer loop
      vertex -1.096966e-001  1.900000e-001  2.500000e-002
      vertex -1.096966e-001  1.900000e-001 -2.085443e-015
      vertex -2.193931e-001  2.842171e-017  2.500000e-002
    endloop
  endfacet
  facet normal -8.660254e-001  5.000000e-001 -2.842171e-016
    outer loop
      vertex -2.193931e-001  2.842171e-017  2.500000e-002
      vertex -1.096966e-001  1.900000e-001 -2.085443e-015
      vertex -2.193931e-001  1.421086e-017 -2.085443e-015
    endloop
  endfacet
endsolid CATIA STL
