solid CATIA STL
  facet normal  0.000000e+000  0.000000e+000 -1.000000e+000
    outer loop
      vertex -1.443376e-001  4.500000e-001 -1.600000e+000
      vertex -4.618802e-001 -2.000000e-001 -1.600000e+000
      vertex -5.196152e-001 -2.000000e-001 -1.600000e+000
    endloop
  endfacet
  facet normal  0.000000e+000  0.000000e+000 -1.000000e+000
    outer loop
      vertex -5.196152e-001 -2.000000e-001 -1.600000e+000
      vertex -4.618802e-001 -2.000000e-001 -1.600000e+000
      vertex -3.464102e-001 -4.000000e-001 -1.600000e+000
    endloop
  endfacet
  facet normal  -0.000000e+000  0.000000e+000 -1.000000e+000
    outer loop
      vertex -5.196152e-001 -2.000000e-001 -1.600000e+000
      vertex -3.464102e-001 -4.000000e-001 -1.600000e+000
      vertex -3.752777e-001 -4.500000e-001 -1.600000e+000
    endloop
  endfacet
  facet normal  0.000000e+000  0.000000e+000 -1.000000e+000
    outer loop
      vertex -3.752777e-001 -4.500000e-001 -1.600000e+000
      vertex -3.464102e-001 -4.000000e-001 -1.600000e+000
      vertex  3.464102e-001 -4.000000e-001 -1.600000e+000
    endloop
  endfacet
  facet normal  0.000000e+000  -0.000000e+000 -1.000000e+000
    outer loop
      vertex -3.752777e-001 -4.500000e-001 -1.600000e+000
      vertex  3.464102e-001 -4.000000e-001 -1.600000e+000
      vertex  3.752777e-001 -4.500000e-001 -1.600000e+000
    endloop
  endfacet
  facet normal  0.000000e+000  -0.000000e+000 -1.000000e+000
    outer loop
      vertex -4.618802e-001 -2.000000e-001 -1.600000e+000
      vertex -1.443376e-001  4.500000e-001 -1.600000e+000
      vertex -1.154701e-001  4.000000e-001 -1.600000e+000
    endloop
  endfacet
  facet normal  0.000000e+000  0.000000e+000 -1.000000e+000
    outer loop
      vertex -1.154701e-001  4.000000e-001 -1.600000e+000
      vertex -1.443376e-001  4.500000e-001 -1.600000e+000
      vertex  1.443376e-001  4.500000e-001 -1.600000e+000
    endloop
  endfacet
  facet normal  0.000000e+000  0.000000e+000 -1.000000e+000
    outer loop
      vertex -1.154701e-001  4.000000e-001 -1.600000e+000
      vertex  1.443376e-001  4.500000e-001 -1.600000e+000
      vertex  1.154701e-001  4.000000e-001 -1.600000e+000
    endloop
  endfacet
  facet normal  0.000000e+000  0.000000e+000 -9.999999e-001
    outer loop
      vertex  1.154701e-001  4.000000e-001 -1.600000e+000
      vertex  1.443376e-001  4.500000e-001 -1.600000e+000
      vertex  5.196152e-001 -2.000000e-001 -1.600000e+000
    endloop
  endfacet
  facet normal  0.000000e+000  0.000000e+000 -1.000000e+000
    outer loop
      vertex  1.154701e-001  4.000000e-001 -1.600000e+000
      vertex  5.196152e-001 -2.000000e-001 -1.600000e+000
      vertex  4.618802e-001 -2.000000e-001 -1.600000e+000
    endloop
  endfacet
  facet normal  0.000000e+000  -0.000000e+000 -1.000000e+000
    outer loop
      vertex  4.618802e-001 -2.000000e-001 -1.600000e+000
      vertex  5.196152e-001 -2.000000e-001 -1.600000e+000
      vertex  3.752777e-001 -4.500000e-001 -1.600000e+000
    endloop
  endfacet
  facet normal  0.000000e+000  0.000000e+000 -1.000000e+000
    outer loop
      vertex  4.618802e-001 -2.000000e-001 -1.600000e+000
      vertex  3.752777e-001 -4.500000e-001 -1.600000e+000
      vertex  3.464102e-001 -4.000000e-001 -1.600000e+000
    endloop
  endfacet
  facet normal  0.000000e+000  0.000000e+000  1.000000e+000
    outer loop
      vertex  3.752777e-001 -4.500000e-001 -1.500000e+000
      vertex  3.464102e-001 -4.000000e-001 -1.500000e+000
      vertex -3.752777e-001 -4.500000e-001 -1.500000e+000
    endloop
  endfacet
  facet normal  0.000000e+000  0.000000e+000  1.000000e+000
    outer loop
      vertex -3.752777e-001 -4.500000e-001 -1.500000e+000
      vertex  3.464102e-001 -4.000000e-001 -1.500000e+000
      vertex -3.464102e-001 -4.000000e-001 -1.500000e+000
    endloop
  endfacet
  facet normal  0.000000e+000  0.000000e+000  1.000000e+000
    outer loop
      vertex -3.752777e-001 -4.500000e-001 -1.500000e+000
      vertex -3.464102e-001 -4.000000e-001 -1.500000e+000
      vertex -5.196152e-001 -2.000000e-001 -1.500000e+000
    endloop
  endfacet
  facet normal  -0.000000e+000  0.000000e+000  1.000000e+000
    outer loop
      vertex -5.196152e-001 -2.000000e-001 -1.500000e+000
      vertex -3.464102e-001 -4.000000e-001 -1.500000e+000
      vertex -4.618802e-001 -2.000000e-001 -1.500000e+000
    endloop
  endfacet
  facet normal  0.000000e+000  -0.000000e+000  1.000000e+000
    outer loop
      vertex -5.196152e-001 -2.000000e-001 -1.500000e+000
      vertex -4.618802e-001 -2.000000e-001 -1.500000e+000
      vertex -1.443376e-001  4.500000e-001 -1.500000e+000
    endloop
  endfacet
  facet normal  0.000000e+000  0.000000e+000  1.000000e+000
    outer loop
      vertex -1.443376e-001  4.500000e-001 -1.500000e+000
      vertex -4.618802e-001 -2.000000e-001 -1.500000e+000
      vertex -1.154701e-001  4.000000e-001 -1.500000e+000
    endloop
  endfacet
  facet normal  0.000000e+000  -0.000000e+000  1.000000e+000
    outer loop
      vertex -1.443376e-001  4.500000e-001 -1.500000e+000
      vertex -1.154701e-001  4.000000e-001 -1.500000e+000
      vertex  1.443376e-001  4.500000e-001 -1.500000e+000
    endloop
  endfacet
  facet normal  0.000000e+000  0.000000e+000  1.000000e+000
    outer loop
      vertex  1.443376e-001  4.500000e-001 -1.500000e+000
      vertex -1.154701e-001  4.000000e-001 -1.500000e+000
      vertex  1.154701e-001  4.000000e-001 -1.500000e+000
    endloop
  endfacet
  facet normal  -0.000000e+000  0.000000e+000  9.999999e-001
    outer loop
      vertex  1.443376e-001  4.500000e-001 -1.500000e+000
      vertex  1.154701e-001  4.000000e-001 -1.500000e+000
      vertex  5.196152e-001 -2.000000e-001 -1.500000e+000
    endloop
  endfacet
  facet normal  0.000000e+000  0.000000e+000  1.000000e+000
    outer loop
      vertex  5.196152e-001 -2.000000e-001 -1.500000e+000
      vertex  1.154701e-001  4.000000e-001 -1.500000e+000
      vertex  4.618802e-001 -2.000000e-001 -1.500000e+000
    endloop
  endfacet
  facet normal  -0.000000e+000  0.000000e+000  1.000000e+000
    outer loop
      vertex  5.196152e-001 -2.000000e-001 -1.500000e+000
      vertex  4.618802e-001 -2.000000e-001 -1.500000e+000
      vertex  3.752777e-001 -4.500000e-001 -1.500000e+000
    endloop
  endfacet
  facet normal  0.000000e+000  -0.000000e+000  1.000000e+000
    outer loop
      vertex  3.752777e-001 -4.500000e-001 -1.500000e+000
      vertex  4.618802e-001 -2.000000e-001 -1.500000e+000
      vertex  3.464102e-001 -4.000000e-001 -1.500000e+000
    endloop
  endfacet
  facet normal -8.660254e-001 -5.000000e-001  0.000000e+000
    outer loop
      vertex  4.618802e-001 -2.000000e-001 -1.500000e+000
      vertex  1.154701e-001  4.000000e-001 -1.500000e+000
      vertex  4.618802e-001 -2.000000e-001 -1.600000e+000
    endloop
  endfacet
  facet normal -8.660254e-001 -5.000000e-001  0.000000e+000
    outer loop
      vertex  4.618802e-001 -2.000000e-001 -1.600000e+000
      vertex  1.154701e-001  4.000000e-001 -1.500000e+000
      vertex  1.154701e-001  4.000000e-001 -1.600000e+000
    endloop
  endfacet
  facet normal  0.000000e+000 -1.000000e+000  0.000000e+000
    outer loop
      vertex  1.154701e-001  4.000000e-001 -1.500000e+000
      vertex -1.154701e-001  4.000000e-001 -1.500000e+000
      vertex  1.154701e-001  4.000000e-001 -1.600000e+000
    endloop
  endfacet
  facet normal  0.000000e+000 -1.000000e+000  0.000000e+000
    outer loop
      vertex  1.154701e-001  4.000000e-001 -1.600000e+000
      vertex -1.154701e-001  4.000000e-001 -1.500000e+000
      vertex -1.154701e-001  4.000000e-001 -1.600000e+000
    endloop
  endfacet
  facet normal  8.660254e-001 -5.000000e-001  0.000000e+000
    outer loop
      vertex -1.154701e-001  4.000000e-001 -1.500000e+000
      vertex -4.618802e-001 -2.000000e-001 -1.500000e+000
      vertex -1.154701e-001  4.000000e-001 -1.600000e+000
    endloop
  endfacet
  facet normal  8.660254e-001 -5.000000e-001  0.000000e+000
    outer loop
      vertex -1.154701e-001  4.000000e-001 -1.600000e+000
      vertex -4.618802e-001 -2.000000e-001 -1.500000e+000
      vertex -4.618802e-001 -2.000000e-001 -1.600000e+000
    endloop
  endfacet
  facet normal  8.660254e-001  5.000000e-001  0.000000e+000
    outer loop
      vertex -4.618802e-001 -2.000000e-001 -1.500000e+000
      vertex -3.464102e-001 -4.000000e-001 -1.500000e+000
      vertex -4.618802e-001 -2.000000e-001 -1.600000e+000
    endloop
  endfacet
  facet normal  8.660254e-001  5.000000e-001  0.000000e+000
    outer loop
      vertex -4.618802e-001 -2.000000e-001 -1.600000e+000
      vertex -3.464102e-001 -4.000000e-001 -1.500000e+000
      vertex -3.464102e-001 -4.000000e-001 -1.600000e+000
    endloop
  endfacet
  facet normal  0.000000e+000  1.000000e+000  0.000000e+000
    outer loop
      vertex -3.464102e-001 -4.000000e-001 -1.500000e+000
      vertex  3.464102e-001 -4.000000e-001 -1.500000e+000
      vertex -3.464102e-001 -4.000000e-001 -1.600000e+000
    endloop
  endfacet
  facet normal  0.000000e+000  1.000000e+000  0.000000e+000
    outer loop
      vertex -3.464102e-001 -4.000000e-001 -1.600000e+000
      vertex  3.464102e-001 -4.000000e-001 -1.500000e+000
      vertex  3.464102e-001 -4.000000e-001 -1.600000e+000
    endloop
  endfacet
  facet normal -8.660254e-001  5.000000e-001  0.000000e+000
    outer loop
      vertex  3.464102e-001 -4.000000e-001 -1.500000e+000
      vertex  4.618802e-001 -2.000000e-001 -1.500000e+000
      vertex  3.464102e-001 -4.000000e-001 -1.600000e+000
    endloop
  endfacet
  facet normal -8.660254e-001  5.000000e-001  0.000000e+000
    outer loop
      vertex  3.464102e-001 -4.000000e-001 -1.600000e+000
      vertex  4.618802e-001 -2.000000e-001 -1.500000e+000
      vertex  4.618802e-001 -2.000000e-001 -1.600000e+000
    endloop
  endfacet
  facet normal  0.000000e+000 -1.000000e+000  0.000000e+000
    outer loop
      vertex -3.752777e-001 -4.500000e-001 -1.500000e+000
      vertex -3.752777e-001 -4.500000e-001 -1.600000e+000
      vertex  3.752777e-001 -4.500000e-001 -1.500000e+000
    endloop
  endfacet
  facet normal  0.000000e+000 -1.000000e+000  -0.000000e+000
    outer loop
      vertex  3.752777e-001 -4.500000e-001 -1.500000e+000
      vertex -3.752777e-001 -4.500000e-001 -1.600000e+000
      vertex  3.752777e-001 -4.500000e-001 -1.600000e+000
    endloop
  endfacet
  facet normal -8.660254e-001 -5.000000e-001  0.000000e+000
    outer loop
      vertex -5.196152e-001 -2.000000e-001 -1.500000e+000
      vertex -5.196152e-001 -2.000000e-001 -1.600000e+000
      vertex -3.752777e-001 -4.500000e-001 -1.500000e+000
    endloop
  endfacet
  facet normal -8.660254e-001 -5.000000e-001  -0.000000e+000
    outer loop
      vertex -3.752777e-001 -4.500000e-001 -1.500000e+000
      vertex -5.196152e-001 -2.000000e-001 -1.600000e+000
      vertex -3.752777e-001 -4.500000e-001 -1.600000e+000
    endloop
  endfacet
  facet normal -8.660254e-001  5.000000e-001  0.000000e+000
    outer loop
      vertex -1.443376e-001  4.500000e-001 -1.500000e+000
      vertex -1.443376e-001  4.500000e-001 -1.600000e+000
      vertex -5.196152e-001 -2.000000e-001 -1.500000e+000
    endloop
  endfacet
  facet normal -8.660254e-001  5.000000e-001  0.000000e+000
    outer loop
      vertex -5.196152e-001 -2.000000e-001 -1.500000e+000
      vertex -1.443376e-001  4.500000e-001 -1.600000e+000
      vertex -5.196152e-001 -2.000000e-001 -1.600000e+000
    endloop
  endfacet
  facet normal  0.000000e+000  1.000000e+000  -0.000000e+000
    outer loop
      vertex  1.443376e-001  4.500000e-001 -1.500000e+000
      vertex  1.443376e-001  4.500000e-001 -1.600000e+000
      vertex -1.443376e-001  4.500000e-001 -1.500000e+000
    endloop
  endfacet
  facet normal  0.000000e+000  1.000000e+000  0.000000e+000
    outer loop
      vertex -1.443376e-001  4.500000e-001 -1.500000e+000
      vertex  1.443376e-001  4.500000e-001 -1.600000e+000
      vertex -1.443376e-001  4.500000e-001 -1.600000e+000
    endloop
  endfacet
  facet normal  8.660254e-001  5.000000e-001  -0.000000e+000
    outer loop
      vertex  5.196152e-001 -2.000000e-001 -1.500000e+000
      vertex  5.196152e-001 -2.000000e-001 -1.600000e+000
      vertex  1.443376e-001  4.500000e-001 -1.500000e+000
    endloop
  endfacet
  facet normal  8.660254e-001  5.000000e-001  0.000000e+000
    outer loop
      vertex  1.443376e-001  4.500000e-001 -1.500000e+000
      vertex  5.196152e-001 -2.000000e-001 -1.600000e+000
      vertex  1.443376e-001  4.500000e-001 -1.600000e+000
    endloop
  endfacet
  facet normal  8.660254e-001 -5.000000e-001  0.000000e+000
    outer loop
      vertex  3.752777e-001 -4.500000e-001 -1.500000e+000
      vertex  3.752777e-001 -4.500000e-001 -1.600000e+000
      vertex  5.196152e-001 -2.000000e-001 -1.500000e+000
    endloop
  endfacet
  facet normal  8.660254e-001 -5.000000e-001  0.000000e+000
    outer loop
      vertex  5.196152e-001 -2.000000e-001 -1.500000e+000
      vertex  3.752777e-001 -4.500000e-001 -1.600000e+000
      vertex  5.196152e-001 -2.000000e-001 -1.600000e+000
    endloop
  endfacet
  facet normal  0.000000e+000  0.000000e+000  1.000000e+000
    outer loop
      vertex  3.752777e-001 -4.500000e-001  1.600000e+000
      vertex  3.464102e-001 -4.000000e-001  1.600000e+000
      vertex -3.752777e-001 -4.500000e-001  1.600000e+000
    endloop
  endfacet
  facet normal  0.000000e+000  0.000000e+000  1.000000e+000
    outer loop
      vertex -3.752777e-001 -4.500000e-001  1.600000e+000
      vertex  3.464102e-001 -4.000000e-001  1.600000e+000
      vertex -3.464102e-001 -4.000000e-001  1.600000e+000
    endloop
  endfacet
  facet normal  0.000000e+000  0.000000e+000  1.000000e+000
    outer loop
      vertex -3.752777e-001 -4.500000e-001  1.600000e+000
      vertex -3.464102e-001 -4.000000e-001  1.600000e+000
      vertex -5.196152e-001 -2.000000e-001  1.600000e+000
    endloop
  endfacet
  facet normal  -0.000000e+000  0.000000e+000  1.000000e+000
    outer loop
      vertex -5.196152e-001 -2.000000e-001  1.600000e+000
      vertex -3.464102e-001 -4.000000e-001  1.600000e+000
      vertex -4.618802e-001 -2.000000e-001  1.600000e+000
    endloop
  endfacet
  facet normal  0.000000e+000  -0.000000e+000  1.000000e+000
    outer loop
      vertex -5.196152e-001 -2.000000e-001  1.600000e+000
      vertex -4.618802e-001 -2.000000e-001  1.600000e+000
      vertex -1.443376e-001  4.500000e-001  1.600000e+000
    endloop
  endfacet
  facet normal  0.000000e+000  0.000000e+000  1.000000e+000
    outer loop
      vertex -1.443376e-001  4.500000e-001  1.600000e+000
      vertex -4.618802e-001 -2.000000e-001  1.600000e+000
      vertex -1.154701e-001  4.000000e-001  1.600000e+000
    endloop
  endfacet
  facet normal  0.000000e+000  -0.000000e+000  1.000000e+000
    outer loop
      vertex -1.443376e-001  4.500000e-001  1.600000e+000
      vertex -1.154701e-001  4.000000e-001  1.600000e+000
      vertex  1.443376e-001  4.500000e-001  1.600000e+000
    endloop
  endfacet
  facet normal  0.000000e+000  0.000000e+000  1.000000e+000
    outer loop
      vertex  1.443376e-001  4.500000e-001  1.600000e+000
      vertex -1.154701e-001  4.000000e-001  1.600000e+000
      vertex  1.154701e-001  4.000000e-001  1.600000e+000
    endloop
  endfacet
  facet normal  -0.000000e+000  0.000000e+000  9.999999e-001
    outer loop
      vertex  1.443376e-001  4.500000e-001  1.600000e+000
      vertex  1.154701e-001  4.000000e-001  1.600000e+000
      vertex  5.196152e-001 -2.000000e-001  1.600000e+000
    endloop
  endfacet
  facet normal  0.000000e+000  0.000000e+000  1.000000e+000
    outer loop
      vertex  5.196152e-001 -2.000000e-001  1.600000e+000
      vertex  1.154701e-001  4.000000e-001  1.600000e+000
      vertex  4.618802e-001 -2.000000e-001  1.600000e+000
    endloop
  endfacet
  facet normal  -0.000000e+000  0.000000e+000  1.000000e+000
    outer loop
      vertex  5.196152e-001 -2.000000e-001  1.600000e+000
      vertex  4.618802e-001 -2.000000e-001  1.600000e+000
      vertex  3.752777e-001 -4.500000e-001  1.600000e+000
    endloop
  endfacet
  facet normal  0.000000e+000  -0.000000e+000  1.000000e+000
    outer loop
      vertex  3.752777e-001 -4.500000e-001  1.600000e+000
      vertex  4.618802e-001 -2.000000e-001  1.600000e+000
      vertex  3.464102e-001 -4.000000e-001  1.600000e+000
    endloop
  endfacet
  facet normal  0.000000e+000  0.000000e+000 -1.000000e+000
    outer loop
      vertex -1.443376e-001  4.500000e-001  1.500000e+000
      vertex -4.618802e-001 -2.000000e-001  1.500000e+000
      vertex -5.196152e-001 -2.000000e-001  1.500000e+000
    endloop
  endfacet
  facet normal  0.000000e+000  0.000000e+000 -1.000000e+000
    outer loop
      vertex -5.196152e-001 -2.000000e-001  1.500000e+000
      vertex -4.618802e-001 -2.000000e-001  1.500000e+000
      vertex -3.464102e-001 -4.000000e-001  1.500000e+000
    endloop
  endfacet
  facet normal  -0.000000e+000  0.000000e+000 -1.000000e+000
    outer loop
      vertex -5.196152e-001 -2.000000e-001  1.500000e+000
      vertex -3.464102e-001 -4.000000e-001  1.500000e+000
      vertex -3.752777e-001 -4.500000e-001  1.500000e+000
    endloop
  endfacet
  facet normal  0.000000e+000  0.000000e+000 -1.000000e+000
    outer loop
      vertex -3.752777e-001 -4.500000e-001  1.500000e+000
      vertex -3.464102e-001 -4.000000e-001  1.500000e+000
      vertex  3.464102e-001 -4.000000e-001  1.500000e+000
    endloop
  endfacet
  facet normal  0.000000e+000  -0.000000e+000 -1.000000e+000
    outer loop
      vertex -3.752777e-001 -4.500000e-001  1.500000e+000
      vertex  3.464102e-001 -4.000000e-001  1.500000e+000
      vertex  3.752777e-001 -4.500000e-001  1.500000e+000
    endloop
  endfacet
  facet normal  0.000000e+000  -0.000000e+000 -1.000000e+000
    outer loop
      vertex -4.618802e-001 -2.000000e-001  1.500000e+000
      vertex -1.443376e-001  4.500000e-001  1.500000e+000
      vertex -1.154701e-001  4.000000e-001  1.500000e+000
    endloop
  endfacet
  facet normal  0.000000e+000  0.000000e+000 -1.000000e+000
    outer loop
      vertex -1.154701e-001  4.000000e-001  1.500000e+000
      vertex -1.443376e-001  4.500000e-001  1.500000e+000
      vertex  1.443376e-001  4.500000e-001  1.500000e+000
    endloop
  endfacet
  facet normal  0.000000e+000  0.000000e+000 -1.000000e+000
    outer loop
      vertex -1.154701e-001  4.000000e-001  1.500000e+000
      vertex  1.443376e-001  4.500000e-001  1.500000e+000
      vertex  1.154701e-001  4.000000e-001  1.500000e+000
    endloop
  endfacet
  facet normal  0.000000e+000  0.000000e+000 -9.999999e-001
    outer loop
      vertex  1.154701e-001  4.000000e-001  1.500000e+000
      vertex  1.443376e-001  4.500000e-001  1.500000e+000
      vertex  5.196152e-001 -2.000000e-001  1.500000e+000
    endloop
  endfacet
  facet normal  0.000000e+000  0.000000e+000 -1.000000e+000
    outer loop
      vertex  1.154701e-001  4.000000e-001  1.500000e+000
      vertex  5.196152e-001 -2.000000e-001  1.500000e+000
      vertex  4.618802e-001 -2.000000e-001  1.500000e+000
    endloop
  endfacet
  facet normal  0.000000e+000  -0.000000e+000 -1.000000e+000
    outer loop
      vertex  4.618802e-001 -2.000000e-001  1.500000e+000
      vertex  5.196152e-001 -2.000000e-001  1.500000e+000
      vertex  3.752777e-001 -4.500000e-001  1.500000e+000
    endloop
  endfacet
  facet normal  0.000000e+000  0.000000e+000 -1.000000e+000
    outer loop
      vertex  4.618802e-001 -2.000000e-001  1.500000e+000
      vertex  3.752777e-001 -4.500000e-001  1.500000e+000
      vertex  3.464102e-001 -4.000000e-001  1.500000e+000
    endloop
  endfacet
  facet normal -8.660254e-001 -5.000000e-001  0.000000e+000
    outer loop
      vertex  4.618802e-001 -2.000000e-001  1.600000e+000
      vertex  1.154701e-001  4.000000e-001  1.600000e+000
      vertex  4.618802e-001 -2.000000e-001  1.500000e+000
    endloop
  endfacet
  facet normal -8.660254e-001 -5.000000e-001  0.000000e+000
    outer loop
      vertex  4.618802e-001 -2.000000e-001  1.500000e+000
      vertex  1.154701e-001  4.000000e-001  1.600000e+000
      vertex  1.154701e-001  4.000000e-001  1.500000e+000
    endloop
  endfacet
  facet normal  0.000000e+000 -1.000000e+000  0.000000e+000
    outer loop
      vertex  1.154701e-001  4.000000e-001  1.600000e+000
      vertex -1.154701e-001  4.000000e-001  1.600000e+000
      vertex  1.154701e-001  4.000000e-001  1.500000e+000
    endloop
  endfacet
  facet normal  0.000000e+000 -1.000000e+000  0.000000e+000
    outer loop
      vertex  1.154701e-001  4.000000e-001  1.500000e+000
      vertex -1.154701e-001  4.000000e-001  1.600000e+000
      vertex -1.154701e-001  4.000000e-001  1.500000e+000
    endloop
  endfacet
  facet normal  8.660254e-001 -5.000000e-001  0.000000e+000
    outer loop
      vertex -1.154701e-001  4.000000e-001  1.600000e+000
      vertex -4.618802e-001 -2.000000e-001  1.600000e+000
      vertex -1.154701e-001  4.000000e-001  1.500000e+000
    endloop
  endfacet
  facet normal  8.660254e-001 -5.000000e-001  0.000000e+000
    outer loop
      vertex -1.154701e-001  4.000000e-001  1.500000e+000
      vertex -4.618802e-001 -2.000000e-001  1.600000e+000
      vertex -4.618802e-001 -2.000000e-001  1.500000e+000
    endloop
  endfacet
  facet normal  8.660254e-001  5.000000e-001  0.000000e+000
    outer loop
      vertex -4.618802e-001 -2.000000e-001  1.600000e+000
      vertex -3.464102e-001 -4.000000e-001  1.600000e+000
      vertex -4.618802e-001 -2.000000e-001  1.500000e+000
    endloop
  endfacet
  facet normal  8.660254e-001  5.000000e-001  0.000000e+000
    outer loop
      vertex -4.618802e-001 -2.000000e-001  1.500000e+000
      vertex -3.464102e-001 -4.000000e-001  1.600000e+000
      vertex -3.464102e-001 -4.000000e-001  1.500000e+000
    endloop
  endfacet
  facet normal  0.000000e+000  1.000000e+000  0.000000e+000
    outer loop
      vertex -3.464102e-001 -4.000000e-001  1.600000e+000
      vertex  3.464102e-001 -4.000000e-001  1.600000e+000
      vertex -3.464102e-001 -4.000000e-001  1.500000e+000
    endloop
  endfacet
  facet normal  0.000000e+000  1.000000e+000  0.000000e+000
    outer loop
      vertex -3.464102e-001 -4.000000e-001  1.500000e+000
      vertex  3.464102e-001 -4.000000e-001  1.600000e+000
      vertex  3.464102e-001 -4.000000e-001  1.500000e+000
    endloop
  endfacet
  facet normal -8.660254e-001  5.000000e-001  0.000000e+000
    outer loop
      vertex  3.464102e-001 -4.000000e-001  1.600000e+000
      vertex  4.618802e-001 -2.000000e-001  1.600000e+000
      vertex  3.464102e-001 -4.000000e-001  1.500000e+000
    endloop
  endfacet
  facet normal -8.660254e-001  5.000000e-001  0.000000e+000
    outer loop
      vertex  3.464102e-001 -4.000000e-001  1.500000e+000
      vertex  4.618802e-001 -2.000000e-001  1.600000e+000
      vertex  4.618802e-001 -2.000000e-001  1.500000e+000
    endloop
  endfacet
  facet normal  0.000000e+000 -1.000000e+000  0.000000e+000
    outer loop
      vertex -3.752777e-001 -4.500000e-001  1.600000e+000
      vertex -3.752777e-001 -4.500000e-001  1.500000e+000
      vertex  3.752777e-001 -4.500000e-001  1.600000e+000
    endloop
  endfacet
  facet normal  0.000000e+000 -1.000000e+000  -0.000000e+000
    outer loop
      vertex  3.752777e-001 -4.500000e-001  1.600000e+000
      vertex -3.752777e-001 -4.500000e-001  1.500000e+000
      vertex  3.752777e-001 -4.500000e-001  1.500000e+000
    endloop
  endfacet
  facet normal -8.660254e-001 -5.000000e-001  0.000000e+000
    outer loop
      vertex -5.196152e-001 -2.000000e-001  1.600000e+000
      vertex -5.196152e-001 -2.000000e-001  1.500000e+000
      vertex -3.752777e-001 -4.500000e-001  1.600000e+000
    endloop
  endfacet
  facet normal -8.660254e-001 -5.000000e-001  -0.000000e+000
    outer loop
      vertex -3.752777e-001 -4.500000e-001  1.600000e+000
      vertex -5.196152e-001 -2.000000e-001  1.500000e+000
      vertex -3.752777e-001 -4.500000e-001  1.500000e+000
    endloop
  endfacet
  facet normal -8.660254e-001  5.000000e-001  0.000000e+000
    outer loop
      vertex -1.443376e-001  4.500000e-001  1.600000e+000
      vertex -1.443376e-001  4.500000e-001  1.500000e+000
      vertex -5.196152e-001 -2.000000e-001  1.600000e+000
    endloop
  endfacet
  facet normal -8.660254e-001  5.000000e-001  0.000000e+000
    outer loop
      vertex -5.196152e-001 -2.000000e-001  1.600000e+000
      vertex -1.443376e-001  4.500000e-001  1.500000e+000
      vertex -5.196152e-001 -2.000000e-001  1.500000e+000
    endloop
  endfacet
  facet normal  0.000000e+000  1.000000e+000  -0.000000e+000
    outer loop
      vertex  1.443376e-001  4.500000e-001  1.600000e+000
      vertex  1.443376e-001  4.500000e-001  1.500000e+000
      vertex -1.443376e-001  4.500000e-001  1.600000e+000
    endloop
  endfacet
  facet normal  0.000000e+000  1.000000e+000  0.000000e+000
    outer loop
      vertex -1.443376e-001  4.500000e-001  1.600000e+000
      vertex  1.443376e-001  4.500000e-001  1.500000e+000
      vertex -1.443376e-001  4.500000e-001  1.500000e+000
    endloop
  endfacet
  facet normal  8.660254e-001  5.000000e-001  -0.000000e+000
    outer loop
      vertex  5.196152e-001 -2.000000e-001  1.600000e+000
      vertex  5.196152e-001 -2.000000e-001  1.500000e+000
      vertex  1.443376e-001  4.500000e-001  1.600000e+000
    endloop
  endfacet
  facet normal  8.660254e-001  5.000000e-001  0.000000e+000
    outer loop
      vertex  1.443376e-001  4.500000e-001  1.600000e+000
      vertex  5.196152e-001 -2.000000e-001  1.500000e+000
      vertex  1.443376e-001  4.500000e-001  1.500000e+000
    endloop
  endfacet
  facet normal  8.660254e-001 -5.000000e-001  0.000000e+000
    outer loop
      vertex  3.752777e-001 -4.500000e-001  1.600000e+000
      vertex  3.752777e-001 -4.500000e-001  1.500000e+000
      vertex  5.196152e-001 -2.000000e-001  1.600000e+000
    endloop
  endfacet
  facet normal  8.660254e-001 -5.000000e-001  0.000000e+000
    outer loop
      vertex  5.196152e-001 -2.000000e-001  1.600000e+000
      vertex  3.752777e-001 -4.500000e-001  1.500000e+000
      vertex  5.196152e-001 -2.000000e-001  1.500000e+000
    endloop
  endfacet
  facet normal  0.000000e+000  -0.000000e+000  9.999999e-001
    outer loop
      vertex -4.780683e-001 -2.519615e-001  1.510000e+000
      vertex -4.575779e-001 -2.574519e-001  1.510000e+000
      vertex -4.520875e-001 -2.369615e-001  1.510000e+000
    endloop
  endfacet
  facet normal  0.000000e+000  0.000000e+000  1.000000e+000
    outer loop
      vertex -4.780683e-001 -2.519615e-001  1.510000e+000
      vertex -4.520875e-001 -2.369615e-001  1.510000e+000
      vertex -4.734272e-001 -2.000000e-001  1.510000e+000
    endloop
  endfacet
  facet normal  0.000000e+000  0.000000e+000  1.000000e+000
    outer loop
      vertex -4.780683e-001 -2.519615e-001  1.510000e+000
      vertex -4.734272e-001 -2.000000e-001  1.510000e+000
      vertex -4.780683e-001 -1.480385e-001  1.510000e+000
    endloop
  endfacet
  facet normal  0.000000e+000  0.000000e+000  1.000000e+000
    outer loop
      vertex -4.780683e-001 -2.519615e-001  1.510000e+000
      vertex -4.780683e-001 -1.480385e-001  1.510000e+000
      vertex -5.080683e-001 -2.000000e-001  1.510000e+000
    endloop
  endfacet
  facet normal  -0.000000e+000  0.000000e+000  9.999999e-001
    outer loop
      vertex -4.575779e-001 -1.425481e-001  1.510000e+000
      vertex -4.780683e-001 -1.480385e-001  1.510000e+000
      vertex -4.520875e-001 -1.630385e-001  1.510000e+000
    endloop
  endfacet
  facet normal  0.000000e+000  0.000000e+000  1.000000e+000
    outer loop
      vertex -4.520875e-001 -1.630385e-001  1.510000e+000
      vertex -4.780683e-001 -1.480385e-001  1.510000e+000
      vertex -4.734272e-001 -2.000000e-001  1.510000e+000
    endloop
  endfacet
  facet normal -2.588192e-001 -9.659258e-001  -0.000000e+000
    outer loop
      vertex -4.575779e-001 -2.574519e-001 -1.510000e+000
      vertex -4.575779e-001 -2.574519e-001  1.510000e+000
      vertex -4.780683e-001 -2.519615e-001 -1.510000e+000
    endloop
  endfacet
  facet normal -2.588192e-001 -9.659258e-001  0.000000e+000
    outer loop
      vertex -4.780683e-001 -2.519615e-001 -1.510000e+000
      vertex -4.575779e-001 -2.574519e-001  1.510000e+000
      vertex -4.780683e-001 -2.519615e-001  1.510000e+000
    endloop
  endfacet
  facet normal -8.660254e-001 -5.000001e-001  -0.000000e+000
    outer loop
      vertex -4.780683e-001 -2.519615e-001 -1.510000e+000
      vertex -4.780683e-001 -2.519615e-001  1.510000e+000
      vertex -5.080683e-001 -2.000000e-001 -1.510000e+000
    endloop
  endfacet
  facet normal -8.660254e-001 -5.000001e-001  0.000000e+000
    outer loop
      vertex -5.080683e-001 -2.000000e-001 -1.510000e+000
      vertex -4.780683e-001 -2.519615e-001  1.510000e+000
      vertex -5.080683e-001 -2.000000e-001  1.510000e+000
    endloop
  endfacet
  facet normal -8.660254e-001  5.000001e-001  0.000000e+000
    outer loop
      vertex -5.080683e-001 -2.000000e-001 -1.510000e+000
      vertex -5.080683e-001 -2.000000e-001  1.510000e+000
      vertex -4.780683e-001 -1.480385e-001 -1.510000e+000
    endloop
  endfacet
  facet normal -8.660254e-001  5.000001e-001  0.000000e+000
    outer loop
      vertex -4.780683e-001 -1.480385e-001 -1.510000e+000
      vertex -5.080683e-001 -2.000000e-001  1.510000e+000
      vertex -4.780683e-001 -1.480385e-001  1.510000e+000
    endloop
  endfacet
  facet normal -2.588192e-001  9.659258e-001  0.000000e+000
    outer loop
      vertex -4.780683e-001 -1.480385e-001 -1.510000e+000
      vertex -4.780683e-001 -1.480385e-001  1.510000e+000
      vertex -4.575779e-001 -1.425481e-001 -1.510000e+000
    endloop
  endfacet
  facet normal -2.588192e-001  9.659258e-001  0.000000e+000
    outer loop
      vertex -4.575779e-001 -1.425481e-001 -1.510000e+000
      vertex -4.780683e-001 -1.480385e-001  1.510000e+000
      vertex -4.575779e-001 -1.425481e-001  1.510000e+000
    endloop
  endfacet
  facet normal  9.659258e-001  2.588192e-001  0.000000e+000
    outer loop
      vertex -4.575779e-001 -1.425481e-001 -1.510000e+000
      vertex -4.575779e-001 -1.425481e-001  1.510000e+000
      vertex -4.520875e-001 -1.630385e-001 -1.510000e+000
    endloop
  endfacet
  facet normal  9.659258e-001  2.588192e-001  -0.000000e+000
    outer loop
      vertex -4.520875e-001 -1.630385e-001 -1.510000e+000
      vertex -4.575779e-001 -1.425481e-001  1.510000e+000
      vertex -4.520875e-001 -1.630385e-001  1.510000e+000
    endloop
  endfacet
  facet normal  8.660253e-001 -5.000002e-001  0.000000e+000
    outer loop
      vertex -4.520875e-001 -1.630385e-001 -1.510000e+000
      vertex -4.520875e-001 -1.630385e-001  1.510000e+000
      vertex -4.734272e-001 -2.000000e-001 -1.510000e+000
    endloop
  endfacet
  facet normal  8.660253e-001 -5.000002e-001  0.000000e+000
    outer loop
      vertex -4.734272e-001 -2.000000e-001 -1.510000e+000
      vertex -4.520875e-001 -1.630385e-001  1.510000e+000
      vertex -4.734272e-001 -2.000000e-001  1.510000e+000
    endloop
  endfacet
  facet normal  8.660253e-001  5.000002e-001  0.000000e+000
    outer loop
      vertex -4.734272e-001 -2.000000e-001 -1.510000e+000
      vertex -4.734272e-001 -2.000000e-001  1.510000e+000
      vertex -4.520875e-001 -2.369615e-001 -1.510000e+000
    endloop
  endfacet
  facet normal  8.660253e-001  5.000002e-001  -0.000000e+000
    outer loop
      vertex -4.520875e-001 -2.369615e-001 -1.510000e+000
      vertex -4.734272e-001 -2.000000e-001  1.510000e+000
      vertex -4.520875e-001 -2.369615e-001  1.510000e+000
    endloop
  endfacet
  facet normal  9.659258e-001 -2.588192e-001  0.000000e+000
    outer loop
      vertex -4.520875e-001 -2.369615e-001 -1.510000e+000
      vertex -4.520875e-001 -2.369615e-001  1.510000e+000
      vertex -4.575779e-001 -2.574519e-001 -1.510000e+000
    endloop
  endfacet
  facet normal  9.659258e-001 -2.588192e-001  0.000000e+000
    outer loop
      vertex -4.575779e-001 -2.574519e-001 -1.510000e+000
      vertex -4.520875e-001 -2.369615e-001  1.510000e+000
      vertex -4.575779e-001 -2.574519e-001  1.510000e+000
    endloop
  endfacet
  facet normal  0.000000e+000  0.000000e+000 -9.999999e-001
    outer loop
      vertex -4.734272e-001 -2.000000e-001 -1.510000e+000
      vertex -5.080683e-001 -2.000000e-001 -1.510000e+000
      vertex -4.520875e-001 -1.630385e-001 -1.510000e+000
    endloop
  endfacet
  facet normal  -0.000000e+000  0.000000e+000 -1.000000e+000
    outer loop
      vertex -4.520875e-001 -1.630385e-001 -1.510000e+000
      vertex -5.080683e-001 -2.000000e-001 -1.510000e+000
      vertex -4.780683e-001 -1.480385e-001 -1.510000e+000
    endloop
  endfacet
  facet normal  0.000000e+000  0.000000e+000 -9.999999e-001
    outer loop
      vertex -4.520875e-001 -1.630385e-001 -1.510000e+000
      vertex -4.780683e-001 -1.480385e-001 -1.510000e+000
      vertex -4.575779e-001 -1.425481e-001 -1.510000e+000
    endloop
  endfacet
  facet normal  0.000000e+000  0.000000e+000 -9.999999e-001
    outer loop
      vertex -4.575779e-001 -2.574519e-001 -1.510000e+000
      vertex -4.780683e-001 -2.519615e-001 -1.510000e+000
      vertex -4.520875e-001 -2.369615e-001 -1.510000e+000
    endloop
  endfacet
  facet normal  -0.000000e+000  0.000000e+000 -1.000000e+000
    outer loop
      vertex -4.520875e-001 -2.369615e-001 -1.510000e+000
      vertex -4.780683e-001 -2.519615e-001 -1.510000e+000
      vertex -5.080683e-001 -2.000000e-001 -1.510000e+000
    endloop
  endfacet
  facet normal  0.000000e+000  0.000000e+000 -9.999999e-001
    outer loop
      vertex -4.520875e-001 -2.369615e-001 -1.510000e+000
      vertex -5.080683e-001 -2.000000e-001 -1.510000e+000
      vertex -4.734272e-001 -2.000000e-001 -1.510000e+000
    endloop
  endfacet
  facet normal  0.000000e+000  0.000000e+000  1.000000e+000
    outer loop
      vertex -3.521837e-001 -4.100000e-001  1.510000e+000
      vertex -3.695042e-001 -4.400000e-001  1.510000e+000
      vertex -3.095042e-001 -4.100000e-001  1.510000e+000
    endloop
  endfacet
  facet normal  0.000000e+000  0.000000e+000  1.000000e+000
    outer loop
      vertex -3.095042e-001 -4.100000e-001  1.510000e+000
      vertex -3.695042e-001 -4.400000e-001  1.510000e+000
      vertex -3.095042e-001 -4.400000e-001  1.510000e+000
    endloop
  endfacet
  facet normal  0.000000e+000  0.000000e+000  1.000000e+000
    outer loop
      vertex -3.095042e-001 -4.100000e-001  1.510000e+000
      vertex -3.095042e-001 -4.400000e-001  1.510000e+000
      vertex -2.945042e-001 -4.250000e-001  1.510000e+000
    endloop
  endfacet
  facet normal  0.000000e+000  0.000000e+000  1.000000e+000
    outer loop
      vertex -3.940138e-001 -3.675481e-001  1.510000e+000
      vertex -3.995042e-001 -3.880385e-001  1.510000e+000
      vertex -3.735234e-001 -3.730385e-001  1.510000e+000
    endloop
  endfacet
  facet normal  0.000000e+000  0.000000e+000  1.000000e+000
    outer loop
      vertex -3.735234e-001 -3.730385e-001  1.510000e+000
      vertex -3.995042e-001 -3.880385e-001  1.510000e+000
      vertex -3.695042e-001 -4.400000e-001  1.510000e+000
    endloop
  endfacet
  facet normal  0.000000e+000  -0.000000e+000  1.000000e+000
    outer loop
      vertex -3.735234e-001 -3.730385e-001  1.510000e+000
      vertex -3.695042e-001 -4.400000e-001  1.510000e+000
      vertex -3.521837e-001 -4.100000e-001  1.510000e+000
    endloop
  endfacet
  facet normal -8.660254e-001 -5.000001e-001  -0.000000e+000
    outer loop
      vertex -3.695042e-001 -4.400000e-001 -1.510000e+000
      vertex -3.695042e-001 -4.400000e-001  1.510000e+000
      vertex -3.995042e-001 -3.880385e-001 -1.510000e+000
    endloop
  endfacet
  facet normal -8.660254e-001 -5.000001e-001  0.000000e+000
    outer loop
      vertex -3.995042e-001 -3.880385e-001 -1.510000e+000
      vertex -3.695042e-001 -4.400000e-001  1.510000e+000
      vertex -3.995042e-001 -3.880385e-001  1.510000e+000
    endloop
  endfacet
  facet normal -9.659258e-001  2.588192e-001  0.000000e+000
    outer loop
      vertex -3.940138e-001 -3.675481e-001 -1.510000e+000
      vertex -3.995042e-001 -3.880385e-001 -1.510000e+000
      vertex -3.940138e-001 -3.675481e-001  1.510000e+000
    endloop
  endfacet
  facet normal -9.659258e-001  2.588192e-001  0.000000e+000
    outer loop
      vertex -3.940138e-001 -3.675481e-001  1.510000e+000
      vertex -3.995042e-001 -3.880385e-001 -1.510000e+000
      vertex -3.995042e-001 -3.880385e-001  1.510000e+000
    endloop
  endfacet
  facet normal  2.588192e-001  9.659258e-001  0.000000e+000
    outer loop
      vertex -3.735234e-001 -3.730385e-001 -1.510000e+000
      vertex -3.940138e-001 -3.675481e-001 -1.510000e+000
      vertex -3.735234e-001 -3.730385e-001  1.510000e+000
    endloop
  endfacet
  facet normal  2.588192e-001  9.659258e-001  0.000000e+000
    outer loop
      vertex -3.735234e-001 -3.730385e-001  1.510000e+000
      vertex -3.940138e-001 -3.675481e-001 -1.510000e+000
      vertex -3.940138e-001 -3.675481e-001  1.510000e+000
    endloop
  endfacet
  facet normal  8.660253e-001  5.000002e-001  0.000000e+000
    outer loop
      vertex -3.735234e-001 -3.730385e-001 -1.510000e+000
      vertex -3.735234e-001 -3.730385e-001  1.510000e+000
      vertex -3.521837e-001 -4.100000e-001 -1.510000e+000
    endloop
  endfacet
  facet normal  8.660253e-001  5.000002e-001  -0.000000e+000
    outer loop
      vertex -3.521837e-001 -4.100000e-001 -1.510000e+000
      vertex -3.735234e-001 -3.730385e-001  1.510000e+000
      vertex -3.521837e-001 -4.100000e-001  1.510000e+000
    endloop
  endfacet
  facet normal  0.000000e+000  1.000000e+000  0.000000e+000
    outer loop
      vertex -3.095042e-001 -4.100000e-001 -1.510000e+000
      vertex -3.521837e-001 -4.100000e-001 -1.510000e+000
      vertex -3.095042e-001 -4.100000e-001  1.510000e+000
    endloop
  endfacet
  facet normal  0.000000e+000  1.000000e+000  0.000000e+000
    outer loop
      vertex -3.095042e-001 -4.100000e-001  1.510000e+000
      vertex -3.521837e-001 -4.100000e-001 -1.510000e+000
      vertex -3.521837e-001 -4.100000e-001  1.510000e+000
    endloop
  endfacet
  facet normal  7.071068e-001  7.071068e-001  0.000000e+000
    outer loop
      vertex -2.945042e-001 -4.250000e-001 -1.510000e+000
      vertex -3.095042e-001 -4.100000e-001 -1.510000e+000
      vertex -2.945042e-001 -4.250000e-001  1.510000e+000
    endloop
  endfacet
  facet normal  7.071068e-001  7.071068e-001  0.000000e+000
    outer loop
      vertex -2.945042e-001 -4.250000e-001  1.510000e+000
      vertex -3.095042e-001 -4.100000e-001 -1.510000e+000
      vertex -3.095042e-001 -4.100000e-001  1.510000e+000
    endloop
  endfacet
  facet normal  7.071068e-001 -7.071068e-001  0.000000e+000
    outer loop
      vertex -3.095042e-001 -4.400000e-001 -1.510000e+000
      vertex -2.945042e-001 -4.250000e-001 -1.510000e+000
      vertex -3.095042e-001 -4.400000e-001  1.510000e+000
    endloop
  endfacet
  facet normal  7.071068e-001 -7.071068e-001  0.000000e+000
    outer loop
      vertex -3.095042e-001 -4.400000e-001  1.510000e+000
      vertex -2.945042e-001 -4.250000e-001 -1.510000e+000
      vertex -2.945042e-001 -4.250000e-001  1.510000e+000
    endloop
  endfacet
  facet normal  0.000000e+000 -1.000000e+000  0.000000e+000
    outer loop
      vertex -3.695042e-001 -4.400000e-001 -1.510000e+000
      vertex -3.095042e-001 -4.400000e-001 -1.510000e+000
      vertex -3.695042e-001 -4.400000e-001  1.510000e+000
    endloop
  endfacet
  facet normal  0.000000e+000 -1.000000e+000  0.000000e+000
    outer loop
      vertex -3.695042e-001 -4.400000e-001  1.510000e+000
      vertex -3.095042e-001 -4.400000e-001 -1.510000e+000
      vertex -3.095042e-001 -4.400000e-001  1.510000e+000
    endloop
  endfacet
  facet normal  0.000000e+000  0.000000e+000 -1.000000e+000
    outer loop
      vertex -2.945042e-001 -4.250000e-001 -1.510000e+000
      vertex -3.095042e-001 -4.400000e-001 -1.510000e+000
      vertex -3.695042e-001 -4.400000e-001 -1.510000e+000
    endloop
  endfacet
  facet normal  -0.000000e+000  0.000000e+000 -1.000000e+000
    outer loop
      vertex -3.995042e-001 -3.880385e-001 -1.510000e+000
      vertex -3.521837e-001 -4.100000e-001 -1.510000e+000
      vertex -3.695042e-001 -4.400000e-001 -1.510000e+000
    endloop
  endfacet
  facet normal  0.000000e+000  0.000000e+000 -1.000000e+000
    outer loop
      vertex -3.695042e-001 -4.400000e-001 -1.510000e+000
      vertex -3.521837e-001 -4.100000e-001 -1.510000e+000
      vertex -3.095042e-001 -4.100000e-001 -1.510000e+000
    endloop
  endfacet
  facet normal  0.000000e+000  -0.000000e+000 -1.000000e+000
    outer loop
      vertex -3.695042e-001 -4.400000e-001 -1.510000e+000
      vertex -3.095042e-001 -4.100000e-001 -1.510000e+000
      vertex -2.945042e-001 -4.250000e-001 -1.510000e+000
    endloop
  endfacet
  facet normal  0.000000e+000  -0.000000e+000 -1.000000e+000
    outer loop
      vertex -3.995042e-001 -3.880385e-001 -1.510000e+000
      vertex -3.940138e-001 -3.675481e-001 -1.510000e+000
      vertex -3.521837e-001 -4.100000e-001 -1.510000e+000
    endloop
  endfacet
  facet normal  0.000000e+000  0.000000e+000 -1.000000e+000
    outer loop
      vertex -3.521837e-001 -4.100000e-001 -1.510000e+000
      vertex -3.940138e-001 -3.675481e-001 -1.510000e+000
      vertex -3.735234e-001 -3.730385e-001 -1.510000e+000
    endloop
  endfacet
  facet normal  0.000000e+000  0.000000e+000  1.000000e+000
    outer loop
      vertex  3.995042e-001 -3.880385e-001  1.510000e+000
      vertex  3.940138e-001 -3.675481e-001  1.510000e+000
      vertex  3.695042e-001 -4.400000e-001  1.510000e+000
    endloop
  endfacet
  facet normal  0.000000e+000  0.000000e+000  1.000000e+000
    outer loop
      vertex  3.695042e-001 -4.400000e-001  1.510000e+000
      vertex  3.940138e-001 -3.675481e-001  1.510000e+000
      vertex  3.735234e-001 -3.730385e-001  1.510000e+000
    endloop
  endfacet
  facet normal  0.000000e+000  0.000000e+000  1.000000e+000
    outer loop
      vertex  3.695042e-001 -4.400000e-001  1.510000e+000
      vertex  3.735234e-001 -3.730385e-001  1.510000e+000
      vertex  3.521837e-001 -4.100000e-001  1.510000e+000
    endloop
  endfacet
  facet normal  0.000000e+000  0.000000e+000  1.000000e+000
    outer loop
      vertex  3.695042e-001 -4.400000e-001  1.510000e+000
      vertex  3.521837e-001 -4.100000e-001  1.510000e+000
      vertex  3.095042e-001 -4.400000e-001  1.510000e+000
    endloop
  endfacet
  facet normal  0.000000e+000  0.000000e+000  1.000000e+000
    outer loop
      vertex  3.095042e-001 -4.400000e-001  1.510000e+000
      vertex  3.521837e-001 -4.100000e-001  1.510000e+000
      vertex  3.095042e-001 -4.100000e-001  1.510000e+000
    endloop
  endfacet
  facet normal  0.000000e+000  0.000000e+000  1.000000e+000
    outer loop
      vertex  3.095042e-001 -4.400000e-001  1.510000e+000
      vertex  3.095042e-001 -4.100000e-001  1.510000e+000
      vertex  2.945042e-001 -4.250000e-001  1.510000e+000
    endloop
  endfacet
  facet normal  9.659258e-001  2.588192e-001  0.000000e+000
    outer loop
      vertex  3.940138e-001 -3.675481e-001 -1.510000e+000
      vertex  3.940138e-001 -3.675481e-001  1.510000e+000
      vertex  3.995042e-001 -3.880385e-001 -1.510000e+000
    endloop
  endfacet
  facet normal  9.659258e-001  2.588192e-001  -0.000000e+000
    outer loop
      vertex  3.995042e-001 -3.880385e-001 -1.510000e+000
      vertex  3.940138e-001 -3.675481e-001  1.510000e+000
      vertex  3.995042e-001 -3.880385e-001  1.510000e+000
    endloop
  endfacet
  facet normal  8.660254e-001 -5.000001e-001  0.000000e+000
    outer loop
      vertex  3.995042e-001 -3.880385e-001 -1.510000e+000
      vertex  3.995042e-001 -3.880385e-001  1.510000e+000
      vertex  3.695042e-001 -4.400000e-001 -1.510000e+000
    endloop
  endfacet
  facet normal  8.660254e-001 -5.000001e-001  0.000000e+000
    outer loop
      vertex  3.695042e-001 -4.400000e-001 -1.510000e+000
      vertex  3.995042e-001 -3.880385e-001  1.510000e+000
      vertex  3.695042e-001 -4.400000e-001  1.510000e+000
    endloop
  endfacet
  facet normal  0.000000e+000 -1.000000e+000  -0.000000e+000
    outer loop
      vertex  3.695042e-001 -4.400000e-001 -1.510000e+000
      vertex  3.695042e-001 -4.400000e-001  1.510000e+000
      vertex  3.095042e-001 -4.400000e-001 -1.510000e+000
    endloop
  endfacet
  facet normal  0.000000e+000 -1.000000e+000  0.000000e+000
    outer loop
      vertex  3.095042e-001 -4.400000e-001 -1.510000e+000
      vertex  3.695042e-001 -4.400000e-001  1.510000e+000
      vertex  3.095042e-001 -4.400000e-001  1.510000e+000
    endloop
  endfacet
  facet normal -7.071068e-001 -7.071068e-001  -0.000000e+000
    outer loop
      vertex  3.095042e-001 -4.400000e-001 -1.510000e+000
      vertex  3.095042e-001 -4.400000e-001  1.510000e+000
      vertex  2.945042e-001 -4.250000e-001 -1.510000e+000
    endloop
  endfacet
  facet normal -7.071068e-001 -7.071068e-001  0.000000e+000
    outer loop
      vertex  2.945042e-001 -4.250000e-001 -1.510000e+000
      vertex  3.095042e-001 -4.400000e-001  1.510000e+000
      vertex  2.945042e-001 -4.250000e-001  1.510000e+000
    endloop
  endfacet
  facet normal -7.071068e-001  7.071068e-001  0.000000e+000
    outer loop
      vertex  2.945042e-001 -4.250000e-001 -1.510000e+000
      vertex  2.945042e-001 -4.250000e-001  1.510000e+000
      vertex  3.095042e-001 -4.100000e-001 -1.510000e+000
    endloop
  endfacet
  facet normal -7.071068e-001  7.071068e-001  0.000000e+000
    outer loop
      vertex  3.095042e-001 -4.100000e-001 -1.510000e+000
      vertex  2.945042e-001 -4.250000e-001  1.510000e+000
      vertex  3.095042e-001 -4.100000e-001  1.510000e+000
    endloop
  endfacet
  facet normal  0.000000e+000  1.000000e+000  0.000000e+000
    outer loop
      vertex  3.095042e-001 -4.100000e-001 -1.510000e+000
      vertex  3.095042e-001 -4.100000e-001  1.510000e+000
      vertex  3.521837e-001 -4.100000e-001 -1.510000e+000
    endloop
  endfacet
  facet normal  0.000000e+000  1.000000e+000  -0.000000e+000
    outer loop
      vertex  3.521837e-001 -4.100000e-001 -1.510000e+000
      vertex  3.095042e-001 -4.100000e-001  1.510000e+000
      vertex  3.521837e-001 -4.100000e-001  1.510000e+000
    endloop
  endfacet
  facet normal -8.660253e-001  5.000002e-001  0.000000e+000
    outer loop
      vertex  3.521837e-001 -4.100000e-001 -1.510000e+000
      vertex  3.521837e-001 -4.100000e-001  1.510000e+000
      vertex  3.735234e-001 -3.730385e-001 -1.510000e+000
    endloop
  endfacet
  facet normal -8.660253e-001  5.000002e-001  0.000000e+000
    outer loop
      vertex  3.735234e-001 -3.730385e-001 -1.510000e+000
      vertex  3.521837e-001 -4.100000e-001  1.510000e+000
      vertex  3.735234e-001 -3.730385e-001  1.510000e+000
    endloop
  endfacet
  facet normal -2.588192e-001  9.659258e-001  0.000000e+000
    outer loop
      vertex  3.735234e-001 -3.730385e-001 -1.510000e+000
      vertex  3.735234e-001 -3.730385e-001  1.510000e+000
      vertex  3.940138e-001 -3.675481e-001 -1.510000e+000
    endloop
  endfacet
  facet normal -2.588192e-001  9.659258e-001  0.000000e+000
    outer loop
      vertex  3.940138e-001 -3.675481e-001 -1.510000e+000
      vertex  3.735234e-001 -3.730385e-001  1.510000e+000
      vertex  3.940138e-001 -3.675481e-001  1.510000e+000
    endloop
  endfacet
  facet normal  0.000000e+000  0.000000e+000 -1.000000e+000
    outer loop
      vertex  3.695042e-001 -4.400000e-001 -1.510000e+000
      vertex  3.095042e-001 -4.400000e-001 -1.510000e+000
      vertex  2.945042e-001 -4.250000e-001 -1.510000e+000
    endloop
  endfacet
  facet normal  0.000000e+000  0.000000e+000 -1.000000e+000
    outer loop
      vertex  3.695042e-001 -4.400000e-001 -1.510000e+000
      vertex  2.945042e-001 -4.250000e-001 -1.510000e+000
      vertex  3.095042e-001 -4.100000e-001 -1.510000e+000
    endloop
  endfacet
  facet normal  0.000000e+000  0.000000e+000 -1.000000e+000
    outer loop
      vertex  3.695042e-001 -4.400000e-001 -1.510000e+000
      vertex  3.095042e-001 -4.100000e-001 -1.510000e+000
      vertex  3.521837e-001 -4.100000e-001 -1.510000e+000
    endloop
  endfacet
  facet normal  0.000000e+000  0.000000e+000 -1.000000e+000
    outer loop
      vertex  3.695042e-001 -4.400000e-001 -1.510000e+000
      vertex  3.521837e-001 -4.100000e-001 -1.510000e+000
      vertex  3.995042e-001 -3.880385e-001 -1.510000e+000
    endloop
  endfacet
  facet normal  0.000000e+000  0.000000e+000 -1.000000e+000
    outer loop
      vertex  3.735234e-001 -3.730385e-001 -1.510000e+000
      vertex  3.940138e-001 -3.675481e-001 -1.510000e+000
      vertex  3.521837e-001 -4.100000e-001 -1.510000e+000
    endloop
  endfacet
  facet normal  0.000000e+000  0.000000e+000 -1.000000e+000
    outer loop
      vertex  3.521837e-001 -4.100000e-001 -1.510000e+000
      vertex  3.940138e-001 -3.675481e-001 -1.510000e+000
      vertex  3.995042e-001 -3.880385e-001 -1.510000e+000
    endloop
  endfacet
  facet normal  0.000000e+000  0.000000e+000  1.000000e+000
    outer loop
      vertex  4.780683e-001 -2.519615e-001  1.510000e+000
      vertex  5.080683e-001 -2.000000e-001  1.510000e+000
      vertex  4.780683e-001 -1.480385e-001  1.510000e+000
    endloop
  endfacet
  facet normal  0.000000e+000  0.000000e+000  1.000000e+000
    outer loop
      vertex  4.780683e-001 -2.519615e-001  1.510000e+000
      vertex  4.780683e-001 -1.480385e-001  1.510000e+000
      vertex  4.734272e-001 -2.000000e-001  1.510000e+000
    endloop
  endfacet
  facet normal  0.000000e+000  0.000000e+000  1.000000e+000
    outer loop
      vertex  4.780683e-001 -2.519615e-001  1.510000e+000
      vertex  4.734272e-001 -2.000000e-001  1.510000e+000
      vertex  4.520875e-001 -2.369615e-001  1.510000e+000
    endloop
  endfacet
  facet normal  0.000000e+000  0.000000e+000  1.000000e+000
    outer loop
      vertex  4.780683e-001 -2.519615e-001  1.510000e+000
      vertex  4.520875e-001 -2.369615e-001  1.510000e+000
      vertex  4.575779e-001 -2.574519e-001  1.510000e+000
    endloop
  endfacet
  facet normal  0.000000e+000  0.000000e+000  9.999999e-001
    outer loop
      vertex  4.520875e-001 -1.630385e-001  1.510000e+000
      vertex  4.734272e-001 -2.000000e-001  1.510000e+000
      vertex  4.575779e-001 -1.425481e-001  1.510000e+000
    endloop
  endfacet
  facet normal  0.000000e+000  0.000000e+000  1.000000e+000
    outer loop
      vertex  4.575779e-001 -1.425481e-001  1.510000e+000
      vertex  4.734272e-001 -2.000000e-001  1.510000e+000
      vertex  4.780683e-001 -1.480385e-001  1.510000e+000
    endloop
  endfacet
  facet normal  8.660254e-001 -5.000001e-001  0.000000e+000
    outer loop
      vertex  5.080683e-001 -2.000000e-001 -1.510000e+000
      vertex  5.080683e-001 -2.000000e-001  1.510000e+000
      vertex  4.780683e-001 -2.519615e-001 -1.510000e+000
    endloop
  endfacet
  facet normal  8.660254e-001 -5.000001e-001  0.000000e+000
    outer loop
      vertex  4.780683e-001 -2.519615e-001 -1.510000e+000
      vertex  5.080683e-001 -2.000000e-001  1.510000e+000
      vertex  4.780683e-001 -2.519615e-001  1.510000e+000
    endloop
  endfacet
  facet normal  2.588192e-001 -9.659258e-001  0.000000e+000
    outer loop
      vertex  4.575779e-001 -2.574519e-001 -1.510000e+000
      vertex  4.780683e-001 -2.519615e-001 -1.510000e+000
      vertex  4.575779e-001 -2.574519e-001  1.510000e+000
    endloop
  endfacet
  facet normal  2.588192e-001 -9.659258e-001  0.000000e+000
    outer loop
      vertex  4.575779e-001 -2.574519e-001  1.510000e+000
      vertex  4.780683e-001 -2.519615e-001 -1.510000e+000
      vertex  4.780683e-001 -2.519615e-001  1.510000e+000
    endloop
  endfacet
  facet normal -9.659258e-001 -2.588192e-001  0.000000e+000
    outer loop
      vertex  4.520875e-001 -2.369615e-001 -1.510000e+000
      vertex  4.575779e-001 -2.574519e-001 -1.510000e+000
      vertex  4.520875e-001 -2.369615e-001  1.510000e+000
    endloop
  endfacet
  facet normal -9.659258e-001 -2.588192e-001  0.000000e+000
    outer loop
      vertex  4.520875e-001 -2.369615e-001  1.510000e+000
      vertex  4.575779e-001 -2.574519e-001 -1.510000e+000
      vertex  4.575779e-001 -2.574519e-001  1.510000e+000
    endloop
  endfacet
  facet normal -8.660253e-001  5.000002e-001  0.000000e+000
    outer loop
      vertex  4.520875e-001 -2.369615e-001 -1.510000e+000
      vertex  4.520875e-001 -2.369615e-001  1.510000e+000
      vertex  4.734272e-001 -2.000000e-001 -1.510000e+000
    endloop
  endfacet
  facet normal -8.660253e-001  5.000002e-001  0.000000e+000
    outer loop
      vertex  4.734272e-001 -2.000000e-001 -1.510000e+000
      vertex  4.520875e-001 -2.369615e-001  1.510000e+000
      vertex  4.734272e-001 -2.000000e-001  1.510000e+000
    endloop
  endfacet
  facet normal -8.660253e-001 -5.000002e-001  0.000000e+000
    outer loop
      vertex  4.520875e-001 -1.630385e-001 -1.510000e+000
      vertex  4.734272e-001 -2.000000e-001 -1.510000e+000
      vertex  4.520875e-001 -1.630385e-001  1.510000e+000
    endloop
  endfacet
  facet normal -8.660253e-001 -5.000002e-001  0.000000e+000
    outer loop
      vertex  4.520875e-001 -1.630385e-001  1.510000e+000
      vertex  4.734272e-001 -2.000000e-001 -1.510000e+000
      vertex  4.734272e-001 -2.000000e-001  1.510000e+000
    endloop
  endfacet
  facet normal -9.659258e-001  2.588192e-001  0.000000e+000
    outer loop
      vertex  4.575779e-001 -1.425481e-001 -1.510000e+000
      vertex  4.520875e-001 -1.630385e-001 -1.510000e+000
      vertex  4.575779e-001 -1.425481e-001  1.510000e+000
    endloop
  endfacet
  facet normal -9.659258e-001  2.588192e-001  0.000000e+000
    outer loop
      vertex  4.575779e-001 -1.425481e-001  1.510000e+000
      vertex  4.520875e-001 -1.630385e-001 -1.510000e+000
      vertex  4.520875e-001 -1.630385e-001  1.510000e+000
    endloop
  endfacet
  facet normal  2.588192e-001  9.659258e-001  0.000000e+000
    outer loop
      vertex  4.780683e-001 -1.480385e-001 -1.510000e+000
      vertex  4.575779e-001 -1.425481e-001 -1.510000e+000
      vertex  4.780683e-001 -1.480385e-001  1.510000e+000
    endloop
  endfacet
  facet normal  2.588192e-001  9.659258e-001  0.000000e+000
    outer loop
      vertex  4.780683e-001 -1.480385e-001  1.510000e+000
      vertex  4.575779e-001 -1.425481e-001 -1.510000e+000
      vertex  4.575779e-001 -1.425481e-001  1.510000e+000
    endloop
  endfacet
  facet normal  8.660254e-001  5.000001e-001  0.000000e+000
    outer loop
      vertex  5.080683e-001 -2.000000e-001 -1.510000e+000
      vertex  4.780683e-001 -1.480385e-001 -1.510000e+000
      vertex  5.080683e-001 -2.000000e-001  1.510000e+000
    endloop
  endfacet
  facet normal  8.660254e-001  5.000001e-001  0.000000e+000
    outer loop
      vertex  5.080683e-001 -2.000000e-001  1.510000e+000
      vertex  4.780683e-001 -1.480385e-001 -1.510000e+000
      vertex  4.780683e-001 -1.480385e-001  1.510000e+000
    endloop
  endfacet
  facet normal  0.000000e+000  0.000000e+000 -1.000000e+000
    outer loop
      vertex  4.734272e-001 -2.000000e-001 -1.510000e+000
      vertex  4.520875e-001 -1.630385e-001 -1.510000e+000
      vertex  5.080683e-001 -2.000000e-001 -1.510000e+000
    endloop
  endfacet
  facet normal  0.000000e+000  0.000000e+000 -1.000000e+000
    outer loop
      vertex  5.080683e-001 -2.000000e-001 -1.510000e+000
      vertex  4.520875e-001 -1.630385e-001 -1.510000e+000
      vertex  4.575779e-001 -1.425481e-001 -1.510000e+000
    endloop
  endfacet
  facet normal  0.000000e+000  0.000000e+000 -1.000000e+000
    outer loop
      vertex  5.080683e-001 -2.000000e-001 -1.510000e+000
      vertex  4.575779e-001 -1.425481e-001 -1.510000e+000
      vertex  4.780683e-001 -1.480385e-001 -1.510000e+000
    endloop
  endfacet
  facet normal  0.000000e+000  0.000000e+000 -1.000000e+000
    outer loop
      vertex  4.575779e-001 -2.574519e-001 -1.510000e+000
      vertex  4.520875e-001 -2.369615e-001 -1.510000e+000
      vertex  4.780683e-001 -2.519615e-001 -1.510000e+000
    endloop
  endfacet
  facet normal  0.000000e+000  0.000000e+000 -1.000000e+000
    outer loop
      vertex  4.780683e-001 -2.519615e-001 -1.510000e+000
      vertex  4.520875e-001 -2.369615e-001 -1.510000e+000
      vertex  4.734272e-001 -2.000000e-001 -1.510000e+000
    endloop
  endfacet
  facet normal  0.000000e+000  0.000000e+000 -1.000000e+000
    outer loop
      vertex  4.780683e-001 -2.519615e-001 -1.510000e+000
      vertex  4.734272e-001 -2.000000e-001 -1.510000e+000
      vertex  5.080683e-001 -2.000000e-001 -1.510000e+000
    endloop
  endfacet
  facet normal  0.000000e+000  -0.000000e+000  9.999999e-001
    outer loop
      vertex -1.385641e-001  4.400000e-001  1.510000e+000
      vertex -1.212436e-001  4.100000e-001  1.510000e+000
      vertex -7.856407e-002  4.400000e-001  1.510000e+000
    endloop
  endfacet
  facet normal  0.000000e+000  0.000000e+000  1.000000e+000
    outer loop
      vertex -7.856407e-002  4.400000e-001  1.510000e+000
      vertex -1.212436e-001  4.100000e-001  1.510000e+000
      vertex -7.856407e-002  4.100000e-001  1.510000e+000
    endloop
  endfacet
  facet normal  0.000000e+000  0.000000e+000  1.000000e+000
    outer loop
      vertex -7.856407e-002  4.400000e-001  1.510000e+000
      vertex -7.856407e-002  4.100000e-001  1.510000e+000
      vertex -6.356407e-002  4.250000e-001  1.510000e+000
    endloop
  endfacet
  facet normal  0.000000e+000  -0.000000e+000  1.000000e+000
    outer loop
      vertex -1.685641e-001  3.880385e-001  1.510000e+000
      vertex -1.630737e-001  3.675481e-001  1.510000e+000
      vertex -1.385641e-001  4.400000e-001  1.510000e+000
    endloop
  endfacet
  facet normal  0.000000e+000  0.000000e+000  1.000000e+000
    outer loop
      vertex -1.385641e-001  4.400000e-001  1.510000e+000
      vertex -1.630737e-001  3.675481e-001  1.510000e+000
      vertex -1.425833e-001  3.730385e-001  1.510000e+000
    endloop
  endfacet
  facet normal  0.000000e+000  0.000000e+000  1.000000e+000
    outer loop
      vertex -1.385641e-001  4.400000e-001  1.510000e+000
      vertex -1.425833e-001  3.730385e-001  1.510000e+000
      vertex -1.212436e-001  4.100000e-001  1.510000e+000
    endloop
  endfacet
  facet normal  0.000000e+000  1.000000e+000  0.000000e+000
    outer loop
      vertex -1.385641e-001  4.400000e-001 -1.510000e+000
      vertex -1.385641e-001  4.400000e-001  1.510000e+000
      vertex -7.856407e-002  4.400000e-001 -1.510000e+000
    endloop
  endfacet
  facet normal  0.000000e+000  1.000000e+000  -0.000000e+000
    outer loop
      vertex -7.856407e-002  4.400000e-001 -1.510000e+000
      vertex -1.385641e-001  4.400000e-001  1.510000e+000
      vertex -7.856407e-002  4.400000e-001  1.510000e+000
    endloop
  endfacet
  facet normal  7.071068e-001  7.071068e-001  0.000000e+000
    outer loop
      vertex -6.356407e-002  4.250000e-001 -1.510000e+000
      vertex -7.856407e-002  4.400000e-001 -1.510000e+000
      vertex -6.356407e-002  4.250000e-001  1.510000e+000
    endloop
  endfacet
  facet normal  7.071068e-001  7.071068e-001  0.000000e+000
    outer loop
      vertex -6.356407e-002  4.250000e-001  1.510000e+000
      vertex -7.856407e-002  4.400000e-001 -1.510000e+000
      vertex -7.856407e-002  4.400000e-001  1.510000e+000
    endloop
  endfacet
  facet normal  7.071068e-001 -7.071068e-001  0.000000e+000
    outer loop
      vertex -7.856407e-002  4.100000e-001 -1.510000e+000
      vertex -6.356407e-002  4.250000e-001 -1.510000e+000
      vertex -7.856407e-002  4.100000e-001  1.510000e+000
    endloop
  endfacet
  facet normal  7.071068e-001 -7.071068e-001  0.000000e+000
    outer loop
      vertex -7.856407e-002  4.100000e-001  1.510000e+000
      vertex -6.356407e-002  4.250000e-001 -1.510000e+000
      vertex -6.356407e-002  4.250000e-001  1.510000e+000
    endloop
  endfacet
  facet normal  0.000000e+000 -1.000000e+000  -0.000000e+000
    outer loop
      vertex -7.856407e-002  4.100000e-001 -1.510000e+000
      vertex -7.856407e-002  4.100000e-001  1.510000e+000
      vertex -1.212436e-001  4.100000e-001 -1.510000e+000
    endloop
  endfacet
  facet normal  0.000000e+000 -1.000000e+000  0.000000e+000
    outer loop
      vertex -1.212436e-001  4.100000e-001 -1.510000e+000
      vertex -7.856407e-002  4.100000e-001  1.510000e+000
      vertex -1.212436e-001  4.100000e-001  1.510000e+000
    endloop
  endfacet
  facet normal  8.660254e-001 -5.000001e-001  0.000000e+000
    outer loop
      vertex -1.425833e-001  3.730385e-001 -1.510000e+000
      vertex -1.212436e-001  4.100000e-001 -1.510000e+000
      vertex -1.425833e-001  3.730385e-001  1.510000e+000
    endloop
  endfacet
  facet normal  8.660254e-001 -5.000001e-001  0.000000e+000
    outer loop
      vertex -1.425833e-001  3.730385e-001  1.510000e+000
      vertex -1.212436e-001  4.100000e-001 -1.510000e+000
      vertex -1.212436e-001  4.100000e-001  1.510000e+000
    endloop
  endfacet
  facet normal  2.588192e-001 -9.659258e-001  0.000000e+000
    outer loop
      vertex -1.630737e-001  3.675481e-001 -1.510000e+000
      vertex -1.425833e-001  3.730385e-001 -1.510000e+000
      vertex -1.630737e-001  3.675481e-001  1.510000e+000
    endloop
  endfacet
  facet normal  2.588192e-001 -9.659258e-001  0.000000e+000
    outer loop
      vertex -1.630737e-001  3.675481e-001  1.510000e+000
      vertex -1.425833e-001  3.730385e-001 -1.510000e+000
      vertex -1.425833e-001  3.730385e-001  1.510000e+000
    endloop
  endfacet
  facet normal -9.659258e-001 -2.588192e-001  0.000000e+000
    outer loop
      vertex -1.685641e-001  3.880385e-001 -1.510000e+000
      vertex -1.630737e-001  3.675481e-001 -1.510000e+000
      vertex -1.685641e-001  3.880385e-001  1.510000e+000
    endloop
  endfacet
  facet normal -9.659258e-001 -2.588192e-001  0.000000e+000
    outer loop
      vertex -1.685641e-001  3.880385e-001  1.510000e+000
      vertex -1.630737e-001  3.675481e-001 -1.510000e+000
      vertex -1.630737e-001  3.675481e-001  1.510000e+000
    endloop
  endfacet
  facet normal -8.660254e-001  5.000001e-001  0.000000e+000
    outer loop
      vertex -1.385641e-001  4.400000e-001 -1.510000e+000
      vertex -1.685641e-001  3.880385e-001 -1.510000e+000
      vertex -1.385641e-001  4.400000e-001  1.510000e+000
    endloop
  endfacet
  facet normal -8.660254e-001  5.000001e-001  0.000000e+000
    outer loop
      vertex -1.385641e-001  4.400000e-001  1.510000e+000
      vertex -1.685641e-001  3.880385e-001 -1.510000e+000
      vertex -1.685641e-001  3.880385e-001  1.510000e+000
    endloop
  endfacet
  facet normal  0.000000e+000  0.000000e+000  1.000000e+000
    outer loop
      vertex  1.630737e-001  3.675481e-001  1.510000e+000
      vertex  1.685641e-001  3.880385e-001  1.510000e+000
      vertex  1.425833e-001  3.730385e-001  1.510000e+000
    endloop
  endfacet
  facet normal  0.000000e+000  -0.000000e+000  1.000000e+000
    outer loop
      vertex  1.425833e-001  3.730385e-001  1.510000e+000
      vertex  1.685641e-001  3.880385e-001  1.510000e+000
      vertex  1.385641e-001  4.400000e-001  1.510000e+000
    endloop
  endfacet
  facet normal  0.000000e+000  0.000000e+000  1.000000e+000
    outer loop
      vertex  1.425833e-001  3.730385e-001  1.510000e+000
      vertex  1.385641e-001  4.400000e-001  1.510000e+000
      vertex  1.212436e-001  4.100000e-001  1.510000e+000
    endloop
  endfacet
  facet normal  0.000000e+000  0.000000e+000  9.999999e-001
    outer loop
      vertex  1.212436e-001  4.100000e-001  1.510000e+000
      vertex  1.385641e-001  4.400000e-001  1.510000e+000
      vertex  7.856407e-002  4.100000e-001  1.510000e+000
    endloop
  endfacet
  facet normal  0.000000e+000  0.000000e+000  9.999999e-001
    outer loop
      vertex  7.856407e-002  4.100000e-001  1.510000e+000
      vertex  1.385641e-001  4.400000e-001  1.510000e+000
      vertex  7.856407e-002  4.400000e-001  1.510000e+000
    endloop
  endfacet
  facet normal  0.000000e+000  0.000000e+000  1.000000e+000
    outer loop
      vertex  7.856407e-002  4.100000e-001  1.510000e+000
      vertex  7.856407e-002  4.400000e-001  1.510000e+000
      vertex  6.356407e-002  4.250000e-001  1.510000e+000
    endloop
  endfacet
  facet normal -7.071068e-001  7.071068e-001  0.000000e+000
    outer loop
      vertex  6.356407e-002  4.250000e-001 -1.510000e+000
      vertex  6.356407e-002  4.250000e-001  1.510000e+000
      vertex  7.856407e-002  4.400000e-001 -1.510000e+000
    endloop
  endfacet
  facet normal -7.071068e-001  7.071068e-001  0.000000e+000
    outer loop
      vertex  7.856407e-002  4.400000e-001 -1.510000e+000
      vertex  6.356407e-002  4.250000e-001  1.510000e+000
      vertex  7.856407e-002  4.400000e-001  1.510000e+000
    endloop
  endfacet
  facet normal  0.000000e+000  1.000000e+000  0.000000e+000
    outer loop
      vertex  7.856407e-002  4.400000e-001 -1.510000e+000
      vertex  7.856407e-002  4.400000e-001  1.510000e+000
      vertex  1.385641e-001  4.400000e-001 -1.510000e+000
    endloop
  endfacet
  facet normal  0.000000e+000  1.000000e+000  -0.000000e+000
    outer loop
      vertex  1.385641e-001  4.400000e-001 -1.510000e+000
      vertex  7.856407e-002  4.400000e-001  1.510000e+000
      vertex  1.385641e-001  4.400000e-001  1.510000e+000
    endloop
  endfacet
  facet normal  8.660254e-001  5.000001e-001  0.000000e+000
    outer loop
      vertex  1.385641e-001  4.400000e-001 -1.510000e+000
      vertex  1.385641e-001  4.400000e-001  1.510000e+000
      vertex  1.685641e-001  3.880385e-001 -1.510000e+000
    endloop
  endfacet
  facet normal  8.660254e-001  5.000001e-001  -0.000000e+000
    outer loop
      vertex  1.685641e-001  3.880385e-001 -1.510000e+000
      vertex  1.385641e-001  4.400000e-001  1.510000e+000
      vertex  1.685641e-001  3.880385e-001  1.510000e+000
    endloop
  endfacet
  facet normal  9.659258e-001 -2.588192e-001  0.000000e+000
    outer loop
      vertex  1.685641e-001  3.880385e-001 -1.510000e+000
      vertex  1.685641e-001  3.880385e-001  1.510000e+000
      vertex  1.630737e-001  3.675481e-001 -1.510000e+000
    endloop
  endfacet
  facet normal  9.659258e-001 -2.588192e-001  0.000000e+000
    outer loop
      vertex  1.630737e-001  3.675481e-001 -1.510000e+000
      vertex  1.685641e-001  3.880385e-001  1.510000e+000
      vertex  1.630737e-001  3.675481e-001  1.510000e+000
    endloop
  endfacet
  facet normal -2.588192e-001 -9.659258e-001  -0.000000e+000
    outer loop
      vertex  1.630737e-001  3.675481e-001 -1.510000e+000
      vertex  1.630737e-001  3.675481e-001  1.510000e+000
      vertex  1.425833e-001  3.730385e-001 -1.510000e+000
    endloop
  endfacet
  facet normal -2.588192e-001 -9.659258e-001  0.000000e+000
    outer loop
      vertex  1.425833e-001  3.730385e-001 -1.510000e+000
      vertex  1.630737e-001  3.675481e-001  1.510000e+000
      vertex  1.425833e-001  3.730385e-001  1.510000e+000
    endloop
  endfacet
  facet normal -8.660254e-001 -5.000001e-001  -0.000000e+000
    outer loop
      vertex  1.425833e-001  3.730385e-001 -1.510000e+000
      vertex  1.425833e-001  3.730385e-001  1.510000e+000
      vertex  1.212436e-001  4.100000e-001 -1.510000e+000
    endloop
  endfacet
  facet normal -8.660254e-001 -5.000001e-001  0.000000e+000
    outer loop
      vertex  1.212436e-001  4.100000e-001 -1.510000e+000
      vertex  1.425833e-001  3.730385e-001  1.510000e+000
      vertex  1.212436e-001  4.100000e-001  1.510000e+000
    endloop
  endfacet
  facet normal  0.000000e+000 -1.000000e+000  -0.000000e+000
    outer loop
      vertex  1.212436e-001  4.100000e-001 -1.510000e+000
      vertex  1.212436e-001  4.100000e-001  1.510000e+000
      vertex  7.856407e-002  4.100000e-001 -1.510000e+000
    endloop
  endfacet
  facet normal  0.000000e+000 -1.000000e+000  0.000000e+000
    outer loop
      vertex  7.856407e-002  4.100000e-001 -1.510000e+000
      vertex  1.212436e-001  4.100000e-001  1.510000e+000
      vertex  7.856407e-002  4.100000e-001  1.510000e+000
    endloop
  endfacet
  facet normal -7.071068e-001 -7.071068e-001  -0.000000e+000
    outer loop
      vertex  7.856407e-002  4.100000e-001 -1.510000e+000
      vertex  7.856407e-002  4.100000e-001  1.510000e+000
      vertex  6.356407e-002  4.250000e-001 -1.510000e+000
    endloop
  endfacet
  facet normal -7.071068e-001 -7.071068e-001  0.000000e+000
    outer loop
      vertex  6.356407e-002  4.250000e-001 -1.510000e+000
      vertex  7.856407e-002  4.100000e-001  1.510000e+000
      vertex  6.356407e-002  4.250000e-001  1.510000e+000
    endloop
  endfacet
  facet normal  -0.000000e+000  0.000000e+000 -9.999999e-001
    outer loop
      vertex -1.385641e-001  4.400000e-001 -1.510000e+000
      vertex -7.856407e-002  4.400000e-001 -1.510000e+000
      vertex -1.685641e-001  3.880385e-001 -1.510000e+000
    endloop
  endfacet
  facet normal  0.000000e+000  0.000000e+000 -1.000000e+000
    outer loop
      vertex -1.685641e-001  3.880385e-001 -1.510000e+000
      vertex -7.856407e-002  4.400000e-001 -1.510000e+000
      vertex -1.212436e-001  4.100000e-001 -1.510000e+000
    endloop
  endfacet
  facet normal  -0.000000e+000  0.000000e+000 -1.000000e+000
    outer loop
      vertex -7.856407e-002  4.400000e-001 -1.510000e+000
      vertex -6.356407e-002  4.250000e-001 -1.510000e+000
      vertex -1.212436e-001  4.100000e-001 -1.510000e+000
    endloop
  endfacet
  facet normal  0.000000e+000  0.000000e+000 -1.000000e+000
    outer loop
      vertex -1.212436e-001  4.100000e-001 -1.510000e+000
      vertex -6.356407e-002  4.250000e-001 -1.510000e+000
      vertex -7.856407e-002  4.100000e-001 -1.510000e+000
    endloop
  endfacet
  facet normal  0.000000e+000  0.000000e+000 -1.000000e+000
    outer loop
      vertex -1.685641e-001  3.880385e-001 -1.510000e+000
      vertex -1.212436e-001  4.100000e-001 -1.510000e+000
      vertex -1.630737e-001  3.675481e-001 -1.510000e+000
    endloop
  endfacet
  facet normal  0.000000e+000  0.000000e+000 -9.999999e-001
    outer loop
      vertex -1.630737e-001  3.675481e-001 -1.510000e+000
      vertex -1.212436e-001  4.100000e-001 -1.510000e+000
      vertex -1.425833e-001  3.730385e-001 -1.510000e+000
    endloop
  endfacet
  facet normal  0.000000e+000  0.000000e+000 -1.000000e+000
    outer loop
      vertex  1.212436e-001  4.100000e-001 -1.510000e+000
      vertex  7.856407e-002  4.100000e-001 -1.510000e+000
      vertex  6.356407e-002  4.250000e-001 -1.510000e+000
    endloop
  endfacet
  facet normal  0.000000e+000  0.000000e+000 -1.000000e+000
    outer loop
      vertex  1.685641e-001  3.880385e-001 -1.510000e+000
      vertex  1.212436e-001  4.100000e-001 -1.510000e+000
      vertex  1.385641e-001  4.400000e-001 -1.510000e+000
    endloop
  endfacet
  facet normal  0.000000e+000  0.000000e+000 -1.000000e+000
    outer loop
      vertex  1.385641e-001  4.400000e-001 -1.510000e+000
      vertex  1.212436e-001  4.100000e-001 -1.510000e+000
      vertex  6.356407e-002  4.250000e-001 -1.510000e+000
    endloop
  endfacet
  facet normal  0.000000e+000  0.000000e+000 -9.999999e-001
    outer loop
      vertex  1.385641e-001  4.400000e-001 -1.510000e+000
      vertex  6.356407e-002  4.250000e-001 -1.510000e+000
      vertex  7.856407e-002  4.400000e-001 -1.510000e+000
    endloop
  endfacet
  facet normal  0.000000e+000  0.000000e+000 -1.000000e+000
    outer loop
      vertex  1.425833e-001  3.730385e-001 -1.510000e+000
      vertex  1.212436e-001  4.100000e-001 -1.510000e+000
      vertex  1.630737e-001  3.675481e-001 -1.510000e+000
    endloop
  endfacet
  facet normal  0.000000e+000  0.000000e+000 -1.000000e+000
    outer loop
      vertex  1.630737e-001  3.675481e-001 -1.510000e+000
      vertex  1.212436e-001  4.100000e-001 -1.510000e+000
      vertex  1.685641e-001  3.880385e-001 -1.510000e+000
    endloop
  endfacet
  facet normal  9.999999e-001  0.000000e+000  0.000000e+000
    outer loop
      vertex  3.500000e-001 -4.250000e-001 -4.890000e-001
      vertex  3.500000e-001 -4.360000e-001 -5.000000e-001
      vertex  3.500000e-001 -4.140000e-001 -5.000000e-001
    endloop
  endfacet
  facet normal  9.999999e-001  0.000000e+000  0.000000e+000
    outer loop
      vertex  3.500000e-001 -4.140000e-001 -5.000000e-001
      vertex  3.500000e-001 -4.360000e-001 -5.000000e-001
      vertex  3.500000e-001 -4.250000e-001 -5.110000e-001
    endloop
  endfacet
  facet normal -9.999999e-001  0.000000e+000  0.000000e+000
    outer loop
      vertex -3.500000e-001 -4.250000e-001 -4.890000e-001
      vertex -3.500000e-001 -4.140000e-001 -5.000000e-001
      vertex -3.500000e-001 -4.360000e-001 -5.000000e-001
    endloop
  endfacet
  facet normal -9.999999e-001  0.000000e+000  0.000000e+000
    outer loop
      vertex -3.500000e-001 -4.360000e-001 -5.000000e-001
      vertex -3.500000e-001 -4.140000e-001 -5.000000e-001
      vertex -3.500000e-001 -4.250000e-001 -5.110000e-001
    endloop
  endfacet
  facet normal  0.000000e+000  7.071068e-001  7.071068e-001
    outer loop
      vertex -3.500000e-001 -4.250000e-001 -4.890000e-001
      vertex  3.500000e-001 -4.250000e-001 -4.890000e-001
      vertex -3.500000e-001 -4.140000e-001 -5.000000e-001
    endloop
  endfacet
  facet normal  -0.000000e+000  7.071068e-001  7.071068e-001
    outer loop
      vertex -3.500000e-001 -4.140000e-001 -5.000000e-001
      vertex  3.500000e-001 -4.250000e-001 -4.890000e-001
      vertex  3.500000e-001 -4.140000e-001 -5.000000e-001
    endloop
  endfacet
  facet normal  0.000000e+000  7.071068e-001 -7.071068e-001
    outer loop
      vertex -3.500000e-001 -4.140000e-001 -5.000000e-001
      vertex  3.500000e-001 -4.140000e-001 -5.000000e-001
      vertex -3.500000e-001 -4.250000e-001 -5.110000e-001
    endloop
  endfacet
  facet normal  0.000000e+000  7.071068e-001 -7.071068e-001
    outer loop
      vertex -3.500000e-001 -4.250000e-001 -5.110000e-001
      vertex  3.500000e-001 -4.140000e-001 -5.000000e-001
      vertex  3.500000e-001 -4.250000e-001 -5.110000e-001
    endloop
  endfacet
  facet normal  -0.000000e+000 -7.071068e-001 -7.071068e-001
    outer loop
      vertex -3.500000e-001 -4.250000e-001 -5.110000e-001
      vertex  3.500000e-001 -4.250000e-001 -5.110000e-001
      vertex -3.500000e-001 -4.360000e-001 -5.000000e-001
    endloop
  endfacet
  facet normal  0.000000e+000 -7.071068e-001 -7.071068e-001
    outer loop
      vertex -3.500000e-001 -4.360000e-001 -5.000000e-001
      vertex  3.500000e-001 -4.250000e-001 -5.110000e-001
      vertex  3.500000e-001 -4.360000e-001 -5.000000e-001
    endloop
  endfacet
  facet normal  0.000000e+000 -7.071068e-001  7.071068e-001
    outer loop
      vertex -3.500000e-001 -4.360000e-001 -5.000000e-001
      vertex  3.500000e-001 -4.360000e-001 -5.000000e-001
      vertex -3.500000e-001 -4.250000e-001 -4.890000e-001
    endloop
  endfacet
  facet normal  0.000000e+000 -7.071068e-001  7.071068e-001
    outer loop
      vertex -3.500000e-001 -4.250000e-001 -4.890000e-001
      vertex  3.500000e-001 -4.360000e-001 -5.000000e-001
      vertex  3.500000e-001 -4.250000e-001 -4.890000e-001
    endloop
  endfacet
  facet normal  9.999999e-001  0.000000e+000  0.000000e+000
    outer loop
      vertex  3.500000e-001 -4.250000e-001  5.110000e-001
      vertex  3.500000e-001 -4.360000e-001  5.000000e-001
      vertex  3.500000e-001 -4.140000e-001  5.000000e-001
    endloop
  endfacet
  facet normal  9.999999e-001  0.000000e+000  0.000000e+000
    outer loop
      vertex  3.500000e-001 -4.140000e-001  5.000000e-001
      vertex  3.500000e-001 -4.360000e-001  5.000000e-001
      vertex  3.500000e-001 -4.250000e-001  4.890000e-001
    endloop
  endfacet
  facet normal -9.999999e-001  0.000000e+000  0.000000e+000
    outer loop
      vertex -3.500000e-001 -4.250000e-001  5.110000e-001
      vertex -3.500000e-001 -4.140000e-001  5.000000e-001
      vertex -3.500000e-001 -4.360000e-001  5.000000e-001
    endloop
  endfacet
  facet normal -9.999999e-001  0.000000e+000  0.000000e+000
    outer loop
      vertex -3.500000e-001 -4.360000e-001  5.000000e-001
      vertex -3.500000e-001 -4.140000e-001  5.000000e-001
      vertex -3.500000e-001 -4.250000e-001  4.890000e-001
    endloop
  endfacet
  facet normal  0.000000e+000  7.071068e-001  7.071068e-001
    outer loop
      vertex -3.500000e-001 -4.140000e-001  5.000000e-001
      vertex -3.500000e-001 -4.250000e-001  5.110000e-001
      vertex  3.500000e-001 -4.140000e-001  5.000000e-001
    endloop
  endfacet
  facet normal  0.000000e+000  7.071068e-001  7.071068e-001
    outer loop
      vertex  3.500000e-001 -4.140000e-001  5.000000e-001
      vertex -3.500000e-001 -4.250000e-001  5.110000e-001
      vertex  3.500000e-001 -4.250000e-001  5.110000e-001
    endloop
  endfacet
  facet normal  0.000000e+000  7.071068e-001 -7.071068e-001
    outer loop
      vertex -3.500000e-001 -4.250000e-001  4.890000e-001
      vertex -3.500000e-001 -4.140000e-001  5.000000e-001
      vertex  3.500000e-001 -4.250000e-001  4.890000e-001
    endloop
  endfacet
  facet normal  0.000000e+000  7.071068e-001 -7.071068e-001
    outer loop
      vertex  3.500000e-001 -4.250000e-001  4.890000e-001
      vertex -3.500000e-001 -4.140000e-001  5.000000e-001
      vertex  3.500000e-001 -4.140000e-001  5.000000e-001
    endloop
  endfacet
  facet normal  0.000000e+000 -7.071068e-001 -7.071068e-001
    outer loop
      vertex -3.500000e-001 -4.360000e-001  5.000000e-001
      vertex -3.500000e-001 -4.250000e-001  4.890000e-001
      vertex  3.500000e-001 -4.360000e-001  5.000000e-001
    endloop
  endfacet
  facet normal  0.000000e+000 -7.071068e-001 -7.071068e-001
    outer loop
      vertex  3.500000e-001 -4.360000e-001  5.000000e-001
      vertex -3.500000e-001 -4.250000e-001  4.890000e-001
      vertex  3.500000e-001 -4.250000e-001  4.890000e-001
    endloop
  endfacet
  facet normal  0.000000e+000 -7.071068e-001  7.071068e-001
    outer loop
      vertex -3.500000e-001 -4.250000e-001  5.110000e-001
      vertex -3.500000e-001 -4.360000e-001  5.000000e-001
      vertex  3.500000e-001 -4.250000e-001  5.110000e-001
    endloop
  endfacet
  facet normal  0.000000e+000 -7.071068e-001  7.071068e-001
    outer loop
      vertex  3.500000e-001 -4.250000e-001  5.110000e-001
      vertex -3.500000e-001 -4.360000e-001  5.000000e-001
      vertex  3.500000e-001 -4.360000e-001  5.000000e-001
    endloop
  endfacet
  facet normal -5.000000e-001  8.660254e-001  1.891585e-007
    outer loop
      vertex  1.353258e-001  4.156089e-001 -4.890000e-001
      vertex  1.448521e-001  4.211089e-001 -5.000000e-001
      vertex  1.257995e-001  4.101089e-001 -5.000000e-001
    endloop
  endfacet
  facet normal -5.000000e-001  8.660254e-001 -1.576321e-007
    outer loop
      vertex  1.257995e-001  4.101089e-001 -5.000000e-001
      vertex  1.448521e-001  4.211089e-001 -5.000000e-001
      vertex  1.353258e-001  4.156089e-001 -5.110000e-001
    endloop
  endfacet
  facet normal  5.000001e-001 -8.660253e-001  0.000000e+000
    outer loop
      vertex  4.853258e-001 -1.906089e-001 -4.890000e-001
      vertex  4.757995e-001 -1.961089e-001 -5.000000e-001
      vertex  4.948521e-001 -1.851089e-001 -5.000000e-001
    endloop
  endfacet
  facet normal  5.000001e-001 -8.660253e-001  0.000000e+000
    outer loop
      vertex  4.948521e-001 -1.851089e-001 -5.000000e-001
      vertex  4.757995e-001 -1.961089e-001 -5.000000e-001
      vertex  4.853258e-001 -1.906089e-001 -5.110000e-001
    endloop
  endfacet
  facet normal -6.123725e-001 -3.535534e-001  7.071068e-001
    outer loop
      vertex  4.853258e-001 -1.906089e-001 -4.890000e-001
      vertex  1.353258e-001  4.156089e-001 -4.890000e-001
      vertex  4.757995e-001 -1.961089e-001 -5.000000e-001
    endloop
  endfacet
  facet normal -6.123725e-001 -3.535534e-001  7.071068e-001
    outer loop
      vertex  4.757995e-001 -1.961089e-001 -5.000000e-001
      vertex  1.353258e-001  4.156089e-001 -4.890000e-001
      vertex  1.257995e-001  4.101089e-001 -5.000000e-001
    endloop
  endfacet
  facet normal -6.123725e-001 -3.535534e-001 -7.071068e-001
    outer loop
      vertex  4.757995e-001 -1.961089e-001 -5.000000e-001
      vertex  1.257995e-001  4.101089e-001 -5.000000e-001
      vertex  4.853258e-001 -1.906089e-001 -5.110000e-001
    endloop
  endfacet
  facet normal -6.123725e-001 -3.535534e-001 -7.071068e-001
    outer loop
      vertex  4.853258e-001 -1.906089e-001 -5.110000e-001
      vertex  1.257995e-001  4.101089e-001 -5.000000e-001
      vertex  1.353258e-001  4.156089e-001 -5.110000e-001
    endloop
  endfacet
  facet normal  6.123725e-001  3.535534e-001 -7.071068e-001
    outer loop
      vertex  4.853258e-001 -1.906089e-001 -5.110000e-001
      vertex  1.353258e-001  4.156089e-001 -5.110000e-001
      vertex  4.948521e-001 -1.851089e-001 -5.000000e-001
    endloop
  endfacet
  facet normal  6.123725e-001  3.535534e-001 -7.071068e-001
    outer loop
      vertex  4.948521e-001 -1.851089e-001 -5.000000e-001
      vertex  1.353258e-001  4.156089e-001 -5.110000e-001
      vertex  1.448521e-001  4.211089e-001 -5.000000e-001
    endloop
  endfacet
  facet normal  6.123725e-001  3.535534e-001  7.071068e-001
    outer loop
      vertex  4.948521e-001 -1.851089e-001 -5.000000e-001
      vertex  1.448521e-001  4.211089e-001 -5.000000e-001
      vertex  4.853258e-001 -1.906089e-001 -4.890000e-001
    endloop
  endfacet
  facet normal  6.123725e-001  3.535534e-001  7.071068e-001
    outer loop
      vertex  4.853258e-001 -1.906089e-001 -4.890000e-001
      vertex  1.448521e-001  4.211089e-001 -5.000000e-001
      vertex  1.353258e-001  4.156089e-001 -4.890000e-001
    endloop
  endfacet
  facet normal -5.000000e-001  8.660254e-001  1.891585e-007
    outer loop
      vertex  1.353258e-001  4.156089e-001  5.110000e-001
      vertex  1.448521e-001  4.211089e-001  5.000000e-001
      vertex  1.257995e-001  4.101089e-001  5.000000e-001
    endloop
  endfacet
  facet normal -5.000000e-001  8.660254e-001 -1.576321e-007
    outer loop
      vertex  1.257995e-001  4.101089e-001  5.000000e-001
      vertex  1.448521e-001  4.211089e-001  5.000000e-001
      vertex  1.353258e-001  4.156089e-001  4.890000e-001
    endloop
  endfacet
  facet normal  5.000001e-001 -8.660253e-001  0.000000e+000
    outer loop
      vertex  4.853258e-001 -1.906089e-001  5.110000e-001
      vertex  4.757995e-001 -1.961089e-001  5.000000e-001
      vertex  4.948521e-001 -1.851089e-001  5.000000e-001
    endloop
  endfacet
  facet normal  5.000001e-001 -8.660253e-001  0.000000e+000
    outer loop
      vertex  4.948521e-001 -1.851089e-001  5.000000e-001
      vertex  4.757995e-001 -1.961089e-001  5.000000e-001
      vertex  4.853258e-001 -1.906089e-001  4.890000e-001
    endloop
  endfacet
  facet normal -6.123725e-001 -3.535534e-001  7.071066e-001
    outer loop
      vertex  4.757995e-001 -1.961089e-001  5.000000e-001
      vertex  4.853258e-001 -1.906089e-001  5.110000e-001
      vertex  1.257995e-001  4.101089e-001  5.000000e-001
    endloop
  endfacet
  facet normal -6.123723e-001 -3.535534e-001  7.071069e-001
    outer loop
      vertex  1.257995e-001  4.101089e-001  5.000000e-001
      vertex  4.853258e-001 -1.906089e-001  5.110000e-001
      vertex  1.353258e-001  4.156089e-001  5.110000e-001
    endloop
  endfacet
  facet normal -6.123725e-001 -3.535534e-001 -7.071066e-001
    outer loop
      vertex  4.853258e-001 -1.906089e-001  4.890000e-001
      vertex  4.757995e-001 -1.961089e-001  5.000000e-001
      vertex  1.353258e-001  4.156089e-001  4.890000e-001
    endloop
  endfacet
  facet normal -6.123723e-001 -3.535534e-001 -7.071069e-001
    outer loop
      vertex  1.353258e-001  4.156089e-001  4.890000e-001
      vertex  4.757995e-001 -1.961089e-001  5.000000e-001
      vertex  1.257995e-001  4.101089e-001  5.000000e-001
    endloop
  endfacet
  facet normal  6.123725e-001  3.535534e-001 -7.071066e-001
    outer loop
      vertex  4.948521e-001 -1.851089e-001  5.000000e-001
      vertex  4.853258e-001 -1.906089e-001  4.890000e-001
      vertex  1.448521e-001  4.211089e-001  5.000000e-001
    endloop
  endfacet
  facet normal  6.123725e-001  3.535534e-001 -7.071066e-001
    outer loop
      vertex  1.448521e-001  4.211089e-001  5.000000e-001
      vertex  4.853258e-001 -1.906089e-001  4.890000e-001
      vertex  1.353258e-001  4.156089e-001  4.890000e-001
    endloop
  endfacet
  facet normal  6.123725e-001  3.535534e-001  7.071066e-001
    outer loop
      vertex  4.853258e-001 -1.906089e-001  5.110000e-001
      vertex  4.948521e-001 -1.851089e-001  5.000000e-001
      vertex  1.353258e-001  4.156089e-001  5.110000e-001
    endloop
  endfacet
  facet normal  6.123725e-001  3.535534e-001  7.071066e-001
    outer loop
      vertex  1.353258e-001  4.156089e-001  5.110000e-001
      vertex  4.948521e-001 -1.851089e-001  5.000000e-001
      vertex  1.448521e-001  4.211089e-001  5.000000e-001
    endloop
  endfacet
  facet normal -5.000001e-001 -8.660253e-001  0.000000e+000
    outer loop
      vertex -4.853258e-001 -1.906089e-001 -4.890000e-001
      vertex -4.948521e-001 -1.851089e-001 -5.000000e-001
      vertex -4.757995e-001 -1.961089e-001 -5.000000e-001
    endloop
  endfacet
  facet normal -5.000001e-001 -8.660253e-001  0.000000e+000
    outer loop
      vertex -4.757995e-001 -1.961089e-001 -5.000000e-001
      vertex -4.948521e-001 -1.851089e-001 -5.000000e-001
      vertex -4.853258e-001 -1.906089e-001 -5.110000e-001
    endloop
  endfacet
  facet normal  5.000000e-001  8.660254e-001  1.576321e-007
    outer loop
      vertex -1.353258e-001  4.156089e-001 -4.890000e-001
      vertex -1.257995e-001  4.101089e-001 -5.000000e-001
      vertex -1.448521e-001  4.211089e-001 -5.000000e-001
    endloop
  endfacet
  facet normal  5.000000e-001  8.660254e-001 -1.891585e-007
    outer loop
      vertex -1.448521e-001  4.211089e-001 -5.000000e-001
      vertex -1.257995e-001  4.101089e-001 -5.000000e-001
      vertex -1.353258e-001  4.156089e-001 -5.110000e-001
    endloop
  endfacet
  facet normal  6.123725e-001 -3.535534e-001  7.071068e-001
    outer loop
      vertex -1.353258e-001  4.156089e-001 -4.890000e-001
      vertex -4.853258e-001 -1.906089e-001 -4.890000e-001
      vertex -1.257995e-001  4.101089e-001 -5.000000e-001
    endloop
  endfacet
  facet normal  6.123725e-001 -3.535534e-001  7.071068e-001
    outer loop
      vertex -1.257995e-001  4.101089e-001 -5.000000e-001
      vertex -4.853258e-001 -1.906089e-001 -4.890000e-001
      vertex -4.757995e-001 -1.961089e-001 -5.000000e-001
    endloop
  endfacet
  facet normal  6.123725e-001 -3.535534e-001 -7.071068e-001
    outer loop
      vertex -1.257995e-001  4.101089e-001 -5.000000e-001
      vertex -4.757995e-001 -1.961089e-001 -5.000000e-001
      vertex -1.353258e-001  4.156089e-001 -5.110000e-001
    endloop
  endfacet
  facet normal  6.123725e-001 -3.535534e-001 -7.071068e-001
    outer loop
      vertex -1.353258e-001  4.156089e-001 -5.110000e-001
      vertex -4.757995e-001 -1.961089e-001 -5.000000e-001
      vertex -4.853258e-001 -1.906089e-001 -5.110000e-001
    endloop
  endfacet
  facet normal -6.123725e-001  3.535534e-001 -7.071068e-001
    outer loop
      vertex -1.353258e-001  4.156089e-001 -5.110000e-001
      vertex -4.853258e-001 -1.906089e-001 -5.110000e-001
      vertex -1.448521e-001  4.211089e-001 -5.000000e-001
    endloop
  endfacet
  facet normal -6.123725e-001  3.535534e-001 -7.071068e-001
    outer loop
      vertex -1.448521e-001  4.211089e-001 -5.000000e-001
      vertex -4.853258e-001 -1.906089e-001 -5.110000e-001
      vertex -4.948521e-001 -1.851089e-001 -5.000000e-001
    endloop
  endfacet
  facet normal -6.123725e-001  3.535534e-001  7.071068e-001
    outer loop
      vertex -1.448521e-001  4.211089e-001 -5.000000e-001
      vertex -4.948521e-001 -1.851089e-001 -5.000000e-001
      vertex -1.353258e-001  4.156089e-001 -4.890000e-001
    endloop
  endfacet
  facet normal -6.123725e-001  3.535534e-001  7.071068e-001
    outer loop
      vertex -1.353258e-001  4.156089e-001 -4.890000e-001
      vertex -4.948521e-001 -1.851089e-001 -5.000000e-001
      vertex -4.853258e-001 -1.906089e-001 -4.890000e-001
    endloop
  endfacet
  facet normal -5.000001e-001 -8.660253e-001  0.000000e+000
    outer loop
      vertex -4.853258e-001 -1.906089e-001  5.110000e-001
      vertex -4.948521e-001 -1.851089e-001  5.000000e-001
      vertex -4.757995e-001 -1.961089e-001  5.000000e-001
    endloop
  endfacet
  facet normal -5.000001e-001 -8.660253e-001  0.000000e+000
    outer loop
      vertex -4.757995e-001 -1.961089e-001  5.000000e-001
      vertex -4.948521e-001 -1.851089e-001  5.000000e-001
      vertex -4.853258e-001 -1.906089e-001  4.890000e-001
    endloop
  endfacet
  facet normal  5.000000e-001  8.660254e-001  1.576321e-007
    outer loop
      vertex -1.353258e-001  4.156089e-001  5.110000e-001
      vertex -1.257995e-001  4.101089e-001  5.000000e-001
      vertex -1.448521e-001  4.211089e-001  5.000000e-001
    endloop
  endfacet
  facet normal  5.000000e-001  8.660254e-001 -1.891585e-007
    outer loop
      vertex -1.448521e-001  4.211089e-001  5.000000e-001
      vertex -1.257995e-001  4.101089e-001  5.000000e-001
      vertex -1.353258e-001  4.156089e-001  4.890000e-001
    endloop
  endfacet
  facet normal  6.123723e-001 -3.535534e-001  7.071069e-001
    outer loop
      vertex -1.257995e-001  4.101089e-001  5.000000e-001
      vertex -1.353258e-001  4.156089e-001  5.110000e-001
      vertex -4.757995e-001 -1.961089e-001  5.000000e-001
    endloop
  endfacet
  facet normal  6.123725e-001 -3.535534e-001  7.071066e-001
    outer loop
      vertex -4.757995e-001 -1.961089e-001  5.000000e-001
      vertex -1.353258e-001  4.156089e-001  5.110000e-001
      vertex -4.853258e-001 -1.906089e-001  5.110000e-001
    endloop
  endfacet
  facet normal  6.123723e-001 -3.535534e-001 -7.071069e-001
    outer loop
      vertex -1.353258e-001  4.156089e-001  4.890000e-001
      vertex -1.257995e-001  4.101089e-001  5.000000e-001
      vertex -4.853258e-001 -1.906089e-001  4.890000e-001
    endloop
  endfacet
  facet normal  6.123725e-001 -3.535534e-001 -7.071066e-001
    outer loop
      vertex -4.853258e-001 -1.906089e-001  4.890000e-001
      vertex -1.257995e-001  4.101089e-001  5.000000e-001
      vertex -4.757995e-001 -1.961089e-001  5.000000e-001
    endloop
  endfacet
  facet normal -6.123725e-001  3.535534e-001 -7.071066e-001
    outer loop
      vertex -1.448521e-001  4.211089e-001  5.000000e-001
      vertex -1.353258e-001  4.156089e-001  4.890000e-001
      vertex -4.948521e-001 -1.851089e-001  5.000000e-001
    endloop
  endfacet
  facet normal -6.123725e-001  3.535534e-001 -7.071066e-001
    outer loop
      vertex -4.948521e-001 -1.851089e-001  5.000000e-001
      vertex -1.353258e-001  4.156089e-001  4.890000e-001
      vertex -4.853258e-001 -1.906089e-001  4.890000e-001
    endloop
  endfacet
  facet normal -6.123725e-001  3.535534e-001  7.071066e-001
    outer loop
      vertex -1.353258e-001  4.156089e-001  5.110000e-001
      vertex -1.448521e-001  4.211089e-001  5.000000e-001
      vertex -4.853258e-001 -1.906089e-001  5.110000e-001
    endloop
  endfacet
  facet normal -6.123725e-001  3.535534e-001  7.071066e-001
    outer loop
      vertex -4.853258e-001 -1.906089e-001  5.110000e-001
      vertex -1.448521e-001  4.211089e-001  5.000000e-001
      vertex -4.948521e-001 -1.851089e-001  5.000000e-001
    endloop
  endfacet
  facet normal  8.660251e-001 -5.000005e-001 -1.355155e-006
    outer loop
      vertex -4.567261e-001 -1.410727e-001 -1.506863e+000
      vertex -1.596736e-001  3.734372e-001 -5.187088e-001
      vertex -4.610093e-001 -1.484914e-001 -1.501704e+000
    endloop
  endfacet
  facet normal  8.660237e-001 -5.000029e-001  1.355161e-006
    outer loop
      vertex -4.610093e-001 -1.484914e-001 -1.501704e+000
      vertex -1.596736e-001  3.734372e-001 -5.187088e-001
      vertex -1.639568e-001  3.660185e-001 -5.135496e-001
    endloop
  endfacet
  facet normal -8.660251e-001  5.000004e-001 -2.329179e-007
    outer loop
      vertex -4.567261e-001 -1.410727e-001  5.041372e-001
      vertex -4.610093e-001 -1.484914e-001  5.092964e-001
      vertex -1.596736e-001  3.734372e-001  1.492291e+000
    endloop
  endfacet
  facet normal -8.660254e-001  4.999999e-001  4.234878e-008
    outer loop
      vertex -1.596736e-001  3.734372e-001  1.492291e+000
      vertex -4.610093e-001 -1.484914e-001  5.092964e-001
      vertex -1.639568e-001  3.660185e-001  1.497450e+000
    endloop
  endfacet
  facet normal  8.660251e-001 -5.000005e-001 -1.355155e-006
    outer loop
      vertex -4.567261e-001 -1.410727e-001 -4.958628e-001
      vertex -1.596736e-001  3.734372e-001  4.922913e-001
      vertex -4.610093e-001 -1.484914e-001 -4.907036e-001
    endloop
  endfacet
  facet normal  8.660237e-001 -5.000029e-001  1.355161e-006
    outer loop
      vertex -4.610093e-001 -1.484914e-001 -4.907036e-001
      vertex -1.596736e-001  3.734372e-001  4.922913e-001
      vertex -1.639568e-001  3.660185e-001  4.974505e-001
    endloop
  endfacet
  facet normal -8.660237e-001 -5.000029e-001  0.000000e+000
    outer loop
      vertex  1.639255e-001  3.660727e-001 -1.506863e+000
      vertex  4.609780e-001 -1.484372e-001 -5.187088e-001
      vertex  1.596423e-001  3.734914e-001 -1.501704e+000
    endloop
  endfacet
  facet normal -8.660237e-001 -5.000029e-001  0.000000e+000
    outer loop
      vertex  1.596423e-001  3.734914e-001 -1.501704e+000
      vertex  4.609780e-001 -1.484372e-001 -5.187088e-001
      vertex  4.566948e-001 -1.410185e-001 -5.135496e-001
    endloop
  endfacet
  facet normal  8.660249e-001  5.000009e-001  6.140569e-007
    outer loop
      vertex  1.639255e-001  3.660727e-001  5.041372e-001
      vertex  1.596423e-001  3.734914e-001  5.092964e-001
      vertex  4.609780e-001 -1.484372e-001  1.492291e+000
    endloop
  endfacet
  facet normal  8.660251e-001  5.000004e-001  2.117436e-007
    outer loop
      vertex  4.609780e-001 -1.484372e-001  1.492291e+000
      vertex  1.596423e-001  3.734914e-001  5.092964e-001
      vertex  4.566948e-001 -1.410185e-001  1.497450e+000
    endloop
  endfacet
  facet normal -8.660237e-001 -5.000029e-001  0.000000e+000
    outer loop
      vertex  1.639255e-001  3.660727e-001 -4.958628e-001
      vertex  4.609780e-001 -1.484372e-001  4.922913e-001
      vertex  1.596423e-001  3.734914e-001 -4.907036e-001
    endloop
  endfacet
  facet normal -8.660237e-001 -5.000029e-001  0.000000e+000
    outer loop
      vertex  1.596423e-001  3.734914e-001 -4.907036e-001
      vertex  4.609780e-001 -1.484372e-001  4.922913e-001
      vertex  4.566948e-001 -1.410185e-001  4.974505e-001
    endloop
  endfacet
  facet normal  0.000000e+000  1.000000e+000  0.000000e+000
    outer loop
      vertex  2.928006e-001 -4.250000e-001 -1.506863e+000
      vertex -3.013043e-001 -4.250000e-001 -5.187088e-001
      vertex  3.013670e-001 -4.250000e-001 -1.501704e+000
    endloop
  endfacet
  facet normal  0.000000e+000  1.000000e+000  0.000000e+000
    outer loop
      vertex  3.013670e-001 -4.250000e-001 -1.501704e+000
      vertex -3.013043e-001 -4.250000e-001 -5.187088e-001
      vertex -2.927379e-001 -4.250000e-001 -5.135496e-001
    endloop
  endfacet
  facet normal  -0.000000e+000 -9.999999e-001  0.000000e+000
    outer loop
      vertex  2.928006e-001 -4.250000e-001  5.041372e-001
      vertex  3.013670e-001 -4.250000e-001  5.092964e-001
      vertex -3.013043e-001 -4.250000e-001  1.492291e+000
    endloop
  endfacet
  facet normal  0.000000e+000 -1.000000e+000  0.000000e+000
    outer loop
      vertex -3.013043e-001 -4.250000e-001  1.492291e+000
      vertex  3.013670e-001 -4.250000e-001  5.092964e-001
      vertex -2.927379e-001 -4.250000e-001  1.497450e+000
    endloop
  endfacet
  facet normal  0.000000e+000  1.000000e+000  0.000000e+000
    outer loop
      vertex  2.928006e-001 -4.250000e-001 -4.958628e-001
      vertex -3.013043e-001 -4.250000e-001  4.922913e-001
      vertex  3.013670e-001 -4.250000e-001 -4.907036e-001
    endloop
  endfacet
  facet normal  0.000000e+000  1.000000e+000  0.000000e+000
    outer loop
      vertex  3.013670e-001 -4.250000e-001 -4.907036e-001
      vertex -3.013043e-001 -4.250000e-001  4.922913e-001
      vertex -2.927379e-001 -4.250000e-001  4.974505e-001
    endloop
  endfacet
endsolid CATIA STL
