solid CATIA STL
  facet normal  0.000000e+000  0.000000e+000 -1.000000e+000
    outer loop
      vertex  1.154701e-001 -2.000000e-001 -4.787400e-001
      vertex -1.154701e-001 -2.000000e-001 -4.787400e-001
      vertex  2.309401e-001  5.684342e-017 -4.787400e-001
    endloop
  endfacet
  facet normal  0.000000e+000  0.000000e+000 -1.000000e+000
    outer loop
      vertex  2.309401e-001  5.684342e-017 -4.787400e-001
      vertex -1.154701e-001 -2.000000e-001 -4.787400e-001
      vertex -2.309401e-001 -1.421086e-016 -4.787400e-001
    endloop
  endfacet
  facet normal  0.000000e+000  0.000000e+000 -1.000000e+000
    outer loop
      vertex  2.309401e-001  5.684342e-017 -4.787400e-001
      vertex -2.309401e-001 -1.421086e-016 -4.787400e-001
      vertex  1.154701e-001  2.000000e-001 -4.787400e-001
    endloop
  endfacet
  facet normal  -0.000000e+000  0.000000e+000 -1.000000e+000
    outer loop
      vertex  1.154701e-001  2.000000e-001 -4.787400e-001
      vertex -2.309401e-001 -1.421086e-016 -4.787400e-001
      vertex -1.154701e-001  2.000000e-001 -4.787400e-001
    endloop
  endfacet
  facet normal  0.000000e+000  1.000000e+000  -0.000000e+000
    outer loop
      vertex  1.154701e-001  2.000000e-001  0.000000e+000
      vertex  1.154701e-001  2.000000e-001 -4.787400e-001
      vertex -1.154701e-001  2.000000e-001  0.000000e+000
    endloop
  endfacet
  facet normal  0.000000e+000  1.000000e+000  0.000000e+000
    outer loop
      vertex -1.154701e-001  2.000000e-001  0.000000e+000
      vertex  1.154701e-001  2.000000e-001 -4.787400e-001
      vertex -1.154701e-001  2.000000e-001 -4.787400e-001
    endloop
  endfacet
  facet normal -8.660254e-001  5.000000e-001  0.000000e+000
    outer loop
      vertex -1.154701e-001  2.000000e-001  0.000000e+000
      vertex -1.154701e-001  2.000000e-001 -4.787400e-001
      vertex -2.309401e-001 -4.263256e-017  0.000000e+000
    endloop
  endfacet
  facet normal -8.660254e-001  5.000000e-001 -1.038935e-016
    outer loop
      vertex -2.309401e-001 -4.263256e-017  0.000000e+000
      vertex -1.154701e-001  2.000000e-001 -4.787400e-001
      vertex -2.309401e-001 -1.421086e-016 -4.787400e-001
    endloop
  endfacet
  facet normal -8.660254e-001 -5.000000e-001  1.038935e-016
    outer loop
      vertex -2.309401e-001 -4.263256e-017  0.000000e+000
      vertex -2.309401e-001 -1.421086e-016 -4.787400e-001
      vertex -1.154701e-001 -2.000000e-001  0.000000e+000
    endloop
  endfacet
  facet normal -8.660254e-001 -5.000000e-001  -0.000000e+000
    outer loop
      vertex -1.154701e-001 -2.000000e-001  0.000000e+000
      vertex -2.309401e-001 -1.421086e-016 -4.787400e-001
      vertex -1.154701e-001 -2.000000e-001 -4.787400e-001
    endloop
  endfacet
  facet normal  0.000000e+000 -1.000000e+000  0.000000e+000
    outer loop
      vertex -1.154701e-001 -2.000000e-001  0.000000e+000
      vertex -1.154701e-001 -2.000000e-001 -4.787400e-001
      vertex  1.154701e-001 -2.000000e-001  0.000000e+000
    endloop
  endfacet
  facet normal  0.000000e+000 -1.000000e+000  -0.000000e+000
    outer loop
      vertex  1.154701e-001 -2.000000e-001  0.000000e+000
      vertex -1.154701e-001 -2.000000e-001 -4.787400e-001
      vertex  1.154701e-001 -2.000000e-001 -4.787400e-001
    endloop
  endfacet
  facet normal  8.660254e-001 -5.000000e-001  0.000000e+000
    outer loop
      vertex  1.154701e-001 -2.000000e-001  0.000000e+000
      vertex  1.154701e-001 -2.000000e-001 -4.787400e-001
      vertex  2.309401e-001  1.421086e-017  0.000000e+000
    endloop
  endfacet
  facet normal  8.660254e-001 -5.000000e-001 -4.452580e-017
    outer loop
      vertex  2.309401e-001  1.421086e-017  0.000000e+000
      vertex  1.154701e-001 -2.000000e-001 -4.787400e-001
      vertex  2.309401e-001  5.684342e-017 -4.787400e-001
    endloop
  endfacet
  facet normal  8.660254e-001  5.000000e-001  4.452580e-017
    outer loop
      vertex  2.309401e-001  1.421086e-017  0.000000e+000
      vertex  2.309401e-001  5.684342e-017 -4.787400e-001
      vertex  1.154701e-001  2.000000e-001  0.000000e+000
    endloop
  endfacet
  facet normal  8.660254e-001  5.000000e-001  0.000000e+000
    outer loop
      vertex  1.154701e-001  2.000000e-001  0.000000e+000
      vertex  2.309401e-001  5.684342e-017 -4.787400e-001
      vertex  1.154701e-001  2.000000e-001 -4.787400e-001
    endloop
  endfacet
  facet normal  -0.000000e+000  0.000000e+000  1.000000e+000
    outer loop
      vertex  1.154701e-001  2.000000e-001  0.000000e+000
      vertex -1.154701e-001  2.000000e-001  0.000000e+000
      vertex  2.309401e-001  1.421086e-017  0.000000e+000
    endloop
  endfacet
  facet normal  0.000000e+000  0.000000e+000  1.000000e+000
    outer loop
      vertex  2.309401e-001  1.421086e-017  0.000000e+000
      vertex -1.154701e-001  2.000000e-001  0.000000e+000
      vertex -2.309401e-001 -4.263256e-017  0.000000e+000
    endloop
  endfacet
  facet normal  -0.000000e+000  0.000000e+000  1.000000e+000
    outer loop
      vertex  2.309401e-001  1.421086e-017  0.000000e+000
      vertex -2.309401e-001 -4.263256e-017  0.000000e+000
      vertex  1.154701e-001 -2.000000e-001  0.000000e+000
    endloop
  endfacet
  facet normal  0.000000e+000  0.000000e+000  1.000000e+000
    outer loop
      vertex  1.154701e-001 -2.000000e-001  0.000000e+000
      vertex -2.309401e-001 -4.263256e-017  0.000000e+000
      vertex -1.154701e-001 -2.000000e-001  0.000000e+000
    endloop
  endfacet
endsolid CATIA STL
