solid CATIA STL
  facet normal  0.000000e+000  -0.000000e+000  1.000000e+000
    outer loop
      vertex  1.773503e-002 -3.071797e-002  5.000000e-002
      vertex  1.556773e-001 -1.103590e-001  5.000000e-002
      vertex  1.734124e-001 -7.964101e-002  5.000000e-002
    endloop
  endfacet
  facet normal  0.000000e+000  0.000000e+000  1.000000e+000
    outer loop
      vertex  1.773503e-002 -3.071797e-002  5.000000e-002
      vertex  1.734124e-001 -7.964101e-002  5.000000e-002
      vertex  3.547006e-002 -1.598721e-017  5.000000e-002
    endloop
  endfacet
  facet normal  0.000000e+000  0.000000e+000  1.000000e+000
    outer loop
      vertex  1.773503e-002 -3.071797e-002  5.000000e-002
      vertex  3.547006e-002 -1.598721e-017  5.000000e-002
      vertex -3.547006e-002  1.474376e-016  5.000000e-002
    endloop
  endfacet
  facet normal  0.000000e+000  0.000000e+000  1.000000e+000
    outer loop
      vertex  1.773503e-002 -3.071797e-002  5.000000e-002
      vertex -3.547006e-002  1.474376e-016  5.000000e-002
      vertex -1.773503e-002 -3.071797e-002  5.000000e-002
    endloop
  endfacet
  facet normal  -0.000000e+000  0.000000e+000  1.000000e+000
    outer loop
      vertex  1.773503e-002 -3.071797e-002  5.000000e-002
      vertex -1.773503e-002 -3.071797e-002  5.000000e-002
      vertex -1.773503e-002 -1.900000e-001  5.000000e-002
    endloop
  endfacet
  facet normal  0.000000e+000  0.000000e+000  1.000000e+000
    outer loop
      vertex  1.773503e-002 -3.071797e-002  5.000000e-002
      vertex -1.773503e-002 -1.900000e-001  5.000000e-002
      vertex  1.773503e-002 -1.900000e-001  5.000000e-002
    endloop
  endfacet
  facet normal  0.000000e+000  0.000000e+000  1.000000e+000
    outer loop
      vertex  1.734124e-001  7.964101e-002  5.000000e-002
      vertex  1.556773e-001  1.103590e-001  5.000000e-002
      vertex  3.547006e-002 -1.598721e-017  5.000000e-002
    endloop
  endfacet
  facet normal  0.000000e+000  -0.000000e+000  1.000000e+000
    outer loop
      vertex  3.547006e-002 -1.598721e-017  5.000000e-002
      vertex  1.556773e-001  1.103590e-001  5.000000e-002
      vertex  1.773503e-002  3.071797e-002  5.000000e-002
    endloop
  endfacet
  facet normal  0.000000e+000  0.000000e+000  1.000000e+000
    outer loop
      vertex  3.547006e-002 -1.598721e-017  5.000000e-002
      vertex  1.773503e-002  3.071797e-002  5.000000e-002
      vertex -3.547006e-002  1.474376e-016  5.000000e-002
    endloop
  endfacet
  facet normal  0.000000e+000  0.000000e+000  1.000000e+000
    outer loop
      vertex -3.547006e-002  1.474376e-016  5.000000e-002
      vertex  1.773503e-002  3.071797e-002  5.000000e-002
      vertex -1.773503e-002  3.071797e-002  5.000000e-002
    endloop
  endfacet
  facet normal  0.000000e+000  0.000000e+000  1.000000e+000
    outer loop
      vertex -3.547006e-002  1.474376e-016  5.000000e-002
      vertex -1.773503e-002  3.071797e-002  5.000000e-002
      vertex -1.734124e-001  7.964101e-002  5.000000e-002
    endloop
  endfacet
  facet normal  -0.000000e+000  0.000000e+000  1.000000e+000
    outer loop
      vertex -1.734124e-001  7.964101e-002  5.000000e-002
      vertex -1.773503e-002  3.071797e-002  5.000000e-002
      vertex -1.556773e-001  1.103590e-001  5.000000e-002
    endloop
  endfacet
  facet normal  0.000000e+000  -0.000000e+000  1.000000e+000
    outer loop
      vertex -1.734124e-001 -7.964101e-002  5.000000e-002
      vertex -1.556773e-001 -1.103590e-001  5.000000e-002
      vertex -3.547006e-002  1.474376e-016  5.000000e-002
    endloop
  endfacet
  facet normal  0.000000e+000  0.000000e+000  1.000000e+000
    outer loop
      vertex -3.547006e-002  1.474376e-016  5.000000e-002
      vertex -1.556773e-001 -1.103590e-001  5.000000e-002
      vertex -1.773503e-002 -3.071797e-002  5.000000e-002
    endloop
  endfacet
  facet normal  0.000000e+000  0.000000e+000  1.000000e+000
    outer loop
      vertex -1.773503e-002  3.071797e-002  5.000000e-002
      vertex  1.773503e-002  3.071797e-002  5.000000e-002
      vertex -1.773503e-002  1.900000e-001  5.000000e-002
    endloop
  endfacet
  facet normal  -0.000000e+000  0.000000e+000  1.000000e+000
    outer loop
      vertex -1.773503e-002  1.900000e-001  5.000000e-002
      vertex  1.773503e-002  3.071797e-002  5.000000e-002
      vertex  1.773503e-002  1.900000e-001  5.000000e-002
    endloop
  endfacet
  facet normal -8.660254e-001  0.000000e+000  4.999999e-001
    outer loop
      vertex -1.773503e-002  3.071797e-002  5.000000e-002
      vertex -1.773503e-002  1.900000e-001  5.000000e-002
      vertex -4.660254e-002  8.071797e-002  0.000000e+000
    endloop
  endfacet
  facet normal -8.660254e-001  0.000000e+000  5.000000e-001
    outer loop
      vertex -4.660254e-002  8.071797e-002  0.000000e+000
      vertex -1.773503e-002  1.900000e-001  5.000000e-002
      vertex -4.660254e-002  2.000000e-001  0.000000e+000
    endloop
  endfacet
  facet normal  8.660254e-001  0.000000e+000  5.000000e-001
    outer loop
      vertex  4.660254e-002  8.071797e-002 -6.785684e-016
      vertex  4.660254e-002  2.000000e-001 -6.785684e-016
      vertex  1.773503e-002  3.071797e-002  5.000000e-002
    endloop
  endfacet
  facet normal  8.660254e-001  -0.000000e+000  4.999999e-001
    outer loop
      vertex  1.773503e-002  3.071797e-002  5.000000e-002
      vertex  4.660254e-002  2.000000e-001 -6.785684e-016
      vertex  1.773503e-002  1.900000e-001  5.000000e-002
    endloop
  endfacet
  facet normal  0.000000e+000  1.000000e+000  0.000000e+000
    outer loop
      vertex  1.154701e-001  2.000000e-001 -2.000000e-001
      vertex -1.154701e-001  2.000000e-001 -2.000000e-001
      vertex -1.154701e-001  2.000000e-001  0.000000e+000
    endloop
  endfacet
  facet normal  -0.000000e+000  1.000000e+000  0.000000e+000
    outer loop
      vertex  1.154701e-001  2.000000e-001 -2.000000e-001
      vertex -1.154701e-001  2.000000e-001  0.000000e+000
      vertex -4.660254e-002  2.000000e-001  0.000000e+000
    endloop
  endfacet
  facet normal  0.000000e+000  1.000000e+000  0.000000e+000
    outer loop
      vertex  1.154701e-001  2.000000e-001 -2.000000e-001
      vertex -4.660254e-002  2.000000e-001  0.000000e+000
      vertex  4.660254e-002  2.000000e-001 -6.785684e-016
    endloop
  endfacet
  facet normal  -0.000000e+000  1.000000e+000  0.000000e+000
    outer loop
      vertex  1.154701e-001  2.000000e-001 -2.000000e-001
      vertex  4.660254e-002  2.000000e-001 -6.785684e-016
      vertex  1.154701e-001  2.000000e-001  0.000000e+000
    endloop
  endfacet
  facet normal  0.000000e+000  9.805806e-001  1.961161e-001
    outer loop
      vertex -1.773503e-002  1.900000e-001  5.000000e-002
      vertex  1.773503e-002  1.900000e-001  5.000000e-002
      vertex -4.660254e-002  2.000000e-001  0.000000e+000
    endloop
  endfacet
  facet normal  1.427800e-015  9.805807e-001  1.961161e-001
    outer loop
      vertex -4.660254e-002  2.000000e-001  0.000000e+000
      vertex  1.773503e-002  1.900000e-001  5.000000e-002
      vertex  4.660254e-002  2.000000e-001 -6.785684e-016
    endloop
  endfacet
  facet normal -4.330127e-001  7.500001e-001  4.999999e-001
    outer loop
      vertex  1.499038e-001  1.403590e-001 -6.785684e-016
      vertex  4.660254e-002  8.071797e-002 -6.785684e-016
      vertex  1.556773e-001  1.103590e-001  5.000000e-002
    endloop
  endfacet
  facet normal -4.330127e-001  7.499999e-001  5.000000e-001
    outer loop
      vertex  1.556773e-001  1.103590e-001  5.000000e-002
      vertex  4.660254e-002  8.071797e-002 -6.785684e-016
      vertex  1.773503e-002  3.071797e-002  5.000000e-002
    endloop
  endfacet
  facet normal  4.330128e-001 -7.500001e-001  4.999999e-001
    outer loop
      vertex  1.734124e-001  7.964101e-002  5.000000e-002
      vertex  3.547006e-002 -1.598721e-017  5.000000e-002
      vertex  1.965064e-001  5.964102e-002  0.000000e+000
    endloop
  endfacet
  facet normal  4.330127e-001 -7.500000e-001  5.000000e-001
    outer loop
      vertex  1.965064e-001  5.964102e-002  0.000000e+000
      vertex  3.547006e-002 -1.598721e-017  5.000000e-002
      vertex  9.320508e-002 -4.973799e-017  0.000000e+000
    endloop
  endfacet
  facet normal  8.660254e-001  5.000000e-001  0.000000e+000
    outer loop
      vertex  1.154701e-001  2.000000e-001 -2.000000e-001
      vertex  1.154701e-001  2.000000e-001  0.000000e+000
      vertex  1.499038e-001  1.403590e-001 -6.785684e-016
    endloop
  endfacet
  facet normal  8.660254e-001  5.000001e-001  3.929088e-008
    outer loop
      vertex  1.154701e-001  2.000000e-001 -2.000000e-001
      vertex  1.499038e-001  1.403590e-001 -6.785684e-016
      vertex  1.965064e-001  5.964102e-002  0.000000e+000
    endloop
  endfacet
  facet normal  8.660254e-001  5.000001e-001  3.545077e-008
    outer loop
      vertex  1.154701e-001  2.000000e-001 -2.000000e-001
      vertex  1.965064e-001  5.964102e-002  0.000000e+000
      vertex  2.309401e-001  2.842171e-017  0.000000e+000
    endloop
  endfacet
  facet normal  8.660254e-001  5.000000e-001 -3.552714e-017
    outer loop
      vertex  1.154701e-001  2.000000e-001 -2.000000e-001
      vertex  2.309401e-001  2.842171e-017  0.000000e+000
      vertex  2.309401e-001  1.421086e-017 -2.000000e-001
    endloop
  endfacet
  facet normal  4.926621e-015 -8.533158e-015  1.000000e+000
    outer loop
      vertex  1.499038e-001  1.403590e-001 -6.785684e-016
      vertex  1.154701e-001  2.000000e-001  0.000000e+000
      vertex  4.660254e-002  8.071797e-002 -6.785684e-016
    endloop
  endfacet
  facet normal -9.853243e-015  0.000000e+000  1.000000e+000
    outer loop
      vertex  4.660254e-002  8.071797e-002 -6.785684e-016
      vertex  1.154701e-001  2.000000e-001  0.000000e+000
      vertex  4.660254e-002  2.000000e-001 -6.785684e-016
    endloop
  endfacet
  facet normal  8.492077e-001  4.902903e-001  1.961161e-001
    outer loop
      vertex  1.734124e-001  7.964101e-002  5.000000e-002
      vertex  1.965064e-001  5.964102e-002  0.000000e+000
      vertex  1.556773e-001  1.103590e-001  5.000000e-002
    endloop
  endfacet
  facet normal  8.492078e-001  4.902903e-001  1.961161e-001
    outer loop
      vertex  1.556773e-001  1.103590e-001  5.000000e-002
      vertex  1.965064e-001  5.964102e-002  0.000000e+000
      vertex  1.499038e-001  1.403590e-001 -6.785684e-016
    endloop
  endfacet
  facet normal -4.330127e-001 -7.500001e-001  4.999999e-001
    outer loop
      vertex  4.660254e-002 -8.071797e-002 -6.785684e-016
      vertex  1.499038e-001 -1.403590e-001 -6.785684e-016
      vertex  1.773503e-002 -3.071797e-002  5.000000e-002
    endloop
  endfacet
  facet normal -4.330128e-001 -7.500001e-001  4.999997e-001
    outer loop
      vertex  1.773503e-002 -3.071797e-002  5.000000e-002
      vertex  1.499038e-001 -1.403590e-001 -6.785684e-016
      vertex  1.556773e-001 -1.103590e-001  5.000000e-002
    endloop
  endfacet
  facet normal  4.330127e-001  7.500000e-001  5.000000e-001
    outer loop
      vertex  3.547006e-002 -1.598721e-017  5.000000e-002
      vertex  1.734124e-001 -7.964101e-002  5.000000e-002
      vertex  9.320508e-002 -4.973799e-017  0.000000e+000
    endloop
  endfacet
  facet normal  4.330127e-001  7.500001e-001  4.999999e-001
    outer loop
      vertex  9.320508e-002 -4.973799e-017  0.000000e+000
      vertex  1.734124e-001 -7.964101e-002  5.000000e-002
      vertex  1.965064e-001 -5.964102e-002  0.000000e+000
    endloop
  endfacet
  facet normal  8.660254e-001 -5.000000e-001  3.552714e-017
    outer loop
      vertex  1.154701e-001 -2.000000e-001 -2.000000e-001
      vertex  2.309401e-001  1.421086e-017 -2.000000e-001
      vertex  2.309401e-001  2.842171e-017  0.000000e+000
    endloop
  endfacet
  facet normal  8.660254e-001 -5.000001e-001  7.090154e-008
    outer loop
      vertex  1.154701e-001 -2.000000e-001 -2.000000e-001
      vertex  2.309401e-001  2.842171e-017  0.000000e+000
      vertex  1.965064e-001 -5.964102e-002  0.000000e+000
    endloop
  endfacet
  facet normal  8.660254e-001 -5.000001e-001  5.238784e-008
    outer loop
      vertex  1.154701e-001 -2.000000e-001 -2.000000e-001
      vertex  1.965064e-001 -5.964102e-002  0.000000e+000
      vertex  1.499038e-001 -1.403590e-001 -6.785684e-016
    endloop
  endfacet
  facet normal  8.660254e-001 -5.000000e-001  0.000000e+000
    outer loop
      vertex  1.154701e-001 -2.000000e-001 -2.000000e-001
      vertex  1.499038e-001 -1.403590e-001 -6.785684e-016
      vertex  1.154701e-001 -2.000000e-001  0.000000e+000
    endloop
  endfacet
  facet normal  0.000000e+000  0.000000e+000  1.000000e+000
    outer loop
      vertex  1.965064e-001  5.964102e-002  0.000000e+000
      vertex  9.320508e-002 -4.973799e-017  0.000000e+000
      vertex  2.309401e-001  2.842171e-017  0.000000e+000
    endloop
  endfacet
  facet normal  0.000000e+000  0.000000e+000  1.000000e+000
    outer loop
      vertex  2.309401e-001  2.842171e-017  0.000000e+000
      vertex  9.320508e-002 -4.973799e-017  0.000000e+000
      vertex  1.965064e-001 -5.964102e-002  0.000000e+000
    endloop
  endfacet
  facet normal  8.492076e-001 -4.902903e-001  1.961161e-001
    outer loop
      vertex  1.734124e-001 -7.964101e-002  5.000000e-002
      vertex  1.556773e-001 -1.103590e-001  5.000000e-002
      vertex  1.965064e-001 -5.964102e-002  0.000000e+000
    endloop
  endfacet
  facet normal  8.492078e-001 -4.902903e-001  1.961161e-001
    outer loop
      vertex  1.965064e-001 -5.964102e-002  0.000000e+000
      vertex  1.556773e-001 -1.103590e-001  5.000000e-002
      vertex  1.499038e-001 -1.403590e-001 -6.785684e-016
    endloop
  endfacet
  facet normal  8.660254e-001  0.000000e+000  5.000000e-001
    outer loop
      vertex  4.660254e-002 -2.000000e-001 -6.785684e-016
      vertex  4.660254e-002 -8.071797e-002 -6.785684e-016
      vertex  1.773503e-002 -1.900000e-001  5.000000e-002
    endloop
  endfacet
  facet normal  8.660254e-001  -0.000000e+000  4.999999e-001
    outer loop
      vertex  1.773503e-002 -1.900000e-001  5.000000e-002
      vertex  4.660254e-002 -8.071797e-002 -6.785684e-016
      vertex  1.773503e-002 -3.071797e-002  5.000000e-002
    endloop
  endfacet
  facet normal -8.660254e-001  0.000000e+000  4.999999e-001
    outer loop
      vertex -1.773503e-002 -1.900000e-001  5.000000e-002
      vertex -1.773503e-002 -3.071797e-002  5.000000e-002
      vertex -4.660254e-002 -2.000000e-001  0.000000e+000
    endloop
  endfacet
  facet normal -8.660254e-001  0.000000e+000  5.000000e-001
    outer loop
      vertex -4.660254e-002 -2.000000e-001  0.000000e+000
      vertex -1.773503e-002 -3.071797e-002  5.000000e-002
      vertex -4.660254e-002 -8.071797e-002  0.000000e+000
    endloop
  endfacet
  facet normal  0.000000e+000 -1.000000e+000  -0.000000e+000
    outer loop
      vertex  1.154701e-001 -2.000000e-001 -2.000000e-001
      vertex  1.154701e-001 -2.000000e-001  0.000000e+000
      vertex  4.660254e-002 -2.000000e-001 -6.785684e-016
    endloop
  endfacet
  facet normal  -0.000000e+000 -1.000000e+000  -0.000000e+000
    outer loop
      vertex  1.154701e-001 -2.000000e-001 -2.000000e-001
      vertex  4.660254e-002 -2.000000e-001 -6.785684e-016
      vertex -4.660254e-002 -2.000000e-001  0.000000e+000
    endloop
  endfacet
  facet normal  -0.000000e+000 -1.000000e+000  -0.000000e+000
    outer loop
      vertex  1.154701e-001 -2.000000e-001 -2.000000e-001
      vertex -4.660254e-002 -2.000000e-001  0.000000e+000
      vertex -1.154701e-001 -2.000000e-001  0.000000e+000
    endloop
  endfacet
  facet normal  0.000000e+000 -1.000000e+000  0.000000e+000
    outer loop
      vertex  1.154701e-001 -2.000000e-001 -2.000000e-001
      vertex -1.154701e-001 -2.000000e-001  0.000000e+000
      vertex -1.154701e-001 -2.000000e-001 -2.000000e-001
    endloop
  endfacet
  facet normal  4.926621e-015  8.533159e-015  1.000000e+000
    outer loop
      vertex  1.499038e-001 -1.403590e-001 -6.785684e-016
      vertex  4.660254e-002 -8.071797e-002 -6.785684e-016
      vertex  1.154701e-001 -2.000000e-001  0.000000e+000
    endloop
  endfacet
  facet normal -9.853243e-015  0.000000e+000  1.000000e+000
    outer loop
      vertex  1.154701e-001 -2.000000e-001  0.000000e+000
      vertex  4.660254e-002 -8.071797e-002 -6.785684e-016
      vertex  4.660254e-002 -2.000000e-001 -6.785684e-016
    endloop
  endfacet
  facet normal  0.000000e+000 -9.805807e-001  1.961162e-001
    outer loop
      vertex -1.773503e-002 -1.900000e-001  5.000000e-002
      vertex -4.660254e-002 -2.000000e-001  0.000000e+000
      vertex  1.773503e-002 -1.900000e-001  5.000000e-002
    endloop
  endfacet
  facet normal  0.000000e+000 -9.805807e-001  1.961161e-001
    outer loop
      vertex  1.773503e-002 -1.900000e-001  5.000000e-002
      vertex -4.660254e-002 -2.000000e-001  0.000000e+000
      vertex  4.660254e-002 -2.000000e-001 -6.785684e-016
    endloop
  endfacet
  facet normal -4.330127e-001  7.500000e-001  5.000000e-001
    outer loop
      vertex -9.320508e-002  5.684342e-017 -6.785684e-016
      vertex -1.965064e-001 -5.964102e-002 -6.785684e-016
      vertex -3.547006e-002  1.474376e-016  5.000000e-002
    endloop
  endfacet
  facet normal -4.330128e-001  7.500001e-001  4.999999e-001
    outer loop
      vertex -3.547006e-002  1.474376e-016  5.000000e-002
      vertex -1.965064e-001 -5.964102e-002 -6.785684e-016
      vertex -1.734124e-001 -7.964101e-002  5.000000e-002
    endloop
  endfacet
  facet normal  4.330127e-001 -7.499999e-001  5.000000e-001
    outer loop
      vertex -1.773503e-002 -3.071797e-002  5.000000e-002
      vertex -1.556773e-001 -1.103590e-001  5.000000e-002
      vertex -4.660254e-002 -8.071797e-002  0.000000e+000
    endloop
  endfacet
  facet normal  4.330127e-001 -7.500001e-001  4.999999e-001
    outer loop
      vertex -4.660254e-002 -8.071797e-002  0.000000e+000
      vertex -1.556773e-001 -1.103590e-001  5.000000e-002
      vertex -1.499038e-001 -1.403590e-001  0.000000e+000
    endloop
  endfacet
  facet normal -8.660254e-001 -5.000000e-001  0.000000e+000
    outer loop
      vertex -2.309401e-001 -4.263256e-017 -2.000000e-001
      vertex -1.154701e-001 -2.000000e-001 -2.000000e-001
      vertex -1.154701e-001 -2.000000e-001  0.000000e+000
    endloop
  endfacet
  facet normal -8.660254e-001 -5.000000e-001  7.090154e-008
    outer loop
      vertex -2.309401e-001 -4.263256e-017 -2.000000e-001
      vertex -1.154701e-001 -2.000000e-001  0.000000e+000
      vertex -1.499038e-001 -1.403590e-001  0.000000e+000
    endloop
  endfacet
  facet normal -8.660254e-001 -5.000001e-001 -2.619392e-008
    outer loop
      vertex -2.309401e-001 -4.263256e-017 -2.000000e-001
      vertex -1.499038e-001 -1.403590e-001  0.000000e+000
      vertex -1.965064e-001 -5.964102e-002 -6.785684e-016
    endloop
  endfacet
  facet normal -8.660254e-001 -5.000001e-001  0.000000e+000
    outer loop
      vertex -2.309401e-001 -4.263256e-017 -2.000000e-001
      vertex -1.965064e-001 -5.964102e-002 -6.785684e-016
      vertex -2.309401e-001 -2.700063e-016  0.000000e+000
    endloop
  endfacet
  facet normal  0.000000e+000  0.000000e+000  1.000000e+000
    outer loop
      vertex -4.660254e-002 -2.000000e-001  0.000000e+000
      vertex -4.660254e-002 -8.071797e-002  0.000000e+000
      vertex -1.154701e-001 -2.000000e-001  0.000000e+000
    endloop
  endfacet
  facet normal  0.000000e+000  -0.000000e+000  1.000000e+000
    outer loop
      vertex -1.154701e-001 -2.000000e-001  0.000000e+000
      vertex -4.660254e-002 -8.071797e-002  0.000000e+000
      vertex -1.499038e-001 -1.403590e-001  0.000000e+000
    endloop
  endfacet
  facet normal -8.492076e-001 -4.902903e-001  1.961161e-001
    outer loop
      vertex -1.556773e-001 -1.103590e-001  5.000000e-002
      vertex -1.734124e-001 -7.964101e-002  5.000000e-002
      vertex -1.499038e-001 -1.403590e-001  0.000000e+000
    endloop
  endfacet
  facet normal -8.492078e-001 -4.902903e-001  1.961162e-001
    outer loop
      vertex -1.499038e-001 -1.403590e-001  0.000000e+000
      vertex -1.734124e-001 -7.964101e-002  5.000000e-002
      vertex -1.965064e-001 -5.964102e-002 -6.785684e-016
    endloop
  endfacet
  facet normal -4.330127e-001 -7.500001e-001  4.999999e-001
    outer loop
      vertex -1.965064e-001  5.964102e-002 -6.785684e-016
      vertex -9.320508e-002  5.684342e-017 -6.785684e-016
      vertex -1.734124e-001  7.964101e-002  5.000000e-002
    endloop
  endfacet
  facet normal -4.330127e-001 -7.500000e-001  5.000000e-001
    outer loop
      vertex -1.734124e-001  7.964101e-002  5.000000e-002
      vertex -9.320508e-002  5.684342e-017 -6.785684e-016
      vertex -3.547006e-002  1.474376e-016  5.000000e-002
    endloop
  endfacet
  facet normal  4.330128e-001  7.500001e-001  4.999997e-001
    outer loop
      vertex -1.556773e-001  1.103590e-001  5.000000e-002
      vertex -1.773503e-002  3.071797e-002  5.000000e-002
      vertex -1.499038e-001  1.403590e-001  0.000000e+000
    endloop
  endfacet
  facet normal  4.330127e-001  7.500001e-001  4.999999e-001
    outer loop
      vertex -1.499038e-001  1.403590e-001  0.000000e+000
      vertex -1.773503e-002  3.071797e-002  5.000000e-002
      vertex -4.660254e-002  8.071797e-002  0.000000e+000
    endloop
  endfacet
  facet normal -8.660254e-001  5.000001e-001  5.684343e-016
    outer loop
      vertex -2.309401e-001 -4.263256e-017 -2.000000e-001
      vertex -2.309401e-001 -2.700063e-016  0.000000e+000
      vertex -1.965064e-001  5.964102e-002 -6.785684e-016
    endloop
  endfacet
  facet normal -8.660254e-001  5.000001e-001  0.000000e+000
    outer loop
      vertex -2.309401e-001 -4.263256e-017 -2.000000e-001
      vertex -1.965064e-001  5.964102e-002 -6.785684e-016
      vertex -1.499038e-001  1.403590e-001  0.000000e+000
    endloop
  endfacet
  facet normal -8.660254e-001  5.000000e-001  1.063523e-007
    outer loop
      vertex -2.309401e-001 -4.263256e-017 -2.000000e-001
      vertex -1.499038e-001  1.403590e-001  0.000000e+000
      vertex -1.154701e-001  2.000000e-001  0.000000e+000
    endloop
  endfacet
  facet normal -8.660254e-001  5.000000e-001  0.000000e+000
    outer loop
      vertex -2.309401e-001 -4.263256e-017 -2.000000e-001
      vertex -1.154701e-001  2.000000e-001  0.000000e+000
      vertex -1.154701e-001  2.000000e-001 -2.000000e-001
    endloop
  endfacet
  facet normal  0.000000e+000  0.000000e+000  1.000000e+000
    outer loop
      vertex -4.660254e-002  8.071797e-002  0.000000e+000
      vertex -4.660254e-002  2.000000e-001  0.000000e+000
      vertex -1.499038e-001  1.403590e-001  0.000000e+000
    endloop
  endfacet
  facet normal  0.000000e+000  0.000000e+000  1.000000e+000
    outer loop
      vertex -1.499038e-001  1.403590e-001  0.000000e+000
      vertex -4.660254e-002  2.000000e-001  0.000000e+000
      vertex -1.154701e-001  2.000000e-001  0.000000e+000
    endloop
  endfacet
  facet normal  4.926621e-015 -8.533158e-015  1.000000e+000
    outer loop
      vertex -1.965064e-001 -5.964102e-002 -6.785684e-016
      vertex -9.320508e-002  5.684342e-017 -6.785684e-016
      vertex -2.309401e-001 -2.700063e-016  0.000000e+000
    endloop
  endfacet
  facet normal  4.926621e-015  8.533158e-015  1.000000e+000
    outer loop
      vertex -2.309401e-001 -2.700063e-016  0.000000e+000
      vertex -9.320508e-002  5.684342e-017 -6.785684e-016
      vertex -1.965064e-001  5.964102e-002 -6.785684e-016
    endloop
  endfacet
  facet normal -8.492076e-001  4.902903e-001  1.961161e-001
    outer loop
      vertex -1.556773e-001  1.103590e-001  5.000000e-002
      vertex -1.499038e-001  1.403590e-001  0.000000e+000
      vertex -1.734124e-001  7.964101e-002  5.000000e-002
    endloop
  endfacet
  facet normal -8.492078e-001  4.902903e-001  1.961161e-001
    outer loop
      vertex -1.734124e-001  7.964101e-002  5.000000e-002
      vertex -1.499038e-001  1.403590e-001  0.000000e+000
      vertex -1.965064e-001  5.964102e-002 -6.785684e-016
    endloop
  endfacet
  facet normal  0.000000e+000  0.000000e+000 -9.999999e-001
    outer loop
      vertex  1.674038e-001  1.004810e-002 -2.500000e-001
      vertex  1.432051e-001  4.000000e-002 -2.500000e-001
      vertex  9.240381e-002  1.399519e-001 -2.500000e-001
    endloop
  endfacet
  facet normal  0.000000e+000  0.000000e+000 -1.000000e+000
    outer loop
      vertex  1.012436e-001  9.535899e-002 -2.500000e-001
      vertex  1.062436e-001 -1.040192e-001 -2.500000e-001
      vertex  1.012436e-001 -9.535899e-002 -2.500000e-001
    endloop
  endfacet
  facet normal  0.000000e+000  0.000000e+000 -1.000000e+000
    outer loop
      vertex -9.240381e-002 -1.399519e-001 -2.500000e-001
      vertex -7.500000e-002 -1.500000e-001 -2.500000e-001
      vertex -8.660255e-002 -1.500000e-001 -2.500000e-001
    endloop
  endfacet
  facet normal  0.000000e+000  0.000000e+000 -1.000000e+000
    outer loop
      vertex  3.196153e-002 -1.353590e-001 -2.500000e-001
      vertex  3.696153e-002 -1.440192e-001 -2.500000e-001
      vertex -3.696153e-002 -1.440192e-001 -2.500000e-001
    endloop
  endfacet
  facet normal  0.000000e+000  0.000000e+000 -1.000000e+000
    outer loop
      vertex  3.196153e-002 -1.353590e-001 -2.500000e-001
      vertex -3.696153e-002 -1.440192e-001 -2.500000e-001
      vertex -3.196153e-002 -1.353590e-001 -2.500000e-001
    endloop
  endfacet
  facet normal  0.000000e+000  0.000000e+000 -1.000000e+000
    outer loop
      vertex  3.196153e-002 -1.353590e-001 -2.500000e-001
      vertex -3.196153e-002 -1.353590e-001 -2.500000e-001
      vertex -3.196153e-002  1.353590e-001 -2.500000e-001
    endloop
  endfacet
  facet normal  0.000000e+000  0.000000e+000 -1.000000e+000
    outer loop
      vertex  3.196153e-002 -1.353590e-001 -2.500000e-001
      vertex -3.196153e-002  1.353590e-001 -2.500000e-001
      vertex  3.196153e-002  1.353590e-001 -2.500000e-001
    endloop
  endfacet
  facet normal  0.000000e+000  0.000000e+000 -1.000000e+000
    outer loop
      vertex  3.196153e-002 -1.353590e-001 -2.500000e-001
      vertex  3.196153e-002  1.353590e-001 -2.500000e-001
      vertex  1.012436e-001  9.535899e-002 -2.500000e-001
    endloop
  endfacet
  facet normal  0.000000e+000  -0.000000e+000 -9.999999e-001
    outer loop
      vertex  3.196153e-002 -1.353590e-001 -2.500000e-001
      vertex  1.012436e-001  9.535899e-002 -2.500000e-001
      vertex  1.012436e-001 -9.535899e-002 -2.500000e-001
    endloop
  endfacet
  facet normal  -0.000000e+000  -0.000000e+000 -1.000000e+000
    outer loop
      vertex  7.500000e-002  1.500000e-001 -2.500000e-001
      vertex  8.660255e-002  1.500000e-001 -2.500000e-001
      vertex  9.240381e-002  1.399519e-001 -2.500000e-001
    endloop
  endfacet
  facet normal  0.000000e+000  0.000000e+000 -1.000000e+000
    outer loop
      vertex  7.500000e-002  1.500000e-001 -2.500000e-001
      vertex  9.240381e-002  1.399519e-001 -2.500000e-001
      vertex  3.696153e-002  1.440192e-001 -2.500000e-001
    endloop
  endfacet
  facet normal  0.000000e+000  0.000000e+000 -9.999999e-001
    outer loop
      vertex  7.500000e-002  1.500000e-001 -2.500000e-001
      vertex  3.696153e-002  1.440192e-001 -2.500000e-001
      vertex -3.696153e-002  1.440192e-001 -2.500000e-001
    endloop
  endfacet
  facet normal  0.000000e+000  0.000000e+000 -9.999999e-001
    outer loop
      vertex  7.500000e-002  1.500000e-001 -2.500000e-001
      vertex -3.696153e-002  1.440192e-001 -2.500000e-001
      vertex -7.500000e-002  1.500000e-001 -2.500000e-001
    endloop
  endfacet
  facet normal  0.000000e+000  0.000000e+000 -1.000000e+000
    outer loop
      vertex  9.240381e-002 -1.399519e-001 -2.500000e-001
      vertex  8.660255e-002 -1.500000e-001 -2.500000e-001
      vertex  3.696153e-002 -1.440192e-001 -2.500000e-001
    endloop
  endfacet
  facet normal  0.000000e+000  0.000000e+000 -1.000000e+000
    outer loop
      vertex  9.240381e-002 -1.399519e-001 -2.500000e-001
      vertex  3.696153e-002 -1.440192e-001 -2.500000e-001
      vertex  1.062436e-001 -1.040192e-001 -2.500000e-001
    endloop
  endfacet
  facet normal  0.000000e+000  -0.000000e+000 -1.000000e+000
    outer loop
      vertex  9.240381e-002 -1.399519e-001 -2.500000e-001
      vertex  1.062436e-001 -1.040192e-001 -2.500000e-001
      vertex  1.332051e-001 -4.000000e-002 -2.500000e-001
    endloop
  endfacet
  facet normal  0.000000e+000  -0.000000e+000 -1.000000e+000
    outer loop
      vertex  9.240381e-002 -1.399519e-001 -2.500000e-001
      vertex  1.332051e-001 -4.000000e-002 -2.500000e-001
      vertex  1.432051e-001 -4.000000e-002 -2.500000e-001
    endloop
  endfacet
  facet normal  0.000000e+000  -0.000000e+000 -9.999999e-001
    outer loop
      vertex  9.240381e-002 -1.399519e-001 -2.500000e-001
      vertex  1.432051e-001 -4.000000e-002 -2.500000e-001
      vertex  1.674038e-001 -1.004810e-002 -2.500000e-001
    endloop
  endfacet
  facet normal  0.000000e+000  0.000000e+000 -1.000000e+000
    outer loop
      vertex -1.674038e-001  1.004810e-002 -2.500000e-001
      vertex -9.240381e-002  1.399519e-001 -2.500000e-001
      vertex -1.432051e-001  4.000000e-002 -2.500000e-001
    endloop
  endfacet
  facet normal  0.000000e+000  0.000000e+000 -1.000000e+000
    outer loop
      vertex -1.432051e-001  4.000000e-002 -2.500000e-001
      vertex -9.240381e-002  1.399519e-001 -2.500000e-001
      vertex -1.062436e-001  1.040192e-001 -2.500000e-001
    endloop
  endfacet
  facet normal  0.000000e+000  0.000000e+000 -9.999999e-001
    outer loop
      vertex -1.432051e-001  4.000000e-002 -2.500000e-001
      vertex -1.062436e-001  1.040192e-001 -2.500000e-001
      vertex -1.332051e-001  4.000000e-002 -2.500000e-001
    endloop
  endfacet
  facet normal  0.000000e+000  0.000000e+000 -1.000000e+000
    outer loop
      vertex -1.332051e-001  4.000000e-002 -2.500000e-001
      vertex -1.062436e-001  1.040192e-001 -2.500000e-001
      vertex -1.012436e-001  9.535899e-002 -2.500000e-001
    endloop
  endfacet
  facet normal  0.000000e+000  0.000000e+000 -1.000000e+000
    outer loop
      vertex -9.240381e-002 -1.399519e-001 -2.500000e-001
      vertex -1.674038e-001 -1.004810e-002 -2.500000e-001
      vertex -1.062436e-001 -1.040192e-001 -2.500000e-001
    endloop
  endfacet
  facet normal  0.000000e+000  0.000000e+000 -9.999999e-001
    outer loop
      vertex -1.062436e-001 -1.040192e-001 -2.500000e-001
      vertex -1.674038e-001 -1.004810e-002 -2.500000e-001
      vertex -1.432051e-001 -4.000000e-002 -2.500000e-001
    endloop
  endfacet
  facet normal  0.000000e+000  0.000000e+000 -9.999999e-001
    outer loop
      vertex -1.062436e-001 -1.040192e-001 -2.500000e-001
      vertex -1.432051e-001 -4.000000e-002 -2.500000e-001
      vertex -1.012436e-001 -9.535899e-002 -2.500000e-001
    endloop
  endfacet
  facet normal  0.000000e+000  0.000000e+000 -1.000000e+000
    outer loop
      vertex -1.012436e-001 -9.535899e-002 -2.500000e-001
      vertex -1.432051e-001 -4.000000e-002 -2.500000e-001
      vertex -1.332051e-001 -4.000000e-002 -2.500000e-001
    endloop
  endfacet
  facet normal  0.000000e+000  0.000000e+000 -1.000000e+000
    outer loop
      vertex -3.696153e-002  1.440192e-001 -2.500000e-001
      vertex -1.062436e-001  1.040192e-001 -2.500000e-001
      vertex -7.500000e-002  1.500000e-001 -2.500000e-001
    endloop
  endfacet
  facet normal  0.000000e+000  0.000000e+000 -9.999999e-001
    outer loop
      vertex -7.500000e-002  1.500000e-001 -2.500000e-001
      vertex -1.062436e-001  1.040192e-001 -2.500000e-001
      vertex -9.240381e-002  1.399519e-001 -2.500000e-001
    endloop
  endfacet
  facet normal  0.000000e+000  0.000000e+000 -1.000000e+000
    outer loop
      vertex -7.500000e-002  1.500000e-001 -2.500000e-001
      vertex -9.240381e-002  1.399519e-001 -2.500000e-001
      vertex -8.660255e-002  1.500000e-001 -2.500000e-001
    endloop
  endfacet
  facet normal  0.000000e+000  0.000000e+000 -1.000000e+000
    outer loop
      vertex -3.196153e-002  1.353590e-001 -2.500000e-001
      vertex -3.196153e-002 -1.353590e-001 -2.500000e-001
      vertex -1.012436e-001  9.535899e-002 -2.500000e-001
    endloop
  endfacet
  facet normal  0.000000e+000  0.000000e+000 -9.999999e-001
    outer loop
      vertex -1.012436e-001  9.535899e-002 -2.500000e-001
      vertex -3.196153e-002 -1.353590e-001 -2.500000e-001
      vertex -1.012436e-001 -9.535899e-002 -2.500000e-001
    endloop
  endfacet
  facet normal  0.000000e+000  0.000000e+000 -1.000000e+000
    outer loop
      vertex -1.012436e-001  9.535899e-002 -2.500000e-001
      vertex -1.012436e-001 -9.535899e-002 -2.500000e-001
      vertex -1.332051e-001  4.000000e-002 -2.500000e-001
    endloop
  endfacet
  facet normal  0.000000e+000  0.000000e+000 -9.999999e-001
    outer loop
      vertex -1.332051e-001  4.000000e-002 -2.500000e-001
      vertex -1.012436e-001 -9.535899e-002 -2.500000e-001
      vertex -1.332051e-001 -4.000000e-002 -2.500000e-001
    endloop
  endfacet
  facet normal  0.000000e+000  0.000000e+000 -1.000000e+000
    outer loop
      vertex -9.240381e-002 -1.399519e-001 -2.500000e-001
      vertex -1.062436e-001 -1.040192e-001 -2.500000e-001
      vertex -7.500000e-002 -1.500000e-001 -2.500000e-001
    endloop
  endfacet
  facet normal  0.000000e+000  0.000000e+000 -1.000000e+000
    outer loop
      vertex -7.500000e-002 -1.500000e-001 -2.500000e-001
      vertex -1.062436e-001 -1.040192e-001 -2.500000e-001
      vertex -3.696153e-002 -1.440192e-001 -2.500000e-001
    endloop
  endfacet
  facet normal  0.000000e+000  -0.000000e+000 -9.999999e-001
    outer loop
      vertex -7.500000e-002 -1.500000e-001 -2.500000e-001
      vertex -3.696153e-002 -1.440192e-001 -2.500000e-001
      vertex  7.500000e-002 -1.500000e-001 -2.500000e-001
    endloop
  endfacet
  facet normal  0.000000e+000  0.000000e+000 -9.999999e-001
    outer loop
      vertex  7.500000e-002 -1.500000e-001 -2.500000e-001
      vertex -3.696153e-002 -1.440192e-001 -2.500000e-001
      vertex  3.696153e-002 -1.440192e-001 -2.500000e-001
    endloop
  endfacet
  facet normal  0.000000e+000  0.000000e+000 -1.000000e+000
    outer loop
      vertex  7.500000e-002 -1.500000e-001 -2.500000e-001
      vertex  3.696153e-002 -1.440192e-001 -2.500000e-001
      vertex  8.660255e-002 -1.500000e-001 -2.500000e-001
    endloop
  endfacet
  facet normal  0.000000e+000  0.000000e+000 -1.000000e+000
    outer loop
      vertex  1.332051e-001 -4.000000e-002 -2.500000e-001
      vertex  1.062436e-001 -1.040192e-001 -2.500000e-001
      vertex  1.332051e-001  4.000000e-002 -2.500000e-001
    endloop
  endfacet
  facet normal  -0.000000e+000  0.000000e+000 -1.000000e+000
    outer loop
      vertex  1.332051e-001  4.000000e-002 -2.500000e-001
      vertex  1.062436e-001 -1.040192e-001 -2.500000e-001
      vertex  1.012436e-001  9.535899e-002 -2.500000e-001
    endloop
  endfacet
  facet normal  0.000000e+000  0.000000e+000 -1.000000e+000
    outer loop
      vertex  1.332051e-001  4.000000e-002 -2.500000e-001
      vertex  1.012436e-001  9.535899e-002 -2.500000e-001
      vertex  1.062436e-001  1.040192e-001 -2.500000e-001
    endloop
  endfacet
  facet normal  0.000000e+000  0.000000e+000 -1.000000e+000
    outer loop
      vertex  1.432051e-001  4.000000e-002 -2.500000e-001
      vertex  1.332051e-001  4.000000e-002 -2.500000e-001
      vertex  9.240381e-002  1.399519e-001 -2.500000e-001
    endloop
  endfacet
  facet normal  0.000000e+000  0.000000e+000 -1.000000e+000
    outer loop
      vertex  9.240381e-002  1.399519e-001 -2.500000e-001
      vertex  1.332051e-001  4.000000e-002 -2.500000e-001
      vertex  1.062436e-001  1.040192e-001 -2.500000e-001
    endloop
  endfacet
  facet normal  0.000000e+000  0.000000e+000 -1.000000e+000
    outer loop
      vertex  9.240381e-002  1.399519e-001 -2.500000e-001
      vertex  1.062436e-001  1.040192e-001 -2.500000e-001
      vertex  3.696153e-002  1.440192e-001 -2.500000e-001
    endloop
  endfacet
  facet normal  0.000000e+000  0.000000e+000 -1.000000e+000
    outer loop
      vertex -1.432051e-001 -4.000000e-002 -2.500000e-001
      vertex -1.674038e-001 -1.004810e-002 -2.500000e-001
      vertex -1.432051e-001  4.000000e-002 -2.500000e-001
    endloop
  endfacet
  facet normal  0.000000e+000  0.000000e+000 -1.000000e+000
    outer loop
      vertex -1.432051e-001  4.000000e-002 -2.500000e-001
      vertex -1.674038e-001 -1.004810e-002 -2.500000e-001
      vertex -1.732051e-001  7.993606e-017 -2.500000e-001
    endloop
  endfacet
  facet normal  0.000000e+000  0.000000e+000 -1.000000e+000
    outer loop
      vertex -1.432051e-001  4.000000e-002 -2.500000e-001
      vertex -1.732051e-001  7.993606e-017 -2.500000e-001
      vertex -1.674038e-001  1.004810e-002 -2.500000e-001
    endloop
  endfacet
  facet normal  -0.000000e+000  0.000000e+000 -1.000000e+000
    outer loop
      vertex -3.696153e-002  1.440192e-001 -2.500000e-001
      vertex  3.696153e-002  1.440192e-001 -2.500000e-001
      vertex -3.196153e-002  1.353590e-001 -2.500000e-001
    endloop
  endfacet
  facet normal  0.000000e+000  0.000000e+000 -1.000000e+000
    outer loop
      vertex -3.196153e-002  1.353590e-001 -2.500000e-001
      vertex  3.696153e-002  1.440192e-001 -2.500000e-001
      vertex  3.196153e-002  1.353590e-001 -2.500000e-001
    endloop
  endfacet
  facet normal  0.000000e+000  0.000000e+000 -1.000000e+000
    outer loop
      vertex  1.674038e-001 -1.004810e-002 -2.500000e-001
      vertex  1.432051e-001 -4.000000e-002 -2.500000e-001
      vertex  1.732051e-001  4.085621e-017 -2.500000e-001
    endloop
  endfacet
  facet normal  -0.000000e+000  0.000000e+000 -1.000000e+000
    outer loop
      vertex  1.732051e-001  4.085621e-017 -2.500000e-001
      vertex  1.432051e-001 -4.000000e-002 -2.500000e-001
      vertex  1.432051e-001  4.000000e-002 -2.500000e-001
    endloop
  endfacet
  facet normal  0.000000e+000  0.000000e+000 -1.000000e+000
    outer loop
      vertex  1.732051e-001  4.085621e-017 -2.500000e-001
      vertex  1.432051e-001  4.000000e-002 -2.500000e-001
      vertex  1.674038e-001  1.004810e-002 -2.500000e-001
    endloop
  endfacet
  facet normal -8.660255e-001 -5.000000e-001  2.668320e-008
    outer loop
      vertex -1.062436e-001  1.040192e-001 -2.500000e-001
      vertex -9.422279e-002  8.319865e-002 -4.787400e-001
      vertex -1.012436e-001  9.535899e-002 -2.500000e-001
    endloop
  endfacet
  facet normal -8.660255e-001 -5.000000e-001  2.668320e-008
    outer loop
      vertex -1.012436e-001  9.535899e-002 -2.500000e-001
      vertex -9.422279e-002  8.319865e-002 -4.787400e-001
      vertex -8.922279e-002  7.453839e-002 -4.787400e-001
    endloop
  endfacet
  facet normal  4.972609e-001 -8.612813e-001  1.045285e-001
    outer loop
      vertex -3.196153e-002  1.353590e-001 -2.500000e-001
      vertex -1.012436e-001  9.535899e-002 -2.500000e-001
      vertex -1.994075e-002  1.145384e-001 -4.787400e-001
    endloop
  endfacet
  facet normal  4.972609e-001 -8.612812e-001  1.045285e-001
    outer loop
      vertex -1.994075e-002  1.145384e-001 -4.787400e-001
      vertex -1.012436e-001  9.535899e-002 -2.500000e-001
      vertex -8.922279e-002  7.453839e-002 -4.787400e-001
    endloop
  endfacet
  facet normal  8.660257e-001  4.999996e-001  5.336636e-008
    outer loop
      vertex -3.196153e-002  1.353590e-001 -2.500000e-001
      vertex -1.994075e-002  1.145384e-001 -4.787400e-001
      vertex -3.696153e-002  1.440192e-001 -2.500000e-001
    endloop
  endfacet
  facet normal  8.660254e-001  4.999999e-001  0.000000e+000
    outer loop
      vertex -3.696153e-002  1.440192e-001 -2.500000e-001
      vertex -1.994075e-002  1.145384e-001 -4.787400e-001
      vertex -2.494075e-002  1.231987e-001 -4.787400e-001
    endloop
  endfacet
  facet normal -4.972610e-001  8.612812e-001 -1.045285e-001
    outer loop
      vertex -1.062436e-001  1.040192e-001 -2.500000e-001
      vertex -3.696153e-002  1.440192e-001 -2.500000e-001
      vertex -9.422279e-002  8.319865e-002 -4.787400e-001
    endloop
  endfacet
  facet normal -4.972609e-001  8.612812e-001 -1.045285e-001
    outer loop
      vertex -9.422279e-002  8.319865e-002 -4.787400e-001
      vertex -3.696153e-002  1.440192e-001 -2.500000e-001
      vertex -2.494075e-002  1.231987e-001 -4.787400e-001
    endloop
  endfacet
  facet normal -8.660256e-001  4.999996e-001  4.669555e-008
    outer loop
      vertex  3.696153e-002  1.440192e-001 -2.500000e-001
      vertex  2.494075e-002  1.231987e-001 -4.787400e-001
      vertex  3.196153e-002  1.353590e-001 -2.500000e-001
    endloop
  endfacet
  facet normal -8.660255e-001  5.000000e-001  2.001240e-008
    outer loop
      vertex  3.196153e-002  1.353590e-001 -2.500000e-001
      vertex  2.494075e-002  1.231987e-001 -4.787400e-001
      vertex  1.994075e-002  1.145384e-001 -4.787400e-001
    endloop
  endfacet
  facet normal -4.972609e-001 -8.612813e-001  1.045285e-001
    outer loop
      vertex  1.012436e-001  9.535899e-002 -2.500000e-001
      vertex  3.196153e-002  1.353590e-001 -2.500000e-001
      vertex  8.922279e-002  7.453839e-002 -4.787400e-001
    endloop
  endfacet
  facet normal -4.972609e-001 -8.612812e-001  1.045284e-001
    outer loop
      vertex  8.922279e-002  7.453839e-002 -4.787400e-001
      vertex  3.196153e-002  1.353590e-001 -2.500000e-001
      vertex  1.994075e-002  1.145384e-001 -4.787400e-001
    endloop
  endfacet
  facet normal  8.660254e-001 -4.999999e-001  2.668320e-008
    outer loop
      vertex  1.012436e-001  9.535899e-002 -2.500000e-001
      vertex  8.922279e-002  7.453839e-002 -4.787400e-001
      vertex  1.062436e-001  1.040192e-001 -2.500000e-001
    endloop
  endfacet
  facet normal  8.660254e-001 -4.999999e-001  2.668320e-008
    outer loop
      vertex  1.062436e-001  1.040192e-001 -2.500000e-001
      vertex  8.922279e-002  7.453839e-002 -4.787400e-001
      vertex  9.422279e-002  8.319865e-002 -4.787400e-001
    endloop
  endfacet
  facet normal  4.972610e-001  8.612812e-001 -1.045285e-001
    outer loop
      vertex  3.696153e-002  1.440192e-001 -2.500000e-001
      vertex  1.062436e-001  1.040192e-001 -2.500000e-001
      vertex  2.494075e-002  1.231987e-001 -4.787400e-001
    endloop
  endfacet
  facet normal  4.972609e-001  8.612812e-001 -1.045285e-001
    outer loop
      vertex  2.494075e-002  1.231987e-001 -4.787400e-001
      vertex  1.062436e-001  1.040192e-001 -2.500000e-001
      vertex  9.422279e-002  8.319865e-002 -4.787400e-001
    endloop
  endfacet
  facet normal  0.000000e+000  1.000000e+000  0.000000e+000
    outer loop
      vertex  1.432051e-001  4.000000e-002 -2.500000e-001
      vertex  1.191635e-001  4.000000e-002 -4.787400e-001
      vertex  1.332051e-001  4.000000e-002 -2.500000e-001
    endloop
  endfacet
  facet normal  0.000000e+000  1.000000e+000  0.000000e+000
    outer loop
      vertex  1.332051e-001  4.000000e-002 -2.500000e-001
      vertex  1.191635e-001  4.000000e-002 -4.787400e-001
      vertex  1.091635e-001  4.000000e-002 -4.787400e-001
    endloop
  endfacet
  facet normal -9.945219e-001  0.000000e+000  1.045284e-001
    outer loop
      vertex  1.332051e-001 -4.000000e-002 -2.500000e-001
      vertex  1.332051e-001  4.000000e-002 -2.500000e-001
      vertex  1.091635e-001 -4.000000e-002 -4.787400e-001
    endloop
  endfacet
  facet normal -9.945219e-001  0.000000e+000  1.045284e-001
    outer loop
      vertex  1.091635e-001 -4.000000e-002 -4.787400e-001
      vertex  1.332051e-001  4.000000e-002 -2.500000e-001
      vertex  1.091635e-001  4.000000e-002 -4.787400e-001
    endloop
  endfacet
  facet normal  0.000000e+000 -1.000000e+000  0.000000e+000
    outer loop
      vertex  1.332051e-001 -4.000000e-002 -2.500000e-001
      vertex  1.091635e-001 -4.000000e-002 -4.787400e-001
      vertex  1.432051e-001 -4.000000e-002 -2.500000e-001
    endloop
  endfacet
  facet normal  0.000000e+000 -1.000000e+000  0.000000e+000
    outer loop
      vertex  1.432051e-001 -4.000000e-002 -2.500000e-001
      vertex  1.091635e-001 -4.000000e-002 -4.787400e-001
      vertex  1.191635e-001 -4.000000e-002 -4.787400e-001
    endloop
  endfacet
  facet normal  9.945219e-001  0.000000e+000 -1.045284e-001
    outer loop
      vertex  1.432051e-001  4.000000e-002 -2.500000e-001
      vertex  1.432051e-001 -4.000000e-002 -2.500000e-001
      vertex  1.191635e-001  4.000000e-002 -4.787400e-001
    endloop
  endfacet
  facet normal  9.945219e-001  0.000000e+000 -1.045284e-001
    outer loop
      vertex  1.191635e-001  4.000000e-002 -4.787400e-001
      vertex  1.432051e-001 -4.000000e-002 -2.500000e-001
      vertex  1.191635e-001 -4.000000e-002 -4.787400e-001
    endloop
  endfacet
  facet normal  8.660255e-001  5.000000e-001  2.668320e-008
    outer loop
      vertex  1.062436e-001 -1.040192e-001 -2.500000e-001
      vertex  9.422279e-002 -8.319865e-002 -4.787400e-001
      vertex  1.012436e-001 -9.535899e-002 -2.500000e-001
    endloop
  endfacet
  facet normal  8.660255e-001  5.000000e-001  2.668320e-008
    outer loop
      vertex  1.012436e-001 -9.535899e-002 -2.500000e-001
      vertex  9.422279e-002 -8.319865e-002 -4.787400e-001
      vertex  8.922279e-002 -7.453839e-002 -4.787400e-001
    endloop
  endfacet
  facet normal -4.972609e-001  8.612813e-001  1.045285e-001
    outer loop
      vertex  3.196153e-002 -1.353590e-001 -2.500000e-001
      vertex  1.012436e-001 -9.535899e-002 -2.500000e-001
      vertex  1.994075e-002 -1.145384e-001 -4.787400e-001
    endloop
  endfacet
  facet normal -4.972609e-001  8.612812e-001  1.045285e-001
    outer loop
      vertex  1.994075e-002 -1.145384e-001 -4.787400e-001
      vertex  1.012436e-001 -9.535899e-002 -2.500000e-001
      vertex  8.922279e-002 -7.453839e-002 -4.787400e-001
    endloop
  endfacet
  facet normal -8.660257e-001 -4.999996e-001  5.336636e-008
    outer loop
      vertex  3.196153e-002 -1.353590e-001 -2.500000e-001
      vertex  1.994075e-002 -1.145384e-001 -4.787400e-001
      vertex  3.696153e-002 -1.440192e-001 -2.500000e-001
    endloop
  endfacet
  facet normal -8.660254e-001 -4.999999e-001  0.000000e+000
    outer loop
      vertex  3.696153e-002 -1.440192e-001 -2.500000e-001
      vertex  1.994075e-002 -1.145384e-001 -4.787400e-001
      vertex  2.494075e-002 -1.231987e-001 -4.787400e-001
    endloop
  endfacet
  facet normal  4.972610e-001 -8.612812e-001 -1.045285e-001
    outer loop
      vertex  1.062436e-001 -1.040192e-001 -2.500000e-001
      vertex  3.696153e-002 -1.440192e-001 -2.500000e-001
      vertex  9.422279e-002 -8.319865e-002 -4.787400e-001
    endloop
  endfacet
  facet normal  4.972609e-001 -8.612812e-001 -1.045285e-001
    outer loop
      vertex  9.422279e-002 -8.319865e-002 -4.787400e-001
      vertex  3.696153e-002 -1.440192e-001 -2.500000e-001
      vertex  2.494075e-002 -1.231987e-001 -4.787400e-001
    endloop
  endfacet
  facet normal  8.660256e-001 -4.999996e-001  4.669555e-008
    outer loop
      vertex -3.696153e-002 -1.440192e-001 -2.500000e-001
      vertex -2.494075e-002 -1.231987e-001 -4.787400e-001
      vertex -3.196153e-002 -1.353590e-001 -2.500000e-001
    endloop
  endfacet
  facet normal  8.660255e-001 -5.000000e-001  2.001240e-008
    outer loop
      vertex -3.196153e-002 -1.353590e-001 -2.500000e-001
      vertex -2.494075e-002 -1.231987e-001 -4.787400e-001
      vertex -1.994075e-002 -1.145384e-001 -4.787400e-001
    endloop
  endfacet
  facet normal  4.972609e-001  8.612813e-001  1.045285e-001
    outer loop
      vertex -1.012436e-001 -9.535899e-002 -2.500000e-001
      vertex -3.196153e-002 -1.353590e-001 -2.500000e-001
      vertex -8.922279e-002 -7.453839e-002 -4.787400e-001
    endloop
  endfacet
  facet normal  4.972609e-001  8.612812e-001  1.045284e-001
    outer loop
      vertex -8.922279e-002 -7.453839e-002 -4.787400e-001
      vertex -3.196153e-002 -1.353590e-001 -2.500000e-001
      vertex -1.994075e-002 -1.145384e-001 -4.787400e-001
    endloop
  endfacet
  facet normal -8.660254e-001  4.999999e-001  2.668320e-008
    outer loop
      vertex -1.012436e-001 -9.535899e-002 -2.500000e-001
      vertex -8.922279e-002 -7.453839e-002 -4.787400e-001
      vertex -1.062436e-001 -1.040192e-001 -2.500000e-001
    endloop
  endfacet
  facet normal -8.660254e-001  4.999999e-001  2.668320e-008
    outer loop
      vertex -1.062436e-001 -1.040192e-001 -2.500000e-001
      vertex -8.922279e-002 -7.453839e-002 -4.787400e-001
      vertex -9.422279e-002 -8.319865e-002 -4.787400e-001
    endloop
  endfacet
  facet normal -4.972610e-001 -8.612812e-001 -1.045285e-001
    outer loop
      vertex -3.696153e-002 -1.440192e-001 -2.500000e-001
      vertex -1.062436e-001 -1.040192e-001 -2.500000e-001
      vertex -2.494075e-002 -1.231987e-001 -4.787400e-001
    endloop
  endfacet
  facet normal -4.972609e-001 -8.612812e-001 -1.045285e-001
    outer loop
      vertex -2.494075e-002 -1.231987e-001 -4.787400e-001
      vertex -1.062436e-001 -1.040192e-001 -2.500000e-001
      vertex -9.422279e-002 -8.319865e-002 -4.787400e-001
    endloop
  endfacet
  facet normal  0.000000e+000  0.000000e+000 -1.000000e+000
    outer loop
      vertex -9.422279e-002  8.319865e-002 -4.787400e-001
      vertex -2.494075e-002  1.231987e-001 -4.787400e-001
      vertex -8.922279e-002  7.453839e-002 -4.787400e-001
    endloop
  endfacet
  facet normal  0.000000e+000  0.000000e+000 -1.000000e+000
    outer loop
      vertex -8.922279e-002  7.453839e-002 -4.787400e-001
      vertex -2.494075e-002  1.231987e-001 -4.787400e-001
      vertex -1.994075e-002  1.145384e-001 -4.787400e-001
    endloop
  endfacet
  facet normal  0.000000e+000  -0.000000e+000 -1.000000e+000
    outer loop
      vertex  1.994075e-002  1.145384e-001 -4.787400e-001
      vertex  2.494075e-002  1.231987e-001 -4.787400e-001
      vertex  8.922279e-002  7.453839e-002 -4.787400e-001
    endloop
  endfacet
  facet normal  0.000000e+000  0.000000e+000 -1.000000e+000
    outer loop
      vertex  8.922279e-002  7.453839e-002 -4.787400e-001
      vertex  2.494075e-002  1.231987e-001 -4.787400e-001
      vertex  9.422279e-002  8.319865e-002 -4.787400e-001
    endloop
  endfacet
  facet normal  -0.000000e+000  0.000000e+000 -1.000000e+000
    outer loop
      vertex  1.091635e-001  4.000000e-002 -4.787400e-001
      vertex  1.191635e-001  4.000000e-002 -4.787400e-001
      vertex  1.091635e-001 -4.000000e-002 -4.787400e-001
    endloop
  endfacet
  facet normal  0.000000e+000  0.000000e+000 -1.000000e+000
    outer loop
      vertex  1.091635e-001 -4.000000e-002 -4.787400e-001
      vertex  1.191635e-001  4.000000e-002 -4.787400e-001
      vertex  1.191635e-001 -4.000000e-002 -4.787400e-001
    endloop
  endfacet
  facet normal  0.000000e+000  0.000000e+000 -1.000000e+000
    outer loop
      vertex  1.994075e-002 -1.145384e-001 -4.787400e-001
      vertex  8.922279e-002 -7.453839e-002 -4.787400e-001
      vertex  2.494075e-002 -1.231987e-001 -4.787400e-001
    endloop
  endfacet
  facet normal  0.000000e+000  0.000000e+000 -1.000000e+000
    outer loop
      vertex  2.494075e-002 -1.231987e-001 -4.787400e-001
      vertex  8.922279e-002 -7.453839e-002 -4.787400e-001
      vertex  9.422279e-002 -8.319865e-002 -4.787400e-001
    endloop
  endfacet
  facet normal  0.000000e+000  -0.000000e+000 -1.000000e+000
    outer loop
      vertex -9.422279e-002 -8.319865e-002 -4.787400e-001
      vertex -8.922279e-002 -7.453839e-002 -4.787400e-001
      vertex -2.494075e-002 -1.231987e-001 -4.787400e-001
    endloop
  endfacet
  facet normal  0.000000e+000  0.000000e+000 -1.000000e+000
    outer loop
      vertex -2.494075e-002 -1.231987e-001 -4.787400e-001
      vertex -8.922279e-002 -7.453839e-002 -4.787400e-001
      vertex -1.994075e-002 -1.145384e-001 -4.787400e-001
    endloop
  endfacet
  facet normal  0.000000e+000 -1.000000e+000  0.000000e+000
    outer loop
      vertex -1.432051e-001 -4.000000e-002 -2.500000e-001
      vertex -1.191635e-001 -4.000000e-002 -4.787400e-001
      vertex -1.332051e-001 -4.000000e-002 -2.500000e-001
    endloop
  endfacet
  facet normal  0.000000e+000 -1.000000e+000  0.000000e+000
    outer loop
      vertex -1.332051e-001 -4.000000e-002 -2.500000e-001
      vertex -1.191635e-001 -4.000000e-002 -4.787400e-001
      vertex -1.091635e-001 -4.000000e-002 -4.787400e-001
    endloop
  endfacet
  facet normal  9.945219e-001  -0.000000e+000  1.045284e-001
    outer loop
      vertex -1.332051e-001  4.000000e-002 -2.500000e-001
      vertex -1.332051e-001 -4.000000e-002 -2.500000e-001
      vertex -1.091635e-001  4.000000e-002 -4.787400e-001
    endloop
  endfacet
  facet normal  9.945219e-001  0.000000e+000  1.045284e-001
    outer loop
      vertex -1.091635e-001  4.000000e-002 -4.787400e-001
      vertex -1.332051e-001 -4.000000e-002 -2.500000e-001
      vertex -1.091635e-001 -4.000000e-002 -4.787400e-001
    endloop
  endfacet
  facet normal  0.000000e+000  1.000000e+000  0.000000e+000
    outer loop
      vertex -1.332051e-001  4.000000e-002 -2.500000e-001
      vertex -1.091635e-001  4.000000e-002 -4.787400e-001
      vertex -1.432051e-001  4.000000e-002 -2.500000e-001
    endloop
  endfacet
  facet normal  0.000000e+000  1.000000e+000  0.000000e+000
    outer loop
      vertex -1.432051e-001  4.000000e-002 -2.500000e-001
      vertex -1.091635e-001  4.000000e-002 -4.787400e-001
      vertex -1.191635e-001  4.000000e-002 -4.787400e-001
    endloop
  endfacet
  facet normal -9.945219e-001  -0.000000e+000 -1.045284e-001
    outer loop
      vertex -1.432051e-001 -4.000000e-002 -2.500000e-001
      vertex -1.432051e-001  4.000000e-002 -2.500000e-001
      vertex -1.191635e-001 -4.000000e-002 -4.787400e-001
    endloop
  endfacet
  facet normal -9.945219e-001  0.000000e+000 -1.045284e-001
    outer loop
      vertex -1.191635e-001 -4.000000e-002 -4.787400e-001
      vertex -1.432051e-001  4.000000e-002 -2.500000e-001
      vertex -1.191635e-001  4.000000e-002 -4.787400e-001
    endloop
  endfacet
  facet normal  -0.000000e+000  0.000000e+000 -1.000000e+000
    outer loop
      vertex -1.191635e-001  4.000000e-002 -4.787400e-001
      vertex -1.091635e-001  4.000000e-002 -4.787400e-001
      vertex -1.191635e-001 -4.000000e-002 -4.787400e-001
    endloop
  endfacet
  facet normal  0.000000e+000  0.000000e+000 -1.000000e+000
    outer loop
      vertex -1.191635e-001 -4.000000e-002 -4.787400e-001
      vertex -1.091635e-001  4.000000e-002 -4.787400e-001
      vertex -1.091635e-001 -4.000000e-002 -4.787400e-001
    endloop
  endfacet
  facet normal  5.056027e-001 -8.524192e-001 -1.332196e-001
    outer loop
      vertex -1.038644e-001 -1.187255e-001 -4.293151e-001
      vertex -9.096222e-002 -1.110727e-001 -4.293151e-001
      vertex -1.052955e-001 -1.473949e-001 -2.513024e-001
    endloop
  endfacet
  facet normal  5.056024e-001 -8.524194e-001 -1.332196e-001
    outer loop
      vertex -1.052955e-001 -1.473949e-001 -2.513024e-001
      vertex -9.096222e-002 -1.110727e-001 -4.293151e-001
      vertex -9.240381e-002 -1.399519e-001 -2.500000e-001
    endloop
  endfacet
  facet normal -4.854154e-001  8.640743e-001 -1.332196e-001
    outer loop
      vertex -1.547515e-001 -3.058644e-002 -4.293151e-001
      vertex -1.802955e-001 -1.749112e-002 -2.513024e-001
      vertex -1.416729e-001 -2.323922e-002 -4.293151e-001
    endloop
  endfacet
  facet normal -4.854151e-001  8.640745e-001 -1.332196e-001
    outer loop
      vertex -1.416729e-001 -2.323922e-002 -4.293151e-001
      vertex -1.802955e-001 -1.749112e-002 -2.513024e-001
      vertex -1.674038e-001 -1.004810e-002 -2.500000e-001
    endloop
  endfacet
  facet normal -4.854154e-001 -8.640743e-001 -1.332196e-001
    outer loop
      vertex -1.547515e-001  3.058644e-002 -4.293151e-001
      vertex -1.416729e-001  2.323922e-002 -4.293151e-001
      vertex -1.802955e-001  1.749112e-002 -2.513024e-001
    endloop
  endfacet
  facet normal -4.854151e-001 -8.640745e-001 -1.332196e-001
    outer loop
      vertex -1.802955e-001  1.749112e-002 -2.513024e-001
      vertex -1.416729e-001  2.323922e-002 -4.293151e-001
      vertex -1.674038e-001  1.004810e-002 -2.500000e-001
    endloop
  endfacet
  facet normal  5.056028e-001  8.524191e-001 -1.332195e-001
    outer loop
      vertex -1.038644e-001  1.187255e-001 -4.293151e-001
      vertex -1.052955e-001  1.473949e-001 -2.513024e-001
      vertex -9.096222e-002  1.110727e-001 -4.293151e-001
    endloop
  endfacet
  facet normal  5.056024e-001  8.524194e-001 -1.332196e-001
    outer loop
      vertex -9.096222e-002  1.110727e-001 -4.293151e-001
      vertex -1.052955e-001  1.473949e-001 -2.513024e-001
      vertex -9.240381e-002  1.399519e-001 -2.500000e-001
    endloop
  endfacet
  facet normal -9.910180e-001 -1.165508e-002 -1.332196e-001
    outer loop
      vertex -5.088713e-002  1.493120e-001 -4.293151e-001
      vertex -5.071072e-002  1.343120e-001 -4.293151e-001
      vertex -7.500000e-002  1.648861e-001 -2.513024e-001
    endloop
  endfacet
  facet normal -9.910181e-001 -1.165526e-002 -1.332196e-001
    outer loop
      vertex -7.500000e-002  1.648861e-001 -2.513024e-001
      vertex -5.071072e-002  1.343120e-001 -4.293151e-001
      vertex -7.500000e-002  1.500000e-001 -2.500000e-001
    endloop
  endfacet
  facet normal  9.910180e-001 -1.165507e-002 -1.332196e-001
    outer loop
      vertex  5.088713e-002  1.493120e-001 -4.293151e-001
      vertex  7.500000e-002  1.648861e-001 -2.513024e-001
      vertex  5.071072e-002  1.343120e-001 -4.293151e-001
    endloop
  endfacet
  facet normal  9.910181e-001 -1.165533e-002 -1.332196e-001
    outer loop
      vertex  5.071072e-002  1.343120e-001 -4.293151e-001
      vertex  7.500000e-002  1.648861e-001 -2.513024e-001
      vertex  7.500000e-002  1.500000e-001 -2.500000e-001
    endloop
  endfacet
  facet normal -5.056027e-001  8.524192e-001 -1.332196e-001
    outer loop
      vertex  1.038644e-001  1.187255e-001 -4.293151e-001
      vertex  9.096222e-002  1.110727e-001 -4.293151e-001
      vertex  1.052955e-001  1.473949e-001 -2.513024e-001
    endloop
  endfacet
  facet normal -5.056024e-001  8.524194e-001 -1.332196e-001
    outer loop
      vertex  1.052955e-001  1.473949e-001 -2.513024e-001
      vertex  9.096222e-002  1.110727e-001 -4.293151e-001
      vertex  9.240381e-002  1.399519e-001 -2.500000e-001
    endloop
  endfacet
  facet normal  4.854154e-001 -8.640743e-001 -1.332196e-001
    outer loop
      vertex  1.547515e-001  3.058644e-002 -4.293151e-001
      vertex  1.802955e-001  1.749112e-002 -2.513024e-001
      vertex  1.416729e-001  2.323922e-002 -4.293151e-001
    endloop
  endfacet
  facet normal  4.854151e-001 -8.640745e-001 -1.332196e-001
    outer loop
      vertex  1.416729e-001  2.323922e-002 -4.293151e-001
      vertex  1.802955e-001  1.749112e-002 -2.513024e-001
      vertex  1.674038e-001  1.004810e-002 -2.500000e-001
    endloop
  endfacet
  facet normal  4.854154e-001  8.640743e-001 -1.332196e-001
    outer loop
      vertex  1.547515e-001 -3.058644e-002 -4.293151e-001
      vertex  1.416729e-001 -2.323922e-002 -4.293151e-001
      vertex  1.802955e-001 -1.749112e-002 -2.513024e-001
    endloop
  endfacet
  facet normal  4.854151e-001  8.640745e-001 -1.332196e-001
    outer loop
      vertex  1.802955e-001 -1.749112e-002 -2.513024e-001
      vertex  1.416729e-001 -2.323922e-002 -4.293151e-001
      vertex  1.674038e-001 -1.004810e-002 -2.500000e-001
    endloop
  endfacet
  facet normal -5.056028e-001 -8.524191e-001 -1.332195e-001
    outer loop
      vertex  1.038644e-001 -1.187255e-001 -4.293151e-001
      vertex  1.052955e-001 -1.473949e-001 -2.513024e-001
      vertex  9.096222e-002 -1.110727e-001 -4.293151e-001
    endloop
  endfacet
  facet normal -5.056024e-001 -8.524194e-001 -1.332196e-001
    outer loop
      vertex  9.096222e-002 -1.110727e-001 -4.293151e-001
      vertex  1.052955e-001 -1.473949e-001 -2.513024e-001
      vertex  9.240381e-002 -1.399519e-001 -2.500000e-001
    endloop
  endfacet
  facet normal  0.000000e+000  -0.000000e+000 -1.000000e+000
    outer loop
      vertex  9.096222e-002  1.110727e-001 -4.293151e-001
      vertex  1.038644e-001  1.187255e-001 -4.293151e-001
      vertex  1.416729e-001  2.323922e-002 -4.293151e-001
    endloop
  endfacet
  facet normal  0.000000e+000  0.000000e+000 -1.000000e+000
    outer loop
      vertex  1.416729e-001  2.323922e-002 -4.293151e-001
      vertex  1.038644e-001  1.187255e-001 -4.293151e-001
      vertex  1.547515e-001  3.058644e-002 -4.293151e-001
    endloop
  endfacet
  facet normal  4.999999e-001 -8.660255e-001  1.756056e-007
    outer loop
      vertex  1.802955e-001  1.749112e-002 -2.513024e-001
      vertex  1.816397e-001  1.826717e-002 -2.335619e-001
      vertex  1.674038e-001  1.004810e-002 -2.500000e-001
    endloop
  endfacet
  facet normal -8.627299e-001 -4.980973e-001  8.715574e-002
    outer loop
      vertex  9.240381e-002  1.399519e-001 -2.500000e-001
      vertex  9.096222e-002  1.110727e-001 -4.293151e-001
      vertex  1.674038e-001  1.004810e-002 -2.500000e-001
    endloop
  endfacet
  facet normal -8.627300e-001 -4.980974e-001  8.715574e-002
    outer loop
      vertex  1.674038e-001  1.004810e-002 -2.500000e-001
      vertex  9.096222e-002  1.110727e-001 -4.293151e-001
      vertex  1.416729e-001  2.323922e-002 -4.293151e-001
    endloop
  endfacet
  facet normal -4.999996e-001  8.660256e-001  1.433515e-008
    outer loop
      vertex  9.240381e-002  1.399519e-001 -2.500000e-001
      vertex  1.066397e-001  1.481710e-001 -2.335619e-001
      vertex  1.052955e-001  1.473949e-001 -2.513024e-001
    endloop
  endfacet
  facet normal  8.627299e-001  4.980972e-001 -8.715572e-002
    outer loop
      vertex  1.038644e-001  1.187255e-001 -4.293151e-001
      vertex  1.052955e-001  1.473949e-001 -2.513024e-001
      vertex  1.547515e-001  3.058644e-002 -4.293151e-001
    endloop
  endfacet
  facet normal  8.627299e-001  4.980973e-001 -8.715579e-002
    outer loop
      vertex  1.547515e-001  3.058644e-002 -4.293151e-001
      vertex  1.052955e-001  1.473949e-001 -2.513024e-001
      vertex  1.802955e-001  1.749112e-002 -2.513024e-001
    endloop
  endfacet
  facet normal  8.627299e-001  4.980974e-001 -8.715577e-002
    outer loop
      vertex  1.052955e-001  1.473949e-001 -2.513024e-001
      vertex  1.066397e-001  1.481710e-001 -2.335619e-001
      vertex  1.802955e-001  1.749112e-002 -2.513024e-001
    endloop
  endfacet
  facet normal  8.627300e-001  4.980974e-001 -8.715540e-002
    outer loop
      vertex  1.802955e-001  1.749112e-002 -2.513024e-001
      vertex  1.066397e-001  1.481710e-001 -2.335619e-001
      vertex  1.816397e-001  1.826717e-002 -2.335619e-001
    endloop
  endfacet
  facet normal  0.000000e+000  -0.000000e+000 -1.000000e+000
    outer loop
      vertex -1.547515e-001 -3.058644e-002 -4.293151e-001
      vertex -1.416729e-001 -2.323922e-002 -4.293151e-001
      vertex -1.038644e-001 -1.187255e-001 -4.293151e-001
    endloop
  endfacet
  facet normal  0.000000e+000  0.000000e+000 -1.000000e+000
    outer loop
      vertex -1.038644e-001 -1.187255e-001 -4.293151e-001
      vertex -1.416729e-001 -2.323922e-002 -4.293151e-001
      vertex -9.096222e-002 -1.110727e-001 -4.293151e-001
    endloop
  endfacet
  facet normal -4.999999e-001  8.660255e-001  1.756056e-007
    outer loop
      vertex -1.802955e-001 -1.749112e-002 -2.513024e-001
      vertex -1.816397e-001 -1.826717e-002 -2.335619e-001
      vertex -1.674038e-001 -1.004810e-002 -2.500000e-001
    endloop
  endfacet
  facet normal  8.627299e-001  4.980973e-001  8.715574e-002
    outer loop
      vertex -9.240381e-002 -1.399519e-001 -2.500000e-001
      vertex -9.096222e-002 -1.110727e-001 -4.293151e-001
      vertex -1.674038e-001 -1.004810e-002 -2.500000e-001
    endloop
  endfacet
  facet normal  8.627300e-001  4.980974e-001  8.715574e-002
    outer loop
      vertex -1.674038e-001 -1.004810e-002 -2.500000e-001
      vertex -9.096222e-002 -1.110727e-001 -4.293151e-001
      vertex -1.416729e-001 -2.323922e-002 -4.293151e-001
    endloop
  endfacet
  facet normal  4.999996e-001 -8.660256e-001  1.433515e-008
    outer loop
      vertex -9.240381e-002 -1.399519e-001 -2.500000e-001
      vertex -1.066397e-001 -1.481710e-001 -2.335619e-001
      vertex -1.052955e-001 -1.473949e-001 -2.513024e-001
    endloop
  endfacet
  facet normal -8.627299e-001 -4.980972e-001 -8.715572e-002
    outer loop
      vertex -1.038644e-001 -1.187255e-001 -4.293151e-001
      vertex -1.052955e-001 -1.473949e-001 -2.513024e-001
      vertex -1.547515e-001 -3.058644e-002 -4.293151e-001
    endloop
  endfacet
  facet normal -8.627299e-001 -4.980973e-001 -8.715579e-002
    outer loop
      vertex -1.547515e-001 -3.058644e-002 -4.293151e-001
      vertex -1.052955e-001 -1.473949e-001 -2.513024e-001
      vertex -1.802955e-001 -1.749112e-002 -2.513024e-001
    endloop
  endfacet
  facet normal -8.627299e-001 -4.980974e-001 -8.715577e-002
    outer loop
      vertex -1.052955e-001 -1.473949e-001 -2.513024e-001
      vertex -1.066397e-001 -1.481710e-001 -2.335619e-001
      vertex -1.802955e-001 -1.749112e-002 -2.513024e-001
    endloop
  endfacet
  facet normal -8.627300e-001 -4.980974e-001 -8.715540e-002
    outer loop
      vertex -1.802955e-001 -1.749112e-002 -2.513024e-001
      vertex -1.066397e-001 -1.481710e-001 -2.335619e-001
      vertex -1.816397e-001 -1.826717e-002 -2.335619e-001
    endloop
  endfacet
  facet normal  -0.000000e+000  0.000000e+000 -1.000000e+000
    outer loop
      vertex -5.088713e-002  1.493120e-001 -4.293151e-001
      vertex  5.088713e-002  1.493120e-001 -4.293151e-001
      vertex -5.071072e-002  1.343120e-001 -4.293151e-001
    endloop
  endfacet
  facet normal  0.000000e+000  0.000000e+000 -1.000000e+000
    outer loop
      vertex -5.071072e-002  1.343120e-001 -4.293151e-001
      vertex  5.088713e-002  1.493120e-001 -4.293151e-001
      vertex  5.071072e-002  1.343120e-001 -4.293151e-001
    endloop
  endfacet
  facet normal  1.000000e+000  0.000000e+000  0.000000e+000
    outer loop
      vertex  7.500000e-002  1.648861e-001 -2.513024e-001
      vertex  7.500000e-002  1.664382e-001 -2.335619e-001
      vertex  7.500000e-002  1.500000e-001 -2.500000e-001
    endloop
  endfacet
  facet normal  0.000000e+000 -9.961947e-001  8.715575e-002
    outer loop
      vertex -7.500000e-002  1.500000e-001 -2.500000e-001
      vertex -5.071072e-002  1.343120e-001 -4.293151e-001
      vertex  7.500000e-002  1.500000e-001 -2.500000e-001
    endloop
  endfacet
  facet normal  0.000000e+000 -9.961947e-001  8.715575e-002
    outer loop
      vertex  7.500000e-002  1.500000e-001 -2.500000e-001
      vertex -5.071072e-002  1.343120e-001 -4.293151e-001
      vertex  5.071072e-002  1.343120e-001 -4.293151e-001
    endloop
  endfacet
  facet normal -1.000000e+000  0.000000e+000  0.000000e+000
    outer loop
      vertex -7.500000e-002  1.500000e-001 -2.500000e-001
      vertex -7.500000e-002  1.664382e-001 -2.335619e-001
      vertex -7.500000e-002  1.648861e-001 -2.513024e-001
    endloop
  endfacet
  facet normal  0.000000e+000  9.961947e-001 -8.715577e-002
    outer loop
      vertex -5.088713e-002  1.493120e-001 -4.293151e-001
      vertex -7.500000e-002  1.648861e-001 -2.513024e-001
      vertex  5.088713e-002  1.493120e-001 -4.293151e-001
    endloop
  endfacet
  facet normal  0.000000e+000  9.961947e-001 -8.715579e-002
    outer loop
      vertex  5.088713e-002  1.493120e-001 -4.293151e-001
      vertex -7.500000e-002  1.648861e-001 -2.513024e-001
      vertex  7.500000e-002  1.648861e-001 -2.513024e-001
    endloop
  endfacet
  facet normal  0.000000e+000  9.961947e-001 -8.715567e-002
    outer loop
      vertex -7.500000e-002  1.648861e-001 -2.513024e-001
      vertex -7.500000e-002  1.664382e-001 -2.335619e-001
      vertex  7.500000e-002  1.648861e-001 -2.513024e-001
    endloop
  endfacet
  facet normal  0.000000e+000  9.961947e-001 -8.715567e-002
    outer loop
      vertex  7.500000e-002  1.648861e-001 -2.513024e-001
      vertex -7.500000e-002  1.664382e-001 -2.335619e-001
      vertex  7.500000e-002  1.664382e-001 -2.335619e-001
    endloop
  endfacet
  facet normal  0.000000e+000  0.000000e+000 -1.000000e+000
    outer loop
      vertex -1.547515e-001  3.058644e-002 -4.293151e-001
      vertex -1.038644e-001  1.187255e-001 -4.293151e-001
      vertex -1.416729e-001  2.323922e-002 -4.293151e-001
    endloop
  endfacet
  facet normal  0.000000e+000  0.000000e+000 -1.000000e+000
    outer loop
      vertex -1.416729e-001  2.323922e-002 -4.293151e-001
      vertex -1.038644e-001  1.187255e-001 -4.293151e-001
      vertex -9.096222e-002  1.110727e-001 -4.293151e-001
    endloop
  endfacet
  facet normal  4.999996e-001  8.660256e-001  1.433515e-008
    outer loop
      vertex -1.052955e-001  1.473949e-001 -2.513024e-001
      vertex -1.066397e-001  1.481710e-001 -2.335619e-001
      vertex -9.240381e-002  1.399519e-001 -2.500000e-001
    endloop
  endfacet
  facet normal  8.627298e-001 -4.980973e-001  8.715574e-002
    outer loop
      vertex -1.674038e-001  1.004810e-002 -2.500000e-001
      vertex -1.416729e-001  2.323922e-002 -4.293151e-001
      vertex -9.240381e-002  1.399519e-001 -2.500000e-001
    endloop
  endfacet
  facet normal  8.627299e-001 -4.980973e-001  8.715574e-002
    outer loop
      vertex -9.240381e-002  1.399519e-001 -2.500000e-001
      vertex -1.416729e-001  2.323922e-002 -4.293151e-001
      vertex -9.096222e-002  1.110727e-001 -4.293151e-001
    endloop
  endfacet
  facet normal -4.999999e-001 -8.660255e-001  1.756056e-007
    outer loop
      vertex -1.674038e-001  1.004810e-002 -2.500000e-001
      vertex -1.816397e-001  1.826717e-002 -2.335619e-001
      vertex -1.802955e-001  1.749112e-002 -2.513024e-001
    endloop
  endfacet
  facet normal -8.627300e-001  4.980973e-001 -8.715581e-002
    outer loop
      vertex -1.547515e-001  3.058644e-002 -4.293151e-001
      vertex -1.802955e-001  1.749112e-002 -2.513024e-001
      vertex -1.038644e-001  1.187255e-001 -4.293151e-001
    endloop
  endfacet
  facet normal -8.627299e-001  4.980974e-001 -8.715573e-002
    outer loop
      vertex -1.038644e-001  1.187255e-001 -4.293151e-001
      vertex -1.802955e-001  1.749112e-002 -2.513024e-001
      vertex -1.052955e-001  1.473949e-001 -2.513024e-001
    endloop
  endfacet
  facet normal -8.627299e-001  4.980973e-001 -8.715539e-002
    outer loop
      vertex -1.802955e-001  1.749112e-002 -2.513024e-001
      vertex -1.816397e-001  1.826717e-002 -2.335619e-001
      vertex -1.052955e-001  1.473949e-001 -2.513024e-001
    endloop
  endfacet
  facet normal -8.627299e-001  4.980973e-001 -8.715576e-002
    outer loop
      vertex -1.052955e-001  1.473949e-001 -2.513024e-001
      vertex -1.816397e-001  1.826717e-002 -2.335619e-001
      vertex -1.066397e-001  1.481710e-001 -2.335619e-001
    endloop
  endfacet
  facet normal  0.000000e+000  0.000000e+000 -1.000000e+000
    outer loop
      vertex  9.096222e-002 -1.110727e-001 -4.293151e-001
      vertex  1.416729e-001 -2.323922e-002 -4.293151e-001
      vertex  1.038644e-001 -1.187255e-001 -4.293151e-001
    endloop
  endfacet
  facet normal  0.000000e+000  0.000000e+000 -1.000000e+000
    outer loop
      vertex  1.038644e-001 -1.187255e-001 -4.293151e-001
      vertex  1.416729e-001 -2.323922e-002 -4.293151e-001
      vertex  1.547515e-001 -3.058644e-002 -4.293151e-001
    endloop
  endfacet
  facet normal -4.999996e-001 -8.660256e-001  1.433515e-008
    outer loop
      vertex  1.052955e-001 -1.473949e-001 -2.513024e-001
      vertex  1.066397e-001 -1.481710e-001 -2.335619e-001
      vertex  9.240381e-002 -1.399519e-001 -2.500000e-001
    endloop
  endfacet
  facet normal -8.627298e-001  4.980973e-001  8.715574e-002
    outer loop
      vertex  1.674038e-001 -1.004810e-002 -2.500000e-001
      vertex  1.416729e-001 -2.323922e-002 -4.293151e-001
      vertex  9.240381e-002 -1.399519e-001 -2.500000e-001
    endloop
  endfacet
  facet normal -8.627299e-001  4.980973e-001  8.715574e-002
    outer loop
      vertex  9.240381e-002 -1.399519e-001 -2.500000e-001
      vertex  1.416729e-001 -2.323922e-002 -4.293151e-001
      vertex  9.096222e-002 -1.110727e-001 -4.293151e-001
    endloop
  endfacet
  facet normal  4.999999e-001  8.660255e-001  1.756056e-007
    outer loop
      vertex  1.674038e-001 -1.004810e-002 -2.500000e-001
      vertex  1.816397e-001 -1.826717e-002 -2.335619e-001
      vertex  1.802955e-001 -1.749112e-002 -2.513024e-001
    endloop
  endfacet
  facet normal  8.627300e-001 -4.980973e-001 -8.715581e-002
    outer loop
      vertex  1.547515e-001 -3.058644e-002 -4.293151e-001
      vertex  1.802955e-001 -1.749112e-002 -2.513024e-001
      vertex  1.038644e-001 -1.187255e-001 -4.293151e-001
    endloop
  endfacet
  facet normal  8.627299e-001 -4.980974e-001 -8.715573e-002
    outer loop
      vertex  1.038644e-001 -1.187255e-001 -4.293151e-001
      vertex  1.802955e-001 -1.749112e-002 -2.513024e-001
      vertex  1.052955e-001 -1.473949e-001 -2.513024e-001
    endloop
  endfacet
  facet normal  8.627299e-001 -4.980973e-001 -8.715539e-002
    outer loop
      vertex  1.802955e-001 -1.749112e-002 -2.513024e-001
      vertex  1.816397e-001 -1.826717e-002 -2.335619e-001
      vertex  1.052955e-001 -1.473949e-001 -2.513024e-001
    endloop
  endfacet
  facet normal  8.627299e-001 -4.980973e-001 -8.715576e-002
    outer loop
      vertex  1.052955e-001 -1.473949e-001 -2.513024e-001
      vertex  1.816397e-001 -1.826717e-002 -2.335619e-001
      vertex  1.066397e-001 -1.481710e-001 -2.335619e-001
    endloop
  endfacet
  facet normal  6.123724e-001  3.535533e-001 -7.071068e-001
    outer loop
      vertex  1.732051e-001  4.085621e-017 -2.500000e-001
      vertex  1.674038e-001  1.004810e-002 -2.500000e-001
      vertex  2.309401e-001  1.421086e-017 -2.000000e-001
    endloop
  endfacet
  facet normal  6.123724e-001  3.535536e-001 -7.071066e-001
    outer loop
      vertex  2.309401e-001  1.421086e-017 -2.000000e-001
      vertex  1.674038e-001  1.004810e-002 -2.500000e-001
      vertex  1.816397e-001  1.826717e-002 -2.335619e-001
    endloop
  endfacet
  facet normal  6.123723e-001  3.535533e-001 -7.071068e-001
    outer loop
      vertex  2.309401e-001  1.421086e-017 -2.000000e-001
      vertex  1.816397e-001  1.826717e-002 -2.335619e-001
      vertex  1.154701e-001  2.000000e-001 -2.000000e-001
    endloop
  endfacet
  facet normal  6.123724e-001  3.535534e-001 -7.071068e-001
    outer loop
      vertex  1.154701e-001  2.000000e-001 -2.000000e-001
      vertex  1.816397e-001  1.826717e-002 -2.335619e-001
      vertex  1.066397e-001  1.481710e-001 -2.335619e-001
    endloop
  endfacet
  facet normal  6.123725e-001  3.535533e-001 -7.071068e-001
    outer loop
      vertex  1.154701e-001  2.000000e-001 -2.000000e-001
      vertex  1.066397e-001  1.481710e-001 -2.335619e-001
      vertex  8.660255e-002  1.500000e-001 -2.500000e-001
    endloop
  endfacet
  facet normal  6.123725e-001  3.535534e-001 -7.071068e-001
    outer loop
      vertex  8.660255e-002  1.500000e-001 -2.500000e-001
      vertex  1.066397e-001  1.481710e-001 -2.335619e-001
      vertex  9.240381e-002  1.399519e-001 -2.500000e-001
    endloop
  endfacet
  facet normal  0.000000e+000  7.071068e-001 -7.071068e-001
    outer loop
      vertex -1.154701e-001  2.000000e-001 -2.000000e-001
      vertex -7.500000e-002  1.500000e-001 -2.500000e-001
      vertex -8.660255e-002  1.500000e-001 -2.500000e-001
    endloop
  endfacet
  facet normal  0.000000e+000  7.071068e-001 -7.071068e-001
    outer loop
      vertex -7.500000e-002  1.500000e-001 -2.500000e-001
      vertex -1.154701e-001  2.000000e-001 -2.000000e-001
      vertex -7.500000e-002  1.664382e-001 -2.335619e-001
    endloop
  endfacet
  facet normal  0.000000e+000  7.071067e-001 -7.071067e-001
    outer loop
      vertex -7.500000e-002  1.664382e-001 -2.335619e-001
      vertex -1.154701e-001  2.000000e-001 -2.000000e-001
      vertex  1.154701e-001  2.000000e-001 -2.000000e-001
    endloop
  endfacet
  facet normal  0.000000e+000  7.071068e-001 -7.071068e-001
    outer loop
      vertex -7.500000e-002  1.664382e-001 -2.335619e-001
      vertex  1.154701e-001  2.000000e-001 -2.000000e-001
      vertex  7.500000e-002  1.664382e-001 -2.335619e-001
    endloop
  endfacet
  facet normal  0.000000e+000  7.071068e-001 -7.071068e-001
    outer loop
      vertex  7.500000e-002  1.664382e-001 -2.335619e-001
      vertex  1.154701e-001  2.000000e-001 -2.000000e-001
      vertex  8.660255e-002  1.500000e-001 -2.500000e-001
    endloop
  endfacet
  facet normal  0.000000e+000  7.071068e-001 -7.071068e-001
    outer loop
      vertex  7.500000e-002  1.664382e-001 -2.335619e-001
      vertex  8.660255e-002  1.500000e-001 -2.500000e-001
      vertex  7.500000e-002  1.500000e-001 -2.500000e-001
    endloop
  endfacet
  facet normal -6.123724e-001  3.535533e-001 -7.071068e-001
    outer loop
      vertex -8.660255e-002  1.500000e-001 -2.500000e-001
      vertex -9.240381e-002  1.399519e-001 -2.500000e-001
      vertex -1.154701e-001  2.000000e-001 -2.000000e-001
    endloop
  endfacet
  facet normal -6.123725e-001  3.535533e-001 -7.071068e-001
    outer loop
      vertex -1.154701e-001  2.000000e-001 -2.000000e-001
      vertex -9.240381e-002  1.399519e-001 -2.500000e-001
      vertex -1.066397e-001  1.481710e-001 -2.335619e-001
    endloop
  endfacet
  facet normal -6.123724e-001  3.535534e-001 -7.071069e-001
    outer loop
      vertex -1.154701e-001  2.000000e-001 -2.000000e-001
      vertex -1.066397e-001  1.481710e-001 -2.335619e-001
      vertex -2.309401e-001 -4.263256e-017 -2.000000e-001
    endloop
  endfacet
  facet normal -6.123723e-001  3.535534e-001 -7.071069e-001
    outer loop
      vertex -2.309401e-001 -4.263256e-017 -2.000000e-001
      vertex -1.066397e-001  1.481710e-001 -2.335619e-001
      vertex -1.816397e-001  1.826717e-002 -2.335619e-001
    endloop
  endfacet
  facet normal -6.123724e-001  3.535537e-001 -7.071068e-001
    outer loop
      vertex -2.309401e-001 -4.263256e-017 -2.000000e-001
      vertex -1.816397e-001  1.826717e-002 -2.335619e-001
      vertex -1.732051e-001  7.993606e-017 -2.500000e-001
    endloop
  endfacet
  facet normal -6.123725e-001  3.535534e-001 -7.071066e-001
    outer loop
      vertex -1.732051e-001  7.993606e-017 -2.500000e-001
      vertex -1.816397e-001  1.826717e-002 -2.335619e-001
      vertex -1.674038e-001  1.004810e-002 -2.500000e-001
    endloop
  endfacet
  facet normal -6.123724e-001 -3.535533e-001 -7.071068e-001
    outer loop
      vertex -1.154701e-001 -2.000000e-001 -2.000000e-001
      vertex -9.240381e-002 -1.399519e-001 -2.500000e-001
      vertex -8.660255e-002 -1.500000e-001 -2.500000e-001
    endloop
  endfacet
  facet normal -6.123725e-001 -3.535533e-001 -7.071068e-001
    outer loop
      vertex -9.240381e-002 -1.399519e-001 -2.500000e-001
      vertex -1.154701e-001 -2.000000e-001 -2.000000e-001
      vertex -1.066397e-001 -1.481710e-001 -2.335619e-001
    endloop
  endfacet
  facet normal -6.123724e-001 -3.535534e-001 -7.071069e-001
    outer loop
      vertex -1.066397e-001 -1.481710e-001 -2.335619e-001
      vertex -1.154701e-001 -2.000000e-001 -2.000000e-001
      vertex -2.309401e-001 -4.263256e-017 -2.000000e-001
    endloop
  endfacet
  facet normal -6.123723e-001 -3.535534e-001 -7.071069e-001
    outer loop
      vertex -1.066397e-001 -1.481710e-001 -2.335619e-001
      vertex -2.309401e-001 -4.263256e-017 -2.000000e-001
      vertex -1.816397e-001 -1.826717e-002 -2.335619e-001
    endloop
  endfacet
  facet normal -6.123724e-001 -3.535537e-001 -7.071068e-001
    outer loop
      vertex -1.816397e-001 -1.826717e-002 -2.335619e-001
      vertex -2.309401e-001 -4.263256e-017 -2.000000e-001
      vertex -1.732051e-001  7.993606e-017 -2.500000e-001
    endloop
  endfacet
  facet normal -6.123725e-001 -3.535534e-001 -7.071066e-001
    outer loop
      vertex -1.816397e-001 -1.826717e-002 -2.335619e-001
      vertex -1.732051e-001  7.993606e-017 -2.500000e-001
      vertex -1.674038e-001 -1.004810e-002 -2.500000e-001
    endloop
  endfacet
  facet normal  6.123724e-001 -3.535533e-001 -7.071068e-001
    outer loop
      vertex  2.309401e-001  1.421086e-017 -2.000000e-001
      vertex  1.674038e-001 -1.004810e-002 -2.500000e-001
      vertex  1.732051e-001  4.085621e-017 -2.500000e-001
    endloop
  endfacet
  facet normal  6.123724e-001 -3.535536e-001 -7.071066e-001
    outer loop
      vertex  1.674038e-001 -1.004810e-002 -2.500000e-001
      vertex  2.309401e-001  1.421086e-017 -2.000000e-001
      vertex  1.816397e-001 -1.826717e-002 -2.335619e-001
    endloop
  endfacet
  facet normal  6.123723e-001 -3.535533e-001 -7.071068e-001
    outer loop
      vertex  1.816397e-001 -1.826717e-002 -2.335619e-001
      vertex  2.309401e-001  1.421086e-017 -2.000000e-001
      vertex  1.154701e-001 -2.000000e-001 -2.000000e-001
    endloop
  endfacet
  facet normal  6.123724e-001 -3.535534e-001 -7.071068e-001
    outer loop
      vertex  1.816397e-001 -1.826717e-002 -2.335619e-001
      vertex  1.154701e-001 -2.000000e-001 -2.000000e-001
      vertex  1.066397e-001 -1.481710e-001 -2.335619e-001
    endloop
  endfacet
  facet normal  6.123725e-001 -3.535533e-001 -7.071068e-001
    outer loop
      vertex  1.066397e-001 -1.481710e-001 -2.335619e-001
      vertex  1.154701e-001 -2.000000e-001 -2.000000e-001
      vertex  8.660255e-002 -1.500000e-001 -2.500000e-001
    endloop
  endfacet
  facet normal  6.123725e-001 -3.535534e-001 -7.071068e-001
    outer loop
      vertex  1.066397e-001 -1.481710e-001 -2.335619e-001
      vertex  8.660255e-002 -1.500000e-001 -2.500000e-001
      vertex  9.240381e-002 -1.399519e-001 -2.500000e-001
    endloop
  endfacet
  facet normal -9.910180e-001  1.165507e-002 -1.332196e-001
    outer loop
      vertex -5.088713e-002 -1.493120e-001 -4.293151e-001
      vertex -7.500000e-002 -1.648861e-001 -2.513024e-001
      vertex -5.071072e-002 -1.343120e-001 -4.293151e-001
    endloop
  endfacet
  facet normal -9.910181e-001  1.165533e-002 -1.332196e-001
    outer loop
      vertex -5.071072e-002 -1.343120e-001 -4.293151e-001
      vertex -7.500000e-002 -1.648861e-001 -2.513024e-001
      vertex -7.500000e-002 -1.500000e-001 -2.500000e-001
    endloop
  endfacet
  facet normal  9.910180e-001  1.165508e-002 -1.332196e-001
    outer loop
      vertex  5.088713e-002 -1.493120e-001 -4.293151e-001
      vertex  5.071072e-002 -1.343120e-001 -4.293151e-001
      vertex  7.500000e-002 -1.648861e-001 -2.513024e-001
    endloop
  endfacet
  facet normal  9.910181e-001  1.165526e-002 -1.332196e-001
    outer loop
      vertex  7.500000e-002 -1.648861e-001 -2.513024e-001
      vertex  5.071072e-002 -1.343120e-001 -4.293151e-001
      vertex  7.500000e-002 -1.500000e-001 -2.500000e-001
    endloop
  endfacet
  facet normal  -0.000000e+000  0.000000e+000 -1.000000e+000
    outer loop
      vertex -5.071072e-002 -1.343120e-001 -4.293151e-001
      vertex  5.071072e-002 -1.343120e-001 -4.293151e-001
      vertex -5.088713e-002 -1.493120e-001 -4.293151e-001
    endloop
  endfacet
  facet normal  0.000000e+000  0.000000e+000 -1.000000e+000
    outer loop
      vertex -5.088713e-002 -1.493120e-001 -4.293151e-001
      vertex  5.071072e-002 -1.343120e-001 -4.293151e-001
      vertex  5.088713e-002 -1.493120e-001 -4.293151e-001
    endloop
  endfacet
  facet normal -1.000000e+000  0.000000e+000  0.000000e+000
    outer loop
      vertex -7.500000e-002 -1.648861e-001 -2.513024e-001
      vertex -7.500000e-002 -1.664382e-001 -2.335619e-001
      vertex -7.500000e-002 -1.500000e-001 -2.500000e-001
    endloop
  endfacet
  facet normal  0.000000e+000  9.961947e-001  8.715575e-002
    outer loop
      vertex  7.500000e-002 -1.500000e-001 -2.500000e-001
      vertex  5.071072e-002 -1.343120e-001 -4.293151e-001
      vertex -7.500000e-002 -1.500000e-001 -2.500000e-001
    endloop
  endfacet
  facet normal  0.000000e+000  9.961947e-001  8.715575e-002
    outer loop
      vertex -7.500000e-002 -1.500000e-001 -2.500000e-001
      vertex  5.071072e-002 -1.343120e-001 -4.293151e-001
      vertex -5.071072e-002 -1.343120e-001 -4.293151e-001
    endloop
  endfacet
  facet normal  1.000000e+000  0.000000e+000  0.000000e+000
    outer loop
      vertex  7.500000e-002 -1.500000e-001 -2.500000e-001
      vertex  7.500000e-002 -1.664382e-001 -2.335619e-001
      vertex  7.500000e-002 -1.648861e-001 -2.513024e-001
    endloop
  endfacet
  facet normal  0.000000e+000 -9.961947e-001 -8.715577e-002
    outer loop
      vertex  5.088713e-002 -1.493120e-001 -4.293151e-001
      vertex  7.500000e-002 -1.648861e-001 -2.513024e-001
      vertex -5.088713e-002 -1.493120e-001 -4.293151e-001
    endloop
  endfacet
  facet normal  0.000000e+000 -9.961947e-001 -8.715579e-002
    outer loop
      vertex -5.088713e-002 -1.493120e-001 -4.293151e-001
      vertex  7.500000e-002 -1.648861e-001 -2.513024e-001
      vertex -7.500000e-002 -1.648861e-001 -2.513024e-001
    endloop
  endfacet
  facet normal  0.000000e+000 -9.961947e-001 -8.715567e-002
    outer loop
      vertex  7.500000e-002 -1.648861e-001 -2.513024e-001
      vertex  7.500000e-002 -1.664382e-001 -2.335619e-001
      vertex -7.500000e-002 -1.648861e-001 -2.513024e-001
    endloop
  endfacet
  facet normal  0.000000e+000 -9.961947e-001 -8.715567e-002
    outer loop
      vertex -7.500000e-002 -1.648861e-001 -2.513024e-001
      vertex  7.500000e-002 -1.664382e-001 -2.335619e-001
      vertex -7.500000e-002 -1.664382e-001 -2.335619e-001
    endloop
  endfacet
  facet normal  -0.000000e+000 -7.071068e-001 -7.071068e-001
    outer loop
      vertex -8.660255e-002 -1.500000e-001 -2.500000e-001
      vertex -7.500000e-002 -1.500000e-001 -2.500000e-001
      vertex -1.154701e-001 -2.000000e-001 -2.000000e-001
    endloop
  endfacet
  facet normal  0.000000e+000 -7.071068e-001 -7.071068e-001
    outer loop
      vertex -1.154701e-001 -2.000000e-001 -2.000000e-001
      vertex -7.500000e-002 -1.500000e-001 -2.500000e-001
      vertex -7.500000e-002 -1.664382e-001 -2.335619e-001
    endloop
  endfacet
  facet normal  0.000000e+000 -7.071067e-001 -7.071067e-001
    outer loop
      vertex -1.154701e-001 -2.000000e-001 -2.000000e-001
      vertex -7.500000e-002 -1.664382e-001 -2.335619e-001
      vertex  1.154701e-001 -2.000000e-001 -2.000000e-001
    endloop
  endfacet
  facet normal  0.000000e+000 -7.071068e-001 -7.071068e-001
    outer loop
      vertex  1.154701e-001 -2.000000e-001 -2.000000e-001
      vertex -7.500000e-002 -1.664382e-001 -2.335619e-001
      vertex  7.500000e-002 -1.664382e-001 -2.335619e-001
    endloop
  endfacet
  facet normal  0.000000e+000 -7.071068e-001 -7.071068e-001
    outer loop
      vertex  1.154701e-001 -2.000000e-001 -2.000000e-001
      vertex  7.500000e-002 -1.664382e-001 -2.335619e-001
      vertex  8.660255e-002 -1.500000e-001 -2.500000e-001
    endloop
  endfacet
  facet normal  -0.000000e+000 -7.071068e-001 -7.071068e-001
    outer loop
      vertex  8.660255e-002 -1.500000e-001 -2.500000e-001
      vertex  7.500000e-002 -1.664382e-001 -2.335619e-001
      vertex  7.500000e-002 -1.500000e-001 -2.500000e-001
    endloop
  endfacet
endsolid CATIA STL
